%TF.GenerationSoftware,KiCad,Pcbnew,(5.1.12-1-10_14)*%
%TF.CreationDate,2022-09-08T10:49:59+08:00*%
%TF.ProjectId,0102-TILEDAP,30313032-2d54-4494-9c45-4441502e6b69,V1.1*%
%TF.SameCoordinates,Original*%
%TF.FileFunction,Legend,Top*%
%TF.FilePolarity,Positive*%
%FSLAX46Y46*%
G04 Gerber Fmt 4.6, Leading zero omitted, Abs format (unit mm)*
G04 Created by KiCad (PCBNEW (5.1.12-1-10_14)) date 2022-09-08 10:49:59*
%MOMM*%
%LPD*%
G01*
G04 APERTURE LIST*
%ADD10C,0.120000*%
G04 APERTURE END LIST*
D10*
X29661904Y17525620D02*
X29280952Y17258953D01*
X29661904Y17068477D02*
X28861904Y17068477D01*
X28861904Y17373239D01*
X28900000Y17449429D01*
X28938095Y17487524D01*
X29014285Y17525620D01*
X29128571Y17525620D01*
X29204761Y17487524D01*
X29242857Y17449429D01*
X29280952Y17373239D01*
X29280952Y17068477D01*
X29623809Y17830381D02*
X29661904Y17944667D01*
X29661904Y18135143D01*
X29623809Y18211334D01*
X29585714Y18249429D01*
X29509523Y18287524D01*
X29433333Y18287524D01*
X29357142Y18249429D01*
X29319047Y18211334D01*
X29280952Y18135143D01*
X29242857Y17982762D01*
X29204761Y17906572D01*
X29166666Y17868477D01*
X29090476Y17830381D01*
X29014285Y17830381D01*
X28938095Y17868477D01*
X28900000Y17906572D01*
X28861904Y17982762D01*
X28861904Y18173239D01*
X28900000Y18287524D01*
X28861904Y18516096D02*
X28861904Y18973239D01*
X29661904Y18744667D02*
X28861904Y18744667D01*
X25661904Y19393429D02*
X25280952Y19126762D01*
X25661904Y18936286D02*
X24861904Y18936286D01*
X24861904Y19241048D01*
X24900000Y19317239D01*
X24938095Y19355334D01*
X25014285Y19393429D01*
X25128571Y19393429D01*
X25204761Y19355334D01*
X25242857Y19317239D01*
X25280952Y19241048D01*
X25280952Y18936286D01*
X24861904Y19736286D02*
X25509523Y19736286D01*
X25585714Y19774381D01*
X25623809Y19812477D01*
X25661904Y19888667D01*
X25661904Y20041048D01*
X25623809Y20117239D01*
X25585714Y20155334D01*
X25509523Y20193429D01*
X24861904Y20193429D01*
X25661904Y20574381D02*
X24861904Y20574381D01*
X25661904Y21031524D01*
X24861904Y21031524D01*
X25861904Y19012477D02*
X26509523Y19012477D01*
X26585714Y19050572D01*
X26623809Y19088667D01*
X26661904Y19164858D01*
X26661904Y19317239D01*
X26623809Y19393429D01*
X26585714Y19431524D01*
X26509523Y19469620D01*
X25861904Y19469620D01*
X26623809Y19812477D02*
X26661904Y19926762D01*
X26661904Y20117239D01*
X26623809Y20193429D01*
X26585714Y20231524D01*
X26509523Y20269620D01*
X26433333Y20269620D01*
X26357142Y20231524D01*
X26319047Y20193429D01*
X26280952Y20117239D01*
X26242857Y19964858D01*
X26204761Y19888667D01*
X26166666Y19850572D01*
X26090476Y19812477D01*
X26014285Y19812477D01*
X25938095Y19850572D01*
X25900000Y19888667D01*
X25861904Y19964858D01*
X25861904Y20155334D01*
X25900000Y20269620D01*
X26242857Y20879143D02*
X26280952Y20993429D01*
X26319047Y21031524D01*
X26395238Y21069620D01*
X26509523Y21069620D01*
X26585714Y21031524D01*
X26623809Y20993429D01*
X26661904Y20917239D01*
X26661904Y20612477D01*
X25861904Y20612477D01*
X25861904Y20879143D01*
X25900000Y20955334D01*
X25938095Y20993429D01*
X26014285Y21031524D01*
X26090476Y21031524D01*
X26166666Y20993429D01*
X26204761Y20955334D01*
X26242857Y20879143D01*
X26242857Y20612477D01*
X37968000Y11690477D02*
X37929904Y11614286D01*
X37929904Y11500000D01*
X37968000Y11385715D01*
X38044190Y11309524D01*
X38120380Y11271429D01*
X38272761Y11233334D01*
X38387047Y11233334D01*
X38539428Y11271429D01*
X38615619Y11309524D01*
X38691809Y11385715D01*
X38729904Y11500000D01*
X38729904Y11576191D01*
X38691809Y11690477D01*
X38653714Y11728572D01*
X38387047Y11728572D01*
X38387047Y11576191D01*
X38729904Y12071429D02*
X37929904Y12071429D01*
X38729904Y12528572D01*
X37929904Y12528572D01*
X38729904Y12909524D02*
X37929904Y12909524D01*
X37929904Y13100000D01*
X37968000Y13214286D01*
X38044190Y13290477D01*
X38120380Y13328572D01*
X38272761Y13366667D01*
X38387047Y13366667D01*
X38539428Y13328572D01*
X38615619Y13290477D01*
X38691809Y13214286D01*
X38729904Y13100000D01*
X38729904Y12909524D01*
X38504666Y6858096D02*
X38271333Y7239048D01*
X38104666Y6858096D02*
X38104666Y7658096D01*
X38371333Y7658096D01*
X38438000Y7620000D01*
X38471333Y7581905D01*
X38504666Y7505715D01*
X38504666Y7391429D01*
X38471333Y7315239D01*
X38438000Y7277143D01*
X38371333Y7239048D01*
X38104666Y7239048D01*
X38771333Y6896191D02*
X38871333Y6858096D01*
X39038000Y6858096D01*
X39104666Y6896191D01*
X39138000Y6934286D01*
X39171333Y7010477D01*
X39171333Y7086667D01*
X39138000Y7162858D01*
X39104666Y7200953D01*
X39038000Y7239048D01*
X38904666Y7277143D01*
X38838000Y7315239D01*
X38804666Y7353334D01*
X38771333Y7429524D01*
X38771333Y7505715D01*
X38804666Y7581905D01*
X38838000Y7620000D01*
X38904666Y7658096D01*
X39071333Y7658096D01*
X39171333Y7620000D01*
X39371333Y7658096D02*
X39771333Y7658096D01*
X39571333Y6858096D02*
X39571333Y7658096D01*
X41147523Y7620000D02*
X41071333Y7658096D01*
X40957047Y7658096D01*
X40842761Y7620000D01*
X40766571Y7543810D01*
X40728476Y7467620D01*
X40690380Y7315239D01*
X40690380Y7200953D01*
X40728476Y7048572D01*
X40766571Y6972381D01*
X40842761Y6896191D01*
X40957047Y6858096D01*
X41033238Y6858096D01*
X41147523Y6896191D01*
X41185619Y6934286D01*
X41185619Y7200953D01*
X41033238Y7200953D01*
X38004666Y9182096D02*
X38404666Y9182096D01*
X38204666Y8382096D02*
X38204666Y9182096D01*
X38571333Y9182096D02*
X39038000Y8382096D01*
X39038000Y9182096D02*
X38571333Y8382096D01*
X40538000Y8382096D02*
X40304666Y8763048D01*
X40138000Y8382096D02*
X40138000Y9182096D01*
X40404666Y9182096D01*
X40471333Y9144000D01*
X40504666Y9105905D01*
X40538000Y9029715D01*
X40538000Y8915429D01*
X40504666Y8839239D01*
X40471333Y8801143D01*
X40404666Y8763048D01*
X40138000Y8763048D01*
X40771333Y9182096D02*
X41238000Y8382096D01*
X41238000Y9182096D02*
X40771333Y8382096D01*
X38504666Y15570286D02*
X38471333Y15532191D01*
X38371333Y15494096D01*
X38304666Y15494096D01*
X38204666Y15532191D01*
X38138000Y15608381D01*
X38104666Y15684572D01*
X38071333Y15836953D01*
X38071333Y15951239D01*
X38104666Y16103620D01*
X38138000Y16179810D01*
X38204666Y16256000D01*
X38304666Y16294096D01*
X38371333Y16294096D01*
X38471333Y16256000D01*
X38504666Y16217905D01*
X39138000Y15494096D02*
X38804666Y15494096D01*
X38804666Y16294096D01*
X39371333Y15494096D02*
X39371333Y16294096D01*
X39771333Y15494096D02*
X39471333Y15951239D01*
X39771333Y16294096D02*
X39371333Y15836953D01*
X38104666Y17018096D02*
X38104666Y17818096D01*
X38271333Y17818096D01*
X38371333Y17780000D01*
X38438000Y17703810D01*
X38471333Y17627620D01*
X38504666Y17475239D01*
X38504666Y17360953D01*
X38471333Y17208572D01*
X38438000Y17132381D01*
X38371333Y17056191D01*
X38271333Y17018096D01*
X38104666Y17018096D01*
X38804666Y17018096D02*
X38804666Y17818096D01*
X39271333Y17818096D02*
X39404666Y17818096D01*
X39471333Y17780000D01*
X39538000Y17703810D01*
X39571333Y17551429D01*
X39571333Y17284762D01*
X39538000Y17132381D01*
X39471333Y17056191D01*
X39404666Y17018096D01*
X39271333Y17018096D01*
X39204666Y17056191D01*
X39138000Y17132381D01*
X39104666Y17284762D01*
X39104666Y17551429D01*
X39138000Y17703810D01*
X39204666Y17780000D01*
X39271333Y17818096D01*
X40138000Y16294096D02*
X40371333Y15494096D01*
X40604666Y16294096D01*
X40771333Y16294096D02*
X41204666Y16294096D01*
X40971333Y15989334D01*
X41071333Y15989334D01*
X41138000Y15951239D01*
X41171333Y15913143D01*
X41204666Y15836953D01*
X41204666Y15646477D01*
X41171333Y15570286D01*
X41138000Y15532191D01*
X41071333Y15494096D01*
X40871333Y15494096D01*
X40804666Y15532191D01*
X40771333Y15570286D01*
X40138000Y17818096D02*
X40371333Y17018096D01*
X40604666Y17818096D01*
X41171333Y17818096D02*
X40838000Y17818096D01*
X40804666Y17437143D01*
X40838000Y17475239D01*
X40904666Y17513334D01*
X41071333Y17513334D01*
X41138000Y17475239D01*
X41171333Y17437143D01*
X41204666Y17360953D01*
X41204666Y17170477D01*
X41171333Y17094286D01*
X41138000Y17056191D01*
X41071333Y17018096D01*
X40904666Y17018096D01*
X40838000Y17056191D01*
X40804666Y17094286D01*
%TO.C,R14*%
X15703641Y15180000D02*
X15396359Y15180000D01*
X15703641Y14420000D02*
X15396359Y14420000D01*
%TO.C,Q1*%
X14790000Y18630000D02*
X16250000Y18630000D01*
X14790000Y15470000D02*
X16950000Y15470000D01*
X14790000Y15470000D02*
X14790000Y16400000D01*
X14790000Y18630000D02*
X14790000Y17700000D01*
%TO.C,C5*%
X23940000Y17387836D02*
X23940000Y17172164D01*
X24660000Y17387836D02*
X24660000Y17172164D01*
%TO.C,R10*%
X15396359Y13420000D02*
X15703641Y13420000D01*
X15396359Y14180000D02*
X15703641Y14180000D01*
%TO.C,SW1*%
X31100000Y15300000D02*
X31100000Y9300000D01*
X31100000Y9300000D02*
X30300000Y9300000D01*
X30300000Y15300000D02*
X31100000Y15300000D01*
X28300000Y15300000D02*
X27500000Y15300000D01*
X27500000Y15300000D02*
X27500000Y9300000D01*
X27500000Y9300000D02*
X28300000Y9300000D01*
X29950000Y13600000D02*
X28650000Y13600000D01*
X28650000Y13600000D02*
X28650000Y11000000D01*
X28650000Y11000000D02*
X29950000Y11000000D01*
X29950000Y11000000D02*
X29950000Y13600000D01*
%TO.C,Y1*%
X17915000Y4815000D02*
X17715000Y4815000D01*
X21385000Y7600000D02*
X21385000Y5000000D01*
X17715000Y4815000D02*
X17715000Y7600000D01*
%TO.C,U2*%
X18190000Y9915000D02*
X18190000Y9190000D01*
X24410000Y15410000D02*
X23685000Y15410000D01*
X24410000Y14685000D02*
X24410000Y15410000D01*
X24410000Y9190000D02*
X23685000Y9190000D01*
X24410000Y9915000D02*
X24410000Y9190000D01*
X18190000Y15410000D02*
X18915000Y15410000D01*
X18190000Y14685000D02*
X18190000Y15410000D01*
%TO.C,R9*%
X26463640Y12180000D02*
X26156358Y12180000D01*
X26463640Y11420000D02*
X26156358Y11420000D01*
%TO.C,R8*%
X15703641Y11180000D02*
X15396359Y11180000D01*
X15703641Y10420000D02*
X15396359Y10420000D01*
%TO.C,R7*%
X26463640Y9930000D02*
X26156358Y9930000D01*
X26463640Y9170000D02*
X26156358Y9170000D01*
%TO.C,R6*%
X26463641Y8930000D02*
X26156359Y8930000D01*
X26463641Y8170000D02*
X26156359Y8170000D01*
%TO.C,C11*%
X16790000Y6407836D02*
X16790000Y6192164D01*
X17510000Y6407836D02*
X17510000Y6192164D01*
%TO.C,C8*%
X22310000Y6192164D02*
X22310000Y6407836D01*
X21590000Y6192164D02*
X21590000Y6407836D01*
%TO.C,U1*%
X10690000Y13200000D02*
X10690000Y10750000D01*
X13910000Y11400000D02*
X13910000Y13200000D01*
%TO.C,R15*%
X22680000Y17156359D02*
X22680000Y17463641D01*
X21920000Y17156359D02*
X21920000Y17463641D01*
%TO.C,R13*%
X26156359Y7170000D02*
X26463641Y7170000D01*
X26156359Y7930000D02*
X26463641Y7930000D01*
%TO.C,R12*%
X26156359Y14170000D02*
X26463641Y14170000D01*
X26156359Y14930000D02*
X26463641Y14930000D01*
%TO.C,R11*%
X23680000Y17156359D02*
X23680000Y17463641D01*
X22920000Y17156359D02*
X22920000Y17463641D01*
%TO.C,R5*%
X15703641Y13180000D02*
X15396359Y13180000D01*
X15703641Y12420000D02*
X15396359Y12420000D01*
%TO.C,R4*%
X15703641Y12180000D02*
X15396359Y12180000D01*
X15703641Y11420000D02*
X15396359Y11420000D01*
%TO.C,R3*%
X7453641Y7880000D02*
X7146359Y7880000D01*
X7453641Y7120000D02*
X7146359Y7120000D01*
%TO.C,R2*%
X14430000Y7963641D02*
X14430000Y7656359D01*
X13670000Y7963641D02*
X13670000Y7656359D01*
%TO.C,R1*%
X7146359Y16720000D02*
X7453641Y16720000D01*
X7146359Y17480000D02*
X7453641Y17480000D01*
%TO.C,J3*%
X32212000Y18710000D02*
X33542000Y18710000D01*
X32212000Y17380000D02*
X32212000Y18710000D01*
X34812000Y18710000D02*
X37412000Y18710000D01*
X34812000Y16110000D02*
X34812000Y18710000D01*
X32212000Y16110000D02*
X34812000Y16110000D01*
X37412000Y18710000D02*
X37412000Y5890000D01*
X32212000Y16110000D02*
X32212000Y5890000D01*
X32212000Y5890000D02*
X37412000Y5890000D01*
%TO.C,J1*%
X6020000Y15190000D02*
X6020000Y9410000D01*
X8580000Y15190000D02*
X8580000Y9410000D01*
X6020000Y15190000D02*
G75*
G02*
X8580000Y15190000I1280000J0D01*
G01*
X8580000Y9410000D02*
G75*
G02*
X6020000Y9410000I-1280000J0D01*
G01*
%TO.C,D3*%
X23035000Y18527499D02*
X23035000Y20812499D01*
X21565000Y18527499D02*
X23035000Y18527499D01*
X21565000Y20812499D02*
X21565000Y18527499D01*
%TO.C,D1*%
X24535000Y18527500D02*
X24535000Y20812500D01*
X23065000Y18527500D02*
X24535000Y18527500D01*
X23065000Y20812500D02*
X23065000Y18527500D01*
%TO.C,C13*%
X26387836Y6910000D02*
X26172164Y6910000D01*
X26387836Y6190000D02*
X26172164Y6190000D01*
%TO.C,C12*%
X26387836Y13910000D02*
X26172164Y13910000D01*
X26387836Y13190000D02*
X26172164Y13190000D01*
%TO.C,C7*%
X18440000Y17387836D02*
X18440000Y17172164D01*
X19160000Y17387836D02*
X19160000Y17172164D01*
%TO.C,C6*%
X15462164Y9660000D02*
X15677836Y9660000D01*
X15462164Y8940000D02*
X15677836Y8940000D01*
%TO.C,C4*%
X22940000Y6212164D02*
X22940000Y6427836D01*
X23660000Y6212164D02*
X23660000Y6427836D01*
%TO.C,C3*%
X10765000Y16261252D02*
X10765000Y15738748D01*
X12235000Y16261252D02*
X12235000Y15738748D01*
%TO.C,C2*%
X12890000Y15287836D02*
X12890000Y15072164D01*
X13610000Y15287836D02*
X13610000Y15072164D01*
%TO.C,C1*%
X12235000Y8338748D02*
X12235000Y8861252D01*
X10765000Y8338748D02*
X10765000Y8861252D01*
%TD*%
M02*
