M48
; DRILL file {KiCad (5.1.12-1-10_14)} date Thursday, 08 September 2022 at 10:24:56
; FORMAT={-:-/ absolute / metric / decimal}
; #@! TF.CreationDate,2022-09-08T10:24:56+08:00
; #@! TF.GenerationSoftware,Kicad,Pcbnew,(5.1.12-1-10_14)
; #@! TF.FileFunction,Plated,1,4,PTH
FMAT,2
METRIC
T1C0.300
T2C0.400
T3C0.500
T4C0.600
T5C0.650
T6C0.700
T7C1.000
%
G90
G05
T1
X3.3Y19.8
X3.3Y17.3
X3.3Y14.8
X3.3Y9.8
X3.3Y7.3
X3.3Y4.8
X4.8Y21.3
X4.8Y3.3
X5.55Y6.05
X5.55Y5.05
X5.8Y17.3
X6.55Y6.05
X6.55Y5.05
X7.3Y21.3
X7.3Y3.3
X7.55Y6.05
X7.55Y5.05
X8.8Y7.3
X10.8Y15.8
X10.8Y14.8
X10.8Y9.8
X11.55Y9.8
X12.3Y17.3
X12.3Y16.55
X12.3Y7.8
X12.3Y7.05
X14.6Y13.8
X14.6Y13.1
X15.3Y17.3
X15.3Y16.55
X15.3Y7.8
X15.3Y7.05
X16.05Y7.8
X16.05Y7.05
X17.3Y3.3
X18.05Y8.3
X19.05Y18.8
X19.8Y21.3
X19.8Y3.3
X20.6Y13.0
X20.6Y11.6
X20.8Y4.3
X21.3Y20.8
X21.3Y20.05
X22.0Y13.0
X22.0Y11.6
X22.05Y4.8
X22.3Y7.55
X22.3Y3.3
X23.3Y4.8
X24.05Y7.55
X24.3Y15.3
X24.8Y21.3
X24.8Y6.55
X24.8Y3.3
X25.05Y15.8
X26.05Y15.8
X26.55Y19.55
X26.55Y18.55
X27.3Y21.3
X27.3Y3.3
X27.55Y19.55
X27.55Y18.55
X27.8Y9.55
X27.8Y6.55
X27.8Y5.55
X28.55Y19.55
X28.55Y18.55
X28.8Y6.55
X28.8Y5.55
X29.05Y14.05
X29.8Y21.3
X29.8Y14.8
X29.8Y6.55
X29.8Y5.55
X29.8Y3.3
X30.55Y12.8
X30.55Y11.8
X30.55Y9.8
X30.55Y8.8
X31.55Y13.8
X31.55Y12.8
X31.55Y11.8
X31.55Y9.8
X31.55Y8.8
X34.8Y21.3
X34.8Y3.3
X37.3Y21.3
X37.3Y3.3
X38.05Y19.3
X38.05Y18.3
X39.05Y19.3
X39.05Y18.3
X39.8Y21.3
X39.8Y3.3
X41.3Y19.8
X41.3Y17.3
X41.3Y7.3
X41.3Y4.8
T2
X6.6Y15.55
X6.6Y14.6
X6.6Y12.75
X6.6Y11.85
X6.6Y10.95
X6.6Y10.0
X6.6Y9.05
X8.0Y15.55
X8.0Y14.6
X8.0Y13.65
X8.0Y12.75
X8.0Y11.85
X8.0Y10.0
X8.0Y9.05
X12.6Y12.725
X12.6Y11.875
X17.6Y15.8
X19.3Y17.95
X20.625Y16.6
X20.9Y8.2
X21.475Y16.6
X25.05Y7.55
X27.5Y16.1
X27.8Y12.8
X27.8Y8.55
T3
X15.05Y19.3
X18.05Y9.3
X19.3Y16.8
X24.2Y5.9
X24.3Y16.8
T4
X12.3Y15.05
T5
X4.39Y19.8
X5.66Y19.8
X6.93Y19.8
X8.2Y19.8
T6
X12.35Y9.05
T7
X33.542Y17.38
X33.542Y14.84
X33.542Y12.3
X33.542Y9.76
X33.542Y7.22
X36.082Y17.38
X36.082Y14.84
X36.082Y12.3
X36.082Y9.76
X36.082Y7.22
T4
G00X5.37Y14.75
M15
G01X5.37Y13.85
M16
G05
G00X5.37Y10.75
M15
G01X5.37Y9.85
M16
G05
G00X9.23Y14.75
M15
G01X9.23Y13.85
M16
G05
G00X9.23Y10.75
M15
G01X9.23Y9.85
M16
G05
T0
M30
