%TF.GenerationSoftware,KiCad,Pcbnew,(6.0.7-1)-1*%
%TF.CreationDate,2022-09-12T16:32:20+08:00*%
%TF.ProjectId,0102-TILEDAP,30313032-2d54-4494-9c45-4441502e6b69,V1.1*%
%TF.SameCoordinates,Original*%
%TF.FileFunction,Copper,L4,Bot*%
%TF.FilePolarity,Positive*%
%FSLAX46Y46*%
G04 Gerber Fmt 4.6, Leading zero omitted, Abs format (unit mm)*
G04 Created by KiCad (PCBNEW (6.0.7-1)-1) date 2022-09-12 16:32:20*
%MOMM*%
%LPD*%
G01*
G04 APERTURE LIST*
%TA.AperFunction,ComponentPad*%
%ADD10C,0.600000*%
%TD*%
%TA.AperFunction,ComponentPad*%
%ADD11O,1.200000X2.100000*%
%TD*%
%TA.AperFunction,ComponentPad*%
%ADD12R,1.700000X1.700000*%
%TD*%
%TA.AperFunction,ComponentPad*%
%ADD13O,1.700000X1.700000*%
%TD*%
%TA.AperFunction,ComponentPad*%
%ADD14R,1.000000X1.000000*%
%TD*%
%TA.AperFunction,ComponentPad*%
%ADD15O,1.000000X1.000000*%
%TD*%
%TA.AperFunction,ViaPad*%
%ADD16C,0.900000*%
%TD*%
%TA.AperFunction,ViaPad*%
%ADD17C,0.500000*%
%TD*%
%TA.AperFunction,ViaPad*%
%ADD18C,0.800000*%
%TD*%
%TA.AperFunction,ViaPad*%
%ADD19C,0.700000*%
%TD*%
%TA.AperFunction,Conductor*%
%ADD20C,0.500000*%
%TD*%
%TA.AperFunction,Conductor*%
%ADD21C,0.250000*%
%TD*%
%TA.AperFunction,Conductor*%
%ADD22C,0.280000*%
%TD*%
%TA.AperFunction,Conductor*%
%ADD23C,0.200000*%
%TD*%
G04 APERTURE END LIST*
D10*
%TO.P,J1,A1*%
%TO.N,GND*%
X8000000Y15550000D03*
%TO.P,J1,A4*%
%TO.N,VBUS*%
X8000000Y14600000D03*
%TO.P,J1,A5*%
%TO.N,Net-(J1-PadA5)*%
X8000000Y13650000D03*
%TO.P,J1,A6*%
%TO.N,/D+*%
X8000000Y12750000D03*
%TO.P,J1,A7*%
%TO.N,/D-*%
X8000000Y11850000D03*
%TO.P,J1,A9*%
%TO.N,VBUS*%
X8000000Y10000000D03*
%TO.P,J1,A12*%
%TO.N,GND*%
X8000000Y9050000D03*
%TO.P,J1,B1*%
X6600000Y9050000D03*
%TO.P,J1,B4*%
%TO.N,VBUS*%
X6600000Y10000000D03*
%TO.P,J1,B5*%
%TO.N,Net-(J1-PadB5)*%
X6600000Y10950000D03*
%TO.P,J1,B6*%
%TO.N,/D+*%
X6600000Y11850000D03*
%TO.P,J1,B7*%
%TO.N,/D-*%
X6600000Y12750000D03*
%TO.P,J1,B9*%
%TO.N,VBUS*%
X6600000Y14600000D03*
%TO.P,J1,B12*%
%TO.N,GND*%
X6600000Y15550000D03*
D11*
%TO.P,J1,S1*%
X9230000Y10300000D03*
X9230000Y14300000D03*
X5370000Y14300000D03*
%TO.P,J1,S4*%
%TO.N,N/C*%
X5370000Y10300000D03*
%TD*%
D12*
%TO.P,J3,1*%
%TO.N,/TGT_SWDIO*%
X33542000Y17380000D03*
D13*
%TO.P,J3,2*%
%TO.N,VBUS*%
X36082000Y17380000D03*
%TO.P,J3,3*%
%TO.N,/TGT_SWCLK*%
X33542000Y14840000D03*
%TO.P,J3,4*%
%TO.N,+3V3*%
X36082000Y14840000D03*
%TO.P,J3,5*%
%TO.N,GND*%
X33542000Y12300000D03*
%TO.P,J3,6*%
X36082000Y12300000D03*
%TO.P,J3,7*%
%TO.N,/TGT_TX*%
X33542000Y9760000D03*
%TO.P,J3,8*%
%TO.N,/TGT_RX*%
X36082000Y9760000D03*
%TO.P,J3,9*%
%TO.N,/TGT_NRESET*%
X33542000Y7220000D03*
%TO.P,J3,10*%
%TO.N,GND*%
X36082000Y7220000D03*
%TD*%
D14*
%TO.P,J2,1*%
%TO.N,GND*%
X16300000Y20300000D03*
D15*
%TO.P,J2,2*%
%TO.N,/IF_SWCLK*%
X17570000Y20300000D03*
%TO.P,J2,3*%
%TO.N,/IF_SWDIO*%
X18840000Y20300000D03*
%TO.P,J2,4*%
%TO.N,VBUS*%
X20110000Y20300000D03*
%TD*%
D16*
%TO.N,VBUS*%
X13050000Y7300000D03*
D17*
%TO.N,GND*%
X16300000Y10050000D03*
X17050000Y14800000D03*
X15550000Y10050000D03*
X34800000Y3300000D03*
X25400000Y17800000D03*
X31550000Y9800000D03*
X30550000Y9800000D03*
X6800000Y6300000D03*
X24050000Y7550000D03*
X20600000Y13000000D03*
X27800000Y17300000D03*
X31550000Y17300000D03*
X20800000Y4300000D03*
X3300000Y9800000D03*
X17300000Y3300000D03*
X12050000Y6300000D03*
X30550000Y12800000D03*
X39050000Y19300000D03*
X22300000Y3300000D03*
X27800000Y6550000D03*
X22050000Y4800000D03*
X22300000Y7550000D03*
X7800000Y6300000D03*
X19300000Y18800000D03*
X17300000Y10050000D03*
X16050000Y6300000D03*
X34800000Y21300000D03*
X31550000Y12800000D03*
X22000000Y13000000D03*
X18050000Y8300000D03*
X19800000Y3300000D03*
X41300000Y19800000D03*
X29800000Y3300000D03*
X37300000Y3300000D03*
X26050000Y15800000D03*
X31550000Y18300000D03*
X29800000Y6550000D03*
X29800000Y5550000D03*
X27800000Y5550000D03*
X8800000Y7300000D03*
X12800000Y9400000D03*
X11050000Y6300000D03*
X29800000Y14800000D03*
X7800000Y18300000D03*
X3300000Y17300000D03*
X24800000Y6550000D03*
X12050000Y18300000D03*
X3300000Y14800000D03*
X22000000Y11600000D03*
X6800000Y18300000D03*
X41300000Y4800000D03*
X15050000Y8300000D03*
X20800000Y18300000D03*
X28800000Y5550000D03*
X31550000Y13800000D03*
X13400000Y9050000D03*
X30550000Y17300000D03*
X5800000Y18300000D03*
X17050000Y8300000D03*
X27300000Y3300000D03*
X21050000Y17550000D03*
X30550000Y8800000D03*
X14200000Y11000000D03*
X30550000Y11800000D03*
X23300000Y4800000D03*
X39800000Y21300000D03*
X39800000Y3300000D03*
X27800000Y18300000D03*
X11050000Y18300000D03*
X30550000Y18300000D03*
X28800000Y6550000D03*
X24300000Y15300000D03*
X39050000Y18300000D03*
X14200000Y13600000D03*
X24800000Y3300000D03*
X5800000Y6300000D03*
X20600000Y11600000D03*
X5800000Y17300000D03*
X31550000Y8800000D03*
X25050000Y15800000D03*
X29800000Y21300000D03*
X3300000Y7300000D03*
X38050000Y18300000D03*
X37300000Y21300000D03*
X38050000Y19300000D03*
X31550000Y11800000D03*
X26100000Y18500000D03*
X18300000Y18800000D03*
X27800000Y9550000D03*
X29050000Y14050000D03*
D16*
%TO.N,+3V3*%
X12300000Y13900000D03*
D18*
X24200000Y5900000D03*
X16050000Y8300000D03*
X25300000Y16800000D03*
D19*
X27800000Y20800000D03*
D18*
X17900000Y16800000D03*
D19*
X27500000Y16100000D03*
X27800000Y8550000D03*
%TO.N,/TGT_USB_D+*%
X16950000Y12725000D03*
X20625000Y16600000D03*
%TO.N,/TGT_USB_D-*%
X21475000Y16600000D03*
X16950000Y11875000D03*
%TO.N,/TGT_NRESET*%
X27800000Y12800000D03*
%TO.N,/IF_NRESET*%
X25050000Y7550000D03*
X20900000Y8200000D03*
%TO.N,/D-*%
X14344065Y11875000D03*
%TO.N,/D+*%
X14344065Y12725000D03*
%TO.N,/IF_SWCLK*%
X18000000Y15200000D03*
%TD*%
D20*
%TO.N,VBUS*%
X18550000Y7300000D02*
X13050000Y7300000D01*
X20550000Y9300000D02*
X18550000Y7300000D01*
X22300000Y9300000D02*
X20550000Y9300000D01*
X23300000Y17110000D02*
X23300000Y10300000D01*
X20110000Y20300000D02*
X23300000Y17110000D01*
X23300000Y10300000D02*
X22300000Y9300000D01*
D21*
%TO.N,+3V3*%
X27800000Y20800000D02*
X27800000Y19300000D01*
X27800000Y19300000D02*
X25300000Y16800000D01*
D22*
%TO.N,/TGT_USB_D+*%
X20835000Y15139056D02*
X18210944Y12515000D01*
X20625000Y16600000D02*
X20835000Y16390000D01*
X20835000Y16390000D02*
X20835000Y15139056D01*
X18210944Y12515000D02*
X17160000Y12515000D01*
X17160000Y12515000D02*
X16950000Y12725000D01*
%TO.N,/TGT_USB_D-*%
X21265000Y16390000D02*
X21265000Y14960944D01*
X21265000Y14960944D02*
X18389056Y12085000D01*
X18389056Y12085000D02*
X17160000Y12085000D01*
X21475000Y16600000D02*
X21265000Y16390000D01*
X17160000Y12085000D02*
X16950000Y11875000D01*
D23*
%TO.N,/TGT_NRESET*%
X30730000Y7220000D02*
X33542000Y7220000D01*
X29300000Y8650000D02*
X30730000Y7220000D01*
X27800000Y12800000D02*
X29300000Y11300000D01*
X29300000Y11300000D02*
X29300000Y8650000D01*
%TO.N,/IF_NRESET*%
X24400000Y8200000D02*
X25050000Y7550000D01*
X20900000Y8200000D02*
X24400000Y8200000D01*
D22*
%TO.N,/D-*%
X7052798Y12750000D02*
X7952798Y11850000D01*
X6600000Y12750000D02*
X7052798Y12750000D01*
X7952798Y11850000D02*
X8000000Y11850000D01*
X14134065Y12085000D02*
X14344065Y11875000D01*
X8000000Y11850000D02*
X8235000Y12085000D01*
X8235000Y12085000D02*
X14134065Y12085000D01*
%TO.N,/D+*%
X8000000Y12750000D02*
X8235000Y12515000D01*
X8235000Y12515000D02*
X14134065Y12515000D01*
X14134065Y12515000D02*
X14344065Y12725000D01*
D23*
%TO.N,/IF_SWCLK*%
X18000000Y15200000D02*
X16800000Y16400000D01*
X16800000Y16400000D02*
X16800000Y18300000D01*
X16800000Y18300000D02*
X17570000Y19070000D01*
X17570000Y19070000D02*
X17570000Y20300000D01*
%TD*%
%TA.AperFunction,Conductor*%
%TO.N,GND*%
G36*
X32414617Y24441988D02*
G01*
X32572324Y24431651D01*
X32588664Y24429500D01*
X32848231Y24377869D01*
X32864152Y24373603D01*
X33114759Y24288533D01*
X33129985Y24282226D01*
X33367342Y24165175D01*
X33381616Y24156934D01*
X33601663Y24009903D01*
X33614739Y23999870D01*
X33813717Y23825371D01*
X33825371Y23813717D01*
X33999870Y23614739D01*
X34009903Y23601663D01*
X34156934Y23381616D01*
X34165175Y23367342D01*
X34282226Y23129985D01*
X34288533Y23114759D01*
X34373603Y22864152D01*
X34377869Y22848231D01*
X34429500Y22588664D01*
X34431651Y22572324D01*
X34448214Y22319628D01*
X34448349Y22315517D01*
X34444191Y22300000D01*
X34448484Y22283978D01*
X34448484Y22281468D01*
X34449761Y22275047D01*
X34458522Y22208501D01*
X34461681Y22200874D01*
X34461682Y22200871D01*
X34469465Y22182082D01*
X34493839Y22123238D01*
X34550021Y22050021D01*
X34556571Y22044995D01*
X34574931Y22030907D01*
X34623238Y21993839D01*
X34665870Y21976180D01*
X34700871Y21961682D01*
X34700874Y21961681D01*
X34708501Y21958522D01*
X34775047Y21949761D01*
X34781468Y21948484D01*
X34783978Y21948484D01*
X34800000Y21944191D01*
X34816022Y21948484D01*
X34828685Y21948484D01*
X34836402Y21949500D01*
X41263598Y21949500D01*
X41271315Y21948484D01*
X41283978Y21948484D01*
X41300000Y21944191D01*
X41313583Y21947830D01*
X41316043Y21947692D01*
X41430420Y21934805D01*
X41457928Y21928526D01*
X41568407Y21889868D01*
X41593820Y21877631D01*
X41692943Y21815349D01*
X41714998Y21797759D01*
X41797759Y21714998D01*
X41815349Y21692943D01*
X41877631Y21593820D01*
X41889868Y21568407D01*
X41928526Y21457928D01*
X41934805Y21430420D01*
X41947692Y21316043D01*
X41947830Y21313583D01*
X41944191Y21300000D01*
X41948484Y21283978D01*
X41948484Y21271315D01*
X41949500Y21263598D01*
X41949500Y15246785D01*
X41929498Y15178664D01*
X41875842Y15132171D01*
X41840023Y15121873D01*
X41765557Y15112023D01*
X41765554Y15112022D01*
X41761960Y15111547D01*
X41758448Y15110663D01*
X41758444Y15110662D01*
X41693166Y15094226D01*
X41442508Y15031115D01*
X41439115Y15029831D01*
X41439109Y15029829D01*
X41137806Y14915800D01*
X41137798Y14915797D01*
X41134412Y14914515D01*
X41097197Y14895285D01*
X40844985Y14764961D01*
X40844979Y14764958D01*
X40841752Y14763290D01*
X40568404Y14579443D01*
X40565654Y14577092D01*
X40565652Y14577091D01*
X40356491Y14398317D01*
X40317988Y14365408D01*
X40315525Y14362756D01*
X40315520Y14362751D01*
X40193519Y14231379D01*
X40093820Y14124022D01*
X40035313Y14044329D01*
X39930116Y13901040D01*
X39898869Y13858479D01*
X39805435Y13694587D01*
X39738317Y13576856D01*
X39735717Y13572296D01*
X39606525Y13269265D01*
X39559642Y13110920D01*
X39514043Y12956912D01*
X39513002Y12953397D01*
X39456389Y12628876D01*
X39437434Y12300000D01*
X39456389Y11971124D01*
X39513002Y11646603D01*
X39514029Y11643134D01*
X39514031Y11643126D01*
X39547033Y11531664D01*
X39606525Y11330735D01*
X39735717Y11027704D01*
X39737510Y11024558D01*
X39737513Y11024553D01*
X39770688Y10966361D01*
X39898869Y10741521D01*
X39901016Y10738597D01*
X39901017Y10738595D01*
X39941204Y10683857D01*
X40093820Y10475978D01*
X40174785Y10388794D01*
X40315520Y10237249D01*
X40315525Y10237244D01*
X40317988Y10234592D01*
X40320741Y10232239D01*
X40320743Y10232237D01*
X40554487Y10032452D01*
X40568404Y10020557D01*
X40841752Y9836710D01*
X40844979Y9835042D01*
X40844985Y9835039D01*
X41007201Y9751218D01*
X41134412Y9685485D01*
X41137798Y9684203D01*
X41137806Y9684200D01*
X41439109Y9570171D01*
X41439115Y9570169D01*
X41442508Y9568885D01*
X41591324Y9531416D01*
X41758444Y9489338D01*
X41758448Y9489337D01*
X41761960Y9488453D01*
X41765554Y9487978D01*
X41765557Y9487977D01*
X41840023Y9478127D01*
X41904933Y9449365D01*
X41943988Y9390075D01*
X41949500Y9353215D01*
X41949500Y3336402D01*
X41948484Y3328685D01*
X41948484Y3316022D01*
X41944191Y3300000D01*
X41947830Y3286417D01*
X41947692Y3283957D01*
X41934805Y3169580D01*
X41928526Y3142072D01*
X41889868Y3031593D01*
X41877631Y3006180D01*
X41815349Y2907057D01*
X41797759Y2885002D01*
X41714998Y2802241D01*
X41692943Y2784651D01*
X41593820Y2722369D01*
X41568407Y2710132D01*
X41457928Y2671474D01*
X41430420Y2665195D01*
X41316043Y2652308D01*
X41313583Y2652170D01*
X41300000Y2655809D01*
X41283978Y2651516D01*
X41271315Y2651516D01*
X41263598Y2650500D01*
X34836402Y2650500D01*
X34828685Y2651516D01*
X34816022Y2651516D01*
X34800000Y2655809D01*
X34783978Y2651516D01*
X34781468Y2651516D01*
X34775047Y2650239D01*
X34708501Y2641478D01*
X34700874Y2638319D01*
X34700871Y2638318D01*
X34665870Y2623820D01*
X34623238Y2606161D01*
X34616687Y2601134D01*
X34616685Y2601133D01*
X34563732Y2560500D01*
X34550021Y2549979D01*
X34493839Y2476762D01*
X34485105Y2455676D01*
X34463456Y2403410D01*
X34458522Y2391499D01*
X34457444Y2383310D01*
X34449761Y2324953D01*
X34448484Y2318534D01*
X34448484Y2316023D01*
X34444191Y2300000D01*
X34448349Y2284482D01*
X34448215Y2280383D01*
X34431651Y2027676D01*
X34429500Y2011336D01*
X34377869Y1751769D01*
X34373603Y1735848D01*
X34288533Y1485241D01*
X34282226Y1470015D01*
X34165175Y1232658D01*
X34156934Y1218384D01*
X34009903Y998337D01*
X33999870Y985261D01*
X33825371Y786283D01*
X33813717Y774629D01*
X33614739Y600130D01*
X33601663Y590097D01*
X33381616Y443066D01*
X33367342Y434825D01*
X33129985Y317774D01*
X33114759Y311467D01*
X32864152Y226397D01*
X32848231Y222131D01*
X32588664Y170500D01*
X32572324Y168349D01*
X32414617Y158012D01*
X32308239Y151040D01*
X32291761Y151040D01*
X32185383Y158012D01*
X32027676Y168349D01*
X32011336Y170500D01*
X31751769Y222131D01*
X31735848Y226397D01*
X31485241Y311467D01*
X31470015Y317774D01*
X31232658Y434825D01*
X31218384Y443066D01*
X30998337Y590097D01*
X30985261Y600130D01*
X30786283Y774629D01*
X30774629Y786283D01*
X30600130Y985261D01*
X30590097Y998337D01*
X30443066Y1218384D01*
X30434825Y1232658D01*
X30317774Y1470015D01*
X30311467Y1485241D01*
X30226397Y1735848D01*
X30222131Y1751769D01*
X30170500Y2011336D01*
X30168349Y2027676D01*
X30151785Y2280383D01*
X30151651Y2284482D01*
X30155809Y2300000D01*
X30944341Y2300000D01*
X30964937Y2064592D01*
X30966361Y2059278D01*
X30966361Y2059277D01*
X30981150Y2004085D01*
X31026097Y1836337D01*
X31028419Y1831357D01*
X31028420Y1831355D01*
X31083851Y1712485D01*
X31125965Y1622171D01*
X31261505Y1428599D01*
X31428599Y1261505D01*
X31622171Y1125965D01*
X31627149Y1123644D01*
X31627152Y1123642D01*
X31831355Y1028420D01*
X31836337Y1026097D01*
X31841645Y1024675D01*
X31841647Y1024674D01*
X32059277Y966361D01*
X32064592Y964937D01*
X32167682Y955918D01*
X32238310Y949738D01*
X32238317Y949738D01*
X32241034Y949500D01*
X32358966Y949500D01*
X32361683Y949738D01*
X32361690Y949738D01*
X32432318Y955918D01*
X32535408Y964937D01*
X32540723Y966361D01*
X32758353Y1024674D01*
X32758355Y1024675D01*
X32763663Y1026097D01*
X32768645Y1028420D01*
X32972848Y1123642D01*
X32972851Y1123644D01*
X32977829Y1125965D01*
X33171401Y1261505D01*
X33338495Y1428599D01*
X33341655Y1433111D01*
X33470878Y1617661D01*
X33470881Y1617666D01*
X33474035Y1622170D01*
X33476358Y1627152D01*
X33476361Y1627157D01*
X33571580Y1831355D01*
X33571581Y1831356D01*
X33573903Y1836337D01*
X33618851Y2004085D01*
X33633639Y2059277D01*
X33633639Y2059278D01*
X33635063Y2064592D01*
X33655659Y2300000D01*
X33635063Y2535408D01*
X33604006Y2651317D01*
X33575326Y2758353D01*
X33575325Y2758355D01*
X33573903Y2763663D01*
X33571580Y2768645D01*
X33476358Y2972848D01*
X33476356Y2972851D01*
X33474035Y2977829D01*
X33338495Y3171401D01*
X33171401Y3338495D01*
X32977829Y3474035D01*
X32972851Y3476356D01*
X32972848Y3476358D01*
X32768645Y3571580D01*
X32768643Y3571581D01*
X32763663Y3573903D01*
X32758355Y3575325D01*
X32758353Y3575326D01*
X32540723Y3633639D01*
X32540722Y3633639D01*
X32535408Y3635063D01*
X32432318Y3644082D01*
X32361690Y3650262D01*
X32361683Y3650262D01*
X32358966Y3650500D01*
X32241034Y3650500D01*
X32238317Y3650262D01*
X32238310Y3650262D01*
X32167682Y3644082D01*
X32064592Y3635063D01*
X32059278Y3633639D01*
X32059277Y3633639D01*
X31841647Y3575326D01*
X31841645Y3575325D01*
X31836337Y3573903D01*
X31831357Y3571581D01*
X31831355Y3571580D01*
X31627152Y3476358D01*
X31627149Y3476356D01*
X31622171Y3474035D01*
X31428599Y3338495D01*
X31261505Y3171401D01*
X31258348Y3166893D01*
X31258346Y3166890D01*
X31145810Y3006172D01*
X31125965Y2977830D01*
X31123642Y2972848D01*
X31123639Y2972843D01*
X31044086Y2802241D01*
X31026097Y2763663D01*
X31024675Y2758355D01*
X31024674Y2758353D01*
X30995994Y2651317D01*
X30964937Y2535408D01*
X30944341Y2300000D01*
X30155809Y2300000D01*
X30151516Y2316023D01*
X30151516Y2318534D01*
X30150239Y2324953D01*
X30142556Y2383310D01*
X30141478Y2391499D01*
X30136545Y2403410D01*
X30114895Y2455676D01*
X30106161Y2476762D01*
X30049979Y2549979D01*
X30036268Y2560500D01*
X29983315Y2601133D01*
X29983313Y2601134D01*
X29976762Y2606161D01*
X29934130Y2623820D01*
X29899129Y2638318D01*
X29899126Y2638319D01*
X29891499Y2641478D01*
X29824953Y2650239D01*
X29818532Y2651516D01*
X29816022Y2651516D01*
X29800000Y2655809D01*
X29783978Y2651516D01*
X29771315Y2651516D01*
X29763598Y2650500D01*
X15246785Y2650500D01*
X15178664Y2670502D01*
X15132171Y2724158D01*
X15121873Y2759977D01*
X15112023Y2834443D01*
X15112022Y2834446D01*
X15111547Y2838040D01*
X15075217Y2982334D01*
X15062814Y3031593D01*
X15031115Y3157492D01*
X15027559Y3166889D01*
X14915800Y3462194D01*
X14915797Y3462202D01*
X14914515Y3465588D01*
X14826943Y3635063D01*
X14764961Y3755015D01*
X14764958Y3755021D01*
X14763290Y3758248D01*
X14579443Y4031596D01*
X14365408Y4282012D01*
X14362756Y4284475D01*
X14362751Y4284480D01*
X14225876Y4411591D01*
X14124022Y4506180D01*
X13858479Y4701131D01*
X13693342Y4795275D01*
X13575447Y4862487D01*
X13575442Y4862490D01*
X13572296Y4864283D01*
X13269265Y4993475D01*
X13095197Y5045014D01*
X12956874Y5085969D01*
X12956866Y5085971D01*
X12953397Y5086998D01*
X12628876Y5143611D01*
X12300000Y5162566D01*
X11971124Y5143611D01*
X11646603Y5086998D01*
X11643134Y5085971D01*
X11643126Y5085969D01*
X11504803Y5045014D01*
X11330735Y4993475D01*
X11027704Y4864283D01*
X11024558Y4862490D01*
X11024553Y4862487D01*
X10906658Y4795275D01*
X10741521Y4701131D01*
X10475978Y4506180D01*
X10374124Y4411591D01*
X10237249Y4284480D01*
X10237244Y4284475D01*
X10234592Y4282012D01*
X10020557Y4031596D01*
X9836710Y3758248D01*
X9835042Y3755021D01*
X9835039Y3755015D01*
X9773057Y3635063D01*
X9685485Y3465588D01*
X9684203Y3462202D01*
X9684200Y3462194D01*
X9572441Y3166889D01*
X9568885Y3157492D01*
X9537186Y3031593D01*
X9524784Y2982334D01*
X9488453Y2838040D01*
X9487978Y2834446D01*
X9487977Y2834443D01*
X9478127Y2759977D01*
X9449365Y2695067D01*
X9390075Y2656012D01*
X9353215Y2650500D01*
X3336402Y2650500D01*
X3328685Y2651516D01*
X3316022Y2651516D01*
X3300000Y2655809D01*
X3286417Y2652170D01*
X3283957Y2652308D01*
X3169580Y2665195D01*
X3142072Y2671474D01*
X3031593Y2710132D01*
X3006180Y2722369D01*
X2907057Y2784651D01*
X2885002Y2802241D01*
X2802241Y2885002D01*
X2784651Y2907057D01*
X2722369Y3006180D01*
X2710132Y3031593D01*
X2671474Y3142072D01*
X2665195Y3169580D01*
X2652308Y3283957D01*
X2652170Y3286417D01*
X2655809Y3300000D01*
X2651516Y3316022D01*
X2651516Y3328685D01*
X2650500Y3336402D01*
X2650500Y5900000D01*
X23644750Y5900000D01*
X23663670Y5756291D01*
X23719139Y5622375D01*
X23807379Y5507379D01*
X23922375Y5419139D01*
X24056291Y5363670D01*
X24200000Y5344750D01*
X24343709Y5363670D01*
X24477625Y5419139D01*
X24592621Y5507379D01*
X24680861Y5622375D01*
X24736330Y5756291D01*
X24755250Y5900000D01*
X24736330Y6043709D01*
X24680861Y6177625D01*
X24592621Y6292621D01*
X24477625Y6380861D01*
X24343709Y6436330D01*
X24200000Y6455250D01*
X24056291Y6436330D01*
X23922375Y6380861D01*
X23807379Y6292621D01*
X23719139Y6177625D01*
X23663670Y6043709D01*
X23644750Y5900000D01*
X2650500Y5900000D01*
X2650500Y7300000D01*
X12444318Y7300000D01*
X12445396Y7291812D01*
X12462624Y7160955D01*
X12464956Y7143238D01*
X12525464Y6997159D01*
X12621718Y6871718D01*
X12747159Y6775464D01*
X12893238Y6714956D01*
X13050000Y6694318D01*
X13058188Y6695396D01*
X13198574Y6713878D01*
X13206762Y6714956D01*
X13352841Y6775464D01*
X13478282Y6871718D01*
X13480072Y6869386D01*
X13529948Y6896621D01*
X13556731Y6899500D01*
X18613433Y6899500D01*
X18622864Y6902564D01*
X18622868Y6902565D01*
X18634353Y6906297D01*
X18653578Y6910913D01*
X18665512Y6912803D01*
X18665513Y6912803D01*
X18675304Y6914354D01*
X18684137Y6918855D01*
X18684141Y6918856D01*
X18694906Y6924341D01*
X18713166Y6931905D01*
X18734090Y6938704D01*
X18751893Y6951639D01*
X18768745Y6961965D01*
X18779502Y6967446D01*
X18788342Y6971950D01*
X18810905Y6994513D01*
X18810909Y6994516D01*
X20189971Y8373578D01*
X20252282Y8407603D01*
X20323097Y8402539D01*
X20379933Y8359992D01*
X20404744Y8293472D01*
X20403565Y8265099D01*
X20397271Y8224673D01*
X20394391Y8206177D01*
X20395555Y8197275D01*
X20395555Y8197272D01*
X20401230Y8153878D01*
X20412980Y8064021D01*
X20470720Y7932797D01*
X20476497Y7925924D01*
X20476498Y7925923D01*
X20509954Y7886122D01*
X20562970Y7823052D01*
X20570447Y7818075D01*
X20652178Y7763670D01*
X20682313Y7743610D01*
X20819157Y7700858D01*
X20828129Y7700694D01*
X20828132Y7700693D01*
X20893463Y7699496D01*
X20962499Y7698230D01*
X20972003Y7700821D01*
X21092158Y7733579D01*
X21092160Y7733580D01*
X21100817Y7735940D01*
X21222991Y7810955D01*
X21238144Y7827696D01*
X21310881Y7908055D01*
X21371425Y7945136D01*
X21404297Y7949500D01*
X24244050Y7949500D01*
X24312171Y7929498D01*
X24333145Y7912595D01*
X24518699Y7727041D01*
X24552725Y7664729D01*
X24554104Y7618562D01*
X24545772Y7565051D01*
X24545772Y7565046D01*
X24544391Y7556177D01*
X24545555Y7547275D01*
X24545555Y7547272D01*
X24551800Y7499517D01*
X24562980Y7414021D01*
X24620720Y7282797D01*
X24626497Y7275924D01*
X24626498Y7275923D01*
X24694139Y7195454D01*
X24712970Y7173052D01*
X24832313Y7093610D01*
X24969157Y7050858D01*
X24978129Y7050694D01*
X24978132Y7050693D01*
X25043463Y7049496D01*
X25112499Y7048230D01*
X25121533Y7050693D01*
X25242158Y7083579D01*
X25242160Y7083580D01*
X25250817Y7085940D01*
X25372991Y7160955D01*
X25469200Y7267246D01*
X25531710Y7396267D01*
X25555496Y7537646D01*
X25555647Y7550000D01*
X25539217Y7664729D01*
X25536596Y7683032D01*
X25536595Y7683035D01*
X25535323Y7691918D01*
X25475984Y7822428D01*
X25457024Y7844432D01*
X25388260Y7924237D01*
X25388257Y7924240D01*
X25382400Y7931037D01*
X25262095Y8009015D01*
X25124739Y8050093D01*
X25115763Y8050148D01*
X25115762Y8050148D01*
X25058948Y8050495D01*
X24981376Y8050969D01*
X24974758Y8049078D01*
X24905592Y8059493D01*
X24869602Y8084659D01*
X24603356Y8350904D01*
X24587686Y8369998D01*
X24587497Y8370281D01*
X24587495Y8370283D01*
X24580601Y8380601D01*
X24518385Y8422172D01*
X24497741Y8435966D01*
X24400000Y8455408D01*
X24387829Y8452987D01*
X24387828Y8452987D01*
X24387496Y8452921D01*
X24362915Y8450500D01*
X21402632Y8450500D01*
X21334511Y8470502D01*
X21307179Y8494252D01*
X21257197Y8552259D01*
X21253821Y8556177D01*
X27294391Y8556177D01*
X27295555Y8547275D01*
X27295555Y8547272D01*
X27296814Y8537646D01*
X27312980Y8414021D01*
X27370720Y8282797D01*
X27376497Y8275924D01*
X27376498Y8275923D01*
X27454539Y8183082D01*
X27462970Y8173052D01*
X27582313Y8093610D01*
X27719157Y8050858D01*
X27728129Y8050694D01*
X27728132Y8050693D01*
X27793463Y8049496D01*
X27862499Y8048230D01*
X27871533Y8050693D01*
X27992158Y8083579D01*
X27992160Y8083580D01*
X28000817Y8085940D01*
X28122991Y8160955D01*
X28219200Y8267246D01*
X28281710Y8396267D01*
X28305496Y8537646D01*
X28305647Y8550000D01*
X28291326Y8650000D01*
X28286596Y8683032D01*
X28286595Y8683035D01*
X28285323Y8691918D01*
X28225984Y8822428D01*
X28207598Y8843766D01*
X28138260Y8924237D01*
X28138257Y8924240D01*
X28132400Y8931037D01*
X28012095Y9009015D01*
X27874739Y9050093D01*
X27865763Y9050148D01*
X27865762Y9050148D01*
X27805555Y9050516D01*
X27731376Y9050969D01*
X27593529Y9011572D01*
X27472280Y8935070D01*
X27466338Y8928342D01*
X27466337Y8928341D01*
X27451166Y8911163D01*
X27377377Y8827612D01*
X27316447Y8697837D01*
X27313355Y8677978D01*
X27296543Y8569996D01*
X27294391Y8556177D01*
X21253821Y8556177D01*
X21232400Y8581037D01*
X21112095Y8659015D01*
X21107320Y8660443D01*
X21055384Y8705851D01*
X21035685Y8774060D01*
X21055990Y8842091D01*
X21109852Y8888345D01*
X21161684Y8899500D01*
X22363433Y8899500D01*
X22372864Y8902564D01*
X22372868Y8902565D01*
X22384353Y8906297D01*
X22403578Y8910913D01*
X22415512Y8912803D01*
X22415513Y8912803D01*
X22425304Y8914354D01*
X22434137Y8918855D01*
X22434141Y8918856D01*
X22444906Y8924341D01*
X22463166Y8931905D01*
X22484090Y8938704D01*
X22501893Y8951639D01*
X22518745Y8961965D01*
X22529502Y8967446D01*
X22538342Y8971950D01*
X22560905Y8994513D01*
X22560909Y8994516D01*
X23605484Y10039091D01*
X23605487Y10039095D01*
X23628050Y10061658D01*
X23632552Y10070493D01*
X23638037Y10081257D01*
X23648366Y10098113D01*
X23655467Y10107887D01*
X23661297Y10115911D01*
X23668096Y10136836D01*
X23675660Y10155097D01*
X23681144Y10165860D01*
X23681144Y10165861D01*
X23685646Y10174696D01*
X23689087Y10196422D01*
X23693703Y10215648D01*
X23697435Y10227133D01*
X23697435Y10227135D01*
X23700500Y10236567D01*
X23700500Y12806177D01*
X27294391Y12806177D01*
X27295555Y12797275D01*
X27295555Y12797272D01*
X27296814Y12787646D01*
X27312980Y12664021D01*
X27316597Y12655801D01*
X27357349Y12563186D01*
X27370720Y12532797D01*
X27376497Y12525924D01*
X27376498Y12525923D01*
X27457190Y12429928D01*
X27462970Y12423052D01*
X27470447Y12418075D01*
X27573390Y12349550D01*
X27582313Y12343610D01*
X27719157Y12300858D01*
X27728129Y12300694D01*
X27728132Y12300693D01*
X27793463Y12299496D01*
X27862499Y12298230D01*
X27871163Y12300592D01*
X27875835Y12301174D01*
X27945906Y12289745D01*
X27980505Y12265235D01*
X29012595Y11233145D01*
X29046621Y11170833D01*
X29049500Y11144050D01*
X29049500Y8687085D01*
X29047079Y8662504D01*
X29044592Y8650000D01*
X29064034Y8552259D01*
X29083943Y8522464D01*
X29119399Y8469399D01*
X29129714Y8462507D01*
X29129716Y8462505D01*
X29130005Y8462312D01*
X29149098Y8446642D01*
X30526642Y7069098D01*
X30542312Y7050005D01*
X30542505Y7049716D01*
X30542507Y7049714D01*
X30549399Y7039399D01*
X30559714Y7032507D01*
X30612454Y6997268D01*
X30632260Y6984034D01*
X30644431Y6981613D01*
X30705326Y6969500D01*
X30717828Y6967013D01*
X30717829Y6967013D01*
X30730000Y6964592D01*
X30742503Y6967079D01*
X30767085Y6969500D01*
X32478018Y6969500D01*
X32546139Y6949498D01*
X32592632Y6895842D01*
X32599137Y6878230D01*
X32605506Y6856020D01*
X32607258Y6849909D01*
X32610076Y6844426D01*
X32694123Y6680887D01*
X32694126Y6680883D01*
X32696944Y6675399D01*
X32818818Y6521631D01*
X32823511Y6517637D01*
X32823512Y6517636D01*
X32919047Y6436330D01*
X32968238Y6394465D01*
X32973616Y6391459D01*
X32973618Y6391458D01*
X33009932Y6371163D01*
X33139513Y6298743D01*
X33326118Y6238111D01*
X33520946Y6214879D01*
X33527081Y6215351D01*
X33527083Y6215351D01*
X33710434Y6229459D01*
X33710438Y6229460D01*
X33716576Y6229932D01*
X33905556Y6282697D01*
X34080689Y6371163D01*
X34110515Y6394465D01*
X34230453Y6488171D01*
X34235303Y6491960D01*
X34265084Y6526461D01*
X34359485Y6635827D01*
X34359485Y6635828D01*
X34363509Y6640489D01*
X34460425Y6811091D01*
X34507973Y6954025D01*
X35117923Y6954025D01*
X35146025Y6856020D01*
X35150543Y6844608D01*
X35234546Y6681156D01*
X35241196Y6670838D01*
X35355350Y6526811D01*
X35363873Y6517985D01*
X35503833Y6398871D01*
X35513905Y6391870D01*
X35674334Y6302210D01*
X35685574Y6297299D01*
X35810769Y6256621D01*
X35824867Y6256218D01*
X35828000Y6262590D01*
X35828000Y6270742D01*
X36336000Y6270742D01*
X36339973Y6257211D01*
X36348188Y6256030D01*
X36439430Y6281505D01*
X36450881Y6285947D01*
X36614919Y6368807D01*
X36625276Y6375380D01*
X36770100Y6488530D01*
X36778986Y6496991D01*
X36899070Y6636110D01*
X36906144Y6646138D01*
X36996919Y6805932D01*
X37001913Y6817148D01*
X37045712Y6948811D01*
X37046213Y6962903D01*
X37040024Y6966000D01*
X36354115Y6966000D01*
X36338876Y6961525D01*
X36337671Y6960135D01*
X36336000Y6952452D01*
X36336000Y6270742D01*
X35828000Y6270742D01*
X35828000Y6947885D01*
X35823525Y6963124D01*
X35822135Y6964329D01*
X35814452Y6966000D01*
X35132604Y6966000D01*
X35119073Y6962027D01*
X35117923Y6954025D01*
X34507973Y6954025D01*
X34522358Y6997268D01*
X34546949Y7191929D01*
X34547341Y7220000D01*
X34528194Y7415272D01*
X34526413Y7421171D01*
X34526412Y7421176D01*
X34509507Y7477168D01*
X35118594Y7477168D01*
X35125153Y7474000D01*
X35809885Y7474000D01*
X35825124Y7478475D01*
X35826329Y7479865D01*
X35828000Y7487548D01*
X35828000Y7492115D01*
X36336000Y7492115D01*
X36340475Y7476876D01*
X36341865Y7475671D01*
X36349548Y7474000D01*
X37031826Y7474000D01*
X37045357Y7477973D01*
X37046449Y7485567D01*
X37012801Y7597015D01*
X37008126Y7608356D01*
X36921846Y7770627D01*
X36915059Y7780843D01*
X36798899Y7923269D01*
X36790255Y7931973D01*
X36648649Y8049120D01*
X36638478Y8055980D01*
X36476809Y8143394D01*
X36465504Y8148146D01*
X36353308Y8182876D01*
X36339205Y8183082D01*
X36336000Y8176327D01*
X36336000Y7492115D01*
X35828000Y7492115D01*
X35828000Y8169586D01*
X35824027Y8183117D01*
X35816232Y8184237D01*
X35711496Y8153411D01*
X35700119Y8148814D01*
X35537247Y8063667D01*
X35526986Y8056953D01*
X35383751Y7941789D01*
X35374992Y7933211D01*
X35256853Y7792419D01*
X35249927Y7782305D01*
X35161383Y7621243D01*
X35156555Y7609979D01*
X35118898Y7491269D01*
X35118594Y7477168D01*
X34509507Y7477168D01*
X34473265Y7597207D01*
X34471484Y7603106D01*
X34379370Y7776347D01*
X34255361Y7928398D01*
X34104180Y8053465D01*
X33931585Y8146787D01*
X33836156Y8176327D01*
X33750039Y8202985D01*
X33750036Y8202986D01*
X33744152Y8204807D01*
X33738027Y8205451D01*
X33738026Y8205451D01*
X33555147Y8224673D01*
X33555146Y8224673D01*
X33549019Y8225317D01*
X33426383Y8214156D01*
X33359759Y8208093D01*
X33359758Y8208093D01*
X33353618Y8207534D01*
X33347704Y8205793D01*
X33347702Y8205793D01*
X33270538Y8183082D01*
X33165393Y8152136D01*
X33159928Y8149279D01*
X32996972Y8064088D01*
X32996968Y8064085D01*
X32991512Y8061233D01*
X32986712Y8057373D01*
X32986711Y8057373D01*
X32976446Y8049120D01*
X32838600Y7938289D01*
X32712480Y7787984D01*
X32709516Y7782592D01*
X32709513Y7782588D01*
X32664385Y7700500D01*
X32617956Y7616046D01*
X32616094Y7610177D01*
X32616093Y7610174D01*
X32599670Y7558402D01*
X32560007Y7499517D01*
X32494805Y7471425D01*
X32479568Y7470500D01*
X30885950Y7470500D01*
X30817829Y7490502D01*
X30796855Y7507405D01*
X29587405Y8716855D01*
X29553379Y8779167D01*
X29550500Y8805950D01*
X29550500Y9774037D01*
X32536757Y9774037D01*
X32553175Y9578517D01*
X32607258Y9389909D01*
X32610076Y9384426D01*
X32694123Y9220887D01*
X32694126Y9220883D01*
X32696944Y9215399D01*
X32818818Y9061631D01*
X32823511Y9057637D01*
X32823512Y9057636D01*
X32935926Y8961965D01*
X32968238Y8934465D01*
X32973616Y8931459D01*
X32973618Y8931458D01*
X33030801Y8899500D01*
X33139513Y8838743D01*
X33326118Y8778111D01*
X33520946Y8754879D01*
X33527081Y8755351D01*
X33527083Y8755351D01*
X33710434Y8769459D01*
X33710438Y8769460D01*
X33716576Y8769932D01*
X33905556Y8822697D01*
X34080689Y8911163D01*
X34110515Y8934465D01*
X34187373Y8994513D01*
X34235303Y9031960D01*
X34242606Y9040420D01*
X34359485Y9175827D01*
X34359485Y9175828D01*
X34363509Y9180489D01*
X34460425Y9351091D01*
X34522358Y9537268D01*
X34546949Y9731929D01*
X34547277Y9755383D01*
X34547292Y9756477D01*
X34547292Y9756481D01*
X34547341Y9760000D01*
X34545965Y9774037D01*
X35076757Y9774037D01*
X35093175Y9578517D01*
X35147258Y9389909D01*
X35150076Y9384426D01*
X35234123Y9220887D01*
X35234126Y9220883D01*
X35236944Y9215399D01*
X35358818Y9061631D01*
X35363511Y9057637D01*
X35363512Y9057636D01*
X35475926Y8961965D01*
X35508238Y8934465D01*
X35513616Y8931459D01*
X35513618Y8931458D01*
X35570801Y8899500D01*
X35679513Y8838743D01*
X35866118Y8778111D01*
X36060946Y8754879D01*
X36067081Y8755351D01*
X36067083Y8755351D01*
X36250434Y8769459D01*
X36250438Y8769460D01*
X36256576Y8769932D01*
X36445556Y8822697D01*
X36620689Y8911163D01*
X36650515Y8934465D01*
X36727373Y8994513D01*
X36775303Y9031960D01*
X36782606Y9040420D01*
X36899485Y9175827D01*
X36899485Y9175828D01*
X36903509Y9180489D01*
X37000425Y9351091D01*
X37062358Y9537268D01*
X37086949Y9731929D01*
X37087277Y9755383D01*
X37087292Y9756477D01*
X37087292Y9756481D01*
X37087341Y9760000D01*
X37068194Y9955272D01*
X37066413Y9961171D01*
X37066412Y9961176D01*
X37013265Y10137207D01*
X37011484Y10143106D01*
X36919370Y10316347D01*
X36795361Y10468398D01*
X36644180Y10593465D01*
X36471585Y10686787D01*
X36377868Y10715797D01*
X36290039Y10742985D01*
X36290036Y10742986D01*
X36284152Y10744807D01*
X36278027Y10745451D01*
X36278026Y10745451D01*
X36095147Y10764673D01*
X36095146Y10764673D01*
X36089019Y10765317D01*
X35966383Y10754156D01*
X35899759Y10748093D01*
X35899758Y10748093D01*
X35893618Y10747534D01*
X35887704Y10745793D01*
X35887702Y10745793D01*
X35863246Y10738595D01*
X35705393Y10692136D01*
X35699928Y10689279D01*
X35536972Y10604088D01*
X35536968Y10604085D01*
X35531512Y10601233D01*
X35526712Y10597373D01*
X35526711Y10597373D01*
X35495296Y10572115D01*
X35378600Y10478289D01*
X35252480Y10327984D01*
X35249516Y10322592D01*
X35249513Y10322588D01*
X35185920Y10206912D01*
X35157956Y10156046D01*
X35156095Y10150179D01*
X35156094Y10150177D01*
X35153335Y10141478D01*
X35098628Y9969022D01*
X35076757Y9774037D01*
X34545965Y9774037D01*
X34528194Y9955272D01*
X34526413Y9961171D01*
X34526412Y9961176D01*
X34473265Y10137207D01*
X34471484Y10143106D01*
X34379370Y10316347D01*
X34255361Y10468398D01*
X34104180Y10593465D01*
X33931585Y10686787D01*
X33837868Y10715797D01*
X33750039Y10742985D01*
X33750036Y10742986D01*
X33744152Y10744807D01*
X33738027Y10745451D01*
X33738026Y10745451D01*
X33555147Y10764673D01*
X33555146Y10764673D01*
X33549019Y10765317D01*
X33426383Y10754156D01*
X33359759Y10748093D01*
X33359758Y10748093D01*
X33353618Y10747534D01*
X33347704Y10745793D01*
X33347702Y10745793D01*
X33323246Y10738595D01*
X33165393Y10692136D01*
X33159928Y10689279D01*
X32996972Y10604088D01*
X32996968Y10604085D01*
X32991512Y10601233D01*
X32986712Y10597373D01*
X32986711Y10597373D01*
X32955296Y10572115D01*
X32838600Y10478289D01*
X32712480Y10327984D01*
X32709516Y10322592D01*
X32709513Y10322588D01*
X32645920Y10206912D01*
X32617956Y10156046D01*
X32616095Y10150179D01*
X32616094Y10150177D01*
X32613335Y10141478D01*
X32558628Y9969022D01*
X32536757Y9774037D01*
X29550500Y9774037D01*
X29550500Y11262915D01*
X29552921Y11287496D01*
X29552987Y11287828D01*
X29552987Y11287829D01*
X29555408Y11300000D01*
X29535966Y11397741D01*
X29508261Y11439204D01*
X29508260Y11439206D01*
X29487495Y11470284D01*
X29487493Y11470286D01*
X29480601Y11480601D01*
X29470286Y11487493D01*
X29470284Y11487495D01*
X29469995Y11487688D01*
X29450902Y11503358D01*
X28920235Y12034025D01*
X32577923Y12034025D01*
X32606025Y11936020D01*
X32610543Y11924608D01*
X32694546Y11761156D01*
X32701196Y11750838D01*
X32815350Y11606811D01*
X32823873Y11597985D01*
X32963833Y11478871D01*
X32973905Y11471870D01*
X33134334Y11382210D01*
X33145574Y11377299D01*
X33270769Y11336621D01*
X33284867Y11336218D01*
X33288000Y11342590D01*
X33288000Y11350742D01*
X33796000Y11350742D01*
X33799973Y11337211D01*
X33808188Y11336030D01*
X33899430Y11361505D01*
X33910881Y11365947D01*
X34074919Y11448807D01*
X34085276Y11455380D01*
X34230100Y11568530D01*
X34238986Y11576991D01*
X34359070Y11716110D01*
X34366144Y11726138D01*
X34456919Y11885932D01*
X34461913Y11897148D01*
X34505712Y12028811D01*
X34505897Y12034025D01*
X35117923Y12034025D01*
X35146025Y11936020D01*
X35150543Y11924608D01*
X35234546Y11761156D01*
X35241196Y11750838D01*
X35355350Y11606811D01*
X35363873Y11597985D01*
X35503833Y11478871D01*
X35513905Y11471870D01*
X35674334Y11382210D01*
X35685574Y11377299D01*
X35810769Y11336621D01*
X35824867Y11336218D01*
X35828000Y11342590D01*
X35828000Y11350742D01*
X36336000Y11350742D01*
X36339973Y11337211D01*
X36348188Y11336030D01*
X36439430Y11361505D01*
X36450881Y11365947D01*
X36614919Y11448807D01*
X36625276Y11455380D01*
X36770100Y11568530D01*
X36778986Y11576991D01*
X36899070Y11716110D01*
X36906144Y11726138D01*
X36996919Y11885932D01*
X37001913Y11897148D01*
X37045712Y12028811D01*
X37046213Y12042903D01*
X37040024Y12046000D01*
X36354115Y12046000D01*
X36338876Y12041525D01*
X36337671Y12040135D01*
X36336000Y12032452D01*
X36336000Y11350742D01*
X35828000Y11350742D01*
X35828000Y12027885D01*
X35823525Y12043124D01*
X35822135Y12044329D01*
X35814452Y12046000D01*
X35132604Y12046000D01*
X35119073Y12042027D01*
X35117923Y12034025D01*
X34505897Y12034025D01*
X34506213Y12042903D01*
X34500024Y12046000D01*
X33814115Y12046000D01*
X33798876Y12041525D01*
X33797671Y12040135D01*
X33796000Y12032452D01*
X33796000Y11350742D01*
X33288000Y11350742D01*
X33288000Y12027885D01*
X33283525Y12043124D01*
X33282135Y12044329D01*
X33274452Y12046000D01*
X32592604Y12046000D01*
X32579073Y12042027D01*
X32577923Y12034025D01*
X28920235Y12034025D01*
X28397092Y12557168D01*
X32578594Y12557168D01*
X32585153Y12554000D01*
X33269885Y12554000D01*
X33285124Y12558475D01*
X33286329Y12559865D01*
X33288000Y12567548D01*
X33288000Y12572115D01*
X33796000Y12572115D01*
X33800475Y12556876D01*
X33801865Y12555671D01*
X33809548Y12554000D01*
X34491826Y12554000D01*
X34502615Y12557168D01*
X35118594Y12557168D01*
X35125153Y12554000D01*
X35809885Y12554000D01*
X35825124Y12558475D01*
X35826329Y12559865D01*
X35828000Y12567548D01*
X35828000Y12572115D01*
X36336000Y12572115D01*
X36340475Y12556876D01*
X36341865Y12555671D01*
X36349548Y12554000D01*
X37031826Y12554000D01*
X37045357Y12557973D01*
X37046449Y12565567D01*
X37012801Y12677015D01*
X37008126Y12688356D01*
X36921846Y12850627D01*
X36915059Y12860843D01*
X36798899Y13003269D01*
X36790255Y13011973D01*
X36648649Y13129120D01*
X36638478Y13135980D01*
X36476809Y13223394D01*
X36465504Y13228146D01*
X36353308Y13262876D01*
X36339205Y13263082D01*
X36336000Y13256327D01*
X36336000Y12572115D01*
X35828000Y12572115D01*
X35828000Y13249586D01*
X35824027Y13263117D01*
X35816232Y13264237D01*
X35711496Y13233411D01*
X35700119Y13228814D01*
X35537247Y13143667D01*
X35526986Y13136953D01*
X35383751Y13021789D01*
X35374992Y13013211D01*
X35256853Y12872419D01*
X35249927Y12862305D01*
X35161383Y12701243D01*
X35156555Y12689979D01*
X35118898Y12571269D01*
X35118594Y12557168D01*
X34502615Y12557168D01*
X34505357Y12557973D01*
X34506449Y12565567D01*
X34472801Y12677015D01*
X34468126Y12688356D01*
X34381846Y12850627D01*
X34375059Y12860843D01*
X34258899Y13003269D01*
X34250255Y13011973D01*
X34108649Y13129120D01*
X34098478Y13135980D01*
X33936809Y13223394D01*
X33925504Y13228146D01*
X33813308Y13262876D01*
X33799205Y13263082D01*
X33796000Y13256327D01*
X33796000Y12572115D01*
X33288000Y12572115D01*
X33288000Y13249586D01*
X33284027Y13263117D01*
X33276232Y13264237D01*
X33171496Y13233411D01*
X33160119Y13228814D01*
X32997247Y13143667D01*
X32986986Y13136953D01*
X32843751Y13021789D01*
X32834992Y13013211D01*
X32716853Y12872419D01*
X32709927Y12862305D01*
X32621383Y12701243D01*
X32616555Y12689979D01*
X32578898Y12571269D01*
X32578594Y12557168D01*
X28397092Y12557168D01*
X28331432Y12622828D01*
X28297406Y12685140D01*
X28296273Y12732828D01*
X28300308Y12756811D01*
X28305496Y12787646D01*
X28305647Y12800000D01*
X28294311Y12879158D01*
X28286596Y12933032D01*
X28286595Y12933035D01*
X28285323Y12941918D01*
X28277124Y12959952D01*
X28257727Y13002612D01*
X28225984Y13072428D01*
X28197431Y13105565D01*
X28138260Y13174237D01*
X28138257Y13174240D01*
X28132400Y13181037D01*
X28012095Y13259015D01*
X27874739Y13300093D01*
X27865763Y13300148D01*
X27865762Y13300148D01*
X27805555Y13300516D01*
X27731376Y13300969D01*
X27593529Y13261572D01*
X27472280Y13185070D01*
X27377377Y13077612D01*
X27316447Y12947837D01*
X27314142Y12933032D01*
X27296584Y12820259D01*
X27294391Y12806177D01*
X23700500Y12806177D01*
X23700500Y14854037D01*
X32536757Y14854037D01*
X32553175Y14658517D01*
X32607258Y14469909D01*
X32610076Y14464426D01*
X32694123Y14300887D01*
X32694126Y14300883D01*
X32696944Y14295399D01*
X32818818Y14141631D01*
X32823511Y14137637D01*
X32823512Y14137636D01*
X32952470Y14027885D01*
X32968238Y14014465D01*
X32973616Y14011459D01*
X32973618Y14011458D01*
X33009932Y13991163D01*
X33139513Y13918743D01*
X33326118Y13858111D01*
X33520946Y13834879D01*
X33527081Y13835351D01*
X33527083Y13835351D01*
X33710434Y13849459D01*
X33710438Y13849460D01*
X33716576Y13849932D01*
X33905556Y13902697D01*
X34080689Y13991163D01*
X34098801Y14005313D01*
X34213902Y14095240D01*
X34235303Y14111960D01*
X34242675Y14120500D01*
X34359485Y14255827D01*
X34359485Y14255828D01*
X34363509Y14260489D01*
X34375858Y14282226D01*
X34421602Y14362751D01*
X34460425Y14431091D01*
X34522358Y14617268D01*
X34546949Y14811929D01*
X34547200Y14829928D01*
X34547292Y14836477D01*
X34547292Y14836481D01*
X34547341Y14840000D01*
X34545965Y14854037D01*
X35076757Y14854037D01*
X35093175Y14658517D01*
X35147258Y14469909D01*
X35150076Y14464426D01*
X35234123Y14300887D01*
X35234126Y14300883D01*
X35236944Y14295399D01*
X35358818Y14141631D01*
X35363511Y14137637D01*
X35363512Y14137636D01*
X35492470Y14027885D01*
X35508238Y14014465D01*
X35513616Y14011459D01*
X35513618Y14011458D01*
X35549932Y13991163D01*
X35679513Y13918743D01*
X35866118Y13858111D01*
X36060946Y13834879D01*
X36067081Y13835351D01*
X36067083Y13835351D01*
X36250434Y13849459D01*
X36250438Y13849460D01*
X36256576Y13849932D01*
X36445556Y13902697D01*
X36620689Y13991163D01*
X36638801Y14005313D01*
X36753902Y14095240D01*
X36775303Y14111960D01*
X36782675Y14120500D01*
X36899485Y14255827D01*
X36899485Y14255828D01*
X36903509Y14260489D01*
X36915858Y14282226D01*
X36961602Y14362751D01*
X37000425Y14431091D01*
X37062358Y14617268D01*
X37086949Y14811929D01*
X37087200Y14829928D01*
X37087292Y14836477D01*
X37087292Y14836481D01*
X37087341Y14840000D01*
X37068194Y15035272D01*
X37066413Y15041171D01*
X37066412Y15041176D01*
X37013265Y15217207D01*
X37011484Y15223106D01*
X36919370Y15396347D01*
X36795361Y15548398D01*
X36644180Y15673465D01*
X36471585Y15766787D01*
X36377868Y15795797D01*
X36290039Y15822985D01*
X36290036Y15822986D01*
X36284152Y15824807D01*
X36278027Y15825451D01*
X36278026Y15825451D01*
X36095147Y15844673D01*
X36095146Y15844673D01*
X36089019Y15845317D01*
X35966383Y15834156D01*
X35899759Y15828093D01*
X35899758Y15828093D01*
X35893618Y15827534D01*
X35887704Y15825793D01*
X35887702Y15825793D01*
X35758734Y15787835D01*
X35705393Y15772136D01*
X35699928Y15769279D01*
X35536972Y15684088D01*
X35536968Y15684085D01*
X35531512Y15681233D01*
X35526712Y15677373D01*
X35526711Y15677373D01*
X35507078Y15661588D01*
X35378600Y15558289D01*
X35252480Y15407984D01*
X35249516Y15402592D01*
X35249513Y15402588D01*
X35191283Y15296667D01*
X35157956Y15236046D01*
X35156095Y15230179D01*
X35156094Y15230177D01*
X35142602Y15187646D01*
X35098628Y15049022D01*
X35076757Y14854037D01*
X34545965Y14854037D01*
X34528194Y15035272D01*
X34526413Y15041171D01*
X34526412Y15041176D01*
X34473265Y15217207D01*
X34471484Y15223106D01*
X34379370Y15396347D01*
X34255361Y15548398D01*
X34104180Y15673465D01*
X33931585Y15766787D01*
X33837868Y15795797D01*
X33750039Y15822985D01*
X33750036Y15822986D01*
X33744152Y15824807D01*
X33738027Y15825451D01*
X33738026Y15825451D01*
X33555147Y15844673D01*
X33555146Y15844673D01*
X33549019Y15845317D01*
X33426383Y15834156D01*
X33359759Y15828093D01*
X33359758Y15828093D01*
X33353618Y15827534D01*
X33347704Y15825793D01*
X33347702Y15825793D01*
X33218734Y15787835D01*
X33165393Y15772136D01*
X33159928Y15769279D01*
X32996972Y15684088D01*
X32996968Y15684085D01*
X32991512Y15681233D01*
X32986712Y15677373D01*
X32986711Y15677373D01*
X32967078Y15661588D01*
X32838600Y15558289D01*
X32712480Y15407984D01*
X32709516Y15402592D01*
X32709513Y15402588D01*
X32651283Y15296667D01*
X32617956Y15236046D01*
X32616095Y15230179D01*
X32616094Y15230177D01*
X32602602Y15187646D01*
X32558628Y15049022D01*
X32536757Y14854037D01*
X23700500Y14854037D01*
X23700500Y16106177D01*
X26994391Y16106177D01*
X26995555Y16097275D01*
X26995555Y16097272D01*
X26996814Y16087646D01*
X27012980Y15964021D01*
X27070720Y15832797D01*
X27076497Y15825924D01*
X27076498Y15825923D01*
X27077436Y15824807D01*
X27162970Y15723052D01*
X27170447Y15718075D01*
X27266511Y15654129D01*
X27282313Y15643610D01*
X27419157Y15600858D01*
X27428129Y15600694D01*
X27428132Y15600693D01*
X27493463Y15599496D01*
X27562499Y15598230D01*
X27571533Y15600693D01*
X27692158Y15633579D01*
X27692160Y15633580D01*
X27700817Y15635940D01*
X27822991Y15710955D01*
X27919200Y15817246D01*
X27954089Y15889257D01*
X27977795Y15938186D01*
X27977795Y15938187D01*
X27981710Y15946267D01*
X28005496Y16087646D01*
X28005647Y16100000D01*
X27990430Y16206259D01*
X27986596Y16233032D01*
X27986595Y16233035D01*
X27985323Y16241918D01*
X27925984Y16372428D01*
X27865436Y16442697D01*
X27838260Y16474237D01*
X27838257Y16474240D01*
X27832400Y16481037D01*
X27779724Y16515180D01*
X32541500Y16515180D01*
X32550233Y16471278D01*
X32557127Y16460960D01*
X32557128Y16460958D01*
X32569330Y16442697D01*
X32583496Y16421496D01*
X32593815Y16414601D01*
X32622958Y16395128D01*
X32622960Y16395127D01*
X32633278Y16388233D01*
X32677180Y16379500D01*
X34406820Y16379500D01*
X34450722Y16388233D01*
X34461040Y16395127D01*
X34461042Y16395128D01*
X34490185Y16414601D01*
X34500504Y16421496D01*
X34514670Y16442697D01*
X34526872Y16460958D01*
X34526873Y16460960D01*
X34533767Y16471278D01*
X34542500Y16515180D01*
X34542500Y17394037D01*
X35076757Y17394037D01*
X35093175Y17198517D01*
X35147258Y17009909D01*
X35150076Y17004426D01*
X35234123Y16840887D01*
X35234126Y16840883D01*
X35236944Y16835399D01*
X35358818Y16681631D01*
X35363511Y16677637D01*
X35363512Y16677636D01*
X35463539Y16592507D01*
X35508238Y16554465D01*
X35513616Y16551459D01*
X35513618Y16551458D01*
X35567460Y16521367D01*
X35679513Y16458743D01*
X35866118Y16398111D01*
X36060946Y16374879D01*
X36067081Y16375351D01*
X36067083Y16375351D01*
X36250434Y16389459D01*
X36250438Y16389460D01*
X36256576Y16389932D01*
X36445556Y16442697D01*
X36620689Y16531163D01*
X36650515Y16554465D01*
X36770453Y16648171D01*
X36775303Y16651960D01*
X36805084Y16686461D01*
X36899485Y16795827D01*
X36899485Y16795828D01*
X36903509Y16800489D01*
X37000425Y16971091D01*
X37062358Y17157268D01*
X37086949Y17351929D01*
X37087341Y17380000D01*
X37068194Y17575272D01*
X37066413Y17581171D01*
X37066412Y17581176D01*
X37013265Y17757207D01*
X37011484Y17763106D01*
X36919370Y17936347D01*
X36795361Y18088398D01*
X36644180Y18213465D01*
X36471585Y18306787D01*
X36369124Y18338504D01*
X36290039Y18362985D01*
X36290036Y18362986D01*
X36284152Y18364807D01*
X36278027Y18365451D01*
X36278026Y18365451D01*
X36095147Y18384673D01*
X36095146Y18384673D01*
X36089019Y18385317D01*
X35966733Y18374188D01*
X35899759Y18368093D01*
X35899758Y18368093D01*
X35893618Y18367534D01*
X35887704Y18365793D01*
X35887702Y18365793D01*
X35818410Y18345399D01*
X35705393Y18312136D01*
X35699928Y18309279D01*
X35536972Y18224088D01*
X35536968Y18224085D01*
X35531512Y18221233D01*
X35526712Y18217373D01*
X35526711Y18217373D01*
X35500427Y18196240D01*
X35378600Y18098289D01*
X35252480Y17947984D01*
X35249516Y17942592D01*
X35249513Y17942588D01*
X35170813Y17799433D01*
X35157956Y17776046D01*
X35098628Y17589022D01*
X35076757Y17394037D01*
X34542500Y17394037D01*
X34542500Y18244820D01*
X34533767Y18288722D01*
X34526873Y18299040D01*
X34526872Y18299042D01*
X34507399Y18328185D01*
X34500504Y18338504D01*
X34490185Y18345399D01*
X34461042Y18364872D01*
X34461040Y18364873D01*
X34450722Y18371767D01*
X34406820Y18380500D01*
X32677180Y18380500D01*
X32633278Y18371767D01*
X32622960Y18364873D01*
X32622958Y18364872D01*
X32593815Y18345399D01*
X32583496Y18338504D01*
X32576601Y18328185D01*
X32557128Y18299042D01*
X32557127Y18299040D01*
X32550233Y18288722D01*
X32541500Y18244820D01*
X32541500Y16515180D01*
X27779724Y16515180D01*
X27712095Y16559015D01*
X27574739Y16600093D01*
X27565763Y16600148D01*
X27565762Y16600148D01*
X27505555Y16600516D01*
X27431376Y16600969D01*
X27293529Y16561572D01*
X27172280Y16485070D01*
X27166338Y16478342D01*
X27166337Y16478341D01*
X27150985Y16460958D01*
X27077377Y16377612D01*
X27016447Y16247837D01*
X27009843Y16205421D01*
X26996778Y16121505D01*
X26994391Y16106177D01*
X23700500Y16106177D01*
X23700500Y16800000D01*
X24744750Y16800000D01*
X24763670Y16656291D01*
X24819139Y16522375D01*
X24907379Y16407379D01*
X25022375Y16319139D01*
X25156291Y16263670D01*
X25300000Y16244750D01*
X25443709Y16263670D01*
X25577625Y16319139D01*
X25692621Y16407379D01*
X25780861Y16522375D01*
X25836330Y16656291D01*
X25855250Y16800000D01*
X25846102Y16869486D01*
X25844091Y16884761D01*
X25855030Y16954909D01*
X25879918Y16990302D01*
X27966844Y19077228D01*
X27985936Y19092898D01*
X27988307Y19094482D01*
X27988308Y19094483D01*
X27998624Y19101376D01*
X28059515Y19192505D01*
X28075500Y19272867D01*
X28075500Y19272868D01*
X28080897Y19300000D01*
X28077921Y19314961D01*
X28075500Y19339543D01*
X28075500Y20314024D01*
X28095502Y20382145D01*
X28118637Y20408282D01*
X28122991Y20410955D01*
X28219200Y20517246D01*
X28281710Y20646267D01*
X28305496Y20787646D01*
X28305647Y20800000D01*
X28295788Y20868844D01*
X28286596Y20933032D01*
X28286595Y20933035D01*
X28285323Y20941918D01*
X28281242Y20950895D01*
X28229700Y21064254D01*
X28225984Y21072428D01*
X28181855Y21123642D01*
X28138260Y21174237D01*
X28138257Y21174240D01*
X28132400Y21181037D01*
X28012095Y21259015D01*
X27874739Y21300093D01*
X27865763Y21300148D01*
X27865762Y21300148D01*
X27805555Y21300516D01*
X27731376Y21300969D01*
X27593529Y21261572D01*
X27472280Y21185070D01*
X27377377Y21077612D01*
X27316447Y20947837D01*
X27314356Y20934404D01*
X27296477Y20819574D01*
X27294391Y20806177D01*
X27295555Y20797275D01*
X27295555Y20797272D01*
X27296814Y20787646D01*
X27312980Y20664021D01*
X27316597Y20655801D01*
X27355053Y20568404D01*
X27370720Y20532797D01*
X27376497Y20525924D01*
X27376498Y20525923D01*
X27429423Y20462961D01*
X27462970Y20423052D01*
X27470447Y20418075D01*
X27477135Y20412095D01*
X27475788Y20410588D01*
X27513944Y20365088D01*
X27524500Y20314604D01*
X27524500Y19466306D01*
X27504498Y19398185D01*
X27487595Y19377211D01*
X25490302Y17379918D01*
X25427990Y17345892D01*
X25384761Y17344091D01*
X25308189Y17354172D01*
X25308188Y17354172D01*
X25300000Y17355250D01*
X25156291Y17336330D01*
X25022375Y17280861D01*
X24907379Y17192621D01*
X24819139Y17077625D01*
X24763670Y16943709D01*
X24744750Y16800000D01*
X23700500Y16800000D01*
X23700500Y17141519D01*
X23700499Y17141525D01*
X23700499Y17173433D01*
X23697436Y17182860D01*
X23697435Y17182867D01*
X23693703Y17194353D01*
X23689089Y17213573D01*
X23687199Y17225507D01*
X23687197Y17225515D01*
X23685646Y17235304D01*
X23681146Y17244135D01*
X23681145Y17244139D01*
X23675658Y17254907D01*
X23668094Y17273168D01*
X23661296Y17294090D01*
X23648368Y17311884D01*
X23638038Y17328741D01*
X23632552Y17339507D01*
X23632551Y17339508D01*
X23628050Y17348342D01*
X23538342Y17438050D01*
X20800306Y20176087D01*
X20766280Y20238399D01*
X20764839Y20278036D01*
X20764240Y20278082D01*
X20764553Y20282191D01*
X20765134Y20286277D01*
X20765278Y20300000D01*
X20746363Y20456306D01*
X20709448Y20554000D01*
X20693394Y20596486D01*
X20693393Y20596489D01*
X20690710Y20603588D01*
X20601531Y20733343D01*
X20521312Y20804816D01*
X20489648Y20833028D01*
X20489645Y20833030D01*
X20483976Y20838081D01*
X20344831Y20911755D01*
X20328122Y20915952D01*
X20199498Y20948260D01*
X20199496Y20948260D01*
X20192128Y20950111D01*
X20184530Y20950151D01*
X20184528Y20950151D01*
X20117319Y20950503D01*
X20034684Y20950935D01*
X20027305Y20949163D01*
X20027301Y20949163D01*
X19888967Y20915952D01*
X19888963Y20915951D01*
X19881588Y20914180D01*
X19798037Y20871056D01*
X19750185Y20846358D01*
X19741679Y20841968D01*
X19735957Y20836976D01*
X19735955Y20836975D01*
X19628759Y20743462D01*
X19628756Y20743459D01*
X19623034Y20738467D01*
X19618669Y20732257D01*
X19618666Y20732253D01*
X19578117Y20674557D01*
X19522582Y20630326D01*
X19451950Y20623140D01*
X19388646Y20655281D01*
X19371191Y20675640D01*
X19335838Y20727078D01*
X19335833Y20727084D01*
X19331531Y20733343D01*
X19251312Y20804816D01*
X19219648Y20833028D01*
X19219645Y20833030D01*
X19213976Y20838081D01*
X19074831Y20911755D01*
X19058122Y20915952D01*
X18929498Y20948260D01*
X18929496Y20948260D01*
X18922128Y20950111D01*
X18914530Y20950151D01*
X18914528Y20950151D01*
X18847319Y20950503D01*
X18764684Y20950935D01*
X18757305Y20949163D01*
X18757301Y20949163D01*
X18618967Y20915952D01*
X18618963Y20915951D01*
X18611588Y20914180D01*
X18528037Y20871056D01*
X18480185Y20846358D01*
X18471679Y20841968D01*
X18465957Y20836976D01*
X18465955Y20836975D01*
X18358759Y20743462D01*
X18358756Y20743459D01*
X18353034Y20738467D01*
X18348669Y20732257D01*
X18348666Y20732253D01*
X18308117Y20674557D01*
X18252582Y20630326D01*
X18181950Y20623140D01*
X18118646Y20655281D01*
X18101191Y20675640D01*
X18065838Y20727078D01*
X18065833Y20727084D01*
X18061531Y20733343D01*
X17981312Y20804816D01*
X17949648Y20833028D01*
X17949645Y20833030D01*
X17943976Y20838081D01*
X17804831Y20911755D01*
X17788122Y20915952D01*
X17659498Y20948260D01*
X17659496Y20948260D01*
X17652128Y20950111D01*
X17644530Y20950151D01*
X17644528Y20950151D01*
X17577319Y20950503D01*
X17494684Y20950935D01*
X17487305Y20949163D01*
X17487301Y20949163D01*
X17348967Y20915952D01*
X17348963Y20915951D01*
X17341588Y20914180D01*
X17258037Y20871056D01*
X17210185Y20846358D01*
X17201679Y20841968D01*
X17195957Y20836976D01*
X17195955Y20836975D01*
X17145658Y20793098D01*
X17081176Y20763390D01*
X17010869Y20773260D01*
X16957058Y20819574D01*
X16946419Y20839832D01*
X16934402Y20868847D01*
X16915037Y20897828D01*
X16897828Y20915037D01*
X16868844Y20934404D01*
X16846358Y20943718D01*
X16820842Y20948793D01*
X16808588Y20950000D01*
X16572115Y20950000D01*
X16556876Y20945525D01*
X16555671Y20944135D01*
X16554000Y20936452D01*
X16554000Y19668116D01*
X16558475Y19652877D01*
X16559865Y19651672D01*
X16567548Y19650001D01*
X16808586Y19650001D01*
X16820846Y19651209D01*
X16846352Y19656282D01*
X16868848Y19665599D01*
X16897828Y19684963D01*
X16915037Y19702172D01*
X16934403Y19731155D01*
X16946316Y19759915D01*
X16990865Y19815195D01*
X17058229Y19837615D01*
X17127020Y19820056D01*
X17147524Y19804888D01*
X17184793Y19770975D01*
X17184798Y19770971D01*
X17190410Y19765865D01*
X17197080Y19762244D01*
X17197082Y19762242D01*
X17253622Y19731543D01*
X17303944Y19681460D01*
X17319500Y19620812D01*
X17319500Y19225950D01*
X17299498Y19157829D01*
X17282595Y19136855D01*
X16649098Y18503358D01*
X16630005Y18487688D01*
X16629716Y18487495D01*
X16629714Y18487493D01*
X16619399Y18480601D01*
X16583943Y18427536D01*
X16564034Y18397741D01*
X16561613Y18385570D01*
X16561435Y18384673D01*
X16544592Y18300000D01*
X16547013Y18287829D01*
X16547013Y18287828D01*
X16547079Y18287496D01*
X16549500Y18262915D01*
X16549500Y16437085D01*
X16547079Y16412504D01*
X16544592Y16400000D01*
X16564034Y16302259D01*
X16570289Y16292898D01*
X16619399Y16219399D01*
X16629717Y16212505D01*
X16629719Y16212503D01*
X16630005Y16212312D01*
X16649098Y16196642D01*
X17468699Y15377041D01*
X17502725Y15314729D01*
X17504104Y15268562D01*
X17495772Y15215051D01*
X17495772Y15215046D01*
X17494391Y15206177D01*
X17495555Y15197275D01*
X17495555Y15197272D01*
X17498078Y15177978D01*
X17512980Y15064021D01*
X17570720Y14932797D01*
X17576497Y14925924D01*
X17576498Y14925923D01*
X17647705Y14841212D01*
X17662970Y14823052D01*
X17695072Y14801683D01*
X17760185Y14758340D01*
X17782313Y14743610D01*
X17919157Y14700858D01*
X17928129Y14700694D01*
X17928132Y14700693D01*
X17993463Y14699496D01*
X18062499Y14698230D01*
X18071533Y14700693D01*
X18192158Y14733579D01*
X18192160Y14733580D01*
X18200817Y14735940D01*
X18322991Y14810955D01*
X18353075Y14844191D01*
X18413178Y14910593D01*
X18419200Y14917246D01*
X18462249Y15006100D01*
X18477795Y15038186D01*
X18477795Y15038187D01*
X18481710Y15046267D01*
X18505496Y15187646D01*
X18505647Y15200000D01*
X18495828Y15268562D01*
X18486596Y15333032D01*
X18486595Y15333035D01*
X18485323Y15341918D01*
X18425984Y15472428D01*
X18407598Y15493766D01*
X18338260Y15574237D01*
X18338257Y15574240D01*
X18332400Y15581037D01*
X18212095Y15659015D01*
X18074739Y15700093D01*
X18065763Y15700148D01*
X18065762Y15700148D01*
X18001730Y15700539D01*
X17931376Y15700969D01*
X17924756Y15699077D01*
X17855595Y15709490D01*
X17819601Y15734659D01*
X17087405Y16466855D01*
X17053379Y16529167D01*
X17050500Y16555950D01*
X17050500Y16800000D01*
X17344750Y16800000D01*
X17363670Y16656291D01*
X17419139Y16522375D01*
X17507379Y16407379D01*
X17622375Y16319139D01*
X17756291Y16263670D01*
X17900000Y16244750D01*
X18043709Y16263670D01*
X18177625Y16319139D01*
X18292621Y16407379D01*
X18380861Y16522375D01*
X18436330Y16656291D01*
X18455250Y16800000D01*
X18436330Y16943709D01*
X18380861Y17077625D01*
X18292621Y17192621D01*
X18177625Y17280861D01*
X18043709Y17336330D01*
X17900000Y17355250D01*
X17756291Y17336330D01*
X17622375Y17280861D01*
X17507379Y17192621D01*
X17419139Y17077625D01*
X17363670Y16943709D01*
X17344750Y16800000D01*
X17050500Y16800000D01*
X17050500Y18144050D01*
X17070502Y18212171D01*
X17087405Y18233145D01*
X17720902Y18866642D01*
X17739995Y18882312D01*
X17740284Y18882505D01*
X17740286Y18882507D01*
X17750601Y18889399D01*
X17805966Y18972260D01*
X17820500Y19045326D01*
X17820500Y19045327D01*
X17825408Y19070000D01*
X17822921Y19082503D01*
X17820500Y19107085D01*
X17820500Y19620145D01*
X17840502Y19688266D01*
X17889887Y19732710D01*
X17925836Y19750790D01*
X17925839Y19750792D01*
X17932625Y19754205D01*
X17991967Y19804888D01*
X18046574Y19851526D01*
X18046576Y19851529D01*
X18052348Y19856458D01*
X18102587Y19926373D01*
X18158581Y19970020D01*
X18229284Y19976466D01*
X18292249Y19943663D01*
X18309485Y19923130D01*
X18343958Y19871828D01*
X18366270Y19851526D01*
X18445806Y19779154D01*
X18460410Y19765865D01*
X18472796Y19759140D01*
X18592099Y19694363D01*
X18592101Y19694362D01*
X18598776Y19690738D01*
X18606125Y19688810D01*
X18743719Y19652713D01*
X18743721Y19652713D01*
X18751069Y19650785D01*
X18834380Y19649476D01*
X18900898Y19648431D01*
X18900901Y19648431D01*
X18908495Y19648312D01*
X19061968Y19683462D01*
X19202625Y19754205D01*
X19261967Y19804888D01*
X19316574Y19851526D01*
X19316576Y19851529D01*
X19322348Y19856458D01*
X19372587Y19926373D01*
X19428581Y19970020D01*
X19499284Y19976466D01*
X19562249Y19943663D01*
X19579485Y19923130D01*
X19613958Y19871828D01*
X19636270Y19851526D01*
X19715806Y19779154D01*
X19730410Y19765865D01*
X19742796Y19759140D01*
X19862099Y19694363D01*
X19862101Y19694362D01*
X19868776Y19690738D01*
X19876125Y19688810D01*
X20013719Y19652713D01*
X20013721Y19652713D01*
X20021069Y19650785D01*
X20082786Y19649815D01*
X20144536Y19648845D01*
X20212334Y19627776D01*
X20231651Y19611956D01*
X22862595Y16981013D01*
X22896621Y16918701D01*
X22899500Y16891918D01*
X22899500Y10518083D01*
X22879498Y10449962D01*
X22862595Y10428988D01*
X22171012Y9737405D01*
X22108700Y9703379D01*
X22081917Y9700500D01*
X20486567Y9700500D01*
X20477136Y9697436D01*
X20477132Y9697435D01*
X20465647Y9693703D01*
X20446422Y9689087D01*
X20434488Y9687197D01*
X20434487Y9687197D01*
X20424696Y9685646D01*
X20415863Y9681145D01*
X20415859Y9681144D01*
X20405094Y9675659D01*
X20386834Y9668095D01*
X20365910Y9661296D01*
X20357888Y9655467D01*
X20357885Y9655466D01*
X20348116Y9648368D01*
X20331259Y9638038D01*
X20320493Y9632552D01*
X20320492Y9632551D01*
X20311658Y9628050D01*
X20289091Y9605483D01*
X18421012Y7737405D01*
X18358700Y7703379D01*
X18331917Y7700500D01*
X16538408Y7700500D01*
X16470287Y7720502D01*
X16423794Y7774158D01*
X16413690Y7844432D01*
X16442340Y7907163D01*
X16442621Y7907379D01*
X16447105Y7913223D01*
X16447109Y7913227D01*
X16520609Y8009015D01*
X16530861Y8022375D01*
X16586330Y8156291D01*
X16605250Y8300000D01*
X16586330Y8443709D01*
X16530861Y8577625D01*
X16442621Y8692621D01*
X16327625Y8780861D01*
X16193709Y8836330D01*
X16050000Y8855250D01*
X15906291Y8836330D01*
X15772375Y8780861D01*
X15657379Y8692621D01*
X15569139Y8577625D01*
X15513670Y8443709D01*
X15494750Y8300000D01*
X15513670Y8156291D01*
X15569139Y8022375D01*
X15643150Y7925923D01*
X15657379Y7907379D01*
X15655825Y7906186D01*
X15684713Y7853283D01*
X15679648Y7782468D01*
X15637101Y7725632D01*
X15570581Y7700821D01*
X15561592Y7700500D01*
X13556731Y7700500D01*
X13488610Y7720502D01*
X13478540Y7728618D01*
X13478282Y7728282D01*
X13409783Y7780843D01*
X13352841Y7824536D01*
X13206762Y7885044D01*
X13050000Y7905682D01*
X12893238Y7885044D01*
X12747159Y7824536D01*
X12692491Y7782588D01*
X12638203Y7740931D01*
X12621718Y7728282D01*
X12525464Y7602841D01*
X12464956Y7456762D01*
X12444318Y7300000D01*
X2650500Y7300000D01*
X2650500Y8605672D01*
X6520502Y8605672D01*
X6522256Y8603329D01*
X6536288Y8601057D01*
X6647216Y8599024D01*
X6664856Y8601221D01*
X6666798Y8601750D01*
X6673170Y8605672D01*
X7920502Y8605672D01*
X7922256Y8603329D01*
X7936288Y8601057D01*
X8047216Y8599024D01*
X8064856Y8601221D01*
X8066798Y8601750D01*
X8078807Y8609142D01*
X8078586Y8610923D01*
X8075862Y8614928D01*
X8012812Y8677978D01*
X7998868Y8685592D01*
X7997035Y8685461D01*
X7990420Y8681210D01*
X7927262Y8618052D01*
X7920502Y8605672D01*
X6673170Y8605672D01*
X6678807Y8609142D01*
X6678586Y8610923D01*
X6675862Y8614928D01*
X6612812Y8677978D01*
X6598868Y8685592D01*
X6597035Y8685461D01*
X6590420Y8681210D01*
X6527262Y8618052D01*
X6520502Y8605672D01*
X2650500Y8605672D01*
X2650500Y9046648D01*
X6146571Y9046648D01*
X6154730Y8984254D01*
X6159841Y8972672D01*
X6168560Y8977770D01*
X6227978Y9037188D01*
X6234356Y9048868D01*
X6964408Y9048868D01*
X6964539Y9047035D01*
X6968790Y9040420D01*
X7029557Y8979653D01*
X7041258Y8973264D01*
X7044868Y8981693D01*
X7053684Y9034097D01*
X7054551Y9043753D01*
X7054567Y9045128D01*
X7054468Y9046648D01*
X7546571Y9046648D01*
X7554730Y8984254D01*
X7559841Y8972672D01*
X7568560Y8977770D01*
X7627978Y9037188D01*
X7634356Y9048868D01*
X8364408Y9048868D01*
X8364539Y9047035D01*
X8368790Y9040420D01*
X8429557Y8979653D01*
X8441258Y8973264D01*
X8444868Y8981693D01*
X8453684Y9034097D01*
X8454551Y9043753D01*
X8454567Y9045128D01*
X8453935Y9054829D01*
X8445242Y9115529D01*
X8439895Y9127256D01*
X8431469Y9122259D01*
X8372022Y9062812D01*
X8364408Y9048868D01*
X7634356Y9048868D01*
X7635592Y9051132D01*
X7635461Y9052965D01*
X7631210Y9059580D01*
X7570321Y9120469D01*
X7558813Y9126753D01*
X7555131Y9118010D01*
X7546788Y9064427D01*
X7546571Y9046648D01*
X7054468Y9046648D01*
X7053935Y9054829D01*
X7045242Y9115529D01*
X7039895Y9127256D01*
X7031469Y9122259D01*
X6972022Y9062812D01*
X6964408Y9048868D01*
X6234356Y9048868D01*
X6235592Y9051132D01*
X6235461Y9052965D01*
X6231210Y9059580D01*
X6170321Y9120469D01*
X6158813Y9126753D01*
X6155131Y9118010D01*
X6146788Y9064427D01*
X6146571Y9046648D01*
X2650500Y9046648D01*
X2650500Y9763598D01*
X2651516Y9771315D01*
X2651516Y9783978D01*
X2655809Y9800000D01*
X2654154Y9806178D01*
X4619500Y9806178D01*
X4628293Y9730757D01*
X4633514Y9685980D01*
X4634657Y9676172D01*
X4637153Y9669295D01*
X4637154Y9669292D01*
X4682856Y9543387D01*
X4694369Y9511669D01*
X4790323Y9365315D01*
X4917372Y9244960D01*
X5068702Y9157061D01*
X5236193Y9106333D01*
X5410862Y9095497D01*
X5418078Y9096737D01*
X5418080Y9096737D01*
X5576125Y9123894D01*
X5576127Y9123895D01*
X5583340Y9125134D01*
X5744373Y9193654D01*
X5885324Y9297383D01*
X5890063Y9302961D01*
X5890066Y9302964D01*
X5993893Y9425176D01*
X5993896Y9425180D01*
X5998632Y9430755D01*
X6053021Y9537268D01*
X6074892Y9580100D01*
X6074893Y9580102D01*
X6078219Y9586616D01*
X6079958Y9593724D01*
X6082510Y9600586D01*
X6085656Y9599416D01*
X6113629Y9647948D01*
X6176710Y9680527D01*
X6247390Y9673829D01*
X6284053Y9651262D01*
X6339029Y9602709D01*
X6347152Y9598895D01*
X6347154Y9598894D01*
X6461025Y9545432D01*
X6459465Y9542110D01*
X6504236Y9512579D01*
X6511793Y9502695D01*
X6523487Y9485723D01*
X6587188Y9422022D01*
X6601132Y9414408D01*
X6602965Y9414539D01*
X6609580Y9418790D01*
X6672264Y9481474D01*
X6677165Y9490449D01*
X6727368Y9540650D01*
X6735600Y9544763D01*
X6856098Y9599550D01*
X6958197Y9687525D01*
X7031501Y9800618D01*
X7034260Y9809841D01*
X7060962Y9899129D01*
X7070117Y9929741D01*
X7070152Y9935489D01*
X7529060Y9935489D01*
X7531527Y9926858D01*
X7531527Y9926856D01*
X7560651Y9824953D01*
X7566095Y9805905D01*
X7638012Y9691924D01*
X7644741Y9685981D01*
X7644742Y9685980D01*
X7679241Y9655512D01*
X7739029Y9602709D01*
X7747152Y9598895D01*
X7747154Y9598894D01*
X7861025Y9545432D01*
X7859465Y9542110D01*
X7904236Y9512579D01*
X7911793Y9502695D01*
X7923487Y9485723D01*
X7987188Y9422022D01*
X8001132Y9414408D01*
X8002965Y9414539D01*
X8009580Y9418790D01*
X8072264Y9481474D01*
X8077165Y9490449D01*
X8127368Y9540650D01*
X8135600Y9544763D01*
X8256098Y9599550D01*
X8321046Y9655513D01*
X8385706Y9684826D01*
X8455951Y9674527D01*
X8509478Y9627886D01*
X8521731Y9603050D01*
X8552322Y9518773D01*
X8558832Y9505774D01*
X8646697Y9371758D01*
X8656021Y9360606D01*
X8772358Y9250399D01*
X8784005Y9241686D01*
X8922575Y9161197D01*
X8935905Y9155401D01*
X8958664Y9148508D01*
X8972763Y9148389D01*
X8976000Y9155320D01*
X8976000Y9161093D01*
X9484000Y9161093D01*
X9487973Y9147562D01*
X9493056Y9146831D01*
X9597393Y9191227D01*
X9610017Y9198428D01*
X9739082Y9293409D01*
X9749724Y9303333D01*
X9853475Y9425456D01*
X9861542Y9437552D01*
X9934418Y9580272D01*
X9939487Y9593900D01*
X9977982Y9751218D01*
X9979664Y9762270D01*
X9979880Y9765753D01*
X9980000Y9769635D01*
X9980000Y10027885D01*
X9975525Y10043124D01*
X9974135Y10044329D01*
X9966452Y10046000D01*
X9502115Y10046000D01*
X9486876Y10041525D01*
X9485671Y10040135D01*
X9484000Y10032452D01*
X9484000Y9161093D01*
X8976000Y9161093D01*
X8976000Y10572115D01*
X9484000Y10572115D01*
X9488475Y10556876D01*
X9489865Y10555671D01*
X9497548Y10554000D01*
X9961885Y10554000D01*
X9977124Y10558475D01*
X9978329Y10559865D01*
X9980000Y10567548D01*
X9980000Y10790132D01*
X9979575Y10797436D01*
X9965701Y10916440D01*
X9962356Y10930592D01*
X9907678Y11081227D01*
X9901168Y11094226D01*
X9813303Y11228242D01*
X9803979Y11239394D01*
X9687642Y11349601D01*
X9675995Y11358314D01*
X9537425Y11438803D01*
X9524095Y11444599D01*
X9501336Y11451492D01*
X9487237Y11451611D01*
X9484000Y11444680D01*
X9484000Y10572115D01*
X8976000Y10572115D01*
X8976000Y11438907D01*
X8972027Y11452438D01*
X8966944Y11453169D01*
X8862607Y11408773D01*
X8849983Y11401572D01*
X8720918Y11306591D01*
X8710276Y11296667D01*
X8606525Y11174544D01*
X8598458Y11162448D01*
X8525582Y11019728D01*
X8520513Y11006100D01*
X8482018Y10848782D01*
X8480336Y10837730D01*
X8480120Y10834247D01*
X8480000Y10830365D01*
X8480000Y10483235D01*
X8459998Y10415114D01*
X8406342Y10368621D01*
X8336068Y10358517D01*
X8275323Y10386606D01*
X8275201Y10386421D01*
X8273958Y10387238D01*
X8270592Y10388794D01*
X8267699Y10391349D01*
X8260971Y10397291D01*
X8252848Y10401105D01*
X8252846Y10401106D01*
X8181026Y10434825D01*
X8138975Y10454568D01*
X8130110Y10455948D01*
X8130108Y10455949D01*
X8066242Y10465893D01*
X8036654Y10470500D01*
X7966218Y10470500D01*
X7927257Y10464920D01*
X7875474Y10457505D01*
X7875471Y10457504D01*
X7866588Y10456232D01*
X7858420Y10452518D01*
X7858419Y10452518D01*
X7837631Y10443066D01*
X7743902Y10400450D01*
X7641803Y10312475D01*
X7568499Y10199382D01*
X7565928Y10190785D01*
X7565927Y10190783D01*
X7553296Y10148548D01*
X7529883Y10070259D01*
X7529828Y10061283D01*
X7529828Y10061282D01*
X7529699Y10040135D01*
X7529060Y9935489D01*
X7070152Y9935489D01*
X7070236Y9949138D01*
X7070791Y10040135D01*
X7070940Y10064511D01*
X7066839Y10078862D01*
X7036372Y10185464D01*
X7036371Y10185466D01*
X7033905Y10194095D01*
X6961988Y10308076D01*
X6955144Y10314121D01*
X6879561Y10380873D01*
X6841743Y10440959D01*
X6842413Y10511952D01*
X6880721Y10570767D01*
X6882286Y10572115D01*
X6958197Y10637525D01*
X7031501Y10750618D01*
X7035705Y10764673D01*
X7067544Y10871138D01*
X7070117Y10879741D01*
X7070940Y11014511D01*
X7068036Y11024674D01*
X7036372Y11135464D01*
X7036371Y11135466D01*
X7033905Y11144095D01*
X6961988Y11258076D01*
X6908217Y11305565D01*
X6870399Y11365651D01*
X6871069Y11436644D01*
X6909377Y11495459D01*
X6912387Y11498052D01*
X6958197Y11537525D01*
X7031501Y11650618D01*
X7035664Y11664536D01*
X7067544Y11771138D01*
X7070117Y11779741D01*
X7070199Y11793074D01*
X7070771Y11886897D01*
X7070940Y11914511D01*
X7068055Y11924608D01*
X7041906Y12016100D01*
X7042418Y12087094D01*
X7081232Y12146542D01*
X7146024Y12175568D01*
X7216224Y12164957D01*
X7252150Y12139819D01*
X7492305Y11899664D01*
X7526331Y11837352D01*
X7529208Y11809802D01*
X7529205Y11809282D01*
X7529060Y11785489D01*
X7531527Y11776857D01*
X7547814Y11719871D01*
X7566095Y11655905D01*
X7638012Y11541924D01*
X7739029Y11452709D01*
X7747152Y11448895D01*
X7747154Y11448894D01*
X7798678Y11424704D01*
X7861025Y11395432D01*
X7869890Y11394052D01*
X7869892Y11394051D01*
X7924343Y11385573D01*
X7963346Y11379500D01*
X8033782Y11379500D01*
X8076188Y11385573D01*
X8124526Y11392495D01*
X8124529Y11392496D01*
X8133412Y11393768D01*
X8142151Y11397741D01*
X8198995Y11423587D01*
X8256098Y11449550D01*
X8358197Y11537525D01*
X8431501Y11650618D01*
X8447646Y11704603D01*
X8486328Y11764136D01*
X8551056Y11793306D01*
X8568363Y11794500D01*
X13750417Y11794500D01*
X13818538Y11774498D01*
X13865746Y11719246D01*
X13910445Y11617661D01*
X13914785Y11607797D01*
X13920562Y11600924D01*
X13920563Y11600923D01*
X13975153Y11535980D01*
X14007035Y11498052D01*
X14025208Y11485955D01*
X14104594Y11433111D01*
X14126378Y11418610D01*
X14263222Y11375858D01*
X14272194Y11375694D01*
X14272197Y11375693D01*
X14337528Y11374496D01*
X14406564Y11373230D01*
X14415598Y11375693D01*
X14536223Y11408579D01*
X14536225Y11408580D01*
X14544882Y11410940D01*
X14667056Y11485955D01*
X14674037Y11493667D01*
X14757243Y11585593D01*
X14763265Y11592246D01*
X14798289Y11664536D01*
X14821860Y11713186D01*
X14821860Y11713187D01*
X14825775Y11721267D01*
X14849561Y11862646D01*
X14849712Y11875000D01*
X14848827Y11881177D01*
X16444391Y11881177D01*
X16445555Y11872275D01*
X16445555Y11872272D01*
X16450906Y11831355D01*
X16462980Y11739021D01*
X16466597Y11730801D01*
X16516378Y11617666D01*
X16520720Y11607797D01*
X16526497Y11600924D01*
X16526498Y11600923D01*
X16581088Y11535980D01*
X16612970Y11498052D01*
X16631143Y11485955D01*
X16710529Y11433111D01*
X16732313Y11418610D01*
X16869157Y11375858D01*
X16878129Y11375694D01*
X16878132Y11375693D01*
X16943463Y11374496D01*
X17012499Y11373230D01*
X17021533Y11375693D01*
X17142158Y11408579D01*
X17142160Y11408580D01*
X17150817Y11410940D01*
X17272991Y11485955D01*
X17279972Y11493667D01*
X17363178Y11585593D01*
X17369200Y11592246D01*
X17431710Y11721267D01*
X17434591Y11719871D01*
X17465532Y11765628D01*
X17530784Y11793603D01*
X17545795Y11794500D01*
X18338604Y11794500D01*
X18340966Y11794326D01*
X18345884Y11792638D01*
X18357506Y11793074D01*
X18357508Y11793074D01*
X18393110Y11794411D01*
X18397837Y11794500D01*
X18416075Y11794500D01*
X18420698Y11795361D01*
X18423834Y11795564D01*
X18454028Y11796698D01*
X18464716Y11801290D01*
X18470422Y11802576D01*
X18478542Y11805043D01*
X18484008Y11807152D01*
X18495447Y11809282D01*
X18505348Y11815385D01*
X18505350Y11815386D01*
X18515472Y11821626D01*
X18531853Y11830135D01*
X18545291Y11835908D01*
X18545293Y11835909D01*
X18553460Y11839418D01*
X18558180Y11843295D01*
X18560371Y11845486D01*
X18562635Y11847539D01*
X18562827Y11847327D01*
X18569879Y11852902D01*
X18577668Y11859965D01*
X18587571Y11866069D01*
X18594611Y11875327D01*
X18594613Y11875329D01*
X18603409Y11886897D01*
X18614610Y11899725D01*
X21434736Y14719851D01*
X21436534Y14721403D01*
X21441204Y14723686D01*
X21473350Y14758340D01*
X21476630Y14761745D01*
X21489520Y14774635D01*
X21492180Y14778513D01*
X21494249Y14780869D01*
X21506893Y14794500D01*
X21514802Y14803026D01*
X21519112Y14813830D01*
X21522242Y14818781D01*
X21526241Y14826270D01*
X21528612Y14831621D01*
X21535192Y14841212D01*
X21540627Y14864113D01*
X21546185Y14881686D01*
X21554904Y14903542D01*
X21555500Y14909621D01*
X21555500Y14912700D01*
X21555650Y14915773D01*
X21555934Y14915759D01*
X21556978Y14924679D01*
X21557492Y14935185D01*
X21560179Y14946508D01*
X21556651Y14972433D01*
X21555500Y14989423D01*
X21555500Y16006891D01*
X21575502Y16075012D01*
X21629158Y16121505D01*
X21648359Y16128454D01*
X21667157Y16133579D01*
X21675817Y16135940D01*
X21797991Y16210955D01*
X21828581Y16244750D01*
X21888178Y16310593D01*
X21894200Y16317246D01*
X21931933Y16395128D01*
X21952795Y16438186D01*
X21952795Y16438187D01*
X21956710Y16446267D01*
X21980496Y16587646D01*
X21980647Y16600000D01*
X21960323Y16741918D01*
X21900984Y16872428D01*
X21882598Y16893766D01*
X21813260Y16974237D01*
X21813257Y16974240D01*
X21807400Y16981037D01*
X21687095Y17059015D01*
X21549739Y17100093D01*
X21540763Y17100148D01*
X21540762Y17100148D01*
X21480555Y17100516D01*
X21406376Y17100969D01*
X21268529Y17061572D01*
X21147280Y16985070D01*
X21141337Y16978341D01*
X21134501Y16972523D01*
X21132725Y16974610D01*
X21084617Y16944328D01*
X21013623Y16944994D01*
X20967429Y16970600D01*
X20963258Y16974239D01*
X20957400Y16981037D01*
X20949869Y16985918D01*
X20949866Y16985921D01*
X20844633Y17054129D01*
X20844634Y17054129D01*
X20837095Y17059015D01*
X20699739Y17100093D01*
X20690763Y17100148D01*
X20690762Y17100148D01*
X20630555Y17100516D01*
X20556376Y17100969D01*
X20418529Y17061572D01*
X20297280Y16985070D01*
X20291338Y16978342D01*
X20291337Y16978341D01*
X20280198Y16965728D01*
X20202377Y16877612D01*
X20141447Y16747837D01*
X20140066Y16738965D01*
X20127194Y16656291D01*
X20119391Y16606177D01*
X20120555Y16597275D01*
X20120555Y16597272D01*
X20125224Y16561572D01*
X20137980Y16464021D01*
X20159725Y16414601D01*
X20175289Y16379231D01*
X20195720Y16332797D01*
X20201497Y16325924D01*
X20201498Y16325923D01*
X20274594Y16238965D01*
X20287970Y16223052D01*
X20407313Y16143610D01*
X20456077Y16128376D01*
X20515130Y16088972D01*
X20543507Y16023894D01*
X20544500Y16008110D01*
X20544500Y15311575D01*
X20524498Y15243454D01*
X20507595Y15222480D01*
X18127520Y12842405D01*
X18065208Y12808379D01*
X18038425Y12805500D01*
X17544372Y12805500D01*
X17476251Y12825502D01*
X17429671Y12879349D01*
X17404958Y12933703D01*
X17375984Y12997428D01*
X17354993Y13021789D01*
X17288260Y13099237D01*
X17288257Y13099240D01*
X17282400Y13106037D01*
X17162095Y13184015D01*
X17024739Y13225093D01*
X17015763Y13225148D01*
X17015762Y13225148D01*
X16955555Y13225516D01*
X16881376Y13225969D01*
X16743529Y13186572D01*
X16622280Y13110070D01*
X16527377Y13002612D01*
X16466447Y12872837D01*
X16462989Y12850627D01*
X16450225Y12768645D01*
X16444391Y12731177D01*
X16445555Y12722275D01*
X16445555Y12722272D01*
X16449778Y12689979D01*
X16462980Y12589021D01*
X16520720Y12457797D01*
X16549926Y12423052D01*
X16585543Y12380680D01*
X16614064Y12315664D01*
X16602908Y12245550D01*
X16583533Y12216198D01*
X16533323Y12159345D01*
X16527377Y12152612D01*
X16466447Y12022837D01*
X16457837Y11967537D01*
X16446339Y11893688D01*
X16444391Y11881177D01*
X14848827Y11881177D01*
X14829388Y12016918D01*
X14817032Y12044095D01*
X14773765Y12139254D01*
X14770049Y12147428D01*
X14709237Y12218004D01*
X14679923Y12282667D01*
X14690222Y12352912D01*
X14711275Y12384807D01*
X14757241Y12435589D01*
X14757246Y12435596D01*
X14763265Y12442246D01*
X14803806Y12525923D01*
X14821860Y12563186D01*
X14821860Y12563187D01*
X14825775Y12571267D01*
X14849561Y12712646D01*
X14849712Y12725000D01*
X14836070Y12820259D01*
X14830661Y12858032D01*
X14830660Y12858035D01*
X14829388Y12866918D01*
X14770049Y12997428D01*
X14749058Y13021789D01*
X14682325Y13099237D01*
X14682322Y13099240D01*
X14676465Y13106037D01*
X14556160Y13184015D01*
X14418804Y13225093D01*
X14409828Y13225148D01*
X14409827Y13225148D01*
X14349620Y13225516D01*
X14275441Y13225969D01*
X14137594Y13186572D01*
X14016345Y13110070D01*
X13921442Y13002612D01*
X13889916Y12935465D01*
X13862913Y12877951D01*
X13815856Y12824789D01*
X13748858Y12805500D01*
X8568549Y12805500D01*
X8500428Y12825502D01*
X8453935Y12879158D01*
X8447400Y12896876D01*
X8436372Y12935465D01*
X8436370Y12935468D01*
X8433905Y12944095D01*
X8371962Y13042269D01*
X8366779Y13050483D01*
X8366778Y13050484D01*
X8361988Y13058076D01*
X8345738Y13072428D01*
X8308217Y13105565D01*
X8270399Y13165651D01*
X8271069Y13236644D01*
X8309377Y13295459D01*
X8318516Y13303333D01*
X8358197Y13337525D01*
X8363080Y13345059D01*
X8363083Y13345062D01*
X8407651Y13413822D01*
X8461487Y13460106D01*
X8531799Y13469937D01*
X8596265Y13440193D01*
X8618754Y13414376D01*
X8646695Y13371760D01*
X8656021Y13360606D01*
X8772358Y13250399D01*
X8784005Y13241686D01*
X8922575Y13161197D01*
X8935905Y13155401D01*
X8958664Y13148508D01*
X8972763Y13148389D01*
X8976000Y13155320D01*
X8976000Y13161093D01*
X9484000Y13161093D01*
X9487973Y13147562D01*
X9493056Y13146831D01*
X9597393Y13191227D01*
X9610017Y13198428D01*
X9739082Y13293409D01*
X9749724Y13303333D01*
X9853475Y13425456D01*
X9861542Y13437552D01*
X9934418Y13580272D01*
X9939487Y13593900D01*
X9977982Y13751218D01*
X9979664Y13762270D01*
X9979880Y13765753D01*
X9980000Y13769635D01*
X9980000Y13900000D01*
X11694318Y13900000D01*
X11714956Y13743238D01*
X11775464Y13597159D01*
X11871718Y13471718D01*
X11997159Y13375464D01*
X12143238Y13314956D01*
X12300000Y13294318D01*
X12308188Y13295396D01*
X12448574Y13313878D01*
X12456762Y13314956D01*
X12602841Y13375464D01*
X12728282Y13471718D01*
X12824536Y13597159D01*
X12885044Y13743238D01*
X12905682Y13900000D01*
X12885044Y14056762D01*
X12824536Y14202841D01*
X12728282Y14328282D01*
X12602841Y14424536D01*
X12456762Y14485044D01*
X12300000Y14505682D01*
X12143238Y14485044D01*
X11997159Y14424536D01*
X11871718Y14328282D01*
X11775464Y14202841D01*
X11714956Y14056762D01*
X11694318Y13900000D01*
X9980000Y13900000D01*
X9980000Y14027885D01*
X9975525Y14043124D01*
X9974135Y14044329D01*
X9966452Y14046000D01*
X9502115Y14046000D01*
X9486876Y14041525D01*
X9485671Y14040135D01*
X9484000Y14032452D01*
X9484000Y13161093D01*
X8976000Y13161093D01*
X8976000Y14572115D01*
X9484000Y14572115D01*
X9488475Y14556876D01*
X9489865Y14555671D01*
X9497548Y14554000D01*
X9961885Y14554000D01*
X9977124Y14558475D01*
X9978329Y14559865D01*
X9980000Y14567548D01*
X9980000Y14790132D01*
X9979575Y14797436D01*
X9965701Y14916440D01*
X9962356Y14930592D01*
X9907678Y15081227D01*
X9901168Y15094226D01*
X9813303Y15228242D01*
X9803979Y15239394D01*
X9687642Y15349601D01*
X9675995Y15358314D01*
X9537425Y15438803D01*
X9524095Y15444599D01*
X9501336Y15451492D01*
X9487237Y15451611D01*
X9484000Y15444680D01*
X9484000Y14572115D01*
X8976000Y14572115D01*
X8976000Y15438907D01*
X8972027Y15452438D01*
X8966944Y15453169D01*
X8862607Y15408773D01*
X8849983Y15401572D01*
X8720918Y15306591D01*
X8710276Y15296667D01*
X8606525Y15174544D01*
X8598458Y15162448D01*
X8525582Y15019728D01*
X8517961Y14999237D01*
X8514916Y15000370D01*
X8486580Y14951474D01*
X8423423Y14919044D01*
X8352759Y14925908D01*
X8316371Y14948364D01*
X8267699Y14991349D01*
X8260971Y14997291D01*
X8252848Y15001105D01*
X8252846Y15001106D01*
X8138975Y15054568D01*
X8140481Y15057776D01*
X8095354Y15087509D01*
X8087319Y15098080D01*
X8075862Y15114928D01*
X8012812Y15177978D01*
X7998868Y15185592D01*
X7997035Y15185461D01*
X7990420Y15181210D01*
X7927261Y15118051D01*
X7922550Y15109423D01*
X7872348Y15059220D01*
X7864128Y15055114D01*
X7743902Y15000450D01*
X7641803Y14912475D01*
X7568499Y14799382D01*
X7565928Y14790785D01*
X7565927Y14790783D01*
X7551018Y14740931D01*
X7529883Y14670259D01*
X7529828Y14661283D01*
X7529828Y14661282D01*
X7529559Y14617268D01*
X7529060Y14535489D01*
X7531527Y14526858D01*
X7531527Y14526856D01*
X7560770Y14424536D01*
X7566095Y14405905D01*
X7638012Y14291924D01*
X7644741Y14285981D01*
X7644742Y14285980D01*
X7720439Y14219127D01*
X7758257Y14159041D01*
X7757587Y14088048D01*
X7719279Y14029234D01*
X7641803Y13962475D01*
X7568499Y13849382D01*
X7565928Y13840785D01*
X7565927Y13840783D01*
X7561318Y13825371D01*
X7529883Y13720259D01*
X7529060Y13585489D01*
X7531527Y13576858D01*
X7531527Y13576856D01*
X7563011Y13466695D01*
X7566095Y13455905D01*
X7638012Y13341924D01*
X7644741Y13335981D01*
X7644742Y13335980D01*
X7691783Y13294435D01*
X7729601Y13234349D01*
X7728931Y13163356D01*
X7690624Y13104542D01*
X7641803Y13062475D01*
X7568499Y12949382D01*
X7565927Y12940783D01*
X7565927Y12940782D01*
X7558957Y12917476D01*
X7520276Y12857942D01*
X7455549Y12828772D01*
X7385326Y12839226D01*
X7349145Y12864482D01*
X7293891Y12919736D01*
X7292339Y12921534D01*
X7290056Y12926204D01*
X7255402Y12958350D01*
X7251997Y12961630D01*
X7239107Y12974520D01*
X7235229Y12977180D01*
X7232873Y12979249D01*
X7219242Y12991893D01*
X7210716Y12999802D01*
X7199912Y13004112D01*
X7194961Y13007242D01*
X7187472Y13011241D01*
X7182121Y13013612D01*
X7172530Y13020192D01*
X7149629Y13025627D01*
X7132056Y13031185D01*
X7110200Y13039904D01*
X7104121Y13040500D01*
X7101042Y13040500D01*
X7097969Y13040650D01*
X7097983Y13040934D01*
X7089063Y13041978D01*
X7078557Y13042492D01*
X7067234Y13045179D01*
X7045854Y13042269D01*
X6975660Y13052901D01*
X6945455Y13072677D01*
X6939868Y13077612D01*
X6860971Y13147291D01*
X6852848Y13151105D01*
X6852846Y13151106D01*
X6767390Y13191227D01*
X6738975Y13204568D01*
X6730110Y13205948D01*
X6730108Y13205949D01*
X6667046Y13215768D01*
X6636654Y13220500D01*
X6566218Y13220500D01*
X6527257Y13214920D01*
X6475474Y13207505D01*
X6475471Y13207504D01*
X6466588Y13206232D01*
X6458420Y13202518D01*
X6458419Y13202518D01*
X6453686Y13200366D01*
X6343902Y13150450D01*
X6241803Y13062475D01*
X6168499Y12949382D01*
X6165928Y12940785D01*
X6165927Y12940783D01*
X6147137Y12877951D01*
X6129883Y12820259D01*
X6129828Y12811283D01*
X6129828Y12811282D01*
X6129568Y12768645D01*
X6129060Y12685489D01*
X6131527Y12676858D01*
X6131527Y12676856D01*
X6163628Y12564536D01*
X6166095Y12555905D01*
X6212622Y12482164D01*
X6232713Y12450323D01*
X6238012Y12441924D01*
X6244741Y12435981D01*
X6244742Y12435980D01*
X6291783Y12394435D01*
X6329601Y12334349D01*
X6328931Y12263356D01*
X6290624Y12204542D01*
X6241803Y12162475D01*
X6168499Y12049382D01*
X6165928Y12040785D01*
X6165927Y12040783D01*
X6157907Y12013965D01*
X6129883Y11920259D01*
X6129828Y11911283D01*
X6129828Y11911282D01*
X6129679Y11886897D01*
X6129060Y11785489D01*
X6131527Y11776858D01*
X6131527Y11776856D01*
X6147992Y11719246D01*
X6166095Y11655905D01*
X6238012Y11541924D01*
X6244741Y11535981D01*
X6244742Y11535980D01*
X6291783Y11494435D01*
X6329601Y11434349D01*
X6328931Y11363356D01*
X6290624Y11304542D01*
X6241803Y11262475D01*
X6236920Y11254941D01*
X6236917Y11254938D01*
X6192646Y11186636D01*
X6138810Y11140352D01*
X6068498Y11130521D01*
X6004032Y11160265D01*
X5981542Y11186083D01*
X5960364Y11218384D01*
X5949677Y11234685D01*
X5822628Y11355040D01*
X5671298Y11442939D01*
X5503807Y11493667D01*
X5329138Y11504503D01*
X5321922Y11503263D01*
X5321920Y11503263D01*
X5163875Y11476106D01*
X5163873Y11476105D01*
X5156660Y11474866D01*
X5072985Y11439262D01*
X5006424Y11410940D01*
X4995627Y11406346D01*
X4989735Y11402010D01*
X4976806Y11392495D01*
X4854676Y11302617D01*
X4849937Y11297039D01*
X4849934Y11297036D01*
X4746107Y11174824D01*
X4746104Y11174820D01*
X4741368Y11169245D01*
X4720879Y11129120D01*
X4665292Y11020259D01*
X4661781Y11013384D01*
X4660042Y11006279D01*
X4660041Y11006275D01*
X4649926Y10964937D01*
X4620185Y10843394D01*
X4619838Y10837794D01*
X4619837Y10837790D01*
X4619620Y10834291D01*
X4619500Y10832352D01*
X4619500Y9806178D01*
X2654154Y9806178D01*
X2651516Y9816022D01*
X2651516Y9818532D01*
X2650239Y9824953D01*
X2642556Y9883310D01*
X2641478Y9891499D01*
X2606161Y9976762D01*
X2584835Y10004555D01*
X2555005Y10043429D01*
X2549979Y10049979D01*
X2519790Y10073144D01*
X2483315Y10101133D01*
X2483313Y10101134D01*
X2476762Y10106161D01*
X2402728Y10136827D01*
X2399129Y10138318D01*
X2399126Y10138319D01*
X2391499Y10141478D01*
X2324953Y10150239D01*
X2318532Y10151516D01*
X2316022Y10151516D01*
X2300000Y10155809D01*
X2284483Y10151651D01*
X2280372Y10151786D01*
X2027676Y10168349D01*
X2011336Y10170500D01*
X1751769Y10222131D01*
X1735848Y10226397D01*
X1485241Y10311467D01*
X1470015Y10317774D01*
X1232658Y10434825D01*
X1218384Y10443066D01*
X998337Y10590097D01*
X985261Y10600130D01*
X786283Y10774629D01*
X774629Y10786283D01*
X600130Y10985261D01*
X590097Y10998337D01*
X443066Y11218384D01*
X434825Y11232658D01*
X317774Y11470015D01*
X311467Y11485241D01*
X226397Y11735848D01*
X222131Y11751769D01*
X170500Y12011336D01*
X168349Y12027676D01*
X152902Y12263356D01*
X151040Y12291761D01*
X151040Y12300000D01*
X944341Y12300000D01*
X964937Y12064592D01*
X966361Y12059278D01*
X966361Y12059277D01*
X1024233Y11843295D01*
X1026097Y11836337D01*
X1028419Y11831357D01*
X1028420Y11831355D01*
X1112904Y11650181D01*
X1125965Y11622171D01*
X1261505Y11428599D01*
X1428599Y11261505D01*
X1622171Y11125965D01*
X1627149Y11123644D01*
X1627152Y11123642D01*
X1718111Y11081227D01*
X1836337Y11026097D01*
X1841645Y11024675D01*
X1841647Y11024674D01*
X2059277Y10966361D01*
X2064592Y10964937D01*
X2167682Y10955918D01*
X2238310Y10949738D01*
X2238317Y10949738D01*
X2241034Y10949500D01*
X2358966Y10949500D01*
X2361683Y10949738D01*
X2361690Y10949738D01*
X2432318Y10955918D01*
X2535408Y10964937D01*
X2540723Y10966361D01*
X2758353Y11024674D01*
X2758355Y11024675D01*
X2763663Y11026097D01*
X2881889Y11081227D01*
X2972848Y11123642D01*
X2972851Y11123644D01*
X2977829Y11125965D01*
X3171401Y11261505D01*
X3338495Y11428599D01*
X3341655Y11433111D01*
X3470878Y11617661D01*
X3470881Y11617666D01*
X3474035Y11622170D01*
X3476358Y11627152D01*
X3476361Y11627157D01*
X3571580Y11831355D01*
X3571581Y11831356D01*
X3573903Y11836337D01*
X3575768Y11843295D01*
X3633639Y12059277D01*
X3633639Y12059278D01*
X3635063Y12064592D01*
X3655659Y12300000D01*
X3635063Y12535408D01*
X3629311Y12556876D01*
X3575326Y12758353D01*
X3575325Y12758355D01*
X3573903Y12763663D01*
X3564955Y12782852D01*
X3476358Y12972848D01*
X3476356Y12972851D01*
X3474035Y12977829D01*
X3338495Y13171401D01*
X3171401Y13338495D01*
X2977829Y13474035D01*
X2972851Y13476356D01*
X2972848Y13476358D01*
X2768645Y13571580D01*
X2768643Y13571581D01*
X2763663Y13573903D01*
X2758355Y13575325D01*
X2758353Y13575326D01*
X2540723Y13633639D01*
X2540722Y13633639D01*
X2535408Y13635063D01*
X2432318Y13644082D01*
X2361690Y13650262D01*
X2361683Y13650262D01*
X2358966Y13650500D01*
X2241034Y13650500D01*
X2238317Y13650262D01*
X2238310Y13650262D01*
X2167682Y13644082D01*
X2064592Y13635063D01*
X2059278Y13633639D01*
X2059277Y13633639D01*
X1841647Y13575326D01*
X1841645Y13575325D01*
X1836337Y13573903D01*
X1831357Y13571581D01*
X1831355Y13571580D01*
X1627152Y13476358D01*
X1627149Y13476356D01*
X1622171Y13474035D01*
X1428599Y13338495D01*
X1261505Y13171401D01*
X1258348Y13166893D01*
X1258346Y13166890D01*
X1135812Y12991893D01*
X1125965Y12977830D01*
X1123642Y12972848D01*
X1123639Y12972843D01*
X1045606Y12805500D01*
X1026097Y12763663D01*
X1024675Y12758355D01*
X1024674Y12758353D01*
X970689Y12556876D01*
X964937Y12535408D01*
X944341Y12300000D01*
X151040Y12300000D01*
X151040Y12308241D01*
X152857Y12335955D01*
X167336Y12556876D01*
X168349Y12572324D01*
X170500Y12588664D01*
X222131Y12848231D01*
X226397Y12864152D01*
X311467Y13114759D01*
X317774Y13129985D01*
X434825Y13367342D01*
X443066Y13381616D01*
X590097Y13601663D01*
X600130Y13614739D01*
X771254Y13809868D01*
X4620000Y13809868D01*
X4620425Y13802564D01*
X4634299Y13683560D01*
X4637644Y13669408D01*
X4692322Y13518773D01*
X4698832Y13505774D01*
X4786697Y13371758D01*
X4796021Y13360606D01*
X4912358Y13250399D01*
X4924005Y13241686D01*
X5062575Y13161197D01*
X5075905Y13155401D01*
X5098664Y13148508D01*
X5112763Y13148389D01*
X5116000Y13155320D01*
X5116000Y13161093D01*
X5624000Y13161093D01*
X5627973Y13147562D01*
X5633056Y13146831D01*
X5737393Y13191227D01*
X5750017Y13198428D01*
X5879082Y13293409D01*
X5889724Y13303333D01*
X5993475Y13425456D01*
X6001542Y13437552D01*
X6074418Y13580272D01*
X6079487Y13593900D01*
X6117982Y13751218D01*
X6119664Y13762270D01*
X6119880Y13765753D01*
X6120000Y13769635D01*
X6120000Y14116765D01*
X6140002Y14184886D01*
X6193658Y14231379D01*
X6263932Y14241483D01*
X6324677Y14213394D01*
X6324799Y14213579D01*
X6326042Y14212762D01*
X6329408Y14211206D01*
X6339029Y14202709D01*
X6347152Y14198895D01*
X6347154Y14198894D01*
X6405587Y14171460D01*
X6461025Y14145432D01*
X6469890Y14144052D01*
X6469892Y14144051D01*
X6532954Y14134232D01*
X6563346Y14129500D01*
X6633782Y14129500D01*
X6672743Y14135080D01*
X6724526Y14142495D01*
X6724529Y14142496D01*
X6733412Y14143768D01*
X6745461Y14149246D01*
X6823846Y14184886D01*
X6856098Y14199550D01*
X6958197Y14287525D01*
X7031501Y14400618D01*
X7035664Y14414536D01*
X7067544Y14521138D01*
X7070117Y14529741D01*
X7070293Y14558475D01*
X7070648Y14616685D01*
X7070940Y14664511D01*
X7066839Y14678862D01*
X7036372Y14785464D01*
X7036371Y14785466D01*
X7033905Y14794095D01*
X6961988Y14908076D01*
X6954698Y14914515D01*
X6867699Y14991349D01*
X6860971Y14997291D01*
X6852848Y15001105D01*
X6852846Y15001106D01*
X6738975Y15054568D01*
X6740481Y15057776D01*
X6695354Y15087509D01*
X6687319Y15098080D01*
X6675862Y15114928D01*
X6612812Y15177978D01*
X6598868Y15185592D01*
X6597035Y15185461D01*
X6590420Y15181210D01*
X6527261Y15118051D01*
X6522550Y15109423D01*
X6472348Y15059220D01*
X6464128Y15055114D01*
X6343902Y15000450D01*
X6278954Y14944487D01*
X6214294Y14915174D01*
X6144049Y14925473D01*
X6090522Y14972114D01*
X6078269Y14996950D01*
X6047678Y15081227D01*
X6041168Y15094226D01*
X5953303Y15228242D01*
X5943979Y15239394D01*
X5827642Y15349601D01*
X5815995Y15358314D01*
X5677425Y15438803D01*
X5664095Y15444599D01*
X5641336Y15451492D01*
X5627237Y15451611D01*
X5624000Y15444680D01*
X5624000Y13161093D01*
X5116000Y13161093D01*
X5116000Y14027885D01*
X5111525Y14043124D01*
X5110135Y14044329D01*
X5102452Y14046000D01*
X4638115Y14046000D01*
X4622876Y14041525D01*
X4621671Y14040135D01*
X4620000Y14032452D01*
X4620000Y13809868D01*
X771254Y13809868D01*
X774629Y13813717D01*
X786283Y13825371D01*
X985261Y13999870D01*
X998337Y14009903D01*
X1218384Y14156934D01*
X1232658Y14165175D01*
X1470015Y14282226D01*
X1485241Y14288533D01*
X1735848Y14373603D01*
X1751769Y14377869D01*
X2011336Y14429500D01*
X2027676Y14431651D01*
X2280372Y14448214D01*
X2284483Y14448349D01*
X2300000Y14444191D01*
X2316022Y14448484D01*
X2318532Y14448484D01*
X2324953Y14449761D01*
X2391499Y14458522D01*
X2399126Y14461681D01*
X2399129Y14461682D01*
X2447900Y14481884D01*
X2476762Y14493839D01*
X2512339Y14521138D01*
X2543429Y14544995D01*
X2549979Y14550021D01*
X2566933Y14572115D01*
X4620000Y14572115D01*
X4624475Y14556876D01*
X4625865Y14555671D01*
X4633548Y14554000D01*
X5097885Y14554000D01*
X5113124Y14558475D01*
X5114329Y14559865D01*
X5116000Y14567548D01*
X5116000Y15438907D01*
X5112027Y15452438D01*
X5106944Y15453169D01*
X5002607Y15408773D01*
X4989983Y15401572D01*
X4860918Y15306591D01*
X4850276Y15296667D01*
X4746525Y15174544D01*
X4738458Y15162448D01*
X4665582Y15019728D01*
X4660513Y15006100D01*
X4622018Y14848782D01*
X4620336Y14837730D01*
X4620120Y14834247D01*
X4620000Y14830365D01*
X4620000Y14572115D01*
X2566933Y14572115D01*
X2574108Y14581466D01*
X2601133Y14616685D01*
X2601134Y14616687D01*
X2606161Y14623238D01*
X2638244Y14700693D01*
X2638318Y14700871D01*
X2638319Y14700874D01*
X2641478Y14708501D01*
X2650239Y14775047D01*
X2651516Y14781468D01*
X2651516Y14783978D01*
X2655809Y14800000D01*
X2651516Y14816022D01*
X2651516Y14828685D01*
X2650500Y14836402D01*
X2650500Y15546648D01*
X6146571Y15546648D01*
X6154730Y15484254D01*
X6159841Y15472672D01*
X6168560Y15477770D01*
X6227978Y15537188D01*
X6234356Y15548868D01*
X6964408Y15548868D01*
X6964539Y15547035D01*
X6968790Y15540420D01*
X7029557Y15479653D01*
X7041258Y15473264D01*
X7044868Y15481693D01*
X7053684Y15534097D01*
X7054551Y15543753D01*
X7054567Y15545128D01*
X7054468Y15546648D01*
X7546571Y15546648D01*
X7554730Y15484254D01*
X7559841Y15472672D01*
X7568560Y15477770D01*
X7627978Y15537188D01*
X7634356Y15548868D01*
X8364408Y15548868D01*
X8364539Y15547035D01*
X8368790Y15540420D01*
X8429557Y15479653D01*
X8441258Y15473264D01*
X8444868Y15481693D01*
X8453684Y15534097D01*
X8454551Y15543753D01*
X8454567Y15545128D01*
X8453935Y15554829D01*
X8445242Y15615529D01*
X8439895Y15627256D01*
X8431469Y15622259D01*
X8372022Y15562812D01*
X8364408Y15548868D01*
X7634356Y15548868D01*
X7635592Y15551132D01*
X7635461Y15552965D01*
X7631210Y15559580D01*
X7570321Y15620469D01*
X7558813Y15626753D01*
X7555131Y15618010D01*
X7546788Y15564427D01*
X7546571Y15546648D01*
X7054468Y15546648D01*
X7053935Y15554829D01*
X7045242Y15615529D01*
X7039895Y15627256D01*
X7031469Y15622259D01*
X6972022Y15562812D01*
X6964408Y15548868D01*
X6234356Y15548868D01*
X6235592Y15551132D01*
X6235461Y15552965D01*
X6231210Y15559580D01*
X6170321Y15620469D01*
X6158813Y15626753D01*
X6155131Y15618010D01*
X6146788Y15564427D01*
X6146571Y15546648D01*
X2650500Y15546648D01*
X2650500Y15991301D01*
X6520850Y15991301D01*
X6521148Y15989117D01*
X6523483Y15985727D01*
X6587188Y15922022D01*
X6601132Y15914408D01*
X6602965Y15914539D01*
X6609580Y15918790D01*
X6672264Y15981474D01*
X6677630Y15991301D01*
X7920850Y15991301D01*
X7921148Y15989117D01*
X7923483Y15985727D01*
X7987188Y15922022D01*
X8001132Y15914408D01*
X8002965Y15914539D01*
X8009580Y15918790D01*
X8072264Y15981474D01*
X8079024Y15993854D01*
X8077460Y15995943D01*
X8075006Y15997179D01*
X8058223Y15999688D01*
X7947278Y16000366D01*
X7931836Y15998250D01*
X7920850Y15991301D01*
X6677630Y15991301D01*
X6679024Y15993854D01*
X6677460Y15995943D01*
X6675006Y15997179D01*
X6658223Y15999688D01*
X6547278Y16000366D01*
X6531836Y15998250D01*
X6520850Y15991301D01*
X2650500Y15991301D01*
X2650500Y21263598D01*
X2651516Y21271315D01*
X2651516Y21283978D01*
X2655809Y21300000D01*
X2652170Y21313583D01*
X2652308Y21316043D01*
X2665195Y21430420D01*
X2671474Y21457928D01*
X2710132Y21568407D01*
X2722369Y21593820D01*
X2784651Y21692943D01*
X2802241Y21714998D01*
X2885002Y21797759D01*
X2907057Y21815349D01*
X3006180Y21877631D01*
X3031593Y21889868D01*
X3142072Y21928526D01*
X3169580Y21934805D01*
X3283957Y21947692D01*
X3286417Y21947830D01*
X3300000Y21944191D01*
X3316022Y21948484D01*
X3328685Y21948484D01*
X3336402Y21949500D01*
X9353215Y21949500D01*
X9421336Y21929498D01*
X9467829Y21875842D01*
X9478127Y21840023D01*
X9483718Y21797759D01*
X9488453Y21761960D01*
X9489337Y21758448D01*
X9489338Y21758444D01*
X9524785Y21617661D01*
X9568885Y21442508D01*
X9570169Y21439115D01*
X9570171Y21439109D01*
X9684200Y21137806D01*
X9684203Y21137798D01*
X9685485Y21134412D01*
X9687150Y21131190D01*
X9834799Y20845451D01*
X9836710Y20841752D01*
X10020557Y20568404D01*
X10022908Y20565654D01*
X10022909Y20565652D01*
X10064283Y20517246D01*
X10234592Y20317988D01*
X10237244Y20315525D01*
X10237249Y20315520D01*
X10320294Y20238399D01*
X10475978Y20093820D01*
X10741521Y19898869D01*
X10797917Y19866718D01*
X11024553Y19737513D01*
X11024558Y19737510D01*
X11027704Y19735717D01*
X11330735Y19606525D01*
X11504803Y19554986D01*
X11643126Y19514031D01*
X11643134Y19514029D01*
X11646603Y19513002D01*
X11971124Y19456389D01*
X12300000Y19437434D01*
X12628876Y19456389D01*
X12953397Y19513002D01*
X12956866Y19514029D01*
X12956874Y19514031D01*
X13095197Y19554986D01*
X13269265Y19606525D01*
X13572296Y19735717D01*
X13575442Y19737510D01*
X13575447Y19737513D01*
X13669994Y19791414D01*
X15650001Y19791414D01*
X15651209Y19779154D01*
X15656282Y19753648D01*
X15665599Y19731152D01*
X15684963Y19702172D01*
X15702172Y19684963D01*
X15731156Y19665596D01*
X15753642Y19656282D01*
X15779158Y19651207D01*
X15791412Y19650000D01*
X16027885Y19650000D01*
X16043124Y19654475D01*
X16044329Y19655865D01*
X16046000Y19663548D01*
X16046000Y20027885D01*
X16041525Y20043124D01*
X16040135Y20044329D01*
X16032452Y20046000D01*
X15668116Y20046000D01*
X15652877Y20041525D01*
X15651672Y20040135D01*
X15650001Y20032452D01*
X15650001Y19791414D01*
X13669994Y19791414D01*
X13802083Y19866718D01*
X13858479Y19898869D01*
X14124022Y20093820D01*
X14279706Y20238399D01*
X14362751Y20315520D01*
X14362756Y20315525D01*
X14365408Y20317988D01*
X14535718Y20517246D01*
X14577091Y20565652D01*
X14577092Y20565654D01*
X14579443Y20568404D01*
X14581939Y20572115D01*
X15650000Y20572115D01*
X15654475Y20556876D01*
X15655865Y20555671D01*
X15663548Y20554000D01*
X16027885Y20554000D01*
X16043124Y20558475D01*
X16044329Y20559865D01*
X16046000Y20567548D01*
X16046000Y20931884D01*
X16041525Y20947123D01*
X16040135Y20948328D01*
X16032452Y20949999D01*
X15791414Y20949999D01*
X15779154Y20948791D01*
X15753648Y20943718D01*
X15731152Y20934401D01*
X15702172Y20915037D01*
X15684963Y20897828D01*
X15665596Y20868844D01*
X15656282Y20846358D01*
X15651207Y20820842D01*
X15650000Y20808588D01*
X15650000Y20572115D01*
X14581939Y20572115D01*
X14763290Y20841752D01*
X14765202Y20845451D01*
X14912850Y21131190D01*
X14914515Y21134412D01*
X14915797Y21137798D01*
X14915800Y21137806D01*
X15029829Y21439109D01*
X15029831Y21439115D01*
X15031115Y21442508D01*
X15075215Y21617661D01*
X15110662Y21758444D01*
X15110663Y21758448D01*
X15111547Y21761960D01*
X15116283Y21797759D01*
X15121873Y21840023D01*
X15150635Y21904933D01*
X15209925Y21943988D01*
X15246785Y21949500D01*
X29763598Y21949500D01*
X29771315Y21948484D01*
X29783978Y21948484D01*
X29800000Y21944191D01*
X29816022Y21948484D01*
X29818532Y21948484D01*
X29824953Y21949761D01*
X29891499Y21958522D01*
X29899126Y21961681D01*
X29899129Y21961682D01*
X29934130Y21976180D01*
X29976762Y21993839D01*
X30025070Y22030907D01*
X30043429Y22044995D01*
X30049979Y22050021D01*
X30106161Y22123238D01*
X30130535Y22182082D01*
X30138318Y22200871D01*
X30138319Y22200874D01*
X30141478Y22208501D01*
X30150239Y22275047D01*
X30151516Y22281468D01*
X30151516Y22283978D01*
X30155809Y22300000D01*
X30944341Y22300000D01*
X30964937Y22064592D01*
X30966361Y22059278D01*
X30966361Y22059277D01*
X31015034Y21877627D01*
X31026097Y21836337D01*
X31028419Y21831357D01*
X31028420Y21831355D01*
X31082679Y21714998D01*
X31125965Y21622171D01*
X31261505Y21428599D01*
X31428599Y21261505D01*
X31622171Y21125965D01*
X31627149Y21123644D01*
X31627152Y21123642D01*
X31831355Y21028420D01*
X31836337Y21026097D01*
X31841645Y21024675D01*
X31841647Y21024674D01*
X32059277Y20966361D01*
X32064592Y20964937D01*
X32167152Y20955964D01*
X32238310Y20949738D01*
X32238317Y20949738D01*
X32241034Y20949500D01*
X32358966Y20949500D01*
X32361683Y20949738D01*
X32361690Y20949738D01*
X32432848Y20955964D01*
X32535408Y20964937D01*
X32540723Y20966361D01*
X32758353Y21024674D01*
X32758355Y21024675D01*
X32763663Y21026097D01*
X32768645Y21028420D01*
X32972848Y21123642D01*
X32972851Y21123644D01*
X32977829Y21125965D01*
X33171401Y21261505D01*
X33338495Y21428599D01*
X33341655Y21433111D01*
X33470878Y21617661D01*
X33470881Y21617666D01*
X33474035Y21622170D01*
X33476358Y21627152D01*
X33476361Y21627157D01*
X33571580Y21831355D01*
X33571581Y21831356D01*
X33573903Y21836337D01*
X33584967Y21877627D01*
X33633639Y22059277D01*
X33633639Y22059278D01*
X33635063Y22064592D01*
X33655659Y22300000D01*
X33635063Y22535408D01*
X33620793Y22588664D01*
X33575326Y22758353D01*
X33575325Y22758355D01*
X33573903Y22763663D01*
X33534468Y22848231D01*
X33476358Y22972848D01*
X33476356Y22972851D01*
X33474035Y22977829D01*
X33338495Y23171401D01*
X33171401Y23338495D01*
X32977829Y23474035D01*
X32972851Y23476356D01*
X32972848Y23476358D01*
X32768645Y23571580D01*
X32768643Y23571581D01*
X32763663Y23573903D01*
X32758355Y23575325D01*
X32758353Y23575326D01*
X32540723Y23633639D01*
X32540722Y23633639D01*
X32535408Y23635063D01*
X32432318Y23644082D01*
X32361690Y23650262D01*
X32361683Y23650262D01*
X32358966Y23650500D01*
X32241034Y23650500D01*
X32238317Y23650262D01*
X32238310Y23650262D01*
X32167682Y23644082D01*
X32064592Y23635063D01*
X32059278Y23633639D01*
X32059277Y23633639D01*
X31841647Y23575326D01*
X31841645Y23575325D01*
X31836337Y23573903D01*
X31831357Y23571581D01*
X31831355Y23571580D01*
X31627152Y23476358D01*
X31627149Y23476356D01*
X31622171Y23474035D01*
X31428599Y23338495D01*
X31261505Y23171401D01*
X31258348Y23166893D01*
X31258346Y23166890D01*
X31129122Y22982339D01*
X31125965Y22977830D01*
X31123642Y22972848D01*
X31123639Y22972843D01*
X31083850Y22887515D01*
X31026097Y22763663D01*
X31024675Y22758355D01*
X31024674Y22758353D01*
X30979207Y22588664D01*
X30964937Y22535408D01*
X30944341Y22300000D01*
X30155809Y22300000D01*
X30151651Y22315517D01*
X30151786Y22319628D01*
X30168349Y22572324D01*
X30170500Y22588664D01*
X30222131Y22848231D01*
X30226397Y22864152D01*
X30311467Y23114759D01*
X30317774Y23129985D01*
X30434825Y23367342D01*
X30443066Y23381616D01*
X30590097Y23601663D01*
X30600130Y23614739D01*
X30774629Y23813717D01*
X30786283Y23825371D01*
X30985261Y23999870D01*
X30998337Y24009903D01*
X31218384Y24156934D01*
X31232658Y24165175D01*
X31470015Y24282226D01*
X31485241Y24288533D01*
X31735848Y24373603D01*
X31751769Y24377869D01*
X32011336Y24429500D01*
X32027676Y24431651D01*
X32185383Y24441988D01*
X32291761Y24448960D01*
X32308239Y24448960D01*
X32414617Y24441988D01*
G37*
%TD.AperFunction*%
%TD*%
M02*
