%TF.GenerationSoftware,KiCad,Pcbnew,(5.1.12-1-10_14)*%
%TF.CreationDate,2022-09-08T10:24:56+08:00*%
%TF.ProjectId,0102-TILEDAP,30313032-2d54-4494-9c45-4441502e6b69,rev?*%
%TF.SameCoordinates,Original*%
%TF.FileFunction,Copper,L3,Inr*%
%TF.FilePolarity,Positive*%
%FSLAX46Y46*%
G04 Gerber Fmt 4.6, Leading zero omitted, Abs format (unit mm)*
G04 Created by KiCad (PCBNEW (5.1.12-1-10_14)) date 2022-09-08 10:24:56*
%MOMM*%
%LPD*%
G01*
G04 APERTURE LIST*
%TA.AperFunction,ComponentPad*%
%ADD10O,1.700000X1.700000*%
%TD*%
%TA.AperFunction,ComponentPad*%
%ADD11R,1.700000X1.700000*%
%TD*%
%TA.AperFunction,ComponentPad*%
%ADD12O,1.000000X1.000000*%
%TD*%
%TA.AperFunction,ComponentPad*%
%ADD13R,1.000000X1.000000*%
%TD*%
%TA.AperFunction,ComponentPad*%
%ADD14C,0.700000*%
%TD*%
%TA.AperFunction,ComponentPad*%
%ADD15O,1.200000X2.100000*%
%TD*%
%TA.AperFunction,ViaPad*%
%ADD16C,1.000000*%
%TD*%
%TA.AperFunction,ViaPad*%
%ADD17C,0.500000*%
%TD*%
%TA.AperFunction,ViaPad*%
%ADD18C,0.800000*%
%TD*%
%TA.AperFunction,ViaPad*%
%ADD19C,0.900000*%
%TD*%
%TA.AperFunction,ViaPad*%
%ADD20C,0.700000*%
%TD*%
%TA.AperFunction,Conductor*%
%ADD21C,0.500000*%
%TD*%
%TA.AperFunction,Conductor*%
%ADD22C,0.350000*%
%TD*%
%TA.AperFunction,Conductor*%
%ADD23C,0.200000*%
%TD*%
%TA.AperFunction,Conductor*%
%ADD24C,0.254000*%
%TD*%
%ADD25C,0.350000*%
%ADD26C,0.300000*%
%ADD27O,0.600000X1.500000*%
G04 APERTURE END LIST*
D10*
%TO.N,GND*%
%TO.C,J3*%
X36082000Y7220000D03*
%TO.N,/TGT_NRESET*%
X33542000Y7220000D03*
%TO.N,/TGT_TX*%
X36082000Y9760000D03*
%TO.N,/TGT_RX*%
X33542000Y9760000D03*
%TO.N,GND*%
X36082000Y12300000D03*
X33542000Y12300000D03*
%TO.N,+3V3*%
X36082000Y14840000D03*
%TO.N,/TGT_SWCLK*%
X33542000Y14840000D03*
%TO.N,VBUS*%
X36082000Y17380000D03*
D11*
%TO.N,/TGT_SWDIO*%
X33542000Y17380000D03*
%TD*%
D12*
%TO.N,VBUS*%
%TO.C,J2*%
X8200000Y19800000D03*
%TO.N,/IF_SWDIO*%
X6930000Y19800000D03*
%TO.N,/IF_SWCLK*%
X5660000Y19800000D03*
D13*
%TO.N,GND*%
X4390000Y19800000D03*
%TD*%
D14*
%TO.N,GND*%
%TO.C,J1*%
X6600000Y15550000D03*
%TO.N,VBUS*%
X6600000Y14600000D03*
%TO.N,/D-*%
X6600000Y12750000D03*
%TO.N,/D+*%
X6600000Y11850000D03*
%TO.N,Net-(J1-PadB5)*%
X6600000Y10950000D03*
%TO.N,VBUS*%
X6600000Y10000000D03*
%TO.N,GND*%
X6600000Y9050000D03*
X8000000Y9050000D03*
%TO.N,VBUS*%
X8000000Y10000000D03*
%TO.N,/D-*%
X8000000Y11850000D03*
%TO.N,/D+*%
X8000000Y12750000D03*
%TO.N,Net-(J1-PadA5)*%
X8000000Y13650000D03*
%TO.N,VBUS*%
X8000000Y14600000D03*
%TO.N,GND*%
X8000000Y15550000D03*
D15*
%TO.N,N/C*%
X5370000Y10300000D03*
%TO.N,Net-(J1-PadS1)*%
X9230000Y10300000D03*
X5370000Y14300000D03*
X9230000Y14300000D03*
%TD*%
D16*
%TO.N,VBUS*%
X12350000Y9050000D03*
D17*
%TO.N,GND*%
X20600000Y13000000D03*
X22000000Y13000000D03*
X22000000Y11600000D03*
X20600000Y11600000D03*
X14600000Y13100000D03*
X14600000Y13800000D03*
X10800000Y9800000D03*
X11550000Y9800000D03*
X10800000Y14800000D03*
X15300000Y17300000D03*
X15300000Y16550000D03*
X12300000Y16550000D03*
X12300000Y17300000D03*
X15300000Y7800000D03*
X15300000Y7050000D03*
X12300000Y7800000D03*
X12300000Y7050000D03*
X10800000Y15800000D03*
X7300000Y21300000D03*
X19800000Y21300000D03*
X24800000Y21300000D03*
X27300000Y21300000D03*
X29800000Y21300000D03*
X34800000Y21300000D03*
X37300000Y21300000D03*
X39800000Y21300000D03*
X41300000Y19800000D03*
X41300000Y17300000D03*
X41300000Y7300000D03*
X41300000Y4800000D03*
X39800000Y3300000D03*
X37300000Y3300000D03*
X34800000Y3300000D03*
X29800000Y3300000D03*
X27300000Y3300000D03*
X24800000Y3300000D03*
X22300000Y3300000D03*
X19800000Y3300000D03*
X17300000Y3300000D03*
X7300000Y3300000D03*
X4800000Y3300000D03*
X3300000Y4800000D03*
X3300000Y7300000D03*
X3300000Y9800000D03*
X3300000Y14800000D03*
X3300000Y17300000D03*
X3300000Y19800000D03*
X4800000Y21300000D03*
X5800000Y17300000D03*
X8800000Y7300000D03*
X5550000Y6050000D03*
X6550000Y6050000D03*
X7550000Y6050000D03*
X5550000Y5050000D03*
X6550000Y5050000D03*
X7550000Y5050000D03*
X26550000Y19550000D03*
X27550000Y19550000D03*
X28550000Y19550000D03*
X26550000Y18550000D03*
X27550000Y18550000D03*
X28550000Y18550000D03*
X38050000Y19300000D03*
X39050000Y19300000D03*
X38050000Y18300000D03*
X39050000Y18300000D03*
X30550000Y11800000D03*
X31550000Y11800000D03*
X30550000Y12800000D03*
X31550000Y12800000D03*
X30550000Y9800000D03*
X31550000Y9800000D03*
X30550000Y8800000D03*
X31550000Y8800000D03*
X29050000Y14050000D03*
X29800000Y14800000D03*
X25050000Y15800000D03*
X26050000Y15800000D03*
X22300000Y7550000D03*
X24050000Y7550000D03*
X24800000Y6550000D03*
X24300000Y15300000D03*
X16050000Y7800000D03*
X16050000Y7050000D03*
X18050000Y8300000D03*
X20800000Y4300000D03*
X22050000Y4800000D03*
X23300000Y4800000D03*
X27800000Y6550000D03*
X27800000Y9550000D03*
X19050000Y18800000D03*
X21300000Y20800000D03*
X21300000Y20050000D03*
X28800000Y6550000D03*
X27800000Y5550000D03*
X28800000Y5550000D03*
X29800000Y6550000D03*
X29800000Y5550000D03*
X31550000Y13800000D03*
D18*
%TO.N,+3V3*%
X19300000Y16800000D03*
X24300000Y16800000D03*
D19*
X12300000Y15050000D03*
D18*
X18050000Y9300000D03*
D20*
X27500000Y16100000D03*
X27800000Y8550000D03*
D18*
X15050000Y19300000D03*
X24200000Y5900000D03*
D20*
%TO.N,/TGT_USB_D+*%
X12600000Y12725000D03*
X20625000Y16600000D03*
%TO.N,/TGT_USB_D-*%
X12600000Y11875000D03*
X21475000Y16600000D03*
%TO.N,/TGT_NRESET*%
X27800000Y12800000D03*
%TO.N,/IF_NRESET*%
X25050000Y7550000D03*
X20900000Y8200000D03*
%TO.N,/IF_SWDIO*%
X19300000Y17950000D03*
%TO.N,/IF_SWCLK*%
X17600000Y15800000D03*
%TD*%
D21*
%TO.N,VBUS*%
X8200000Y19800000D02*
X8200000Y16450000D01*
X12350000Y9050000D02*
X10050000Y9050000D01*
%TO.N,+3V3*%
X19300000Y16800000D02*
X17100000Y16800000D01*
X15350000Y15050000D02*
X12300000Y15050000D01*
X17100000Y16800000D02*
X15350000Y15050000D01*
X19300000Y16800000D02*
X20300000Y15800000D01*
X23300000Y15800000D02*
X24300000Y16800000D01*
X20300000Y15800000D02*
X23300000Y15800000D01*
D22*
X15050000Y19300000D02*
X13950000Y18200000D01*
X12348998Y18200000D02*
X11550000Y17401002D01*
X13950000Y18200000D02*
X12348998Y18200000D01*
X11550000Y15800000D02*
X12300000Y15050000D01*
X11550000Y17401002D02*
X11550000Y15800000D01*
D21*
X26800000Y16800000D02*
X27500000Y16100000D01*
X24300000Y16800000D02*
X26800000Y16800000D01*
X34822000Y16100000D02*
X36082000Y14840000D01*
X27500000Y16100000D02*
X34822000Y16100000D01*
X21450000Y5900000D02*
X24200000Y5900000D01*
X18050000Y9300000D02*
X21450000Y5900000D01*
X12300000Y14135002D02*
X12300000Y15050000D01*
X17135002Y9300000D02*
X12300000Y14135002D01*
X18050000Y9300000D02*
X17135002Y9300000D01*
D23*
X25150000Y5900000D02*
X27800000Y8550000D01*
X24200000Y5900000D02*
X25150000Y5900000D01*
%TD*%
D24*
%TO.N,VBUS*%
X8246119Y18161338D02*
X8285215Y18135215D01*
X8311338Y18096119D01*
X8323000Y18037491D01*
X8323000Y17300000D01*
X8324086Y17283423D01*
X8341123Y17154013D01*
X8349704Y17121989D01*
X8399654Y17001399D01*
X8416232Y16972687D01*
X8495692Y16869134D01*
X8519134Y16845692D01*
X8622687Y16766232D01*
X8651399Y16749654D01*
X8771989Y16699704D01*
X8804013Y16691123D01*
X8933423Y16674086D01*
X8950000Y16673000D01*
X9791672Y16673000D01*
X9896257Y16659231D01*
X9985955Y16622077D01*
X10062976Y16562976D01*
X10122077Y16485955D01*
X10159231Y16396257D01*
X10173000Y16291672D01*
X10173000Y9800000D01*
X10174086Y9783423D01*
X10191123Y9654013D01*
X10199704Y9621989D01*
X10249654Y9501399D01*
X10266232Y9472687D01*
X10345692Y9369134D01*
X10369134Y9345692D01*
X10472687Y9266232D01*
X10501399Y9249654D01*
X10621989Y9199704D01*
X10654013Y9191123D01*
X10783423Y9174086D01*
X10800000Y9173000D01*
X11037491Y9173000D01*
X11096119Y9161338D01*
X11135215Y9135215D01*
X11161338Y9096119D01*
X11170512Y9050000D01*
X11161338Y9003881D01*
X11135215Y8964785D01*
X11096119Y8938662D01*
X11037491Y8927000D01*
X10800000Y8927000D01*
X10783423Y8925914D01*
X10654013Y8908877D01*
X10621989Y8900296D01*
X10501399Y8850346D01*
X10472687Y8833768D01*
X10369134Y8754308D01*
X10345692Y8730866D01*
X10266232Y8627313D01*
X10249654Y8598601D01*
X10199704Y8478011D01*
X10191123Y8445987D01*
X10159231Y8203743D01*
X10122077Y8114045D01*
X10062976Y8037024D01*
X9985955Y7977923D01*
X9896257Y7940769D01*
X9791672Y7927000D01*
X4808328Y7927000D01*
X4703743Y7940769D01*
X4614045Y7977923D01*
X4537024Y8037024D01*
X4477923Y8114045D01*
X4440769Y8203743D01*
X4427000Y8308328D01*
X4427000Y10793079D01*
X4493000Y10793079D01*
X4493000Y9806922D01*
X4505690Y9678079D01*
X4555838Y9512764D01*
X4637273Y9360409D01*
X4746867Y9226867D01*
X4880408Y9117273D01*
X5032763Y9035838D01*
X5198078Y8985690D01*
X5370000Y8968757D01*
X5541921Y8985690D01*
X5707236Y9035838D01*
X5859591Y9117273D01*
X5993133Y9226867D01*
X5996781Y9231313D01*
X5973000Y9111754D01*
X5973000Y8988246D01*
X5997095Y8867111D01*
X6044360Y8753004D01*
X6112977Y8650311D01*
X6200311Y8562977D01*
X6303004Y8494360D01*
X6417111Y8447095D01*
X6538246Y8423000D01*
X6661754Y8423000D01*
X6782889Y8447095D01*
X6896996Y8494360D01*
X6999689Y8562977D01*
X7087023Y8650311D01*
X7155640Y8753004D01*
X7202905Y8867111D01*
X7227000Y8988246D01*
X7227000Y9111754D01*
X7373000Y9111754D01*
X7373000Y8988246D01*
X7397095Y8867111D01*
X7444360Y8753004D01*
X7512977Y8650311D01*
X7600311Y8562977D01*
X7703004Y8494360D01*
X7817111Y8447095D01*
X7938246Y8423000D01*
X8061754Y8423000D01*
X8182889Y8447095D01*
X8296996Y8494360D01*
X8399689Y8562977D01*
X8487023Y8650311D01*
X8555640Y8753004D01*
X8602905Y8867111D01*
X8627000Y8988246D01*
X8627000Y9111754D01*
X8603219Y9231313D01*
X8606867Y9226867D01*
X8740408Y9117273D01*
X8892763Y9035838D01*
X9058078Y8985690D01*
X9230000Y8968757D01*
X9401921Y8985690D01*
X9567236Y9035838D01*
X9719591Y9117273D01*
X9853133Y9226867D01*
X9962727Y9360408D01*
X10044162Y9512763D01*
X10094310Y9678078D01*
X10107000Y9806921D01*
X10107000Y10793079D01*
X10094310Y10921922D01*
X10044162Y11087237D01*
X9962727Y11239592D01*
X9853133Y11373133D01*
X9719592Y11482727D01*
X9567237Y11564162D01*
X9401922Y11614310D01*
X9230000Y11631243D01*
X9058079Y11614310D01*
X8892764Y11564162D01*
X8740409Y11482727D01*
X8606868Y11373133D01*
X8497274Y11239592D01*
X8415839Y11087237D01*
X8365691Y10921922D01*
X8353000Y10793079D01*
X8353000Y9806922D01*
X8365690Y9678079D01*
X8412307Y9524405D01*
X8399689Y9537023D01*
X8296996Y9605640D01*
X8182889Y9652905D01*
X8061754Y9677000D01*
X7938246Y9677000D01*
X7817111Y9652905D01*
X7703004Y9605640D01*
X7600311Y9537023D01*
X7512977Y9449689D01*
X7444360Y9346996D01*
X7397095Y9232889D01*
X7373000Y9111754D01*
X7227000Y9111754D01*
X7202905Y9232889D01*
X7155640Y9346996D01*
X7087023Y9449689D01*
X6999689Y9537023D01*
X6896996Y9605640D01*
X6782889Y9652905D01*
X6661754Y9677000D01*
X6538246Y9677000D01*
X6417111Y9652905D01*
X6303004Y9605640D01*
X6200311Y9537023D01*
X6187694Y9524406D01*
X6234310Y9678078D01*
X6247000Y9806921D01*
X6247000Y10431781D01*
X6303004Y10394360D01*
X6417111Y10347095D01*
X6538246Y10323000D01*
X6661754Y10323000D01*
X6782889Y10347095D01*
X6896996Y10394360D01*
X6999689Y10462977D01*
X7087023Y10550311D01*
X7155640Y10653004D01*
X7202905Y10767111D01*
X7227000Y10888246D01*
X7227000Y11011754D01*
X7202905Y11132889D01*
X7155640Y11246996D01*
X7087023Y11349689D01*
X7036712Y11400000D01*
X7087023Y11450311D01*
X7155640Y11553004D01*
X7202905Y11667111D01*
X7227000Y11788246D01*
X7227000Y11911754D01*
X7202905Y12032889D01*
X7155640Y12146996D01*
X7087023Y12249689D01*
X7036712Y12300000D01*
X7087023Y12350311D01*
X7155640Y12453004D01*
X7202905Y12567111D01*
X7227000Y12688246D01*
X7227000Y12811754D01*
X7202905Y12932889D01*
X7155640Y13046996D01*
X7087023Y13149689D01*
X6999689Y13237023D01*
X6896996Y13305640D01*
X6782889Y13352905D01*
X6661754Y13377000D01*
X6538246Y13377000D01*
X6417111Y13352905D01*
X6303004Y13305640D01*
X6200311Y13237023D01*
X6112977Y13149689D01*
X6044360Y13046996D01*
X5997095Y12932889D01*
X5973000Y12811754D01*
X5973000Y12688246D01*
X5997095Y12567111D01*
X6044360Y12453004D01*
X6112977Y12350311D01*
X6163288Y12300000D01*
X6112977Y12249689D01*
X6044360Y12146996D01*
X5997095Y12032889D01*
X5973000Y11911754D01*
X5973000Y11788246D01*
X5997095Y11667111D01*
X6044360Y11553004D01*
X6112977Y11450311D01*
X6163288Y11400000D01*
X6112977Y11349689D01*
X6067827Y11282117D01*
X5993133Y11373133D01*
X5859592Y11482727D01*
X5707237Y11564162D01*
X5541922Y11614310D01*
X5370000Y11631243D01*
X5198079Y11614310D01*
X5032764Y11564162D01*
X4880409Y11482727D01*
X4746868Y11373133D01*
X4637274Y11239592D01*
X4555839Y11087237D01*
X4505691Y10921922D01*
X4493000Y10793079D01*
X4427000Y10793079D01*
X4427000Y14793079D01*
X4493000Y14793079D01*
X4493000Y13806922D01*
X4505690Y13678079D01*
X4555838Y13512764D01*
X4637273Y13360409D01*
X4746867Y13226867D01*
X4880408Y13117273D01*
X5032763Y13035838D01*
X5198078Y12985690D01*
X5370000Y12968757D01*
X5541921Y12985690D01*
X5707236Y13035838D01*
X5859591Y13117273D01*
X5993133Y13226867D01*
X6102727Y13360408D01*
X6184162Y13512763D01*
X6234310Y13678078D01*
X6247000Y13806921D01*
X6247000Y14793079D01*
X6234310Y14921922D01*
X6187694Y15075594D01*
X6200311Y15062977D01*
X6303004Y14994360D01*
X6417111Y14947095D01*
X6538246Y14923000D01*
X6661754Y14923000D01*
X6782889Y14947095D01*
X6896996Y14994360D01*
X6999689Y15062977D01*
X7087023Y15150311D01*
X7155640Y15253004D01*
X7202905Y15367111D01*
X7227000Y15488246D01*
X7227000Y15611754D01*
X7373000Y15611754D01*
X7373000Y15488246D01*
X7397095Y15367111D01*
X7444360Y15253004D01*
X7512977Y15150311D01*
X7600311Y15062977D01*
X7703004Y14994360D01*
X7817111Y14947095D01*
X7938246Y14923000D01*
X8061754Y14923000D01*
X8182889Y14947095D01*
X8296996Y14994360D01*
X8399689Y15062977D01*
X8412308Y15075596D01*
X8365691Y14921922D01*
X8353000Y14793079D01*
X8353000Y14168219D01*
X8296996Y14205640D01*
X8182889Y14252905D01*
X8061754Y14277000D01*
X7938246Y14277000D01*
X7817111Y14252905D01*
X7703004Y14205640D01*
X7600311Y14137023D01*
X7512977Y14049689D01*
X7444360Y13946996D01*
X7397095Y13832889D01*
X7373000Y13711754D01*
X7373000Y13588246D01*
X7397095Y13467111D01*
X7444360Y13353004D01*
X7512977Y13250311D01*
X7563288Y13200000D01*
X7512977Y13149689D01*
X7444360Y13046996D01*
X7397095Y12932889D01*
X7373000Y12811754D01*
X7373000Y12688246D01*
X7397095Y12567111D01*
X7444360Y12453004D01*
X7512977Y12350311D01*
X7563288Y12300000D01*
X7512977Y12249689D01*
X7444360Y12146996D01*
X7397095Y12032889D01*
X7373000Y11911754D01*
X7373000Y11788246D01*
X7397095Y11667111D01*
X7444360Y11553004D01*
X7512977Y11450311D01*
X7600311Y11362977D01*
X7703004Y11294360D01*
X7817111Y11247095D01*
X7938246Y11223000D01*
X8061754Y11223000D01*
X8182889Y11247095D01*
X8296996Y11294360D01*
X8399689Y11362977D01*
X8487023Y11450311D01*
X8555640Y11553004D01*
X8602905Y11667111D01*
X8627000Y11788246D01*
X8627000Y11911754D01*
X8602905Y12032889D01*
X8555640Y12146996D01*
X8487023Y12249689D01*
X8436712Y12300000D01*
X8487023Y12350311D01*
X8555640Y12453004D01*
X8602905Y12567111D01*
X8627000Y12688246D01*
X8627000Y12811754D01*
X8602905Y12932889D01*
X8555640Y13046996D01*
X8487023Y13149689D01*
X8436712Y13200000D01*
X8487023Y13250311D01*
X8532173Y13317883D01*
X8606867Y13226867D01*
X8740408Y13117273D01*
X8892763Y13035838D01*
X9058078Y12985690D01*
X9230000Y12968757D01*
X9401921Y12985690D01*
X9567236Y13035838D01*
X9719591Y13117273D01*
X9853133Y13226867D01*
X9962727Y13360408D01*
X10044162Y13512763D01*
X10094310Y13678078D01*
X10107000Y13806921D01*
X10107000Y14793079D01*
X10094310Y14921922D01*
X10044162Y15087237D01*
X9962727Y15239592D01*
X9853133Y15373133D01*
X9719592Y15482727D01*
X9567237Y15564162D01*
X9401922Y15614310D01*
X9230000Y15631243D01*
X9058079Y15614310D01*
X8892764Y15564162D01*
X8740409Y15482727D01*
X8606868Y15373133D01*
X8603218Y15368686D01*
X8627000Y15488246D01*
X8627000Y15611754D01*
X8602905Y15732889D01*
X8555640Y15846996D01*
X8487023Y15949689D01*
X8399689Y16037023D01*
X8296996Y16105640D01*
X8182889Y16152905D01*
X8061754Y16177000D01*
X7938246Y16177000D01*
X7817111Y16152905D01*
X7703004Y16105640D01*
X7600311Y16037023D01*
X7512977Y15949689D01*
X7444360Y15846996D01*
X7397095Y15732889D01*
X7373000Y15611754D01*
X7227000Y15611754D01*
X7202905Y15732889D01*
X7155640Y15846996D01*
X7087023Y15949689D01*
X6999689Y16037023D01*
X6896996Y16105640D01*
X6782889Y16152905D01*
X6661754Y16177000D01*
X6538246Y16177000D01*
X6417111Y16152905D01*
X6303004Y16105640D01*
X6200311Y16037023D01*
X6112977Y15949689D01*
X6044360Y15846996D01*
X5997095Y15732889D01*
X5973000Y15611754D01*
X5973000Y15488246D01*
X5996781Y15368687D01*
X5993133Y15373133D01*
X5859592Y15482727D01*
X5707237Y15564162D01*
X5541922Y15614310D01*
X5370000Y15631243D01*
X5198079Y15614310D01*
X5032764Y15564162D01*
X4880409Y15482727D01*
X4746868Y15373133D01*
X4637274Y15239592D01*
X4555839Y15087237D01*
X4505691Y14921922D01*
X4493000Y14793079D01*
X4427000Y14793079D01*
X4427000Y16291672D01*
X4440769Y16396257D01*
X4477923Y16485955D01*
X4537024Y16562976D01*
X4614045Y16622077D01*
X4703743Y16659231D01*
X4808328Y16673000D01*
X7450000Y16673000D01*
X7466577Y16674086D01*
X7595987Y16691123D01*
X7628011Y16699704D01*
X7748601Y16749654D01*
X7777313Y16766232D01*
X7880866Y16845692D01*
X7904308Y16869134D01*
X7983768Y16972687D01*
X8000346Y17001399D01*
X8050296Y17121989D01*
X8058877Y17154013D01*
X8075914Y17283423D01*
X8077000Y17300000D01*
X8077000Y18037491D01*
X8088662Y18096119D01*
X8114785Y18135215D01*
X8153881Y18161338D01*
X8200000Y18170512D01*
X8246119Y18161338D01*
%TA.AperFunction,Conductor*%
D22*
G36*
X8246119Y18161338D02*
G01*
X8285215Y18135215D01*
X8311338Y18096119D01*
X8323000Y18037491D01*
X8323000Y17300000D01*
X8324086Y17283423D01*
X8341123Y17154013D01*
X8349704Y17121989D01*
X8399654Y17001399D01*
X8416232Y16972687D01*
X8495692Y16869134D01*
X8519134Y16845692D01*
X8622687Y16766232D01*
X8651399Y16749654D01*
X8771989Y16699704D01*
X8804013Y16691123D01*
X8933423Y16674086D01*
X8950000Y16673000D01*
X9791672Y16673000D01*
X9896257Y16659231D01*
X9985955Y16622077D01*
X10062976Y16562976D01*
X10122077Y16485955D01*
X10159231Y16396257D01*
X10173000Y16291672D01*
X10173000Y9800000D01*
X10174086Y9783423D01*
X10191123Y9654013D01*
X10199704Y9621989D01*
X10249654Y9501399D01*
X10266232Y9472687D01*
X10345692Y9369134D01*
X10369134Y9345692D01*
X10472687Y9266232D01*
X10501399Y9249654D01*
X10621989Y9199704D01*
X10654013Y9191123D01*
X10783423Y9174086D01*
X10800000Y9173000D01*
X11037491Y9173000D01*
X11096119Y9161338D01*
X11135215Y9135215D01*
X11161338Y9096119D01*
X11170512Y9050000D01*
X11161338Y9003881D01*
X11135215Y8964785D01*
X11096119Y8938662D01*
X11037491Y8927000D01*
X10800000Y8927000D01*
X10783423Y8925914D01*
X10654013Y8908877D01*
X10621989Y8900296D01*
X10501399Y8850346D01*
X10472687Y8833768D01*
X10369134Y8754308D01*
X10345692Y8730866D01*
X10266232Y8627313D01*
X10249654Y8598601D01*
X10199704Y8478011D01*
X10191123Y8445987D01*
X10159231Y8203743D01*
X10122077Y8114045D01*
X10062976Y8037024D01*
X9985955Y7977923D01*
X9896257Y7940769D01*
X9791672Y7927000D01*
X4808328Y7927000D01*
X4703743Y7940769D01*
X4614045Y7977923D01*
X4537024Y8037024D01*
X4477923Y8114045D01*
X4440769Y8203743D01*
X4427000Y8308328D01*
X4427000Y10793079D01*
X4493000Y10793079D01*
X4493000Y9806922D01*
X4505690Y9678079D01*
X4555838Y9512764D01*
X4637273Y9360409D01*
X4746867Y9226867D01*
X4880408Y9117273D01*
X5032763Y9035838D01*
X5198078Y8985690D01*
X5370000Y8968757D01*
X5541921Y8985690D01*
X5707236Y9035838D01*
X5859591Y9117273D01*
X5993133Y9226867D01*
X5996781Y9231313D01*
X5973000Y9111754D01*
X5973000Y8988246D01*
X5997095Y8867111D01*
X6044360Y8753004D01*
X6112977Y8650311D01*
X6200311Y8562977D01*
X6303004Y8494360D01*
X6417111Y8447095D01*
X6538246Y8423000D01*
X6661754Y8423000D01*
X6782889Y8447095D01*
X6896996Y8494360D01*
X6999689Y8562977D01*
X7087023Y8650311D01*
X7155640Y8753004D01*
X7202905Y8867111D01*
X7227000Y8988246D01*
X7227000Y9111754D01*
X7373000Y9111754D01*
X7373000Y8988246D01*
X7397095Y8867111D01*
X7444360Y8753004D01*
X7512977Y8650311D01*
X7600311Y8562977D01*
X7703004Y8494360D01*
X7817111Y8447095D01*
X7938246Y8423000D01*
X8061754Y8423000D01*
X8182889Y8447095D01*
X8296996Y8494360D01*
X8399689Y8562977D01*
X8487023Y8650311D01*
X8555640Y8753004D01*
X8602905Y8867111D01*
X8627000Y8988246D01*
X8627000Y9111754D01*
X8603219Y9231313D01*
X8606867Y9226867D01*
X8740408Y9117273D01*
X8892763Y9035838D01*
X9058078Y8985690D01*
X9230000Y8968757D01*
X9401921Y8985690D01*
X9567236Y9035838D01*
X9719591Y9117273D01*
X9853133Y9226867D01*
X9962727Y9360408D01*
X10044162Y9512763D01*
X10094310Y9678078D01*
X10107000Y9806921D01*
X10107000Y10793079D01*
X10094310Y10921922D01*
X10044162Y11087237D01*
X9962727Y11239592D01*
X9853133Y11373133D01*
X9719592Y11482727D01*
X9567237Y11564162D01*
X9401922Y11614310D01*
X9230000Y11631243D01*
X9058079Y11614310D01*
X8892764Y11564162D01*
X8740409Y11482727D01*
X8606868Y11373133D01*
X8497274Y11239592D01*
X8415839Y11087237D01*
X8365691Y10921922D01*
X8353000Y10793079D01*
X8353000Y9806922D01*
X8365690Y9678079D01*
X8412307Y9524405D01*
X8399689Y9537023D01*
X8296996Y9605640D01*
X8182889Y9652905D01*
X8061754Y9677000D01*
X7938246Y9677000D01*
X7817111Y9652905D01*
X7703004Y9605640D01*
X7600311Y9537023D01*
X7512977Y9449689D01*
X7444360Y9346996D01*
X7397095Y9232889D01*
X7373000Y9111754D01*
X7227000Y9111754D01*
X7202905Y9232889D01*
X7155640Y9346996D01*
X7087023Y9449689D01*
X6999689Y9537023D01*
X6896996Y9605640D01*
X6782889Y9652905D01*
X6661754Y9677000D01*
X6538246Y9677000D01*
X6417111Y9652905D01*
X6303004Y9605640D01*
X6200311Y9537023D01*
X6187694Y9524406D01*
X6234310Y9678078D01*
X6247000Y9806921D01*
X6247000Y10431781D01*
X6303004Y10394360D01*
X6417111Y10347095D01*
X6538246Y10323000D01*
X6661754Y10323000D01*
X6782889Y10347095D01*
X6896996Y10394360D01*
X6999689Y10462977D01*
X7087023Y10550311D01*
X7155640Y10653004D01*
X7202905Y10767111D01*
X7227000Y10888246D01*
X7227000Y11011754D01*
X7202905Y11132889D01*
X7155640Y11246996D01*
X7087023Y11349689D01*
X7036712Y11400000D01*
X7087023Y11450311D01*
X7155640Y11553004D01*
X7202905Y11667111D01*
X7227000Y11788246D01*
X7227000Y11911754D01*
X7202905Y12032889D01*
X7155640Y12146996D01*
X7087023Y12249689D01*
X7036712Y12300000D01*
X7087023Y12350311D01*
X7155640Y12453004D01*
X7202905Y12567111D01*
X7227000Y12688246D01*
X7227000Y12811754D01*
X7202905Y12932889D01*
X7155640Y13046996D01*
X7087023Y13149689D01*
X6999689Y13237023D01*
X6896996Y13305640D01*
X6782889Y13352905D01*
X6661754Y13377000D01*
X6538246Y13377000D01*
X6417111Y13352905D01*
X6303004Y13305640D01*
X6200311Y13237023D01*
X6112977Y13149689D01*
X6044360Y13046996D01*
X5997095Y12932889D01*
X5973000Y12811754D01*
X5973000Y12688246D01*
X5997095Y12567111D01*
X6044360Y12453004D01*
X6112977Y12350311D01*
X6163288Y12300000D01*
X6112977Y12249689D01*
X6044360Y12146996D01*
X5997095Y12032889D01*
X5973000Y11911754D01*
X5973000Y11788246D01*
X5997095Y11667111D01*
X6044360Y11553004D01*
X6112977Y11450311D01*
X6163288Y11400000D01*
X6112977Y11349689D01*
X6067827Y11282117D01*
X5993133Y11373133D01*
X5859592Y11482727D01*
X5707237Y11564162D01*
X5541922Y11614310D01*
X5370000Y11631243D01*
X5198079Y11614310D01*
X5032764Y11564162D01*
X4880409Y11482727D01*
X4746868Y11373133D01*
X4637274Y11239592D01*
X4555839Y11087237D01*
X4505691Y10921922D01*
X4493000Y10793079D01*
X4427000Y10793079D01*
X4427000Y14793079D01*
X4493000Y14793079D01*
X4493000Y13806922D01*
X4505690Y13678079D01*
X4555838Y13512764D01*
X4637273Y13360409D01*
X4746867Y13226867D01*
X4880408Y13117273D01*
X5032763Y13035838D01*
X5198078Y12985690D01*
X5370000Y12968757D01*
X5541921Y12985690D01*
X5707236Y13035838D01*
X5859591Y13117273D01*
X5993133Y13226867D01*
X6102727Y13360408D01*
X6184162Y13512763D01*
X6234310Y13678078D01*
X6247000Y13806921D01*
X6247000Y14793079D01*
X6234310Y14921922D01*
X6187694Y15075594D01*
X6200311Y15062977D01*
X6303004Y14994360D01*
X6417111Y14947095D01*
X6538246Y14923000D01*
X6661754Y14923000D01*
X6782889Y14947095D01*
X6896996Y14994360D01*
X6999689Y15062977D01*
X7087023Y15150311D01*
X7155640Y15253004D01*
X7202905Y15367111D01*
X7227000Y15488246D01*
X7227000Y15611754D01*
X7373000Y15611754D01*
X7373000Y15488246D01*
X7397095Y15367111D01*
X7444360Y15253004D01*
X7512977Y15150311D01*
X7600311Y15062977D01*
X7703004Y14994360D01*
X7817111Y14947095D01*
X7938246Y14923000D01*
X8061754Y14923000D01*
X8182889Y14947095D01*
X8296996Y14994360D01*
X8399689Y15062977D01*
X8412308Y15075596D01*
X8365691Y14921922D01*
X8353000Y14793079D01*
X8353000Y14168219D01*
X8296996Y14205640D01*
X8182889Y14252905D01*
X8061754Y14277000D01*
X7938246Y14277000D01*
X7817111Y14252905D01*
X7703004Y14205640D01*
X7600311Y14137023D01*
X7512977Y14049689D01*
X7444360Y13946996D01*
X7397095Y13832889D01*
X7373000Y13711754D01*
X7373000Y13588246D01*
X7397095Y13467111D01*
X7444360Y13353004D01*
X7512977Y13250311D01*
X7563288Y13200000D01*
X7512977Y13149689D01*
X7444360Y13046996D01*
X7397095Y12932889D01*
X7373000Y12811754D01*
X7373000Y12688246D01*
X7397095Y12567111D01*
X7444360Y12453004D01*
X7512977Y12350311D01*
X7563288Y12300000D01*
X7512977Y12249689D01*
X7444360Y12146996D01*
X7397095Y12032889D01*
X7373000Y11911754D01*
X7373000Y11788246D01*
X7397095Y11667111D01*
X7444360Y11553004D01*
X7512977Y11450311D01*
X7600311Y11362977D01*
X7703004Y11294360D01*
X7817111Y11247095D01*
X7938246Y11223000D01*
X8061754Y11223000D01*
X8182889Y11247095D01*
X8296996Y11294360D01*
X8399689Y11362977D01*
X8487023Y11450311D01*
X8555640Y11553004D01*
X8602905Y11667111D01*
X8627000Y11788246D01*
X8627000Y11911754D01*
X8602905Y12032889D01*
X8555640Y12146996D01*
X8487023Y12249689D01*
X8436712Y12300000D01*
X8487023Y12350311D01*
X8555640Y12453004D01*
X8602905Y12567111D01*
X8627000Y12688246D01*
X8627000Y12811754D01*
X8602905Y12932889D01*
X8555640Y13046996D01*
X8487023Y13149689D01*
X8436712Y13200000D01*
X8487023Y13250311D01*
X8532173Y13317883D01*
X8606867Y13226867D01*
X8740408Y13117273D01*
X8892763Y13035838D01*
X9058078Y12985690D01*
X9230000Y12968757D01*
X9401921Y12985690D01*
X9567236Y13035838D01*
X9719591Y13117273D01*
X9853133Y13226867D01*
X9962727Y13360408D01*
X10044162Y13512763D01*
X10094310Y13678078D01*
X10107000Y13806921D01*
X10107000Y14793079D01*
X10094310Y14921922D01*
X10044162Y15087237D01*
X9962727Y15239592D01*
X9853133Y15373133D01*
X9719592Y15482727D01*
X9567237Y15564162D01*
X9401922Y15614310D01*
X9230000Y15631243D01*
X9058079Y15614310D01*
X8892764Y15564162D01*
X8740409Y15482727D01*
X8606868Y15373133D01*
X8603218Y15368686D01*
X8627000Y15488246D01*
X8627000Y15611754D01*
X8602905Y15732889D01*
X8555640Y15846996D01*
X8487023Y15949689D01*
X8399689Y16037023D01*
X8296996Y16105640D01*
X8182889Y16152905D01*
X8061754Y16177000D01*
X7938246Y16177000D01*
X7817111Y16152905D01*
X7703004Y16105640D01*
X7600311Y16037023D01*
X7512977Y15949689D01*
X7444360Y15846996D01*
X7397095Y15732889D01*
X7373000Y15611754D01*
X7227000Y15611754D01*
X7202905Y15732889D01*
X7155640Y15846996D01*
X7087023Y15949689D01*
X6999689Y16037023D01*
X6896996Y16105640D01*
X6782889Y16152905D01*
X6661754Y16177000D01*
X6538246Y16177000D01*
X6417111Y16152905D01*
X6303004Y16105640D01*
X6200311Y16037023D01*
X6112977Y15949689D01*
X6044360Y15846996D01*
X5997095Y15732889D01*
X5973000Y15611754D01*
X5973000Y15488246D01*
X5996781Y15368687D01*
X5993133Y15373133D01*
X5859592Y15482727D01*
X5707237Y15564162D01*
X5541922Y15614310D01*
X5370000Y15631243D01*
X5198079Y15614310D01*
X5032764Y15564162D01*
X4880409Y15482727D01*
X4746868Y15373133D01*
X4637274Y15239592D01*
X4555839Y15087237D01*
X4505691Y14921922D01*
X4493000Y14793079D01*
X4427000Y14793079D01*
X4427000Y16291672D01*
X4440769Y16396257D01*
X4477923Y16485955D01*
X4537024Y16562976D01*
X4614045Y16622077D01*
X4703743Y16659231D01*
X4808328Y16673000D01*
X7450000Y16673000D01*
X7466577Y16674086D01*
X7595987Y16691123D01*
X7628011Y16699704D01*
X7748601Y16749654D01*
X7777313Y16766232D01*
X7880866Y16845692D01*
X7904308Y16869134D01*
X7983768Y16972687D01*
X8000346Y17001399D01*
X8050296Y17121989D01*
X8058877Y17154013D01*
X8075914Y17283423D01*
X8077000Y17300000D01*
X8077000Y18037491D01*
X8088662Y18096119D01*
X8114785Y18135215D01*
X8153881Y18161338D01*
X8200000Y18170512D01*
X8246119Y18161338D01*
G37*
%TD.AperFunction*%
%TD*%
D24*
%TO.N,GND*%
X32645874Y24113138D02*
X32991462Y24011426D01*
X33310709Y23844527D01*
X33591463Y23618796D01*
X33823021Y23342835D01*
X33996570Y23027149D01*
X34105496Y22683771D01*
X34147952Y22305271D01*
X34148006Y22297585D01*
X34148008Y22296985D01*
X34148010Y22296963D01*
X34148011Y22296847D01*
X34148349Y22293633D01*
X34150003Y22277364D01*
X34149865Y22257640D01*
X34150481Y22251359D01*
X34154561Y22212539D01*
X34162800Y22172400D01*
X34170474Y22132168D01*
X34172297Y22126131D01*
X34172298Y22126125D01*
X34172300Y22126119D01*
X34183840Y22088839D01*
X34199729Y22051041D01*
X34215061Y22013091D01*
X34218022Y22007522D01*
X34218024Y22007517D01*
X34218027Y22007513D01*
X34236589Y21973182D01*
X34259523Y21939180D01*
X34281936Y21904931D01*
X34285910Y21900058D01*
X34285917Y21900048D01*
X34285925Y21900040D01*
X34310806Y21869965D01*
X34339858Y21841116D01*
X34368536Y21811831D01*
X34373399Y21807808D01*
X34403648Y21783139D01*
X34437757Y21760477D01*
X34471568Y21737326D01*
X34477119Y21734324D01*
X34511583Y21715999D01*
X34549471Y21700383D01*
X34587112Y21684250D01*
X34593141Y21682383D01*
X34630508Y21671101D01*
X34670735Y21663136D01*
X34710769Y21654626D01*
X34711290Y21654571D01*
X34711393Y21654540D01*
X34714448Y21654239D01*
X34717041Y21653966D01*
X34717045Y21653966D01*
X34755892Y21650157D01*
X34755895Y21650157D01*
X34777795Y21648000D01*
X41277891Y21648000D01*
X41367173Y21639246D01*
X41431789Y21619737D01*
X41491380Y21588052D01*
X41543685Y21545393D01*
X41586708Y21493387D01*
X41618812Y21434012D01*
X41638768Y21369543D01*
X41648001Y21281702D01*
X41648000Y15379154D01*
X41315713Y15300215D01*
X41277000Y15286913D01*
X41238044Y15274132D01*
X41232286Y15271548D01*
X40751714Y15051894D01*
X40716304Y15031315D01*
X40680591Y15011222D01*
X40675450Y15007572D01*
X40675444Y15007569D01*
X40675440Y15007565D01*
X40246688Y14698755D01*
X40215929Y14671672D01*
X40184819Y14645042D01*
X40180486Y14640465D01*
X40180480Y14640460D01*
X40180476Y14640454D01*
X39819873Y14254247D01*
X39794964Y14221711D01*
X39769615Y14189540D01*
X39766254Y14184209D01*
X39766248Y14184202D01*
X39766244Y14184194D01*
X39487525Y13735303D01*
X39469414Y13698556D01*
X39450793Y13662067D01*
X39448527Y13656176D01*
X39262303Y13161688D01*
X39251681Y13122146D01*
X39240495Y13082712D01*
X39239417Y13076493D01*
X39152786Y12555253D01*
X39150045Y12514375D01*
X39146734Y12473545D01*
X39146884Y12467236D01*
X39163145Y11939095D01*
X39168395Y11898473D01*
X39173078Y11857767D01*
X39174451Y11851607D01*
X39292986Y11336683D01*
X39306025Y11297857D01*
X39318527Y11258834D01*
X39321070Y11253057D01*
X39537364Y10770963D01*
X39557713Y10735379D01*
X39577539Y10699558D01*
X39581153Y10694390D01*
X39581156Y10694385D01*
X39581160Y10694381D01*
X39886969Y10263486D01*
X39913811Y10232567D01*
X39940249Y10201242D01*
X39944801Y10196871D01*
X40328487Y9833576D01*
X40360846Y9808442D01*
X40392841Y9782868D01*
X40398149Y9779470D01*
X40398156Y9779464D01*
X40398164Y9779460D01*
X40845098Y9497614D01*
X40881701Y9479255D01*
X40918076Y9460371D01*
X40923945Y9458067D01*
X40923951Y9458064D01*
X40923957Y9458062D01*
X41417125Y9268393D01*
X41456622Y9257486D01*
X41495948Y9246034D01*
X41502148Y9244915D01*
X41502158Y9244912D01*
X41502168Y9244911D01*
X41648001Y9219626D01*
X41648000Y3322110D01*
X41639246Y3232828D01*
X41619737Y3168212D01*
X41588053Y3108622D01*
X41545391Y3056313D01*
X41493389Y3013294D01*
X41434013Y2981189D01*
X41369542Y2961232D01*
X41281712Y2952000D01*
X34777795Y2952000D01*
X34758779Y2950127D01*
X34757640Y2950135D01*
X34751359Y2949519D01*
X34732793Y2947568D01*
X34711393Y2945460D01*
X34708781Y2944668D01*
X34672393Y2937199D01*
X34632169Y2929526D01*
X34626131Y2927703D01*
X34626125Y2927702D01*
X34626119Y2927700D01*
X34588840Y2916160D01*
X34551043Y2900272D01*
X34513091Y2884939D01*
X34507527Y2881980D01*
X34507517Y2881976D01*
X34507513Y2881973D01*
X34473182Y2863411D01*
X34439180Y2840477D01*
X34404931Y2818064D01*
X34400051Y2814085D01*
X34400048Y2814083D01*
X34400046Y2814080D01*
X34400040Y2814076D01*
X34369965Y2789194D01*
X34341096Y2760123D01*
X34311831Y2731463D01*
X34307808Y2726601D01*
X34283138Y2696352D01*
X34260454Y2662209D01*
X34237326Y2628432D01*
X34234324Y2622881D01*
X34215999Y2588417D01*
X34200383Y2550529D01*
X34184250Y2512888D01*
X34182383Y2506859D01*
X34171101Y2469492D01*
X34163136Y2429265D01*
X34154626Y2389231D01*
X34153966Y2382954D01*
X34150157Y2344108D01*
X34150157Y2344107D01*
X34110679Y1941477D01*
X34006558Y1596608D01*
X33837434Y1278532D01*
X33609748Y999362D01*
X33332178Y769736D01*
X33015291Y598396D01*
X32671156Y491868D01*
X32312886Y454213D01*
X31954124Y486862D01*
X31608539Y588574D01*
X31289291Y755473D01*
X31008537Y981204D01*
X30776981Y1257163D01*
X30603430Y1572851D01*
X30494504Y1916229D01*
X30452048Y2294729D01*
X30451994Y2302415D01*
X30451992Y2303015D01*
X30451990Y2303037D01*
X30451989Y2303153D01*
X30451651Y2306366D01*
X30449997Y2322637D01*
X30450135Y2342360D01*
X30449519Y2348641D01*
X30445439Y2387461D01*
X30437199Y2427607D01*
X30432852Y2450396D01*
X30773000Y2450396D01*
X30773000Y2149604D01*
X30831681Y1854590D01*
X30946790Y1576694D01*
X31113901Y1326594D01*
X31326594Y1113901D01*
X31576694Y946790D01*
X31854590Y831681D01*
X32149604Y773000D01*
X32450396Y773000D01*
X32745410Y831681D01*
X33023306Y946790D01*
X33273406Y1113901D01*
X33486099Y1326594D01*
X33653210Y1576694D01*
X33768319Y1854590D01*
X33827000Y2149604D01*
X33827000Y2450396D01*
X33768319Y2745410D01*
X33653210Y3023306D01*
X33486099Y3273406D01*
X33273406Y3486099D01*
X33023306Y3653210D01*
X32745410Y3768319D01*
X32450396Y3827000D01*
X32149604Y3827000D01*
X31854590Y3768319D01*
X31576694Y3653210D01*
X31326594Y3486099D01*
X31113901Y3273406D01*
X30946790Y3023306D01*
X30831681Y2745410D01*
X30773000Y2450396D01*
X30432852Y2450396D01*
X30429526Y2467831D01*
X30427702Y2473873D01*
X30427702Y2473875D01*
X30427700Y2473881D01*
X30416160Y2511160D01*
X30400272Y2548957D01*
X30384939Y2586909D01*
X30381980Y2592473D01*
X30381976Y2592483D01*
X30381971Y2592491D01*
X30363411Y2626818D01*
X30340477Y2660820D01*
X30318064Y2695069D01*
X30314076Y2699960D01*
X30289194Y2730035D01*
X30260123Y2758904D01*
X30231463Y2788169D01*
X30226601Y2792192D01*
X30196352Y2816862D01*
X30162209Y2839546D01*
X30128432Y2862674D01*
X30122881Y2865676D01*
X30088417Y2884001D01*
X30050529Y2899617D01*
X30012888Y2915750D01*
X30006859Y2917617D01*
X29969492Y2928899D01*
X29929265Y2936864D01*
X29889231Y2945374D01*
X29888710Y2945429D01*
X29888607Y2945460D01*
X29885543Y2945762D01*
X29882960Y2946033D01*
X29882957Y2946034D01*
X29882954Y2946034D01*
X29844108Y2949843D01*
X29844105Y2949843D01*
X29822205Y2952000D01*
X15379154Y2952000D01*
X15300215Y3284287D01*
X15286913Y3323000D01*
X15274132Y3361956D01*
X15271548Y3367714D01*
X15051894Y3848286D01*
X15031315Y3883696D01*
X15011222Y3919409D01*
X15007572Y3924550D01*
X15007569Y3924556D01*
X15007565Y3924560D01*
X14698755Y4353312D01*
X14671672Y4384071D01*
X14645042Y4415181D01*
X14640465Y4419514D01*
X14640460Y4419520D01*
X14640454Y4419524D01*
X14254247Y4780127D01*
X14221711Y4805036D01*
X14189540Y4830385D01*
X14184209Y4833746D01*
X14184202Y4833752D01*
X14184194Y4833756D01*
X13735303Y5112475D01*
X13698556Y5130586D01*
X13662067Y5149207D01*
X13656176Y5151473D01*
X13161688Y5337697D01*
X13122146Y5348319D01*
X13082712Y5359505D01*
X13076493Y5360583D01*
X12555253Y5447214D01*
X12514375Y5449955D01*
X12473545Y5453266D01*
X12467236Y5453116D01*
X12467235Y5453116D01*
X11939095Y5436855D01*
X11898473Y5431605D01*
X11857767Y5426922D01*
X11851607Y5425549D01*
X11336683Y5307014D01*
X11297847Y5293972D01*
X11258834Y5281473D01*
X11253058Y5278930D01*
X10770963Y5062636D01*
X10735393Y5042295D01*
X10699558Y5022461D01*
X10694386Y5018844D01*
X10263485Y4713031D01*
X10232548Y4686172D01*
X10201242Y4659751D01*
X10196871Y4655199D01*
X9833576Y4271513D01*
X9808442Y4239154D01*
X9782868Y4207159D01*
X9779470Y4201851D01*
X9779464Y4201844D01*
X9779460Y4201836D01*
X9497614Y3754902D01*
X9479255Y3718299D01*
X9460371Y3681924D01*
X9458067Y3676055D01*
X9458064Y3676049D01*
X9458062Y3676043D01*
X9268393Y3182875D01*
X9257489Y3143388D01*
X9246034Y3104053D01*
X9244915Y3097852D01*
X9244912Y3097842D01*
X9244911Y3097832D01*
X9219626Y2952000D01*
X3322109Y2952000D01*
X3232828Y2960754D01*
X3168212Y2980263D01*
X3108622Y3011947D01*
X3056313Y3054609D01*
X3013294Y3106611D01*
X2981189Y3165987D01*
X2961232Y3230458D01*
X2952000Y3318288D01*
X2952000Y9822205D01*
X2950127Y9841221D01*
X2950135Y9842360D01*
X2949519Y9848641D01*
X2947568Y9867207D01*
X2945460Y9888607D01*
X2944668Y9891219D01*
X2937199Y9927607D01*
X2929526Y9967831D01*
X2927702Y9973873D01*
X2927702Y9973875D01*
X2927700Y9973881D01*
X2916160Y10011160D01*
X2900272Y10048957D01*
X2884939Y10086909D01*
X2881980Y10092473D01*
X2881976Y10092483D01*
X2881971Y10092491D01*
X2863411Y10126818D01*
X2840477Y10160820D01*
X2818064Y10195069D01*
X2814076Y10199960D01*
X2789194Y10230035D01*
X2760123Y10258904D01*
X2731463Y10288169D01*
X2726601Y10292192D01*
X2696352Y10316862D01*
X2662209Y10339546D01*
X2628432Y10362674D01*
X2622881Y10365676D01*
X2588417Y10384001D01*
X2550529Y10399617D01*
X2512888Y10415750D01*
X2506859Y10417617D01*
X2469492Y10428899D01*
X2429265Y10436864D01*
X2389231Y10445374D01*
X2382960Y10446033D01*
X2382957Y10446034D01*
X2382954Y10446034D01*
X2344108Y10449843D01*
X2344107Y10449843D01*
X1941477Y10489321D01*
X1596608Y10593442D01*
X1278532Y10762566D01*
X999362Y10990252D01*
X769736Y11267822D01*
X598396Y11584709D01*
X491868Y11928844D01*
X454213Y12287113D01*
X469072Y12450396D01*
X773000Y12450396D01*
X773000Y12149604D01*
X831681Y11854590D01*
X946790Y11576694D01*
X1113901Y11326594D01*
X1326594Y11113901D01*
X1576694Y10946790D01*
X1854590Y10831681D01*
X2149604Y10773000D01*
X2450396Y10773000D01*
X2745410Y10831681D01*
X3023306Y10946790D01*
X3273406Y11113901D01*
X3486099Y11326594D01*
X3653210Y11576694D01*
X3768319Y11854590D01*
X3827000Y12149604D01*
X3827000Y12450396D01*
X3768319Y12745410D01*
X3653210Y13023306D01*
X3486099Y13273406D01*
X3273406Y13486099D01*
X3023306Y13653210D01*
X2745410Y13768319D01*
X2450396Y13827000D01*
X2149604Y13827000D01*
X1854590Y13768319D01*
X1576694Y13653210D01*
X1326594Y13486099D01*
X1113901Y13273406D01*
X946790Y13023306D01*
X831681Y12745410D01*
X773000Y12450396D01*
X469072Y12450396D01*
X486862Y12645874D01*
X588574Y12991462D01*
X755473Y13310709D01*
X981204Y13591463D01*
X1257165Y13823021D01*
X1572851Y13996570D01*
X1916229Y14105496D01*
X2294729Y14147952D01*
X2302415Y14148006D01*
X2303015Y14148008D01*
X2303037Y14148010D01*
X2303153Y14148011D01*
X2306367Y14148349D01*
X2322636Y14150003D01*
X2342360Y14149865D01*
X2348641Y14150481D01*
X2387461Y14154561D01*
X2427600Y14162800D01*
X2467832Y14170474D01*
X2473869Y14172297D01*
X2473875Y14172298D01*
X2473881Y14172300D01*
X2511161Y14183840D01*
X2548959Y14199729D01*
X2586909Y14215061D01*
X2592478Y14218022D01*
X2592483Y14218024D01*
X2592489Y14218028D01*
X2626818Y14236589D01*
X2660820Y14259523D01*
X2695069Y14281936D01*
X2699942Y14285910D01*
X2699952Y14285917D01*
X2699960Y14285925D01*
X2730035Y14310806D01*
X2758884Y14339858D01*
X2788169Y14368536D01*
X2792192Y14373399D01*
X2816861Y14403648D01*
X2839523Y14437757D01*
X2862674Y14471568D01*
X2865676Y14477119D01*
X2884001Y14511583D01*
X2899617Y14549471D01*
X2915750Y14587112D01*
X2917617Y14593141D01*
X2928899Y14630508D01*
X2936864Y14670735D01*
X2945374Y14710769D01*
X2945429Y14711290D01*
X2945460Y14711393D01*
X2945761Y14714448D01*
X2946034Y14717045D01*
X2949843Y14755892D01*
X2949843Y14755895D01*
X2952000Y14777795D01*
X2952000Y16300000D01*
X3873000Y16300000D01*
X3873000Y8300000D01*
X3876653Y8244266D01*
X3893690Y8114856D01*
X3922540Y8007184D01*
X3972490Y7886594D01*
X4028227Y7790057D01*
X4107687Y7686504D01*
X4186504Y7607687D01*
X4290057Y7528227D01*
X4386594Y7472490D01*
X4507184Y7422540D01*
X4614856Y7393690D01*
X4744266Y7376653D01*
X4800000Y7373000D01*
X9800000Y7373000D01*
X9855734Y7376653D01*
X9985144Y7393690D01*
X10092816Y7422540D01*
X10213406Y7472490D01*
X10309943Y7528227D01*
X10413496Y7607687D01*
X10492313Y7686504D01*
X10571773Y7790057D01*
X10627510Y7886594D01*
X10677460Y8007184D01*
X10706310Y8114856D01*
X10733046Y8317939D01*
X10739972Y8334659D01*
X10750986Y8349014D01*
X10765341Y8360028D01*
X10782061Y8366954D01*
X10827986Y8373000D01*
X11716024Y8373000D01*
X11759072Y8329952D01*
X11910901Y8228504D01*
X12079604Y8158624D01*
X12258699Y8123000D01*
X12441301Y8123000D01*
X12620396Y8158624D01*
X12789099Y8228504D01*
X12940928Y8329952D01*
X13070048Y8459072D01*
X13171496Y8610901D01*
X13241376Y8779604D01*
X13277000Y8958699D01*
X13277000Y9141301D01*
X13241376Y9320396D01*
X13171496Y9489099D01*
X13070048Y9640928D01*
X12940928Y9770048D01*
X12789099Y9871496D01*
X12620396Y9941376D01*
X12441301Y9977000D01*
X12258699Y9977000D01*
X12079604Y9941376D01*
X11910901Y9871496D01*
X11759072Y9770048D01*
X11716024Y9727000D01*
X10827986Y9727000D01*
X10782061Y9733046D01*
X10765341Y9739972D01*
X10750986Y9750986D01*
X10739972Y9765341D01*
X10733046Y9782061D01*
X10727000Y9827986D01*
X10727000Y16300000D01*
X10723347Y16355734D01*
X10706310Y16485144D01*
X10677460Y16592816D01*
X10627510Y16713406D01*
X10571773Y16809943D01*
X10492313Y16913496D01*
X10413496Y16992313D01*
X10309943Y17071773D01*
X10213406Y17127510D01*
X10092816Y17177460D01*
X9985144Y17206310D01*
X9855734Y17223347D01*
X9800000Y17227000D01*
X8977986Y17227000D01*
X8932061Y17233046D01*
X8915341Y17239972D01*
X8900986Y17250986D01*
X8889972Y17265341D01*
X8883046Y17282061D01*
X8877000Y17327986D01*
X8877000Y17401002D01*
X10945089Y17401002D01*
X10948000Y17371445D01*
X10948001Y15829566D01*
X10945089Y15800000D01*
X10956712Y15681988D01*
X10991134Y15568511D01*
X11047035Y15463929D01*
X11073153Y15432105D01*
X11122264Y15372263D01*
X11145229Y15353416D01*
X11423000Y15075644D01*
X11423000Y14963623D01*
X11456703Y14794189D01*
X11522813Y14634585D01*
X11618790Y14490945D01*
X11623000Y14486735D01*
X11623000Y14168247D01*
X11619726Y14135002D01*
X11623000Y14101757D01*
X11623000Y14101751D01*
X11631552Y14014918D01*
X11632796Y14002288D01*
X11671508Y13874673D01*
X11734372Y13757062D01*
X11794191Y13684173D01*
X11818973Y13653976D01*
X11844800Y13632780D01*
X12131279Y13346301D01*
X12104691Y13328536D01*
X11996464Y13220309D01*
X11911431Y13093048D01*
X11852859Y12951643D01*
X11823000Y12801528D01*
X11823000Y12648472D01*
X11852859Y12498357D01*
X11911431Y12356952D01*
X11949485Y12300000D01*
X11911431Y12243048D01*
X11852859Y12101643D01*
X11823000Y11951528D01*
X11823000Y11798472D01*
X11852859Y11648357D01*
X11911431Y11506952D01*
X11996464Y11379691D01*
X12104691Y11271464D01*
X12231952Y11186431D01*
X12373357Y11127859D01*
X12523472Y11098000D01*
X12676528Y11098000D01*
X12826643Y11127859D01*
X12968048Y11186431D01*
X13095309Y11271464D01*
X13203536Y11379691D01*
X13288569Y11506952D01*
X13347141Y11648357D01*
X13377000Y11798472D01*
X13377000Y11951528D01*
X13347141Y12101643D01*
X13326779Y12150801D01*
X16632776Y8844804D01*
X16653975Y8818973D01*
X16757061Y8734372D01*
X16874672Y8671508D01*
X17002287Y8632796D01*
X17101750Y8623000D01*
X17101759Y8623000D01*
X17135001Y8619726D01*
X17168243Y8623000D01*
X17574643Y8623000D01*
X17658269Y8567123D01*
X17808773Y8504782D01*
X17907418Y8485160D01*
X20947774Y5444804D01*
X20968973Y5418973D01*
X21072059Y5334372D01*
X21189670Y5271508D01*
X21317285Y5232796D01*
X21416748Y5223000D01*
X21416757Y5223000D01*
X21449999Y5219726D01*
X21483241Y5223000D01*
X23724643Y5223000D01*
X23808269Y5167123D01*
X23958773Y5104782D01*
X24118548Y5073000D01*
X24281452Y5073000D01*
X24441227Y5104782D01*
X24591731Y5167123D01*
X24727181Y5257628D01*
X24842372Y5372819D01*
X24842493Y5373000D01*
X25124119Y5373000D01*
X25150000Y5370451D01*
X25175881Y5373000D01*
X25253310Y5380626D01*
X25352650Y5410761D01*
X25444202Y5459696D01*
X25524448Y5525552D01*
X25540955Y5545666D01*
X27768290Y7773000D01*
X27876528Y7773000D01*
X28026643Y7802859D01*
X28168048Y7861431D01*
X28295309Y7946464D01*
X28403536Y8054691D01*
X28488569Y8181952D01*
X28547141Y8323357D01*
X28577000Y8473472D01*
X28577000Y8626528D01*
X28547141Y8776643D01*
X28488569Y8918048D01*
X28403536Y9045309D01*
X28295309Y9153536D01*
X28168048Y9238569D01*
X28026643Y9297141D01*
X27876528Y9327000D01*
X27723472Y9327000D01*
X27573357Y9297141D01*
X27431952Y9238569D01*
X27304691Y9153536D01*
X27196464Y9045309D01*
X27111431Y8918048D01*
X27052859Y8776643D01*
X27023000Y8626528D01*
X27023000Y8518290D01*
X25775272Y7270562D01*
X25797141Y7323357D01*
X25827000Y7473472D01*
X25827000Y7626528D01*
X25797141Y7776643D01*
X25738569Y7918048D01*
X25653536Y8045309D01*
X25545309Y8153536D01*
X25418048Y8238569D01*
X25276643Y8297141D01*
X25126528Y8327000D01*
X24973472Y8327000D01*
X24823357Y8297141D01*
X24681952Y8238569D01*
X24554691Y8153536D01*
X24446464Y8045309D01*
X24361431Y7918048D01*
X24302859Y7776643D01*
X24273000Y7626528D01*
X24273000Y7473472D01*
X24302859Y7323357D01*
X24361431Y7181952D01*
X24446464Y7054691D01*
X24554691Y6946464D01*
X24681952Y6861431D01*
X24823357Y6802859D01*
X24973472Y6773000D01*
X25126528Y6773000D01*
X25276643Y6802859D01*
X25329438Y6824728D01*
X24931711Y6427000D01*
X24842493Y6427000D01*
X24842372Y6427181D01*
X24727181Y6542372D01*
X24591731Y6632877D01*
X24441227Y6695218D01*
X24281452Y6727000D01*
X24118548Y6727000D01*
X23958773Y6695218D01*
X23808269Y6632877D01*
X23724643Y6577000D01*
X21730422Y6577000D01*
X20884422Y7423000D01*
X20976528Y7423000D01*
X21126643Y7452859D01*
X21268048Y7511431D01*
X21395309Y7596464D01*
X21503536Y7704691D01*
X21588569Y7831952D01*
X21647141Y7973357D01*
X21677000Y8123472D01*
X21677000Y8276528D01*
X21647141Y8426643D01*
X21588569Y8568048D01*
X21503536Y8695309D01*
X21395309Y8803536D01*
X21268048Y8888569D01*
X21126643Y8947141D01*
X20976528Y8977000D01*
X20823472Y8977000D01*
X20673357Y8947141D01*
X20531952Y8888569D01*
X20404691Y8803536D01*
X20296464Y8695309D01*
X20211431Y8568048D01*
X20152859Y8426643D01*
X20123000Y8276528D01*
X20123000Y8184422D01*
X18864840Y9442582D01*
X18845218Y9541227D01*
X18782877Y9691731D01*
X18692372Y9827181D01*
X18633779Y9885774D01*
X32265000Y9885774D01*
X32265000Y9634226D01*
X32314074Y9387513D01*
X32410337Y9155114D01*
X32550089Y8945960D01*
X32727960Y8768089D01*
X32937114Y8628337D01*
X33169513Y8532074D01*
X33381034Y8490000D01*
X33169513Y8447926D01*
X32937114Y8351663D01*
X32727960Y8211911D01*
X32550089Y8034040D01*
X32410337Y7824886D01*
X32314074Y7592487D01*
X32265000Y7345774D01*
X32265000Y7094226D01*
X32314074Y6847513D01*
X32410337Y6615114D01*
X32550089Y6405960D01*
X32727960Y6228089D01*
X32937114Y6088337D01*
X33169513Y5992074D01*
X33416226Y5943000D01*
X33667774Y5943000D01*
X33914487Y5992074D01*
X34146886Y6088337D01*
X34356040Y6228089D01*
X34533911Y6405960D01*
X34673663Y6615114D01*
X34769926Y6847513D01*
X34784222Y6919385D01*
X34995833Y6919385D01*
X35011866Y6866508D01*
X35101391Y6664527D01*
X35228601Y6483893D01*
X35388606Y6331547D01*
X35575258Y6213344D01*
X35781384Y6133826D01*
X35955000Y6169422D01*
X35955000Y7093000D01*
X36209000Y7093000D01*
X36209000Y6169422D01*
X36382616Y6133826D01*
X36588742Y6213344D01*
X36775394Y6331547D01*
X36935399Y6483893D01*
X37062609Y6664527D01*
X37152134Y6866508D01*
X37168167Y6919385D01*
X37132098Y7093000D01*
X36209000Y7093000D01*
X35955000Y7093000D01*
X35031902Y7093000D01*
X34995833Y6919385D01*
X34784222Y6919385D01*
X34819000Y7094226D01*
X34819000Y7345774D01*
X34784223Y7520615D01*
X34995833Y7520615D01*
X35031902Y7347000D01*
X35955000Y7347000D01*
X35955000Y8270578D01*
X36209000Y8270578D01*
X36209000Y7347000D01*
X37132098Y7347000D01*
X37168167Y7520615D01*
X37152134Y7573492D01*
X37062609Y7775473D01*
X36935399Y7956107D01*
X36775394Y8108453D01*
X36588742Y8226656D01*
X36382616Y8306174D01*
X36209000Y8270578D01*
X35955000Y8270578D01*
X35781384Y8306174D01*
X35575258Y8226656D01*
X35388606Y8108453D01*
X35228601Y7956107D01*
X35101391Y7775473D01*
X35011866Y7573492D01*
X34995833Y7520615D01*
X34784223Y7520615D01*
X34769926Y7592487D01*
X34673663Y7824886D01*
X34533911Y8034040D01*
X34356040Y8211911D01*
X34146886Y8351663D01*
X33914487Y8447926D01*
X33702966Y8490000D01*
X33914487Y8532074D01*
X34146886Y8628337D01*
X34356040Y8768089D01*
X34533911Y8945960D01*
X34673663Y9155114D01*
X34769926Y9387513D01*
X34812000Y9599034D01*
X34854074Y9387513D01*
X34950337Y9155114D01*
X35090089Y8945960D01*
X35267960Y8768089D01*
X35477114Y8628337D01*
X35709513Y8532074D01*
X35956226Y8483000D01*
X36207774Y8483000D01*
X36454487Y8532074D01*
X36686886Y8628337D01*
X36896040Y8768089D01*
X37073911Y8945960D01*
X37213663Y9155114D01*
X37309926Y9387513D01*
X37359000Y9634226D01*
X37359000Y9885774D01*
X37309926Y10132487D01*
X37213663Y10364886D01*
X37073911Y10574040D01*
X36896040Y10751911D01*
X36686886Y10891663D01*
X36454487Y10987926D01*
X36207774Y11037000D01*
X35956226Y11037000D01*
X35709513Y10987926D01*
X35477114Y10891663D01*
X35267960Y10751911D01*
X35090089Y10574040D01*
X34950337Y10364886D01*
X34854074Y10132487D01*
X34812000Y9920966D01*
X34769926Y10132487D01*
X34673663Y10364886D01*
X34533911Y10574040D01*
X34356040Y10751911D01*
X34146886Y10891663D01*
X33914487Y10987926D01*
X33667774Y11037000D01*
X33416226Y11037000D01*
X33169513Y10987926D01*
X32937114Y10891663D01*
X32727960Y10751911D01*
X32550089Y10574040D01*
X32410337Y10364886D01*
X32314074Y10132487D01*
X32265000Y9885774D01*
X18633779Y9885774D01*
X18577181Y9942372D01*
X18441731Y10032877D01*
X18291227Y10095218D01*
X18131452Y10127000D01*
X17968548Y10127000D01*
X17808773Y10095218D01*
X17658269Y10032877D01*
X17574643Y9977000D01*
X17415424Y9977000D01*
X15393039Y11999385D01*
X32455833Y11999385D01*
X32471866Y11946508D01*
X32561391Y11744527D01*
X32688601Y11563893D01*
X32848606Y11411547D01*
X33035258Y11293344D01*
X33241384Y11213826D01*
X33415000Y11249422D01*
X33415000Y12173000D01*
X33669000Y12173000D01*
X33669000Y11249422D01*
X33842616Y11213826D01*
X34048742Y11293344D01*
X34235394Y11411547D01*
X34395399Y11563893D01*
X34522609Y11744527D01*
X34612134Y11946508D01*
X34628167Y11999385D01*
X34995833Y11999385D01*
X35011866Y11946508D01*
X35101391Y11744527D01*
X35228601Y11563893D01*
X35388606Y11411547D01*
X35575258Y11293344D01*
X35781384Y11213826D01*
X35955000Y11249422D01*
X35955000Y12173000D01*
X36209000Y12173000D01*
X36209000Y11249422D01*
X36382616Y11213826D01*
X36588742Y11293344D01*
X36775394Y11411547D01*
X36935399Y11563893D01*
X37062609Y11744527D01*
X37152134Y11946508D01*
X37168167Y11999385D01*
X37132098Y12173000D01*
X36209000Y12173000D01*
X35955000Y12173000D01*
X35031902Y12173000D01*
X34995833Y11999385D01*
X34628167Y11999385D01*
X34592098Y12173000D01*
X33669000Y12173000D01*
X33415000Y12173000D01*
X32491902Y12173000D01*
X32455833Y11999385D01*
X15393039Y11999385D01*
X14515896Y12876528D01*
X27023000Y12876528D01*
X27023000Y12723472D01*
X27052859Y12573357D01*
X27111431Y12431952D01*
X27196464Y12304691D01*
X27304691Y12196464D01*
X27431952Y12111431D01*
X27573357Y12052859D01*
X27723472Y12023000D01*
X27876528Y12023000D01*
X28026643Y12052859D01*
X28168048Y12111431D01*
X28295309Y12196464D01*
X28403536Y12304691D01*
X28488569Y12431952D01*
X28547141Y12573357D01*
X28552562Y12600615D01*
X32455833Y12600615D01*
X32491902Y12427000D01*
X33415000Y12427000D01*
X33415000Y13350578D01*
X33669000Y13350578D01*
X33669000Y12427000D01*
X34592098Y12427000D01*
X34628167Y12600615D01*
X34995833Y12600615D01*
X35031902Y12427000D01*
X35955000Y12427000D01*
X35955000Y13350578D01*
X36209000Y13350578D01*
X36209000Y12427000D01*
X37132098Y12427000D01*
X37168167Y12600615D01*
X37152134Y12653492D01*
X37062609Y12855473D01*
X36935399Y13036107D01*
X36775394Y13188453D01*
X36588742Y13306656D01*
X36382616Y13386174D01*
X36209000Y13350578D01*
X35955000Y13350578D01*
X35781384Y13386174D01*
X35575258Y13306656D01*
X35388606Y13188453D01*
X35228601Y13036107D01*
X35101391Y12855473D01*
X35011866Y12653492D01*
X34995833Y12600615D01*
X34628167Y12600615D01*
X34612134Y12653492D01*
X34522609Y12855473D01*
X34395399Y13036107D01*
X34235394Y13188453D01*
X34048742Y13306656D01*
X33842616Y13386174D01*
X33669000Y13350578D01*
X33415000Y13350578D01*
X33241384Y13386174D01*
X33035258Y13306656D01*
X32848606Y13188453D01*
X32688601Y13036107D01*
X32561391Y12855473D01*
X32471866Y12653492D01*
X32455833Y12600615D01*
X28552562Y12600615D01*
X28577000Y12723472D01*
X28577000Y12876528D01*
X28547141Y13026643D01*
X28488569Y13168048D01*
X28403536Y13295309D01*
X28295309Y13403536D01*
X28168048Y13488569D01*
X28026643Y13547141D01*
X27876528Y13577000D01*
X27723472Y13577000D01*
X27573357Y13547141D01*
X27431952Y13488569D01*
X27304691Y13403536D01*
X27196464Y13295309D01*
X27111431Y13168048D01*
X27052859Y13026643D01*
X27023000Y12876528D01*
X14515896Y12876528D01*
X13019424Y14373000D01*
X15316755Y14373000D01*
X15350000Y14369726D01*
X15383245Y14373000D01*
X15383252Y14373000D01*
X15482715Y14382796D01*
X15610330Y14421508D01*
X15727941Y14484372D01*
X15831027Y14568973D01*
X15852226Y14594804D01*
X16849196Y15591773D01*
X16852859Y15573357D01*
X16911431Y15431952D01*
X16996464Y15304691D01*
X17104691Y15196464D01*
X17231952Y15111431D01*
X17373357Y15052859D01*
X17523472Y15023000D01*
X17676528Y15023000D01*
X17826643Y15052859D01*
X17968048Y15111431D01*
X18095309Y15196464D01*
X18203536Y15304691D01*
X18288569Y15431952D01*
X18347141Y15573357D01*
X18377000Y15723472D01*
X18377000Y15876528D01*
X18347141Y16026643D01*
X18307229Y16123000D01*
X18824643Y16123000D01*
X18908269Y16067123D01*
X19058773Y16004782D01*
X19157418Y15985160D01*
X19797778Y15344799D01*
X19818973Y15318973D01*
X19844799Y15297778D01*
X19844801Y15297776D01*
X19922059Y15234372D01*
X20039670Y15171508D01*
X20167285Y15132796D01*
X20300000Y15119725D01*
X20333252Y15123000D01*
X23266755Y15123000D01*
X23300000Y15119726D01*
X23333245Y15123000D01*
X23333252Y15123000D01*
X23432715Y15132796D01*
X23560330Y15171508D01*
X23677941Y15234372D01*
X23781027Y15318973D01*
X23802226Y15344804D01*
X24442583Y15985160D01*
X24541227Y16004782D01*
X24691731Y16067123D01*
X24775357Y16123000D01*
X26519578Y16123000D01*
X26748796Y15893782D01*
X26752859Y15873357D01*
X26811431Y15731952D01*
X26896464Y15604691D01*
X27004691Y15496464D01*
X27131952Y15411431D01*
X27273357Y15352859D01*
X27423472Y15323000D01*
X27576528Y15323000D01*
X27726643Y15352859D01*
X27868048Y15411431D01*
X27885362Y15423000D01*
X32401272Y15423000D01*
X32314074Y15212487D01*
X32265000Y14965774D01*
X32265000Y14714226D01*
X32314074Y14467513D01*
X32410337Y14235114D01*
X32550089Y14025960D01*
X32727960Y13848089D01*
X32937114Y13708337D01*
X33169513Y13612074D01*
X33416226Y13563000D01*
X33667774Y13563000D01*
X33914487Y13612074D01*
X34146886Y13708337D01*
X34356040Y13848089D01*
X34533911Y14025960D01*
X34673663Y14235114D01*
X34769926Y14467513D01*
X34812000Y14679034D01*
X34854074Y14467513D01*
X34950337Y14235114D01*
X35090089Y14025960D01*
X35267960Y13848089D01*
X35477114Y13708337D01*
X35709513Y13612074D01*
X35956226Y13563000D01*
X36207774Y13563000D01*
X36454487Y13612074D01*
X36686886Y13708337D01*
X36896040Y13848089D01*
X37073911Y14025960D01*
X37213663Y14235114D01*
X37309926Y14467513D01*
X37359000Y14714226D01*
X37359000Y14965774D01*
X37309926Y15212487D01*
X37213663Y15444886D01*
X37073911Y15654040D01*
X36896040Y15831911D01*
X36686886Y15971663D01*
X36454487Y16067926D01*
X36242966Y16110000D01*
X36454487Y16152074D01*
X36686886Y16248337D01*
X36896040Y16388089D01*
X37073911Y16565960D01*
X37213663Y16775114D01*
X37309926Y17007513D01*
X37359000Y17254226D01*
X37359000Y17505774D01*
X37309926Y17752487D01*
X37213663Y17984886D01*
X37073911Y18194040D01*
X36896040Y18371911D01*
X36686886Y18511663D01*
X36454487Y18607926D01*
X36207774Y18657000D01*
X35956226Y18657000D01*
X35709513Y18607926D01*
X35477114Y18511663D01*
X35267960Y18371911D01*
X35090089Y18194040D01*
X34950337Y17984886D01*
X34854074Y17752487D01*
X34821066Y17586544D01*
X34821066Y18230000D01*
X34812822Y18313707D01*
X34788405Y18394196D01*
X34748755Y18468376D01*
X34695395Y18533395D01*
X34630376Y18586755D01*
X34556196Y18626405D01*
X34475707Y18650822D01*
X34392000Y18659066D01*
X32692000Y18659066D01*
X32608293Y18650822D01*
X32527804Y18626405D01*
X32453624Y18586755D01*
X32388605Y18533395D01*
X32335245Y18468376D01*
X32295595Y18394196D01*
X32271178Y18313707D01*
X32262934Y18230000D01*
X32262934Y16777000D01*
X27885362Y16777000D01*
X27868048Y16788569D01*
X27726643Y16847141D01*
X27706218Y16851204D01*
X27302226Y17255196D01*
X27281027Y17281027D01*
X27177941Y17365628D01*
X27060330Y17428492D01*
X26932715Y17467204D01*
X26833252Y17477000D01*
X26833245Y17477000D01*
X26800000Y17480274D01*
X26766755Y17477000D01*
X24775357Y17477000D01*
X24691731Y17532877D01*
X24541227Y17595218D01*
X24381452Y17627000D01*
X24218548Y17627000D01*
X24058773Y17595218D01*
X23908269Y17532877D01*
X23772819Y17442372D01*
X23657628Y17327181D01*
X23567123Y17191731D01*
X23504782Y17041227D01*
X23485160Y16942583D01*
X23019578Y16477000D01*
X22242756Y16477000D01*
X22252000Y16523472D01*
X22252000Y16676528D01*
X22222141Y16826643D01*
X22163569Y16968048D01*
X22078536Y17095309D01*
X21970309Y17203536D01*
X21843048Y17288569D01*
X21701643Y17347141D01*
X21551528Y17377000D01*
X21398472Y17377000D01*
X21248357Y17347141D01*
X21106952Y17288569D01*
X21050000Y17250515D01*
X20993048Y17288569D01*
X20851643Y17347141D01*
X20701528Y17377000D01*
X20548472Y17377000D01*
X20398357Y17347141D01*
X20256952Y17288569D01*
X20129691Y17203536D01*
X20057776Y17131621D01*
X20032877Y17191731D01*
X19942372Y17327181D01*
X19859199Y17410354D01*
X19903536Y17454691D01*
X19988569Y17581952D01*
X20047141Y17723357D01*
X20077000Y17873472D01*
X20077000Y18026528D01*
X20047141Y18176643D01*
X19988569Y18318048D01*
X19903536Y18445309D01*
X19795309Y18553536D01*
X19668048Y18638569D01*
X19526643Y18697141D01*
X19376528Y18727000D01*
X19223472Y18727000D01*
X19073357Y18697141D01*
X18931952Y18638569D01*
X18804691Y18553536D01*
X18696464Y18445309D01*
X18611431Y18318048D01*
X18552859Y18176643D01*
X18523000Y18026528D01*
X18523000Y17873472D01*
X18552859Y17723357D01*
X18611431Y17581952D01*
X18681558Y17477000D01*
X17133252Y17477000D01*
X17100000Y17480275D01*
X17066748Y17477000D01*
X16967285Y17467204D01*
X16839670Y17428492D01*
X16722059Y17365628D01*
X16618973Y17281027D01*
X16597778Y17255201D01*
X15069578Y15727000D01*
X12863265Y15727000D01*
X12859055Y15731210D01*
X12715415Y15827187D01*
X12555811Y15893297D01*
X12386377Y15927000D01*
X12274356Y15927000D01*
X12152000Y16049355D01*
X12152000Y17151647D01*
X12598354Y17598000D01*
X13920444Y17598000D01*
X13950000Y17595089D01*
X13979556Y17598000D01*
X13979566Y17598000D01*
X14068012Y17606711D01*
X14181490Y17641134D01*
X14286071Y17697034D01*
X14377737Y17772263D01*
X14396589Y17795234D01*
X15074356Y18473000D01*
X15131452Y18473000D01*
X15291227Y18504782D01*
X15441731Y18567123D01*
X15577181Y18657628D01*
X15692372Y18772819D01*
X15782877Y18908269D01*
X15845218Y19058773D01*
X15877000Y19218548D01*
X15877000Y19381452D01*
X15845218Y19541227D01*
X15782877Y19691731D01*
X15692372Y19827181D01*
X15577181Y19942372D01*
X15441731Y20032877D01*
X15291227Y20095218D01*
X15131452Y20127000D01*
X14968548Y20127000D01*
X14808773Y20095218D01*
X14658269Y20032877D01*
X14522819Y19942372D01*
X14407628Y19827181D01*
X14317123Y19691731D01*
X14254782Y19541227D01*
X14223000Y19381452D01*
X14223000Y19324356D01*
X13700645Y18802000D01*
X12378554Y18802000D01*
X12348998Y18804911D01*
X12319441Y18802000D01*
X12319432Y18802000D01*
X12230986Y18793289D01*
X12117508Y18758866D01*
X12012927Y18702966D01*
X11921261Y18627737D01*
X11902413Y18604771D01*
X11145234Y17847591D01*
X11122263Y17828739D01*
X11047034Y17737072D01*
X10991134Y17632491D01*
X10956711Y17519013D01*
X10948000Y17430567D01*
X10948000Y17430558D01*
X10945089Y17401002D01*
X8877000Y17401002D01*
X8877000Y19166024D01*
X8920048Y19209072D01*
X9021496Y19360901D01*
X9091376Y19529604D01*
X9127000Y19708699D01*
X9127000Y19891301D01*
X9091376Y20070396D01*
X9021496Y20239099D01*
X8920048Y20390928D01*
X8790928Y20520048D01*
X8639099Y20621496D01*
X8470396Y20691376D01*
X8291301Y20727000D01*
X8108699Y20727000D01*
X7929604Y20691376D01*
X7760901Y20621496D01*
X7609072Y20520048D01*
X7565000Y20475976D01*
X7520928Y20520048D01*
X7369099Y20621496D01*
X7200396Y20691376D01*
X7021301Y20727000D01*
X6838699Y20727000D01*
X6659604Y20691376D01*
X6490901Y20621496D01*
X6339072Y20520048D01*
X6295000Y20475976D01*
X6250928Y20520048D01*
X6099099Y20621496D01*
X5930396Y20691376D01*
X5751301Y20727000D01*
X5568699Y20727000D01*
X5389604Y20691376D01*
X5220901Y20621496D01*
X5069072Y20520048D01*
X5064310Y20515286D01*
X5044637Y20531431D01*
X4996516Y20557153D01*
X4944301Y20572992D01*
X4890000Y20578340D01*
X4586250Y20577000D01*
X4517000Y20507750D01*
X4517000Y19927000D01*
X4537000Y19927000D01*
X4537000Y19673000D01*
X4517000Y19673000D01*
X4517000Y19092250D01*
X4586250Y19023000D01*
X4890000Y19021660D01*
X4944301Y19027008D01*
X4996516Y19042847D01*
X5044637Y19068569D01*
X5064310Y19084714D01*
X5069072Y19079952D01*
X5220901Y18978504D01*
X5389604Y18908624D01*
X5568699Y18873000D01*
X5751301Y18873000D01*
X5930396Y18908624D01*
X6099099Y18978504D01*
X6250928Y19079952D01*
X6295000Y19124024D01*
X6339072Y19079952D01*
X6490901Y18978504D01*
X6659604Y18908624D01*
X6838699Y18873000D01*
X7021301Y18873000D01*
X7200396Y18908624D01*
X7369099Y18978504D01*
X7520928Y19079952D01*
X7523000Y19082024D01*
X7523001Y18050005D01*
X7523000Y18050000D01*
X7523000Y17327986D01*
X7516954Y17282061D01*
X7510028Y17265341D01*
X7499014Y17250986D01*
X7484659Y17239972D01*
X7467939Y17233046D01*
X7422014Y17227000D01*
X4800000Y17227000D01*
X4744266Y17223347D01*
X4614856Y17206310D01*
X4507184Y17177460D01*
X4386594Y17127510D01*
X4290057Y17071773D01*
X4186504Y16992313D01*
X4107687Y16913496D01*
X4028227Y16809943D01*
X3972490Y16713406D01*
X3922540Y16592816D01*
X3893690Y16485144D01*
X3876653Y16355734D01*
X3873000Y16300000D01*
X2952000Y16300000D01*
X2952000Y19300000D01*
X3611660Y19300000D01*
X3617008Y19245699D01*
X3632847Y19193484D01*
X3658569Y19145363D01*
X3693184Y19103184D01*
X3735363Y19068569D01*
X3783484Y19042847D01*
X3835699Y19027008D01*
X3890000Y19021660D01*
X4193750Y19023000D01*
X4263000Y19092250D01*
X4263000Y19673000D01*
X3682250Y19673000D01*
X3613000Y19603750D01*
X3611660Y19300000D01*
X2952000Y19300000D01*
X2952000Y20300000D01*
X3611660Y20300000D01*
X3613000Y19996250D01*
X3682250Y19927000D01*
X4263000Y19927000D01*
X4263000Y20507750D01*
X4193750Y20577000D01*
X3890000Y20578340D01*
X3835699Y20572992D01*
X3783484Y20557153D01*
X3735363Y20531431D01*
X3693184Y20496816D01*
X3658569Y20454637D01*
X3632847Y20406516D01*
X3617008Y20354301D01*
X3611660Y20300000D01*
X2952000Y20300000D01*
X2952000Y21277891D01*
X2960754Y21367173D01*
X2980263Y21431789D01*
X3011948Y21491380D01*
X3054607Y21543685D01*
X3106613Y21586708D01*
X3165988Y21618812D01*
X3230457Y21638768D01*
X3318288Y21648000D01*
X9220846Y21648000D01*
X9299785Y21315714D01*
X9313084Y21277012D01*
X9325868Y21238044D01*
X9328452Y21232286D01*
X9548106Y20751714D01*
X9568685Y20716304D01*
X9588778Y20680591D01*
X9592431Y20675444D01*
X9901245Y20246688D01*
X9928328Y20215929D01*
X9954958Y20184819D01*
X9959535Y20180486D01*
X9959540Y20180480D01*
X9959546Y20180476D01*
X10345753Y19819873D01*
X10378268Y19794980D01*
X10410460Y19769615D01*
X10415798Y19766249D01*
X10864697Y19487525D01*
X10901429Y19469422D01*
X10937934Y19450792D01*
X10943824Y19448527D01*
X11438312Y19262303D01*
X11477854Y19251681D01*
X11517288Y19240495D01*
X11523506Y19239417D01*
X12044747Y19152786D01*
X12085625Y19150045D01*
X12126455Y19146734D01*
X12132764Y19146884D01*
X12132765Y19146884D01*
X12660905Y19163145D01*
X12701527Y19168395D01*
X12742233Y19173078D01*
X12748393Y19174451D01*
X13263317Y19292986D01*
X13302143Y19306025D01*
X13341166Y19318527D01*
X13346943Y19321070D01*
X13829037Y19537364D01*
X13864621Y19557713D01*
X13900442Y19577539D01*
X13905610Y19581153D01*
X13905615Y19581156D01*
X13905619Y19581160D01*
X14336514Y19886969D01*
X14367433Y19913811D01*
X14398758Y19940249D01*
X14403129Y19944801D01*
X14766424Y20328487D01*
X14791558Y20360846D01*
X14817132Y20392841D01*
X14820530Y20398149D01*
X14820536Y20398156D01*
X14820540Y20398164D01*
X15102386Y20845098D01*
X15120745Y20881701D01*
X15139629Y20918076D01*
X15141935Y20923950D01*
X15141936Y20923951D01*
X15141938Y20923957D01*
X15331607Y21417125D01*
X15342514Y21456622D01*
X15353966Y21495948D01*
X15355085Y21502148D01*
X15355088Y21502158D01*
X15355089Y21502168D01*
X15380374Y21648000D01*
X29822205Y21648000D01*
X29841221Y21649873D01*
X29842360Y21649865D01*
X29848641Y21650481D01*
X29867207Y21652432D01*
X29888607Y21654540D01*
X29891219Y21655332D01*
X29927600Y21662800D01*
X29967832Y21670474D01*
X29973869Y21672297D01*
X29973875Y21672298D01*
X29973881Y21672300D01*
X30011161Y21683840D01*
X30048959Y21699729D01*
X30086909Y21715061D01*
X30092478Y21718022D01*
X30092483Y21718024D01*
X30092489Y21718028D01*
X30126818Y21736589D01*
X30160820Y21759523D01*
X30195069Y21781936D01*
X30199942Y21785910D01*
X30199952Y21785917D01*
X30199960Y21785925D01*
X30230035Y21810806D01*
X30258884Y21839858D01*
X30288169Y21868536D01*
X30292192Y21873399D01*
X30316861Y21903648D01*
X30339523Y21937757D01*
X30362674Y21971568D01*
X30365676Y21977119D01*
X30384001Y22011583D01*
X30399617Y22049471D01*
X30415750Y22087112D01*
X30417617Y22093141D01*
X30428899Y22130508D01*
X30436864Y22170735D01*
X30445374Y22210769D01*
X30446034Y22217045D01*
X30449843Y22255892D01*
X30449843Y22255893D01*
X30468914Y22450396D01*
X30773000Y22450396D01*
X30773000Y22149604D01*
X30831681Y21854590D01*
X30946790Y21576694D01*
X31113901Y21326594D01*
X31326594Y21113901D01*
X31576694Y20946790D01*
X31854590Y20831681D01*
X32149604Y20773000D01*
X32450396Y20773000D01*
X32745410Y20831681D01*
X33023306Y20946790D01*
X33273406Y21113901D01*
X33486099Y21326594D01*
X33653210Y21576694D01*
X33768319Y21854590D01*
X33827000Y22149604D01*
X33827000Y22450396D01*
X33768319Y22745410D01*
X33653210Y23023306D01*
X33486099Y23273406D01*
X33273406Y23486099D01*
X33023306Y23653210D01*
X32745410Y23768319D01*
X32450396Y23827000D01*
X32149604Y23827000D01*
X31854590Y23768319D01*
X31576694Y23653210D01*
X31326594Y23486099D01*
X31113901Y23273406D01*
X30946790Y23023306D01*
X30831681Y22745410D01*
X30773000Y22450396D01*
X30468914Y22450396D01*
X30489322Y22658528D01*
X30593443Y23003392D01*
X30762569Y23321471D01*
X30990252Y23600638D01*
X31267822Y23830263D01*
X31584711Y24001605D01*
X31928844Y24108132D01*
X32287113Y24145787D01*
X32645874Y24113138D01*
%TA.AperFunction,Conductor*%
D22*
G36*
X32645874Y24113138D02*
G01*
X32991462Y24011426D01*
X33310709Y23844527D01*
X33591463Y23618796D01*
X33823021Y23342835D01*
X33996570Y23027149D01*
X34105496Y22683771D01*
X34147952Y22305271D01*
X34148006Y22297585D01*
X34148008Y22296985D01*
X34148010Y22296963D01*
X34148011Y22296847D01*
X34148349Y22293633D01*
X34150003Y22277364D01*
X34149865Y22257640D01*
X34150481Y22251359D01*
X34154561Y22212539D01*
X34162800Y22172400D01*
X34170474Y22132168D01*
X34172297Y22126131D01*
X34172298Y22126125D01*
X34172300Y22126119D01*
X34183840Y22088839D01*
X34199729Y22051041D01*
X34215061Y22013091D01*
X34218022Y22007522D01*
X34218024Y22007517D01*
X34218027Y22007513D01*
X34236589Y21973182D01*
X34259523Y21939180D01*
X34281936Y21904931D01*
X34285910Y21900058D01*
X34285917Y21900048D01*
X34285925Y21900040D01*
X34310806Y21869965D01*
X34339858Y21841116D01*
X34368536Y21811831D01*
X34373399Y21807808D01*
X34403648Y21783139D01*
X34437757Y21760477D01*
X34471568Y21737326D01*
X34477119Y21734324D01*
X34511583Y21715999D01*
X34549471Y21700383D01*
X34587112Y21684250D01*
X34593141Y21682383D01*
X34630508Y21671101D01*
X34670735Y21663136D01*
X34710769Y21654626D01*
X34711290Y21654571D01*
X34711393Y21654540D01*
X34714448Y21654239D01*
X34717041Y21653966D01*
X34717045Y21653966D01*
X34755892Y21650157D01*
X34755895Y21650157D01*
X34777795Y21648000D01*
X41277891Y21648000D01*
X41367173Y21639246D01*
X41431789Y21619737D01*
X41491380Y21588052D01*
X41543685Y21545393D01*
X41586708Y21493387D01*
X41618812Y21434012D01*
X41638768Y21369543D01*
X41648001Y21281702D01*
X41648000Y15379154D01*
X41315713Y15300215D01*
X41277000Y15286913D01*
X41238044Y15274132D01*
X41232286Y15271548D01*
X40751714Y15051894D01*
X40716304Y15031315D01*
X40680591Y15011222D01*
X40675450Y15007572D01*
X40675444Y15007569D01*
X40675440Y15007565D01*
X40246688Y14698755D01*
X40215929Y14671672D01*
X40184819Y14645042D01*
X40180486Y14640465D01*
X40180480Y14640460D01*
X40180476Y14640454D01*
X39819873Y14254247D01*
X39794964Y14221711D01*
X39769615Y14189540D01*
X39766254Y14184209D01*
X39766248Y14184202D01*
X39766244Y14184194D01*
X39487525Y13735303D01*
X39469414Y13698556D01*
X39450793Y13662067D01*
X39448527Y13656176D01*
X39262303Y13161688D01*
X39251681Y13122146D01*
X39240495Y13082712D01*
X39239417Y13076493D01*
X39152786Y12555253D01*
X39150045Y12514375D01*
X39146734Y12473545D01*
X39146884Y12467236D01*
X39163145Y11939095D01*
X39168395Y11898473D01*
X39173078Y11857767D01*
X39174451Y11851607D01*
X39292986Y11336683D01*
X39306025Y11297857D01*
X39318527Y11258834D01*
X39321070Y11253057D01*
X39537364Y10770963D01*
X39557713Y10735379D01*
X39577539Y10699558D01*
X39581153Y10694390D01*
X39581156Y10694385D01*
X39581160Y10694381D01*
X39886969Y10263486D01*
X39913811Y10232567D01*
X39940249Y10201242D01*
X39944801Y10196871D01*
X40328487Y9833576D01*
X40360846Y9808442D01*
X40392841Y9782868D01*
X40398149Y9779470D01*
X40398156Y9779464D01*
X40398164Y9779460D01*
X40845098Y9497614D01*
X40881701Y9479255D01*
X40918076Y9460371D01*
X40923945Y9458067D01*
X40923951Y9458064D01*
X40923957Y9458062D01*
X41417125Y9268393D01*
X41456622Y9257486D01*
X41495948Y9246034D01*
X41502148Y9244915D01*
X41502158Y9244912D01*
X41502168Y9244911D01*
X41648001Y9219626D01*
X41648000Y3322110D01*
X41639246Y3232828D01*
X41619737Y3168212D01*
X41588053Y3108622D01*
X41545391Y3056313D01*
X41493389Y3013294D01*
X41434013Y2981189D01*
X41369542Y2961232D01*
X41281712Y2952000D01*
X34777795Y2952000D01*
X34758779Y2950127D01*
X34757640Y2950135D01*
X34751359Y2949519D01*
X34732793Y2947568D01*
X34711393Y2945460D01*
X34708781Y2944668D01*
X34672393Y2937199D01*
X34632169Y2929526D01*
X34626131Y2927703D01*
X34626125Y2927702D01*
X34626119Y2927700D01*
X34588840Y2916160D01*
X34551043Y2900272D01*
X34513091Y2884939D01*
X34507527Y2881980D01*
X34507517Y2881976D01*
X34507513Y2881973D01*
X34473182Y2863411D01*
X34439180Y2840477D01*
X34404931Y2818064D01*
X34400051Y2814085D01*
X34400048Y2814083D01*
X34400046Y2814080D01*
X34400040Y2814076D01*
X34369965Y2789194D01*
X34341096Y2760123D01*
X34311831Y2731463D01*
X34307808Y2726601D01*
X34283138Y2696352D01*
X34260454Y2662209D01*
X34237326Y2628432D01*
X34234324Y2622881D01*
X34215999Y2588417D01*
X34200383Y2550529D01*
X34184250Y2512888D01*
X34182383Y2506859D01*
X34171101Y2469492D01*
X34163136Y2429265D01*
X34154626Y2389231D01*
X34153966Y2382954D01*
X34150157Y2344108D01*
X34150157Y2344107D01*
X34110679Y1941477D01*
X34006558Y1596608D01*
X33837434Y1278532D01*
X33609748Y999362D01*
X33332178Y769736D01*
X33015291Y598396D01*
X32671156Y491868D01*
X32312886Y454213D01*
X31954124Y486862D01*
X31608539Y588574D01*
X31289291Y755473D01*
X31008537Y981204D01*
X30776981Y1257163D01*
X30603430Y1572851D01*
X30494504Y1916229D01*
X30452048Y2294729D01*
X30451994Y2302415D01*
X30451992Y2303015D01*
X30451990Y2303037D01*
X30451989Y2303153D01*
X30451651Y2306366D01*
X30449997Y2322637D01*
X30450135Y2342360D01*
X30449519Y2348641D01*
X30445439Y2387461D01*
X30437199Y2427607D01*
X30432852Y2450396D01*
X30773000Y2450396D01*
X30773000Y2149604D01*
X30831681Y1854590D01*
X30946790Y1576694D01*
X31113901Y1326594D01*
X31326594Y1113901D01*
X31576694Y946790D01*
X31854590Y831681D01*
X32149604Y773000D01*
X32450396Y773000D01*
X32745410Y831681D01*
X33023306Y946790D01*
X33273406Y1113901D01*
X33486099Y1326594D01*
X33653210Y1576694D01*
X33768319Y1854590D01*
X33827000Y2149604D01*
X33827000Y2450396D01*
X33768319Y2745410D01*
X33653210Y3023306D01*
X33486099Y3273406D01*
X33273406Y3486099D01*
X33023306Y3653210D01*
X32745410Y3768319D01*
X32450396Y3827000D01*
X32149604Y3827000D01*
X31854590Y3768319D01*
X31576694Y3653210D01*
X31326594Y3486099D01*
X31113901Y3273406D01*
X30946790Y3023306D01*
X30831681Y2745410D01*
X30773000Y2450396D01*
X30432852Y2450396D01*
X30429526Y2467831D01*
X30427702Y2473873D01*
X30427702Y2473875D01*
X30427700Y2473881D01*
X30416160Y2511160D01*
X30400272Y2548957D01*
X30384939Y2586909D01*
X30381980Y2592473D01*
X30381976Y2592483D01*
X30381971Y2592491D01*
X30363411Y2626818D01*
X30340477Y2660820D01*
X30318064Y2695069D01*
X30314076Y2699960D01*
X30289194Y2730035D01*
X30260123Y2758904D01*
X30231463Y2788169D01*
X30226601Y2792192D01*
X30196352Y2816862D01*
X30162209Y2839546D01*
X30128432Y2862674D01*
X30122881Y2865676D01*
X30088417Y2884001D01*
X30050529Y2899617D01*
X30012888Y2915750D01*
X30006859Y2917617D01*
X29969492Y2928899D01*
X29929265Y2936864D01*
X29889231Y2945374D01*
X29888710Y2945429D01*
X29888607Y2945460D01*
X29885543Y2945762D01*
X29882960Y2946033D01*
X29882957Y2946034D01*
X29882954Y2946034D01*
X29844108Y2949843D01*
X29844105Y2949843D01*
X29822205Y2952000D01*
X15379154Y2952000D01*
X15300215Y3284287D01*
X15286913Y3323000D01*
X15274132Y3361956D01*
X15271548Y3367714D01*
X15051894Y3848286D01*
X15031315Y3883696D01*
X15011222Y3919409D01*
X15007572Y3924550D01*
X15007569Y3924556D01*
X15007565Y3924560D01*
X14698755Y4353312D01*
X14671672Y4384071D01*
X14645042Y4415181D01*
X14640465Y4419514D01*
X14640460Y4419520D01*
X14640454Y4419524D01*
X14254247Y4780127D01*
X14221711Y4805036D01*
X14189540Y4830385D01*
X14184209Y4833746D01*
X14184202Y4833752D01*
X14184194Y4833756D01*
X13735303Y5112475D01*
X13698556Y5130586D01*
X13662067Y5149207D01*
X13656176Y5151473D01*
X13161688Y5337697D01*
X13122146Y5348319D01*
X13082712Y5359505D01*
X13076493Y5360583D01*
X12555253Y5447214D01*
X12514375Y5449955D01*
X12473545Y5453266D01*
X12467236Y5453116D01*
X12467235Y5453116D01*
X11939095Y5436855D01*
X11898473Y5431605D01*
X11857767Y5426922D01*
X11851607Y5425549D01*
X11336683Y5307014D01*
X11297847Y5293972D01*
X11258834Y5281473D01*
X11253058Y5278930D01*
X10770963Y5062636D01*
X10735393Y5042295D01*
X10699558Y5022461D01*
X10694386Y5018844D01*
X10263485Y4713031D01*
X10232548Y4686172D01*
X10201242Y4659751D01*
X10196871Y4655199D01*
X9833576Y4271513D01*
X9808442Y4239154D01*
X9782868Y4207159D01*
X9779470Y4201851D01*
X9779464Y4201844D01*
X9779460Y4201836D01*
X9497614Y3754902D01*
X9479255Y3718299D01*
X9460371Y3681924D01*
X9458067Y3676055D01*
X9458064Y3676049D01*
X9458062Y3676043D01*
X9268393Y3182875D01*
X9257489Y3143388D01*
X9246034Y3104053D01*
X9244915Y3097852D01*
X9244912Y3097842D01*
X9244911Y3097832D01*
X9219626Y2952000D01*
X3322109Y2952000D01*
X3232828Y2960754D01*
X3168212Y2980263D01*
X3108622Y3011947D01*
X3056313Y3054609D01*
X3013294Y3106611D01*
X2981189Y3165987D01*
X2961232Y3230458D01*
X2952000Y3318288D01*
X2952000Y9822205D01*
X2950127Y9841221D01*
X2950135Y9842360D01*
X2949519Y9848641D01*
X2947568Y9867207D01*
X2945460Y9888607D01*
X2944668Y9891219D01*
X2937199Y9927607D01*
X2929526Y9967831D01*
X2927702Y9973873D01*
X2927702Y9973875D01*
X2927700Y9973881D01*
X2916160Y10011160D01*
X2900272Y10048957D01*
X2884939Y10086909D01*
X2881980Y10092473D01*
X2881976Y10092483D01*
X2881971Y10092491D01*
X2863411Y10126818D01*
X2840477Y10160820D01*
X2818064Y10195069D01*
X2814076Y10199960D01*
X2789194Y10230035D01*
X2760123Y10258904D01*
X2731463Y10288169D01*
X2726601Y10292192D01*
X2696352Y10316862D01*
X2662209Y10339546D01*
X2628432Y10362674D01*
X2622881Y10365676D01*
X2588417Y10384001D01*
X2550529Y10399617D01*
X2512888Y10415750D01*
X2506859Y10417617D01*
X2469492Y10428899D01*
X2429265Y10436864D01*
X2389231Y10445374D01*
X2382960Y10446033D01*
X2382957Y10446034D01*
X2382954Y10446034D01*
X2344108Y10449843D01*
X2344107Y10449843D01*
X1941477Y10489321D01*
X1596608Y10593442D01*
X1278532Y10762566D01*
X999362Y10990252D01*
X769736Y11267822D01*
X598396Y11584709D01*
X491868Y11928844D01*
X454213Y12287113D01*
X469072Y12450396D01*
X773000Y12450396D01*
X773000Y12149604D01*
X831681Y11854590D01*
X946790Y11576694D01*
X1113901Y11326594D01*
X1326594Y11113901D01*
X1576694Y10946790D01*
X1854590Y10831681D01*
X2149604Y10773000D01*
X2450396Y10773000D01*
X2745410Y10831681D01*
X3023306Y10946790D01*
X3273406Y11113901D01*
X3486099Y11326594D01*
X3653210Y11576694D01*
X3768319Y11854590D01*
X3827000Y12149604D01*
X3827000Y12450396D01*
X3768319Y12745410D01*
X3653210Y13023306D01*
X3486099Y13273406D01*
X3273406Y13486099D01*
X3023306Y13653210D01*
X2745410Y13768319D01*
X2450396Y13827000D01*
X2149604Y13827000D01*
X1854590Y13768319D01*
X1576694Y13653210D01*
X1326594Y13486099D01*
X1113901Y13273406D01*
X946790Y13023306D01*
X831681Y12745410D01*
X773000Y12450396D01*
X469072Y12450396D01*
X486862Y12645874D01*
X588574Y12991462D01*
X755473Y13310709D01*
X981204Y13591463D01*
X1257165Y13823021D01*
X1572851Y13996570D01*
X1916229Y14105496D01*
X2294729Y14147952D01*
X2302415Y14148006D01*
X2303015Y14148008D01*
X2303037Y14148010D01*
X2303153Y14148011D01*
X2306367Y14148349D01*
X2322636Y14150003D01*
X2342360Y14149865D01*
X2348641Y14150481D01*
X2387461Y14154561D01*
X2427600Y14162800D01*
X2467832Y14170474D01*
X2473869Y14172297D01*
X2473875Y14172298D01*
X2473881Y14172300D01*
X2511161Y14183840D01*
X2548959Y14199729D01*
X2586909Y14215061D01*
X2592478Y14218022D01*
X2592483Y14218024D01*
X2592489Y14218028D01*
X2626818Y14236589D01*
X2660820Y14259523D01*
X2695069Y14281936D01*
X2699942Y14285910D01*
X2699952Y14285917D01*
X2699960Y14285925D01*
X2730035Y14310806D01*
X2758884Y14339858D01*
X2788169Y14368536D01*
X2792192Y14373399D01*
X2816861Y14403648D01*
X2839523Y14437757D01*
X2862674Y14471568D01*
X2865676Y14477119D01*
X2884001Y14511583D01*
X2899617Y14549471D01*
X2915750Y14587112D01*
X2917617Y14593141D01*
X2928899Y14630508D01*
X2936864Y14670735D01*
X2945374Y14710769D01*
X2945429Y14711290D01*
X2945460Y14711393D01*
X2945761Y14714448D01*
X2946034Y14717045D01*
X2949843Y14755892D01*
X2949843Y14755895D01*
X2952000Y14777795D01*
X2952000Y16300000D01*
X3873000Y16300000D01*
X3873000Y8300000D01*
X3876653Y8244266D01*
X3893690Y8114856D01*
X3922540Y8007184D01*
X3972490Y7886594D01*
X4028227Y7790057D01*
X4107687Y7686504D01*
X4186504Y7607687D01*
X4290057Y7528227D01*
X4386594Y7472490D01*
X4507184Y7422540D01*
X4614856Y7393690D01*
X4744266Y7376653D01*
X4800000Y7373000D01*
X9800000Y7373000D01*
X9855734Y7376653D01*
X9985144Y7393690D01*
X10092816Y7422540D01*
X10213406Y7472490D01*
X10309943Y7528227D01*
X10413496Y7607687D01*
X10492313Y7686504D01*
X10571773Y7790057D01*
X10627510Y7886594D01*
X10677460Y8007184D01*
X10706310Y8114856D01*
X10733046Y8317939D01*
X10739972Y8334659D01*
X10750986Y8349014D01*
X10765341Y8360028D01*
X10782061Y8366954D01*
X10827986Y8373000D01*
X11716024Y8373000D01*
X11759072Y8329952D01*
X11910901Y8228504D01*
X12079604Y8158624D01*
X12258699Y8123000D01*
X12441301Y8123000D01*
X12620396Y8158624D01*
X12789099Y8228504D01*
X12940928Y8329952D01*
X13070048Y8459072D01*
X13171496Y8610901D01*
X13241376Y8779604D01*
X13277000Y8958699D01*
X13277000Y9141301D01*
X13241376Y9320396D01*
X13171496Y9489099D01*
X13070048Y9640928D01*
X12940928Y9770048D01*
X12789099Y9871496D01*
X12620396Y9941376D01*
X12441301Y9977000D01*
X12258699Y9977000D01*
X12079604Y9941376D01*
X11910901Y9871496D01*
X11759072Y9770048D01*
X11716024Y9727000D01*
X10827986Y9727000D01*
X10782061Y9733046D01*
X10765341Y9739972D01*
X10750986Y9750986D01*
X10739972Y9765341D01*
X10733046Y9782061D01*
X10727000Y9827986D01*
X10727000Y16300000D01*
X10723347Y16355734D01*
X10706310Y16485144D01*
X10677460Y16592816D01*
X10627510Y16713406D01*
X10571773Y16809943D01*
X10492313Y16913496D01*
X10413496Y16992313D01*
X10309943Y17071773D01*
X10213406Y17127510D01*
X10092816Y17177460D01*
X9985144Y17206310D01*
X9855734Y17223347D01*
X9800000Y17227000D01*
X8977986Y17227000D01*
X8932061Y17233046D01*
X8915341Y17239972D01*
X8900986Y17250986D01*
X8889972Y17265341D01*
X8883046Y17282061D01*
X8877000Y17327986D01*
X8877000Y17401002D01*
X10945089Y17401002D01*
X10948000Y17371445D01*
X10948001Y15829566D01*
X10945089Y15800000D01*
X10956712Y15681988D01*
X10991134Y15568511D01*
X11047035Y15463929D01*
X11073153Y15432105D01*
X11122264Y15372263D01*
X11145229Y15353416D01*
X11423000Y15075644D01*
X11423000Y14963623D01*
X11456703Y14794189D01*
X11522813Y14634585D01*
X11618790Y14490945D01*
X11623000Y14486735D01*
X11623000Y14168247D01*
X11619726Y14135002D01*
X11623000Y14101757D01*
X11623000Y14101751D01*
X11631552Y14014918D01*
X11632796Y14002288D01*
X11671508Y13874673D01*
X11734372Y13757062D01*
X11794191Y13684173D01*
X11818973Y13653976D01*
X11844800Y13632780D01*
X12131279Y13346301D01*
X12104691Y13328536D01*
X11996464Y13220309D01*
X11911431Y13093048D01*
X11852859Y12951643D01*
X11823000Y12801528D01*
X11823000Y12648472D01*
X11852859Y12498357D01*
X11911431Y12356952D01*
X11949485Y12300000D01*
X11911431Y12243048D01*
X11852859Y12101643D01*
X11823000Y11951528D01*
X11823000Y11798472D01*
X11852859Y11648357D01*
X11911431Y11506952D01*
X11996464Y11379691D01*
X12104691Y11271464D01*
X12231952Y11186431D01*
X12373357Y11127859D01*
X12523472Y11098000D01*
X12676528Y11098000D01*
X12826643Y11127859D01*
X12968048Y11186431D01*
X13095309Y11271464D01*
X13203536Y11379691D01*
X13288569Y11506952D01*
X13347141Y11648357D01*
X13377000Y11798472D01*
X13377000Y11951528D01*
X13347141Y12101643D01*
X13326779Y12150801D01*
X16632776Y8844804D01*
X16653975Y8818973D01*
X16757061Y8734372D01*
X16874672Y8671508D01*
X17002287Y8632796D01*
X17101750Y8623000D01*
X17101759Y8623000D01*
X17135001Y8619726D01*
X17168243Y8623000D01*
X17574643Y8623000D01*
X17658269Y8567123D01*
X17808773Y8504782D01*
X17907418Y8485160D01*
X20947774Y5444804D01*
X20968973Y5418973D01*
X21072059Y5334372D01*
X21189670Y5271508D01*
X21317285Y5232796D01*
X21416748Y5223000D01*
X21416757Y5223000D01*
X21449999Y5219726D01*
X21483241Y5223000D01*
X23724643Y5223000D01*
X23808269Y5167123D01*
X23958773Y5104782D01*
X24118548Y5073000D01*
X24281452Y5073000D01*
X24441227Y5104782D01*
X24591731Y5167123D01*
X24727181Y5257628D01*
X24842372Y5372819D01*
X24842493Y5373000D01*
X25124119Y5373000D01*
X25150000Y5370451D01*
X25175881Y5373000D01*
X25253310Y5380626D01*
X25352650Y5410761D01*
X25444202Y5459696D01*
X25524448Y5525552D01*
X25540955Y5545666D01*
X27768290Y7773000D01*
X27876528Y7773000D01*
X28026643Y7802859D01*
X28168048Y7861431D01*
X28295309Y7946464D01*
X28403536Y8054691D01*
X28488569Y8181952D01*
X28547141Y8323357D01*
X28577000Y8473472D01*
X28577000Y8626528D01*
X28547141Y8776643D01*
X28488569Y8918048D01*
X28403536Y9045309D01*
X28295309Y9153536D01*
X28168048Y9238569D01*
X28026643Y9297141D01*
X27876528Y9327000D01*
X27723472Y9327000D01*
X27573357Y9297141D01*
X27431952Y9238569D01*
X27304691Y9153536D01*
X27196464Y9045309D01*
X27111431Y8918048D01*
X27052859Y8776643D01*
X27023000Y8626528D01*
X27023000Y8518290D01*
X25775272Y7270562D01*
X25797141Y7323357D01*
X25827000Y7473472D01*
X25827000Y7626528D01*
X25797141Y7776643D01*
X25738569Y7918048D01*
X25653536Y8045309D01*
X25545309Y8153536D01*
X25418048Y8238569D01*
X25276643Y8297141D01*
X25126528Y8327000D01*
X24973472Y8327000D01*
X24823357Y8297141D01*
X24681952Y8238569D01*
X24554691Y8153536D01*
X24446464Y8045309D01*
X24361431Y7918048D01*
X24302859Y7776643D01*
X24273000Y7626528D01*
X24273000Y7473472D01*
X24302859Y7323357D01*
X24361431Y7181952D01*
X24446464Y7054691D01*
X24554691Y6946464D01*
X24681952Y6861431D01*
X24823357Y6802859D01*
X24973472Y6773000D01*
X25126528Y6773000D01*
X25276643Y6802859D01*
X25329438Y6824728D01*
X24931711Y6427000D01*
X24842493Y6427000D01*
X24842372Y6427181D01*
X24727181Y6542372D01*
X24591731Y6632877D01*
X24441227Y6695218D01*
X24281452Y6727000D01*
X24118548Y6727000D01*
X23958773Y6695218D01*
X23808269Y6632877D01*
X23724643Y6577000D01*
X21730422Y6577000D01*
X20884422Y7423000D01*
X20976528Y7423000D01*
X21126643Y7452859D01*
X21268048Y7511431D01*
X21395309Y7596464D01*
X21503536Y7704691D01*
X21588569Y7831952D01*
X21647141Y7973357D01*
X21677000Y8123472D01*
X21677000Y8276528D01*
X21647141Y8426643D01*
X21588569Y8568048D01*
X21503536Y8695309D01*
X21395309Y8803536D01*
X21268048Y8888569D01*
X21126643Y8947141D01*
X20976528Y8977000D01*
X20823472Y8977000D01*
X20673357Y8947141D01*
X20531952Y8888569D01*
X20404691Y8803536D01*
X20296464Y8695309D01*
X20211431Y8568048D01*
X20152859Y8426643D01*
X20123000Y8276528D01*
X20123000Y8184422D01*
X18864840Y9442582D01*
X18845218Y9541227D01*
X18782877Y9691731D01*
X18692372Y9827181D01*
X18633779Y9885774D01*
X32265000Y9885774D01*
X32265000Y9634226D01*
X32314074Y9387513D01*
X32410337Y9155114D01*
X32550089Y8945960D01*
X32727960Y8768089D01*
X32937114Y8628337D01*
X33169513Y8532074D01*
X33381034Y8490000D01*
X33169513Y8447926D01*
X32937114Y8351663D01*
X32727960Y8211911D01*
X32550089Y8034040D01*
X32410337Y7824886D01*
X32314074Y7592487D01*
X32265000Y7345774D01*
X32265000Y7094226D01*
X32314074Y6847513D01*
X32410337Y6615114D01*
X32550089Y6405960D01*
X32727960Y6228089D01*
X32937114Y6088337D01*
X33169513Y5992074D01*
X33416226Y5943000D01*
X33667774Y5943000D01*
X33914487Y5992074D01*
X34146886Y6088337D01*
X34356040Y6228089D01*
X34533911Y6405960D01*
X34673663Y6615114D01*
X34769926Y6847513D01*
X34784222Y6919385D01*
X34995833Y6919385D01*
X35011866Y6866508D01*
X35101391Y6664527D01*
X35228601Y6483893D01*
X35388606Y6331547D01*
X35575258Y6213344D01*
X35781384Y6133826D01*
X35955000Y6169422D01*
X35955000Y7093000D01*
X36209000Y7093000D01*
X36209000Y6169422D01*
X36382616Y6133826D01*
X36588742Y6213344D01*
X36775394Y6331547D01*
X36935399Y6483893D01*
X37062609Y6664527D01*
X37152134Y6866508D01*
X37168167Y6919385D01*
X37132098Y7093000D01*
X36209000Y7093000D01*
X35955000Y7093000D01*
X35031902Y7093000D01*
X34995833Y6919385D01*
X34784222Y6919385D01*
X34819000Y7094226D01*
X34819000Y7345774D01*
X34784223Y7520615D01*
X34995833Y7520615D01*
X35031902Y7347000D01*
X35955000Y7347000D01*
X35955000Y8270578D01*
X36209000Y8270578D01*
X36209000Y7347000D01*
X37132098Y7347000D01*
X37168167Y7520615D01*
X37152134Y7573492D01*
X37062609Y7775473D01*
X36935399Y7956107D01*
X36775394Y8108453D01*
X36588742Y8226656D01*
X36382616Y8306174D01*
X36209000Y8270578D01*
X35955000Y8270578D01*
X35781384Y8306174D01*
X35575258Y8226656D01*
X35388606Y8108453D01*
X35228601Y7956107D01*
X35101391Y7775473D01*
X35011866Y7573492D01*
X34995833Y7520615D01*
X34784223Y7520615D01*
X34769926Y7592487D01*
X34673663Y7824886D01*
X34533911Y8034040D01*
X34356040Y8211911D01*
X34146886Y8351663D01*
X33914487Y8447926D01*
X33702966Y8490000D01*
X33914487Y8532074D01*
X34146886Y8628337D01*
X34356040Y8768089D01*
X34533911Y8945960D01*
X34673663Y9155114D01*
X34769926Y9387513D01*
X34812000Y9599034D01*
X34854074Y9387513D01*
X34950337Y9155114D01*
X35090089Y8945960D01*
X35267960Y8768089D01*
X35477114Y8628337D01*
X35709513Y8532074D01*
X35956226Y8483000D01*
X36207774Y8483000D01*
X36454487Y8532074D01*
X36686886Y8628337D01*
X36896040Y8768089D01*
X37073911Y8945960D01*
X37213663Y9155114D01*
X37309926Y9387513D01*
X37359000Y9634226D01*
X37359000Y9885774D01*
X37309926Y10132487D01*
X37213663Y10364886D01*
X37073911Y10574040D01*
X36896040Y10751911D01*
X36686886Y10891663D01*
X36454487Y10987926D01*
X36207774Y11037000D01*
X35956226Y11037000D01*
X35709513Y10987926D01*
X35477114Y10891663D01*
X35267960Y10751911D01*
X35090089Y10574040D01*
X34950337Y10364886D01*
X34854074Y10132487D01*
X34812000Y9920966D01*
X34769926Y10132487D01*
X34673663Y10364886D01*
X34533911Y10574040D01*
X34356040Y10751911D01*
X34146886Y10891663D01*
X33914487Y10987926D01*
X33667774Y11037000D01*
X33416226Y11037000D01*
X33169513Y10987926D01*
X32937114Y10891663D01*
X32727960Y10751911D01*
X32550089Y10574040D01*
X32410337Y10364886D01*
X32314074Y10132487D01*
X32265000Y9885774D01*
X18633779Y9885774D01*
X18577181Y9942372D01*
X18441731Y10032877D01*
X18291227Y10095218D01*
X18131452Y10127000D01*
X17968548Y10127000D01*
X17808773Y10095218D01*
X17658269Y10032877D01*
X17574643Y9977000D01*
X17415424Y9977000D01*
X15393039Y11999385D01*
X32455833Y11999385D01*
X32471866Y11946508D01*
X32561391Y11744527D01*
X32688601Y11563893D01*
X32848606Y11411547D01*
X33035258Y11293344D01*
X33241384Y11213826D01*
X33415000Y11249422D01*
X33415000Y12173000D01*
X33669000Y12173000D01*
X33669000Y11249422D01*
X33842616Y11213826D01*
X34048742Y11293344D01*
X34235394Y11411547D01*
X34395399Y11563893D01*
X34522609Y11744527D01*
X34612134Y11946508D01*
X34628167Y11999385D01*
X34995833Y11999385D01*
X35011866Y11946508D01*
X35101391Y11744527D01*
X35228601Y11563893D01*
X35388606Y11411547D01*
X35575258Y11293344D01*
X35781384Y11213826D01*
X35955000Y11249422D01*
X35955000Y12173000D01*
X36209000Y12173000D01*
X36209000Y11249422D01*
X36382616Y11213826D01*
X36588742Y11293344D01*
X36775394Y11411547D01*
X36935399Y11563893D01*
X37062609Y11744527D01*
X37152134Y11946508D01*
X37168167Y11999385D01*
X37132098Y12173000D01*
X36209000Y12173000D01*
X35955000Y12173000D01*
X35031902Y12173000D01*
X34995833Y11999385D01*
X34628167Y11999385D01*
X34592098Y12173000D01*
X33669000Y12173000D01*
X33415000Y12173000D01*
X32491902Y12173000D01*
X32455833Y11999385D01*
X15393039Y11999385D01*
X14515896Y12876528D01*
X27023000Y12876528D01*
X27023000Y12723472D01*
X27052859Y12573357D01*
X27111431Y12431952D01*
X27196464Y12304691D01*
X27304691Y12196464D01*
X27431952Y12111431D01*
X27573357Y12052859D01*
X27723472Y12023000D01*
X27876528Y12023000D01*
X28026643Y12052859D01*
X28168048Y12111431D01*
X28295309Y12196464D01*
X28403536Y12304691D01*
X28488569Y12431952D01*
X28547141Y12573357D01*
X28552562Y12600615D01*
X32455833Y12600615D01*
X32491902Y12427000D01*
X33415000Y12427000D01*
X33415000Y13350578D01*
X33669000Y13350578D01*
X33669000Y12427000D01*
X34592098Y12427000D01*
X34628167Y12600615D01*
X34995833Y12600615D01*
X35031902Y12427000D01*
X35955000Y12427000D01*
X35955000Y13350578D01*
X36209000Y13350578D01*
X36209000Y12427000D01*
X37132098Y12427000D01*
X37168167Y12600615D01*
X37152134Y12653492D01*
X37062609Y12855473D01*
X36935399Y13036107D01*
X36775394Y13188453D01*
X36588742Y13306656D01*
X36382616Y13386174D01*
X36209000Y13350578D01*
X35955000Y13350578D01*
X35781384Y13386174D01*
X35575258Y13306656D01*
X35388606Y13188453D01*
X35228601Y13036107D01*
X35101391Y12855473D01*
X35011866Y12653492D01*
X34995833Y12600615D01*
X34628167Y12600615D01*
X34612134Y12653492D01*
X34522609Y12855473D01*
X34395399Y13036107D01*
X34235394Y13188453D01*
X34048742Y13306656D01*
X33842616Y13386174D01*
X33669000Y13350578D01*
X33415000Y13350578D01*
X33241384Y13386174D01*
X33035258Y13306656D01*
X32848606Y13188453D01*
X32688601Y13036107D01*
X32561391Y12855473D01*
X32471866Y12653492D01*
X32455833Y12600615D01*
X28552562Y12600615D01*
X28577000Y12723472D01*
X28577000Y12876528D01*
X28547141Y13026643D01*
X28488569Y13168048D01*
X28403536Y13295309D01*
X28295309Y13403536D01*
X28168048Y13488569D01*
X28026643Y13547141D01*
X27876528Y13577000D01*
X27723472Y13577000D01*
X27573357Y13547141D01*
X27431952Y13488569D01*
X27304691Y13403536D01*
X27196464Y13295309D01*
X27111431Y13168048D01*
X27052859Y13026643D01*
X27023000Y12876528D01*
X14515896Y12876528D01*
X13019424Y14373000D01*
X15316755Y14373000D01*
X15350000Y14369726D01*
X15383245Y14373000D01*
X15383252Y14373000D01*
X15482715Y14382796D01*
X15610330Y14421508D01*
X15727941Y14484372D01*
X15831027Y14568973D01*
X15852226Y14594804D01*
X16849196Y15591773D01*
X16852859Y15573357D01*
X16911431Y15431952D01*
X16996464Y15304691D01*
X17104691Y15196464D01*
X17231952Y15111431D01*
X17373357Y15052859D01*
X17523472Y15023000D01*
X17676528Y15023000D01*
X17826643Y15052859D01*
X17968048Y15111431D01*
X18095309Y15196464D01*
X18203536Y15304691D01*
X18288569Y15431952D01*
X18347141Y15573357D01*
X18377000Y15723472D01*
X18377000Y15876528D01*
X18347141Y16026643D01*
X18307229Y16123000D01*
X18824643Y16123000D01*
X18908269Y16067123D01*
X19058773Y16004782D01*
X19157418Y15985160D01*
X19797778Y15344799D01*
X19818973Y15318973D01*
X19844799Y15297778D01*
X19844801Y15297776D01*
X19922059Y15234372D01*
X20039670Y15171508D01*
X20167285Y15132796D01*
X20300000Y15119725D01*
X20333252Y15123000D01*
X23266755Y15123000D01*
X23300000Y15119726D01*
X23333245Y15123000D01*
X23333252Y15123000D01*
X23432715Y15132796D01*
X23560330Y15171508D01*
X23677941Y15234372D01*
X23781027Y15318973D01*
X23802226Y15344804D01*
X24442583Y15985160D01*
X24541227Y16004782D01*
X24691731Y16067123D01*
X24775357Y16123000D01*
X26519578Y16123000D01*
X26748796Y15893782D01*
X26752859Y15873357D01*
X26811431Y15731952D01*
X26896464Y15604691D01*
X27004691Y15496464D01*
X27131952Y15411431D01*
X27273357Y15352859D01*
X27423472Y15323000D01*
X27576528Y15323000D01*
X27726643Y15352859D01*
X27868048Y15411431D01*
X27885362Y15423000D01*
X32401272Y15423000D01*
X32314074Y15212487D01*
X32265000Y14965774D01*
X32265000Y14714226D01*
X32314074Y14467513D01*
X32410337Y14235114D01*
X32550089Y14025960D01*
X32727960Y13848089D01*
X32937114Y13708337D01*
X33169513Y13612074D01*
X33416226Y13563000D01*
X33667774Y13563000D01*
X33914487Y13612074D01*
X34146886Y13708337D01*
X34356040Y13848089D01*
X34533911Y14025960D01*
X34673663Y14235114D01*
X34769926Y14467513D01*
X34812000Y14679034D01*
X34854074Y14467513D01*
X34950337Y14235114D01*
X35090089Y14025960D01*
X35267960Y13848089D01*
X35477114Y13708337D01*
X35709513Y13612074D01*
X35956226Y13563000D01*
X36207774Y13563000D01*
X36454487Y13612074D01*
X36686886Y13708337D01*
X36896040Y13848089D01*
X37073911Y14025960D01*
X37213663Y14235114D01*
X37309926Y14467513D01*
X37359000Y14714226D01*
X37359000Y14965774D01*
X37309926Y15212487D01*
X37213663Y15444886D01*
X37073911Y15654040D01*
X36896040Y15831911D01*
X36686886Y15971663D01*
X36454487Y16067926D01*
X36242966Y16110000D01*
X36454487Y16152074D01*
X36686886Y16248337D01*
X36896040Y16388089D01*
X37073911Y16565960D01*
X37213663Y16775114D01*
X37309926Y17007513D01*
X37359000Y17254226D01*
X37359000Y17505774D01*
X37309926Y17752487D01*
X37213663Y17984886D01*
X37073911Y18194040D01*
X36896040Y18371911D01*
X36686886Y18511663D01*
X36454487Y18607926D01*
X36207774Y18657000D01*
X35956226Y18657000D01*
X35709513Y18607926D01*
X35477114Y18511663D01*
X35267960Y18371911D01*
X35090089Y18194040D01*
X34950337Y17984886D01*
X34854074Y17752487D01*
X34821066Y17586544D01*
X34821066Y18230000D01*
X34812822Y18313707D01*
X34788405Y18394196D01*
X34748755Y18468376D01*
X34695395Y18533395D01*
X34630376Y18586755D01*
X34556196Y18626405D01*
X34475707Y18650822D01*
X34392000Y18659066D01*
X32692000Y18659066D01*
X32608293Y18650822D01*
X32527804Y18626405D01*
X32453624Y18586755D01*
X32388605Y18533395D01*
X32335245Y18468376D01*
X32295595Y18394196D01*
X32271178Y18313707D01*
X32262934Y18230000D01*
X32262934Y16777000D01*
X27885362Y16777000D01*
X27868048Y16788569D01*
X27726643Y16847141D01*
X27706218Y16851204D01*
X27302226Y17255196D01*
X27281027Y17281027D01*
X27177941Y17365628D01*
X27060330Y17428492D01*
X26932715Y17467204D01*
X26833252Y17477000D01*
X26833245Y17477000D01*
X26800000Y17480274D01*
X26766755Y17477000D01*
X24775357Y17477000D01*
X24691731Y17532877D01*
X24541227Y17595218D01*
X24381452Y17627000D01*
X24218548Y17627000D01*
X24058773Y17595218D01*
X23908269Y17532877D01*
X23772819Y17442372D01*
X23657628Y17327181D01*
X23567123Y17191731D01*
X23504782Y17041227D01*
X23485160Y16942583D01*
X23019578Y16477000D01*
X22242756Y16477000D01*
X22252000Y16523472D01*
X22252000Y16676528D01*
X22222141Y16826643D01*
X22163569Y16968048D01*
X22078536Y17095309D01*
X21970309Y17203536D01*
X21843048Y17288569D01*
X21701643Y17347141D01*
X21551528Y17377000D01*
X21398472Y17377000D01*
X21248357Y17347141D01*
X21106952Y17288569D01*
X21050000Y17250515D01*
X20993048Y17288569D01*
X20851643Y17347141D01*
X20701528Y17377000D01*
X20548472Y17377000D01*
X20398357Y17347141D01*
X20256952Y17288569D01*
X20129691Y17203536D01*
X20057776Y17131621D01*
X20032877Y17191731D01*
X19942372Y17327181D01*
X19859199Y17410354D01*
X19903536Y17454691D01*
X19988569Y17581952D01*
X20047141Y17723357D01*
X20077000Y17873472D01*
X20077000Y18026528D01*
X20047141Y18176643D01*
X19988569Y18318048D01*
X19903536Y18445309D01*
X19795309Y18553536D01*
X19668048Y18638569D01*
X19526643Y18697141D01*
X19376528Y18727000D01*
X19223472Y18727000D01*
X19073357Y18697141D01*
X18931952Y18638569D01*
X18804691Y18553536D01*
X18696464Y18445309D01*
X18611431Y18318048D01*
X18552859Y18176643D01*
X18523000Y18026528D01*
X18523000Y17873472D01*
X18552859Y17723357D01*
X18611431Y17581952D01*
X18681558Y17477000D01*
X17133252Y17477000D01*
X17100000Y17480275D01*
X17066748Y17477000D01*
X16967285Y17467204D01*
X16839670Y17428492D01*
X16722059Y17365628D01*
X16618973Y17281027D01*
X16597778Y17255201D01*
X15069578Y15727000D01*
X12863265Y15727000D01*
X12859055Y15731210D01*
X12715415Y15827187D01*
X12555811Y15893297D01*
X12386377Y15927000D01*
X12274356Y15927000D01*
X12152000Y16049355D01*
X12152000Y17151647D01*
X12598354Y17598000D01*
X13920444Y17598000D01*
X13950000Y17595089D01*
X13979556Y17598000D01*
X13979566Y17598000D01*
X14068012Y17606711D01*
X14181490Y17641134D01*
X14286071Y17697034D01*
X14377737Y17772263D01*
X14396589Y17795234D01*
X15074356Y18473000D01*
X15131452Y18473000D01*
X15291227Y18504782D01*
X15441731Y18567123D01*
X15577181Y18657628D01*
X15692372Y18772819D01*
X15782877Y18908269D01*
X15845218Y19058773D01*
X15877000Y19218548D01*
X15877000Y19381452D01*
X15845218Y19541227D01*
X15782877Y19691731D01*
X15692372Y19827181D01*
X15577181Y19942372D01*
X15441731Y20032877D01*
X15291227Y20095218D01*
X15131452Y20127000D01*
X14968548Y20127000D01*
X14808773Y20095218D01*
X14658269Y20032877D01*
X14522819Y19942372D01*
X14407628Y19827181D01*
X14317123Y19691731D01*
X14254782Y19541227D01*
X14223000Y19381452D01*
X14223000Y19324356D01*
X13700645Y18802000D01*
X12378554Y18802000D01*
X12348998Y18804911D01*
X12319441Y18802000D01*
X12319432Y18802000D01*
X12230986Y18793289D01*
X12117508Y18758866D01*
X12012927Y18702966D01*
X11921261Y18627737D01*
X11902413Y18604771D01*
X11145234Y17847591D01*
X11122263Y17828739D01*
X11047034Y17737072D01*
X10991134Y17632491D01*
X10956711Y17519013D01*
X10948000Y17430567D01*
X10948000Y17430558D01*
X10945089Y17401002D01*
X8877000Y17401002D01*
X8877000Y19166024D01*
X8920048Y19209072D01*
X9021496Y19360901D01*
X9091376Y19529604D01*
X9127000Y19708699D01*
X9127000Y19891301D01*
X9091376Y20070396D01*
X9021496Y20239099D01*
X8920048Y20390928D01*
X8790928Y20520048D01*
X8639099Y20621496D01*
X8470396Y20691376D01*
X8291301Y20727000D01*
X8108699Y20727000D01*
X7929604Y20691376D01*
X7760901Y20621496D01*
X7609072Y20520048D01*
X7565000Y20475976D01*
X7520928Y20520048D01*
X7369099Y20621496D01*
X7200396Y20691376D01*
X7021301Y20727000D01*
X6838699Y20727000D01*
X6659604Y20691376D01*
X6490901Y20621496D01*
X6339072Y20520048D01*
X6295000Y20475976D01*
X6250928Y20520048D01*
X6099099Y20621496D01*
X5930396Y20691376D01*
X5751301Y20727000D01*
X5568699Y20727000D01*
X5389604Y20691376D01*
X5220901Y20621496D01*
X5069072Y20520048D01*
X5064310Y20515286D01*
X5044637Y20531431D01*
X4996516Y20557153D01*
X4944301Y20572992D01*
X4890000Y20578340D01*
X4586250Y20577000D01*
X4517000Y20507750D01*
X4517000Y19927000D01*
X4537000Y19927000D01*
X4537000Y19673000D01*
X4517000Y19673000D01*
X4517000Y19092250D01*
X4586250Y19023000D01*
X4890000Y19021660D01*
X4944301Y19027008D01*
X4996516Y19042847D01*
X5044637Y19068569D01*
X5064310Y19084714D01*
X5069072Y19079952D01*
X5220901Y18978504D01*
X5389604Y18908624D01*
X5568699Y18873000D01*
X5751301Y18873000D01*
X5930396Y18908624D01*
X6099099Y18978504D01*
X6250928Y19079952D01*
X6295000Y19124024D01*
X6339072Y19079952D01*
X6490901Y18978504D01*
X6659604Y18908624D01*
X6838699Y18873000D01*
X7021301Y18873000D01*
X7200396Y18908624D01*
X7369099Y18978504D01*
X7520928Y19079952D01*
X7523000Y19082024D01*
X7523001Y18050005D01*
X7523000Y18050000D01*
X7523000Y17327986D01*
X7516954Y17282061D01*
X7510028Y17265341D01*
X7499014Y17250986D01*
X7484659Y17239972D01*
X7467939Y17233046D01*
X7422014Y17227000D01*
X4800000Y17227000D01*
X4744266Y17223347D01*
X4614856Y17206310D01*
X4507184Y17177460D01*
X4386594Y17127510D01*
X4290057Y17071773D01*
X4186504Y16992313D01*
X4107687Y16913496D01*
X4028227Y16809943D01*
X3972490Y16713406D01*
X3922540Y16592816D01*
X3893690Y16485144D01*
X3876653Y16355734D01*
X3873000Y16300000D01*
X2952000Y16300000D01*
X2952000Y19300000D01*
X3611660Y19300000D01*
X3617008Y19245699D01*
X3632847Y19193484D01*
X3658569Y19145363D01*
X3693184Y19103184D01*
X3735363Y19068569D01*
X3783484Y19042847D01*
X3835699Y19027008D01*
X3890000Y19021660D01*
X4193750Y19023000D01*
X4263000Y19092250D01*
X4263000Y19673000D01*
X3682250Y19673000D01*
X3613000Y19603750D01*
X3611660Y19300000D01*
X2952000Y19300000D01*
X2952000Y20300000D01*
X3611660Y20300000D01*
X3613000Y19996250D01*
X3682250Y19927000D01*
X4263000Y19927000D01*
X4263000Y20507750D01*
X4193750Y20577000D01*
X3890000Y20578340D01*
X3835699Y20572992D01*
X3783484Y20557153D01*
X3735363Y20531431D01*
X3693184Y20496816D01*
X3658569Y20454637D01*
X3632847Y20406516D01*
X3617008Y20354301D01*
X3611660Y20300000D01*
X2952000Y20300000D01*
X2952000Y21277891D01*
X2960754Y21367173D01*
X2980263Y21431789D01*
X3011948Y21491380D01*
X3054607Y21543685D01*
X3106613Y21586708D01*
X3165988Y21618812D01*
X3230457Y21638768D01*
X3318288Y21648000D01*
X9220846Y21648000D01*
X9299785Y21315714D01*
X9313084Y21277012D01*
X9325868Y21238044D01*
X9328452Y21232286D01*
X9548106Y20751714D01*
X9568685Y20716304D01*
X9588778Y20680591D01*
X9592431Y20675444D01*
X9901245Y20246688D01*
X9928328Y20215929D01*
X9954958Y20184819D01*
X9959535Y20180486D01*
X9959540Y20180480D01*
X9959546Y20180476D01*
X10345753Y19819873D01*
X10378268Y19794980D01*
X10410460Y19769615D01*
X10415798Y19766249D01*
X10864697Y19487525D01*
X10901429Y19469422D01*
X10937934Y19450792D01*
X10943824Y19448527D01*
X11438312Y19262303D01*
X11477854Y19251681D01*
X11517288Y19240495D01*
X11523506Y19239417D01*
X12044747Y19152786D01*
X12085625Y19150045D01*
X12126455Y19146734D01*
X12132764Y19146884D01*
X12132765Y19146884D01*
X12660905Y19163145D01*
X12701527Y19168395D01*
X12742233Y19173078D01*
X12748393Y19174451D01*
X13263317Y19292986D01*
X13302143Y19306025D01*
X13341166Y19318527D01*
X13346943Y19321070D01*
X13829037Y19537364D01*
X13864621Y19557713D01*
X13900442Y19577539D01*
X13905610Y19581153D01*
X13905615Y19581156D01*
X13905619Y19581160D01*
X14336514Y19886969D01*
X14367433Y19913811D01*
X14398758Y19940249D01*
X14403129Y19944801D01*
X14766424Y20328487D01*
X14791558Y20360846D01*
X14817132Y20392841D01*
X14820530Y20398149D01*
X14820536Y20398156D01*
X14820540Y20398164D01*
X15102386Y20845098D01*
X15120745Y20881701D01*
X15139629Y20918076D01*
X15141935Y20923950D01*
X15141936Y20923951D01*
X15141938Y20923957D01*
X15331607Y21417125D01*
X15342514Y21456622D01*
X15353966Y21495948D01*
X15355085Y21502148D01*
X15355088Y21502158D01*
X15355089Y21502168D01*
X15380374Y21648000D01*
X29822205Y21648000D01*
X29841221Y21649873D01*
X29842360Y21649865D01*
X29848641Y21650481D01*
X29867207Y21652432D01*
X29888607Y21654540D01*
X29891219Y21655332D01*
X29927600Y21662800D01*
X29967832Y21670474D01*
X29973869Y21672297D01*
X29973875Y21672298D01*
X29973881Y21672300D01*
X30011161Y21683840D01*
X30048959Y21699729D01*
X30086909Y21715061D01*
X30092478Y21718022D01*
X30092483Y21718024D01*
X30092489Y21718028D01*
X30126818Y21736589D01*
X30160820Y21759523D01*
X30195069Y21781936D01*
X30199942Y21785910D01*
X30199952Y21785917D01*
X30199960Y21785925D01*
X30230035Y21810806D01*
X30258884Y21839858D01*
X30288169Y21868536D01*
X30292192Y21873399D01*
X30316861Y21903648D01*
X30339523Y21937757D01*
X30362674Y21971568D01*
X30365676Y21977119D01*
X30384001Y22011583D01*
X30399617Y22049471D01*
X30415750Y22087112D01*
X30417617Y22093141D01*
X30428899Y22130508D01*
X30436864Y22170735D01*
X30445374Y22210769D01*
X30446034Y22217045D01*
X30449843Y22255892D01*
X30449843Y22255893D01*
X30468914Y22450396D01*
X30773000Y22450396D01*
X30773000Y22149604D01*
X30831681Y21854590D01*
X30946790Y21576694D01*
X31113901Y21326594D01*
X31326594Y21113901D01*
X31576694Y20946790D01*
X31854590Y20831681D01*
X32149604Y20773000D01*
X32450396Y20773000D01*
X32745410Y20831681D01*
X33023306Y20946790D01*
X33273406Y21113901D01*
X33486099Y21326594D01*
X33653210Y21576694D01*
X33768319Y21854590D01*
X33827000Y22149604D01*
X33827000Y22450396D01*
X33768319Y22745410D01*
X33653210Y23023306D01*
X33486099Y23273406D01*
X33273406Y23486099D01*
X33023306Y23653210D01*
X32745410Y23768319D01*
X32450396Y23827000D01*
X32149604Y23827000D01*
X31854590Y23768319D01*
X31576694Y23653210D01*
X31326594Y23486099D01*
X31113901Y23273406D01*
X30946790Y23023306D01*
X30831681Y22745410D01*
X30773000Y22450396D01*
X30468914Y22450396D01*
X30489322Y22658528D01*
X30593443Y23003392D01*
X30762569Y23321471D01*
X30990252Y23600638D01*
X31267822Y23830263D01*
X31584711Y24001605D01*
X31928844Y24108132D01*
X32287113Y24145787D01*
X32645874Y24113138D01*
G37*
%TD.AperFunction*%
%TD*%
D25*
X12350000Y9050000D03*
D26*
X20600000Y13000000D03*
X22000000Y13000000D03*
X22000000Y11600000D03*
X20600000Y11600000D03*
X14600000Y13100000D03*
X14600000Y13800000D03*
X10800000Y9800000D03*
X11550000Y9800000D03*
X10800000Y14800000D03*
X15300000Y17300000D03*
X15300000Y16550000D03*
X12300000Y16550000D03*
X12300000Y17300000D03*
X15300000Y7800000D03*
X15300000Y7050000D03*
X12300000Y7800000D03*
X12300000Y7050000D03*
X10800000Y15800000D03*
X7300000Y21300000D03*
X19800000Y21300000D03*
X24800000Y21300000D03*
X27300000Y21300000D03*
X29800000Y21300000D03*
X34800000Y21300000D03*
X37300000Y21300000D03*
X39800000Y21300000D03*
X41300000Y19800000D03*
X41300000Y17300000D03*
X41300000Y7300000D03*
X41300000Y4800000D03*
X39800000Y3300000D03*
X37300000Y3300000D03*
X34800000Y3300000D03*
X29800000Y3300000D03*
X27300000Y3300000D03*
X24800000Y3300000D03*
X22300000Y3300000D03*
X19800000Y3300000D03*
X17300000Y3300000D03*
X7300000Y3300000D03*
X4800000Y3300000D03*
X3300000Y4800000D03*
X3300000Y7300000D03*
X3300000Y9800000D03*
X3300000Y14800000D03*
X3300000Y17300000D03*
X3300000Y19800000D03*
X4800000Y21300000D03*
X5800000Y17300000D03*
X8800000Y7300000D03*
X5550000Y6050000D03*
X6550000Y6050000D03*
X7550000Y6050000D03*
X5550000Y5050000D03*
X6550000Y5050000D03*
X7550000Y5050000D03*
X26550000Y19550000D03*
X27550000Y19550000D03*
X28550000Y19550000D03*
X26550000Y18550000D03*
X27550000Y18550000D03*
X28550000Y18550000D03*
X38050000Y19300000D03*
X39050000Y19300000D03*
X38050000Y18300000D03*
X39050000Y18300000D03*
X30550000Y11800000D03*
X31550000Y11800000D03*
X30550000Y12800000D03*
X31550000Y12800000D03*
X30550000Y9800000D03*
X31550000Y9800000D03*
X30550000Y8800000D03*
X31550000Y8800000D03*
X29050000Y14050000D03*
X29800000Y14800000D03*
X25050000Y15800000D03*
X26050000Y15800000D03*
X22300000Y7550000D03*
X24050000Y7550000D03*
X24800000Y6550000D03*
X24300000Y15300000D03*
X16050000Y7800000D03*
X16050000Y7050000D03*
X18050000Y8300000D03*
X20800000Y4300000D03*
X22050000Y4800000D03*
X23300000Y4800000D03*
X27800000Y6550000D03*
X27800000Y9550000D03*
X19050000Y18800000D03*
X21300000Y20800000D03*
X21300000Y20050000D03*
X28800000Y6550000D03*
X27800000Y5550000D03*
X28800000Y5550000D03*
X29800000Y6550000D03*
X29800000Y5550000D03*
X31550000Y13800000D03*
D25*
X19300000Y16800000D03*
X24300000Y16800000D03*
X12300000Y15050000D03*
X18050000Y9300000D03*
X27500000Y16100000D03*
X27800000Y8550000D03*
X15050000Y19300000D03*
X24200000Y5900000D03*
X12600000Y12725000D03*
X20625000Y16600000D03*
X12600000Y11875000D03*
X21475000Y16600000D03*
X27800000Y12800000D03*
X25050000Y7550000D03*
X20900000Y8200000D03*
X19300000Y17950000D03*
X17600000Y15800000D03*
X32300000Y2300000D03*
X32300000Y22300000D03*
X2300000Y12300000D03*
X36082000Y7220000D03*
X33542000Y7220000D03*
X36082000Y9760000D03*
X33542000Y9760000D03*
X36082000Y12300000D03*
X33542000Y12300000D03*
X36082000Y14840000D03*
X33542000Y14840000D03*
X36082000Y17380000D03*
X33542000Y17380000D03*
X8200000Y19800000D03*
X6930000Y19800000D03*
X5660000Y19800000D03*
X4390000Y19800000D03*
X6600000Y15550000D03*
X6600000Y14600000D03*
X6600000Y12750000D03*
X6600000Y11850000D03*
X6600000Y10950000D03*
X6600000Y10000000D03*
X6600000Y9050000D03*
X8000000Y9050000D03*
X8000000Y10000000D03*
X8000000Y11850000D03*
X8000000Y12750000D03*
X8000000Y13650000D03*
X8000000Y14600000D03*
X8000000Y15550000D03*
D27*
X5370000Y10300000D03*
X9230000Y10300000D03*
X5370000Y14300000D03*
X9230000Y14300000D03*
M02*
