%TF.GenerationSoftware,KiCad,Pcbnew,(5.1.12-1-10_14)*%
%TF.CreationDate,2022-09-08T10:49:59+08:00*%
%TF.ProjectId,0102-TILEDAP,30313032-2d54-4494-9c45-4441502e6b69,V1.1*%
%TF.SameCoordinates,Original*%
%TF.FileFunction,Paste,Top*%
%TF.FilePolarity,Positive*%
%FSLAX46Y46*%
G04 Gerber Fmt 4.6, Leading zero omitted, Abs format (unit mm)*
G04 Created by KiCad (PCBNEW (5.1.12-1-10_14)) date 2022-09-08 10:49:59*
%MOMM*%
%LPD*%
G01*
G04 APERTURE LIST*
%ADD10R,0.900000X0.800000*%
%ADD11R,1.000000X1.100000*%
%ADD12R,1.200000X0.900000*%
%ADD13R,0.650000X1.060000*%
G04 APERTURE END LIST*
%TO.C,R14*%
G36*
G01*
X15310000Y14985000D02*
X15310000Y14615000D01*
G75*
G02*
X15175000Y14480000I-135000J0D01*
G01*
X14905000Y14480000D01*
G75*
G02*
X14770000Y14615000I0J135000D01*
G01*
X14770000Y14985000D01*
G75*
G02*
X14905000Y15120000I135000J0D01*
G01*
X15175000Y15120000D01*
G75*
G02*
X15310000Y14985000I0J-135000D01*
G01*
G37*
G36*
G01*
X16330000Y14985000D02*
X16330000Y14615000D01*
G75*
G02*
X16195000Y14480000I-135000J0D01*
G01*
X15925000Y14480000D01*
G75*
G02*
X15790000Y14615000I0J135000D01*
G01*
X15790000Y14985000D01*
G75*
G02*
X15925000Y15120000I135000J0D01*
G01*
X16195000Y15120000D01*
G75*
G02*
X16330000Y14985000I0J-135000D01*
G01*
G37*
%TD*%
D10*
%TO.C,Q1*%
X14550000Y17050000D03*
X16550000Y18000000D03*
X16550000Y16100000D03*
%TD*%
%TO.C,C5*%
G36*
G01*
X24130000Y17080000D02*
X24470000Y17080000D01*
G75*
G02*
X24610000Y16940000I0J-140000D01*
G01*
X24610000Y16660000D01*
G75*
G02*
X24470000Y16520000I-140000J0D01*
G01*
X24130000Y16520000D01*
G75*
G02*
X23990000Y16660000I0J140000D01*
G01*
X23990000Y16940000D01*
G75*
G02*
X24130000Y17080000I140000J0D01*
G01*
G37*
G36*
G01*
X24130000Y18040000D02*
X24470000Y18040000D01*
G75*
G02*
X24610000Y17900000I0J-140000D01*
G01*
X24610000Y17620000D01*
G75*
G02*
X24470000Y17480000I-140000J0D01*
G01*
X24130000Y17480000D01*
G75*
G02*
X23990000Y17620000I0J140000D01*
G01*
X23990000Y17900000D01*
G75*
G02*
X24130000Y18040000I140000J0D01*
G01*
G37*
%TD*%
%TO.C,R10*%
G36*
G01*
X15790000Y13615000D02*
X15790000Y13985000D01*
G75*
G02*
X15925000Y14120000I135000J0D01*
G01*
X16195000Y14120000D01*
G75*
G02*
X16330000Y13985000I0J-135000D01*
G01*
X16330000Y13615000D01*
G75*
G02*
X16195000Y13480000I-135000J0D01*
G01*
X15925000Y13480000D01*
G75*
G02*
X15790000Y13615000I0J135000D01*
G01*
G37*
G36*
G01*
X14770000Y13615000D02*
X14770000Y13985000D01*
G75*
G02*
X14905000Y14120000I135000J0D01*
G01*
X15175000Y14120000D01*
G75*
G02*
X15310000Y13985000I0J-135000D01*
G01*
X15310000Y13615000D01*
G75*
G02*
X15175000Y13480000I-135000J0D01*
G01*
X14905000Y13480000D01*
G75*
G02*
X14770000Y13615000I0J135000D01*
G01*
G37*
%TD*%
D11*
%TO.C,SW1*%
X29300000Y8650000D03*
X29300000Y15950000D03*
%TD*%
D12*
%TO.C,Y1*%
X18450000Y7180000D03*
X20650000Y5420000D03*
X20650000Y7180000D03*
X18450000Y5420000D03*
%TD*%
%TO.C,U2*%
G36*
G01*
X22970000Y13120000D02*
X22370000Y13120000D01*
G75*
G02*
X22120000Y13370000I0J250000D01*
G01*
X22120000Y13970000D01*
G75*
G02*
X22370000Y14220000I250000J0D01*
G01*
X22970000Y14220000D01*
G75*
G02*
X23220000Y13970000I0J-250000D01*
G01*
X23220000Y13370000D01*
G75*
G02*
X22970000Y13120000I-250000J0D01*
G01*
G37*
G36*
G01*
X21600000Y13120000D02*
X21000000Y13120000D01*
G75*
G02*
X20750000Y13370000I0J250000D01*
G01*
X20750000Y13970000D01*
G75*
G02*
X21000000Y14220000I250000J0D01*
G01*
X21600000Y14220000D01*
G75*
G02*
X21850000Y13970000I0J-250000D01*
G01*
X21850000Y13370000D01*
G75*
G02*
X21600000Y13120000I-250000J0D01*
G01*
G37*
G36*
G01*
X20230000Y13120000D02*
X19630000Y13120000D01*
G75*
G02*
X19380000Y13370000I0J250000D01*
G01*
X19380000Y13970000D01*
G75*
G02*
X19630000Y14220000I250000J0D01*
G01*
X20230000Y14220000D01*
G75*
G02*
X20480000Y13970000I0J-250000D01*
G01*
X20480000Y13370000D01*
G75*
G02*
X20230000Y13120000I-250000J0D01*
G01*
G37*
G36*
G01*
X22970000Y11750000D02*
X22370000Y11750000D01*
G75*
G02*
X22120000Y12000000I0J250000D01*
G01*
X22120000Y12600000D01*
G75*
G02*
X22370000Y12850000I250000J0D01*
G01*
X22970000Y12850000D01*
G75*
G02*
X23220000Y12600000I0J-250000D01*
G01*
X23220000Y12000000D01*
G75*
G02*
X22970000Y11750000I-250000J0D01*
G01*
G37*
G36*
G01*
X21600000Y11750000D02*
X21000000Y11750000D01*
G75*
G02*
X20750000Y12000000I0J250000D01*
G01*
X20750000Y12600000D01*
G75*
G02*
X21000000Y12850000I250000J0D01*
G01*
X21600000Y12850000D01*
G75*
G02*
X21850000Y12600000I0J-250000D01*
G01*
X21850000Y12000000D01*
G75*
G02*
X21600000Y11750000I-250000J0D01*
G01*
G37*
G36*
G01*
X20230000Y11750000D02*
X19630000Y11750000D01*
G75*
G02*
X19380000Y12000000I0J250000D01*
G01*
X19380000Y12600000D01*
G75*
G02*
X19630000Y12850000I250000J0D01*
G01*
X20230000Y12850000D01*
G75*
G02*
X20480000Y12600000I0J-250000D01*
G01*
X20480000Y12000000D01*
G75*
G02*
X20230000Y11750000I-250000J0D01*
G01*
G37*
G36*
G01*
X22970000Y10380000D02*
X22370000Y10380000D01*
G75*
G02*
X22120000Y10630000I0J250000D01*
G01*
X22120000Y11230000D01*
G75*
G02*
X22370000Y11480000I250000J0D01*
G01*
X22970000Y11480000D01*
G75*
G02*
X23220000Y11230000I0J-250000D01*
G01*
X23220000Y10630000D01*
G75*
G02*
X22970000Y10380000I-250000J0D01*
G01*
G37*
G36*
G01*
X21600000Y10380000D02*
X21000000Y10380000D01*
G75*
G02*
X20750000Y10630000I0J250000D01*
G01*
X20750000Y11230000D01*
G75*
G02*
X21000000Y11480000I250000J0D01*
G01*
X21600000Y11480000D01*
G75*
G02*
X21850000Y11230000I0J-250000D01*
G01*
X21850000Y10630000D01*
G75*
G02*
X21600000Y10380000I-250000J0D01*
G01*
G37*
G36*
G01*
X20230000Y10380000D02*
X19630000Y10380000D01*
G75*
G02*
X19380000Y10630000I0J250000D01*
G01*
X19380000Y11230000D01*
G75*
G02*
X19630000Y11480000I250000J0D01*
G01*
X20230000Y11480000D01*
G75*
G02*
X20480000Y11230000I0J-250000D01*
G01*
X20480000Y10630000D01*
G75*
G02*
X20230000Y10380000I-250000J0D01*
G01*
G37*
G36*
G01*
X18937500Y10175000D02*
X17987500Y10175000D01*
G75*
G02*
X17925000Y10237500I0J62500D01*
G01*
X17925000Y10362500D01*
G75*
G02*
X17987500Y10425000I62500J0D01*
G01*
X18937500Y10425000D01*
G75*
G02*
X19000000Y10362500I0J-62500D01*
G01*
X19000000Y10237500D01*
G75*
G02*
X18937500Y10175000I-62500J0D01*
G01*
G37*
G36*
G01*
X18937500Y10675000D02*
X17987500Y10675000D01*
G75*
G02*
X17925000Y10737500I0J62500D01*
G01*
X17925000Y10862500D01*
G75*
G02*
X17987500Y10925000I62500J0D01*
G01*
X18937500Y10925000D01*
G75*
G02*
X19000000Y10862500I0J-62500D01*
G01*
X19000000Y10737500D01*
G75*
G02*
X18937500Y10675000I-62500J0D01*
G01*
G37*
G36*
G01*
X18937500Y11175000D02*
X17987500Y11175000D01*
G75*
G02*
X17925000Y11237500I0J62500D01*
G01*
X17925000Y11362500D01*
G75*
G02*
X17987500Y11425000I62500J0D01*
G01*
X18937500Y11425000D01*
G75*
G02*
X19000000Y11362500I0J-62500D01*
G01*
X19000000Y11237500D01*
G75*
G02*
X18937500Y11175000I-62500J0D01*
G01*
G37*
G36*
G01*
X18937500Y11675000D02*
X17987500Y11675000D01*
G75*
G02*
X17925000Y11737500I0J62500D01*
G01*
X17925000Y11862500D01*
G75*
G02*
X17987500Y11925000I62500J0D01*
G01*
X18937500Y11925000D01*
G75*
G02*
X19000000Y11862500I0J-62500D01*
G01*
X19000000Y11737500D01*
G75*
G02*
X18937500Y11675000I-62500J0D01*
G01*
G37*
G36*
G01*
X18937500Y12175000D02*
X17987500Y12175000D01*
G75*
G02*
X17925000Y12237500I0J62500D01*
G01*
X17925000Y12362500D01*
G75*
G02*
X17987500Y12425000I62500J0D01*
G01*
X18937500Y12425000D01*
G75*
G02*
X19000000Y12362500I0J-62500D01*
G01*
X19000000Y12237500D01*
G75*
G02*
X18937500Y12175000I-62500J0D01*
G01*
G37*
G36*
G01*
X18937500Y12675000D02*
X17987500Y12675000D01*
G75*
G02*
X17925000Y12737500I0J62500D01*
G01*
X17925000Y12862500D01*
G75*
G02*
X17987500Y12925000I62500J0D01*
G01*
X18937500Y12925000D01*
G75*
G02*
X19000000Y12862500I0J-62500D01*
G01*
X19000000Y12737500D01*
G75*
G02*
X18937500Y12675000I-62500J0D01*
G01*
G37*
G36*
G01*
X18937500Y13175000D02*
X17987500Y13175000D01*
G75*
G02*
X17925000Y13237500I0J62500D01*
G01*
X17925000Y13362500D01*
G75*
G02*
X17987500Y13425000I62500J0D01*
G01*
X18937500Y13425000D01*
G75*
G02*
X19000000Y13362500I0J-62500D01*
G01*
X19000000Y13237500D01*
G75*
G02*
X18937500Y13175000I-62500J0D01*
G01*
G37*
G36*
G01*
X18937500Y13675000D02*
X17987500Y13675000D01*
G75*
G02*
X17925000Y13737500I0J62500D01*
G01*
X17925000Y13862500D01*
G75*
G02*
X17987500Y13925000I62500J0D01*
G01*
X18937500Y13925000D01*
G75*
G02*
X19000000Y13862500I0J-62500D01*
G01*
X19000000Y13737500D01*
G75*
G02*
X18937500Y13675000I-62500J0D01*
G01*
G37*
G36*
G01*
X18937500Y14175000D02*
X17987500Y14175000D01*
G75*
G02*
X17925000Y14237500I0J62500D01*
G01*
X17925000Y14362500D01*
G75*
G02*
X17987500Y14425000I62500J0D01*
G01*
X18937500Y14425000D01*
G75*
G02*
X19000000Y14362500I0J-62500D01*
G01*
X19000000Y14237500D01*
G75*
G02*
X18937500Y14175000I-62500J0D01*
G01*
G37*
G36*
G01*
X19362500Y14600000D02*
X19237500Y14600000D01*
G75*
G02*
X19175000Y14662500I0J62500D01*
G01*
X19175000Y15612500D01*
G75*
G02*
X19237500Y15675000I62500J0D01*
G01*
X19362500Y15675000D01*
G75*
G02*
X19425000Y15612500I0J-62500D01*
G01*
X19425000Y14662500D01*
G75*
G02*
X19362500Y14600000I-62500J0D01*
G01*
G37*
G36*
G01*
X19862500Y14600000D02*
X19737500Y14600000D01*
G75*
G02*
X19675000Y14662500I0J62500D01*
G01*
X19675000Y15612500D01*
G75*
G02*
X19737500Y15675000I62500J0D01*
G01*
X19862500Y15675000D01*
G75*
G02*
X19925000Y15612500I0J-62500D01*
G01*
X19925000Y14662500D01*
G75*
G02*
X19862500Y14600000I-62500J0D01*
G01*
G37*
G36*
G01*
X20362500Y14600000D02*
X20237500Y14600000D01*
G75*
G02*
X20175000Y14662500I0J62500D01*
G01*
X20175000Y15612500D01*
G75*
G02*
X20237500Y15675000I62500J0D01*
G01*
X20362500Y15675000D01*
G75*
G02*
X20425000Y15612500I0J-62500D01*
G01*
X20425000Y14662500D01*
G75*
G02*
X20362500Y14600000I-62500J0D01*
G01*
G37*
G36*
G01*
X20862500Y14600000D02*
X20737500Y14600000D01*
G75*
G02*
X20675000Y14662500I0J62500D01*
G01*
X20675000Y15612500D01*
G75*
G02*
X20737500Y15675000I62500J0D01*
G01*
X20862500Y15675000D01*
G75*
G02*
X20925000Y15612500I0J-62500D01*
G01*
X20925000Y14662500D01*
G75*
G02*
X20862500Y14600000I-62500J0D01*
G01*
G37*
G36*
G01*
X21362500Y14600000D02*
X21237500Y14600000D01*
G75*
G02*
X21175000Y14662500I0J62500D01*
G01*
X21175000Y15612500D01*
G75*
G02*
X21237500Y15675000I62500J0D01*
G01*
X21362500Y15675000D01*
G75*
G02*
X21425000Y15612500I0J-62500D01*
G01*
X21425000Y14662500D01*
G75*
G02*
X21362500Y14600000I-62500J0D01*
G01*
G37*
G36*
G01*
X21862500Y14600000D02*
X21737500Y14600000D01*
G75*
G02*
X21675000Y14662500I0J62500D01*
G01*
X21675000Y15612500D01*
G75*
G02*
X21737500Y15675000I62500J0D01*
G01*
X21862500Y15675000D01*
G75*
G02*
X21925000Y15612500I0J-62500D01*
G01*
X21925000Y14662500D01*
G75*
G02*
X21862500Y14600000I-62500J0D01*
G01*
G37*
G36*
G01*
X22362500Y14600000D02*
X22237500Y14600000D01*
G75*
G02*
X22175000Y14662500I0J62500D01*
G01*
X22175000Y15612500D01*
G75*
G02*
X22237500Y15675000I62500J0D01*
G01*
X22362500Y15675000D01*
G75*
G02*
X22425000Y15612500I0J-62500D01*
G01*
X22425000Y14662500D01*
G75*
G02*
X22362500Y14600000I-62500J0D01*
G01*
G37*
G36*
G01*
X22862500Y14600000D02*
X22737500Y14600000D01*
G75*
G02*
X22675000Y14662500I0J62500D01*
G01*
X22675000Y15612500D01*
G75*
G02*
X22737500Y15675000I62500J0D01*
G01*
X22862500Y15675000D01*
G75*
G02*
X22925000Y15612500I0J-62500D01*
G01*
X22925000Y14662500D01*
G75*
G02*
X22862500Y14600000I-62500J0D01*
G01*
G37*
G36*
G01*
X23362500Y14600000D02*
X23237500Y14600000D01*
G75*
G02*
X23175000Y14662500I0J62500D01*
G01*
X23175000Y15612500D01*
G75*
G02*
X23237500Y15675000I62500J0D01*
G01*
X23362500Y15675000D01*
G75*
G02*
X23425000Y15612500I0J-62500D01*
G01*
X23425000Y14662500D01*
G75*
G02*
X23362500Y14600000I-62500J0D01*
G01*
G37*
G36*
G01*
X24612500Y14175000D02*
X23662500Y14175000D01*
G75*
G02*
X23600000Y14237500I0J62500D01*
G01*
X23600000Y14362500D01*
G75*
G02*
X23662500Y14425000I62500J0D01*
G01*
X24612500Y14425000D01*
G75*
G02*
X24675000Y14362500I0J-62500D01*
G01*
X24675000Y14237500D01*
G75*
G02*
X24612500Y14175000I-62500J0D01*
G01*
G37*
G36*
G01*
X24612500Y13675000D02*
X23662500Y13675000D01*
G75*
G02*
X23600000Y13737500I0J62500D01*
G01*
X23600000Y13862500D01*
G75*
G02*
X23662500Y13925000I62500J0D01*
G01*
X24612500Y13925000D01*
G75*
G02*
X24675000Y13862500I0J-62500D01*
G01*
X24675000Y13737500D01*
G75*
G02*
X24612500Y13675000I-62500J0D01*
G01*
G37*
G36*
G01*
X24612500Y13175000D02*
X23662500Y13175000D01*
G75*
G02*
X23600000Y13237500I0J62500D01*
G01*
X23600000Y13362500D01*
G75*
G02*
X23662500Y13425000I62500J0D01*
G01*
X24612500Y13425000D01*
G75*
G02*
X24675000Y13362500I0J-62500D01*
G01*
X24675000Y13237500D01*
G75*
G02*
X24612500Y13175000I-62500J0D01*
G01*
G37*
G36*
G01*
X24612500Y12675000D02*
X23662500Y12675000D01*
G75*
G02*
X23600000Y12737500I0J62500D01*
G01*
X23600000Y12862500D01*
G75*
G02*
X23662500Y12925000I62500J0D01*
G01*
X24612500Y12925000D01*
G75*
G02*
X24675000Y12862500I0J-62500D01*
G01*
X24675000Y12737500D01*
G75*
G02*
X24612500Y12675000I-62500J0D01*
G01*
G37*
G36*
G01*
X24612500Y12175000D02*
X23662500Y12175000D01*
G75*
G02*
X23600000Y12237500I0J62500D01*
G01*
X23600000Y12362500D01*
G75*
G02*
X23662500Y12425000I62500J0D01*
G01*
X24612500Y12425000D01*
G75*
G02*
X24675000Y12362500I0J-62500D01*
G01*
X24675000Y12237500D01*
G75*
G02*
X24612500Y12175000I-62500J0D01*
G01*
G37*
G36*
G01*
X24612500Y11675000D02*
X23662500Y11675000D01*
G75*
G02*
X23600000Y11737500I0J62500D01*
G01*
X23600000Y11862500D01*
G75*
G02*
X23662500Y11925000I62500J0D01*
G01*
X24612500Y11925000D01*
G75*
G02*
X24675000Y11862500I0J-62500D01*
G01*
X24675000Y11737500D01*
G75*
G02*
X24612500Y11675000I-62500J0D01*
G01*
G37*
G36*
G01*
X24612500Y11175000D02*
X23662500Y11175000D01*
G75*
G02*
X23600000Y11237500I0J62500D01*
G01*
X23600000Y11362500D01*
G75*
G02*
X23662500Y11425000I62500J0D01*
G01*
X24612500Y11425000D01*
G75*
G02*
X24675000Y11362500I0J-62500D01*
G01*
X24675000Y11237500D01*
G75*
G02*
X24612500Y11175000I-62500J0D01*
G01*
G37*
G36*
G01*
X24612500Y10675000D02*
X23662500Y10675000D01*
G75*
G02*
X23600000Y10737500I0J62500D01*
G01*
X23600000Y10862500D01*
G75*
G02*
X23662500Y10925000I62500J0D01*
G01*
X24612500Y10925000D01*
G75*
G02*
X24675000Y10862500I0J-62500D01*
G01*
X24675000Y10737500D01*
G75*
G02*
X24612500Y10675000I-62500J0D01*
G01*
G37*
G36*
G01*
X24612500Y10175000D02*
X23662500Y10175000D01*
G75*
G02*
X23600000Y10237500I0J62500D01*
G01*
X23600000Y10362500D01*
G75*
G02*
X23662500Y10425000I62500J0D01*
G01*
X24612500Y10425000D01*
G75*
G02*
X24675000Y10362500I0J-62500D01*
G01*
X24675000Y10237500D01*
G75*
G02*
X24612500Y10175000I-62500J0D01*
G01*
G37*
G36*
G01*
X23362500Y8925000D02*
X23237500Y8925000D01*
G75*
G02*
X23175000Y8987500I0J62500D01*
G01*
X23175000Y9937500D01*
G75*
G02*
X23237500Y10000000I62500J0D01*
G01*
X23362500Y10000000D01*
G75*
G02*
X23425000Y9937500I0J-62500D01*
G01*
X23425000Y8987500D01*
G75*
G02*
X23362500Y8925000I-62500J0D01*
G01*
G37*
G36*
G01*
X22862500Y8925000D02*
X22737500Y8925000D01*
G75*
G02*
X22675000Y8987500I0J62500D01*
G01*
X22675000Y9937500D01*
G75*
G02*
X22737500Y10000000I62500J0D01*
G01*
X22862500Y10000000D01*
G75*
G02*
X22925000Y9937500I0J-62500D01*
G01*
X22925000Y8987500D01*
G75*
G02*
X22862500Y8925000I-62500J0D01*
G01*
G37*
G36*
G01*
X22362500Y8925000D02*
X22237500Y8925000D01*
G75*
G02*
X22175000Y8987500I0J62500D01*
G01*
X22175000Y9937500D01*
G75*
G02*
X22237500Y10000000I62500J0D01*
G01*
X22362500Y10000000D01*
G75*
G02*
X22425000Y9937500I0J-62500D01*
G01*
X22425000Y8987500D01*
G75*
G02*
X22362500Y8925000I-62500J0D01*
G01*
G37*
G36*
G01*
X21862500Y8925000D02*
X21737500Y8925000D01*
G75*
G02*
X21675000Y8987500I0J62500D01*
G01*
X21675000Y9937500D01*
G75*
G02*
X21737500Y10000000I62500J0D01*
G01*
X21862500Y10000000D01*
G75*
G02*
X21925000Y9937500I0J-62500D01*
G01*
X21925000Y8987500D01*
G75*
G02*
X21862500Y8925000I-62500J0D01*
G01*
G37*
G36*
G01*
X21362500Y8925000D02*
X21237500Y8925000D01*
G75*
G02*
X21175000Y8987500I0J62500D01*
G01*
X21175000Y9937500D01*
G75*
G02*
X21237500Y10000000I62500J0D01*
G01*
X21362500Y10000000D01*
G75*
G02*
X21425000Y9937500I0J-62500D01*
G01*
X21425000Y8987500D01*
G75*
G02*
X21362500Y8925000I-62500J0D01*
G01*
G37*
G36*
G01*
X20862500Y8925000D02*
X20737500Y8925000D01*
G75*
G02*
X20675000Y8987500I0J62500D01*
G01*
X20675000Y9937500D01*
G75*
G02*
X20737500Y10000000I62500J0D01*
G01*
X20862500Y10000000D01*
G75*
G02*
X20925000Y9937500I0J-62500D01*
G01*
X20925000Y8987500D01*
G75*
G02*
X20862500Y8925000I-62500J0D01*
G01*
G37*
G36*
G01*
X20362500Y8925000D02*
X20237500Y8925000D01*
G75*
G02*
X20175000Y8987500I0J62500D01*
G01*
X20175000Y9937500D01*
G75*
G02*
X20237500Y10000000I62500J0D01*
G01*
X20362500Y10000000D01*
G75*
G02*
X20425000Y9937500I0J-62500D01*
G01*
X20425000Y8987500D01*
G75*
G02*
X20362500Y8925000I-62500J0D01*
G01*
G37*
G36*
G01*
X19862500Y8925000D02*
X19737500Y8925000D01*
G75*
G02*
X19675000Y8987500I0J62500D01*
G01*
X19675000Y9937500D01*
G75*
G02*
X19737500Y10000000I62500J0D01*
G01*
X19862500Y10000000D01*
G75*
G02*
X19925000Y9937500I0J-62500D01*
G01*
X19925000Y8987500D01*
G75*
G02*
X19862500Y8925000I-62500J0D01*
G01*
G37*
G36*
G01*
X19362500Y8925000D02*
X19237500Y8925000D01*
G75*
G02*
X19175000Y8987500I0J62500D01*
G01*
X19175000Y9937500D01*
G75*
G02*
X19237500Y10000000I62500J0D01*
G01*
X19362500Y10000000D01*
G75*
G02*
X19425000Y9937500I0J-62500D01*
G01*
X19425000Y8987500D01*
G75*
G02*
X19362500Y8925000I-62500J0D01*
G01*
G37*
%TD*%
%TO.C,R9*%
G36*
G01*
X26069999Y11985000D02*
X26069999Y11615000D01*
G75*
G02*
X25934999Y11480000I-135000J0D01*
G01*
X25664999Y11480000D01*
G75*
G02*
X25529999Y11615000I0J135000D01*
G01*
X25529999Y11985000D01*
G75*
G02*
X25664999Y12120000I135000J0D01*
G01*
X25934999Y12120000D01*
G75*
G02*
X26069999Y11985000I0J-135000D01*
G01*
G37*
G36*
G01*
X27089999Y11985000D02*
X27089999Y11615000D01*
G75*
G02*
X26954999Y11480000I-135000J0D01*
G01*
X26684999Y11480000D01*
G75*
G02*
X26549999Y11615000I0J135000D01*
G01*
X26549999Y11985000D01*
G75*
G02*
X26684999Y12120000I135000J0D01*
G01*
X26954999Y12120000D01*
G75*
G02*
X27089999Y11985000I0J-135000D01*
G01*
G37*
%TD*%
%TO.C,R8*%
G36*
G01*
X15310000Y10985000D02*
X15310000Y10615000D01*
G75*
G02*
X15175000Y10480000I-135000J0D01*
G01*
X14905000Y10480000D01*
G75*
G02*
X14770000Y10615000I0J135000D01*
G01*
X14770000Y10985000D01*
G75*
G02*
X14905000Y11120000I135000J0D01*
G01*
X15175000Y11120000D01*
G75*
G02*
X15310000Y10985000I0J-135000D01*
G01*
G37*
G36*
G01*
X16330000Y10985000D02*
X16330000Y10615000D01*
G75*
G02*
X16195000Y10480000I-135000J0D01*
G01*
X15925000Y10480000D01*
G75*
G02*
X15790000Y10615000I0J135000D01*
G01*
X15790000Y10985000D01*
G75*
G02*
X15925000Y11120000I135000J0D01*
G01*
X16195000Y11120000D01*
G75*
G02*
X16330000Y10985000I0J-135000D01*
G01*
G37*
%TD*%
%TO.C,R7*%
G36*
G01*
X26069999Y9735000D02*
X26069999Y9365000D01*
G75*
G02*
X25934999Y9230000I-135000J0D01*
G01*
X25664999Y9230000D01*
G75*
G02*
X25529999Y9365000I0J135000D01*
G01*
X25529999Y9735000D01*
G75*
G02*
X25664999Y9870000I135000J0D01*
G01*
X25934999Y9870000D01*
G75*
G02*
X26069999Y9735000I0J-135000D01*
G01*
G37*
G36*
G01*
X27089999Y9735000D02*
X27089999Y9365000D01*
G75*
G02*
X26954999Y9230000I-135000J0D01*
G01*
X26684999Y9230000D01*
G75*
G02*
X26549999Y9365000I0J135000D01*
G01*
X26549999Y9735000D01*
G75*
G02*
X26684999Y9870000I135000J0D01*
G01*
X26954999Y9870000D01*
G75*
G02*
X27089999Y9735000I0J-135000D01*
G01*
G37*
%TD*%
%TO.C,R6*%
G36*
G01*
X26070000Y8735000D02*
X26070000Y8365000D01*
G75*
G02*
X25935000Y8230000I-135000J0D01*
G01*
X25665000Y8230000D01*
G75*
G02*
X25530000Y8365000I0J135000D01*
G01*
X25530000Y8735000D01*
G75*
G02*
X25665000Y8870000I135000J0D01*
G01*
X25935000Y8870000D01*
G75*
G02*
X26070000Y8735000I0J-135000D01*
G01*
G37*
G36*
G01*
X27090000Y8735000D02*
X27090000Y8365000D01*
G75*
G02*
X26955000Y8230000I-135000J0D01*
G01*
X26685000Y8230000D01*
G75*
G02*
X26550000Y8365000I0J135000D01*
G01*
X26550000Y8735000D01*
G75*
G02*
X26685000Y8870000I135000J0D01*
G01*
X26955000Y8870000D01*
G75*
G02*
X27090000Y8735000I0J-135000D01*
G01*
G37*
%TD*%
%TO.C,C11*%
G36*
G01*
X16980000Y6100000D02*
X17320000Y6100000D01*
G75*
G02*
X17460000Y5960000I0J-140000D01*
G01*
X17460000Y5680000D01*
G75*
G02*
X17320000Y5540000I-140000J0D01*
G01*
X16980000Y5540000D01*
G75*
G02*
X16840000Y5680000I0J140000D01*
G01*
X16840000Y5960000D01*
G75*
G02*
X16980000Y6100000I140000J0D01*
G01*
G37*
G36*
G01*
X16980000Y7060000D02*
X17320000Y7060000D01*
G75*
G02*
X17460000Y6920000I0J-140000D01*
G01*
X17460000Y6640000D01*
G75*
G02*
X17320000Y6500000I-140000J0D01*
G01*
X16980000Y6500000D01*
G75*
G02*
X16840000Y6640000I0J140000D01*
G01*
X16840000Y6920000D01*
G75*
G02*
X16980000Y7060000I140000J0D01*
G01*
G37*
%TD*%
%TO.C,C8*%
G36*
G01*
X22120000Y6500000D02*
X21780000Y6500000D01*
G75*
G02*
X21640000Y6640000I0J140000D01*
G01*
X21640000Y6920000D01*
G75*
G02*
X21780000Y7060000I140000J0D01*
G01*
X22120000Y7060000D01*
G75*
G02*
X22260000Y6920000I0J-140000D01*
G01*
X22260000Y6640000D01*
G75*
G02*
X22120000Y6500000I-140000J0D01*
G01*
G37*
G36*
G01*
X22120000Y5540000D02*
X21780000Y5540000D01*
G75*
G02*
X21640000Y5680000I0J140000D01*
G01*
X21640000Y5960000D01*
G75*
G02*
X21780000Y6100000I140000J0D01*
G01*
X22120000Y6100000D01*
G75*
G02*
X22260000Y5960000I0J-140000D01*
G01*
X22260000Y5680000D01*
G75*
G02*
X22120000Y5540000I-140000J0D01*
G01*
G37*
%TD*%
D13*
%TO.C,U1*%
X11350000Y13400000D03*
X13250000Y13400000D03*
X13250000Y11200000D03*
X12300000Y11200000D03*
X11350000Y11200000D03*
%TD*%
%TO.C,R15*%
G36*
G01*
X22485000Y17550000D02*
X22115000Y17550000D01*
G75*
G02*
X21980000Y17685000I0J135000D01*
G01*
X21980000Y17955000D01*
G75*
G02*
X22115000Y18090000I135000J0D01*
G01*
X22485000Y18090000D01*
G75*
G02*
X22620000Y17955000I0J-135000D01*
G01*
X22620000Y17685000D01*
G75*
G02*
X22485000Y17550000I-135000J0D01*
G01*
G37*
G36*
G01*
X22485000Y16530000D02*
X22115000Y16530000D01*
G75*
G02*
X21980000Y16665000I0J135000D01*
G01*
X21980000Y16935000D01*
G75*
G02*
X22115000Y17070000I135000J0D01*
G01*
X22485000Y17070000D01*
G75*
G02*
X22620000Y16935000I0J-135000D01*
G01*
X22620000Y16665000D01*
G75*
G02*
X22485000Y16530000I-135000J0D01*
G01*
G37*
%TD*%
%TO.C,R13*%
G36*
G01*
X26550000Y7365000D02*
X26550000Y7735000D01*
G75*
G02*
X26685000Y7870000I135000J0D01*
G01*
X26955000Y7870000D01*
G75*
G02*
X27090000Y7735000I0J-135000D01*
G01*
X27090000Y7365000D01*
G75*
G02*
X26955000Y7230000I-135000J0D01*
G01*
X26685000Y7230000D01*
G75*
G02*
X26550000Y7365000I0J135000D01*
G01*
G37*
G36*
G01*
X25530000Y7365000D02*
X25530000Y7735000D01*
G75*
G02*
X25665000Y7870000I135000J0D01*
G01*
X25935000Y7870000D01*
G75*
G02*
X26070000Y7735000I0J-135000D01*
G01*
X26070000Y7365000D01*
G75*
G02*
X25935000Y7230000I-135000J0D01*
G01*
X25665000Y7230000D01*
G75*
G02*
X25530000Y7365000I0J135000D01*
G01*
G37*
%TD*%
%TO.C,R12*%
G36*
G01*
X26550000Y14365000D02*
X26550000Y14735000D01*
G75*
G02*
X26685000Y14870000I135000J0D01*
G01*
X26955000Y14870000D01*
G75*
G02*
X27090000Y14735000I0J-135000D01*
G01*
X27090000Y14365000D01*
G75*
G02*
X26955000Y14230000I-135000J0D01*
G01*
X26685000Y14230000D01*
G75*
G02*
X26550000Y14365000I0J135000D01*
G01*
G37*
G36*
G01*
X25530000Y14365000D02*
X25530000Y14735000D01*
G75*
G02*
X25665000Y14870000I135000J0D01*
G01*
X25935000Y14870000D01*
G75*
G02*
X26070000Y14735000I0J-135000D01*
G01*
X26070000Y14365000D01*
G75*
G02*
X25935000Y14230000I-135000J0D01*
G01*
X25665000Y14230000D01*
G75*
G02*
X25530000Y14365000I0J135000D01*
G01*
G37*
%TD*%
%TO.C,R11*%
G36*
G01*
X23485000Y17550000D02*
X23115000Y17550000D01*
G75*
G02*
X22980000Y17685000I0J135000D01*
G01*
X22980000Y17955000D01*
G75*
G02*
X23115000Y18090000I135000J0D01*
G01*
X23485000Y18090000D01*
G75*
G02*
X23620000Y17955000I0J-135000D01*
G01*
X23620000Y17685000D01*
G75*
G02*
X23485000Y17550000I-135000J0D01*
G01*
G37*
G36*
G01*
X23485000Y16530000D02*
X23115000Y16530000D01*
G75*
G02*
X22980000Y16665000I0J135000D01*
G01*
X22980000Y16935000D01*
G75*
G02*
X23115000Y17070000I135000J0D01*
G01*
X23485000Y17070000D01*
G75*
G02*
X23620000Y16935000I0J-135000D01*
G01*
X23620000Y16665000D01*
G75*
G02*
X23485000Y16530000I-135000J0D01*
G01*
G37*
%TD*%
%TO.C,R5*%
G36*
G01*
X15310000Y12985000D02*
X15310000Y12615000D01*
G75*
G02*
X15175000Y12480000I-135000J0D01*
G01*
X14905000Y12480000D01*
G75*
G02*
X14770000Y12615000I0J135000D01*
G01*
X14770000Y12985000D01*
G75*
G02*
X14905000Y13120000I135000J0D01*
G01*
X15175000Y13120000D01*
G75*
G02*
X15310000Y12985000I0J-135000D01*
G01*
G37*
G36*
G01*
X16330000Y12985000D02*
X16330000Y12615000D01*
G75*
G02*
X16195000Y12480000I-135000J0D01*
G01*
X15925000Y12480000D01*
G75*
G02*
X15790000Y12615000I0J135000D01*
G01*
X15790000Y12985000D01*
G75*
G02*
X15925000Y13120000I135000J0D01*
G01*
X16195000Y13120000D01*
G75*
G02*
X16330000Y12985000I0J-135000D01*
G01*
G37*
%TD*%
%TO.C,R4*%
G36*
G01*
X15310000Y11985000D02*
X15310000Y11615000D01*
G75*
G02*
X15175000Y11480000I-135000J0D01*
G01*
X14905000Y11480000D01*
G75*
G02*
X14770000Y11615000I0J135000D01*
G01*
X14770000Y11985000D01*
G75*
G02*
X14905000Y12120000I135000J0D01*
G01*
X15175000Y12120000D01*
G75*
G02*
X15310000Y11985000I0J-135000D01*
G01*
G37*
G36*
G01*
X16330000Y11985000D02*
X16330000Y11615000D01*
G75*
G02*
X16195000Y11480000I-135000J0D01*
G01*
X15925000Y11480000D01*
G75*
G02*
X15790000Y11615000I0J135000D01*
G01*
X15790000Y11985000D01*
G75*
G02*
X15925000Y12120000I135000J0D01*
G01*
X16195000Y12120000D01*
G75*
G02*
X16330000Y11985000I0J-135000D01*
G01*
G37*
%TD*%
%TO.C,R3*%
G36*
G01*
X7060000Y7685000D02*
X7060000Y7315000D01*
G75*
G02*
X6925000Y7180000I-135000J0D01*
G01*
X6655000Y7180000D01*
G75*
G02*
X6520000Y7315000I0J135000D01*
G01*
X6520000Y7685000D01*
G75*
G02*
X6655000Y7820000I135000J0D01*
G01*
X6925000Y7820000D01*
G75*
G02*
X7060000Y7685000I0J-135000D01*
G01*
G37*
G36*
G01*
X8080000Y7685000D02*
X8080000Y7315000D01*
G75*
G02*
X7945000Y7180000I-135000J0D01*
G01*
X7675000Y7180000D01*
G75*
G02*
X7540000Y7315000I0J135000D01*
G01*
X7540000Y7685000D01*
G75*
G02*
X7675000Y7820000I135000J0D01*
G01*
X7945000Y7820000D01*
G75*
G02*
X8080000Y7685000I0J-135000D01*
G01*
G37*
%TD*%
%TO.C,R2*%
G36*
G01*
X13865000Y8590000D02*
X14235000Y8590000D01*
G75*
G02*
X14370000Y8455000I0J-135000D01*
G01*
X14370000Y8185000D01*
G75*
G02*
X14235000Y8050000I-135000J0D01*
G01*
X13865000Y8050000D01*
G75*
G02*
X13730000Y8185000I0J135000D01*
G01*
X13730000Y8455000D01*
G75*
G02*
X13865000Y8590000I135000J0D01*
G01*
G37*
G36*
G01*
X13865000Y7570000D02*
X14235000Y7570000D01*
G75*
G02*
X14370000Y7435000I0J-135000D01*
G01*
X14370000Y7165000D01*
G75*
G02*
X14235000Y7030000I-135000J0D01*
G01*
X13865000Y7030000D01*
G75*
G02*
X13730000Y7165000I0J135000D01*
G01*
X13730000Y7435000D01*
G75*
G02*
X13865000Y7570000I135000J0D01*
G01*
G37*
%TD*%
%TO.C,R1*%
G36*
G01*
X7540000Y16915000D02*
X7540000Y17285000D01*
G75*
G02*
X7675000Y17420000I135000J0D01*
G01*
X7945000Y17420000D01*
G75*
G02*
X8080000Y17285000I0J-135000D01*
G01*
X8080000Y16915000D01*
G75*
G02*
X7945000Y16780000I-135000J0D01*
G01*
X7675000Y16780000D01*
G75*
G02*
X7540000Y16915000I0J135000D01*
G01*
G37*
G36*
G01*
X6520000Y16915000D02*
X6520000Y17285000D01*
G75*
G02*
X6655000Y17420000I135000J0D01*
G01*
X6925000Y17420000D01*
G75*
G02*
X7060000Y17285000I0J-135000D01*
G01*
X7060000Y16915000D01*
G75*
G02*
X6925000Y16780000I-135000J0D01*
G01*
X6655000Y16780000D01*
G75*
G02*
X6520000Y16915000I0J135000D01*
G01*
G37*
%TD*%
%TO.C,D3*%
G36*
G01*
X22556250Y20362499D02*
X22043750Y20362499D01*
G75*
G02*
X21825000Y20581249I0J218750D01*
G01*
X21825000Y21018749D01*
G75*
G02*
X22043750Y21237499I218750J0D01*
G01*
X22556250Y21237499D01*
G75*
G02*
X22775000Y21018749I0J-218750D01*
G01*
X22775000Y20581249D01*
G75*
G02*
X22556250Y20362499I-218750J0D01*
G01*
G37*
G36*
G01*
X22556250Y18787499D02*
X22043750Y18787499D01*
G75*
G02*
X21825000Y19006249I0J218750D01*
G01*
X21825000Y19443749D01*
G75*
G02*
X22043750Y19662499I218750J0D01*
G01*
X22556250Y19662499D01*
G75*
G02*
X22775000Y19443749I0J-218750D01*
G01*
X22775000Y19006249D01*
G75*
G02*
X22556250Y18787499I-218750J0D01*
G01*
G37*
%TD*%
%TO.C,D1*%
G36*
G01*
X24056250Y20362500D02*
X23543750Y20362500D01*
G75*
G02*
X23325000Y20581250I0J218750D01*
G01*
X23325000Y21018750D01*
G75*
G02*
X23543750Y21237500I218750J0D01*
G01*
X24056250Y21237500D01*
G75*
G02*
X24275000Y21018750I0J-218750D01*
G01*
X24275000Y20581250D01*
G75*
G02*
X24056250Y20362500I-218750J0D01*
G01*
G37*
G36*
G01*
X24056250Y18787500D02*
X23543750Y18787500D01*
G75*
G02*
X23325000Y19006250I0J218750D01*
G01*
X23325000Y19443750D01*
G75*
G02*
X23543750Y19662500I218750J0D01*
G01*
X24056250Y19662500D01*
G75*
G02*
X24275000Y19443750I0J-218750D01*
G01*
X24275000Y19006250D01*
G75*
G02*
X24056250Y18787500I-218750J0D01*
G01*
G37*
%TD*%
%TO.C,C13*%
G36*
G01*
X26080000Y6720000D02*
X26080000Y6380000D01*
G75*
G02*
X25940000Y6240000I-140000J0D01*
G01*
X25660000Y6240000D01*
G75*
G02*
X25520000Y6380000I0J140000D01*
G01*
X25520000Y6720000D01*
G75*
G02*
X25660000Y6860000I140000J0D01*
G01*
X25940000Y6860000D01*
G75*
G02*
X26080000Y6720000I0J-140000D01*
G01*
G37*
G36*
G01*
X27040000Y6720000D02*
X27040000Y6380000D01*
G75*
G02*
X26900000Y6240000I-140000J0D01*
G01*
X26620000Y6240000D01*
G75*
G02*
X26480000Y6380000I0J140000D01*
G01*
X26480000Y6720000D01*
G75*
G02*
X26620000Y6860000I140000J0D01*
G01*
X26900000Y6860000D01*
G75*
G02*
X27040000Y6720000I0J-140000D01*
G01*
G37*
%TD*%
%TO.C,C12*%
G36*
G01*
X26080000Y13720000D02*
X26080000Y13380000D01*
G75*
G02*
X25940000Y13240000I-140000J0D01*
G01*
X25660000Y13240000D01*
G75*
G02*
X25520000Y13380000I0J140000D01*
G01*
X25520000Y13720000D01*
G75*
G02*
X25660000Y13860000I140000J0D01*
G01*
X25940000Y13860000D01*
G75*
G02*
X26080000Y13720000I0J-140000D01*
G01*
G37*
G36*
G01*
X27040000Y13720000D02*
X27040000Y13380000D01*
G75*
G02*
X26900000Y13240000I-140000J0D01*
G01*
X26620000Y13240000D01*
G75*
G02*
X26480000Y13380000I0J140000D01*
G01*
X26480000Y13720000D01*
G75*
G02*
X26620000Y13860000I140000J0D01*
G01*
X26900000Y13860000D01*
G75*
G02*
X27040000Y13720000I0J-140000D01*
G01*
G37*
%TD*%
%TO.C,C7*%
G36*
G01*
X18630000Y17080000D02*
X18970000Y17080000D01*
G75*
G02*
X19110000Y16940000I0J-140000D01*
G01*
X19110000Y16660000D01*
G75*
G02*
X18970000Y16520000I-140000J0D01*
G01*
X18630000Y16520000D01*
G75*
G02*
X18490000Y16660000I0J140000D01*
G01*
X18490000Y16940000D01*
G75*
G02*
X18630000Y17080000I140000J0D01*
G01*
G37*
G36*
G01*
X18630000Y18040000D02*
X18970000Y18040000D01*
G75*
G02*
X19110000Y17900000I0J-140000D01*
G01*
X19110000Y17620000D01*
G75*
G02*
X18970000Y17480000I-140000J0D01*
G01*
X18630000Y17480000D01*
G75*
G02*
X18490000Y17620000I0J140000D01*
G01*
X18490000Y17900000D01*
G75*
G02*
X18630000Y18040000I140000J0D01*
G01*
G37*
%TD*%
%TO.C,C6*%
G36*
G01*
X14810000Y9130000D02*
X14810000Y9470000D01*
G75*
G02*
X14950000Y9610000I140000J0D01*
G01*
X15230000Y9610000D01*
G75*
G02*
X15370000Y9470000I0J-140000D01*
G01*
X15370000Y9130000D01*
G75*
G02*
X15230000Y8990000I-140000J0D01*
G01*
X14950000Y8990000D01*
G75*
G02*
X14810000Y9130000I0J140000D01*
G01*
G37*
G36*
G01*
X15770000Y9130000D02*
X15770000Y9470000D01*
G75*
G02*
X15910000Y9610000I140000J0D01*
G01*
X16190000Y9610000D01*
G75*
G02*
X16330000Y9470000I0J-140000D01*
G01*
X16330000Y9130000D01*
G75*
G02*
X16190000Y8990000I-140000J0D01*
G01*
X15910000Y8990000D01*
G75*
G02*
X15770000Y9130000I0J140000D01*
G01*
G37*
%TD*%
%TO.C,C4*%
G36*
G01*
X23470000Y5560000D02*
X23130000Y5560000D01*
G75*
G02*
X22990000Y5700000I0J140000D01*
G01*
X22990000Y5980000D01*
G75*
G02*
X23130000Y6120000I140000J0D01*
G01*
X23470000Y6120000D01*
G75*
G02*
X23610000Y5980000I0J-140000D01*
G01*
X23610000Y5700000D01*
G75*
G02*
X23470000Y5560000I-140000J0D01*
G01*
G37*
G36*
G01*
X23470000Y6520000D02*
X23130000Y6520000D01*
G75*
G02*
X22990000Y6660000I0J140000D01*
G01*
X22990000Y6940000D01*
G75*
G02*
X23130000Y7080000I140000J0D01*
G01*
X23470000Y7080000D01*
G75*
G02*
X23610000Y6940000I0J-140000D01*
G01*
X23610000Y6660000D01*
G75*
G02*
X23470000Y6520000I-140000J0D01*
G01*
G37*
%TD*%
%TO.C,C3*%
G36*
G01*
X11025000Y15550000D02*
X11975000Y15550000D01*
G75*
G02*
X12225000Y15300000I0J-250000D01*
G01*
X12225000Y14800000D01*
G75*
G02*
X11975000Y14550000I-250000J0D01*
G01*
X11025000Y14550000D01*
G75*
G02*
X10775000Y14800000I0J250000D01*
G01*
X10775000Y15300000D01*
G75*
G02*
X11025000Y15550000I250000J0D01*
G01*
G37*
G36*
G01*
X11025000Y17450000D02*
X11975000Y17450000D01*
G75*
G02*
X12225000Y17200000I0J-250000D01*
G01*
X12225000Y16700000D01*
G75*
G02*
X11975000Y16450000I-250000J0D01*
G01*
X11025000Y16450000D01*
G75*
G02*
X10775000Y16700000I0J250000D01*
G01*
X10775000Y17200000D01*
G75*
G02*
X11025000Y17450000I250000J0D01*
G01*
G37*
%TD*%
%TO.C,C2*%
G36*
G01*
X13080000Y14980000D02*
X13420000Y14980000D01*
G75*
G02*
X13560000Y14840000I0J-140000D01*
G01*
X13560000Y14560000D01*
G75*
G02*
X13420000Y14420000I-140000J0D01*
G01*
X13080000Y14420000D01*
G75*
G02*
X12940000Y14560000I0J140000D01*
G01*
X12940000Y14840000D01*
G75*
G02*
X13080000Y14980000I140000J0D01*
G01*
G37*
G36*
G01*
X13080000Y15940000D02*
X13420000Y15940000D01*
G75*
G02*
X13560000Y15800000I0J-140000D01*
G01*
X13560000Y15520000D01*
G75*
G02*
X13420000Y15380000I-140000J0D01*
G01*
X13080000Y15380000D01*
G75*
G02*
X12940000Y15520000I0J140000D01*
G01*
X12940000Y15800000D01*
G75*
G02*
X13080000Y15940000I140000J0D01*
G01*
G37*
%TD*%
%TO.C,C1*%
G36*
G01*
X11975000Y9050000D02*
X11025000Y9050000D01*
G75*
G02*
X10775000Y9300000I0J250000D01*
G01*
X10775000Y9800000D01*
G75*
G02*
X11025000Y10050000I250000J0D01*
G01*
X11975000Y10050000D01*
G75*
G02*
X12225000Y9800000I0J-250000D01*
G01*
X12225000Y9300000D01*
G75*
G02*
X11975000Y9050000I-250000J0D01*
G01*
G37*
G36*
G01*
X11975000Y7150000D02*
X11025000Y7150000D01*
G75*
G02*
X10775000Y7400000I0J250000D01*
G01*
X10775000Y7900000D01*
G75*
G02*
X11025000Y8150000I250000J0D01*
G01*
X11975000Y8150000D01*
G75*
G02*
X12225000Y7900000I0J-250000D01*
G01*
X12225000Y7400000D01*
G75*
G02*
X11975000Y7150000I-250000J0D01*
G01*
G37*
%TD*%
M02*
