%TF.GenerationSoftware,KiCad,Pcbnew,(5.1.12-1-10_14)*%
%TF.CreationDate,2022-09-08T10:49:59+08:00*%
%TF.ProjectId,0102-TILEDAP,30313032-2d54-4494-9c45-4441502e6b69,V1.1*%
%TF.SameCoordinates,Original*%
%TF.FileFunction,Soldermask,Bot*%
%TF.FilePolarity,Negative*%
%FSLAX46Y46*%
G04 Gerber Fmt 4.6, Leading zero omitted, Abs format (unit mm)*
G04 Created by KiCad (PCBNEW (5.1.12-1-10_14)) date 2022-09-08 10:49:59*
%MOMM*%
%LPD*%
G01*
G04 APERTURE LIST*
%ADD10C,2.300000*%
%ADD11O,1.800000X1.800000*%
%ADD12O,1.100000X1.100000*%
%ADD13C,0.800000*%
%ADD14O,1.300000X2.200000*%
G04 APERTURE END LIST*
D10*
%TO.C,H3*%
X32300000Y2300000D03*
%TD*%
%TO.C,H2*%
X32300000Y22300000D03*
%TD*%
%TO.C,H1*%
X2300000Y12300000D03*
%TD*%
D11*
%TO.C,J3*%
X36082000Y7220000D03*
X33542000Y7220000D03*
X36082000Y9760000D03*
X33542000Y9760000D03*
X36082000Y12300000D03*
X33542000Y12300000D03*
X36082000Y14840000D03*
X33542000Y14840000D03*
X36082000Y17380000D03*
G36*
G01*
X32642000Y16530000D02*
X32642000Y18230000D01*
G75*
G02*
X32692000Y18280000I50000J0D01*
G01*
X34392000Y18280000D01*
G75*
G02*
X34442000Y18230000I0J-50000D01*
G01*
X34442000Y16530000D01*
G75*
G02*
X34392000Y16480000I-50000J0D01*
G01*
X32692000Y16480000D01*
G75*
G02*
X32642000Y16530000I0J50000D01*
G01*
G37*
%TD*%
D12*
%TO.C,J2*%
X20110000Y20300000D03*
X18840000Y20300000D03*
X17570000Y20300000D03*
G36*
G01*
X15800000Y20850000D02*
X16800000Y20850000D01*
G75*
G02*
X16850000Y20800000I0J-50000D01*
G01*
X16850000Y19800000D01*
G75*
G02*
X16800000Y19750000I-50000J0D01*
G01*
X15800000Y19750000D01*
G75*
G02*
X15750000Y19800000I0J50000D01*
G01*
X15750000Y20800000D01*
G75*
G02*
X15800000Y20850000I50000J0D01*
G01*
G37*
%TD*%
D13*
%TO.C,J1*%
X6600000Y15550000D03*
X6600000Y14600000D03*
X6600000Y12750000D03*
X6600000Y11850000D03*
X6600000Y10950000D03*
X6600000Y10000000D03*
X6600000Y9050000D03*
X8000000Y9050000D03*
X8000000Y10000000D03*
X8000000Y11850000D03*
X8000000Y12750000D03*
X8000000Y13650000D03*
X8000000Y14600000D03*
X8000000Y15550000D03*
D14*
X5370000Y10300000D03*
X9230000Y10300000D03*
X5370000Y14300000D03*
X9230000Y14300000D03*
%TD*%
M02*
