M48
; DRILL file {KiCad 6.0.7+dfsg-1~bpo11+1} date Thu Sep 22 06:20:53 2022
; FORMAT={-:-/ absolute / metric / decimal}
; #@! TF.CreationDate,2022-09-22T06:20:53+00:00
; #@! TF.GenerationSoftware,Kicad,Pcbnew,6.0.7+dfsg-1~bpo11+1
; #@! TF.FileFunction,Plated,1,4,PTH
FMAT,2
METRIC
; #@! TA.AperFunction,Plated,PTH,ViaDrill
T1C0.300
; #@! TA.AperFunction,Plated,PTH,ViaDrill
T2C0.400
; #@! TA.AperFunction,Plated,PTH,ViaDrill
T3C0.500
; #@! TA.AperFunction,Plated,PTH,ComponentDrill
T4C0.600
; #@! TA.AperFunction,Plated,PTH,ComponentDrill
T5C0.650
; #@! TA.AperFunction,Plated,PTH,ViaDrill
T6C0.700
; #@! TA.AperFunction,Plated,PTH,ComponentDrill
T7C1.000
%
G90
G05
T1
X0.8Y14.8
X0.8Y12.3
X0.8Y9.8
X0.8Y7.3
X0.8Y4.8
X4.8Y0.8
X6.3Y1.8
X7.3Y18.8
X7.3Y1.8
X7.3Y0.8
X9.0Y8.8
X9.0Y7.8
X9.3Y15.3
X9.3Y14.3
X9.8Y1.8
X9.85Y6.05
X10.3Y15.3
X10.3Y14.3
X10.8Y1.8
X11.3Y15.3
X11.3Y14.3
X12.2Y11.55
X12.3Y18.8
X12.3Y0.8
X12.95Y12.3
X13.05Y9.15
X13.8Y5.3
X13.9Y9.15
X14.3Y7.55
X14.3Y4.3
X14.8Y0.8
X15.3Y7.55
X15.8Y1.8
X16.05Y5.8
X16.8Y16.05
X16.8Y1.8
X16.9Y5.8
X17.3Y0.8
X17.65Y15.25
X17.65Y14.3
X17.8Y1.8
X18.6Y10.5
X18.6Y9.1
X18.8Y1.8
X19.8Y0.8
X20.0Y10.5
X20.0Y9.1
X20.05Y2.3
X20.3Y5.05
X21.3Y2.3
X22.05Y5.05
X22.3Y12.8
X22.3Y0.8
X22.8Y4.05
X23.05Y13.3
X24.05Y13.3
X24.2Y15.3
X24.8Y0.8
X25.8Y7.3
X25.8Y4.1
X26.7Y11.8
X26.8Y15.8
X26.8Y14.8
X27.3Y18.8
X27.3Y0.8
X27.8Y15.8
X27.8Y14.8
X27.8Y11.8
X28.8Y15.8
X28.8Y14.8
X28.8Y11.8
X28.8Y7.3
X28.8Y3.3
X28.8Y2.3
X29.8Y3.3
X29.8Y2.3
X30.8Y3.3
X30.8Y2.3
X32.3Y18.8
X32.3Y0.8
X34.8Y18.8
X34.8Y0.8
X37.3Y18.8
X37.3Y0.8
X38.8Y17.3
X38.8Y2.3
T2
X6.3Y11.05
X6.55Y10.05
X9.45Y11.7
X9.6Y10.25
X12.293Y10.475
X12.293Y9.625
X13.8Y15.4
X13.8Y8.25
X16.0Y12.7
X18.625Y16.125
X18.9Y5.7
X19.475Y16.125
X23.05Y5.05
X25.5Y13.6
X25.8Y10.3
X25.8Y6.05
X27.3Y7.3
T3
X13.8Y6.8
X15.9Y14.3
X19.8Y18.2
X22.2Y3.4
X23.3Y14.3
T5
X14.4Y18.05
X15.67Y18.05
X16.94Y18.05
X18.21Y18.05
T6
X5.3Y11.8
X5.3Y7.8
X11.0Y6.05
X13.55Y3.3
T7
X33.525Y14.88
X33.525Y12.34
X33.525Y9.8
X33.525Y7.26
X33.525Y4.72
X36.065Y14.88
X36.065Y12.34
X36.065Y9.8
X36.065Y7.26
X36.065Y4.72
T4
G00X2.99Y14.125
M15
G01X2.39Y14.125
M16
G05
G00X2.99Y5.475
M15
G01X2.39Y5.475
M16
G05
G00X7.42Y14.125
M15
G01X6.32Y14.125
M16
G05
G00X7.42Y5.475
M15
G01X6.32Y5.475
M16
G05
T0
M30
