%TF.GenerationSoftware,KiCad,Pcbnew,(5.1.12-1-10_14)*%
%TF.CreationDate,2022-09-08T10:49:59+08:00*%
%TF.ProjectId,0102-TILEDAP,30313032-2d54-4494-9c45-4441502e6b69,V1.1*%
%TF.SameCoordinates,Original*%
%TF.FileFunction,Legend,Bot*%
%TF.FilePolarity,Positive*%
%FSLAX46Y46*%
G04 Gerber Fmt 4.6, Leading zero omitted, Abs format (unit mm)*
G04 Created by KiCad (PCBNEW (5.1.12-1-10_14)) date 2022-09-08 10:49:59*
%MOMM*%
%LPD*%
G01*
G04 APERTURE LIST*
%ADD10C,0.120000*%
%ADD11C,0.150000*%
G04 APERTURE END LIST*
D10*
X15797047Y3361905D02*
X15797047Y3933334D01*
X15758952Y4047620D01*
X15682761Y4123810D01*
X15568476Y4161905D01*
X15492285Y4161905D01*
X16558952Y4161905D02*
X16178000Y4161905D01*
X16178000Y3361905D01*
X17282761Y4085715D02*
X17244666Y4123810D01*
X17130380Y4161905D01*
X17054190Y4161905D01*
X16939904Y4123810D01*
X16863714Y4047620D01*
X16825619Y3971429D01*
X16787523Y3819048D01*
X16787523Y3704762D01*
X16825619Y3552381D01*
X16863714Y3476191D01*
X16939904Y3400000D01*
X17054190Y3361905D01*
X17130380Y3361905D01*
X17244666Y3400000D01*
X17282761Y3438096D01*
X17854190Y3361905D02*
X17854190Y3933334D01*
X17816095Y4047620D01*
X17739904Y4123810D01*
X17625619Y4161905D01*
X17549428Y4161905D01*
X18616095Y4161905D02*
X18235142Y4161905D01*
X18235142Y3361905D01*
X19339904Y4085715D02*
X19301809Y4123810D01*
X19187523Y4161905D01*
X19111333Y4161905D01*
X18997047Y4123810D01*
X18920857Y4047620D01*
X18882761Y3971429D01*
X18844666Y3819048D01*
X18844666Y3704762D01*
X18882761Y3552381D01*
X18920857Y3476191D01*
X18997047Y3400000D01*
X19111333Y3361905D01*
X19187523Y3361905D01*
X19301809Y3400000D01*
X19339904Y3438096D01*
X19911333Y3361905D02*
X19911333Y3933334D01*
X19873238Y4047620D01*
X19797047Y4123810D01*
X19682761Y4161905D01*
X19606571Y4161905D01*
X20673238Y4161905D02*
X20292285Y4161905D01*
X20292285Y3361905D01*
X21397047Y4085715D02*
X21358952Y4123810D01*
X21244666Y4161905D01*
X21168476Y4161905D01*
X21054190Y4123810D01*
X20978000Y4047620D01*
X20939904Y3971429D01*
X20901809Y3819048D01*
X20901809Y3704762D01*
X20939904Y3552381D01*
X20978000Y3476191D01*
X21054190Y3400000D01*
X21168476Y3361905D01*
X21244666Y3361905D01*
X21358952Y3400000D01*
X21397047Y3438096D01*
X21968476Y3361905D02*
X21968476Y3933334D01*
X21930380Y4047620D01*
X21854190Y4123810D01*
X21739904Y4161905D01*
X21663714Y4161905D01*
X22730380Y4161905D02*
X22349428Y4161905D01*
X22349428Y3361905D01*
X23454190Y4085715D02*
X23416095Y4123810D01*
X23301809Y4161905D01*
X23225619Y4161905D01*
X23111333Y4123810D01*
X23035142Y4047620D01*
X22997047Y3971429D01*
X22958952Y3819048D01*
X22958952Y3704762D01*
X22997047Y3552381D01*
X23035142Y3476191D01*
X23111333Y3400000D01*
X23225619Y3361905D01*
X23301809Y3361905D01*
X23416095Y3400000D01*
X23454190Y3438096D01*
D11*
X15587976Y11260715D02*
X16302261Y11260715D01*
X15873690Y10832143D02*
X15587976Y12117858D01*
X16207023Y11689286D02*
X15492738Y11689286D01*
X15921309Y12117858D02*
X16207023Y10832143D01*
X16826071Y10927381D02*
X16921309Y10927381D01*
X17016547Y10975000D01*
X17064166Y11022620D01*
X17111785Y11117858D01*
X17159404Y11308334D01*
X17159404Y11546429D01*
X17111785Y11736905D01*
X17064166Y11832143D01*
X17016547Y11879762D01*
X16921309Y11927381D01*
X16826071Y11927381D01*
X16730833Y11879762D01*
X16683214Y11832143D01*
X16635595Y11736905D01*
X16587976Y11546429D01*
X16587976Y11308334D01*
X16635595Y11117858D01*
X16683214Y11022620D01*
X16730833Y10975000D01*
X16826071Y10927381D01*
X18111785Y11927381D02*
X17540357Y11927381D01*
X17826071Y11927381D02*
X17826071Y10927381D01*
X17730833Y11070239D01*
X17635595Y11165477D01*
X17540357Y11213096D01*
X18730833Y10927381D02*
X18826071Y10927381D01*
X18921309Y10975000D01*
X18968928Y11022620D01*
X19016547Y11117858D01*
X19064166Y11308334D01*
X19064166Y11546429D01*
X19016547Y11736905D01*
X18968928Y11832143D01*
X18921309Y11879762D01*
X18826071Y11927381D01*
X18730833Y11927381D01*
X18635595Y11879762D01*
X18587976Y11832143D01*
X18540357Y11736905D01*
X18492738Y11546429D01*
X18492738Y11308334D01*
X18540357Y11117858D01*
X18587976Y11022620D01*
X18635595Y10975000D01*
X18730833Y10927381D01*
X19445119Y11022620D02*
X19492738Y10975000D01*
X19587976Y10927381D01*
X19826071Y10927381D01*
X19921309Y10975000D01*
X19968928Y11022620D01*
X20016547Y11117858D01*
X20016547Y11213096D01*
X19968928Y11355953D01*
X19397500Y11927381D01*
X20016547Y11927381D01*
X21064166Y10927381D02*
X21635595Y10927381D01*
X21349880Y11927381D02*
X21349880Y10927381D01*
X21968928Y11927381D02*
X21968928Y10927381D01*
X22921309Y11927381D02*
X22445119Y11927381D01*
X22445119Y10927381D01*
X23254642Y11403572D02*
X23587976Y11403572D01*
X23730833Y11927381D02*
X23254642Y11927381D01*
X23254642Y10927381D01*
X23730833Y10927381D01*
X24159404Y11927381D02*
X24159404Y10927381D01*
X24397500Y10927381D01*
X24540357Y10975000D01*
X24635595Y11070239D01*
X24683214Y11165477D01*
X24730833Y11355953D01*
X24730833Y11498810D01*
X24683214Y11689286D01*
X24635595Y11784524D01*
X24540357Y11879762D01*
X24397500Y11927381D01*
X24159404Y11927381D01*
X25111785Y11641667D02*
X25587976Y11641667D01*
X25016547Y11927381D02*
X25349880Y10927381D01*
X25683214Y11927381D01*
X26016547Y11927381D02*
X26016547Y10927381D01*
X26397500Y10927381D01*
X26492738Y10975000D01*
X26540357Y11022620D01*
X26587976Y11117858D01*
X26587976Y11260715D01*
X26540357Y11355953D01*
X26492738Y11403572D01*
X26397500Y11451191D01*
X26016547Y11451191D01*
X15492738Y12577381D02*
X15826071Y13577381D01*
X16159404Y12577381D01*
X17016547Y13577381D02*
X16445119Y13577381D01*
X16730833Y13577381D02*
X16730833Y12577381D01*
X16635595Y12720239D01*
X16540357Y12815477D01*
X16445119Y12863096D01*
X17445119Y13482143D02*
X17492738Y13529762D01*
X17445119Y13577381D01*
X17397500Y13529762D01*
X17445119Y13482143D01*
X17445119Y13577381D01*
X18445119Y13577381D02*
X17873690Y13577381D01*
X18159404Y13577381D02*
X18159404Y12577381D01*
X18064166Y12720239D01*
X17968928Y12815477D01*
X17873690Y12863096D01*
D10*
X19163809Y18799620D02*
X19201904Y18685334D01*
X19201904Y18494858D01*
X19163809Y18418667D01*
X19125714Y18380572D01*
X19049523Y18342477D01*
X18973333Y18342477D01*
X18897142Y18380572D01*
X18859047Y18418667D01*
X18820952Y18494858D01*
X18782857Y18647239D01*
X18744761Y18723429D01*
X18706666Y18761524D01*
X18630476Y18799620D01*
X18554285Y18799620D01*
X18478095Y18761524D01*
X18440000Y18723429D01*
X18401904Y18647239D01*
X18401904Y18456762D01*
X18440000Y18342477D01*
X18401904Y18075810D02*
X19201904Y17885334D01*
X18630476Y17732953D01*
X19201904Y17580572D01*
X18401904Y17390096D01*
X19201904Y17085334D02*
X18401904Y17085334D01*
X18401904Y16552000D02*
X18401904Y16399620D01*
X18440000Y16323429D01*
X18516190Y16247239D01*
X18668571Y16209143D01*
X18935238Y16209143D01*
X19087619Y16247239D01*
X19163809Y16323429D01*
X19201904Y16399620D01*
X19201904Y16552000D01*
X19163809Y16628191D01*
X19087619Y16704381D01*
X18935238Y16742477D01*
X18668571Y16742477D01*
X18516190Y16704381D01*
X18440000Y16628191D01*
X18401904Y16552000D01*
X17893809Y18799620D02*
X17931904Y18685334D01*
X17931904Y18494858D01*
X17893809Y18418667D01*
X17855714Y18380572D01*
X17779523Y18342477D01*
X17703333Y18342477D01*
X17627142Y18380572D01*
X17589047Y18418667D01*
X17550952Y18494858D01*
X17512857Y18647239D01*
X17474761Y18723429D01*
X17436666Y18761524D01*
X17360476Y18799620D01*
X17284285Y18799620D01*
X17208095Y18761524D01*
X17170000Y18723429D01*
X17131904Y18647239D01*
X17131904Y18456762D01*
X17170000Y18342477D01*
X17131904Y18075810D02*
X17931904Y17885334D01*
X17360476Y17732953D01*
X17931904Y17580572D01*
X17131904Y17390096D01*
X17855714Y16628191D02*
X17893809Y16666286D01*
X17931904Y16780572D01*
X17931904Y16856762D01*
X17893809Y16971048D01*
X17817619Y17047239D01*
X17741428Y17085334D01*
X17589047Y17123429D01*
X17474761Y17123429D01*
X17322380Y17085334D01*
X17246190Y17047239D01*
X17170000Y16971048D01*
X17131904Y16856762D01*
X17131904Y16780572D01*
X17170000Y16666286D01*
X17208095Y16628191D01*
X17931904Y16285334D02*
X17131904Y16285334D01*
X17931904Y15828191D02*
X17474761Y16171048D01*
X17131904Y15828191D02*
X17589047Y16285334D01*
X15900000Y18342477D02*
X15861904Y18418667D01*
X15861904Y18532953D01*
X15900000Y18647239D01*
X15976190Y18723429D01*
X16052380Y18761524D01*
X16204761Y18799620D01*
X16319047Y18799620D01*
X16471428Y18761524D01*
X16547619Y18723429D01*
X16623809Y18647239D01*
X16661904Y18532953D01*
X16661904Y18456762D01*
X16623809Y18342477D01*
X16585714Y18304381D01*
X16319047Y18304381D01*
X16319047Y18456762D01*
X16661904Y17961524D02*
X15861904Y17961524D01*
X16661904Y17504381D01*
X15861904Y17504381D01*
X16661904Y17123429D02*
X15861904Y17123429D01*
X15861904Y16932953D01*
X15900000Y16818667D01*
X15976190Y16742477D01*
X16052380Y16704381D01*
X16204761Y16666286D01*
X16319047Y16666286D01*
X16471428Y16704381D01*
X16547619Y16742477D01*
X16623809Y16818667D01*
X16661904Y16932953D01*
X16661904Y17123429D01*
X19671904Y18380572D02*
X19671904Y18761524D01*
X20052857Y18799620D01*
X20014761Y18761524D01*
X19976666Y18685334D01*
X19976666Y18494858D01*
X20014761Y18418667D01*
X20052857Y18380572D01*
X20129047Y18342477D01*
X20319523Y18342477D01*
X20395714Y18380572D01*
X20433809Y18418667D01*
X20471904Y18494858D01*
X20471904Y18685334D01*
X20433809Y18761524D01*
X20395714Y18799620D01*
X19671904Y18113905D02*
X20471904Y17847239D01*
X19671904Y17580572D01*
%TO.C,J2*%
X15540000Y21410000D02*
X15540000Y20300000D01*
X16300000Y21410000D02*
X15540000Y21410000D01*
X17060000Y19736529D02*
X17060000Y19190000D01*
X17060000Y21410000D02*
X17060000Y20863471D01*
X17060000Y19190000D02*
X20805000Y19190000D01*
X17060000Y21410000D02*
X20805000Y21410000D01*
X20805000Y19992470D02*
X20805000Y19190000D01*
X20805000Y21410000D02*
X20805000Y20607530D01*
%TD*%
M02*
