%TF.GenerationSoftware,KiCad,Pcbnew,6.0.7+dfsg-1~bpo11+1*%
%TF.CreationDate,2022-09-22T06:20:52+00:00*%
%TF.ProjectId,0102-TILEDAP,30313032-2d54-4494-9c45-4441502e6b69,V1.4*%
%TF.SameCoordinates,Original*%
%TF.FileFunction,Copper,L2,Inr*%
%TF.FilePolarity,Positive*%
%FSLAX46Y46*%
G04 Gerber Fmt 4.6, Leading zero omitted, Abs format (unit mm)*
G04 Created by KiCad (PCBNEW 6.0.7+dfsg-1~bpo11+1) date 2022-09-22 06:20:52*
%MOMM*%
%LPD*%
G01*
G04 APERTURE LIST*
G04 Aperture macros list*
%AMRoundRect*
0 Rectangle with rounded corners*
0 $1 Rounding radius*
0 $2 $3 $4 $5 $6 $7 $8 $9 X,Y pos of 4 corners*
0 Add a 4 corners polygon primitive as box body*
4,1,4,$2,$3,$4,$5,$6,$7,$8,$9,$2,$3,0*
0 Add four circle primitives for the rounded corners*
1,1,$1+$1,$2,$3*
1,1,$1+$1,$4,$5*
1,1,$1+$1,$6,$7*
1,1,$1+$1,$8,$9*
0 Add four rect primitives between the rounded corners*
20,1,$1+$1,$2,$3,$4,$5,0*
20,1,$1+$1,$4,$5,$6,$7,0*
20,1,$1+$1,$6,$7,$8,$9,0*
20,1,$1+$1,$8,$9,$2,$3,0*%
G04 Aperture macros list end*
%TA.AperFunction,ComponentPad*%
%ADD10RoundRect,0.350000X-0.700000X0.350000X-0.700000X-0.350000X0.700000X-0.350000X0.700000X0.350000X0*%
%TD*%
%TA.AperFunction,ComponentPad*%
%ADD11RoundRect,0.350000X-0.650000X0.350000X-0.650000X-0.350000X0.650000X-0.350000X0.650000X0.350000X0*%
%TD*%
%TA.AperFunction,ComponentPad*%
%ADD12R,1.700000X1.700000*%
%TD*%
%TA.AperFunction,ComponentPad*%
%ADD13O,1.700000X1.700000*%
%TD*%
%TA.AperFunction,ComponentPad*%
%ADD14R,1.000000X1.000000*%
%TD*%
%TA.AperFunction,ComponentPad*%
%ADD15O,1.000000X1.000000*%
%TD*%
%TA.AperFunction,ViaPad*%
%ADD16C,1.000000*%
%TD*%
%TA.AperFunction,ViaPad*%
%ADD17C,0.700000*%
%TD*%
%TA.AperFunction,ViaPad*%
%ADD18C,0.500000*%
%TD*%
%TA.AperFunction,ViaPad*%
%ADD19C,0.800000*%
%TD*%
G04 APERTURE END LIST*
D10*
%TO.N,GND*%
%TO.C,J1*%
X6870000Y14325000D03*
D11*
X2890000Y5275000D03*
X2890000Y14325000D03*
D10*
X6870000Y5275000D03*
%TD*%
D12*
%TO.N,/TGT_SWDIO*%
%TO.C,J3*%
X33525000Y14880000D03*
D13*
%TO.N,VBUS*%
X36065000Y14880000D03*
%TO.N,/TGT_SWCLK*%
X33525000Y12340000D03*
%TO.N,+3V3*%
X36065000Y12340000D03*
%TO.N,GND*%
X33525000Y9800000D03*
X36065000Y9800000D03*
%TO.N,/TGT_TX*%
X33525000Y7260000D03*
%TO.N,/TGT_RX*%
X36065000Y7260000D03*
%TO.N,/TGT_NRESET*%
X33525000Y4720000D03*
%TO.N,GND*%
X36065000Y4720000D03*
%TD*%
D14*
%TO.N,GND*%
%TO.C,J2*%
X14400000Y18050000D03*
D15*
%TO.N,/IF_SWCLK*%
X15670000Y18050000D03*
%TO.N,/IF_SWDIO*%
X16940000Y18050000D03*
%TO.N,VBUS*%
X18210000Y18050000D03*
%TD*%
D16*
%TO.N,VBUS*%
X13550000Y3300000D03*
X5300000Y11800000D03*
X5300000Y7800000D03*
D17*
X13800000Y8250000D03*
D18*
%TO.N,GND*%
X26800000Y14800000D03*
X27300000Y18800000D03*
X32300000Y800000D03*
X800000Y4800000D03*
X22050000Y5050000D03*
X28800000Y15800000D03*
X18600000Y10500000D03*
X26800000Y15800000D03*
X7300000Y18800000D03*
X30800000Y2300000D03*
X9850000Y6050000D03*
X24200000Y15300000D03*
X800000Y12300000D03*
X800000Y9800000D03*
X11300000Y14300000D03*
X28800000Y14800000D03*
X16800000Y1800000D03*
X9000000Y7800000D03*
X4800000Y800000D03*
X20050000Y2300000D03*
X10800000Y1800000D03*
X30800000Y3300000D03*
X20300000Y5050000D03*
X9300000Y15300000D03*
X14300000Y4300000D03*
X800000Y14800000D03*
X11300000Y15300000D03*
X25800000Y7300000D03*
X15800000Y1800000D03*
X15300000Y7550000D03*
X6300000Y1800000D03*
X17650000Y15250000D03*
X32300000Y18800000D03*
X20000000Y10500000D03*
X16050000Y5800000D03*
X800000Y7300000D03*
X22300000Y800000D03*
X38800000Y17300000D03*
X27300000Y800000D03*
X34800000Y800000D03*
X24050000Y13300000D03*
X12300000Y18800000D03*
X26700000Y11800000D03*
X16800000Y16050000D03*
X13800000Y5300000D03*
X9800000Y1800000D03*
X17300000Y800000D03*
X22800000Y4050000D03*
X13900000Y9150000D03*
X7300000Y1800000D03*
X25800000Y4100000D03*
X20000000Y9100000D03*
X27800000Y11800000D03*
X38800000Y2300000D03*
X13050000Y9150000D03*
X28800000Y7300000D03*
X29800000Y3300000D03*
X24800000Y800000D03*
X9000000Y8800000D03*
X12950000Y12300000D03*
X16900000Y5800000D03*
X12300000Y800000D03*
X21300000Y2300000D03*
X27800000Y14800000D03*
X37300000Y18800000D03*
X37300000Y800000D03*
X17800000Y1800000D03*
X10300000Y15300000D03*
X19800000Y800000D03*
X12200000Y11550000D03*
X29800000Y2300000D03*
X28800000Y3300000D03*
X27800000Y15800000D03*
X18800000Y1800000D03*
X22300000Y12800000D03*
X28800000Y2300000D03*
X14300000Y7550000D03*
X17650000Y14300000D03*
X18600000Y9100000D03*
X23050000Y13300000D03*
X34800000Y18800000D03*
X10300000Y14300000D03*
X14800000Y800000D03*
X9300000Y14300000D03*
X7300000Y800000D03*
X28800000Y11800000D03*
D19*
%TO.N,+3V3*%
X22200000Y3400000D03*
X13800000Y6800000D03*
X23300000Y14300000D03*
X19800000Y18200000D03*
X15900000Y14300000D03*
D16*
X11000000Y6050000D03*
D17*
X25500000Y13600000D03*
X25800000Y6050000D03*
X13800000Y15400000D03*
%TO.N,/TGT_USB_D+*%
X18625000Y16125500D03*
X12292684Y10475000D03*
%TO.N,/TGT_USB_D-*%
X12292684Y9625000D03*
X19475000Y16125500D03*
%TO.N,/TGT_NRESET*%
X25800000Y10300000D03*
X27300000Y7300000D03*
%TO.N,/IF_NRESET*%
X23050000Y5050000D03*
X18900000Y5700000D03*
%TO.N,/D+*%
X9600000Y10250000D03*
X6550000Y10050000D03*
%TO.N,Net-(J1-PadB5)*%
X9450000Y11700000D03*
X6300000Y11050000D03*
%TO.N,/IF_SWCLK*%
X16000000Y12700000D03*
%TD*%
%TA.AperFunction,Conductor*%
%TO.N,GND*%
G36*
X8553332Y19429498D02*
G01*
X8599825Y19375842D01*
X8601115Y19372667D01*
X8601476Y19371320D01*
X8687324Y19181795D01*
X8690190Y19177505D01*
X8746090Y19093828D01*
X8802901Y19008786D01*
X8945119Y18856918D01*
X9110178Y18730247D01*
X9293668Y18632159D01*
X9298545Y18630503D01*
X9298548Y18630502D01*
X9438387Y18583028D01*
X9490686Y18565273D01*
X9695969Y18531377D01*
X9904031Y18531377D01*
X10109314Y18565273D01*
X10161613Y18583028D01*
X10301452Y18630502D01*
X10301455Y18630503D01*
X10306332Y18632159D01*
X10489822Y18730247D01*
X10654881Y18856918D01*
X10797099Y19008786D01*
X10853911Y19093828D01*
X10909810Y19177505D01*
X10912676Y19181795D01*
X10963341Y19293646D01*
X10998524Y19371320D01*
X10999686Y19370793D01*
X11037922Y19423337D01*
X11104100Y19449046D01*
X11114789Y19449500D01*
X28485211Y19449500D01*
X28553332Y19429498D01*
X28599825Y19375842D01*
X28601115Y19372667D01*
X28601476Y19371320D01*
X28687324Y19181795D01*
X28690190Y19177505D01*
X28746090Y19093828D01*
X28802901Y19008786D01*
X28945119Y18856918D01*
X29110178Y18730247D01*
X29293668Y18632159D01*
X29298545Y18630503D01*
X29298548Y18630502D01*
X29438387Y18583028D01*
X29490686Y18565273D01*
X29695969Y18531377D01*
X29904031Y18531377D01*
X30109314Y18565273D01*
X30161613Y18583028D01*
X30301452Y18630502D01*
X30301455Y18630503D01*
X30306332Y18632159D01*
X30489822Y18730247D01*
X30654881Y18856918D01*
X30797099Y19008786D01*
X30853911Y19093828D01*
X30909810Y19177505D01*
X30912676Y19181795D01*
X30963341Y19293646D01*
X30998524Y19371320D01*
X30999686Y19370793D01*
X31037922Y19423337D01*
X31104100Y19449046D01*
X31114789Y19449500D01*
X38763598Y19449500D01*
X38771315Y19448484D01*
X38783978Y19448484D01*
X38800000Y19444191D01*
X38813583Y19447830D01*
X38816043Y19447692D01*
X38930420Y19434805D01*
X38957928Y19428526D01*
X39068407Y19389868D01*
X39093820Y19377631D01*
X39192943Y19315349D01*
X39214998Y19297759D01*
X39297759Y19214998D01*
X39315349Y19192943D01*
X39377631Y19093820D01*
X39389868Y19068407D01*
X39428526Y18957928D01*
X39434805Y18930420D01*
X39447692Y18816043D01*
X39447830Y18813583D01*
X39444191Y18800000D01*
X39448484Y18783978D01*
X39448484Y18771315D01*
X39449500Y18763598D01*
X39449500Y11114789D01*
X39429498Y11046668D01*
X39375842Y11000175D01*
X39372667Y10998885D01*
X39371320Y10998524D01*
X39239994Y10939038D01*
X39204424Y10922926D01*
X39181795Y10912676D01*
X39177505Y10909810D01*
X39013074Y10799964D01*
X39013070Y10799961D01*
X39008786Y10797099D01*
X38952603Y10744486D01*
X38883665Y10679928D01*
X38856918Y10654881D01*
X38730247Y10489822D01*
X38632159Y10306332D01*
X38630503Y10301455D01*
X38630502Y10301452D01*
X38569894Y10122926D01*
X38565273Y10109314D01*
X38531377Y9904031D01*
X38531377Y9695969D01*
X38565273Y9490686D01*
X38566931Y9485803D01*
X38566931Y9485802D01*
X38607160Y9367306D01*
X38632159Y9293668D01*
X38730247Y9110178D01*
X38856918Y8945119D01*
X39008786Y8802901D01*
X39013070Y8800039D01*
X39013074Y8800036D01*
X39124132Y8725845D01*
X39181795Y8687324D01*
X39186495Y8685195D01*
X39186497Y8685194D01*
X39371320Y8601476D01*
X39370793Y8600314D01*
X39423337Y8562078D01*
X39449046Y8495900D01*
X39449500Y8485211D01*
X39449500Y836402D01*
X39448484Y828685D01*
X39448484Y816022D01*
X39444191Y800000D01*
X39447830Y786417D01*
X39447692Y783957D01*
X39434805Y669580D01*
X39428526Y642072D01*
X39389868Y531593D01*
X39377631Y506180D01*
X39315349Y407057D01*
X39297759Y385002D01*
X39214998Y302241D01*
X39192943Y284651D01*
X39093820Y222369D01*
X39068407Y210132D01*
X38957928Y171474D01*
X38930420Y165195D01*
X38816043Y152308D01*
X38813583Y152170D01*
X38800000Y155809D01*
X38783978Y151516D01*
X38771315Y151516D01*
X38763598Y150500D01*
X31114789Y150500D01*
X31046668Y170502D01*
X31000175Y224158D01*
X30998885Y227333D01*
X30998524Y228680D01*
X30912676Y418205D01*
X30888477Y454429D01*
X30799964Y586926D01*
X30799961Y586930D01*
X30797099Y591214D01*
X30654881Y743082D01*
X30489822Y869753D01*
X30306332Y967841D01*
X30301455Y969497D01*
X30301452Y969498D01*
X30114198Y1033069D01*
X30114197Y1033069D01*
X30109314Y1034727D01*
X29904031Y1068623D01*
X29695969Y1068623D01*
X29490686Y1034727D01*
X29485803Y1033069D01*
X29485802Y1033069D01*
X29298548Y969498D01*
X29298545Y969497D01*
X29293668Y967841D01*
X29110178Y869753D01*
X28945119Y743082D01*
X28802901Y591214D01*
X28800039Y586930D01*
X28800036Y586926D01*
X28711523Y454429D01*
X28687324Y418205D01*
X28685195Y413505D01*
X28685194Y413503D01*
X28634796Y302241D01*
X28601476Y228680D01*
X28600314Y229207D01*
X28562078Y176663D01*
X28495900Y150954D01*
X28485211Y150500D01*
X11114789Y150500D01*
X11046668Y170502D01*
X11000175Y224158D01*
X10998885Y227333D01*
X10998524Y228680D01*
X10912676Y418205D01*
X10888477Y454429D01*
X10799964Y586926D01*
X10799961Y586930D01*
X10797099Y591214D01*
X10654881Y743082D01*
X10489822Y869753D01*
X10306332Y967841D01*
X10301455Y969497D01*
X10301452Y969498D01*
X10114198Y1033069D01*
X10114197Y1033069D01*
X10109314Y1034727D01*
X9904031Y1068623D01*
X9695969Y1068623D01*
X9490686Y1034727D01*
X9485803Y1033069D01*
X9485802Y1033069D01*
X9298548Y969498D01*
X9298545Y969497D01*
X9293668Y967841D01*
X9110178Y869753D01*
X8945119Y743082D01*
X8802901Y591214D01*
X8800039Y586930D01*
X8800036Y586926D01*
X8711523Y454429D01*
X8687324Y418205D01*
X8685195Y413505D01*
X8685194Y413503D01*
X8634796Y302241D01*
X8601476Y228680D01*
X8600314Y229207D01*
X8562078Y176663D01*
X8495900Y150954D01*
X8485211Y150500D01*
X836402Y150500D01*
X828685Y151516D01*
X816022Y151516D01*
X800000Y155809D01*
X786417Y152170D01*
X783957Y152308D01*
X669580Y165195D01*
X642072Y171474D01*
X531593Y210132D01*
X506180Y222369D01*
X407057Y284651D01*
X385002Y302241D01*
X302241Y385002D01*
X284651Y407057D01*
X222369Y506180D01*
X210132Y531593D01*
X171474Y642072D01*
X165195Y669580D01*
X152308Y783957D01*
X152170Y786417D01*
X155809Y800000D01*
X151516Y816022D01*
X151516Y828685D01*
X150500Y836402D01*
X150500Y3306862D01*
X12894758Y3306862D01*
X12912035Y3150367D01*
X12966143Y3002510D01*
X12970380Y2996204D01*
X12970382Y2996201D01*
X13010709Y2936189D01*
X13053958Y2871828D01*
X13170410Y2765865D01*
X13177085Y2762241D01*
X13302099Y2694363D01*
X13302101Y2694362D01*
X13308776Y2690738D01*
X13316125Y2688810D01*
X13453719Y2652713D01*
X13453721Y2652713D01*
X13461069Y2650785D01*
X13544380Y2649476D01*
X13610898Y2648431D01*
X13610901Y2648431D01*
X13618495Y2648312D01*
X13771968Y2683462D01*
X13912625Y2754205D01*
X14019902Y2845828D01*
X14026574Y2851526D01*
X14026576Y2851529D01*
X14032348Y2856458D01*
X14124224Y2984317D01*
X14131475Y3002353D01*
X14180114Y3123348D01*
X14182950Y3130402D01*
X14189953Y3179607D01*
X14204553Y3282193D01*
X14204553Y3282196D01*
X14205134Y3286277D01*
X14205278Y3300000D01*
X14193177Y3400000D01*
X21644750Y3400000D01*
X21663670Y3256291D01*
X21719139Y3122375D01*
X21807379Y3007379D01*
X21922375Y2919139D01*
X22056291Y2863670D01*
X22200000Y2844750D01*
X22343709Y2863670D01*
X22477625Y2919139D01*
X22592621Y3007379D01*
X22680861Y3122375D01*
X22736330Y3256291D01*
X22755250Y3400000D01*
X22736330Y3543709D01*
X22680861Y3677625D01*
X22592621Y3792621D01*
X22477625Y3880861D01*
X22343709Y3936330D01*
X22200000Y3955250D01*
X22056291Y3936330D01*
X21922375Y3880861D01*
X21807379Y3792621D01*
X21719139Y3677625D01*
X21663670Y3543709D01*
X21644750Y3400000D01*
X14193177Y3400000D01*
X14186363Y3456306D01*
X14156431Y3535520D01*
X14133394Y3596486D01*
X14133393Y3596489D01*
X14130710Y3603588D01*
X14041531Y3733343D01*
X13987475Y3781505D01*
X13929648Y3833028D01*
X13929645Y3833030D01*
X13923976Y3838081D01*
X13784831Y3911755D01*
X13699578Y3933169D01*
X13639498Y3948260D01*
X13639496Y3948260D01*
X13632128Y3950111D01*
X13624530Y3950151D01*
X13624528Y3950151D01*
X13557319Y3950503D01*
X13474684Y3950935D01*
X13467305Y3949163D01*
X13467301Y3949163D01*
X13328967Y3915952D01*
X13328963Y3915951D01*
X13321588Y3914180D01*
X13181679Y3841968D01*
X13175957Y3836976D01*
X13175955Y3836975D01*
X13068759Y3743462D01*
X13068756Y3743459D01*
X13063034Y3738467D01*
X12972501Y3609652D01*
X12915309Y3462961D01*
X12894758Y3306862D01*
X150500Y3306862D01*
X150500Y4881085D01*
X1740000Y4881085D01*
X1740369Y4874271D01*
X1745789Y4824379D01*
X1749414Y4809133D01*
X1793767Y4690823D01*
X1802299Y4675237D01*
X1877430Y4574991D01*
X1889991Y4562430D01*
X1990237Y4487299D01*
X2005823Y4478767D01*
X2124133Y4434414D01*
X2139379Y4430789D01*
X2189271Y4425369D01*
X2196085Y4425000D01*
X2617885Y4425000D01*
X2633124Y4429475D01*
X2634329Y4430865D01*
X2636000Y4438548D01*
X2636000Y4443115D01*
X3144000Y4443115D01*
X3148475Y4427876D01*
X3149865Y4426671D01*
X3157548Y4425000D01*
X3583915Y4425000D01*
X3590729Y4425369D01*
X3640621Y4430789D01*
X3655867Y4434414D01*
X3774177Y4478767D01*
X3789763Y4487299D01*
X3890009Y4562430D01*
X3902570Y4574991D01*
X3977701Y4675237D01*
X3986233Y4690823D01*
X4030586Y4809133D01*
X4034211Y4824379D01*
X4039631Y4874271D01*
X4040000Y4881085D01*
X5670000Y4881085D01*
X5670369Y4874271D01*
X5675789Y4824379D01*
X5679414Y4809133D01*
X5723767Y4690823D01*
X5732299Y4675237D01*
X5807430Y4574991D01*
X5819991Y4562430D01*
X5920237Y4487299D01*
X5935823Y4478767D01*
X6054133Y4434414D01*
X6069379Y4430789D01*
X6119271Y4425369D01*
X6126085Y4425000D01*
X6597885Y4425000D01*
X6613124Y4429475D01*
X6614329Y4430865D01*
X6616000Y4438548D01*
X6616000Y4443115D01*
X7124000Y4443115D01*
X7128475Y4427876D01*
X7129865Y4426671D01*
X7137548Y4425000D01*
X7613915Y4425000D01*
X7620729Y4425369D01*
X7670621Y4430789D01*
X7685867Y4434414D01*
X7804177Y4478767D01*
X7819763Y4487299D01*
X7920009Y4562430D01*
X7932570Y4574991D01*
X8007701Y4675237D01*
X8016233Y4690823D01*
X8060586Y4809133D01*
X8064211Y4824379D01*
X8069631Y4874271D01*
X8070000Y4881085D01*
X8070000Y5002885D01*
X8065525Y5018124D01*
X8064135Y5019329D01*
X8056452Y5021000D01*
X7142115Y5021000D01*
X7126876Y5016525D01*
X7125671Y5015135D01*
X7124000Y5007452D01*
X7124000Y4443115D01*
X6616000Y4443115D01*
X6616000Y5002885D01*
X6611525Y5018124D01*
X6610135Y5019329D01*
X6602452Y5021000D01*
X5688115Y5021000D01*
X5672876Y5016525D01*
X5671671Y5015135D01*
X5670000Y5007452D01*
X5670000Y4881085D01*
X4040000Y4881085D01*
X4040000Y5002885D01*
X4035525Y5018124D01*
X4034135Y5019329D01*
X4026452Y5021000D01*
X3162115Y5021000D01*
X3146876Y5016525D01*
X3145671Y5015135D01*
X3144000Y5007452D01*
X3144000Y4443115D01*
X2636000Y4443115D01*
X2636000Y5002885D01*
X2631525Y5018124D01*
X2630135Y5019329D01*
X2622452Y5021000D01*
X1758115Y5021000D01*
X1742876Y5016525D01*
X1741671Y5015135D01*
X1740000Y5007452D01*
X1740000Y4881085D01*
X150500Y4881085D01*
X150500Y5056177D01*
X22544391Y5056177D01*
X22545555Y5047275D01*
X22545555Y5047272D01*
X22551360Y5002885D01*
X22562980Y4914021D01*
X22620720Y4782797D01*
X22626497Y4775924D01*
X22626498Y4775923D01*
X22694139Y4695454D01*
X22712970Y4673052D01*
X22832313Y4593610D01*
X22969157Y4550858D01*
X22978129Y4550694D01*
X22978132Y4550693D01*
X23043463Y4549496D01*
X23112499Y4548230D01*
X23121533Y4550693D01*
X23242158Y4583579D01*
X23242160Y4583580D01*
X23250817Y4585940D01*
X23372991Y4660955D01*
X23439141Y4734037D01*
X32519757Y4734037D01*
X32536175Y4538517D01*
X32590258Y4349909D01*
X32593076Y4344426D01*
X32677123Y4180887D01*
X32677126Y4180883D01*
X32679944Y4175399D01*
X32801818Y4021631D01*
X32806511Y4017637D01*
X32806512Y4017636D01*
X32928749Y3913605D01*
X32951238Y3894465D01*
X32956616Y3891459D01*
X32956618Y3891458D01*
X32992932Y3871163D01*
X33122513Y3798743D01*
X33309118Y3738111D01*
X33503946Y3714879D01*
X33510081Y3715351D01*
X33510083Y3715351D01*
X33693434Y3729459D01*
X33693438Y3729460D01*
X33699576Y3729932D01*
X33888556Y3782697D01*
X34063689Y3871163D01*
X34093515Y3894465D01*
X34213453Y3988171D01*
X34218303Y3991960D01*
X34248084Y4026461D01*
X34342485Y4135827D01*
X34342485Y4135828D01*
X34346509Y4140489D01*
X34443425Y4311091D01*
X34490973Y4454025D01*
X35100923Y4454025D01*
X35129025Y4356020D01*
X35133543Y4344608D01*
X35217546Y4181156D01*
X35224196Y4170838D01*
X35338350Y4026811D01*
X35346873Y4017985D01*
X35486833Y3898871D01*
X35496905Y3891870D01*
X35657334Y3802210D01*
X35668574Y3797299D01*
X35793769Y3756621D01*
X35807867Y3756218D01*
X35811000Y3762590D01*
X35811000Y3770742D01*
X36319000Y3770742D01*
X36322973Y3757211D01*
X36331188Y3756030D01*
X36422430Y3781505D01*
X36433881Y3785947D01*
X36597919Y3868807D01*
X36608276Y3875380D01*
X36753100Y3988530D01*
X36761986Y3996991D01*
X36882070Y4136110D01*
X36889144Y4146138D01*
X36979919Y4305932D01*
X36984913Y4317148D01*
X37028712Y4448811D01*
X37029213Y4462903D01*
X37023024Y4466000D01*
X36337115Y4466000D01*
X36321876Y4461525D01*
X36320671Y4460135D01*
X36319000Y4452452D01*
X36319000Y3770742D01*
X35811000Y3770742D01*
X35811000Y4447885D01*
X35806525Y4463124D01*
X35805135Y4464329D01*
X35797452Y4466000D01*
X35115604Y4466000D01*
X35102073Y4462027D01*
X35100923Y4454025D01*
X34490973Y4454025D01*
X34505358Y4497268D01*
X34529949Y4691929D01*
X34530341Y4720000D01*
X34511194Y4915272D01*
X34509413Y4921171D01*
X34509412Y4921176D01*
X34492507Y4977168D01*
X35101594Y4977168D01*
X35108153Y4974000D01*
X35792885Y4974000D01*
X35808124Y4978475D01*
X35809329Y4979865D01*
X35811000Y4987548D01*
X35811000Y4992115D01*
X36319000Y4992115D01*
X36323475Y4976876D01*
X36324865Y4975671D01*
X36332548Y4974000D01*
X37014826Y4974000D01*
X37028357Y4977973D01*
X37029449Y4985567D01*
X36995801Y5097015D01*
X36991126Y5108356D01*
X36904846Y5270627D01*
X36898059Y5280843D01*
X36781899Y5423269D01*
X36773255Y5431973D01*
X36631649Y5549120D01*
X36621478Y5555980D01*
X36459809Y5643394D01*
X36448504Y5648146D01*
X36336308Y5682876D01*
X36322205Y5683082D01*
X36319000Y5676327D01*
X36319000Y4992115D01*
X35811000Y4992115D01*
X35811000Y5669586D01*
X35807027Y5683117D01*
X35799232Y5684237D01*
X35694496Y5653411D01*
X35683119Y5648814D01*
X35520247Y5563667D01*
X35509986Y5556953D01*
X35366751Y5441789D01*
X35357992Y5433211D01*
X35239853Y5292419D01*
X35232927Y5282305D01*
X35144383Y5121243D01*
X35139555Y5109979D01*
X35101898Y4991269D01*
X35101594Y4977168D01*
X34492507Y4977168D01*
X34456265Y5097207D01*
X34454484Y5103106D01*
X34362370Y5276347D01*
X34238361Y5428398D01*
X34087180Y5553465D01*
X33914585Y5646787D01*
X33819156Y5676327D01*
X33733039Y5702985D01*
X33733036Y5702986D01*
X33727152Y5704807D01*
X33721027Y5705451D01*
X33721026Y5705451D01*
X33538147Y5724673D01*
X33538146Y5724673D01*
X33532019Y5725317D01*
X33409383Y5714156D01*
X33342759Y5708093D01*
X33342758Y5708093D01*
X33336618Y5707534D01*
X33330704Y5705793D01*
X33330702Y5705793D01*
X33219459Y5673052D01*
X33148393Y5652136D01*
X33142928Y5649279D01*
X32979972Y5564088D01*
X32979968Y5564085D01*
X32974512Y5561233D01*
X32969712Y5557373D01*
X32969711Y5557373D01*
X32959446Y5549120D01*
X32821600Y5438289D01*
X32695480Y5287984D01*
X32692516Y5282592D01*
X32692513Y5282588D01*
X32647158Y5200087D01*
X32600956Y5116046D01*
X32599095Y5110179D01*
X32599094Y5110177D01*
X32580005Y5050000D01*
X32541628Y4929022D01*
X32519757Y4734037D01*
X23439141Y4734037D01*
X23469200Y4767246D01*
X23521053Y4874271D01*
X23527795Y4888186D01*
X23527795Y4888187D01*
X23531710Y4896267D01*
X23555496Y5037646D01*
X23555647Y5050000D01*
X23535323Y5191918D01*
X23475984Y5322428D01*
X23410598Y5398312D01*
X23388260Y5424237D01*
X23388257Y5424240D01*
X23382400Y5431037D01*
X23262095Y5509015D01*
X23124739Y5550093D01*
X23115763Y5550148D01*
X23115762Y5550148D01*
X23055555Y5550516D01*
X22981376Y5550969D01*
X22843529Y5511572D01*
X22722280Y5435070D01*
X22716338Y5428342D01*
X22716337Y5428341D01*
X22689922Y5398431D01*
X22627377Y5327612D01*
X22566447Y5197837D01*
X22565066Y5188965D01*
X22551698Y5103106D01*
X22544391Y5056177D01*
X150500Y5056177D01*
X150500Y5547115D01*
X1740000Y5547115D01*
X1744475Y5531876D01*
X1745865Y5530671D01*
X1753548Y5529000D01*
X2617885Y5529000D01*
X2633124Y5533475D01*
X2634329Y5534865D01*
X2636000Y5542548D01*
X2636000Y5547115D01*
X3144000Y5547115D01*
X3148475Y5531876D01*
X3149865Y5530671D01*
X3157548Y5529000D01*
X4021885Y5529000D01*
X4037124Y5533475D01*
X4038329Y5534865D01*
X4040000Y5542548D01*
X4040000Y5668915D01*
X4039631Y5675729D01*
X4034211Y5725621D01*
X4030586Y5740867D01*
X3986233Y5859177D01*
X3977701Y5874763D01*
X3902570Y5975009D01*
X3890009Y5987570D01*
X3789763Y6062701D01*
X3774177Y6071233D01*
X3655867Y6115586D01*
X3640621Y6119211D01*
X3590729Y6124631D01*
X3583915Y6125000D01*
X3162115Y6125000D01*
X3146876Y6120525D01*
X3145671Y6119135D01*
X3144000Y6111452D01*
X3144000Y5547115D01*
X2636000Y5547115D01*
X2636000Y6106885D01*
X2631525Y6122124D01*
X2630135Y6123329D01*
X2622452Y6125000D01*
X2196085Y6125000D01*
X2189271Y6124631D01*
X2139379Y6119211D01*
X2124133Y6115586D01*
X2005823Y6071233D01*
X1990237Y6062701D01*
X1889991Y5987570D01*
X1877430Y5975009D01*
X1802299Y5874763D01*
X1793767Y5859177D01*
X1749414Y5740867D01*
X1745789Y5725621D01*
X1740369Y5675729D01*
X1740000Y5668915D01*
X1740000Y5547115D01*
X150500Y5547115D01*
X150500Y7806862D01*
X4644758Y7806862D01*
X4662035Y7650367D01*
X4716143Y7502510D01*
X4720380Y7496204D01*
X4720382Y7496201D01*
X4743918Y7461176D01*
X4803958Y7371828D01*
X4822177Y7355250D01*
X4903930Y7280861D01*
X4920410Y7265865D01*
X4941885Y7254205D01*
X5052099Y7194363D01*
X5052101Y7194362D01*
X5058776Y7190738D01*
X5066125Y7188810D01*
X5203719Y7152713D01*
X5203721Y7152713D01*
X5211069Y7150785D01*
X5294380Y7149476D01*
X5360898Y7148431D01*
X5360901Y7148431D01*
X5368495Y7148312D01*
X5521968Y7183462D01*
X5614061Y7229780D01*
X5683905Y7242518D01*
X5749549Y7215474D01*
X5790151Y7157233D01*
X5792820Y7086287D01*
X5787084Y7068997D01*
X5779313Y7050236D01*
X5759534Y6900000D01*
X5779313Y6749764D01*
X5837302Y6609767D01*
X5929549Y6489549D01*
X6049767Y6397302D01*
X6057396Y6394142D01*
X6130689Y6363783D01*
X6185969Y6319234D01*
X6208390Y6251871D01*
X6190832Y6183079D01*
X6138869Y6134701D01*
X6096077Y6122111D01*
X6069379Y6119211D01*
X6054133Y6115586D01*
X5935823Y6071233D01*
X5920237Y6062701D01*
X5819991Y5987570D01*
X5807430Y5975009D01*
X5732299Y5874763D01*
X5723767Y5859177D01*
X5679414Y5740867D01*
X5675789Y5725621D01*
X5670369Y5675729D01*
X5670000Y5668915D01*
X5670000Y5547115D01*
X5674475Y5531876D01*
X5675865Y5530671D01*
X5683548Y5529000D01*
X6597885Y5529000D01*
X6613124Y5533475D01*
X6614329Y5534865D01*
X6616000Y5542548D01*
X6616000Y5547115D01*
X7124000Y5547115D01*
X7128475Y5531876D01*
X7129865Y5530671D01*
X7137548Y5529000D01*
X8051885Y5529000D01*
X8067124Y5533475D01*
X8068329Y5534865D01*
X8070000Y5542548D01*
X8070000Y5668915D01*
X8069631Y5675729D01*
X8064211Y5725621D01*
X8060586Y5740867D01*
X8016233Y5859177D01*
X8007701Y5874763D01*
X7932570Y5975009D01*
X7920009Y5987570D01*
X7827554Y6056862D01*
X10344758Y6056862D01*
X10362035Y5900367D01*
X10416143Y5752510D01*
X10420380Y5746204D01*
X10420382Y5746201D01*
X10456463Y5692507D01*
X10503958Y5621828D01*
X10545993Y5583579D01*
X10595880Y5538186D01*
X10620410Y5515865D01*
X10628317Y5511572D01*
X10752099Y5444363D01*
X10752101Y5444362D01*
X10758776Y5440738D01*
X10766125Y5438810D01*
X10903719Y5402713D01*
X10903721Y5402713D01*
X10911069Y5400785D01*
X10994380Y5399476D01*
X11060898Y5398431D01*
X11060901Y5398431D01*
X11068495Y5398312D01*
X11221968Y5433462D01*
X11362625Y5504205D01*
X11412866Y5547115D01*
X11476574Y5601526D01*
X11476576Y5601529D01*
X11482348Y5606458D01*
X11554003Y5706177D01*
X18394391Y5706177D01*
X18395555Y5697275D01*
X18395555Y5697272D01*
X18401230Y5653878D01*
X18412980Y5564021D01*
X18470720Y5432797D01*
X18476497Y5425924D01*
X18476498Y5425923D01*
X18557190Y5329928D01*
X18562970Y5323052D01*
X18682313Y5243610D01*
X18819157Y5200858D01*
X18828129Y5200694D01*
X18828132Y5200693D01*
X18893463Y5199496D01*
X18962499Y5198230D01*
X18971533Y5200693D01*
X19092158Y5233579D01*
X19092160Y5233580D01*
X19100817Y5235940D01*
X19222991Y5310955D01*
X19239534Y5329231D01*
X19313178Y5410593D01*
X19319200Y5417246D01*
X19363722Y5509140D01*
X19377795Y5538186D01*
X19377795Y5538187D01*
X19381710Y5546267D01*
X19405496Y5687646D01*
X19405647Y5700000D01*
X19385323Y5841918D01*
X19325984Y5972428D01*
X19270968Y6036277D01*
X19253821Y6056177D01*
X25294391Y6056177D01*
X25295555Y6047275D01*
X25295555Y6047272D01*
X25296814Y6037646D01*
X25312980Y5914021D01*
X25370720Y5782797D01*
X25376497Y5775924D01*
X25376498Y5775923D01*
X25454539Y5683082D01*
X25462970Y5673052D01*
X25582313Y5593610D01*
X25719157Y5550858D01*
X25728129Y5550694D01*
X25728132Y5550693D01*
X25793463Y5549496D01*
X25862499Y5548230D01*
X25871533Y5550693D01*
X25992158Y5583579D01*
X25992160Y5583580D01*
X26000817Y5585940D01*
X26122991Y5660955D01*
X26158333Y5700000D01*
X26213178Y5760593D01*
X26219200Y5767246D01*
X26270606Y5873348D01*
X26277795Y5888186D01*
X26277795Y5888187D01*
X26281710Y5896267D01*
X26305496Y6037646D01*
X26305647Y6050000D01*
X26297473Y6107076D01*
X26286596Y6183032D01*
X26286595Y6183035D01*
X26285323Y6191918D01*
X26275756Y6212961D01*
X26258064Y6251871D01*
X26225984Y6322428D01*
X26164191Y6394142D01*
X26138260Y6424237D01*
X26138257Y6424240D01*
X26132400Y6431037D01*
X26012095Y6509015D01*
X25874739Y6550093D01*
X25865763Y6550148D01*
X25865762Y6550148D01*
X25805555Y6550516D01*
X25731376Y6550969D01*
X25593529Y6511572D01*
X25472280Y6435070D01*
X25466338Y6428342D01*
X25466337Y6428341D01*
X25443366Y6402331D01*
X25377377Y6327612D01*
X25316447Y6197837D01*
X25314142Y6183032D01*
X25297203Y6074237D01*
X25294391Y6056177D01*
X19253821Y6056177D01*
X19238260Y6074237D01*
X19238257Y6074240D01*
X19232400Y6081037D01*
X19112095Y6159015D01*
X18974739Y6200093D01*
X18965763Y6200148D01*
X18965762Y6200148D01*
X18905555Y6200516D01*
X18831376Y6200969D01*
X18693529Y6161572D01*
X18572280Y6085070D01*
X18566338Y6078342D01*
X18566337Y6078341D01*
X18547368Y6056862D01*
X18477377Y5977612D01*
X18416447Y5847837D01*
X18415066Y5838965D01*
X18397271Y5724673D01*
X18394391Y5706177D01*
X11554003Y5706177D01*
X11574224Y5734317D01*
X11632950Y5880402D01*
X11655134Y6036277D01*
X11655278Y6050000D01*
X11636363Y6206306D01*
X11621429Y6245828D01*
X11583394Y6346486D01*
X11583393Y6346489D01*
X11580710Y6353588D01*
X11491531Y6483343D01*
X11419501Y6547520D01*
X11379648Y6583028D01*
X11379645Y6583030D01*
X11373976Y6588081D01*
X11234831Y6661755D01*
X11178808Y6675827D01*
X11089498Y6698260D01*
X11089496Y6698260D01*
X11082128Y6700111D01*
X11074530Y6700151D01*
X11074528Y6700151D01*
X11007319Y6700503D01*
X10924684Y6700935D01*
X10917305Y6699163D01*
X10917301Y6699163D01*
X10778967Y6665952D01*
X10778963Y6665951D01*
X10771588Y6664180D01*
X10631679Y6591968D01*
X10625957Y6586976D01*
X10625955Y6586975D01*
X10518759Y6493462D01*
X10518756Y6493459D01*
X10513034Y6488467D01*
X10508667Y6482253D01*
X10427953Y6367409D01*
X10422501Y6359652D01*
X10365309Y6212961D01*
X10363318Y6197837D01*
X10345836Y6065050D01*
X10344758Y6056862D01*
X7827554Y6056862D01*
X7819763Y6062701D01*
X7804177Y6071233D01*
X7685867Y6115586D01*
X7670621Y6119211D01*
X7620729Y6124631D01*
X7613915Y6125000D01*
X7142115Y6125000D01*
X7126876Y6120525D01*
X7125671Y6119135D01*
X7124000Y6111452D01*
X7124000Y5547115D01*
X6616000Y5547115D01*
X6616000Y6106885D01*
X6611525Y6122124D01*
X6610135Y6123329D01*
X6589217Y6127879D01*
X6589653Y6129883D01*
X6538162Y6145002D01*
X6491669Y6198658D01*
X6481565Y6268932D01*
X6511059Y6333512D01*
X6558065Y6367409D01*
X6630233Y6397302D01*
X6750451Y6489549D01*
X6842698Y6609767D01*
X6900687Y6749764D01*
X6907301Y6800000D01*
X13244750Y6800000D01*
X13263670Y6656291D01*
X13319139Y6522375D01*
X13407379Y6407379D01*
X13522375Y6319139D01*
X13656291Y6263670D01*
X13800000Y6244750D01*
X13943709Y6263670D01*
X14077625Y6319139D01*
X14192621Y6407379D01*
X14280861Y6522375D01*
X14336330Y6656291D01*
X14355250Y6800000D01*
X14336330Y6943709D01*
X14280861Y7077625D01*
X14192621Y7192621D01*
X14077625Y7280861D01*
X14016506Y7306177D01*
X26794391Y7306177D01*
X26795555Y7297275D01*
X26795555Y7297272D01*
X26798994Y7270975D01*
X26812980Y7164021D01*
X26870720Y7032797D01*
X26876497Y7025924D01*
X26876498Y7025923D01*
X26957190Y6929928D01*
X26962970Y6923052D01*
X26970447Y6918075D01*
X27071075Y6851091D01*
X27082313Y6843610D01*
X27219157Y6800858D01*
X27228129Y6800694D01*
X27228132Y6800693D01*
X27293463Y6799496D01*
X27362499Y6798230D01*
X27371533Y6800693D01*
X27492158Y6833579D01*
X27492160Y6833580D01*
X27500817Y6835940D01*
X27622991Y6910955D01*
X27719200Y7017246D01*
X27781710Y7146267D01*
X27803206Y7274037D01*
X32519757Y7274037D01*
X32536175Y7078517D01*
X32590258Y6889909D01*
X32593076Y6884426D01*
X32677123Y6720887D01*
X32677126Y6720883D01*
X32679944Y6715399D01*
X32801818Y6561631D01*
X32806511Y6557637D01*
X32806512Y6557636D01*
X32887786Y6488467D01*
X32951238Y6434465D01*
X32956616Y6431459D01*
X32956618Y6431458D01*
X32987983Y6413929D01*
X33122513Y6338743D01*
X33309118Y6278111D01*
X33503946Y6254879D01*
X33510081Y6255351D01*
X33510083Y6255351D01*
X33693434Y6269459D01*
X33693438Y6269460D01*
X33699576Y6269932D01*
X33888556Y6322697D01*
X34063689Y6411163D01*
X34093515Y6434465D01*
X34164019Y6489549D01*
X34218303Y6531960D01*
X34234003Y6550148D01*
X34342485Y6675827D01*
X34342485Y6675828D01*
X34346509Y6680489D01*
X34356605Y6698260D01*
X34390514Y6757952D01*
X34443425Y6851091D01*
X34505358Y7037268D01*
X34529949Y7231929D01*
X34530341Y7260000D01*
X34528965Y7274037D01*
X35059757Y7274037D01*
X35076175Y7078517D01*
X35130258Y6889909D01*
X35133076Y6884426D01*
X35217123Y6720887D01*
X35217126Y6720883D01*
X35219944Y6715399D01*
X35341818Y6561631D01*
X35346511Y6557637D01*
X35346512Y6557636D01*
X35427786Y6488467D01*
X35491238Y6434465D01*
X35496616Y6431459D01*
X35496618Y6431458D01*
X35527983Y6413929D01*
X35662513Y6338743D01*
X35849118Y6278111D01*
X36043946Y6254879D01*
X36050081Y6255351D01*
X36050083Y6255351D01*
X36233434Y6269459D01*
X36233438Y6269460D01*
X36239576Y6269932D01*
X36428556Y6322697D01*
X36603689Y6411163D01*
X36633515Y6434465D01*
X36704019Y6489549D01*
X36758303Y6531960D01*
X36774003Y6550148D01*
X36882485Y6675827D01*
X36882485Y6675828D01*
X36886509Y6680489D01*
X36896605Y6698260D01*
X36930514Y6757952D01*
X36983425Y6851091D01*
X37045358Y7037268D01*
X37069949Y7231929D01*
X37070341Y7260000D01*
X37051194Y7455272D01*
X37049413Y7461171D01*
X37049412Y7461176D01*
X36996265Y7637207D01*
X36994484Y7643106D01*
X36902370Y7816347D01*
X36778361Y7968398D01*
X36627180Y8093465D01*
X36454585Y8186787D01*
X36360868Y8215797D01*
X36273039Y8242985D01*
X36273036Y8242986D01*
X36267152Y8244807D01*
X36261027Y8245451D01*
X36261026Y8245451D01*
X36078147Y8264673D01*
X36078146Y8264673D01*
X36072019Y8265317D01*
X35971588Y8256177D01*
X35882759Y8248093D01*
X35882758Y8248093D01*
X35876618Y8247534D01*
X35870704Y8245793D01*
X35870702Y8245793D01*
X35824698Y8232253D01*
X35688393Y8192136D01*
X35682928Y8189279D01*
X35519972Y8104088D01*
X35519968Y8104085D01*
X35514512Y8101233D01*
X35509712Y8097373D01*
X35509711Y8097373D01*
X35498285Y8088186D01*
X35361600Y7978289D01*
X35235480Y7827984D01*
X35232516Y7822592D01*
X35232513Y7822588D01*
X35159545Y7689860D01*
X35140956Y7656046D01*
X35139095Y7650179D01*
X35139094Y7650177D01*
X35134980Y7637207D01*
X35081628Y7469022D01*
X35059757Y7274037D01*
X34528965Y7274037D01*
X34511194Y7455272D01*
X34509413Y7461171D01*
X34509412Y7461176D01*
X34456265Y7637207D01*
X34454484Y7643106D01*
X34362370Y7816347D01*
X34238361Y7968398D01*
X34087180Y8093465D01*
X33914585Y8186787D01*
X33820868Y8215797D01*
X33733039Y8242985D01*
X33733036Y8242986D01*
X33727152Y8244807D01*
X33721027Y8245451D01*
X33721026Y8245451D01*
X33538147Y8264673D01*
X33538146Y8264673D01*
X33532019Y8265317D01*
X33431588Y8256177D01*
X33342759Y8248093D01*
X33342758Y8248093D01*
X33336618Y8247534D01*
X33330704Y8245793D01*
X33330702Y8245793D01*
X33284698Y8232253D01*
X33148393Y8192136D01*
X33142928Y8189279D01*
X32979972Y8104088D01*
X32979968Y8104085D01*
X32974512Y8101233D01*
X32969712Y8097373D01*
X32969711Y8097373D01*
X32958285Y8088186D01*
X32821600Y7978289D01*
X32695480Y7827984D01*
X32692516Y7822592D01*
X32692513Y7822588D01*
X32619545Y7689860D01*
X32600956Y7656046D01*
X32599095Y7650179D01*
X32599094Y7650177D01*
X32594980Y7637207D01*
X32541628Y7469022D01*
X32519757Y7274037D01*
X27803206Y7274037D01*
X27805496Y7287646D01*
X27805647Y7300000D01*
X27795361Y7371828D01*
X27786596Y7433032D01*
X27786595Y7433035D01*
X27785323Y7441918D01*
X27779252Y7455272D01*
X27729700Y7564254D01*
X27725984Y7572428D01*
X27707598Y7593766D01*
X27638260Y7674237D01*
X27638257Y7674240D01*
X27632400Y7681037D01*
X27512095Y7759015D01*
X27374739Y7800093D01*
X27365763Y7800148D01*
X27365762Y7800148D01*
X27305555Y7800516D01*
X27231376Y7800969D01*
X27093529Y7761572D01*
X26972280Y7685070D01*
X26966338Y7678342D01*
X26966337Y7678341D01*
X26941464Y7650177D01*
X26877377Y7577612D01*
X26816447Y7447837D01*
X26814142Y7433032D01*
X26795839Y7315477D01*
X26794391Y7306177D01*
X14016506Y7306177D01*
X13943709Y7336330D01*
X13800000Y7355250D01*
X13656291Y7336330D01*
X13522375Y7280861D01*
X13407379Y7192621D01*
X13319139Y7077625D01*
X13263670Y6943709D01*
X13244750Y6800000D01*
X6907301Y6800000D01*
X6920466Y6900000D01*
X6900687Y7050236D01*
X6842698Y7190233D01*
X6750451Y7310451D01*
X6630233Y7402698D01*
X6490236Y7460687D01*
X6473404Y7462903D01*
X6381807Y7474962D01*
X6381806Y7474962D01*
X6377720Y7475500D01*
X6302280Y7475500D01*
X6298194Y7474962D01*
X6298193Y7474962D01*
X6206596Y7462903D01*
X6189764Y7460687D01*
X6182135Y7457527D01*
X6076714Y7413860D01*
X6006124Y7406271D01*
X5942637Y7438050D01*
X5906410Y7499108D01*
X5908944Y7570060D01*
X5911589Y7577266D01*
X5914434Y7584341D01*
X5932950Y7630402D01*
X5949743Y7748395D01*
X5954553Y7782193D01*
X5954553Y7782196D01*
X5955134Y7786277D01*
X5955278Y7800000D01*
X5953960Y7810896D01*
X5937275Y7948766D01*
X5936363Y7956306D01*
X5886530Y8088186D01*
X5883394Y8096486D01*
X5883393Y8096489D01*
X5880710Y8103588D01*
X5791531Y8233343D01*
X5765902Y8256177D01*
X13294391Y8256177D01*
X13295555Y8247275D01*
X13295555Y8247272D01*
X13303465Y8186787D01*
X13312980Y8114021D01*
X13370720Y7982797D01*
X13376497Y7975924D01*
X13376498Y7975923D01*
X13399326Y7948766D01*
X13462970Y7873052D01*
X13470447Y7868075D01*
X13572714Y7800000D01*
X13582313Y7793610D01*
X13719157Y7750858D01*
X13728129Y7750694D01*
X13728132Y7750693D01*
X13793463Y7749496D01*
X13862499Y7748230D01*
X13871533Y7750693D01*
X13992158Y7783579D01*
X13992160Y7783580D01*
X14000817Y7785940D01*
X14122991Y7860955D01*
X14219200Y7967246D01*
X14281710Y8096267D01*
X14305496Y8237646D01*
X14305647Y8250000D01*
X14293757Y8333028D01*
X14286596Y8383032D01*
X14286595Y8383035D01*
X14285323Y8391918D01*
X14274396Y8415952D01*
X14229700Y8514254D01*
X14225984Y8522428D01*
X14157872Y8601476D01*
X14138260Y8624237D01*
X14138257Y8624240D01*
X14132400Y8631037D01*
X14012095Y8709015D01*
X13874739Y8750093D01*
X13865763Y8750148D01*
X13865762Y8750148D01*
X13805555Y8750516D01*
X13731376Y8750969D01*
X13593529Y8711572D01*
X13472280Y8635070D01*
X13377377Y8527612D01*
X13316447Y8397837D01*
X13294391Y8256177D01*
X5765902Y8256177D01*
X5744971Y8274826D01*
X5679648Y8333028D01*
X5679645Y8333030D01*
X5673976Y8338081D01*
X5534831Y8411755D01*
X5518122Y8415952D01*
X5389498Y8448260D01*
X5389496Y8448260D01*
X5382128Y8450111D01*
X5374530Y8450151D01*
X5374528Y8450151D01*
X5307319Y8450503D01*
X5224684Y8450935D01*
X5217305Y8449163D01*
X5217301Y8449163D01*
X5078967Y8415952D01*
X5078963Y8415951D01*
X5071588Y8414180D01*
X4931679Y8341968D01*
X4925957Y8336976D01*
X4925955Y8336975D01*
X4818759Y8243462D01*
X4818756Y8243459D01*
X4813034Y8238467D01*
X4722501Y8109652D01*
X4665309Y7962961D01*
X4664318Y7955432D01*
X4646007Y7816347D01*
X4644758Y7806862D01*
X150500Y7806862D01*
X150500Y11806862D01*
X4644758Y11806862D01*
X4662035Y11650367D01*
X4716143Y11502510D01*
X4720380Y11496204D01*
X4720382Y11496201D01*
X4728368Y11484317D01*
X4803958Y11371828D01*
X4850006Y11329928D01*
X4876018Y11306259D01*
X4920410Y11265865D01*
X4966876Y11240636D01*
X5052099Y11194363D01*
X5052101Y11194362D01*
X5058776Y11190738D01*
X5066125Y11188810D01*
X5203719Y11152713D01*
X5203721Y11152713D01*
X5211069Y11150785D01*
X5294380Y11149476D01*
X5360898Y11148431D01*
X5360901Y11148431D01*
X5368495Y11148312D01*
X5521968Y11183462D01*
X5620247Y11232891D01*
X5690091Y11245629D01*
X5755735Y11218585D01*
X5796337Y11160344D01*
X5801361Y11100943D01*
X5794391Y11056177D01*
X5795555Y11047275D01*
X5795555Y11047272D01*
X5796814Y11037646D01*
X5812980Y10914021D01*
X5816597Y10905801D01*
X5863110Y10800093D01*
X5870720Y10782797D01*
X5876497Y10775924D01*
X5876498Y10775923D01*
X5912233Y10733411D01*
X5962970Y10673052D01*
X5970447Y10668075D01*
X6042203Y10620310D01*
X6082313Y10593610D01*
X6106864Y10585940D01*
X6116201Y10583023D01*
X6175258Y10543617D01*
X6203635Y10478538D01*
X6192323Y10408449D01*
X6173069Y10379349D01*
X6127377Y10327612D01*
X6066447Y10197837D01*
X6061182Y10164021D01*
X6045853Y10065567D01*
X6044391Y10056177D01*
X6045555Y10047275D01*
X6045555Y10047272D01*
X6052319Y9995550D01*
X6062980Y9914021D01*
X6066597Y9905801D01*
X6112846Y9800693D01*
X6120720Y9782797D01*
X6126497Y9775924D01*
X6126498Y9775923D01*
X6181567Y9710410D01*
X6212970Y9673052D01*
X6332313Y9593610D01*
X6469157Y9550858D01*
X6478129Y9550694D01*
X6478132Y9550693D01*
X6543463Y9549496D01*
X6612499Y9548230D01*
X6621533Y9550693D01*
X6742158Y9583579D01*
X6742160Y9583580D01*
X6750817Y9585940D01*
X6824493Y9631177D01*
X11787075Y9631177D01*
X11788239Y9622275D01*
X11788239Y9622272D01*
X11791987Y9593610D01*
X11805664Y9489021D01*
X11863404Y9357797D01*
X11869181Y9350924D01*
X11869182Y9350923D01*
X11876476Y9342246D01*
X11955654Y9248052D01*
X12074997Y9168610D01*
X12211841Y9125858D01*
X12220813Y9125694D01*
X12220816Y9125693D01*
X12286147Y9124496D01*
X12355183Y9123230D01*
X12364217Y9125693D01*
X12484842Y9158579D01*
X12484844Y9158580D01*
X12493501Y9160940D01*
X12615675Y9235955D01*
X12711884Y9342246D01*
X12774394Y9471267D01*
X12784953Y9534025D01*
X32560923Y9534025D01*
X32589025Y9436020D01*
X32593543Y9424608D01*
X32677546Y9261156D01*
X32684196Y9250838D01*
X32798350Y9106811D01*
X32806873Y9097985D01*
X32946833Y8978871D01*
X32956905Y8971870D01*
X33117334Y8882210D01*
X33128574Y8877299D01*
X33253769Y8836621D01*
X33267867Y8836218D01*
X33271000Y8842590D01*
X33271000Y8850742D01*
X33779000Y8850742D01*
X33782973Y8837211D01*
X33791188Y8836030D01*
X33882430Y8861505D01*
X33893881Y8865947D01*
X34057919Y8948807D01*
X34068276Y8955380D01*
X34213100Y9068530D01*
X34221986Y9076991D01*
X34342070Y9216110D01*
X34349144Y9226138D01*
X34439919Y9385932D01*
X34444913Y9397148D01*
X34488712Y9528811D01*
X34488897Y9534025D01*
X35100923Y9534025D01*
X35129025Y9436020D01*
X35133543Y9424608D01*
X35217546Y9261156D01*
X35224196Y9250838D01*
X35338350Y9106811D01*
X35346873Y9097985D01*
X35486833Y8978871D01*
X35496905Y8971870D01*
X35657334Y8882210D01*
X35668574Y8877299D01*
X35793769Y8836621D01*
X35807867Y8836218D01*
X35811000Y8842590D01*
X35811000Y8850742D01*
X36319000Y8850742D01*
X36322973Y8837211D01*
X36331188Y8836030D01*
X36422430Y8861505D01*
X36433881Y8865947D01*
X36597919Y8948807D01*
X36608276Y8955380D01*
X36753100Y9068530D01*
X36761986Y9076991D01*
X36882070Y9216110D01*
X36889144Y9226138D01*
X36979919Y9385932D01*
X36984913Y9397148D01*
X37028712Y9528811D01*
X37029213Y9542903D01*
X37023024Y9546000D01*
X36337115Y9546000D01*
X36321876Y9541525D01*
X36320671Y9540135D01*
X36319000Y9532452D01*
X36319000Y8850742D01*
X35811000Y8850742D01*
X35811000Y9527885D01*
X35806525Y9543124D01*
X35805135Y9544329D01*
X35797452Y9546000D01*
X35115604Y9546000D01*
X35102073Y9542027D01*
X35100923Y9534025D01*
X34488897Y9534025D01*
X34489213Y9542903D01*
X34483024Y9546000D01*
X33797115Y9546000D01*
X33781876Y9541525D01*
X33780671Y9540135D01*
X33779000Y9532452D01*
X33779000Y8850742D01*
X33271000Y8850742D01*
X33271000Y9527885D01*
X33266525Y9543124D01*
X33265135Y9544329D01*
X33257452Y9546000D01*
X32575604Y9546000D01*
X32562073Y9542027D01*
X32560923Y9534025D01*
X12784953Y9534025D01*
X12798180Y9612646D01*
X12798331Y9625000D01*
X12788168Y9695969D01*
X12779280Y9758032D01*
X12779279Y9758035D01*
X12778007Y9766918D01*
X12774186Y9775323D01*
X12746625Y9835940D01*
X12718668Y9897428D01*
X12690664Y9929928D01*
X12657856Y9968004D01*
X12628542Y10032667D01*
X12638841Y10102912D01*
X12659894Y10134807D01*
X12705860Y10185589D01*
X12705865Y10185596D01*
X12711884Y10192246D01*
X12767083Y10306177D01*
X25294391Y10306177D01*
X25295555Y10297275D01*
X25295555Y10297272D01*
X25296814Y10287646D01*
X25312980Y10164021D01*
X25327650Y10130680D01*
X25365289Y10045141D01*
X25370720Y10032797D01*
X25376497Y10025924D01*
X25376498Y10025923D01*
X25457190Y9929928D01*
X25462970Y9923052D01*
X25582313Y9843610D01*
X25719157Y9800858D01*
X25728129Y9800694D01*
X25728132Y9800693D01*
X25793463Y9799496D01*
X25862499Y9798230D01*
X25871533Y9800693D01*
X25992158Y9833579D01*
X25992160Y9833580D01*
X26000817Y9835940D01*
X26122991Y9910955D01*
X26219200Y10017246D01*
X26238542Y10057168D01*
X32561594Y10057168D01*
X32568153Y10054000D01*
X33252885Y10054000D01*
X33268124Y10058475D01*
X33269329Y10059865D01*
X33271000Y10067548D01*
X33271000Y10072115D01*
X33779000Y10072115D01*
X33783475Y10056876D01*
X33784865Y10055671D01*
X33792548Y10054000D01*
X34474826Y10054000D01*
X34485615Y10057168D01*
X35101594Y10057168D01*
X35108153Y10054000D01*
X35792885Y10054000D01*
X35808124Y10058475D01*
X35809329Y10059865D01*
X35811000Y10067548D01*
X35811000Y10072115D01*
X36319000Y10072115D01*
X36323475Y10056876D01*
X36324865Y10055671D01*
X36332548Y10054000D01*
X37014826Y10054000D01*
X37028357Y10057973D01*
X37029449Y10065567D01*
X36995801Y10177015D01*
X36991126Y10188356D01*
X36904846Y10350627D01*
X36898059Y10360843D01*
X36781899Y10503269D01*
X36773255Y10511973D01*
X36631649Y10629120D01*
X36621478Y10635980D01*
X36459809Y10723394D01*
X36448504Y10728146D01*
X36336308Y10762876D01*
X36322205Y10763082D01*
X36319000Y10756327D01*
X36319000Y10072115D01*
X35811000Y10072115D01*
X35811000Y10749586D01*
X35807027Y10763117D01*
X35799232Y10764237D01*
X35694496Y10733411D01*
X35683119Y10728814D01*
X35520247Y10643667D01*
X35509986Y10636953D01*
X35366751Y10521789D01*
X35357992Y10513211D01*
X35239853Y10372419D01*
X35232927Y10362305D01*
X35144383Y10201243D01*
X35139555Y10189979D01*
X35101898Y10071269D01*
X35101594Y10057168D01*
X34485615Y10057168D01*
X34488357Y10057973D01*
X34489449Y10065567D01*
X34455801Y10177015D01*
X34451126Y10188356D01*
X34364846Y10350627D01*
X34358059Y10360843D01*
X34241899Y10503269D01*
X34233255Y10511973D01*
X34091649Y10629120D01*
X34081478Y10635980D01*
X33919809Y10723394D01*
X33908504Y10728146D01*
X33796308Y10762876D01*
X33782205Y10763082D01*
X33779000Y10756327D01*
X33779000Y10072115D01*
X33271000Y10072115D01*
X33271000Y10749586D01*
X33267027Y10763117D01*
X33259232Y10764237D01*
X33154496Y10733411D01*
X33143119Y10728814D01*
X32980247Y10643667D01*
X32969986Y10636953D01*
X32826751Y10521789D01*
X32817992Y10513211D01*
X32699853Y10372419D01*
X32692927Y10362305D01*
X32604383Y10201243D01*
X32599555Y10189979D01*
X32561898Y10071269D01*
X32561594Y10057168D01*
X26238542Y10057168D01*
X26261774Y10105119D01*
X26277795Y10138186D01*
X26277795Y10138187D01*
X26281710Y10146267D01*
X26305496Y10287646D01*
X26305647Y10300000D01*
X26295276Y10372419D01*
X26286596Y10433032D01*
X26286595Y10433035D01*
X26285323Y10441918D01*
X26273689Y10467507D01*
X26261683Y10493912D01*
X26225984Y10572428D01*
X26203444Y10598587D01*
X26138260Y10674237D01*
X26138257Y10674240D01*
X26132400Y10681037D01*
X26012095Y10759015D01*
X25874739Y10800093D01*
X25865763Y10800148D01*
X25865762Y10800148D01*
X25805555Y10800516D01*
X25731376Y10800969D01*
X25593529Y10761572D01*
X25472280Y10685070D01*
X25466338Y10678342D01*
X25466337Y10678341D01*
X25428122Y10635070D01*
X25377377Y10577612D01*
X25316447Y10447837D01*
X25308662Y10397837D01*
X25298119Y10330119D01*
X25294391Y10306177D01*
X12767083Y10306177D01*
X12774394Y10321267D01*
X12798180Y10462646D01*
X12798331Y10475000D01*
X12787577Y10550093D01*
X12779280Y10608032D01*
X12779279Y10608035D01*
X12778007Y10616918D01*
X12718668Y10747428D01*
X12673289Y10800093D01*
X12630944Y10849237D01*
X12630941Y10849240D01*
X12625084Y10856037D01*
X12504779Y10934015D01*
X12367423Y10975093D01*
X12358447Y10975148D01*
X12358446Y10975148D01*
X12298239Y10975516D01*
X12224060Y10975969D01*
X12086213Y10936572D01*
X11964964Y10860070D01*
X11870061Y10752612D01*
X11809131Y10622837D01*
X11800824Y10569486D01*
X11789058Y10493912D01*
X11787075Y10481177D01*
X11788239Y10472275D01*
X11788239Y10472272D01*
X11794521Y10424237D01*
X11805664Y10339021D01*
X11863404Y10207797D01*
X11907111Y10155801D01*
X11928227Y10130680D01*
X11956748Y10065664D01*
X11945592Y9995550D01*
X11926217Y9966198D01*
X11880137Y9914021D01*
X11870061Y9902612D01*
X11809131Y9772837D01*
X11787075Y9631177D01*
X6824493Y9631177D01*
X6872991Y9660955D01*
X6969200Y9767246D01*
X7018051Y9868075D01*
X7027795Y9888186D01*
X7027795Y9888187D01*
X7031710Y9896267D01*
X7055496Y10037646D01*
X7055647Y10050000D01*
X7040593Y10155119D01*
X7036596Y10183032D01*
X7036595Y10183035D01*
X7035323Y10191918D01*
X7031502Y10200323D01*
X7006106Y10256177D01*
X9094391Y10256177D01*
X9095555Y10247275D01*
X9095555Y10247272D01*
X9102020Y10197837D01*
X9112980Y10114021D01*
X9116597Y10105801D01*
X9165109Y9995550D01*
X9170720Y9982797D01*
X9176497Y9975924D01*
X9176498Y9975923D01*
X9257190Y9879928D01*
X9262970Y9873052D01*
X9270447Y9868075D01*
X9371425Y9800858D01*
X9382313Y9793610D01*
X9519157Y9750858D01*
X9528129Y9750694D01*
X9528132Y9750693D01*
X9593463Y9749496D01*
X9662499Y9748230D01*
X9671533Y9750693D01*
X9792158Y9783579D01*
X9792160Y9783580D01*
X9800817Y9785940D01*
X9922991Y9860955D01*
X9953342Y9894486D01*
X10013178Y9960593D01*
X10019200Y9967246D01*
X10061627Y10054816D01*
X10077795Y10088186D01*
X10077795Y10088187D01*
X10081710Y10096267D01*
X10105496Y10237646D01*
X10105647Y10250000D01*
X10093569Y10334341D01*
X10086596Y10383032D01*
X10086595Y10383035D01*
X10085323Y10391918D01*
X10025984Y10522428D01*
X9972636Y10584341D01*
X9938260Y10624237D01*
X9938257Y10624240D01*
X9932400Y10631037D01*
X9812095Y10709015D01*
X9674739Y10750093D01*
X9665763Y10750148D01*
X9665762Y10750148D01*
X9605555Y10750516D01*
X9531376Y10750969D01*
X9393529Y10711572D01*
X9272280Y10635070D01*
X9266338Y10628342D01*
X9266337Y10628341D01*
X9235664Y10593610D01*
X9177377Y10527612D01*
X9116447Y10397837D01*
X9112490Y10372419D01*
X9099291Y10287646D01*
X9094391Y10256177D01*
X7006106Y10256177D01*
X6989588Y10292507D01*
X6975984Y10322428D01*
X6932909Y10372419D01*
X6888260Y10424237D01*
X6888257Y10424240D01*
X6882400Y10431037D01*
X6762095Y10509015D01*
X6735718Y10516903D01*
X6676185Y10555583D01*
X6647015Y10620310D01*
X6657469Y10690533D01*
X6678405Y10722175D01*
X6713176Y10760589D01*
X6713181Y10760596D01*
X6719200Y10767246D01*
X6764585Y10860920D01*
X6777795Y10888186D01*
X6777795Y10888187D01*
X6781710Y10896267D01*
X6805496Y11037646D01*
X6805647Y11050000D01*
X6785323Y11191918D01*
X6725984Y11322428D01*
X6707598Y11343766D01*
X6638260Y11424237D01*
X6638257Y11424240D01*
X6632400Y11431037D01*
X6512095Y11509015D01*
X6374739Y11550093D01*
X6365763Y11550148D01*
X6365762Y11550148D01*
X6305555Y11550516D01*
X6231376Y11550969D01*
X6095243Y11512062D01*
X6024249Y11512574D01*
X5964802Y11551388D01*
X5935775Y11616180D01*
X5935876Y11650961D01*
X5943734Y11706177D01*
X8944391Y11706177D01*
X8945555Y11697275D01*
X8945555Y11697272D01*
X8946814Y11687646D01*
X8962980Y11564021D01*
X9020720Y11432797D01*
X9026497Y11425924D01*
X9026498Y11425923D01*
X9102632Y11335351D01*
X9112970Y11323052D01*
X9232313Y11243610D01*
X9369157Y11200858D01*
X9378129Y11200694D01*
X9378132Y11200693D01*
X9443463Y11199496D01*
X9512499Y11198230D01*
X9521533Y11200693D01*
X9642158Y11233579D01*
X9642160Y11233580D01*
X9650817Y11235940D01*
X9772991Y11310955D01*
X9789534Y11329231D01*
X9863178Y11410593D01*
X9869200Y11417246D01*
X9914845Y11511458D01*
X9927795Y11538186D01*
X9927795Y11538187D01*
X9931710Y11546267D01*
X9955496Y11687646D01*
X9955647Y11700000D01*
X9940738Y11804108D01*
X9936596Y11833032D01*
X9936595Y11833035D01*
X9935323Y11841918D01*
X9875984Y11972428D01*
X9830392Y12025340D01*
X9788260Y12074237D01*
X9788257Y12074240D01*
X9782400Y12081037D01*
X9662095Y12159015D01*
X9524739Y12200093D01*
X9515763Y12200148D01*
X9515762Y12200148D01*
X9455555Y12200516D01*
X9381376Y12200969D01*
X9243529Y12161572D01*
X9122280Y12085070D01*
X9027377Y11977612D01*
X8966447Y11847837D01*
X8944391Y11706177D01*
X5943734Y11706177D01*
X5955134Y11786277D01*
X5955278Y11800000D01*
X5936363Y11956306D01*
X5928312Y11977612D01*
X5910278Y12025340D01*
X5904910Y12096133D01*
X5938668Y12158590D01*
X6000834Y12192882D01*
X6076362Y12186286D01*
X6189764Y12139313D01*
X6302280Y12124500D01*
X6377720Y12124500D01*
X6490236Y12139313D01*
X6630233Y12197302D01*
X6750451Y12289549D01*
X6842698Y12409767D01*
X6900687Y12549764D01*
X6920466Y12700000D01*
X6919653Y12706177D01*
X15494391Y12706177D01*
X15495555Y12697275D01*
X15495555Y12697272D01*
X15496269Y12691812D01*
X15512980Y12564021D01*
X15570720Y12432797D01*
X15576497Y12425924D01*
X15576498Y12425923D01*
X15651685Y12336477D01*
X15662970Y12323052D01*
X15782313Y12243610D01*
X15919157Y12200858D01*
X15928129Y12200694D01*
X15928132Y12200693D01*
X15993463Y12199496D01*
X16062499Y12198230D01*
X16071533Y12200693D01*
X16192158Y12233579D01*
X16192160Y12233580D01*
X16200817Y12235940D01*
X16322991Y12310955D01*
X16361987Y12354037D01*
X32519757Y12354037D01*
X32536175Y12158517D01*
X32590258Y11969909D01*
X32593076Y11964426D01*
X32677123Y11800887D01*
X32677126Y11800883D01*
X32679944Y11795399D01*
X32801818Y11641631D01*
X32806511Y11637637D01*
X32806512Y11637636D01*
X32913871Y11546267D01*
X32951238Y11514465D01*
X32956616Y11511459D01*
X32956618Y11511458D01*
X32992932Y11491163D01*
X33122513Y11418743D01*
X33309118Y11358111D01*
X33503946Y11334879D01*
X33510081Y11335351D01*
X33510083Y11335351D01*
X33693434Y11349459D01*
X33693438Y11349460D01*
X33699576Y11349932D01*
X33888556Y11402697D01*
X34063689Y11491163D01*
X34070138Y11496201D01*
X34146422Y11555801D01*
X34218303Y11611960D01*
X34248084Y11646461D01*
X34342485Y11755827D01*
X34342485Y11755828D01*
X34346509Y11760489D01*
X34443425Y11931091D01*
X34505358Y12117268D01*
X34529949Y12311929D01*
X34530341Y12340000D01*
X34528965Y12354037D01*
X35059757Y12354037D01*
X35076175Y12158517D01*
X35130258Y11969909D01*
X35133076Y11964426D01*
X35217123Y11800887D01*
X35217126Y11800883D01*
X35219944Y11795399D01*
X35341818Y11641631D01*
X35346511Y11637637D01*
X35346512Y11637636D01*
X35453871Y11546267D01*
X35491238Y11514465D01*
X35496616Y11511459D01*
X35496618Y11511458D01*
X35532932Y11491163D01*
X35662513Y11418743D01*
X35849118Y11358111D01*
X36043946Y11334879D01*
X36050081Y11335351D01*
X36050083Y11335351D01*
X36233434Y11349459D01*
X36233438Y11349460D01*
X36239576Y11349932D01*
X36428556Y11402697D01*
X36603689Y11491163D01*
X36610138Y11496201D01*
X36686422Y11555801D01*
X36758303Y11611960D01*
X36788084Y11646461D01*
X36882485Y11755827D01*
X36882485Y11755828D01*
X36886509Y11760489D01*
X36983425Y11931091D01*
X37045358Y12117268D01*
X37069949Y12311929D01*
X37070341Y12340000D01*
X37051194Y12535272D01*
X37049413Y12541171D01*
X37049412Y12541176D01*
X36996265Y12717207D01*
X36994484Y12723106D01*
X36902370Y12896347D01*
X36778361Y13048398D01*
X36627180Y13173465D01*
X36454585Y13266787D01*
X36360868Y13295797D01*
X36273039Y13322985D01*
X36273036Y13322986D01*
X36267152Y13324807D01*
X36261027Y13325451D01*
X36261026Y13325451D01*
X36078147Y13344673D01*
X36078146Y13344673D01*
X36072019Y13345317D01*
X35949383Y13334156D01*
X35882759Y13328093D01*
X35882758Y13328093D01*
X35876618Y13327534D01*
X35870704Y13325793D01*
X35870702Y13325793D01*
X35741734Y13287835D01*
X35688393Y13272136D01*
X35682928Y13269279D01*
X35519972Y13184088D01*
X35519968Y13184085D01*
X35514512Y13181233D01*
X35509712Y13177373D01*
X35509711Y13177373D01*
X35493126Y13164038D01*
X35361600Y13058289D01*
X35235480Y12907984D01*
X35232516Y12902592D01*
X35232513Y12902588D01*
X35153813Y12759433D01*
X35140956Y12736046D01*
X35139095Y12730179D01*
X35139094Y12730177D01*
X35126924Y12691812D01*
X35081628Y12549022D01*
X35059757Y12354037D01*
X34528965Y12354037D01*
X34511194Y12535272D01*
X34509413Y12541171D01*
X34509412Y12541176D01*
X34456265Y12717207D01*
X34454484Y12723106D01*
X34362370Y12896347D01*
X34238361Y13048398D01*
X34087180Y13173465D01*
X33914585Y13266787D01*
X33820868Y13295797D01*
X33733039Y13322985D01*
X33733036Y13322986D01*
X33727152Y13324807D01*
X33721027Y13325451D01*
X33721026Y13325451D01*
X33538147Y13344673D01*
X33538146Y13344673D01*
X33532019Y13345317D01*
X33409383Y13334156D01*
X33342759Y13328093D01*
X33342758Y13328093D01*
X33336618Y13327534D01*
X33330704Y13325793D01*
X33330702Y13325793D01*
X33201734Y13287835D01*
X33148393Y13272136D01*
X33142928Y13269279D01*
X32979972Y13184088D01*
X32979968Y13184085D01*
X32974512Y13181233D01*
X32969712Y13177373D01*
X32969711Y13177373D01*
X32953126Y13164038D01*
X32821600Y13058289D01*
X32695480Y12907984D01*
X32692516Y12902592D01*
X32692513Y12902588D01*
X32613813Y12759433D01*
X32600956Y12736046D01*
X32599095Y12730179D01*
X32599094Y12730177D01*
X32586924Y12691812D01*
X32541628Y12549022D01*
X32519757Y12354037D01*
X16361987Y12354037D01*
X16419200Y12417246D01*
X16473411Y12529138D01*
X16477795Y12538186D01*
X16477795Y12538187D01*
X16481710Y12546267D01*
X16505496Y12687646D01*
X16505647Y12700000D01*
X16485323Y12841918D01*
X16478073Y12857865D01*
X16455285Y12907984D01*
X16425984Y12972428D01*
X16404996Y12996786D01*
X16338260Y13074237D01*
X16338257Y13074240D01*
X16332400Y13081037D01*
X16212095Y13159015D01*
X16074739Y13200093D01*
X16065763Y13200148D01*
X16065762Y13200148D01*
X16005555Y13200516D01*
X15931376Y13200969D01*
X15793529Y13161572D01*
X15672280Y13085070D01*
X15577377Y12977612D01*
X15516447Y12847837D01*
X15515066Y12838965D01*
X15497027Y12723106D01*
X15494391Y12706177D01*
X6919653Y12706177D01*
X6900687Y12850236D01*
X6842698Y12990233D01*
X6750451Y13110451D01*
X6630233Y13202698D01*
X6558065Y13232591D01*
X6502784Y13277139D01*
X6480363Y13344503D01*
X6497921Y13413294D01*
X6549883Y13461672D01*
X6580773Y13468972D01*
X6580502Y13469896D01*
X6613124Y13479475D01*
X6614329Y13480865D01*
X6616000Y13488548D01*
X6616000Y13493115D01*
X7124000Y13493115D01*
X7128475Y13477876D01*
X7129865Y13476671D01*
X7137548Y13475000D01*
X7613915Y13475000D01*
X7620729Y13475369D01*
X7670621Y13480789D01*
X7685867Y13484414D01*
X7804177Y13528767D01*
X7819763Y13537299D01*
X7911666Y13606177D01*
X24994391Y13606177D01*
X24995555Y13597275D01*
X24995555Y13597272D01*
X24996814Y13587646D01*
X25012980Y13464021D01*
X25070720Y13332797D01*
X25076497Y13325924D01*
X25076498Y13325923D01*
X25131649Y13260313D01*
X25162970Y13223052D01*
X25193547Y13202698D01*
X25266511Y13154129D01*
X25282313Y13143610D01*
X25419157Y13100858D01*
X25428129Y13100694D01*
X25428132Y13100693D01*
X25493463Y13099496D01*
X25562499Y13098230D01*
X25571533Y13100693D01*
X25692158Y13133579D01*
X25692160Y13133580D01*
X25700817Y13135940D01*
X25822991Y13210955D01*
X25919200Y13317246D01*
X25981710Y13446267D01*
X26005496Y13587646D01*
X26005647Y13600000D01*
X25985323Y13741918D01*
X25925984Y13872428D01*
X25865436Y13942697D01*
X25838260Y13974237D01*
X25838257Y13974240D01*
X25832400Y13981037D01*
X25779724Y14015180D01*
X32524500Y14015180D01*
X32533233Y13971278D01*
X32540127Y13960960D01*
X32540128Y13960958D01*
X32552330Y13942697D01*
X32566496Y13921496D01*
X32576815Y13914601D01*
X32605958Y13895128D01*
X32605960Y13895127D01*
X32616278Y13888233D01*
X32660180Y13879500D01*
X34389820Y13879500D01*
X34433722Y13888233D01*
X34444040Y13895127D01*
X34444042Y13895128D01*
X34473185Y13914601D01*
X34483504Y13921496D01*
X34497670Y13942697D01*
X34509872Y13960958D01*
X34509873Y13960960D01*
X34516767Y13971278D01*
X34525500Y14015180D01*
X34525500Y14894037D01*
X35059757Y14894037D01*
X35076175Y14698517D01*
X35130258Y14509909D01*
X35133076Y14504426D01*
X35217123Y14340887D01*
X35217126Y14340883D01*
X35219944Y14335399D01*
X35341818Y14181631D01*
X35346511Y14177637D01*
X35346512Y14177636D01*
X35477068Y14066525D01*
X35491238Y14054465D01*
X35496616Y14051459D01*
X35496618Y14051458D01*
X35550460Y14021367D01*
X35662513Y13958743D01*
X35849118Y13898111D01*
X36043946Y13874879D01*
X36050081Y13875351D01*
X36050083Y13875351D01*
X36233434Y13889459D01*
X36233438Y13889460D01*
X36239576Y13889932D01*
X36428556Y13942697D01*
X36603689Y14031163D01*
X36633515Y14054465D01*
X36753453Y14148171D01*
X36758303Y14151960D01*
X36788084Y14186461D01*
X36882485Y14295827D01*
X36882485Y14295828D01*
X36886509Y14300489D01*
X36983425Y14471091D01*
X37045358Y14657268D01*
X37069949Y14851929D01*
X37070341Y14880000D01*
X37051194Y15075272D01*
X37049413Y15081171D01*
X37049412Y15081176D01*
X36996265Y15257207D01*
X36994484Y15263106D01*
X36902370Y15436347D01*
X36778361Y15588398D01*
X36627180Y15713465D01*
X36454585Y15806787D01*
X36338420Y15842746D01*
X36273039Y15862985D01*
X36273036Y15862986D01*
X36267152Y15864807D01*
X36261027Y15865451D01*
X36261026Y15865451D01*
X36078147Y15884673D01*
X36078146Y15884673D01*
X36072019Y15885317D01*
X35949733Y15874188D01*
X35882759Y15868093D01*
X35882758Y15868093D01*
X35876618Y15867534D01*
X35870704Y15865793D01*
X35870702Y15865793D01*
X35819839Y15850823D01*
X35688393Y15812136D01*
X35682928Y15809279D01*
X35519972Y15724088D01*
X35519968Y15724085D01*
X35514512Y15721233D01*
X35509712Y15717373D01*
X35509711Y15717373D01*
X35475326Y15689727D01*
X35361600Y15598289D01*
X35235480Y15447984D01*
X35232516Y15442592D01*
X35232513Y15442588D01*
X35153813Y15299433D01*
X35140956Y15276046D01*
X35139095Y15270179D01*
X35139094Y15270177D01*
X35131509Y15246267D01*
X35081628Y15089022D01*
X35059757Y14894037D01*
X34525500Y14894037D01*
X34525500Y15744820D01*
X34516767Y15788722D01*
X34509873Y15799040D01*
X34509872Y15799042D01*
X34490399Y15828185D01*
X34483504Y15838504D01*
X34473185Y15845399D01*
X34444042Y15864872D01*
X34444040Y15864873D01*
X34433722Y15871767D01*
X34389820Y15880500D01*
X32660180Y15880500D01*
X32616278Y15871767D01*
X32605960Y15864873D01*
X32605958Y15864872D01*
X32576815Y15845399D01*
X32566496Y15838504D01*
X32559601Y15828185D01*
X32540128Y15799042D01*
X32540127Y15799040D01*
X32533233Y15788722D01*
X32524500Y15744820D01*
X32524500Y14015180D01*
X25779724Y14015180D01*
X25712095Y14059015D01*
X25574739Y14100093D01*
X25565763Y14100148D01*
X25565762Y14100148D01*
X25505555Y14100516D01*
X25431376Y14100969D01*
X25293529Y14061572D01*
X25172280Y13985070D01*
X25166338Y13978342D01*
X25166337Y13978341D01*
X25150985Y13960958D01*
X25077377Y13877612D01*
X25016447Y13747837D01*
X24994391Y13606177D01*
X7911666Y13606177D01*
X7920009Y13612430D01*
X7932570Y13624991D01*
X8007701Y13725237D01*
X8016233Y13740823D01*
X8060586Y13859133D01*
X8064211Y13874379D01*
X8069631Y13924271D01*
X8070000Y13931085D01*
X8070000Y14052885D01*
X8065525Y14068124D01*
X8064135Y14069329D01*
X8056452Y14071000D01*
X7142115Y14071000D01*
X7126876Y14066525D01*
X7125671Y14065135D01*
X7124000Y14057452D01*
X7124000Y13493115D01*
X6616000Y13493115D01*
X6616000Y14052885D01*
X6611525Y14068124D01*
X6610135Y14069329D01*
X6602452Y14071000D01*
X5688115Y14071000D01*
X5672876Y14066525D01*
X5671671Y14065135D01*
X5670000Y14057452D01*
X5670000Y13931085D01*
X5670369Y13924271D01*
X5675789Y13874379D01*
X5679414Y13859133D01*
X5723767Y13740823D01*
X5732299Y13725237D01*
X5807430Y13624991D01*
X5819991Y13612430D01*
X5920237Y13537299D01*
X5935823Y13528767D01*
X6054133Y13484414D01*
X6069379Y13480789D01*
X6096077Y13477889D01*
X6161639Y13450648D01*
X6202066Y13392285D01*
X6204522Y13321331D01*
X6168227Y13260313D01*
X6130690Y13236218D01*
X6049767Y13202698D01*
X5929549Y13110451D01*
X5837302Y12990233D01*
X5779313Y12850236D01*
X5759534Y12700000D01*
X5779313Y12549764D01*
X5782473Y12542136D01*
X5782474Y12542131D01*
X5787288Y12530509D01*
X5794877Y12459919D01*
X5763097Y12396432D01*
X5702038Y12360206D01*
X5631087Y12362740D01*
X5611926Y12370935D01*
X5534831Y12411755D01*
X5518122Y12415952D01*
X5389498Y12448260D01*
X5389496Y12448260D01*
X5382128Y12450111D01*
X5374530Y12450151D01*
X5374528Y12450151D01*
X5307319Y12450503D01*
X5224684Y12450935D01*
X5217305Y12449163D01*
X5217301Y12449163D01*
X5078967Y12415952D01*
X5078963Y12415951D01*
X5071588Y12414180D01*
X5063038Y12409767D01*
X4943159Y12347893D01*
X4931679Y12341968D01*
X4925957Y12336976D01*
X4925955Y12336975D01*
X4818759Y12243462D01*
X4818756Y12243459D01*
X4813034Y12238467D01*
X4808667Y12232253D01*
X4727854Y12117268D01*
X4722501Y12109652D01*
X4665309Y11962961D01*
X4664318Y11955432D01*
X4650153Y11847837D01*
X4644758Y11806862D01*
X150500Y11806862D01*
X150500Y13931085D01*
X1740000Y13931085D01*
X1740369Y13924271D01*
X1745789Y13874379D01*
X1749414Y13859133D01*
X1793767Y13740823D01*
X1802299Y13725237D01*
X1877430Y13624991D01*
X1889991Y13612430D01*
X1990237Y13537299D01*
X2005823Y13528767D01*
X2124133Y13484414D01*
X2139379Y13480789D01*
X2189271Y13475369D01*
X2196085Y13475000D01*
X2617885Y13475000D01*
X2633124Y13479475D01*
X2634329Y13480865D01*
X2636000Y13488548D01*
X2636000Y13493115D01*
X3144000Y13493115D01*
X3148475Y13477876D01*
X3149865Y13476671D01*
X3157548Y13475000D01*
X3583915Y13475000D01*
X3590729Y13475369D01*
X3640621Y13480789D01*
X3655867Y13484414D01*
X3774177Y13528767D01*
X3789763Y13537299D01*
X3890009Y13612430D01*
X3902570Y13624991D01*
X3977701Y13725237D01*
X3986233Y13740823D01*
X4030586Y13859133D01*
X4034211Y13874379D01*
X4039631Y13924271D01*
X4040000Y13931085D01*
X4040000Y14052885D01*
X4035525Y14068124D01*
X4034135Y14069329D01*
X4026452Y14071000D01*
X3162115Y14071000D01*
X3146876Y14066525D01*
X3145671Y14065135D01*
X3144000Y14057452D01*
X3144000Y13493115D01*
X2636000Y13493115D01*
X2636000Y14052885D01*
X2631525Y14068124D01*
X2630135Y14069329D01*
X2622452Y14071000D01*
X1758115Y14071000D01*
X1742876Y14066525D01*
X1741671Y14065135D01*
X1740000Y14057452D01*
X1740000Y13931085D01*
X150500Y13931085D01*
X150500Y14300000D01*
X15344750Y14300000D01*
X15363670Y14156291D01*
X15419139Y14022375D01*
X15507379Y13907379D01*
X15622375Y13819139D01*
X15756291Y13763670D01*
X15900000Y13744750D01*
X16043709Y13763670D01*
X16177625Y13819139D01*
X16292621Y13907379D01*
X16380861Y14022375D01*
X16436330Y14156291D01*
X16455250Y14300000D01*
X22744750Y14300000D01*
X22763670Y14156291D01*
X22819139Y14022375D01*
X22907379Y13907379D01*
X23022375Y13819139D01*
X23156291Y13763670D01*
X23300000Y13744750D01*
X23443709Y13763670D01*
X23577625Y13819139D01*
X23692621Y13907379D01*
X23780861Y14022375D01*
X23836330Y14156291D01*
X23855250Y14300000D01*
X23836330Y14443709D01*
X23780861Y14577625D01*
X23692621Y14692621D01*
X23577625Y14780861D01*
X23443709Y14836330D01*
X23300000Y14855250D01*
X23156291Y14836330D01*
X23022375Y14780861D01*
X22907379Y14692621D01*
X22819139Y14577625D01*
X22763670Y14443709D01*
X22744750Y14300000D01*
X16455250Y14300000D01*
X16436330Y14443709D01*
X16380861Y14577625D01*
X16292621Y14692621D01*
X16177625Y14780861D01*
X16043709Y14836330D01*
X15900000Y14855250D01*
X15756291Y14836330D01*
X15622375Y14780861D01*
X15507379Y14692621D01*
X15419139Y14577625D01*
X15363670Y14443709D01*
X15344750Y14300000D01*
X150500Y14300000D01*
X150500Y14597115D01*
X1740000Y14597115D01*
X1744475Y14581876D01*
X1745865Y14580671D01*
X1753548Y14579000D01*
X2617885Y14579000D01*
X2633124Y14583475D01*
X2634329Y14584865D01*
X2636000Y14592548D01*
X2636000Y14597115D01*
X3144000Y14597115D01*
X3148475Y14581876D01*
X3149865Y14580671D01*
X3157548Y14579000D01*
X4021885Y14579000D01*
X4037124Y14583475D01*
X4038329Y14584865D01*
X4040000Y14592548D01*
X4040000Y14597115D01*
X5670000Y14597115D01*
X5674475Y14581876D01*
X5675865Y14580671D01*
X5683548Y14579000D01*
X6597885Y14579000D01*
X6613124Y14583475D01*
X6614329Y14584865D01*
X6616000Y14592548D01*
X6616000Y14597115D01*
X7124000Y14597115D01*
X7128475Y14581876D01*
X7129865Y14580671D01*
X7137548Y14579000D01*
X8051885Y14579000D01*
X8067124Y14583475D01*
X8068329Y14584865D01*
X8070000Y14592548D01*
X8070000Y14718915D01*
X8069631Y14725729D01*
X8064211Y14775621D01*
X8060586Y14790867D01*
X8016233Y14909177D01*
X8007701Y14924763D01*
X7932570Y15025009D01*
X7920009Y15037570D01*
X7819763Y15112701D01*
X7804177Y15121233D01*
X7685867Y15165586D01*
X7670621Y15169211D01*
X7620729Y15174631D01*
X7613915Y15175000D01*
X7142115Y15175000D01*
X7126876Y15170525D01*
X7125671Y15169135D01*
X7124000Y15161452D01*
X7124000Y14597115D01*
X6616000Y14597115D01*
X6616000Y15156885D01*
X6611525Y15172124D01*
X6610135Y15173329D01*
X6602452Y15175000D01*
X6126085Y15175000D01*
X6119271Y15174631D01*
X6069379Y15169211D01*
X6054133Y15165586D01*
X5935823Y15121233D01*
X5920237Y15112701D01*
X5819991Y15037570D01*
X5807430Y15025009D01*
X5732299Y14924763D01*
X5723767Y14909177D01*
X5679414Y14790867D01*
X5675789Y14775621D01*
X5670369Y14725729D01*
X5670000Y14718915D01*
X5670000Y14597115D01*
X4040000Y14597115D01*
X4040000Y14718915D01*
X4039631Y14725729D01*
X4034211Y14775621D01*
X4030586Y14790867D01*
X3986233Y14909177D01*
X3977701Y14924763D01*
X3902570Y15025009D01*
X3890009Y15037570D01*
X3789763Y15112701D01*
X3774177Y15121233D01*
X3655867Y15165586D01*
X3640621Y15169211D01*
X3590729Y15174631D01*
X3583915Y15175000D01*
X3162115Y15175000D01*
X3146876Y15170525D01*
X3145671Y15169135D01*
X3144000Y15161452D01*
X3144000Y14597115D01*
X2636000Y14597115D01*
X2636000Y15156885D01*
X2631525Y15172124D01*
X2630135Y15173329D01*
X2622452Y15175000D01*
X2196085Y15175000D01*
X2189271Y15174631D01*
X2139379Y15169211D01*
X2124133Y15165586D01*
X2005823Y15121233D01*
X1990237Y15112701D01*
X1889991Y15037570D01*
X1877430Y15025009D01*
X1802299Y14924763D01*
X1793767Y14909177D01*
X1749414Y14790867D01*
X1745789Y14775621D01*
X1740369Y14725729D01*
X1740000Y14718915D01*
X1740000Y14597115D01*
X150500Y14597115D01*
X150500Y15406177D01*
X13294391Y15406177D01*
X13295555Y15397275D01*
X13295555Y15397272D01*
X13296814Y15387646D01*
X13312980Y15264021D01*
X13370720Y15132797D01*
X13376497Y15125924D01*
X13376498Y15125923D01*
X13424231Y15069138D01*
X13462970Y15023052D01*
X13582313Y14943610D01*
X13719157Y14900858D01*
X13728129Y14900694D01*
X13728132Y14900693D01*
X13793463Y14899496D01*
X13862499Y14898230D01*
X13871533Y14900693D01*
X13992158Y14933579D01*
X13992160Y14933580D01*
X14000817Y14935940D01*
X14122991Y15010955D01*
X14147082Y15037570D01*
X14213178Y15110593D01*
X14219200Y15117246D01*
X14281710Y15246267D01*
X14305496Y15387646D01*
X14305647Y15400000D01*
X14285323Y15541918D01*
X14225984Y15672428D01*
X14207598Y15693766D01*
X14138260Y15774237D01*
X14138257Y15774240D01*
X14132400Y15781037D01*
X14012095Y15859015D01*
X13874739Y15900093D01*
X13865763Y15900148D01*
X13865762Y15900148D01*
X13805555Y15900516D01*
X13731376Y15900969D01*
X13593529Y15861572D01*
X13472280Y15785070D01*
X13466338Y15778342D01*
X13466337Y15778341D01*
X13429345Y15736455D01*
X13377377Y15677612D01*
X13316447Y15547837D01*
X13315066Y15538965D01*
X13298240Y15430896D01*
X13294391Y15406177D01*
X150500Y15406177D01*
X150500Y16131677D01*
X18119391Y16131677D01*
X18120555Y16122775D01*
X18120555Y16122772D01*
X18121814Y16113146D01*
X18137980Y15989521D01*
X18141597Y15981301D01*
X18186482Y15879293D01*
X18195720Y15858297D01*
X18201497Y15851424D01*
X18201498Y15851423D01*
X18282190Y15755428D01*
X18287970Y15748552D01*
X18329010Y15721233D01*
X18392109Y15679231D01*
X18407313Y15669110D01*
X18544157Y15626358D01*
X18553129Y15626194D01*
X18553132Y15626193D01*
X18618463Y15624996D01*
X18687499Y15623730D01*
X18696533Y15626193D01*
X18817158Y15659079D01*
X18817160Y15659080D01*
X18825817Y15661440D01*
X18947991Y15736455D01*
X18954014Y15743109D01*
X18954018Y15743112D01*
X18955839Y15745124D01*
X18958134Y15746529D01*
X18960923Y15748845D01*
X18961257Y15748442D01*
X19016384Y15782202D01*
X19087364Y15780661D01*
X19132737Y15754777D01*
X19137970Y15748552D01*
X19145441Y15743579D01*
X19145442Y15743578D01*
X19244541Y15677612D01*
X19257313Y15669110D01*
X19394157Y15626358D01*
X19403129Y15626194D01*
X19403132Y15626193D01*
X19468463Y15624996D01*
X19537499Y15623730D01*
X19546533Y15626193D01*
X19667158Y15659079D01*
X19667160Y15659080D01*
X19675817Y15661440D01*
X19797991Y15736455D01*
X19804439Y15743578D01*
X19888178Y15836093D01*
X19894200Y15842746D01*
X19956710Y15971767D01*
X19980496Y16113146D01*
X19980647Y16125500D01*
X19960323Y16267418D01*
X19900984Y16397928D01*
X19838457Y16470494D01*
X19813260Y16499737D01*
X19813257Y16499740D01*
X19807400Y16506537D01*
X19687095Y16584515D01*
X19549739Y16625593D01*
X19540763Y16625648D01*
X19540762Y16625648D01*
X19480555Y16626016D01*
X19406376Y16626469D01*
X19268529Y16587072D01*
X19147280Y16510570D01*
X19141337Y16503841D01*
X19134501Y16498023D01*
X19132725Y16500110D01*
X19084617Y16469828D01*
X19013623Y16470494D01*
X18967429Y16496100D01*
X18963258Y16499739D01*
X18957400Y16506537D01*
X18949869Y16511418D01*
X18949866Y16511421D01*
X18844633Y16579629D01*
X18844634Y16579629D01*
X18837095Y16584515D01*
X18699739Y16625593D01*
X18690763Y16625648D01*
X18690762Y16625648D01*
X18630555Y16626016D01*
X18556376Y16626469D01*
X18418529Y16587072D01*
X18297280Y16510570D01*
X18291338Y16503842D01*
X18291337Y16503841D01*
X18261886Y16470494D01*
X18202377Y16403112D01*
X18141447Y16273337D01*
X18119391Y16131677D01*
X150500Y16131677D01*
X150500Y17541414D01*
X13750001Y17541414D01*
X13751209Y17529154D01*
X13756282Y17503648D01*
X13765599Y17481152D01*
X13784963Y17452172D01*
X13802172Y17434963D01*
X13831156Y17415596D01*
X13853642Y17406282D01*
X13879158Y17401207D01*
X13891412Y17400000D01*
X14127885Y17400000D01*
X14143124Y17404475D01*
X14144329Y17405865D01*
X14146000Y17413548D01*
X14146000Y17418116D01*
X14654000Y17418116D01*
X14658475Y17402877D01*
X14659865Y17401672D01*
X14667548Y17400001D01*
X14908586Y17400001D01*
X14920846Y17401209D01*
X14946352Y17406282D01*
X14968848Y17415599D01*
X14997828Y17434963D01*
X15015037Y17452172D01*
X15034403Y17481155D01*
X15046316Y17509915D01*
X15090865Y17565195D01*
X15158229Y17587615D01*
X15227020Y17570056D01*
X15247524Y17554888D01*
X15284789Y17520979D01*
X15284793Y17520976D01*
X15290410Y17515865D01*
X15302796Y17509140D01*
X15422099Y17444363D01*
X15422101Y17444362D01*
X15428776Y17440738D01*
X15436125Y17438810D01*
X15573719Y17402713D01*
X15573721Y17402713D01*
X15581069Y17400785D01*
X15664380Y17399476D01*
X15730898Y17398431D01*
X15730901Y17398431D01*
X15738495Y17398312D01*
X15891968Y17433462D01*
X16032625Y17504205D01*
X16091967Y17554888D01*
X16146574Y17601526D01*
X16146576Y17601529D01*
X16152348Y17606458D01*
X16202587Y17676373D01*
X16258581Y17720020D01*
X16329284Y17726466D01*
X16392249Y17693663D01*
X16409485Y17673130D01*
X16443958Y17621828D01*
X16466270Y17601526D01*
X16545806Y17529154D01*
X16560410Y17515865D01*
X16572796Y17509140D01*
X16692099Y17444363D01*
X16692101Y17444362D01*
X16698776Y17440738D01*
X16706125Y17438810D01*
X16843719Y17402713D01*
X16843721Y17402713D01*
X16851069Y17400785D01*
X16934380Y17399476D01*
X17000898Y17398431D01*
X17000901Y17398431D01*
X17008495Y17398312D01*
X17161968Y17433462D01*
X17302625Y17504205D01*
X17361967Y17554888D01*
X17416574Y17601526D01*
X17416576Y17601529D01*
X17422348Y17606458D01*
X17472587Y17676373D01*
X17528581Y17720020D01*
X17599284Y17726466D01*
X17662249Y17693663D01*
X17679485Y17673130D01*
X17713958Y17621828D01*
X17736270Y17601526D01*
X17815806Y17529154D01*
X17830410Y17515865D01*
X17842796Y17509140D01*
X17962099Y17444363D01*
X17962101Y17444362D01*
X17968776Y17440738D01*
X17976125Y17438810D01*
X18113719Y17402713D01*
X18113721Y17402713D01*
X18121069Y17400785D01*
X18204380Y17399476D01*
X18270898Y17398431D01*
X18270901Y17398431D01*
X18278495Y17398312D01*
X18431968Y17433462D01*
X18572625Y17504205D01*
X18631967Y17554888D01*
X18686574Y17601526D01*
X18686576Y17601529D01*
X18692348Y17606458D01*
X18784224Y17734317D01*
X18842950Y17880402D01*
X18865134Y18036277D01*
X18865278Y18050000D01*
X18847126Y18200000D01*
X19244750Y18200000D01*
X19263670Y18056291D01*
X19319139Y17922375D01*
X19407379Y17807379D01*
X19522375Y17719139D01*
X19656291Y17663670D01*
X19800000Y17644750D01*
X19943709Y17663670D01*
X20077625Y17719139D01*
X20192621Y17807379D01*
X20280861Y17922375D01*
X20336330Y18056291D01*
X20355250Y18200000D01*
X20336330Y18343709D01*
X20280861Y18477625D01*
X20192621Y18592621D01*
X20077625Y18680861D01*
X19943709Y18736330D01*
X19800000Y18755250D01*
X19656291Y18736330D01*
X19522375Y18680861D01*
X19407379Y18592621D01*
X19319139Y18477625D01*
X19263670Y18343709D01*
X19244750Y18200000D01*
X18847126Y18200000D01*
X18846363Y18206306D01*
X18809448Y18304000D01*
X18793394Y18346486D01*
X18793393Y18346489D01*
X18790710Y18353588D01*
X18701531Y18483343D01*
X18610518Y18564433D01*
X18589648Y18583028D01*
X18589645Y18583030D01*
X18583976Y18588081D01*
X18575402Y18592621D01*
X18451543Y18658201D01*
X18451544Y18658201D01*
X18444831Y18661755D01*
X18388788Y18675832D01*
X18299498Y18698260D01*
X18299496Y18698260D01*
X18292128Y18700111D01*
X18284530Y18700151D01*
X18284528Y18700151D01*
X18217319Y18700503D01*
X18134684Y18700935D01*
X18127305Y18699163D01*
X18127301Y18699163D01*
X17988967Y18665952D01*
X17988963Y18665951D01*
X17981588Y18664180D01*
X17924258Y18634590D01*
X17850185Y18596358D01*
X17841679Y18591968D01*
X17835957Y18586976D01*
X17835955Y18586975D01*
X17728759Y18493462D01*
X17728756Y18493459D01*
X17723034Y18488467D01*
X17718669Y18482257D01*
X17718666Y18482253D01*
X17678117Y18424557D01*
X17622582Y18380326D01*
X17551950Y18373140D01*
X17488646Y18405281D01*
X17471191Y18425640D01*
X17435838Y18477078D01*
X17435833Y18477084D01*
X17431531Y18483343D01*
X17340518Y18564433D01*
X17319648Y18583028D01*
X17319645Y18583030D01*
X17313976Y18588081D01*
X17305402Y18592621D01*
X17181543Y18658201D01*
X17181544Y18658201D01*
X17174831Y18661755D01*
X17118788Y18675832D01*
X17029498Y18698260D01*
X17029496Y18698260D01*
X17022128Y18700111D01*
X17014530Y18700151D01*
X17014528Y18700151D01*
X16947319Y18700503D01*
X16864684Y18700935D01*
X16857305Y18699163D01*
X16857301Y18699163D01*
X16718967Y18665952D01*
X16718963Y18665951D01*
X16711588Y18664180D01*
X16654258Y18634590D01*
X16580185Y18596358D01*
X16571679Y18591968D01*
X16565957Y18586976D01*
X16565955Y18586975D01*
X16458759Y18493462D01*
X16458756Y18493459D01*
X16453034Y18488467D01*
X16448669Y18482257D01*
X16448666Y18482253D01*
X16408117Y18424557D01*
X16352582Y18380326D01*
X16281950Y18373140D01*
X16218646Y18405281D01*
X16201191Y18425640D01*
X16165838Y18477078D01*
X16165833Y18477084D01*
X16161531Y18483343D01*
X16070518Y18564433D01*
X16049648Y18583028D01*
X16049645Y18583030D01*
X16043976Y18588081D01*
X16035402Y18592621D01*
X15911543Y18658201D01*
X15911544Y18658201D01*
X15904831Y18661755D01*
X15848788Y18675832D01*
X15759498Y18698260D01*
X15759496Y18698260D01*
X15752128Y18700111D01*
X15744530Y18700151D01*
X15744528Y18700151D01*
X15677319Y18700503D01*
X15594684Y18700935D01*
X15587305Y18699163D01*
X15587301Y18699163D01*
X15448967Y18665952D01*
X15448963Y18665951D01*
X15441588Y18664180D01*
X15384258Y18634590D01*
X15310185Y18596358D01*
X15301679Y18591968D01*
X15295957Y18586976D01*
X15295955Y18586975D01*
X15245658Y18543098D01*
X15181176Y18513390D01*
X15110869Y18523260D01*
X15057058Y18569574D01*
X15046419Y18589832D01*
X15034402Y18618847D01*
X15015037Y18647828D01*
X14997828Y18665037D01*
X14968844Y18684404D01*
X14946358Y18693718D01*
X14920842Y18698793D01*
X14908588Y18700000D01*
X14672115Y18700000D01*
X14656876Y18695525D01*
X14655671Y18694135D01*
X14654000Y18686452D01*
X14654000Y17418116D01*
X14146000Y17418116D01*
X14146000Y17777885D01*
X14141525Y17793124D01*
X14140135Y17794329D01*
X14132452Y17796000D01*
X13768116Y17796000D01*
X13752877Y17791525D01*
X13751672Y17790135D01*
X13750001Y17782452D01*
X13750001Y17541414D01*
X150500Y17541414D01*
X150500Y18322115D01*
X13750000Y18322115D01*
X13754475Y18306876D01*
X13755865Y18305671D01*
X13763548Y18304000D01*
X14127885Y18304000D01*
X14143124Y18308475D01*
X14144329Y18309865D01*
X14146000Y18317548D01*
X14146000Y18681884D01*
X14141525Y18697123D01*
X14140135Y18698328D01*
X14132452Y18699999D01*
X13891414Y18699999D01*
X13879154Y18698791D01*
X13853648Y18693718D01*
X13831152Y18684401D01*
X13802172Y18665037D01*
X13784963Y18647828D01*
X13765596Y18618844D01*
X13756282Y18596358D01*
X13751207Y18570842D01*
X13750000Y18558588D01*
X13750000Y18322115D01*
X150500Y18322115D01*
X150500Y18763598D01*
X151516Y18771315D01*
X151516Y18783978D01*
X155809Y18800000D01*
X152170Y18813583D01*
X152308Y18816043D01*
X165195Y18930420D01*
X171474Y18957928D01*
X210132Y19068407D01*
X222369Y19093820D01*
X284651Y19192943D01*
X302241Y19214998D01*
X385002Y19297759D01*
X407057Y19315349D01*
X506180Y19377631D01*
X531593Y19389868D01*
X642072Y19428526D01*
X669580Y19434805D01*
X783957Y19447692D01*
X786417Y19447830D01*
X800000Y19444191D01*
X816022Y19448484D01*
X828685Y19448484D01*
X836402Y19449500D01*
X8485211Y19449500D01*
X8553332Y19429498D01*
G37*
%TD.AperFunction*%
%TD*%
M02*
