M48
; DRILL file {KiCad (6.0.7-1)-1} date 2022年09月12日 星期一 16:32:20
; FORMAT={-:-/ absolute / metric / decimal}
; #@! TF.CreationDate,2022-09-12T16:32:20+08:00
; #@! TF.GenerationSoftware,Kicad,Pcbnew,(6.0.7-1)-1
; #@! TF.FileFunction,Plated,1,4,PTH
FMAT,2
METRIC
; #@! TA.AperFunction,Plated,PTH,ViaDrill
T1C0.300
; #@! TA.AperFunction,Plated,PTH,ViaDrill
T2C0.400
; #@! TA.AperFunction,Plated,PTH,ComponentDrill
T3C0.400
; #@! TA.AperFunction,Plated,PTH,ViaDrill
T4C0.500
; #@! TA.AperFunction,Plated,PTH,ViaDrill
T5C0.600
; #@! TA.AperFunction,Plated,PTH,ComponentDrill
T6C0.600
; #@! TA.AperFunction,Plated,PTH,ComponentDrill
T7C0.650
; #@! TA.AperFunction,Plated,PTH,ComponentDrill
T8C1.000
%
G90
G05
T1
X3.3Y17.3
X3.3Y14.8
X3.3Y9.8
X3.3Y7.3
X5.8Y18.3
X5.8Y17.3
X5.8Y6.3
X6.8Y18.3
X6.8Y6.3
X7.8Y18.3
X7.8Y6.3
X8.8Y7.3
X11.05Y18.3
X11.05Y6.3
X12.05Y18.3
X12.05Y6.3
X12.8Y9.4
X13.4Y9.05
X14.2Y13.6
X14.2Y11.0
X15.05Y8.3
X15.55Y10.05
X16.05Y6.3
X16.3Y10.05
X17.05Y14.8
X17.05Y8.3
X17.3Y10.05
X17.3Y3.3
X18.05Y8.3
X18.3Y18.8
X19.3Y18.8
X19.8Y3.3
X20.6Y13.0
X20.6Y11.6
X20.8Y18.3
X20.8Y4.3
X21.05Y17.55
X22.0Y13.0
X22.0Y11.6
X22.05Y4.8
X22.3Y7.55
X22.3Y3.3
X23.3Y4.8
X24.05Y7.55
X24.3Y15.3
X24.8Y6.55
X24.8Y3.3
X25.05Y15.8
X25.4Y17.8
X26.05Y15.8
X26.1Y18.5
X27.3Y3.3
X27.8Y18.3
X27.8Y17.3
X27.8Y9.55
X27.8Y6.55
X27.8Y5.55
X28.8Y6.55
X28.8Y5.55
X29.05Y14.05
X29.8Y21.3
X29.8Y14.8
X29.8Y6.55
X29.8Y5.55
X29.8Y3.3
X30.55Y18.3
X30.55Y17.3
X30.55Y12.8
X30.55Y11.8
X30.55Y9.8
X30.55Y8.8
X31.55Y18.3
X31.55Y17.3
X31.55Y13.8
X31.55Y12.8
X31.55Y11.8
X31.55Y9.8
X31.55Y8.8
X34.8Y21.3
X34.8Y3.3
X37.3Y21.3
X37.3Y3.3
X38.05Y19.3
X38.05Y18.3
X39.05Y19.3
X39.05Y18.3
X39.8Y21.3
X39.8Y3.3
X41.3Y19.8
X41.3Y4.8
T2
X14.344Y12.725
X14.344Y11.875
X16.95Y12.725
X16.95Y11.875
X18.0Y15.2
X20.625Y16.6
X20.9Y8.2
X21.475Y16.6
X25.05Y7.55
X27.5Y16.1
X27.8Y20.8
X27.8Y12.8
X27.8Y8.55
T3
X6.6Y15.55
X6.6Y14.6
X6.6Y12.75
X6.6Y11.85
X6.6Y10.95
X6.6Y10.0
X6.6Y9.05
X8.0Y15.55
X8.0Y14.6
X8.0Y13.65
X8.0Y12.75
X8.0Y11.85
X8.0Y10.0
X8.0Y9.05
T4
X16.05Y8.3
X17.9Y16.8
X24.2Y5.9
X25.3Y16.8
T5
X12.3Y13.9
X13.05Y7.3
T7
X16.3Y20.3
X17.57Y20.3
X18.84Y20.3
X20.11Y20.3
T8
X33.542Y17.38
X33.542Y14.84
X33.542Y12.3
X33.542Y9.76
X33.542Y7.22
X36.082Y17.38
X36.082Y14.84
X36.082Y12.3
X36.082Y9.76
X36.082Y7.22
T6
G00X5.37Y14.75
M15
G01X5.37Y13.85
M16
G05
G00X5.37Y10.75
M15
G01X5.37Y9.85
M16
G05
G00X9.23Y14.75
M15
G01X9.23Y13.85
M16
G05
G00X9.23Y10.75
M15
G01X9.23Y9.85
M16
G05
T0
M30
