%TF.GenerationSoftware,KiCad,Pcbnew,(5.1.12-1-10_14)*%
%TF.CreationDate,2022-09-08T10:24:56+08:00*%
%TF.ProjectId,0102-TILEDAP,30313032-2d54-4494-9c45-4441502e6b69,rev?*%
%TF.SameCoordinates,Original*%
%TF.FileFunction,Legend,Bot*%
%TF.FilePolarity,Positive*%
%FSLAX46Y46*%
G04 Gerber Fmt 4.6, Leading zero omitted, Abs format (unit mm)*
G04 Created by KiCad (PCBNEW (5.1.12-1-10_14)) date 2022-09-08 10:24:56*
%MOMM*%
%LPD*%
G01*
G04 APERTURE LIST*
%ADD10C,0.120000*%
%ADD11C,0.150000*%
G04 APERTURE END LIST*
D10*
X15797047Y19861905D02*
X15797047Y20433334D01*
X15758952Y20547620D01*
X15682761Y20623810D01*
X15568476Y20661905D01*
X15492285Y20661905D01*
X16558952Y20661905D02*
X16178000Y20661905D01*
X16178000Y19861905D01*
X17282761Y20585715D02*
X17244666Y20623810D01*
X17130380Y20661905D01*
X17054190Y20661905D01*
X16939904Y20623810D01*
X16863714Y20547620D01*
X16825619Y20471429D01*
X16787523Y20319048D01*
X16787523Y20204762D01*
X16825619Y20052381D01*
X16863714Y19976191D01*
X16939904Y19900000D01*
X17054190Y19861905D01*
X17130380Y19861905D01*
X17244666Y19900000D01*
X17282761Y19938096D01*
X17854190Y19861905D02*
X17854190Y20433334D01*
X17816095Y20547620D01*
X17739904Y20623810D01*
X17625619Y20661905D01*
X17549428Y20661905D01*
X18616095Y20661905D02*
X18235142Y20661905D01*
X18235142Y19861905D01*
X19339904Y20585715D02*
X19301809Y20623810D01*
X19187523Y20661905D01*
X19111333Y20661905D01*
X18997047Y20623810D01*
X18920857Y20547620D01*
X18882761Y20471429D01*
X18844666Y20319048D01*
X18844666Y20204762D01*
X18882761Y20052381D01*
X18920857Y19976191D01*
X18997047Y19900000D01*
X19111333Y19861905D01*
X19187523Y19861905D01*
X19301809Y19900000D01*
X19339904Y19938096D01*
X19911333Y19861905D02*
X19911333Y20433334D01*
X19873238Y20547620D01*
X19797047Y20623810D01*
X19682761Y20661905D01*
X19606571Y20661905D01*
X20673238Y20661905D02*
X20292285Y20661905D01*
X20292285Y19861905D01*
X21397047Y20585715D02*
X21358952Y20623810D01*
X21244666Y20661905D01*
X21168476Y20661905D01*
X21054190Y20623810D01*
X20978000Y20547620D01*
X20939904Y20471429D01*
X20901809Y20319048D01*
X20901809Y20204762D01*
X20939904Y20052381D01*
X20978000Y19976191D01*
X21054190Y19900000D01*
X21168476Y19861905D01*
X21244666Y19861905D01*
X21358952Y19900000D01*
X21397047Y19938096D01*
X21968476Y19861905D02*
X21968476Y20433334D01*
X21930380Y20547620D01*
X21854190Y20623810D01*
X21739904Y20661905D01*
X21663714Y20661905D01*
X22730380Y20661905D02*
X22349428Y20661905D01*
X22349428Y19861905D01*
X23454190Y20585715D02*
X23416095Y20623810D01*
X23301809Y20661905D01*
X23225619Y20661905D01*
X23111333Y20623810D01*
X23035142Y20547620D01*
X22997047Y20471429D01*
X22958952Y20319048D01*
X22958952Y20204762D01*
X22997047Y20052381D01*
X23035142Y19976191D01*
X23111333Y19900000D01*
X23225619Y19861905D01*
X23301809Y19861905D01*
X23416095Y19900000D01*
X23454190Y19938096D01*
D11*
X15587976Y11260715D02*
X16302261Y11260715D01*
X15873690Y10832143D02*
X15587976Y12117858D01*
X16207023Y11689286D02*
X15492738Y11689286D01*
X15921309Y12117858D02*
X16207023Y10832143D01*
X16826071Y10927381D02*
X16921309Y10927381D01*
X17016547Y10975000D01*
X17064166Y11022620D01*
X17111785Y11117858D01*
X17159404Y11308334D01*
X17159404Y11546429D01*
X17111785Y11736905D01*
X17064166Y11832143D01*
X17016547Y11879762D01*
X16921309Y11927381D01*
X16826071Y11927381D01*
X16730833Y11879762D01*
X16683214Y11832143D01*
X16635595Y11736905D01*
X16587976Y11546429D01*
X16587976Y11308334D01*
X16635595Y11117858D01*
X16683214Y11022620D01*
X16730833Y10975000D01*
X16826071Y10927381D01*
X18111785Y11927381D02*
X17540357Y11927381D01*
X17826071Y11927381D02*
X17826071Y10927381D01*
X17730833Y11070239D01*
X17635595Y11165477D01*
X17540357Y11213096D01*
X18730833Y10927381D02*
X18826071Y10927381D01*
X18921309Y10975000D01*
X18968928Y11022620D01*
X19016547Y11117858D01*
X19064166Y11308334D01*
X19064166Y11546429D01*
X19016547Y11736905D01*
X18968928Y11832143D01*
X18921309Y11879762D01*
X18826071Y11927381D01*
X18730833Y11927381D01*
X18635595Y11879762D01*
X18587976Y11832143D01*
X18540357Y11736905D01*
X18492738Y11546429D01*
X18492738Y11308334D01*
X18540357Y11117858D01*
X18587976Y11022620D01*
X18635595Y10975000D01*
X18730833Y10927381D01*
X19445119Y11022620D02*
X19492738Y10975000D01*
X19587976Y10927381D01*
X19826071Y10927381D01*
X19921309Y10975000D01*
X19968928Y11022620D01*
X20016547Y11117858D01*
X20016547Y11213096D01*
X19968928Y11355953D01*
X19397500Y11927381D01*
X20016547Y11927381D01*
X21207023Y11927381D02*
X21207023Y10927381D01*
X21445119Y10927381D01*
X21587976Y10975000D01*
X21683214Y11070239D01*
X21730833Y11165477D01*
X21778452Y11355953D01*
X21778452Y11498810D01*
X21730833Y11689286D01*
X21683214Y11784524D01*
X21587976Y11879762D01*
X21445119Y11927381D01*
X21207023Y11927381D01*
X22159404Y11641667D02*
X22635595Y11641667D01*
X22064166Y11927381D02*
X22397500Y10927381D01*
X22730833Y11927381D01*
X23064166Y11927381D02*
X23064166Y10927381D01*
X23445119Y10927381D01*
X23540357Y10975000D01*
X23587976Y11022620D01*
X23635595Y11117858D01*
X23635595Y11260715D01*
X23587976Y11355953D01*
X23540357Y11403572D01*
X23445119Y11451191D01*
X23064166Y11451191D01*
X24540357Y11927381D02*
X24064166Y11927381D01*
X24064166Y10927381D01*
X24873690Y11927381D02*
X24873690Y11260715D01*
X24873690Y10927381D02*
X24826071Y10975000D01*
X24873690Y11022620D01*
X24921309Y10975000D01*
X24873690Y10927381D01*
X24873690Y11022620D01*
X25349880Y11260715D02*
X25349880Y11927381D01*
X25349880Y11355953D02*
X25397500Y11308334D01*
X25492738Y11260715D01*
X25635595Y11260715D01*
X25730833Y11308334D01*
X25778452Y11403572D01*
X25778452Y11927381D01*
X26254642Y11927381D02*
X26254642Y10927381D01*
X26349880Y11546429D02*
X26635595Y11927381D01*
X26635595Y11260715D02*
X26254642Y11641667D01*
X15492738Y12577381D02*
X15826071Y13577381D01*
X16159404Y12577381D01*
X17016547Y13577381D02*
X16445119Y13577381D01*
X16730833Y13577381D02*
X16730833Y12577381D01*
X16635595Y12720239D01*
X16540357Y12815477D01*
X16445119Y12863096D01*
X17445119Y13482143D02*
X17492738Y13529762D01*
X17445119Y13577381D01*
X17397500Y13529762D01*
X17445119Y13482143D01*
X17445119Y13577381D01*
X18111785Y12577381D02*
X18207023Y12577381D01*
X18302261Y12625000D01*
X18349880Y12672620D01*
X18397500Y12767858D01*
X18445119Y12958334D01*
X18445119Y13196429D01*
X18397500Y13386905D01*
X18349880Y13482143D01*
X18302261Y13529762D01*
X18207023Y13577381D01*
X18111785Y13577381D01*
X18016547Y13529762D01*
X17968928Y13482143D01*
X17921309Y13386905D01*
X17873690Y13196429D01*
X17873690Y12958334D01*
X17921309Y12767858D01*
X17968928Y12672620D01*
X18016547Y12625000D01*
X18111785Y12577381D01*
D10*
X7253809Y18934620D02*
X7291904Y18820334D01*
X7291904Y18629858D01*
X7253809Y18553667D01*
X7215714Y18515572D01*
X7139523Y18477477D01*
X7063333Y18477477D01*
X6987142Y18515572D01*
X6949047Y18553667D01*
X6910952Y18629858D01*
X6872857Y18782239D01*
X6834761Y18858429D01*
X6796666Y18896524D01*
X6720476Y18934620D01*
X6644285Y18934620D01*
X6568095Y18896524D01*
X6530000Y18858429D01*
X6491904Y18782239D01*
X6491904Y18591762D01*
X6530000Y18477477D01*
X6491904Y18210810D02*
X7291904Y18020334D01*
X6720476Y17867953D01*
X7291904Y17715572D01*
X6491904Y17525096D01*
X7291904Y17220334D02*
X6491904Y17220334D01*
X6491904Y16687000D02*
X6491904Y16534620D01*
X6530000Y16458429D01*
X6606190Y16382239D01*
X6758571Y16344143D01*
X7025238Y16344143D01*
X7177619Y16382239D01*
X7253809Y16458429D01*
X7291904Y16534620D01*
X7291904Y16687000D01*
X7253809Y16763191D01*
X7177619Y16839381D01*
X7025238Y16877477D01*
X6758571Y16877477D01*
X6606190Y16839381D01*
X6530000Y16763191D01*
X6491904Y16687000D01*
X5983809Y18934620D02*
X6021904Y18820334D01*
X6021904Y18629858D01*
X5983809Y18553667D01*
X5945714Y18515572D01*
X5869523Y18477477D01*
X5793333Y18477477D01*
X5717142Y18515572D01*
X5679047Y18553667D01*
X5640952Y18629858D01*
X5602857Y18782239D01*
X5564761Y18858429D01*
X5526666Y18896524D01*
X5450476Y18934620D01*
X5374285Y18934620D01*
X5298095Y18896524D01*
X5260000Y18858429D01*
X5221904Y18782239D01*
X5221904Y18591762D01*
X5260000Y18477477D01*
X5221904Y18210810D02*
X6021904Y18020334D01*
X5450476Y17867953D01*
X6021904Y17715572D01*
X5221904Y17525096D01*
X5945714Y16763191D02*
X5983809Y16801286D01*
X6021904Y16915572D01*
X6021904Y16991762D01*
X5983809Y17106048D01*
X5907619Y17182239D01*
X5831428Y17220334D01*
X5679047Y17258429D01*
X5564761Y17258429D01*
X5412380Y17220334D01*
X5336190Y17182239D01*
X5260000Y17106048D01*
X5221904Y16991762D01*
X5221904Y16915572D01*
X5260000Y16801286D01*
X5298095Y16763191D01*
X6021904Y16420334D02*
X5221904Y16420334D01*
X6021904Y15963191D02*
X5564761Y16306048D01*
X5221904Y15963191D02*
X5679047Y16420334D01*
X3990000Y18477477D02*
X3951904Y18553667D01*
X3951904Y18667953D01*
X3990000Y18782239D01*
X4066190Y18858429D01*
X4142380Y18896524D01*
X4294761Y18934620D01*
X4409047Y18934620D01*
X4561428Y18896524D01*
X4637619Y18858429D01*
X4713809Y18782239D01*
X4751904Y18667953D01*
X4751904Y18591762D01*
X4713809Y18477477D01*
X4675714Y18439381D01*
X4409047Y18439381D01*
X4409047Y18591762D01*
X4751904Y18096524D02*
X3951904Y18096524D01*
X4751904Y17639381D01*
X3951904Y17639381D01*
X4751904Y17258429D02*
X3951904Y17258429D01*
X3951904Y17067953D01*
X3990000Y16953667D01*
X4066190Y16877477D01*
X4142380Y16839381D01*
X4294761Y16801286D01*
X4409047Y16801286D01*
X4561428Y16839381D01*
X4637619Y16877477D01*
X4713809Y16953667D01*
X4751904Y17067953D01*
X4751904Y17258429D01*
X7761904Y18515572D02*
X7761904Y18896524D01*
X8142857Y18934620D01*
X8104761Y18896524D01*
X8066666Y18820334D01*
X8066666Y18629858D01*
X8104761Y18553667D01*
X8142857Y18515572D01*
X8219047Y18477477D01*
X8409523Y18477477D01*
X8485714Y18515572D01*
X8523809Y18553667D01*
X8561904Y18629858D01*
X8561904Y18820334D01*
X8523809Y18896524D01*
X8485714Y18934620D01*
X7761904Y18248905D02*
X8561904Y17982239D01*
X7761904Y17715572D01*
M02*
