%TF.GenerationSoftware,KiCad,Pcbnew,(6.0.7-1)-1*%
%TF.CreationDate,2022-09-12T16:32:20+08:00*%
%TF.ProjectId,0102-TILEDAP,30313032-2d54-4494-9c45-4441502e6b69,V1.1*%
%TF.SameCoordinates,Original*%
%TF.FileFunction,Soldermask,Top*%
%TF.FilePolarity,Negative*%
%FSLAX46Y46*%
G04 Gerber Fmt 4.6, Leading zero omitted, Abs format (unit mm)*
G04 Created by KiCad (PCBNEW (6.0.7-1)-1) date 2022-09-12 16:32:20*
%MOMM*%
%LPD*%
G01*
G04 APERTURE LIST*
G04 Aperture macros list*
%AMRoundRect*
0 Rectangle with rounded corners*
0 $1 Rounding radius*
0 $2 $3 $4 $5 $6 $7 $8 $9 X,Y pos of 4 corners*
0 Add a 4 corners polygon primitive as box body*
4,1,4,$2,$3,$4,$5,$6,$7,$8,$9,$2,$3,0*
0 Add four circle primitives for the rounded corners*
1,1,$1+$1,$2,$3*
1,1,$1+$1,$4,$5*
1,1,$1+$1,$6,$7*
1,1,$1+$1,$8,$9*
0 Add four rect primitives between the rounded corners*
20,1,$1+$1,$2,$3,$4,$5,0*
20,1,$1+$1,$4,$5,$6,$7,0*
20,1,$1+$1,$6,$7,$8,$9,0*
20,1,$1+$1,$8,$9,$2,$3,0*%
G04 Aperture macros list end*
%ADD10RoundRect,0.190000X-0.170000X0.140000X-0.170000X-0.140000X0.170000X-0.140000X0.170000X0.140000X0*%
%ADD11RoundRect,0.300000X-0.475000X0.250000X-0.475000X-0.250000X0.475000X-0.250000X0.475000X0.250000X0*%
%ADD12RoundRect,0.190000X0.170000X-0.140000X0.170000X0.140000X-0.170000X0.140000X-0.170000X-0.140000X0*%
%ADD13RoundRect,0.190000X0.140000X0.170000X-0.140000X0.170000X-0.140000X-0.170000X0.140000X-0.170000X0*%
%ADD14RoundRect,0.268750X0.256250X-0.218750X0.256250X0.218750X-0.256250X0.218750X-0.256250X-0.218750X0*%
%ADD15C,0.700000*%
%ADD16O,1.300000X2.200000*%
%ADD17RoundRect,0.185000X-0.135000X-0.185000X0.135000X-0.185000X0.135000X0.185000X-0.135000X0.185000X0*%
%ADD18RoundRect,0.185000X-0.185000X0.135000X-0.185000X-0.135000X0.185000X-0.135000X0.185000X0.135000X0*%
%ADD19RoundRect,0.185000X0.135000X0.185000X-0.135000X0.185000X-0.135000X-0.185000X0.135000X-0.185000X0*%
%ADD20RoundRect,0.185000X0.185000X-0.135000X0.185000X0.135000X-0.185000X0.135000X-0.185000X-0.135000X0*%
%ADD21RoundRect,0.050000X-0.500000X0.550000X-0.500000X-0.550000X0.500000X-0.550000X0.500000X0.550000X0*%
%ADD22RoundRect,0.200000X0.150000X-0.512500X0.150000X0.512500X-0.150000X0.512500X-0.150000X-0.512500X0*%
%ADD23C,2.300000*%
%ADD24RoundRect,0.112500X0.062500X-0.475000X0.062500X0.475000X-0.062500X0.475000X-0.062500X-0.475000X0*%
%ADD25RoundRect,0.112500X0.475000X-0.062500X0.475000X0.062500X-0.475000X0.062500X-0.475000X-0.062500X0*%
%ADD26RoundRect,0.050000X2.050000X-2.050000X2.050000X2.050000X-2.050000X2.050000X-2.050000X-2.050000X0*%
%ADD27RoundRect,0.050000X-0.600000X-0.450000X0.600000X-0.450000X0.600000X0.450000X-0.600000X0.450000X0*%
%ADD28RoundRect,0.050000X-0.850000X-0.850000X0.850000X-0.850000X0.850000X0.850000X-0.850000X0.850000X0*%
%ADD29O,1.800000X1.800000*%
%ADD30RoundRect,0.300000X0.475000X-0.250000X0.475000X0.250000X-0.475000X0.250000X-0.475000X-0.250000X0*%
%ADD31RoundRect,0.200000X0.587500X0.150000X-0.587500X0.150000X-0.587500X-0.150000X0.587500X-0.150000X0*%
%ADD32RoundRect,0.190000X-0.140000X-0.170000X0.140000X-0.170000X0.140000X0.170000X-0.140000X0.170000X0*%
%ADD33RoundRect,0.050000X-0.500000X0.500000X-0.500000X-0.500000X0.500000X-0.500000X0.500000X0.500000X0*%
%ADD34O,1.100000X1.100000*%
G04 APERTURE END LIST*
D10*
%TO.C,C2*%
X13100000Y15780000D03*
X13100000Y14820000D03*
%TD*%
D11*
%TO.C,C3*%
X11500000Y17050000D03*
X11500000Y15150000D03*
%TD*%
D12*
%TO.C,C4*%
X23300000Y5840000D03*
X23300000Y6800000D03*
%TD*%
D10*
%TO.C,C5*%
X24300000Y17760000D03*
X24300000Y16800000D03*
%TD*%
%TO.C,C7*%
X18800000Y17760000D03*
X18800000Y16800000D03*
%TD*%
D13*
%TO.C,C12*%
X26760000Y13550000D03*
X25800000Y13550000D03*
%TD*%
%TO.C,C13*%
X26760000Y6550000D03*
X25800000Y6550000D03*
%TD*%
D14*
%TO.C,D1*%
X25300000Y19225000D03*
X25300000Y20800000D03*
%TD*%
%TO.C,D3*%
X22300000Y19224999D03*
X22300000Y20799999D03*
%TD*%
D15*
%TO.C,J1*%
X8000000Y15550000D03*
X8000000Y14600000D03*
X8000000Y13650000D03*
X8000000Y12750000D03*
X8000000Y11850000D03*
X8000000Y10000000D03*
X8000000Y9050000D03*
X6600000Y9050000D03*
X6600000Y10000000D03*
X6600000Y10950000D03*
X6600000Y11850000D03*
X6600000Y12750000D03*
X6600000Y14600000D03*
X6600000Y15550000D03*
D16*
X9230000Y10300000D03*
X9230000Y14300000D03*
X5370000Y14300000D03*
X5370000Y10300000D03*
%TD*%
D17*
%TO.C,R1*%
X6790000Y17100000D03*
X7810000Y17100000D03*
%TD*%
D18*
%TO.C,R2*%
X14050000Y8320000D03*
X14050000Y7300000D03*
%TD*%
D19*
%TO.C,R3*%
X7810000Y7500000D03*
X6790000Y7500000D03*
%TD*%
D20*
%TO.C,R11*%
X23300000Y16800000D03*
X23300000Y17820000D03*
%TD*%
D17*
%TO.C,R12*%
X25800000Y14550000D03*
X26820000Y14550000D03*
%TD*%
%TO.C,R13*%
X25800000Y7550000D03*
X26820000Y7550000D03*
%TD*%
D20*
%TO.C,R15*%
X22300000Y16800000D03*
X22300000Y17820000D03*
%TD*%
D21*
%TO.C,SW1*%
X29300000Y15950000D03*
X29300000Y8650000D03*
%TD*%
D22*
%TO.C,U1*%
X11350000Y11162500D03*
X12300000Y11162500D03*
X13250000Y11162500D03*
X13250000Y13437500D03*
X11350000Y13437500D03*
%TD*%
D23*
%TO.C,H1*%
X2300000Y12300000D03*
%TD*%
%TO.C,H2*%
X32300000Y22300000D03*
%TD*%
%TO.C,H3*%
X32300000Y2300000D03*
%TD*%
D12*
%TO.C,C8*%
X21950000Y5820000D03*
X21950000Y6780000D03*
%TD*%
D10*
%TO.C,C11*%
X17150000Y6780000D03*
X17150000Y5820000D03*
%TD*%
D19*
%TO.C,R6*%
X26820000Y8550000D03*
X25800000Y8550000D03*
%TD*%
%TO.C,R7*%
X26819999Y9550000D03*
X25799999Y9550000D03*
%TD*%
%TO.C,R9*%
X26819999Y11800000D03*
X25799999Y11800000D03*
%TD*%
D24*
%TO.C,U2*%
X19300000Y9462500D03*
X19800000Y9462500D03*
X20300000Y9462500D03*
X20800000Y9462500D03*
X21300000Y9462500D03*
X21800000Y9462500D03*
X22300000Y9462500D03*
X22800000Y9462500D03*
X23300000Y9462500D03*
D25*
X24137500Y10300000D03*
X24137500Y10800000D03*
X24137500Y11300000D03*
X24137500Y11800000D03*
X24137500Y12300000D03*
X24137500Y12800000D03*
X24137500Y13300000D03*
X24137500Y13800000D03*
X24137500Y14300000D03*
D24*
X23300000Y15137500D03*
X22800000Y15137500D03*
X22300000Y15137500D03*
X21800000Y15137500D03*
X21300000Y15137500D03*
X20800000Y15137500D03*
X20300000Y15137500D03*
X19800000Y15137500D03*
X19300000Y15137500D03*
D25*
X18462500Y14300000D03*
X18462500Y13800000D03*
X18462500Y13300000D03*
X18462500Y12800000D03*
X18462500Y12300000D03*
X18462500Y11800000D03*
X18462500Y11300000D03*
X18462500Y10800000D03*
X18462500Y10300000D03*
D26*
X21300000Y12300000D03*
%TD*%
D27*
%TO.C,Y1*%
X18450000Y5420000D03*
X20650000Y5420000D03*
X20650000Y7180000D03*
X18450000Y7180000D03*
%TD*%
D28*
%TO.C,J3*%
X33542000Y17380000D03*
D29*
X36082000Y17380000D03*
X33542000Y14840000D03*
X36082000Y14840000D03*
X33542000Y12300000D03*
X36082000Y12300000D03*
X33542000Y9760000D03*
X36082000Y9760000D03*
X33542000Y7220000D03*
X36082000Y7220000D03*
%TD*%
D30*
%TO.C,C1*%
X11500000Y7550000D03*
X11500000Y9450000D03*
%TD*%
D31*
%TO.C,Q1*%
X16487500Y16100000D03*
X16487500Y18000000D03*
X14612500Y17050000D03*
%TD*%
D19*
%TO.C,R14*%
X16060000Y14800000D03*
X15040000Y14800000D03*
%TD*%
D17*
%TO.C,R10*%
X15040000Y13800000D03*
X16060000Y13800000D03*
%TD*%
D32*
%TO.C,C6*%
X15090000Y9300000D03*
X16050000Y9300000D03*
%TD*%
D19*
%TO.C,R4*%
X16060000Y11800000D03*
X15040000Y11800000D03*
%TD*%
%TO.C,R5*%
X16060000Y12800000D03*
X15040000Y12800000D03*
%TD*%
%TO.C,R8*%
X16060000Y10800000D03*
X15040000Y10800000D03*
%TD*%
D33*
%TO.C,J2*%
X16300000Y20300000D03*
D34*
X17570000Y20300000D03*
X18840000Y20300000D03*
X20110000Y20300000D03*
%TD*%
M02*
