%TF.GenerationSoftware,KiCad,Pcbnew,(5.1.12-1-10_14)*%
%TF.CreationDate,2022-09-08T10:24:56+08:00*%
%TF.ProjectId,0102-TILEDAP,30313032-2d54-4494-9c45-4441502e6b69,rev?*%
%TF.SameCoordinates,Original*%
%TF.FileFunction,Copper,L2,Inr*%
%TF.FilePolarity,Positive*%
%FSLAX46Y46*%
G04 Gerber Fmt 4.6, Leading zero omitted, Abs format (unit mm)*
G04 Created by KiCad (PCBNEW (5.1.12-1-10_14)) date 2022-09-08 10:24:56*
%MOMM*%
%LPD*%
G01*
G04 APERTURE LIST*
%TA.AperFunction,ComponentPad*%
%ADD10O,1.700000X1.700000*%
%TD*%
%TA.AperFunction,ComponentPad*%
%ADD11R,1.700000X1.700000*%
%TD*%
%TA.AperFunction,ComponentPad*%
%ADD12O,1.000000X1.000000*%
%TD*%
%TA.AperFunction,ComponentPad*%
%ADD13R,1.000000X1.000000*%
%TD*%
%TA.AperFunction,ComponentPad*%
%ADD14C,0.700000*%
%TD*%
%TA.AperFunction,ComponentPad*%
%ADD15O,1.200000X2.100000*%
%TD*%
%TA.AperFunction,ViaPad*%
%ADD16C,1.000000*%
%TD*%
%TA.AperFunction,ViaPad*%
%ADD17C,0.500000*%
%TD*%
%TA.AperFunction,ViaPad*%
%ADD18C,0.800000*%
%TD*%
%TA.AperFunction,ViaPad*%
%ADD19C,0.900000*%
%TD*%
%TA.AperFunction,ViaPad*%
%ADD20C,0.700000*%
%TD*%
%TA.AperFunction,Conductor*%
%ADD21C,0.254000*%
%TD*%
%TA.AperFunction,Conductor*%
%ADD22C,0.350000*%
%TD*%
%ADD23C,0.350000*%
%ADD24C,0.300000*%
%ADD25O,0.600000X1.500000*%
G04 APERTURE END LIST*
D10*
%TO.N,GND*%
%TO.C,J3*%
X36082000Y7220000D03*
%TO.N,/TGT_NRESET*%
X33542000Y7220000D03*
%TO.N,/TGT_TX*%
X36082000Y9760000D03*
%TO.N,/TGT_RX*%
X33542000Y9760000D03*
%TO.N,GND*%
X36082000Y12300000D03*
X33542000Y12300000D03*
%TO.N,+3V3*%
X36082000Y14840000D03*
%TO.N,/TGT_SWCLK*%
X33542000Y14840000D03*
%TO.N,VBUS*%
X36082000Y17380000D03*
D11*
%TO.N,/TGT_SWDIO*%
X33542000Y17380000D03*
%TD*%
D12*
%TO.N,VBUS*%
%TO.C,J2*%
X8200000Y19800000D03*
%TO.N,/IF_SWDIO*%
X6930000Y19800000D03*
%TO.N,/IF_SWCLK*%
X5660000Y19800000D03*
D13*
%TO.N,GND*%
X4390000Y19800000D03*
%TD*%
D14*
%TO.N,GND*%
%TO.C,J1*%
X6600000Y15550000D03*
%TO.N,VBUS*%
X6600000Y14600000D03*
%TO.N,/D-*%
X6600000Y12750000D03*
%TO.N,/D+*%
X6600000Y11850000D03*
%TO.N,Net-(J1-PadB5)*%
X6600000Y10950000D03*
%TO.N,VBUS*%
X6600000Y10000000D03*
%TO.N,GND*%
X6600000Y9050000D03*
X8000000Y9050000D03*
%TO.N,VBUS*%
X8000000Y10000000D03*
%TO.N,/D-*%
X8000000Y11850000D03*
%TO.N,/D+*%
X8000000Y12750000D03*
%TO.N,Net-(J1-PadA5)*%
X8000000Y13650000D03*
%TO.N,VBUS*%
X8000000Y14600000D03*
%TO.N,GND*%
X8000000Y15550000D03*
D15*
%TO.N,N/C*%
X5370000Y10300000D03*
%TO.N,Net-(J1-PadS1)*%
X9230000Y10300000D03*
X5370000Y14300000D03*
X9230000Y14300000D03*
%TD*%
D16*
%TO.N,VBUS*%
X12350000Y9050000D03*
D17*
%TO.N,GND*%
X20600000Y13000000D03*
X22000000Y13000000D03*
X22000000Y11600000D03*
X20600000Y11600000D03*
X14600000Y13100000D03*
X14600000Y13800000D03*
X10800000Y9800000D03*
X11550000Y9800000D03*
X10800000Y14800000D03*
X15300000Y17300000D03*
X15300000Y16550000D03*
X12300000Y16550000D03*
X12300000Y17300000D03*
X15300000Y7800000D03*
X15300000Y7050000D03*
X12300000Y7800000D03*
X12300000Y7050000D03*
X10800000Y15800000D03*
X7300000Y21300000D03*
X19800000Y21300000D03*
X24800000Y21300000D03*
X27300000Y21300000D03*
X29800000Y21300000D03*
X34800000Y21300000D03*
X37300000Y21300000D03*
X39800000Y21300000D03*
X41300000Y19800000D03*
X41300000Y17300000D03*
X41300000Y7300000D03*
X41300000Y4800000D03*
X39800000Y3300000D03*
X37300000Y3300000D03*
X34800000Y3300000D03*
X29800000Y3300000D03*
X27300000Y3300000D03*
X24800000Y3300000D03*
X22300000Y3300000D03*
X19800000Y3300000D03*
X17300000Y3300000D03*
X7300000Y3300000D03*
X4800000Y3300000D03*
X3300000Y4800000D03*
X3300000Y7300000D03*
X3300000Y9800000D03*
X3300000Y14800000D03*
X3300000Y17300000D03*
X3300000Y19800000D03*
X4800000Y21300000D03*
X5800000Y17300000D03*
X8800000Y7300000D03*
X5550000Y6050000D03*
X6550000Y6050000D03*
X7550000Y6050000D03*
X5550000Y5050000D03*
X6550000Y5050000D03*
X7550000Y5050000D03*
X26550000Y19550000D03*
X27550000Y19550000D03*
X28550000Y19550000D03*
X26550000Y18550000D03*
X27550000Y18550000D03*
X28550000Y18550000D03*
X38050000Y19300000D03*
X39050000Y19300000D03*
X38050000Y18300000D03*
X39050000Y18300000D03*
X30550000Y11800000D03*
X31550000Y11800000D03*
X30550000Y12800000D03*
X31550000Y12800000D03*
X30550000Y9800000D03*
X31550000Y9800000D03*
X30550000Y8800000D03*
X31550000Y8800000D03*
X29050000Y14050000D03*
X29800000Y14800000D03*
X25050000Y15800000D03*
X26050000Y15800000D03*
X22300000Y7550000D03*
X24050000Y7550000D03*
X24800000Y6550000D03*
X24300000Y15300000D03*
X16050000Y7800000D03*
X16050000Y7050000D03*
X18050000Y8300000D03*
X20800000Y4300000D03*
X22050000Y4800000D03*
X23300000Y4800000D03*
X27800000Y6550000D03*
X27800000Y9550000D03*
X19050000Y18800000D03*
X21300000Y20800000D03*
X21300000Y20050000D03*
X28800000Y6550000D03*
X27800000Y5550000D03*
X28800000Y5550000D03*
X29800000Y6550000D03*
X29800000Y5550000D03*
X31550000Y13800000D03*
D18*
%TO.N,+3V3*%
X19300000Y16800000D03*
X24300000Y16800000D03*
D19*
X12300000Y15050000D03*
D18*
X18050000Y9300000D03*
D20*
X27500000Y16100000D03*
X27800000Y8550000D03*
D18*
X15050000Y19300000D03*
X24200000Y5900000D03*
D20*
%TO.N,/TGT_USB_D+*%
X12600000Y12725000D03*
X20625000Y16600000D03*
%TO.N,/TGT_USB_D-*%
X12600000Y11875000D03*
X21475000Y16600000D03*
%TO.N,/TGT_NRESET*%
X27800000Y12800000D03*
%TO.N,/IF_NRESET*%
X25050000Y7550000D03*
X20900000Y8200000D03*
%TO.N,/IF_SWDIO*%
X19300000Y17950000D03*
%TO.N,/IF_SWCLK*%
X17600000Y15800000D03*
%TD*%
D21*
%TO.N,GND*%
X32674115Y24261188D02*
X33047924Y24151170D01*
X33393239Y23970643D01*
X33696911Y23726484D01*
X33947383Y23427984D01*
X34135100Y23086527D01*
X34252922Y22715105D01*
X34297893Y22314180D01*
X34298004Y22298285D01*
X34298007Y22297522D01*
X34299339Y22284420D01*
X34299247Y22271234D01*
X34299659Y22267038D01*
X34303739Y22228217D01*
X34309233Y22201453D01*
X34314371Y22174519D01*
X34315590Y22170482D01*
X34327133Y22133195D01*
X34337712Y22108029D01*
X34347992Y22082584D01*
X34349972Y22078861D01*
X34368537Y22044525D01*
X34383815Y22021875D01*
X34398834Y21998923D01*
X34401500Y21995655D01*
X34426381Y21965580D01*
X34445798Y21946299D01*
X34464953Y21926739D01*
X34468202Y21924051D01*
X34498451Y21899381D01*
X34521227Y21884249D01*
X34543831Y21868772D01*
X34547541Y21866766D01*
X34582005Y21848441D01*
X34607293Y21838018D01*
X34632468Y21827228D01*
X34636497Y21825981D01*
X34673864Y21814699D01*
X34700671Y21809391D01*
X34727489Y21803691D01*
X34731683Y21803250D01*
X34770530Y21799441D01*
X34770536Y21799441D01*
X34785167Y21798000D01*
X41285226Y21798000D01*
X41396447Y21787094D01*
X41489222Y21759084D01*
X41574784Y21713591D01*
X41649887Y21652339D01*
X41711662Y21577666D01*
X41757754Y21492420D01*
X41786410Y21399843D01*
X41798001Y21289563D01*
X41798000Y15260614D01*
X41350383Y15154277D01*
X41324543Y15145398D01*
X41298489Y15136850D01*
X41294641Y15135123D01*
X40814070Y14915469D01*
X40790454Y14901744D01*
X40766550Y14888295D01*
X40763111Y14885854D01*
X40334355Y14577040D01*
X40313836Y14558974D01*
X40293017Y14541152D01*
X40290118Y14538090D01*
X39929511Y14151878D01*
X39912918Y14130204D01*
X39895931Y14108645D01*
X39893682Y14105077D01*
X39614959Y13656179D01*
X39602889Y13631688D01*
X39590416Y13607247D01*
X39588903Y13603311D01*
X39402678Y13108823D01*
X39395578Y13082391D01*
X39388108Y13056056D01*
X39387388Y13051901D01*
X39300757Y12530660D01*
X39298928Y12503391D01*
X39296712Y12476068D01*
X39296813Y12471852D01*
X39313074Y11943711D01*
X39316572Y11916649D01*
X39319710Y11889373D01*
X39320628Y11885257D01*
X39439163Y11370333D01*
X39447857Y11344447D01*
X39456227Y11318318D01*
X39457927Y11314459D01*
X39674221Y10832365D01*
X39687789Y10808640D01*
X39701063Y10784656D01*
X39703480Y10781201D01*
X40009293Y10350300D01*
X40027206Y10329668D01*
X40044891Y10308713D01*
X40047933Y10305792D01*
X40431619Y9942497D01*
X40453218Y9925722D01*
X40474617Y9908617D01*
X40478168Y9906343D01*
X40925110Y9624492D01*
X40949527Y9612245D01*
X40973869Y9599608D01*
X40977795Y9598068D01*
X41470970Y9408396D01*
X41497305Y9401124D01*
X41523634Y9393457D01*
X41527784Y9392708D01*
X41798001Y9345856D01*
X41798000Y3314774D01*
X41787095Y3203553D01*
X41759084Y3110778D01*
X41713589Y3025213D01*
X41652337Y2950111D01*
X41577666Y2888338D01*
X41492422Y2842247D01*
X41399844Y2813590D01*
X41289581Y2802000D01*
X34785167Y2802000D01*
X34772422Y2800745D01*
X34771235Y2800753D01*
X34767038Y2800341D01*
X34747886Y2798328D01*
X34740798Y2797630D01*
X34740562Y2797558D01*
X34728218Y2796261D01*
X34701454Y2790767D01*
X34674519Y2785629D01*
X34670482Y2784410D01*
X34633195Y2772868D01*
X34608016Y2762283D01*
X34582585Y2752009D01*
X34578861Y2750028D01*
X34544525Y2731463D01*
X34521875Y2716185D01*
X34498923Y2701166D01*
X34495655Y2698500D01*
X34465580Y2673619D01*
X34446317Y2654221D01*
X34426738Y2635047D01*
X34424051Y2631797D01*
X34399381Y2601549D01*
X34384260Y2578788D01*
X34368772Y2556169D01*
X34366766Y2552459D01*
X34348441Y2517995D01*
X34338018Y2492707D01*
X34327228Y2467532D01*
X34325981Y2463503D01*
X34314699Y2426136D01*
X34309390Y2399322D01*
X34303691Y2372511D01*
X34303250Y2368317D01*
X34299441Y2329470D01*
X34258528Y1912201D01*
X34145905Y1539175D01*
X33962971Y1195125D01*
X33716695Y893161D01*
X33416458Y644784D01*
X33073693Y459452D01*
X32701464Y344228D01*
X32313935Y303497D01*
X31925885Y338812D01*
X31552075Y448830D01*
X31206762Y629357D01*
X30903086Y873518D01*
X30652616Y1172018D01*
X30464900Y1513474D01*
X30347078Y1884895D01*
X30302107Y2285819D01*
X30301996Y2301715D01*
X30301993Y2302478D01*
X30300661Y2315580D01*
X30300753Y2328765D01*
X30300341Y2332962D01*
X30296261Y2371782D01*
X30290767Y2398546D01*
X30285629Y2425481D01*
X30284410Y2429518D01*
X30282521Y2435623D01*
X30923000Y2435623D01*
X30923000Y2164377D01*
X30975917Y1898344D01*
X31079718Y1647746D01*
X31230414Y1422213D01*
X31422213Y1230414D01*
X31647746Y1079718D01*
X31898344Y975917D01*
X32164377Y923000D01*
X32435623Y923000D01*
X32701656Y975917D01*
X32952254Y1079718D01*
X33177787Y1230414D01*
X33369586Y1422213D01*
X33520282Y1647746D01*
X33624083Y1898344D01*
X33677000Y2164377D01*
X33677000Y2435623D01*
X33624083Y2701656D01*
X33520282Y2952254D01*
X33369586Y3177787D01*
X33177787Y3369586D01*
X32952254Y3520282D01*
X32701656Y3624083D01*
X32435623Y3677000D01*
X32164377Y3677000D01*
X31898344Y3624083D01*
X31647746Y3520282D01*
X31422213Y3369586D01*
X31230414Y3177787D01*
X31079718Y2952254D01*
X30975917Y2701656D01*
X30923000Y2435623D01*
X30282521Y2435623D01*
X30272868Y2466805D01*
X30262283Y2491984D01*
X30252009Y2517415D01*
X30250028Y2521139D01*
X30231463Y2555475D01*
X30216185Y2578125D01*
X30201166Y2601077D01*
X30198500Y2604345D01*
X30173619Y2634420D01*
X30154221Y2653683D01*
X30135047Y2673262D01*
X30131797Y2675949D01*
X30101549Y2700619D01*
X30078788Y2715740D01*
X30056169Y2731228D01*
X30052459Y2733234D01*
X30017995Y2751559D01*
X29992707Y2761982D01*
X29967532Y2772772D01*
X29963503Y2774019D01*
X29926136Y2785301D01*
X29899322Y2790610D01*
X29872511Y2796309D01*
X29868317Y2796750D01*
X29829470Y2800559D01*
X29829464Y2800559D01*
X29814833Y2802000D01*
X15260614Y2802000D01*
X15154277Y3249617D01*
X15145398Y3275457D01*
X15136850Y3301511D01*
X15135123Y3305359D01*
X14915469Y3785930D01*
X14901744Y3809546D01*
X14888295Y3833450D01*
X14885854Y3836889D01*
X14577040Y4265645D01*
X14558974Y4286164D01*
X14541152Y4306983D01*
X14538090Y4309882D01*
X14151878Y4670489D01*
X14130204Y4687082D01*
X14108645Y4704069D01*
X14105077Y4706318D01*
X13656179Y4985041D01*
X13631688Y4997111D01*
X13607247Y5009584D01*
X13603311Y5011097D01*
X13108823Y5197322D01*
X13082391Y5204422D01*
X13056056Y5211892D01*
X13051901Y5212612D01*
X12530660Y5299243D01*
X12503391Y5301072D01*
X12476068Y5303288D01*
X12471852Y5303187D01*
X12471851Y5303187D01*
X11943711Y5286926D01*
X11916649Y5283428D01*
X11889373Y5280290D01*
X11885257Y5279372D01*
X11370333Y5160837D01*
X11344435Y5152139D01*
X11318319Y5143773D01*
X11314459Y5142073D01*
X10832365Y4925779D01*
X10808640Y4912211D01*
X10784656Y4898937D01*
X10781201Y4896520D01*
X10350300Y4590707D01*
X10329705Y4572827D01*
X10308712Y4555109D01*
X10305792Y4552066D01*
X9942497Y4168381D01*
X9925722Y4146782D01*
X9908617Y4125383D01*
X9906343Y4121832D01*
X9624492Y3674890D01*
X9612245Y3650473D01*
X9599608Y3626131D01*
X9598068Y3622205D01*
X9408396Y3129030D01*
X9401127Y3102706D01*
X9393457Y3076367D01*
X9392708Y3072217D01*
X9345857Y2802000D01*
X3314774Y2802000D01*
X3203553Y2812905D01*
X3110778Y2840916D01*
X3025213Y2886411D01*
X2950111Y2947663D01*
X2888338Y3022334D01*
X2842247Y3107578D01*
X2813590Y3200156D01*
X2802000Y3310419D01*
X2802000Y5966679D01*
X23523000Y5966679D01*
X23523000Y5833321D01*
X23549016Y5702526D01*
X23600050Y5579320D01*
X23674140Y5468437D01*
X23768437Y5374140D01*
X23879320Y5300050D01*
X24002526Y5249016D01*
X24133321Y5223000D01*
X24266679Y5223000D01*
X24397474Y5249016D01*
X24520680Y5300050D01*
X24631563Y5374140D01*
X24725860Y5468437D01*
X24799950Y5579320D01*
X24850984Y5702526D01*
X24877000Y5833321D01*
X24877000Y5966679D01*
X24850984Y6097474D01*
X24799950Y6220680D01*
X24725860Y6331563D01*
X24631563Y6425860D01*
X24520680Y6499950D01*
X24397474Y6550984D01*
X24266679Y6577000D01*
X24133321Y6577000D01*
X24002526Y6550984D01*
X23879320Y6499950D01*
X23768437Y6425860D01*
X23674140Y6331563D01*
X23600050Y6220680D01*
X23549016Y6097474D01*
X23523000Y5966679D01*
X2802000Y5966679D01*
X2802000Y8261754D01*
X20273000Y8261754D01*
X20273000Y8138246D01*
X20297095Y8017111D01*
X20344360Y7903004D01*
X20412977Y7800311D01*
X20500311Y7712977D01*
X20603004Y7644360D01*
X20717111Y7597095D01*
X20838246Y7573000D01*
X20961754Y7573000D01*
X21082889Y7597095D01*
X21118278Y7611754D01*
X24423000Y7611754D01*
X24423000Y7488246D01*
X24447095Y7367111D01*
X24494360Y7253004D01*
X24562977Y7150311D01*
X24650311Y7062977D01*
X24753004Y6994360D01*
X24867111Y6947095D01*
X24988246Y6923000D01*
X25111754Y6923000D01*
X25232889Y6947095D01*
X25346996Y6994360D01*
X25449689Y7062977D01*
X25537023Y7150311D01*
X25605640Y7253004D01*
X25637947Y7331000D01*
X32415000Y7331000D01*
X32415000Y7109000D01*
X32458310Y6891266D01*
X32543266Y6686165D01*
X32666602Y6501579D01*
X32823579Y6344602D01*
X33008165Y6221266D01*
X33213266Y6136310D01*
X33431000Y6093000D01*
X33653000Y6093000D01*
X33870734Y6136310D01*
X34075835Y6221266D01*
X34260421Y6344602D01*
X34417398Y6501579D01*
X34540734Y6686165D01*
X34625690Y6891266D01*
X34631283Y6919385D01*
X34995833Y6919385D01*
X35011866Y6866508D01*
X35101391Y6664527D01*
X35228601Y6483893D01*
X35388606Y6331547D01*
X35575258Y6213344D01*
X35781384Y6133826D01*
X35955000Y6169422D01*
X35955000Y7093000D01*
X36209000Y7093000D01*
X36209000Y6169422D01*
X36382616Y6133826D01*
X36588742Y6213344D01*
X36775394Y6331547D01*
X36935399Y6483893D01*
X37062609Y6664527D01*
X37152134Y6866508D01*
X37168167Y6919385D01*
X37132098Y7093000D01*
X36209000Y7093000D01*
X35955000Y7093000D01*
X35031902Y7093000D01*
X34995833Y6919385D01*
X34631283Y6919385D01*
X34669000Y7109000D01*
X34669000Y7331000D01*
X34631284Y7520615D01*
X34995833Y7520615D01*
X35031902Y7347000D01*
X35955000Y7347000D01*
X35955000Y8270578D01*
X36209000Y8270578D01*
X36209000Y7347000D01*
X37132098Y7347000D01*
X37168167Y7520615D01*
X37152134Y7573492D01*
X37062609Y7775473D01*
X36935399Y7956107D01*
X36775394Y8108453D01*
X36588742Y8226656D01*
X36382616Y8306174D01*
X36209000Y8270578D01*
X35955000Y8270578D01*
X35781384Y8306174D01*
X35575258Y8226656D01*
X35388606Y8108453D01*
X35228601Y7956107D01*
X35101391Y7775473D01*
X35011866Y7573492D01*
X34995833Y7520615D01*
X34631284Y7520615D01*
X34625690Y7548734D01*
X34540734Y7753835D01*
X34417398Y7938421D01*
X34260421Y8095398D01*
X34075835Y8218734D01*
X33870734Y8303690D01*
X33653000Y8347000D01*
X33431000Y8347000D01*
X33213266Y8303690D01*
X33008165Y8218734D01*
X32823579Y8095398D01*
X32666602Y7938421D01*
X32543266Y7753835D01*
X32458310Y7548734D01*
X32415000Y7331000D01*
X25637947Y7331000D01*
X25652905Y7367111D01*
X25677000Y7488246D01*
X25677000Y7611754D01*
X25652905Y7732889D01*
X25605640Y7846996D01*
X25537023Y7949689D01*
X25449689Y8037023D01*
X25346996Y8105640D01*
X25232889Y8152905D01*
X25111754Y8177000D01*
X24988246Y8177000D01*
X24867111Y8152905D01*
X24753004Y8105640D01*
X24650311Y8037023D01*
X24562977Y7949689D01*
X24494360Y7846996D01*
X24447095Y7732889D01*
X24423000Y7611754D01*
X21118278Y7611754D01*
X21196996Y7644360D01*
X21299689Y7712977D01*
X21387023Y7800311D01*
X21455640Y7903004D01*
X21502905Y8017111D01*
X21527000Y8138246D01*
X21527000Y8261754D01*
X21502905Y8382889D01*
X21455640Y8496996D01*
X21387023Y8599689D01*
X21374958Y8611754D01*
X27173000Y8611754D01*
X27173000Y8488246D01*
X27197095Y8367111D01*
X27244360Y8253004D01*
X27312977Y8150311D01*
X27400311Y8062977D01*
X27503004Y7994360D01*
X27617111Y7947095D01*
X27738246Y7923000D01*
X27861754Y7923000D01*
X27982889Y7947095D01*
X28096996Y7994360D01*
X28199689Y8062977D01*
X28287023Y8150311D01*
X28355640Y8253004D01*
X28402905Y8367111D01*
X28427000Y8488246D01*
X28427000Y8611754D01*
X28402905Y8732889D01*
X28355640Y8846996D01*
X28287023Y8949689D01*
X28199689Y9037023D01*
X28096996Y9105640D01*
X27982889Y9152905D01*
X27861754Y9177000D01*
X27738246Y9177000D01*
X27617111Y9152905D01*
X27503004Y9105640D01*
X27400311Y9037023D01*
X27312977Y8949689D01*
X27244360Y8846996D01*
X27197095Y8732889D01*
X27173000Y8611754D01*
X21374958Y8611754D01*
X21299689Y8687023D01*
X21196996Y8755640D01*
X21082889Y8802905D01*
X20961754Y8827000D01*
X20838246Y8827000D01*
X20717111Y8802905D01*
X20603004Y8755640D01*
X20500311Y8687023D01*
X20412977Y8599689D01*
X20344360Y8496996D01*
X20297095Y8382889D01*
X20273000Y8261754D01*
X2802000Y8261754D01*
X2802000Y8573966D01*
X6303571Y8573966D01*
X6340022Y8476106D01*
X6456978Y8436414D01*
X6579431Y8420302D01*
X6702674Y8428389D01*
X6821971Y8460364D01*
X6859978Y8476106D01*
X6896429Y8573966D01*
X7703571Y8573966D01*
X7740022Y8476106D01*
X7856978Y8436414D01*
X7979431Y8420302D01*
X8102674Y8428389D01*
X8221971Y8460364D01*
X8259978Y8476106D01*
X8296429Y8573966D01*
X8000000Y8870395D01*
X7703571Y8573966D01*
X6896429Y8573966D01*
X6600000Y8870395D01*
X6303571Y8573966D01*
X2802000Y8573966D01*
X2802000Y9814833D01*
X2800745Y9827578D01*
X2800753Y9828765D01*
X2800341Y9832962D01*
X2798328Y9852114D01*
X2797630Y9859202D01*
X2797558Y9859438D01*
X2796261Y9871782D01*
X2790767Y9898546D01*
X2785629Y9925481D01*
X2784410Y9929518D01*
X2772868Y9966805D01*
X2762283Y9991984D01*
X2752009Y10017415D01*
X2750028Y10021139D01*
X2731463Y10055475D01*
X2716185Y10078125D01*
X2701166Y10101077D01*
X2698500Y10104345D01*
X2673619Y10134420D01*
X2654221Y10153683D01*
X2635047Y10173262D01*
X2631797Y10175949D01*
X2601549Y10200619D01*
X2578788Y10215740D01*
X2556169Y10231228D01*
X2552459Y10233234D01*
X2517995Y10251559D01*
X2492707Y10261982D01*
X2467532Y10272772D01*
X2463503Y10274019D01*
X2426136Y10285301D01*
X2399322Y10290610D01*
X2372511Y10296309D01*
X2368317Y10296750D01*
X2329470Y10300559D01*
X1912201Y10341472D01*
X1539175Y10454095D01*
X1195125Y10637029D01*
X1003789Y10793079D01*
X4493000Y10793079D01*
X4493000Y9806922D01*
X4505690Y9678079D01*
X4555838Y9512764D01*
X4637273Y9360409D01*
X4746867Y9226867D01*
X4880408Y9117273D01*
X5032763Y9035838D01*
X5198078Y8985690D01*
X5370000Y8968757D01*
X5541921Y8985690D01*
X5707236Y9035838D01*
X5859591Y9117273D01*
X5993133Y9226867D01*
X6001262Y9236772D01*
X5986414Y9193022D01*
X5970302Y9070569D01*
X5978389Y8947326D01*
X6010364Y8828029D01*
X6026106Y8790022D01*
X6123966Y8753571D01*
X6420395Y9050000D01*
X6779605Y9050000D01*
X7076034Y8753571D01*
X7173894Y8790022D01*
X7213586Y8906978D01*
X7229698Y9029431D01*
X7226999Y9070569D01*
X7370302Y9070569D01*
X7378389Y8947326D01*
X7410364Y8828029D01*
X7426106Y8790022D01*
X7523966Y8753571D01*
X7820395Y9050000D01*
X7523966Y9346429D01*
X7426106Y9309978D01*
X7386414Y9193022D01*
X7370302Y9070569D01*
X7226999Y9070569D01*
X7221611Y9152674D01*
X7189636Y9271971D01*
X7173894Y9309978D01*
X7076034Y9346429D01*
X6779605Y9050000D01*
X6420395Y9050000D01*
X6406253Y9064142D01*
X6585858Y9243747D01*
X6600000Y9229605D01*
X6763666Y9393271D01*
X6782889Y9397095D01*
X6896996Y9444360D01*
X6999689Y9512977D01*
X7087023Y9600311D01*
X7155640Y9703004D01*
X7202905Y9817111D01*
X7227000Y9938246D01*
X7227000Y10061754D01*
X7373000Y10061754D01*
X7373000Y9938246D01*
X7397095Y9817111D01*
X7444360Y9703004D01*
X7512977Y9600311D01*
X7600311Y9512977D01*
X7703004Y9444360D01*
X7817111Y9397095D01*
X7836334Y9393271D01*
X8000000Y9229605D01*
X8014143Y9243747D01*
X8193748Y9064142D01*
X8179605Y9050000D01*
X8476034Y8753571D01*
X8573894Y8790022D01*
X8613586Y8906978D01*
X8629698Y9029431D01*
X8621611Y9152674D01*
X8599231Y9236171D01*
X8606867Y9226867D01*
X8740408Y9117273D01*
X8892763Y9035838D01*
X9058078Y8985690D01*
X9230000Y8968757D01*
X9401921Y8985690D01*
X9567236Y9035838D01*
X9719591Y9117273D01*
X9730868Y9126528D01*
X11573000Y9126528D01*
X11573000Y8973472D01*
X11602859Y8823357D01*
X11661431Y8681952D01*
X11746464Y8554691D01*
X11854691Y8446464D01*
X11981952Y8361431D01*
X12123357Y8302859D01*
X12273472Y8273000D01*
X12426528Y8273000D01*
X12576643Y8302859D01*
X12718048Y8361431D01*
X12845309Y8446464D01*
X12953536Y8554691D01*
X13038569Y8681952D01*
X13097141Y8823357D01*
X13127000Y8973472D01*
X13127000Y9126528D01*
X13097141Y9276643D01*
X13059847Y9366679D01*
X17373000Y9366679D01*
X17373000Y9233321D01*
X17399016Y9102526D01*
X17450050Y8979320D01*
X17524140Y8868437D01*
X17618437Y8774140D01*
X17729320Y8700050D01*
X17852526Y8649016D01*
X17983321Y8623000D01*
X18116679Y8623000D01*
X18247474Y8649016D01*
X18370680Y8700050D01*
X18481563Y8774140D01*
X18575860Y8868437D01*
X18649950Y8979320D01*
X18700984Y9102526D01*
X18727000Y9233321D01*
X18727000Y9366679D01*
X18700984Y9497474D01*
X18649950Y9620680D01*
X18575860Y9731563D01*
X18481563Y9825860D01*
X18414007Y9871000D01*
X32415000Y9871000D01*
X32415000Y9649000D01*
X32458310Y9431266D01*
X32543266Y9226165D01*
X32666602Y9041579D01*
X32823579Y8884602D01*
X33008165Y8761266D01*
X33213266Y8676310D01*
X33431000Y8633000D01*
X33653000Y8633000D01*
X33870734Y8676310D01*
X34075835Y8761266D01*
X34260421Y8884602D01*
X34417398Y9041579D01*
X34540734Y9226165D01*
X34625690Y9431266D01*
X34669000Y9649000D01*
X34669000Y9871000D01*
X34955000Y9871000D01*
X34955000Y9649000D01*
X34998310Y9431266D01*
X35083266Y9226165D01*
X35206602Y9041579D01*
X35363579Y8884602D01*
X35548165Y8761266D01*
X35753266Y8676310D01*
X35971000Y8633000D01*
X36193000Y8633000D01*
X36410734Y8676310D01*
X36615835Y8761266D01*
X36800421Y8884602D01*
X36957398Y9041579D01*
X37080734Y9226165D01*
X37165690Y9431266D01*
X37209000Y9649000D01*
X37209000Y9871000D01*
X37165690Y10088734D01*
X37080734Y10293835D01*
X36957398Y10478421D01*
X36800421Y10635398D01*
X36615835Y10758734D01*
X36410734Y10843690D01*
X36193000Y10887000D01*
X35971000Y10887000D01*
X35753266Y10843690D01*
X35548165Y10758734D01*
X35363579Y10635398D01*
X35206602Y10478421D01*
X35083266Y10293835D01*
X34998310Y10088734D01*
X34955000Y9871000D01*
X34669000Y9871000D01*
X34625690Y10088734D01*
X34540734Y10293835D01*
X34417398Y10478421D01*
X34260421Y10635398D01*
X34075835Y10758734D01*
X33870734Y10843690D01*
X33653000Y10887000D01*
X33431000Y10887000D01*
X33213266Y10843690D01*
X33008165Y10758734D01*
X32823579Y10635398D01*
X32666602Y10478421D01*
X32543266Y10293835D01*
X32458310Y10088734D01*
X32415000Y9871000D01*
X18414007Y9871000D01*
X18370680Y9899950D01*
X18247474Y9950984D01*
X18116679Y9977000D01*
X17983321Y9977000D01*
X17852526Y9950984D01*
X17729320Y9899950D01*
X17618437Y9825860D01*
X17524140Y9731563D01*
X17450050Y9620680D01*
X17399016Y9497474D01*
X17373000Y9366679D01*
X13059847Y9366679D01*
X13038569Y9418048D01*
X12953536Y9545309D01*
X12845309Y9653536D01*
X12718048Y9738569D01*
X12576643Y9797141D01*
X12426528Y9827000D01*
X12273472Y9827000D01*
X12123357Y9797141D01*
X11981952Y9738569D01*
X11854691Y9653536D01*
X11746464Y9545309D01*
X11661431Y9418048D01*
X11602859Y9276643D01*
X11573000Y9126528D01*
X9730868Y9126528D01*
X9853133Y9226867D01*
X9962727Y9360408D01*
X10044162Y9512763D01*
X10094310Y9678078D01*
X10107000Y9806921D01*
X10107000Y10793079D01*
X10094310Y10921922D01*
X10044162Y11087237D01*
X9962727Y11239592D01*
X9853133Y11373133D01*
X9719592Y11482727D01*
X9567237Y11564162D01*
X9401922Y11614310D01*
X9230000Y11631243D01*
X9058079Y11614310D01*
X8892764Y11564162D01*
X8740409Y11482727D01*
X8606868Y11373133D01*
X8497274Y11239592D01*
X8415839Y11087237D01*
X8365691Y10921922D01*
X8353000Y10793079D01*
X8353000Y10518219D01*
X8296996Y10555640D01*
X8182889Y10602905D01*
X8061754Y10627000D01*
X7938246Y10627000D01*
X7817111Y10602905D01*
X7703004Y10555640D01*
X7600311Y10487023D01*
X7512977Y10399689D01*
X7444360Y10296996D01*
X7397095Y10182889D01*
X7373000Y10061754D01*
X7227000Y10061754D01*
X7202905Y10182889D01*
X7155640Y10296996D01*
X7087023Y10399689D01*
X7011712Y10475000D01*
X7087023Y10550311D01*
X7155640Y10653004D01*
X7202905Y10767111D01*
X7227000Y10888246D01*
X7227000Y11011754D01*
X7202905Y11132889D01*
X7155640Y11246996D01*
X7087023Y11349689D01*
X7036712Y11400000D01*
X7087023Y11450311D01*
X7155640Y11553004D01*
X7202905Y11667111D01*
X7227000Y11788246D01*
X7227000Y11911754D01*
X7202905Y12032889D01*
X7155640Y12146996D01*
X7087023Y12249689D01*
X7036712Y12300000D01*
X7087023Y12350311D01*
X7155640Y12453004D01*
X7202905Y12567111D01*
X7227000Y12688246D01*
X7227000Y12811754D01*
X7202905Y12932889D01*
X7155640Y13046996D01*
X7087023Y13149689D01*
X6999689Y13237023D01*
X6896996Y13305640D01*
X6782889Y13352905D01*
X6661754Y13377000D01*
X6538246Y13377000D01*
X6417111Y13352905D01*
X6303004Y13305640D01*
X6200311Y13237023D01*
X6112977Y13149689D01*
X6044360Y13046996D01*
X5997095Y12932889D01*
X5973000Y12811754D01*
X5973000Y12688246D01*
X5997095Y12567111D01*
X6044360Y12453004D01*
X6112977Y12350311D01*
X6163288Y12300000D01*
X6112977Y12249689D01*
X6044360Y12146996D01*
X5997095Y12032889D01*
X5973000Y11911754D01*
X5973000Y11788246D01*
X5997095Y11667111D01*
X6044360Y11553004D01*
X6112977Y11450311D01*
X6163288Y11400000D01*
X6112977Y11349689D01*
X6067827Y11282117D01*
X5993133Y11373133D01*
X5859592Y11482727D01*
X5707237Y11564162D01*
X5541922Y11614310D01*
X5370000Y11631243D01*
X5198079Y11614310D01*
X5032764Y11564162D01*
X4880409Y11482727D01*
X4746868Y11373133D01*
X4637274Y11239592D01*
X4555839Y11087237D01*
X4505691Y10921922D01*
X4493000Y10793079D01*
X1003789Y10793079D01*
X893161Y10883305D01*
X644784Y11183542D01*
X459452Y11526307D01*
X344228Y11898536D01*
X303497Y12286064D01*
X317107Y12435623D01*
X923000Y12435623D01*
X923000Y12164377D01*
X975917Y11898344D01*
X1079718Y11647746D01*
X1230414Y11422213D01*
X1422213Y11230414D01*
X1647746Y11079718D01*
X1898344Y10975917D01*
X2164377Y10923000D01*
X2435623Y10923000D01*
X2701656Y10975917D01*
X2952254Y11079718D01*
X3177787Y11230414D01*
X3369586Y11422213D01*
X3520282Y11647746D01*
X3624083Y11898344D01*
X3677000Y12164377D01*
X3677000Y12435623D01*
X3624083Y12701656D01*
X3520282Y12952254D01*
X3369586Y13177787D01*
X3177787Y13369586D01*
X2952254Y13520282D01*
X2701656Y13624083D01*
X2435623Y13677000D01*
X2164377Y13677000D01*
X1898344Y13624083D01*
X1647746Y13520282D01*
X1422213Y13369586D01*
X1230414Y13177787D01*
X1079718Y12952254D01*
X975917Y12701656D01*
X923000Y12435623D01*
X317107Y12435623D01*
X338812Y12674115D01*
X448830Y13047924D01*
X629357Y13393239D01*
X873516Y13696911D01*
X1172016Y13947383D01*
X1513473Y14135100D01*
X1884895Y14252922D01*
X2285820Y14297893D01*
X2301715Y14298004D01*
X2302478Y14298007D01*
X2315580Y14299339D01*
X2328766Y14299247D01*
X2332962Y14299659D01*
X2371783Y14303739D01*
X2398547Y14309233D01*
X2425481Y14314371D01*
X2429518Y14315590D01*
X2466805Y14327133D01*
X2491971Y14337712D01*
X2517416Y14347992D01*
X2521139Y14349972D01*
X2555475Y14368537D01*
X2578125Y14383815D01*
X2601077Y14398834D01*
X2604345Y14401500D01*
X2634420Y14426381D01*
X2653701Y14445798D01*
X2673261Y14464953D01*
X2675949Y14468202D01*
X2700619Y14498451D01*
X2715751Y14521227D01*
X2731228Y14543831D01*
X2733234Y14547541D01*
X2751559Y14582005D01*
X2761982Y14607293D01*
X2772772Y14632468D01*
X2774019Y14636497D01*
X2785301Y14673864D01*
X2790609Y14700671D01*
X2796309Y14727489D01*
X2796750Y14731683D01*
X2800559Y14770530D01*
X2800559Y14770536D01*
X2802000Y14785167D01*
X2802000Y14793079D01*
X4493000Y14793079D01*
X4493000Y13806922D01*
X4505690Y13678079D01*
X4555838Y13512764D01*
X4637273Y13360409D01*
X4746867Y13226867D01*
X4880408Y13117273D01*
X5032763Y13035838D01*
X5198078Y12985690D01*
X5370000Y12968757D01*
X5541921Y12985690D01*
X5707236Y13035838D01*
X5859591Y13117273D01*
X5993133Y13226867D01*
X6102727Y13360408D01*
X6184162Y13512763D01*
X6234310Y13678078D01*
X6247000Y13806921D01*
X6247000Y14081781D01*
X6303004Y14044360D01*
X6417111Y13997095D01*
X6538246Y13973000D01*
X6661754Y13973000D01*
X6782889Y13997095D01*
X6896996Y14044360D01*
X6999689Y14112977D01*
X7087023Y14200311D01*
X7155640Y14303004D01*
X7202905Y14417111D01*
X7227000Y14538246D01*
X7227000Y14661754D01*
X7373000Y14661754D01*
X7373000Y14538246D01*
X7397095Y14417111D01*
X7444360Y14303004D01*
X7512977Y14200311D01*
X7588288Y14125000D01*
X7512977Y14049689D01*
X7444360Y13946996D01*
X7397095Y13832889D01*
X7373000Y13711754D01*
X7373000Y13588246D01*
X7397095Y13467111D01*
X7444360Y13353004D01*
X7512977Y13250311D01*
X7563288Y13200000D01*
X7512977Y13149689D01*
X7444360Y13046996D01*
X7397095Y12932889D01*
X7373000Y12811754D01*
X7373000Y12688246D01*
X7397095Y12567111D01*
X7444360Y12453004D01*
X7512977Y12350311D01*
X7563288Y12300000D01*
X7512977Y12249689D01*
X7444360Y12146996D01*
X7397095Y12032889D01*
X7373000Y11911754D01*
X7373000Y11788246D01*
X7397095Y11667111D01*
X7444360Y11553004D01*
X7512977Y11450311D01*
X7600311Y11362977D01*
X7703004Y11294360D01*
X7817111Y11247095D01*
X7938246Y11223000D01*
X8061754Y11223000D01*
X8182889Y11247095D01*
X8296996Y11294360D01*
X8399689Y11362977D01*
X8487023Y11450311D01*
X8555640Y11553004D01*
X8602905Y11667111D01*
X8627000Y11788246D01*
X8627000Y11911754D01*
X8602905Y12032889D01*
X8555640Y12146996D01*
X8487023Y12249689D01*
X8436712Y12300000D01*
X8487023Y12350311D01*
X8555640Y12453004D01*
X8602905Y12567111D01*
X8627000Y12688246D01*
X8627000Y12786754D01*
X11973000Y12786754D01*
X11973000Y12663246D01*
X11997095Y12542111D01*
X12044360Y12428004D01*
X12112977Y12325311D01*
X12138288Y12300000D01*
X12112977Y12274689D01*
X12044360Y12171996D01*
X11997095Y12057889D01*
X11973000Y11936754D01*
X11973000Y11813246D01*
X11997095Y11692111D01*
X12044360Y11578004D01*
X12112977Y11475311D01*
X12200311Y11387977D01*
X12303004Y11319360D01*
X12417111Y11272095D01*
X12538246Y11248000D01*
X12661754Y11248000D01*
X12782889Y11272095D01*
X12896996Y11319360D01*
X12999689Y11387977D01*
X13087023Y11475311D01*
X13155640Y11578004D01*
X13202905Y11692111D01*
X13227000Y11813246D01*
X13227000Y11936754D01*
X13214543Y11999385D01*
X32455833Y11999385D01*
X32471866Y11946508D01*
X32561391Y11744527D01*
X32688601Y11563893D01*
X32848606Y11411547D01*
X33035258Y11293344D01*
X33241384Y11213826D01*
X33415000Y11249422D01*
X33415000Y12173000D01*
X33669000Y12173000D01*
X33669000Y11249422D01*
X33842616Y11213826D01*
X34048742Y11293344D01*
X34235394Y11411547D01*
X34395399Y11563893D01*
X34522609Y11744527D01*
X34612134Y11946508D01*
X34628167Y11999385D01*
X34995833Y11999385D01*
X35011866Y11946508D01*
X35101391Y11744527D01*
X35228601Y11563893D01*
X35388606Y11411547D01*
X35575258Y11293344D01*
X35781384Y11213826D01*
X35955000Y11249422D01*
X35955000Y12173000D01*
X36209000Y12173000D01*
X36209000Y11249422D01*
X36382616Y11213826D01*
X36588742Y11293344D01*
X36775394Y11411547D01*
X36935399Y11563893D01*
X37062609Y11744527D01*
X37152134Y11946508D01*
X37168167Y11999385D01*
X37132098Y12173000D01*
X36209000Y12173000D01*
X35955000Y12173000D01*
X35031902Y12173000D01*
X34995833Y11999385D01*
X34628167Y11999385D01*
X34592098Y12173000D01*
X33669000Y12173000D01*
X33415000Y12173000D01*
X32491902Y12173000D01*
X32455833Y11999385D01*
X13214543Y11999385D01*
X13202905Y12057889D01*
X13155640Y12171996D01*
X13087023Y12274689D01*
X13061712Y12300000D01*
X13087023Y12325311D01*
X13155640Y12428004D01*
X13202905Y12542111D01*
X13227000Y12663246D01*
X13227000Y12786754D01*
X13212082Y12861754D01*
X27173000Y12861754D01*
X27173000Y12738246D01*
X27197095Y12617111D01*
X27244360Y12503004D01*
X27312977Y12400311D01*
X27400311Y12312977D01*
X27503004Y12244360D01*
X27617111Y12197095D01*
X27738246Y12173000D01*
X27861754Y12173000D01*
X27982889Y12197095D01*
X28096996Y12244360D01*
X28199689Y12312977D01*
X28287023Y12400311D01*
X28355640Y12503004D01*
X28396072Y12600615D01*
X32455833Y12600615D01*
X32491902Y12427000D01*
X33415000Y12427000D01*
X33415000Y13350578D01*
X33669000Y13350578D01*
X33669000Y12427000D01*
X34592098Y12427000D01*
X34628167Y12600615D01*
X34995833Y12600615D01*
X35031902Y12427000D01*
X35955000Y12427000D01*
X35955000Y13350578D01*
X36209000Y13350578D01*
X36209000Y12427000D01*
X37132098Y12427000D01*
X37168167Y12600615D01*
X37152134Y12653492D01*
X37062609Y12855473D01*
X36935399Y13036107D01*
X36775394Y13188453D01*
X36588742Y13306656D01*
X36382616Y13386174D01*
X36209000Y13350578D01*
X35955000Y13350578D01*
X35781384Y13386174D01*
X35575258Y13306656D01*
X35388606Y13188453D01*
X35228601Y13036107D01*
X35101391Y12855473D01*
X35011866Y12653492D01*
X34995833Y12600615D01*
X34628167Y12600615D01*
X34612134Y12653492D01*
X34522609Y12855473D01*
X34395399Y13036107D01*
X34235394Y13188453D01*
X34048742Y13306656D01*
X33842616Y13386174D01*
X33669000Y13350578D01*
X33415000Y13350578D01*
X33241384Y13386174D01*
X33035258Y13306656D01*
X32848606Y13188453D01*
X32688601Y13036107D01*
X32561391Y12855473D01*
X32471866Y12653492D01*
X32455833Y12600615D01*
X28396072Y12600615D01*
X28402905Y12617111D01*
X28427000Y12738246D01*
X28427000Y12861754D01*
X28402905Y12982889D01*
X28355640Y13096996D01*
X28287023Y13199689D01*
X28199689Y13287023D01*
X28096996Y13355640D01*
X27982889Y13402905D01*
X27861754Y13427000D01*
X27738246Y13427000D01*
X27617111Y13402905D01*
X27503004Y13355640D01*
X27400311Y13287023D01*
X27312977Y13199689D01*
X27244360Y13096996D01*
X27197095Y12982889D01*
X27173000Y12861754D01*
X13212082Y12861754D01*
X13202905Y12907889D01*
X13155640Y13021996D01*
X13087023Y13124689D01*
X12999689Y13212023D01*
X12896996Y13280640D01*
X12782889Y13327905D01*
X12661754Y13352000D01*
X12538246Y13352000D01*
X12417111Y13327905D01*
X12303004Y13280640D01*
X12200311Y13212023D01*
X12112977Y13124689D01*
X12044360Y13021996D01*
X11997095Y12907889D01*
X11973000Y12786754D01*
X8627000Y12786754D01*
X8627000Y12811754D01*
X8602905Y12932889D01*
X8555640Y13046996D01*
X8487023Y13149689D01*
X8436712Y13200000D01*
X8487023Y13250311D01*
X8532173Y13317883D01*
X8606867Y13226867D01*
X8740408Y13117273D01*
X8892763Y13035838D01*
X9058078Y12985690D01*
X9230000Y12968757D01*
X9401921Y12985690D01*
X9567236Y13035838D01*
X9719591Y13117273D01*
X9853133Y13226867D01*
X9962727Y13360408D01*
X10044162Y13512763D01*
X10094310Y13678078D01*
X10107000Y13806921D01*
X10107000Y14793079D01*
X10094310Y14921922D01*
X10044162Y15087237D01*
X10025794Y15121603D01*
X11573000Y15121603D01*
X11573000Y14978397D01*
X11600938Y14837942D01*
X11655741Y14705636D01*
X11735302Y14586564D01*
X11836564Y14485302D01*
X11955636Y14405741D01*
X12087942Y14350938D01*
X12228397Y14323000D01*
X12371603Y14323000D01*
X12512058Y14350938D01*
X12644364Y14405741D01*
X12763436Y14485302D01*
X12864698Y14586564D01*
X12944259Y14705636D01*
X12999062Y14837942D01*
X13021550Y14951000D01*
X32415000Y14951000D01*
X32415000Y14729000D01*
X32458310Y14511266D01*
X32543266Y14306165D01*
X32666602Y14121579D01*
X32823579Y13964602D01*
X33008165Y13841266D01*
X33213266Y13756310D01*
X33431000Y13713000D01*
X33653000Y13713000D01*
X33870734Y13756310D01*
X34075835Y13841266D01*
X34260421Y13964602D01*
X34417398Y14121579D01*
X34540734Y14306165D01*
X34625690Y14511266D01*
X34669000Y14729000D01*
X34669000Y14951000D01*
X34955000Y14951000D01*
X34955000Y14729000D01*
X34998310Y14511266D01*
X35083266Y14306165D01*
X35206602Y14121579D01*
X35363579Y13964602D01*
X35548165Y13841266D01*
X35753266Y13756310D01*
X35971000Y13713000D01*
X36193000Y13713000D01*
X36410734Y13756310D01*
X36615835Y13841266D01*
X36800421Y13964602D01*
X36957398Y14121579D01*
X37080734Y14306165D01*
X37165690Y14511266D01*
X37209000Y14729000D01*
X37209000Y14951000D01*
X37165690Y15168734D01*
X37080734Y15373835D01*
X36957398Y15558421D01*
X36800421Y15715398D01*
X36615835Y15838734D01*
X36410734Y15923690D01*
X36193000Y15967000D01*
X35971000Y15967000D01*
X35753266Y15923690D01*
X35548165Y15838734D01*
X35363579Y15715398D01*
X35206602Y15558421D01*
X35083266Y15373835D01*
X34998310Y15168734D01*
X34955000Y14951000D01*
X34669000Y14951000D01*
X34625690Y15168734D01*
X34540734Y15373835D01*
X34417398Y15558421D01*
X34260421Y15715398D01*
X34075835Y15838734D01*
X33870734Y15923690D01*
X33653000Y15967000D01*
X33431000Y15967000D01*
X33213266Y15923690D01*
X33008165Y15838734D01*
X32823579Y15715398D01*
X32666602Y15558421D01*
X32543266Y15373835D01*
X32458310Y15168734D01*
X32415000Y14951000D01*
X13021550Y14951000D01*
X13027000Y14978397D01*
X13027000Y15121603D01*
X12999062Y15262058D01*
X12944259Y15394364D01*
X12864698Y15513436D01*
X12763436Y15614698D01*
X12644364Y15694259D01*
X12512058Y15749062D01*
X12371603Y15777000D01*
X12228397Y15777000D01*
X12087942Y15749062D01*
X11955636Y15694259D01*
X11836564Y15614698D01*
X11735302Y15513436D01*
X11655741Y15394364D01*
X11600938Y15262058D01*
X11573000Y15121603D01*
X10025794Y15121603D01*
X9962727Y15239592D01*
X9853133Y15373133D01*
X9719592Y15482727D01*
X9567237Y15564162D01*
X9401922Y15614310D01*
X9230000Y15631243D01*
X9058079Y15614310D01*
X8892764Y15564162D01*
X8740409Y15482727D01*
X8606868Y15373133D01*
X8598738Y15363226D01*
X8613586Y15406978D01*
X8629698Y15529431D01*
X8621611Y15652674D01*
X8589636Y15771971D01*
X8573894Y15809978D01*
X8476034Y15846429D01*
X8179605Y15550000D01*
X8193748Y15535857D01*
X8014143Y15356252D01*
X8000000Y15370395D01*
X7836334Y15206729D01*
X7817111Y15202905D01*
X7703004Y15155640D01*
X7600311Y15087023D01*
X7512977Y14999689D01*
X7444360Y14896996D01*
X7397095Y14782889D01*
X7373000Y14661754D01*
X7227000Y14661754D01*
X7202905Y14782889D01*
X7155640Y14896996D01*
X7087023Y14999689D01*
X6999689Y15087023D01*
X6896996Y15155640D01*
X6782889Y15202905D01*
X6763666Y15206729D01*
X6600000Y15370395D01*
X6585858Y15356252D01*
X6406253Y15535857D01*
X6420395Y15550000D01*
X6779605Y15550000D01*
X7076034Y15253571D01*
X7173894Y15290022D01*
X7213586Y15406978D01*
X7229698Y15529431D01*
X7226999Y15570569D01*
X7370302Y15570569D01*
X7378389Y15447326D01*
X7410364Y15328029D01*
X7426106Y15290022D01*
X7523966Y15253571D01*
X7820395Y15550000D01*
X7523966Y15846429D01*
X7426106Y15809978D01*
X7386414Y15693022D01*
X7370302Y15570569D01*
X7226999Y15570569D01*
X7221611Y15652674D01*
X7189636Y15771971D01*
X7173894Y15809978D01*
X7076034Y15846429D01*
X6779605Y15550000D01*
X6420395Y15550000D01*
X6123966Y15846429D01*
X6026106Y15809978D01*
X5986414Y15693022D01*
X5970302Y15570569D01*
X5978389Y15447326D01*
X6000769Y15363829D01*
X5993133Y15373133D01*
X5859592Y15482727D01*
X5707237Y15564162D01*
X5541922Y15614310D01*
X5370000Y15631243D01*
X5198079Y15614310D01*
X5032764Y15564162D01*
X4880409Y15482727D01*
X4746868Y15373133D01*
X4637274Y15239592D01*
X4555839Y15087237D01*
X4505691Y14921922D01*
X4493000Y14793079D01*
X2802000Y14793079D01*
X2802000Y16026034D01*
X6303571Y16026034D01*
X6600000Y15729605D01*
X6896429Y16026034D01*
X7703571Y16026034D01*
X8000000Y15729605D01*
X8132149Y15861754D01*
X16973000Y15861754D01*
X16973000Y15738246D01*
X16997095Y15617111D01*
X17044360Y15503004D01*
X17112977Y15400311D01*
X17200311Y15312977D01*
X17303004Y15244360D01*
X17417111Y15197095D01*
X17538246Y15173000D01*
X17661754Y15173000D01*
X17782889Y15197095D01*
X17896996Y15244360D01*
X17999689Y15312977D01*
X18087023Y15400311D01*
X18155640Y15503004D01*
X18202905Y15617111D01*
X18227000Y15738246D01*
X18227000Y15861754D01*
X18202905Y15982889D01*
X18155640Y16096996D01*
X18087023Y16199689D01*
X17999689Y16287023D01*
X17896996Y16355640D01*
X17782889Y16402905D01*
X17661754Y16427000D01*
X17538246Y16427000D01*
X17417111Y16402905D01*
X17303004Y16355640D01*
X17200311Y16287023D01*
X17112977Y16199689D01*
X17044360Y16096996D01*
X16997095Y15982889D01*
X16973000Y15861754D01*
X8132149Y15861754D01*
X8296429Y16026034D01*
X8259978Y16123894D01*
X8143022Y16163586D01*
X8020569Y16179698D01*
X7897326Y16171611D01*
X7778029Y16139636D01*
X7740022Y16123894D01*
X7703571Y16026034D01*
X6896429Y16026034D01*
X6859978Y16123894D01*
X6743022Y16163586D01*
X6620569Y16179698D01*
X6497326Y16171611D01*
X6378029Y16139636D01*
X6340022Y16123894D01*
X6303571Y16026034D01*
X2802000Y16026034D01*
X2802000Y16866679D01*
X18623000Y16866679D01*
X18623000Y16733321D01*
X18649016Y16602526D01*
X18700050Y16479320D01*
X18774140Y16368437D01*
X18868437Y16274140D01*
X18979320Y16200050D01*
X19102526Y16149016D01*
X19233321Y16123000D01*
X19366679Y16123000D01*
X19497474Y16149016D01*
X19620680Y16200050D01*
X19731563Y16274140D01*
X19825860Y16368437D01*
X19899950Y16479320D01*
X19950984Y16602526D01*
X19962764Y16661754D01*
X19998000Y16661754D01*
X19998000Y16538246D01*
X20022095Y16417111D01*
X20069360Y16303004D01*
X20137977Y16200311D01*
X20225311Y16112977D01*
X20328004Y16044360D01*
X20442111Y15997095D01*
X20563246Y15973000D01*
X20686754Y15973000D01*
X20807889Y15997095D01*
X20921996Y16044360D01*
X21024689Y16112977D01*
X21050000Y16138288D01*
X21075311Y16112977D01*
X21178004Y16044360D01*
X21292111Y15997095D01*
X21413246Y15973000D01*
X21536754Y15973000D01*
X21657889Y15997095D01*
X21771996Y16044360D01*
X21874689Y16112977D01*
X21962023Y16200311D01*
X22030640Y16303004D01*
X22077905Y16417111D01*
X22102000Y16538246D01*
X22102000Y16661754D01*
X22077905Y16782889D01*
X22043198Y16866679D01*
X23623000Y16866679D01*
X23623000Y16733321D01*
X23649016Y16602526D01*
X23700050Y16479320D01*
X23774140Y16368437D01*
X23868437Y16274140D01*
X23979320Y16200050D01*
X24102526Y16149016D01*
X24233321Y16123000D01*
X24366679Y16123000D01*
X24497474Y16149016D01*
X24528226Y16161754D01*
X26873000Y16161754D01*
X26873000Y16038246D01*
X26897095Y15917111D01*
X26944360Y15803004D01*
X27012977Y15700311D01*
X27100311Y15612977D01*
X27203004Y15544360D01*
X27317111Y15497095D01*
X27438246Y15473000D01*
X27561754Y15473000D01*
X27682889Y15497095D01*
X27796996Y15544360D01*
X27899689Y15612977D01*
X27987023Y15700311D01*
X28055640Y15803004D01*
X28102905Y15917111D01*
X28127000Y16038246D01*
X28127000Y16161754D01*
X28102905Y16282889D01*
X28055640Y16396996D01*
X27987023Y16499689D01*
X27899689Y16587023D01*
X27796996Y16655640D01*
X27682889Y16702905D01*
X27561754Y16727000D01*
X27438246Y16727000D01*
X27317111Y16702905D01*
X27203004Y16655640D01*
X27100311Y16587023D01*
X27012977Y16499689D01*
X26944360Y16396996D01*
X26897095Y16282889D01*
X26873000Y16161754D01*
X24528226Y16161754D01*
X24620680Y16200050D01*
X24731563Y16274140D01*
X24825860Y16368437D01*
X24899950Y16479320D01*
X24950984Y16602526D01*
X24977000Y16733321D01*
X24977000Y16866679D01*
X24950984Y16997474D01*
X24899950Y17120680D01*
X24825860Y17231563D01*
X24731563Y17325860D01*
X24620680Y17399950D01*
X24497474Y17450984D01*
X24366679Y17477000D01*
X24233321Y17477000D01*
X24102526Y17450984D01*
X23979320Y17399950D01*
X23868437Y17325860D01*
X23774140Y17231563D01*
X23700050Y17120680D01*
X23649016Y16997474D01*
X23623000Y16866679D01*
X22043198Y16866679D01*
X22030640Y16896996D01*
X21962023Y16999689D01*
X21874689Y17087023D01*
X21771996Y17155640D01*
X21657889Y17202905D01*
X21536754Y17227000D01*
X21413246Y17227000D01*
X21292111Y17202905D01*
X21178004Y17155640D01*
X21075311Y17087023D01*
X21050000Y17061712D01*
X21024689Y17087023D01*
X20921996Y17155640D01*
X20807889Y17202905D01*
X20686754Y17227000D01*
X20563246Y17227000D01*
X20442111Y17202905D01*
X20328004Y17155640D01*
X20225311Y17087023D01*
X20137977Y16999689D01*
X20069360Y16896996D01*
X20022095Y16782889D01*
X19998000Y16661754D01*
X19962764Y16661754D01*
X19977000Y16733321D01*
X19977000Y16866679D01*
X19950984Y16997474D01*
X19899950Y17120680D01*
X19825860Y17231563D01*
X19731563Y17325860D01*
X19620680Y17399950D01*
X19611224Y17403867D01*
X19699689Y17462977D01*
X19787023Y17550311D01*
X19855640Y17653004D01*
X19902905Y17767111D01*
X19927000Y17888246D01*
X19927000Y18011754D01*
X19902905Y18132889D01*
X19862681Y18230000D01*
X32413660Y18230000D01*
X32413660Y16530000D01*
X32419008Y16475699D01*
X32434847Y16423484D01*
X32460569Y16375363D01*
X32495184Y16333184D01*
X32537363Y16298569D01*
X32585484Y16272847D01*
X32637699Y16257008D01*
X32692000Y16251660D01*
X34392000Y16251660D01*
X34446301Y16257008D01*
X34498516Y16272847D01*
X34546637Y16298569D01*
X34588816Y16333184D01*
X34623431Y16375363D01*
X34649153Y16423484D01*
X34664992Y16475699D01*
X34670340Y16530000D01*
X34670340Y17491000D01*
X34955000Y17491000D01*
X34955000Y17269000D01*
X34998310Y17051266D01*
X35083266Y16846165D01*
X35206602Y16661579D01*
X35363579Y16504602D01*
X35548165Y16381266D01*
X35753266Y16296310D01*
X35971000Y16253000D01*
X36193000Y16253000D01*
X36410734Y16296310D01*
X36615835Y16381266D01*
X36800421Y16504602D01*
X36957398Y16661579D01*
X37080734Y16846165D01*
X37165690Y17051266D01*
X37209000Y17269000D01*
X37209000Y17491000D01*
X37165690Y17708734D01*
X37080734Y17913835D01*
X36957398Y18098421D01*
X36800421Y18255398D01*
X36615835Y18378734D01*
X36410734Y18463690D01*
X36193000Y18507000D01*
X35971000Y18507000D01*
X35753266Y18463690D01*
X35548165Y18378734D01*
X35363579Y18255398D01*
X35206602Y18098421D01*
X35083266Y17913835D01*
X34998310Y17708734D01*
X34955000Y17491000D01*
X34670340Y17491000D01*
X34670340Y18230000D01*
X34664992Y18284301D01*
X34649153Y18336516D01*
X34623431Y18384637D01*
X34588816Y18426816D01*
X34546637Y18461431D01*
X34498516Y18487153D01*
X34446301Y18502992D01*
X34392000Y18508340D01*
X32692000Y18508340D01*
X32637699Y18502992D01*
X32585484Y18487153D01*
X32537363Y18461431D01*
X32495184Y18426816D01*
X32460569Y18384637D01*
X32434847Y18336516D01*
X32419008Y18284301D01*
X32413660Y18230000D01*
X19862681Y18230000D01*
X19855640Y18246996D01*
X19787023Y18349689D01*
X19699689Y18437023D01*
X19596996Y18505640D01*
X19482889Y18552905D01*
X19361754Y18577000D01*
X19238246Y18577000D01*
X19117111Y18552905D01*
X19003004Y18505640D01*
X18900311Y18437023D01*
X18812977Y18349689D01*
X18744360Y18246996D01*
X18697095Y18132889D01*
X18673000Y18011754D01*
X18673000Y17888246D01*
X18697095Y17767111D01*
X18744360Y17653004D01*
X18812977Y17550311D01*
X18900311Y17462977D01*
X18988776Y17403867D01*
X18979320Y17399950D01*
X18868437Y17325860D01*
X18774140Y17231563D01*
X18700050Y17120680D01*
X18649016Y16997474D01*
X18623000Y16866679D01*
X2802000Y16866679D01*
X2802000Y19300000D01*
X3611660Y19300000D01*
X3617008Y19245699D01*
X3632847Y19193484D01*
X3658569Y19145363D01*
X3693184Y19103184D01*
X3735363Y19068569D01*
X3783484Y19042847D01*
X3835699Y19027008D01*
X3890000Y19021660D01*
X4193750Y19023000D01*
X4263000Y19092250D01*
X4263000Y19673000D01*
X3682250Y19673000D01*
X3613000Y19603750D01*
X3611660Y19300000D01*
X2802000Y19300000D01*
X2802000Y20300000D01*
X3611660Y20300000D01*
X3613000Y19996250D01*
X3682250Y19927000D01*
X4263000Y19927000D01*
X4263000Y20507750D01*
X4517000Y20507750D01*
X4517000Y19927000D01*
X4537000Y19927000D01*
X4537000Y19673000D01*
X4517000Y19673000D01*
X4517000Y19092250D01*
X4586250Y19023000D01*
X4890000Y19021660D01*
X4944301Y19027008D01*
X4996516Y19042847D01*
X5044637Y19068569D01*
X5086816Y19103184D01*
X5121431Y19145363D01*
X5147153Y19193484D01*
X5151928Y19209227D01*
X5164691Y19196464D01*
X5291952Y19111431D01*
X5433357Y19052859D01*
X5583472Y19023000D01*
X5736528Y19023000D01*
X5886643Y19052859D01*
X6028048Y19111431D01*
X6155309Y19196464D01*
X6263536Y19304691D01*
X6295000Y19351780D01*
X6326464Y19304691D01*
X6434691Y19196464D01*
X6561952Y19111431D01*
X6703357Y19052859D01*
X6853472Y19023000D01*
X7006528Y19023000D01*
X7156643Y19052859D01*
X7298048Y19111431D01*
X7425309Y19196464D01*
X7533536Y19304691D01*
X7565000Y19351780D01*
X7596464Y19304691D01*
X7704691Y19196464D01*
X7831952Y19111431D01*
X7973357Y19052859D01*
X8123472Y19023000D01*
X8276528Y19023000D01*
X8426643Y19052859D01*
X8568048Y19111431D01*
X8695309Y19196464D01*
X8803536Y19304691D01*
X8888569Y19431952D01*
X8947141Y19573357D01*
X8977000Y19723472D01*
X8977000Y19876528D01*
X8947141Y20026643D01*
X8888569Y20168048D01*
X8803536Y20295309D01*
X8695309Y20403536D01*
X8568048Y20488569D01*
X8426643Y20547141D01*
X8276528Y20577000D01*
X8123472Y20577000D01*
X7973357Y20547141D01*
X7831952Y20488569D01*
X7704691Y20403536D01*
X7596464Y20295309D01*
X7565000Y20248220D01*
X7533536Y20295309D01*
X7425309Y20403536D01*
X7298048Y20488569D01*
X7156643Y20547141D01*
X7006528Y20577000D01*
X6853472Y20577000D01*
X6703357Y20547141D01*
X6561952Y20488569D01*
X6434691Y20403536D01*
X6326464Y20295309D01*
X6295000Y20248220D01*
X6263536Y20295309D01*
X6155309Y20403536D01*
X6028048Y20488569D01*
X5886643Y20547141D01*
X5736528Y20577000D01*
X5583472Y20577000D01*
X5433357Y20547141D01*
X5291952Y20488569D01*
X5164691Y20403536D01*
X5151928Y20390773D01*
X5147153Y20406516D01*
X5121431Y20454637D01*
X5086816Y20496816D01*
X5044637Y20531431D01*
X4996516Y20557153D01*
X4944301Y20572992D01*
X4890000Y20578340D01*
X4586250Y20577000D01*
X4517000Y20507750D01*
X4263000Y20507750D01*
X4193750Y20577000D01*
X3890000Y20578340D01*
X3835699Y20572992D01*
X3783484Y20557153D01*
X3735363Y20531431D01*
X3693184Y20496816D01*
X3658569Y20454637D01*
X3632847Y20406516D01*
X3617008Y20354301D01*
X3611660Y20300000D01*
X2802000Y20300000D01*
X2802000Y21285226D01*
X2812906Y21396447D01*
X2840916Y21489222D01*
X2886409Y21574784D01*
X2947661Y21649887D01*
X3022334Y21711662D01*
X3107580Y21757754D01*
X3200157Y21786410D01*
X3310428Y21798000D01*
X9339386Y21798000D01*
X9445723Y21350383D01*
X9454602Y21324543D01*
X9463150Y21298489D01*
X9464877Y21294642D01*
X9684531Y20814070D01*
X9698253Y20790460D01*
X9711705Y20766549D01*
X9714146Y20763111D01*
X10022961Y20334354D01*
X10041008Y20313858D01*
X10058848Y20293017D01*
X10061910Y20290118D01*
X10448122Y19929511D01*
X10469825Y19912897D01*
X10491355Y19895932D01*
X10494922Y19893683D01*
X10943821Y19614959D01*
X10968325Y19602882D01*
X10992753Y19590416D01*
X10996689Y19588902D01*
X11491178Y19402678D01*
X11517600Y19395581D01*
X11543944Y19388108D01*
X11548099Y19387388D01*
X12069340Y19300757D01*
X12096609Y19298928D01*
X12123932Y19296712D01*
X12128148Y19296813D01*
X12128149Y19296813D01*
X12656289Y19313074D01*
X12683351Y19316572D01*
X12710627Y19319710D01*
X12714743Y19320628D01*
X12914791Y19366679D01*
X14373000Y19366679D01*
X14373000Y19233321D01*
X14399016Y19102526D01*
X14450050Y18979320D01*
X14524140Y18868437D01*
X14618437Y18774140D01*
X14729320Y18700050D01*
X14852526Y18649016D01*
X14983321Y18623000D01*
X15116679Y18623000D01*
X15247474Y18649016D01*
X15370680Y18700050D01*
X15481563Y18774140D01*
X15575860Y18868437D01*
X15649950Y18979320D01*
X15700984Y19102526D01*
X15727000Y19233321D01*
X15727000Y19366679D01*
X15700984Y19497474D01*
X15649950Y19620680D01*
X15575860Y19731563D01*
X15481563Y19825860D01*
X15370680Y19899950D01*
X15247474Y19950984D01*
X15116679Y19977000D01*
X14983321Y19977000D01*
X14852526Y19950984D01*
X14729320Y19899950D01*
X14618437Y19825860D01*
X14524140Y19731563D01*
X14450050Y19620680D01*
X14399016Y19497474D01*
X14373000Y19366679D01*
X12914791Y19366679D01*
X13229667Y19439163D01*
X13255553Y19447857D01*
X13281682Y19456227D01*
X13285541Y19457927D01*
X13767635Y19674221D01*
X13791360Y19687789D01*
X13815344Y19701063D01*
X13818799Y19703480D01*
X14249700Y20009293D01*
X14270332Y20027206D01*
X14291287Y20044891D01*
X14294208Y20047933D01*
X14657503Y20431619D01*
X14674278Y20453218D01*
X14691383Y20474617D01*
X14693657Y20478168D01*
X14975508Y20925110D01*
X14987755Y20949527D01*
X15000392Y20973869D01*
X15001932Y20977795D01*
X15191604Y21470970D01*
X15198876Y21497305D01*
X15206543Y21523634D01*
X15207292Y21527784D01*
X15254144Y21798000D01*
X29814833Y21798000D01*
X29827578Y21799255D01*
X29828766Y21799247D01*
X29832962Y21799659D01*
X29852122Y21801673D01*
X29859202Y21802370D01*
X29859438Y21802442D01*
X29871783Y21803739D01*
X29898547Y21809233D01*
X29925481Y21814371D01*
X29929518Y21815590D01*
X29966805Y21827133D01*
X29991971Y21837712D01*
X30017416Y21847992D01*
X30021139Y21849972D01*
X30055475Y21868537D01*
X30078125Y21883815D01*
X30101077Y21898834D01*
X30104345Y21901500D01*
X30134420Y21926381D01*
X30153701Y21945798D01*
X30173261Y21964953D01*
X30175949Y21968202D01*
X30200619Y21998451D01*
X30215751Y22021227D01*
X30231228Y22043831D01*
X30233234Y22047541D01*
X30251559Y22082005D01*
X30261982Y22107293D01*
X30272772Y22132468D01*
X30274019Y22136497D01*
X30285301Y22173864D01*
X30290609Y22200671D01*
X30296309Y22227489D01*
X30296750Y22231683D01*
X30300559Y22270530D01*
X30316746Y22435623D01*
X30923000Y22435623D01*
X30923000Y22164377D01*
X30975917Y21898344D01*
X31079718Y21647746D01*
X31230414Y21422213D01*
X31422213Y21230414D01*
X31647746Y21079718D01*
X31898344Y20975917D01*
X32164377Y20923000D01*
X32435623Y20923000D01*
X32701656Y20975917D01*
X32952254Y21079718D01*
X33177787Y21230414D01*
X33369586Y21422213D01*
X33520282Y21647746D01*
X33624083Y21898344D01*
X33677000Y22164377D01*
X33677000Y22435623D01*
X33624083Y22701656D01*
X33520282Y22952254D01*
X33369586Y23177787D01*
X33177787Y23369586D01*
X32952254Y23520282D01*
X32701656Y23624083D01*
X32435623Y23677000D01*
X32164377Y23677000D01*
X31898344Y23624083D01*
X31647746Y23520282D01*
X31422213Y23369586D01*
X31230414Y23177787D01*
X31079718Y22952254D01*
X30975917Y22701656D01*
X30923000Y22435623D01*
X30316746Y22435623D01*
X30341473Y22687802D01*
X30454096Y23060827D01*
X30637029Y23404874D01*
X30883305Y23706839D01*
X31183540Y23955215D01*
X31526307Y24140548D01*
X31898536Y24255772D01*
X32286064Y24296503D01*
X32674115Y24261188D01*
%TA.AperFunction,Conductor*%
D22*
G36*
X32674115Y24261188D02*
G01*
X33047924Y24151170D01*
X33393239Y23970643D01*
X33696911Y23726484D01*
X33947383Y23427984D01*
X34135100Y23086527D01*
X34252922Y22715105D01*
X34297893Y22314180D01*
X34298004Y22298285D01*
X34298007Y22297522D01*
X34299339Y22284420D01*
X34299247Y22271234D01*
X34299659Y22267038D01*
X34303739Y22228217D01*
X34309233Y22201453D01*
X34314371Y22174519D01*
X34315590Y22170482D01*
X34327133Y22133195D01*
X34337712Y22108029D01*
X34347992Y22082584D01*
X34349972Y22078861D01*
X34368537Y22044525D01*
X34383815Y22021875D01*
X34398834Y21998923D01*
X34401500Y21995655D01*
X34426381Y21965580D01*
X34445798Y21946299D01*
X34464953Y21926739D01*
X34468202Y21924051D01*
X34498451Y21899381D01*
X34521227Y21884249D01*
X34543831Y21868772D01*
X34547541Y21866766D01*
X34582005Y21848441D01*
X34607293Y21838018D01*
X34632468Y21827228D01*
X34636497Y21825981D01*
X34673864Y21814699D01*
X34700671Y21809391D01*
X34727489Y21803691D01*
X34731683Y21803250D01*
X34770530Y21799441D01*
X34770536Y21799441D01*
X34785167Y21798000D01*
X41285226Y21798000D01*
X41396447Y21787094D01*
X41489222Y21759084D01*
X41574784Y21713591D01*
X41649887Y21652339D01*
X41711662Y21577666D01*
X41757754Y21492420D01*
X41786410Y21399843D01*
X41798001Y21289563D01*
X41798000Y15260614D01*
X41350383Y15154277D01*
X41324543Y15145398D01*
X41298489Y15136850D01*
X41294641Y15135123D01*
X40814070Y14915469D01*
X40790454Y14901744D01*
X40766550Y14888295D01*
X40763111Y14885854D01*
X40334355Y14577040D01*
X40313836Y14558974D01*
X40293017Y14541152D01*
X40290118Y14538090D01*
X39929511Y14151878D01*
X39912918Y14130204D01*
X39895931Y14108645D01*
X39893682Y14105077D01*
X39614959Y13656179D01*
X39602889Y13631688D01*
X39590416Y13607247D01*
X39588903Y13603311D01*
X39402678Y13108823D01*
X39395578Y13082391D01*
X39388108Y13056056D01*
X39387388Y13051901D01*
X39300757Y12530660D01*
X39298928Y12503391D01*
X39296712Y12476068D01*
X39296813Y12471852D01*
X39313074Y11943711D01*
X39316572Y11916649D01*
X39319710Y11889373D01*
X39320628Y11885257D01*
X39439163Y11370333D01*
X39447857Y11344447D01*
X39456227Y11318318D01*
X39457927Y11314459D01*
X39674221Y10832365D01*
X39687789Y10808640D01*
X39701063Y10784656D01*
X39703480Y10781201D01*
X40009293Y10350300D01*
X40027206Y10329668D01*
X40044891Y10308713D01*
X40047933Y10305792D01*
X40431619Y9942497D01*
X40453218Y9925722D01*
X40474617Y9908617D01*
X40478168Y9906343D01*
X40925110Y9624492D01*
X40949527Y9612245D01*
X40973869Y9599608D01*
X40977795Y9598068D01*
X41470970Y9408396D01*
X41497305Y9401124D01*
X41523634Y9393457D01*
X41527784Y9392708D01*
X41798001Y9345856D01*
X41798000Y3314774D01*
X41787095Y3203553D01*
X41759084Y3110778D01*
X41713589Y3025213D01*
X41652337Y2950111D01*
X41577666Y2888338D01*
X41492422Y2842247D01*
X41399844Y2813590D01*
X41289581Y2802000D01*
X34785167Y2802000D01*
X34772422Y2800745D01*
X34771235Y2800753D01*
X34767038Y2800341D01*
X34747886Y2798328D01*
X34740798Y2797630D01*
X34740562Y2797558D01*
X34728218Y2796261D01*
X34701454Y2790767D01*
X34674519Y2785629D01*
X34670482Y2784410D01*
X34633195Y2772868D01*
X34608016Y2762283D01*
X34582585Y2752009D01*
X34578861Y2750028D01*
X34544525Y2731463D01*
X34521875Y2716185D01*
X34498923Y2701166D01*
X34495655Y2698500D01*
X34465580Y2673619D01*
X34446317Y2654221D01*
X34426738Y2635047D01*
X34424051Y2631797D01*
X34399381Y2601549D01*
X34384260Y2578788D01*
X34368772Y2556169D01*
X34366766Y2552459D01*
X34348441Y2517995D01*
X34338018Y2492707D01*
X34327228Y2467532D01*
X34325981Y2463503D01*
X34314699Y2426136D01*
X34309390Y2399322D01*
X34303691Y2372511D01*
X34303250Y2368317D01*
X34299441Y2329470D01*
X34258528Y1912201D01*
X34145905Y1539175D01*
X33962971Y1195125D01*
X33716695Y893161D01*
X33416458Y644784D01*
X33073693Y459452D01*
X32701464Y344228D01*
X32313935Y303497D01*
X31925885Y338812D01*
X31552075Y448830D01*
X31206762Y629357D01*
X30903086Y873518D01*
X30652616Y1172018D01*
X30464900Y1513474D01*
X30347078Y1884895D01*
X30302107Y2285819D01*
X30301996Y2301715D01*
X30301993Y2302478D01*
X30300661Y2315580D01*
X30300753Y2328765D01*
X30300341Y2332962D01*
X30296261Y2371782D01*
X30290767Y2398546D01*
X30285629Y2425481D01*
X30284410Y2429518D01*
X30282521Y2435623D01*
X30923000Y2435623D01*
X30923000Y2164377D01*
X30975917Y1898344D01*
X31079718Y1647746D01*
X31230414Y1422213D01*
X31422213Y1230414D01*
X31647746Y1079718D01*
X31898344Y975917D01*
X32164377Y923000D01*
X32435623Y923000D01*
X32701656Y975917D01*
X32952254Y1079718D01*
X33177787Y1230414D01*
X33369586Y1422213D01*
X33520282Y1647746D01*
X33624083Y1898344D01*
X33677000Y2164377D01*
X33677000Y2435623D01*
X33624083Y2701656D01*
X33520282Y2952254D01*
X33369586Y3177787D01*
X33177787Y3369586D01*
X32952254Y3520282D01*
X32701656Y3624083D01*
X32435623Y3677000D01*
X32164377Y3677000D01*
X31898344Y3624083D01*
X31647746Y3520282D01*
X31422213Y3369586D01*
X31230414Y3177787D01*
X31079718Y2952254D01*
X30975917Y2701656D01*
X30923000Y2435623D01*
X30282521Y2435623D01*
X30272868Y2466805D01*
X30262283Y2491984D01*
X30252009Y2517415D01*
X30250028Y2521139D01*
X30231463Y2555475D01*
X30216185Y2578125D01*
X30201166Y2601077D01*
X30198500Y2604345D01*
X30173619Y2634420D01*
X30154221Y2653683D01*
X30135047Y2673262D01*
X30131797Y2675949D01*
X30101549Y2700619D01*
X30078788Y2715740D01*
X30056169Y2731228D01*
X30052459Y2733234D01*
X30017995Y2751559D01*
X29992707Y2761982D01*
X29967532Y2772772D01*
X29963503Y2774019D01*
X29926136Y2785301D01*
X29899322Y2790610D01*
X29872511Y2796309D01*
X29868317Y2796750D01*
X29829470Y2800559D01*
X29829464Y2800559D01*
X29814833Y2802000D01*
X15260614Y2802000D01*
X15154277Y3249617D01*
X15145398Y3275457D01*
X15136850Y3301511D01*
X15135123Y3305359D01*
X14915469Y3785930D01*
X14901744Y3809546D01*
X14888295Y3833450D01*
X14885854Y3836889D01*
X14577040Y4265645D01*
X14558974Y4286164D01*
X14541152Y4306983D01*
X14538090Y4309882D01*
X14151878Y4670489D01*
X14130204Y4687082D01*
X14108645Y4704069D01*
X14105077Y4706318D01*
X13656179Y4985041D01*
X13631688Y4997111D01*
X13607247Y5009584D01*
X13603311Y5011097D01*
X13108823Y5197322D01*
X13082391Y5204422D01*
X13056056Y5211892D01*
X13051901Y5212612D01*
X12530660Y5299243D01*
X12503391Y5301072D01*
X12476068Y5303288D01*
X12471852Y5303187D01*
X12471851Y5303187D01*
X11943711Y5286926D01*
X11916649Y5283428D01*
X11889373Y5280290D01*
X11885257Y5279372D01*
X11370333Y5160837D01*
X11344435Y5152139D01*
X11318319Y5143773D01*
X11314459Y5142073D01*
X10832365Y4925779D01*
X10808640Y4912211D01*
X10784656Y4898937D01*
X10781201Y4896520D01*
X10350300Y4590707D01*
X10329705Y4572827D01*
X10308712Y4555109D01*
X10305792Y4552066D01*
X9942497Y4168381D01*
X9925722Y4146782D01*
X9908617Y4125383D01*
X9906343Y4121832D01*
X9624492Y3674890D01*
X9612245Y3650473D01*
X9599608Y3626131D01*
X9598068Y3622205D01*
X9408396Y3129030D01*
X9401127Y3102706D01*
X9393457Y3076367D01*
X9392708Y3072217D01*
X9345857Y2802000D01*
X3314774Y2802000D01*
X3203553Y2812905D01*
X3110778Y2840916D01*
X3025213Y2886411D01*
X2950111Y2947663D01*
X2888338Y3022334D01*
X2842247Y3107578D01*
X2813590Y3200156D01*
X2802000Y3310419D01*
X2802000Y5966679D01*
X23523000Y5966679D01*
X23523000Y5833321D01*
X23549016Y5702526D01*
X23600050Y5579320D01*
X23674140Y5468437D01*
X23768437Y5374140D01*
X23879320Y5300050D01*
X24002526Y5249016D01*
X24133321Y5223000D01*
X24266679Y5223000D01*
X24397474Y5249016D01*
X24520680Y5300050D01*
X24631563Y5374140D01*
X24725860Y5468437D01*
X24799950Y5579320D01*
X24850984Y5702526D01*
X24877000Y5833321D01*
X24877000Y5966679D01*
X24850984Y6097474D01*
X24799950Y6220680D01*
X24725860Y6331563D01*
X24631563Y6425860D01*
X24520680Y6499950D01*
X24397474Y6550984D01*
X24266679Y6577000D01*
X24133321Y6577000D01*
X24002526Y6550984D01*
X23879320Y6499950D01*
X23768437Y6425860D01*
X23674140Y6331563D01*
X23600050Y6220680D01*
X23549016Y6097474D01*
X23523000Y5966679D01*
X2802000Y5966679D01*
X2802000Y8261754D01*
X20273000Y8261754D01*
X20273000Y8138246D01*
X20297095Y8017111D01*
X20344360Y7903004D01*
X20412977Y7800311D01*
X20500311Y7712977D01*
X20603004Y7644360D01*
X20717111Y7597095D01*
X20838246Y7573000D01*
X20961754Y7573000D01*
X21082889Y7597095D01*
X21118278Y7611754D01*
X24423000Y7611754D01*
X24423000Y7488246D01*
X24447095Y7367111D01*
X24494360Y7253004D01*
X24562977Y7150311D01*
X24650311Y7062977D01*
X24753004Y6994360D01*
X24867111Y6947095D01*
X24988246Y6923000D01*
X25111754Y6923000D01*
X25232889Y6947095D01*
X25346996Y6994360D01*
X25449689Y7062977D01*
X25537023Y7150311D01*
X25605640Y7253004D01*
X25637947Y7331000D01*
X32415000Y7331000D01*
X32415000Y7109000D01*
X32458310Y6891266D01*
X32543266Y6686165D01*
X32666602Y6501579D01*
X32823579Y6344602D01*
X33008165Y6221266D01*
X33213266Y6136310D01*
X33431000Y6093000D01*
X33653000Y6093000D01*
X33870734Y6136310D01*
X34075835Y6221266D01*
X34260421Y6344602D01*
X34417398Y6501579D01*
X34540734Y6686165D01*
X34625690Y6891266D01*
X34631283Y6919385D01*
X34995833Y6919385D01*
X35011866Y6866508D01*
X35101391Y6664527D01*
X35228601Y6483893D01*
X35388606Y6331547D01*
X35575258Y6213344D01*
X35781384Y6133826D01*
X35955000Y6169422D01*
X35955000Y7093000D01*
X36209000Y7093000D01*
X36209000Y6169422D01*
X36382616Y6133826D01*
X36588742Y6213344D01*
X36775394Y6331547D01*
X36935399Y6483893D01*
X37062609Y6664527D01*
X37152134Y6866508D01*
X37168167Y6919385D01*
X37132098Y7093000D01*
X36209000Y7093000D01*
X35955000Y7093000D01*
X35031902Y7093000D01*
X34995833Y6919385D01*
X34631283Y6919385D01*
X34669000Y7109000D01*
X34669000Y7331000D01*
X34631284Y7520615D01*
X34995833Y7520615D01*
X35031902Y7347000D01*
X35955000Y7347000D01*
X35955000Y8270578D01*
X36209000Y8270578D01*
X36209000Y7347000D01*
X37132098Y7347000D01*
X37168167Y7520615D01*
X37152134Y7573492D01*
X37062609Y7775473D01*
X36935399Y7956107D01*
X36775394Y8108453D01*
X36588742Y8226656D01*
X36382616Y8306174D01*
X36209000Y8270578D01*
X35955000Y8270578D01*
X35781384Y8306174D01*
X35575258Y8226656D01*
X35388606Y8108453D01*
X35228601Y7956107D01*
X35101391Y7775473D01*
X35011866Y7573492D01*
X34995833Y7520615D01*
X34631284Y7520615D01*
X34625690Y7548734D01*
X34540734Y7753835D01*
X34417398Y7938421D01*
X34260421Y8095398D01*
X34075835Y8218734D01*
X33870734Y8303690D01*
X33653000Y8347000D01*
X33431000Y8347000D01*
X33213266Y8303690D01*
X33008165Y8218734D01*
X32823579Y8095398D01*
X32666602Y7938421D01*
X32543266Y7753835D01*
X32458310Y7548734D01*
X32415000Y7331000D01*
X25637947Y7331000D01*
X25652905Y7367111D01*
X25677000Y7488246D01*
X25677000Y7611754D01*
X25652905Y7732889D01*
X25605640Y7846996D01*
X25537023Y7949689D01*
X25449689Y8037023D01*
X25346996Y8105640D01*
X25232889Y8152905D01*
X25111754Y8177000D01*
X24988246Y8177000D01*
X24867111Y8152905D01*
X24753004Y8105640D01*
X24650311Y8037023D01*
X24562977Y7949689D01*
X24494360Y7846996D01*
X24447095Y7732889D01*
X24423000Y7611754D01*
X21118278Y7611754D01*
X21196996Y7644360D01*
X21299689Y7712977D01*
X21387023Y7800311D01*
X21455640Y7903004D01*
X21502905Y8017111D01*
X21527000Y8138246D01*
X21527000Y8261754D01*
X21502905Y8382889D01*
X21455640Y8496996D01*
X21387023Y8599689D01*
X21374958Y8611754D01*
X27173000Y8611754D01*
X27173000Y8488246D01*
X27197095Y8367111D01*
X27244360Y8253004D01*
X27312977Y8150311D01*
X27400311Y8062977D01*
X27503004Y7994360D01*
X27617111Y7947095D01*
X27738246Y7923000D01*
X27861754Y7923000D01*
X27982889Y7947095D01*
X28096996Y7994360D01*
X28199689Y8062977D01*
X28287023Y8150311D01*
X28355640Y8253004D01*
X28402905Y8367111D01*
X28427000Y8488246D01*
X28427000Y8611754D01*
X28402905Y8732889D01*
X28355640Y8846996D01*
X28287023Y8949689D01*
X28199689Y9037023D01*
X28096996Y9105640D01*
X27982889Y9152905D01*
X27861754Y9177000D01*
X27738246Y9177000D01*
X27617111Y9152905D01*
X27503004Y9105640D01*
X27400311Y9037023D01*
X27312977Y8949689D01*
X27244360Y8846996D01*
X27197095Y8732889D01*
X27173000Y8611754D01*
X21374958Y8611754D01*
X21299689Y8687023D01*
X21196996Y8755640D01*
X21082889Y8802905D01*
X20961754Y8827000D01*
X20838246Y8827000D01*
X20717111Y8802905D01*
X20603004Y8755640D01*
X20500311Y8687023D01*
X20412977Y8599689D01*
X20344360Y8496996D01*
X20297095Y8382889D01*
X20273000Y8261754D01*
X2802000Y8261754D01*
X2802000Y8573966D01*
X6303571Y8573966D01*
X6340022Y8476106D01*
X6456978Y8436414D01*
X6579431Y8420302D01*
X6702674Y8428389D01*
X6821971Y8460364D01*
X6859978Y8476106D01*
X6896429Y8573966D01*
X7703571Y8573966D01*
X7740022Y8476106D01*
X7856978Y8436414D01*
X7979431Y8420302D01*
X8102674Y8428389D01*
X8221971Y8460364D01*
X8259978Y8476106D01*
X8296429Y8573966D01*
X8000000Y8870395D01*
X7703571Y8573966D01*
X6896429Y8573966D01*
X6600000Y8870395D01*
X6303571Y8573966D01*
X2802000Y8573966D01*
X2802000Y9814833D01*
X2800745Y9827578D01*
X2800753Y9828765D01*
X2800341Y9832962D01*
X2798328Y9852114D01*
X2797630Y9859202D01*
X2797558Y9859438D01*
X2796261Y9871782D01*
X2790767Y9898546D01*
X2785629Y9925481D01*
X2784410Y9929518D01*
X2772868Y9966805D01*
X2762283Y9991984D01*
X2752009Y10017415D01*
X2750028Y10021139D01*
X2731463Y10055475D01*
X2716185Y10078125D01*
X2701166Y10101077D01*
X2698500Y10104345D01*
X2673619Y10134420D01*
X2654221Y10153683D01*
X2635047Y10173262D01*
X2631797Y10175949D01*
X2601549Y10200619D01*
X2578788Y10215740D01*
X2556169Y10231228D01*
X2552459Y10233234D01*
X2517995Y10251559D01*
X2492707Y10261982D01*
X2467532Y10272772D01*
X2463503Y10274019D01*
X2426136Y10285301D01*
X2399322Y10290610D01*
X2372511Y10296309D01*
X2368317Y10296750D01*
X2329470Y10300559D01*
X1912201Y10341472D01*
X1539175Y10454095D01*
X1195125Y10637029D01*
X1003789Y10793079D01*
X4493000Y10793079D01*
X4493000Y9806922D01*
X4505690Y9678079D01*
X4555838Y9512764D01*
X4637273Y9360409D01*
X4746867Y9226867D01*
X4880408Y9117273D01*
X5032763Y9035838D01*
X5198078Y8985690D01*
X5370000Y8968757D01*
X5541921Y8985690D01*
X5707236Y9035838D01*
X5859591Y9117273D01*
X5993133Y9226867D01*
X6001262Y9236772D01*
X5986414Y9193022D01*
X5970302Y9070569D01*
X5978389Y8947326D01*
X6010364Y8828029D01*
X6026106Y8790022D01*
X6123966Y8753571D01*
X6420395Y9050000D01*
X6779605Y9050000D01*
X7076034Y8753571D01*
X7173894Y8790022D01*
X7213586Y8906978D01*
X7229698Y9029431D01*
X7226999Y9070569D01*
X7370302Y9070569D01*
X7378389Y8947326D01*
X7410364Y8828029D01*
X7426106Y8790022D01*
X7523966Y8753571D01*
X7820395Y9050000D01*
X7523966Y9346429D01*
X7426106Y9309978D01*
X7386414Y9193022D01*
X7370302Y9070569D01*
X7226999Y9070569D01*
X7221611Y9152674D01*
X7189636Y9271971D01*
X7173894Y9309978D01*
X7076034Y9346429D01*
X6779605Y9050000D01*
X6420395Y9050000D01*
X6406253Y9064142D01*
X6585858Y9243747D01*
X6600000Y9229605D01*
X6763666Y9393271D01*
X6782889Y9397095D01*
X6896996Y9444360D01*
X6999689Y9512977D01*
X7087023Y9600311D01*
X7155640Y9703004D01*
X7202905Y9817111D01*
X7227000Y9938246D01*
X7227000Y10061754D01*
X7373000Y10061754D01*
X7373000Y9938246D01*
X7397095Y9817111D01*
X7444360Y9703004D01*
X7512977Y9600311D01*
X7600311Y9512977D01*
X7703004Y9444360D01*
X7817111Y9397095D01*
X7836334Y9393271D01*
X8000000Y9229605D01*
X8014143Y9243747D01*
X8193748Y9064142D01*
X8179605Y9050000D01*
X8476034Y8753571D01*
X8573894Y8790022D01*
X8613586Y8906978D01*
X8629698Y9029431D01*
X8621611Y9152674D01*
X8599231Y9236171D01*
X8606867Y9226867D01*
X8740408Y9117273D01*
X8892763Y9035838D01*
X9058078Y8985690D01*
X9230000Y8968757D01*
X9401921Y8985690D01*
X9567236Y9035838D01*
X9719591Y9117273D01*
X9730868Y9126528D01*
X11573000Y9126528D01*
X11573000Y8973472D01*
X11602859Y8823357D01*
X11661431Y8681952D01*
X11746464Y8554691D01*
X11854691Y8446464D01*
X11981952Y8361431D01*
X12123357Y8302859D01*
X12273472Y8273000D01*
X12426528Y8273000D01*
X12576643Y8302859D01*
X12718048Y8361431D01*
X12845309Y8446464D01*
X12953536Y8554691D01*
X13038569Y8681952D01*
X13097141Y8823357D01*
X13127000Y8973472D01*
X13127000Y9126528D01*
X13097141Y9276643D01*
X13059847Y9366679D01*
X17373000Y9366679D01*
X17373000Y9233321D01*
X17399016Y9102526D01*
X17450050Y8979320D01*
X17524140Y8868437D01*
X17618437Y8774140D01*
X17729320Y8700050D01*
X17852526Y8649016D01*
X17983321Y8623000D01*
X18116679Y8623000D01*
X18247474Y8649016D01*
X18370680Y8700050D01*
X18481563Y8774140D01*
X18575860Y8868437D01*
X18649950Y8979320D01*
X18700984Y9102526D01*
X18727000Y9233321D01*
X18727000Y9366679D01*
X18700984Y9497474D01*
X18649950Y9620680D01*
X18575860Y9731563D01*
X18481563Y9825860D01*
X18414007Y9871000D01*
X32415000Y9871000D01*
X32415000Y9649000D01*
X32458310Y9431266D01*
X32543266Y9226165D01*
X32666602Y9041579D01*
X32823579Y8884602D01*
X33008165Y8761266D01*
X33213266Y8676310D01*
X33431000Y8633000D01*
X33653000Y8633000D01*
X33870734Y8676310D01*
X34075835Y8761266D01*
X34260421Y8884602D01*
X34417398Y9041579D01*
X34540734Y9226165D01*
X34625690Y9431266D01*
X34669000Y9649000D01*
X34669000Y9871000D01*
X34955000Y9871000D01*
X34955000Y9649000D01*
X34998310Y9431266D01*
X35083266Y9226165D01*
X35206602Y9041579D01*
X35363579Y8884602D01*
X35548165Y8761266D01*
X35753266Y8676310D01*
X35971000Y8633000D01*
X36193000Y8633000D01*
X36410734Y8676310D01*
X36615835Y8761266D01*
X36800421Y8884602D01*
X36957398Y9041579D01*
X37080734Y9226165D01*
X37165690Y9431266D01*
X37209000Y9649000D01*
X37209000Y9871000D01*
X37165690Y10088734D01*
X37080734Y10293835D01*
X36957398Y10478421D01*
X36800421Y10635398D01*
X36615835Y10758734D01*
X36410734Y10843690D01*
X36193000Y10887000D01*
X35971000Y10887000D01*
X35753266Y10843690D01*
X35548165Y10758734D01*
X35363579Y10635398D01*
X35206602Y10478421D01*
X35083266Y10293835D01*
X34998310Y10088734D01*
X34955000Y9871000D01*
X34669000Y9871000D01*
X34625690Y10088734D01*
X34540734Y10293835D01*
X34417398Y10478421D01*
X34260421Y10635398D01*
X34075835Y10758734D01*
X33870734Y10843690D01*
X33653000Y10887000D01*
X33431000Y10887000D01*
X33213266Y10843690D01*
X33008165Y10758734D01*
X32823579Y10635398D01*
X32666602Y10478421D01*
X32543266Y10293835D01*
X32458310Y10088734D01*
X32415000Y9871000D01*
X18414007Y9871000D01*
X18370680Y9899950D01*
X18247474Y9950984D01*
X18116679Y9977000D01*
X17983321Y9977000D01*
X17852526Y9950984D01*
X17729320Y9899950D01*
X17618437Y9825860D01*
X17524140Y9731563D01*
X17450050Y9620680D01*
X17399016Y9497474D01*
X17373000Y9366679D01*
X13059847Y9366679D01*
X13038569Y9418048D01*
X12953536Y9545309D01*
X12845309Y9653536D01*
X12718048Y9738569D01*
X12576643Y9797141D01*
X12426528Y9827000D01*
X12273472Y9827000D01*
X12123357Y9797141D01*
X11981952Y9738569D01*
X11854691Y9653536D01*
X11746464Y9545309D01*
X11661431Y9418048D01*
X11602859Y9276643D01*
X11573000Y9126528D01*
X9730868Y9126528D01*
X9853133Y9226867D01*
X9962727Y9360408D01*
X10044162Y9512763D01*
X10094310Y9678078D01*
X10107000Y9806921D01*
X10107000Y10793079D01*
X10094310Y10921922D01*
X10044162Y11087237D01*
X9962727Y11239592D01*
X9853133Y11373133D01*
X9719592Y11482727D01*
X9567237Y11564162D01*
X9401922Y11614310D01*
X9230000Y11631243D01*
X9058079Y11614310D01*
X8892764Y11564162D01*
X8740409Y11482727D01*
X8606868Y11373133D01*
X8497274Y11239592D01*
X8415839Y11087237D01*
X8365691Y10921922D01*
X8353000Y10793079D01*
X8353000Y10518219D01*
X8296996Y10555640D01*
X8182889Y10602905D01*
X8061754Y10627000D01*
X7938246Y10627000D01*
X7817111Y10602905D01*
X7703004Y10555640D01*
X7600311Y10487023D01*
X7512977Y10399689D01*
X7444360Y10296996D01*
X7397095Y10182889D01*
X7373000Y10061754D01*
X7227000Y10061754D01*
X7202905Y10182889D01*
X7155640Y10296996D01*
X7087023Y10399689D01*
X7011712Y10475000D01*
X7087023Y10550311D01*
X7155640Y10653004D01*
X7202905Y10767111D01*
X7227000Y10888246D01*
X7227000Y11011754D01*
X7202905Y11132889D01*
X7155640Y11246996D01*
X7087023Y11349689D01*
X7036712Y11400000D01*
X7087023Y11450311D01*
X7155640Y11553004D01*
X7202905Y11667111D01*
X7227000Y11788246D01*
X7227000Y11911754D01*
X7202905Y12032889D01*
X7155640Y12146996D01*
X7087023Y12249689D01*
X7036712Y12300000D01*
X7087023Y12350311D01*
X7155640Y12453004D01*
X7202905Y12567111D01*
X7227000Y12688246D01*
X7227000Y12811754D01*
X7202905Y12932889D01*
X7155640Y13046996D01*
X7087023Y13149689D01*
X6999689Y13237023D01*
X6896996Y13305640D01*
X6782889Y13352905D01*
X6661754Y13377000D01*
X6538246Y13377000D01*
X6417111Y13352905D01*
X6303004Y13305640D01*
X6200311Y13237023D01*
X6112977Y13149689D01*
X6044360Y13046996D01*
X5997095Y12932889D01*
X5973000Y12811754D01*
X5973000Y12688246D01*
X5997095Y12567111D01*
X6044360Y12453004D01*
X6112977Y12350311D01*
X6163288Y12300000D01*
X6112977Y12249689D01*
X6044360Y12146996D01*
X5997095Y12032889D01*
X5973000Y11911754D01*
X5973000Y11788246D01*
X5997095Y11667111D01*
X6044360Y11553004D01*
X6112977Y11450311D01*
X6163288Y11400000D01*
X6112977Y11349689D01*
X6067827Y11282117D01*
X5993133Y11373133D01*
X5859592Y11482727D01*
X5707237Y11564162D01*
X5541922Y11614310D01*
X5370000Y11631243D01*
X5198079Y11614310D01*
X5032764Y11564162D01*
X4880409Y11482727D01*
X4746868Y11373133D01*
X4637274Y11239592D01*
X4555839Y11087237D01*
X4505691Y10921922D01*
X4493000Y10793079D01*
X1003789Y10793079D01*
X893161Y10883305D01*
X644784Y11183542D01*
X459452Y11526307D01*
X344228Y11898536D01*
X303497Y12286064D01*
X317107Y12435623D01*
X923000Y12435623D01*
X923000Y12164377D01*
X975917Y11898344D01*
X1079718Y11647746D01*
X1230414Y11422213D01*
X1422213Y11230414D01*
X1647746Y11079718D01*
X1898344Y10975917D01*
X2164377Y10923000D01*
X2435623Y10923000D01*
X2701656Y10975917D01*
X2952254Y11079718D01*
X3177787Y11230414D01*
X3369586Y11422213D01*
X3520282Y11647746D01*
X3624083Y11898344D01*
X3677000Y12164377D01*
X3677000Y12435623D01*
X3624083Y12701656D01*
X3520282Y12952254D01*
X3369586Y13177787D01*
X3177787Y13369586D01*
X2952254Y13520282D01*
X2701656Y13624083D01*
X2435623Y13677000D01*
X2164377Y13677000D01*
X1898344Y13624083D01*
X1647746Y13520282D01*
X1422213Y13369586D01*
X1230414Y13177787D01*
X1079718Y12952254D01*
X975917Y12701656D01*
X923000Y12435623D01*
X317107Y12435623D01*
X338812Y12674115D01*
X448830Y13047924D01*
X629357Y13393239D01*
X873516Y13696911D01*
X1172016Y13947383D01*
X1513473Y14135100D01*
X1884895Y14252922D01*
X2285820Y14297893D01*
X2301715Y14298004D01*
X2302478Y14298007D01*
X2315580Y14299339D01*
X2328766Y14299247D01*
X2332962Y14299659D01*
X2371783Y14303739D01*
X2398547Y14309233D01*
X2425481Y14314371D01*
X2429518Y14315590D01*
X2466805Y14327133D01*
X2491971Y14337712D01*
X2517416Y14347992D01*
X2521139Y14349972D01*
X2555475Y14368537D01*
X2578125Y14383815D01*
X2601077Y14398834D01*
X2604345Y14401500D01*
X2634420Y14426381D01*
X2653701Y14445798D01*
X2673261Y14464953D01*
X2675949Y14468202D01*
X2700619Y14498451D01*
X2715751Y14521227D01*
X2731228Y14543831D01*
X2733234Y14547541D01*
X2751559Y14582005D01*
X2761982Y14607293D01*
X2772772Y14632468D01*
X2774019Y14636497D01*
X2785301Y14673864D01*
X2790609Y14700671D01*
X2796309Y14727489D01*
X2796750Y14731683D01*
X2800559Y14770530D01*
X2800559Y14770536D01*
X2802000Y14785167D01*
X2802000Y14793079D01*
X4493000Y14793079D01*
X4493000Y13806922D01*
X4505690Y13678079D01*
X4555838Y13512764D01*
X4637273Y13360409D01*
X4746867Y13226867D01*
X4880408Y13117273D01*
X5032763Y13035838D01*
X5198078Y12985690D01*
X5370000Y12968757D01*
X5541921Y12985690D01*
X5707236Y13035838D01*
X5859591Y13117273D01*
X5993133Y13226867D01*
X6102727Y13360408D01*
X6184162Y13512763D01*
X6234310Y13678078D01*
X6247000Y13806921D01*
X6247000Y14081781D01*
X6303004Y14044360D01*
X6417111Y13997095D01*
X6538246Y13973000D01*
X6661754Y13973000D01*
X6782889Y13997095D01*
X6896996Y14044360D01*
X6999689Y14112977D01*
X7087023Y14200311D01*
X7155640Y14303004D01*
X7202905Y14417111D01*
X7227000Y14538246D01*
X7227000Y14661754D01*
X7373000Y14661754D01*
X7373000Y14538246D01*
X7397095Y14417111D01*
X7444360Y14303004D01*
X7512977Y14200311D01*
X7588288Y14125000D01*
X7512977Y14049689D01*
X7444360Y13946996D01*
X7397095Y13832889D01*
X7373000Y13711754D01*
X7373000Y13588246D01*
X7397095Y13467111D01*
X7444360Y13353004D01*
X7512977Y13250311D01*
X7563288Y13200000D01*
X7512977Y13149689D01*
X7444360Y13046996D01*
X7397095Y12932889D01*
X7373000Y12811754D01*
X7373000Y12688246D01*
X7397095Y12567111D01*
X7444360Y12453004D01*
X7512977Y12350311D01*
X7563288Y12300000D01*
X7512977Y12249689D01*
X7444360Y12146996D01*
X7397095Y12032889D01*
X7373000Y11911754D01*
X7373000Y11788246D01*
X7397095Y11667111D01*
X7444360Y11553004D01*
X7512977Y11450311D01*
X7600311Y11362977D01*
X7703004Y11294360D01*
X7817111Y11247095D01*
X7938246Y11223000D01*
X8061754Y11223000D01*
X8182889Y11247095D01*
X8296996Y11294360D01*
X8399689Y11362977D01*
X8487023Y11450311D01*
X8555640Y11553004D01*
X8602905Y11667111D01*
X8627000Y11788246D01*
X8627000Y11911754D01*
X8602905Y12032889D01*
X8555640Y12146996D01*
X8487023Y12249689D01*
X8436712Y12300000D01*
X8487023Y12350311D01*
X8555640Y12453004D01*
X8602905Y12567111D01*
X8627000Y12688246D01*
X8627000Y12786754D01*
X11973000Y12786754D01*
X11973000Y12663246D01*
X11997095Y12542111D01*
X12044360Y12428004D01*
X12112977Y12325311D01*
X12138288Y12300000D01*
X12112977Y12274689D01*
X12044360Y12171996D01*
X11997095Y12057889D01*
X11973000Y11936754D01*
X11973000Y11813246D01*
X11997095Y11692111D01*
X12044360Y11578004D01*
X12112977Y11475311D01*
X12200311Y11387977D01*
X12303004Y11319360D01*
X12417111Y11272095D01*
X12538246Y11248000D01*
X12661754Y11248000D01*
X12782889Y11272095D01*
X12896996Y11319360D01*
X12999689Y11387977D01*
X13087023Y11475311D01*
X13155640Y11578004D01*
X13202905Y11692111D01*
X13227000Y11813246D01*
X13227000Y11936754D01*
X13214543Y11999385D01*
X32455833Y11999385D01*
X32471866Y11946508D01*
X32561391Y11744527D01*
X32688601Y11563893D01*
X32848606Y11411547D01*
X33035258Y11293344D01*
X33241384Y11213826D01*
X33415000Y11249422D01*
X33415000Y12173000D01*
X33669000Y12173000D01*
X33669000Y11249422D01*
X33842616Y11213826D01*
X34048742Y11293344D01*
X34235394Y11411547D01*
X34395399Y11563893D01*
X34522609Y11744527D01*
X34612134Y11946508D01*
X34628167Y11999385D01*
X34995833Y11999385D01*
X35011866Y11946508D01*
X35101391Y11744527D01*
X35228601Y11563893D01*
X35388606Y11411547D01*
X35575258Y11293344D01*
X35781384Y11213826D01*
X35955000Y11249422D01*
X35955000Y12173000D01*
X36209000Y12173000D01*
X36209000Y11249422D01*
X36382616Y11213826D01*
X36588742Y11293344D01*
X36775394Y11411547D01*
X36935399Y11563893D01*
X37062609Y11744527D01*
X37152134Y11946508D01*
X37168167Y11999385D01*
X37132098Y12173000D01*
X36209000Y12173000D01*
X35955000Y12173000D01*
X35031902Y12173000D01*
X34995833Y11999385D01*
X34628167Y11999385D01*
X34592098Y12173000D01*
X33669000Y12173000D01*
X33415000Y12173000D01*
X32491902Y12173000D01*
X32455833Y11999385D01*
X13214543Y11999385D01*
X13202905Y12057889D01*
X13155640Y12171996D01*
X13087023Y12274689D01*
X13061712Y12300000D01*
X13087023Y12325311D01*
X13155640Y12428004D01*
X13202905Y12542111D01*
X13227000Y12663246D01*
X13227000Y12786754D01*
X13212082Y12861754D01*
X27173000Y12861754D01*
X27173000Y12738246D01*
X27197095Y12617111D01*
X27244360Y12503004D01*
X27312977Y12400311D01*
X27400311Y12312977D01*
X27503004Y12244360D01*
X27617111Y12197095D01*
X27738246Y12173000D01*
X27861754Y12173000D01*
X27982889Y12197095D01*
X28096996Y12244360D01*
X28199689Y12312977D01*
X28287023Y12400311D01*
X28355640Y12503004D01*
X28396072Y12600615D01*
X32455833Y12600615D01*
X32491902Y12427000D01*
X33415000Y12427000D01*
X33415000Y13350578D01*
X33669000Y13350578D01*
X33669000Y12427000D01*
X34592098Y12427000D01*
X34628167Y12600615D01*
X34995833Y12600615D01*
X35031902Y12427000D01*
X35955000Y12427000D01*
X35955000Y13350578D01*
X36209000Y13350578D01*
X36209000Y12427000D01*
X37132098Y12427000D01*
X37168167Y12600615D01*
X37152134Y12653492D01*
X37062609Y12855473D01*
X36935399Y13036107D01*
X36775394Y13188453D01*
X36588742Y13306656D01*
X36382616Y13386174D01*
X36209000Y13350578D01*
X35955000Y13350578D01*
X35781384Y13386174D01*
X35575258Y13306656D01*
X35388606Y13188453D01*
X35228601Y13036107D01*
X35101391Y12855473D01*
X35011866Y12653492D01*
X34995833Y12600615D01*
X34628167Y12600615D01*
X34612134Y12653492D01*
X34522609Y12855473D01*
X34395399Y13036107D01*
X34235394Y13188453D01*
X34048742Y13306656D01*
X33842616Y13386174D01*
X33669000Y13350578D01*
X33415000Y13350578D01*
X33241384Y13386174D01*
X33035258Y13306656D01*
X32848606Y13188453D01*
X32688601Y13036107D01*
X32561391Y12855473D01*
X32471866Y12653492D01*
X32455833Y12600615D01*
X28396072Y12600615D01*
X28402905Y12617111D01*
X28427000Y12738246D01*
X28427000Y12861754D01*
X28402905Y12982889D01*
X28355640Y13096996D01*
X28287023Y13199689D01*
X28199689Y13287023D01*
X28096996Y13355640D01*
X27982889Y13402905D01*
X27861754Y13427000D01*
X27738246Y13427000D01*
X27617111Y13402905D01*
X27503004Y13355640D01*
X27400311Y13287023D01*
X27312977Y13199689D01*
X27244360Y13096996D01*
X27197095Y12982889D01*
X27173000Y12861754D01*
X13212082Y12861754D01*
X13202905Y12907889D01*
X13155640Y13021996D01*
X13087023Y13124689D01*
X12999689Y13212023D01*
X12896996Y13280640D01*
X12782889Y13327905D01*
X12661754Y13352000D01*
X12538246Y13352000D01*
X12417111Y13327905D01*
X12303004Y13280640D01*
X12200311Y13212023D01*
X12112977Y13124689D01*
X12044360Y13021996D01*
X11997095Y12907889D01*
X11973000Y12786754D01*
X8627000Y12786754D01*
X8627000Y12811754D01*
X8602905Y12932889D01*
X8555640Y13046996D01*
X8487023Y13149689D01*
X8436712Y13200000D01*
X8487023Y13250311D01*
X8532173Y13317883D01*
X8606867Y13226867D01*
X8740408Y13117273D01*
X8892763Y13035838D01*
X9058078Y12985690D01*
X9230000Y12968757D01*
X9401921Y12985690D01*
X9567236Y13035838D01*
X9719591Y13117273D01*
X9853133Y13226867D01*
X9962727Y13360408D01*
X10044162Y13512763D01*
X10094310Y13678078D01*
X10107000Y13806921D01*
X10107000Y14793079D01*
X10094310Y14921922D01*
X10044162Y15087237D01*
X10025794Y15121603D01*
X11573000Y15121603D01*
X11573000Y14978397D01*
X11600938Y14837942D01*
X11655741Y14705636D01*
X11735302Y14586564D01*
X11836564Y14485302D01*
X11955636Y14405741D01*
X12087942Y14350938D01*
X12228397Y14323000D01*
X12371603Y14323000D01*
X12512058Y14350938D01*
X12644364Y14405741D01*
X12763436Y14485302D01*
X12864698Y14586564D01*
X12944259Y14705636D01*
X12999062Y14837942D01*
X13021550Y14951000D01*
X32415000Y14951000D01*
X32415000Y14729000D01*
X32458310Y14511266D01*
X32543266Y14306165D01*
X32666602Y14121579D01*
X32823579Y13964602D01*
X33008165Y13841266D01*
X33213266Y13756310D01*
X33431000Y13713000D01*
X33653000Y13713000D01*
X33870734Y13756310D01*
X34075835Y13841266D01*
X34260421Y13964602D01*
X34417398Y14121579D01*
X34540734Y14306165D01*
X34625690Y14511266D01*
X34669000Y14729000D01*
X34669000Y14951000D01*
X34955000Y14951000D01*
X34955000Y14729000D01*
X34998310Y14511266D01*
X35083266Y14306165D01*
X35206602Y14121579D01*
X35363579Y13964602D01*
X35548165Y13841266D01*
X35753266Y13756310D01*
X35971000Y13713000D01*
X36193000Y13713000D01*
X36410734Y13756310D01*
X36615835Y13841266D01*
X36800421Y13964602D01*
X36957398Y14121579D01*
X37080734Y14306165D01*
X37165690Y14511266D01*
X37209000Y14729000D01*
X37209000Y14951000D01*
X37165690Y15168734D01*
X37080734Y15373835D01*
X36957398Y15558421D01*
X36800421Y15715398D01*
X36615835Y15838734D01*
X36410734Y15923690D01*
X36193000Y15967000D01*
X35971000Y15967000D01*
X35753266Y15923690D01*
X35548165Y15838734D01*
X35363579Y15715398D01*
X35206602Y15558421D01*
X35083266Y15373835D01*
X34998310Y15168734D01*
X34955000Y14951000D01*
X34669000Y14951000D01*
X34625690Y15168734D01*
X34540734Y15373835D01*
X34417398Y15558421D01*
X34260421Y15715398D01*
X34075835Y15838734D01*
X33870734Y15923690D01*
X33653000Y15967000D01*
X33431000Y15967000D01*
X33213266Y15923690D01*
X33008165Y15838734D01*
X32823579Y15715398D01*
X32666602Y15558421D01*
X32543266Y15373835D01*
X32458310Y15168734D01*
X32415000Y14951000D01*
X13021550Y14951000D01*
X13027000Y14978397D01*
X13027000Y15121603D01*
X12999062Y15262058D01*
X12944259Y15394364D01*
X12864698Y15513436D01*
X12763436Y15614698D01*
X12644364Y15694259D01*
X12512058Y15749062D01*
X12371603Y15777000D01*
X12228397Y15777000D01*
X12087942Y15749062D01*
X11955636Y15694259D01*
X11836564Y15614698D01*
X11735302Y15513436D01*
X11655741Y15394364D01*
X11600938Y15262058D01*
X11573000Y15121603D01*
X10025794Y15121603D01*
X9962727Y15239592D01*
X9853133Y15373133D01*
X9719592Y15482727D01*
X9567237Y15564162D01*
X9401922Y15614310D01*
X9230000Y15631243D01*
X9058079Y15614310D01*
X8892764Y15564162D01*
X8740409Y15482727D01*
X8606868Y15373133D01*
X8598738Y15363226D01*
X8613586Y15406978D01*
X8629698Y15529431D01*
X8621611Y15652674D01*
X8589636Y15771971D01*
X8573894Y15809978D01*
X8476034Y15846429D01*
X8179605Y15550000D01*
X8193748Y15535857D01*
X8014143Y15356252D01*
X8000000Y15370395D01*
X7836334Y15206729D01*
X7817111Y15202905D01*
X7703004Y15155640D01*
X7600311Y15087023D01*
X7512977Y14999689D01*
X7444360Y14896996D01*
X7397095Y14782889D01*
X7373000Y14661754D01*
X7227000Y14661754D01*
X7202905Y14782889D01*
X7155640Y14896996D01*
X7087023Y14999689D01*
X6999689Y15087023D01*
X6896996Y15155640D01*
X6782889Y15202905D01*
X6763666Y15206729D01*
X6600000Y15370395D01*
X6585858Y15356252D01*
X6406253Y15535857D01*
X6420395Y15550000D01*
X6779605Y15550000D01*
X7076034Y15253571D01*
X7173894Y15290022D01*
X7213586Y15406978D01*
X7229698Y15529431D01*
X7226999Y15570569D01*
X7370302Y15570569D01*
X7378389Y15447326D01*
X7410364Y15328029D01*
X7426106Y15290022D01*
X7523966Y15253571D01*
X7820395Y15550000D01*
X7523966Y15846429D01*
X7426106Y15809978D01*
X7386414Y15693022D01*
X7370302Y15570569D01*
X7226999Y15570569D01*
X7221611Y15652674D01*
X7189636Y15771971D01*
X7173894Y15809978D01*
X7076034Y15846429D01*
X6779605Y15550000D01*
X6420395Y15550000D01*
X6123966Y15846429D01*
X6026106Y15809978D01*
X5986414Y15693022D01*
X5970302Y15570569D01*
X5978389Y15447326D01*
X6000769Y15363829D01*
X5993133Y15373133D01*
X5859592Y15482727D01*
X5707237Y15564162D01*
X5541922Y15614310D01*
X5370000Y15631243D01*
X5198079Y15614310D01*
X5032764Y15564162D01*
X4880409Y15482727D01*
X4746868Y15373133D01*
X4637274Y15239592D01*
X4555839Y15087237D01*
X4505691Y14921922D01*
X4493000Y14793079D01*
X2802000Y14793079D01*
X2802000Y16026034D01*
X6303571Y16026034D01*
X6600000Y15729605D01*
X6896429Y16026034D01*
X7703571Y16026034D01*
X8000000Y15729605D01*
X8132149Y15861754D01*
X16973000Y15861754D01*
X16973000Y15738246D01*
X16997095Y15617111D01*
X17044360Y15503004D01*
X17112977Y15400311D01*
X17200311Y15312977D01*
X17303004Y15244360D01*
X17417111Y15197095D01*
X17538246Y15173000D01*
X17661754Y15173000D01*
X17782889Y15197095D01*
X17896996Y15244360D01*
X17999689Y15312977D01*
X18087023Y15400311D01*
X18155640Y15503004D01*
X18202905Y15617111D01*
X18227000Y15738246D01*
X18227000Y15861754D01*
X18202905Y15982889D01*
X18155640Y16096996D01*
X18087023Y16199689D01*
X17999689Y16287023D01*
X17896996Y16355640D01*
X17782889Y16402905D01*
X17661754Y16427000D01*
X17538246Y16427000D01*
X17417111Y16402905D01*
X17303004Y16355640D01*
X17200311Y16287023D01*
X17112977Y16199689D01*
X17044360Y16096996D01*
X16997095Y15982889D01*
X16973000Y15861754D01*
X8132149Y15861754D01*
X8296429Y16026034D01*
X8259978Y16123894D01*
X8143022Y16163586D01*
X8020569Y16179698D01*
X7897326Y16171611D01*
X7778029Y16139636D01*
X7740022Y16123894D01*
X7703571Y16026034D01*
X6896429Y16026034D01*
X6859978Y16123894D01*
X6743022Y16163586D01*
X6620569Y16179698D01*
X6497326Y16171611D01*
X6378029Y16139636D01*
X6340022Y16123894D01*
X6303571Y16026034D01*
X2802000Y16026034D01*
X2802000Y16866679D01*
X18623000Y16866679D01*
X18623000Y16733321D01*
X18649016Y16602526D01*
X18700050Y16479320D01*
X18774140Y16368437D01*
X18868437Y16274140D01*
X18979320Y16200050D01*
X19102526Y16149016D01*
X19233321Y16123000D01*
X19366679Y16123000D01*
X19497474Y16149016D01*
X19620680Y16200050D01*
X19731563Y16274140D01*
X19825860Y16368437D01*
X19899950Y16479320D01*
X19950984Y16602526D01*
X19962764Y16661754D01*
X19998000Y16661754D01*
X19998000Y16538246D01*
X20022095Y16417111D01*
X20069360Y16303004D01*
X20137977Y16200311D01*
X20225311Y16112977D01*
X20328004Y16044360D01*
X20442111Y15997095D01*
X20563246Y15973000D01*
X20686754Y15973000D01*
X20807889Y15997095D01*
X20921996Y16044360D01*
X21024689Y16112977D01*
X21050000Y16138288D01*
X21075311Y16112977D01*
X21178004Y16044360D01*
X21292111Y15997095D01*
X21413246Y15973000D01*
X21536754Y15973000D01*
X21657889Y15997095D01*
X21771996Y16044360D01*
X21874689Y16112977D01*
X21962023Y16200311D01*
X22030640Y16303004D01*
X22077905Y16417111D01*
X22102000Y16538246D01*
X22102000Y16661754D01*
X22077905Y16782889D01*
X22043198Y16866679D01*
X23623000Y16866679D01*
X23623000Y16733321D01*
X23649016Y16602526D01*
X23700050Y16479320D01*
X23774140Y16368437D01*
X23868437Y16274140D01*
X23979320Y16200050D01*
X24102526Y16149016D01*
X24233321Y16123000D01*
X24366679Y16123000D01*
X24497474Y16149016D01*
X24528226Y16161754D01*
X26873000Y16161754D01*
X26873000Y16038246D01*
X26897095Y15917111D01*
X26944360Y15803004D01*
X27012977Y15700311D01*
X27100311Y15612977D01*
X27203004Y15544360D01*
X27317111Y15497095D01*
X27438246Y15473000D01*
X27561754Y15473000D01*
X27682889Y15497095D01*
X27796996Y15544360D01*
X27899689Y15612977D01*
X27987023Y15700311D01*
X28055640Y15803004D01*
X28102905Y15917111D01*
X28127000Y16038246D01*
X28127000Y16161754D01*
X28102905Y16282889D01*
X28055640Y16396996D01*
X27987023Y16499689D01*
X27899689Y16587023D01*
X27796996Y16655640D01*
X27682889Y16702905D01*
X27561754Y16727000D01*
X27438246Y16727000D01*
X27317111Y16702905D01*
X27203004Y16655640D01*
X27100311Y16587023D01*
X27012977Y16499689D01*
X26944360Y16396996D01*
X26897095Y16282889D01*
X26873000Y16161754D01*
X24528226Y16161754D01*
X24620680Y16200050D01*
X24731563Y16274140D01*
X24825860Y16368437D01*
X24899950Y16479320D01*
X24950984Y16602526D01*
X24977000Y16733321D01*
X24977000Y16866679D01*
X24950984Y16997474D01*
X24899950Y17120680D01*
X24825860Y17231563D01*
X24731563Y17325860D01*
X24620680Y17399950D01*
X24497474Y17450984D01*
X24366679Y17477000D01*
X24233321Y17477000D01*
X24102526Y17450984D01*
X23979320Y17399950D01*
X23868437Y17325860D01*
X23774140Y17231563D01*
X23700050Y17120680D01*
X23649016Y16997474D01*
X23623000Y16866679D01*
X22043198Y16866679D01*
X22030640Y16896996D01*
X21962023Y16999689D01*
X21874689Y17087023D01*
X21771996Y17155640D01*
X21657889Y17202905D01*
X21536754Y17227000D01*
X21413246Y17227000D01*
X21292111Y17202905D01*
X21178004Y17155640D01*
X21075311Y17087023D01*
X21050000Y17061712D01*
X21024689Y17087023D01*
X20921996Y17155640D01*
X20807889Y17202905D01*
X20686754Y17227000D01*
X20563246Y17227000D01*
X20442111Y17202905D01*
X20328004Y17155640D01*
X20225311Y17087023D01*
X20137977Y16999689D01*
X20069360Y16896996D01*
X20022095Y16782889D01*
X19998000Y16661754D01*
X19962764Y16661754D01*
X19977000Y16733321D01*
X19977000Y16866679D01*
X19950984Y16997474D01*
X19899950Y17120680D01*
X19825860Y17231563D01*
X19731563Y17325860D01*
X19620680Y17399950D01*
X19611224Y17403867D01*
X19699689Y17462977D01*
X19787023Y17550311D01*
X19855640Y17653004D01*
X19902905Y17767111D01*
X19927000Y17888246D01*
X19927000Y18011754D01*
X19902905Y18132889D01*
X19862681Y18230000D01*
X32413660Y18230000D01*
X32413660Y16530000D01*
X32419008Y16475699D01*
X32434847Y16423484D01*
X32460569Y16375363D01*
X32495184Y16333184D01*
X32537363Y16298569D01*
X32585484Y16272847D01*
X32637699Y16257008D01*
X32692000Y16251660D01*
X34392000Y16251660D01*
X34446301Y16257008D01*
X34498516Y16272847D01*
X34546637Y16298569D01*
X34588816Y16333184D01*
X34623431Y16375363D01*
X34649153Y16423484D01*
X34664992Y16475699D01*
X34670340Y16530000D01*
X34670340Y17491000D01*
X34955000Y17491000D01*
X34955000Y17269000D01*
X34998310Y17051266D01*
X35083266Y16846165D01*
X35206602Y16661579D01*
X35363579Y16504602D01*
X35548165Y16381266D01*
X35753266Y16296310D01*
X35971000Y16253000D01*
X36193000Y16253000D01*
X36410734Y16296310D01*
X36615835Y16381266D01*
X36800421Y16504602D01*
X36957398Y16661579D01*
X37080734Y16846165D01*
X37165690Y17051266D01*
X37209000Y17269000D01*
X37209000Y17491000D01*
X37165690Y17708734D01*
X37080734Y17913835D01*
X36957398Y18098421D01*
X36800421Y18255398D01*
X36615835Y18378734D01*
X36410734Y18463690D01*
X36193000Y18507000D01*
X35971000Y18507000D01*
X35753266Y18463690D01*
X35548165Y18378734D01*
X35363579Y18255398D01*
X35206602Y18098421D01*
X35083266Y17913835D01*
X34998310Y17708734D01*
X34955000Y17491000D01*
X34670340Y17491000D01*
X34670340Y18230000D01*
X34664992Y18284301D01*
X34649153Y18336516D01*
X34623431Y18384637D01*
X34588816Y18426816D01*
X34546637Y18461431D01*
X34498516Y18487153D01*
X34446301Y18502992D01*
X34392000Y18508340D01*
X32692000Y18508340D01*
X32637699Y18502992D01*
X32585484Y18487153D01*
X32537363Y18461431D01*
X32495184Y18426816D01*
X32460569Y18384637D01*
X32434847Y18336516D01*
X32419008Y18284301D01*
X32413660Y18230000D01*
X19862681Y18230000D01*
X19855640Y18246996D01*
X19787023Y18349689D01*
X19699689Y18437023D01*
X19596996Y18505640D01*
X19482889Y18552905D01*
X19361754Y18577000D01*
X19238246Y18577000D01*
X19117111Y18552905D01*
X19003004Y18505640D01*
X18900311Y18437023D01*
X18812977Y18349689D01*
X18744360Y18246996D01*
X18697095Y18132889D01*
X18673000Y18011754D01*
X18673000Y17888246D01*
X18697095Y17767111D01*
X18744360Y17653004D01*
X18812977Y17550311D01*
X18900311Y17462977D01*
X18988776Y17403867D01*
X18979320Y17399950D01*
X18868437Y17325860D01*
X18774140Y17231563D01*
X18700050Y17120680D01*
X18649016Y16997474D01*
X18623000Y16866679D01*
X2802000Y16866679D01*
X2802000Y19300000D01*
X3611660Y19300000D01*
X3617008Y19245699D01*
X3632847Y19193484D01*
X3658569Y19145363D01*
X3693184Y19103184D01*
X3735363Y19068569D01*
X3783484Y19042847D01*
X3835699Y19027008D01*
X3890000Y19021660D01*
X4193750Y19023000D01*
X4263000Y19092250D01*
X4263000Y19673000D01*
X3682250Y19673000D01*
X3613000Y19603750D01*
X3611660Y19300000D01*
X2802000Y19300000D01*
X2802000Y20300000D01*
X3611660Y20300000D01*
X3613000Y19996250D01*
X3682250Y19927000D01*
X4263000Y19927000D01*
X4263000Y20507750D01*
X4517000Y20507750D01*
X4517000Y19927000D01*
X4537000Y19927000D01*
X4537000Y19673000D01*
X4517000Y19673000D01*
X4517000Y19092250D01*
X4586250Y19023000D01*
X4890000Y19021660D01*
X4944301Y19027008D01*
X4996516Y19042847D01*
X5044637Y19068569D01*
X5086816Y19103184D01*
X5121431Y19145363D01*
X5147153Y19193484D01*
X5151928Y19209227D01*
X5164691Y19196464D01*
X5291952Y19111431D01*
X5433357Y19052859D01*
X5583472Y19023000D01*
X5736528Y19023000D01*
X5886643Y19052859D01*
X6028048Y19111431D01*
X6155309Y19196464D01*
X6263536Y19304691D01*
X6295000Y19351780D01*
X6326464Y19304691D01*
X6434691Y19196464D01*
X6561952Y19111431D01*
X6703357Y19052859D01*
X6853472Y19023000D01*
X7006528Y19023000D01*
X7156643Y19052859D01*
X7298048Y19111431D01*
X7425309Y19196464D01*
X7533536Y19304691D01*
X7565000Y19351780D01*
X7596464Y19304691D01*
X7704691Y19196464D01*
X7831952Y19111431D01*
X7973357Y19052859D01*
X8123472Y19023000D01*
X8276528Y19023000D01*
X8426643Y19052859D01*
X8568048Y19111431D01*
X8695309Y19196464D01*
X8803536Y19304691D01*
X8888569Y19431952D01*
X8947141Y19573357D01*
X8977000Y19723472D01*
X8977000Y19876528D01*
X8947141Y20026643D01*
X8888569Y20168048D01*
X8803536Y20295309D01*
X8695309Y20403536D01*
X8568048Y20488569D01*
X8426643Y20547141D01*
X8276528Y20577000D01*
X8123472Y20577000D01*
X7973357Y20547141D01*
X7831952Y20488569D01*
X7704691Y20403536D01*
X7596464Y20295309D01*
X7565000Y20248220D01*
X7533536Y20295309D01*
X7425309Y20403536D01*
X7298048Y20488569D01*
X7156643Y20547141D01*
X7006528Y20577000D01*
X6853472Y20577000D01*
X6703357Y20547141D01*
X6561952Y20488569D01*
X6434691Y20403536D01*
X6326464Y20295309D01*
X6295000Y20248220D01*
X6263536Y20295309D01*
X6155309Y20403536D01*
X6028048Y20488569D01*
X5886643Y20547141D01*
X5736528Y20577000D01*
X5583472Y20577000D01*
X5433357Y20547141D01*
X5291952Y20488569D01*
X5164691Y20403536D01*
X5151928Y20390773D01*
X5147153Y20406516D01*
X5121431Y20454637D01*
X5086816Y20496816D01*
X5044637Y20531431D01*
X4996516Y20557153D01*
X4944301Y20572992D01*
X4890000Y20578340D01*
X4586250Y20577000D01*
X4517000Y20507750D01*
X4263000Y20507750D01*
X4193750Y20577000D01*
X3890000Y20578340D01*
X3835699Y20572992D01*
X3783484Y20557153D01*
X3735363Y20531431D01*
X3693184Y20496816D01*
X3658569Y20454637D01*
X3632847Y20406516D01*
X3617008Y20354301D01*
X3611660Y20300000D01*
X2802000Y20300000D01*
X2802000Y21285226D01*
X2812906Y21396447D01*
X2840916Y21489222D01*
X2886409Y21574784D01*
X2947661Y21649887D01*
X3022334Y21711662D01*
X3107580Y21757754D01*
X3200157Y21786410D01*
X3310428Y21798000D01*
X9339386Y21798000D01*
X9445723Y21350383D01*
X9454602Y21324543D01*
X9463150Y21298489D01*
X9464877Y21294642D01*
X9684531Y20814070D01*
X9698253Y20790460D01*
X9711705Y20766549D01*
X9714146Y20763111D01*
X10022961Y20334354D01*
X10041008Y20313858D01*
X10058848Y20293017D01*
X10061910Y20290118D01*
X10448122Y19929511D01*
X10469825Y19912897D01*
X10491355Y19895932D01*
X10494922Y19893683D01*
X10943821Y19614959D01*
X10968325Y19602882D01*
X10992753Y19590416D01*
X10996689Y19588902D01*
X11491178Y19402678D01*
X11517600Y19395581D01*
X11543944Y19388108D01*
X11548099Y19387388D01*
X12069340Y19300757D01*
X12096609Y19298928D01*
X12123932Y19296712D01*
X12128148Y19296813D01*
X12128149Y19296813D01*
X12656289Y19313074D01*
X12683351Y19316572D01*
X12710627Y19319710D01*
X12714743Y19320628D01*
X12914791Y19366679D01*
X14373000Y19366679D01*
X14373000Y19233321D01*
X14399016Y19102526D01*
X14450050Y18979320D01*
X14524140Y18868437D01*
X14618437Y18774140D01*
X14729320Y18700050D01*
X14852526Y18649016D01*
X14983321Y18623000D01*
X15116679Y18623000D01*
X15247474Y18649016D01*
X15370680Y18700050D01*
X15481563Y18774140D01*
X15575860Y18868437D01*
X15649950Y18979320D01*
X15700984Y19102526D01*
X15727000Y19233321D01*
X15727000Y19366679D01*
X15700984Y19497474D01*
X15649950Y19620680D01*
X15575860Y19731563D01*
X15481563Y19825860D01*
X15370680Y19899950D01*
X15247474Y19950984D01*
X15116679Y19977000D01*
X14983321Y19977000D01*
X14852526Y19950984D01*
X14729320Y19899950D01*
X14618437Y19825860D01*
X14524140Y19731563D01*
X14450050Y19620680D01*
X14399016Y19497474D01*
X14373000Y19366679D01*
X12914791Y19366679D01*
X13229667Y19439163D01*
X13255553Y19447857D01*
X13281682Y19456227D01*
X13285541Y19457927D01*
X13767635Y19674221D01*
X13791360Y19687789D01*
X13815344Y19701063D01*
X13818799Y19703480D01*
X14249700Y20009293D01*
X14270332Y20027206D01*
X14291287Y20044891D01*
X14294208Y20047933D01*
X14657503Y20431619D01*
X14674278Y20453218D01*
X14691383Y20474617D01*
X14693657Y20478168D01*
X14975508Y20925110D01*
X14987755Y20949527D01*
X15000392Y20973869D01*
X15001932Y20977795D01*
X15191604Y21470970D01*
X15198876Y21497305D01*
X15206543Y21523634D01*
X15207292Y21527784D01*
X15254144Y21798000D01*
X29814833Y21798000D01*
X29827578Y21799255D01*
X29828766Y21799247D01*
X29832962Y21799659D01*
X29852122Y21801673D01*
X29859202Y21802370D01*
X29859438Y21802442D01*
X29871783Y21803739D01*
X29898547Y21809233D01*
X29925481Y21814371D01*
X29929518Y21815590D01*
X29966805Y21827133D01*
X29991971Y21837712D01*
X30017416Y21847992D01*
X30021139Y21849972D01*
X30055475Y21868537D01*
X30078125Y21883815D01*
X30101077Y21898834D01*
X30104345Y21901500D01*
X30134420Y21926381D01*
X30153701Y21945798D01*
X30173261Y21964953D01*
X30175949Y21968202D01*
X30200619Y21998451D01*
X30215751Y22021227D01*
X30231228Y22043831D01*
X30233234Y22047541D01*
X30251559Y22082005D01*
X30261982Y22107293D01*
X30272772Y22132468D01*
X30274019Y22136497D01*
X30285301Y22173864D01*
X30290609Y22200671D01*
X30296309Y22227489D01*
X30296750Y22231683D01*
X30300559Y22270530D01*
X30316746Y22435623D01*
X30923000Y22435623D01*
X30923000Y22164377D01*
X30975917Y21898344D01*
X31079718Y21647746D01*
X31230414Y21422213D01*
X31422213Y21230414D01*
X31647746Y21079718D01*
X31898344Y20975917D01*
X32164377Y20923000D01*
X32435623Y20923000D01*
X32701656Y20975917D01*
X32952254Y21079718D01*
X33177787Y21230414D01*
X33369586Y21422213D01*
X33520282Y21647746D01*
X33624083Y21898344D01*
X33677000Y22164377D01*
X33677000Y22435623D01*
X33624083Y22701656D01*
X33520282Y22952254D01*
X33369586Y23177787D01*
X33177787Y23369586D01*
X32952254Y23520282D01*
X32701656Y23624083D01*
X32435623Y23677000D01*
X32164377Y23677000D01*
X31898344Y23624083D01*
X31647746Y23520282D01*
X31422213Y23369586D01*
X31230414Y23177787D01*
X31079718Y22952254D01*
X30975917Y22701656D01*
X30923000Y22435623D01*
X30316746Y22435623D01*
X30341473Y22687802D01*
X30454096Y23060827D01*
X30637029Y23404874D01*
X30883305Y23706839D01*
X31183540Y23955215D01*
X31526307Y24140548D01*
X31898536Y24255772D01*
X32286064Y24296503D01*
X32674115Y24261188D01*
G37*
%TD.AperFunction*%
%TD*%
D23*
X12350000Y9050000D03*
D24*
X20600000Y13000000D03*
X22000000Y13000000D03*
X22000000Y11600000D03*
X20600000Y11600000D03*
X14600000Y13100000D03*
X14600000Y13800000D03*
X10800000Y9800000D03*
X11550000Y9800000D03*
X10800000Y14800000D03*
X15300000Y17300000D03*
X15300000Y16550000D03*
X12300000Y16550000D03*
X12300000Y17300000D03*
X15300000Y7800000D03*
X15300000Y7050000D03*
X12300000Y7800000D03*
X12300000Y7050000D03*
X10800000Y15800000D03*
X7300000Y21300000D03*
X19800000Y21300000D03*
X24800000Y21300000D03*
X27300000Y21300000D03*
X29800000Y21300000D03*
X34800000Y21300000D03*
X37300000Y21300000D03*
X39800000Y21300000D03*
X41300000Y19800000D03*
X41300000Y17300000D03*
X41300000Y7300000D03*
X41300000Y4800000D03*
X39800000Y3300000D03*
X37300000Y3300000D03*
X34800000Y3300000D03*
X29800000Y3300000D03*
X27300000Y3300000D03*
X24800000Y3300000D03*
X22300000Y3300000D03*
X19800000Y3300000D03*
X17300000Y3300000D03*
X7300000Y3300000D03*
X4800000Y3300000D03*
X3300000Y4800000D03*
X3300000Y7300000D03*
X3300000Y9800000D03*
X3300000Y14800000D03*
X3300000Y17300000D03*
X3300000Y19800000D03*
X4800000Y21300000D03*
X5800000Y17300000D03*
X8800000Y7300000D03*
X5550000Y6050000D03*
X6550000Y6050000D03*
X7550000Y6050000D03*
X5550000Y5050000D03*
X6550000Y5050000D03*
X7550000Y5050000D03*
X26550000Y19550000D03*
X27550000Y19550000D03*
X28550000Y19550000D03*
X26550000Y18550000D03*
X27550000Y18550000D03*
X28550000Y18550000D03*
X38050000Y19300000D03*
X39050000Y19300000D03*
X38050000Y18300000D03*
X39050000Y18300000D03*
X30550000Y11800000D03*
X31550000Y11800000D03*
X30550000Y12800000D03*
X31550000Y12800000D03*
X30550000Y9800000D03*
X31550000Y9800000D03*
X30550000Y8800000D03*
X31550000Y8800000D03*
X29050000Y14050000D03*
X29800000Y14800000D03*
X25050000Y15800000D03*
X26050000Y15800000D03*
X22300000Y7550000D03*
X24050000Y7550000D03*
X24800000Y6550000D03*
X24300000Y15300000D03*
X16050000Y7800000D03*
X16050000Y7050000D03*
X18050000Y8300000D03*
X20800000Y4300000D03*
X22050000Y4800000D03*
X23300000Y4800000D03*
X27800000Y6550000D03*
X27800000Y9550000D03*
X19050000Y18800000D03*
X21300000Y20800000D03*
X21300000Y20050000D03*
X28800000Y6550000D03*
X27800000Y5550000D03*
X28800000Y5550000D03*
X29800000Y6550000D03*
X29800000Y5550000D03*
X31550000Y13800000D03*
D23*
X19300000Y16800000D03*
X24300000Y16800000D03*
X12300000Y15050000D03*
X18050000Y9300000D03*
X27500000Y16100000D03*
X27800000Y8550000D03*
X15050000Y19300000D03*
X24200000Y5900000D03*
X12600000Y12725000D03*
X20625000Y16600000D03*
X12600000Y11875000D03*
X21475000Y16600000D03*
X27800000Y12800000D03*
X25050000Y7550000D03*
X20900000Y8200000D03*
X19300000Y17950000D03*
X17600000Y15800000D03*
X32300000Y2300000D03*
X32300000Y22300000D03*
X2300000Y12300000D03*
X36082000Y7220000D03*
X33542000Y7220000D03*
X36082000Y9760000D03*
X33542000Y9760000D03*
X36082000Y12300000D03*
X33542000Y12300000D03*
X36082000Y14840000D03*
X33542000Y14840000D03*
X36082000Y17380000D03*
X33542000Y17380000D03*
X8200000Y19800000D03*
X6930000Y19800000D03*
X5660000Y19800000D03*
X4390000Y19800000D03*
X6600000Y15550000D03*
X6600000Y14600000D03*
X6600000Y12750000D03*
X6600000Y11850000D03*
X6600000Y10950000D03*
X6600000Y10000000D03*
X6600000Y9050000D03*
X8000000Y9050000D03*
X8000000Y10000000D03*
X8000000Y11850000D03*
X8000000Y12750000D03*
X8000000Y13650000D03*
X8000000Y14600000D03*
X8000000Y15550000D03*
D25*
X5370000Y10300000D03*
X9230000Y10300000D03*
X5370000Y14300000D03*
X9230000Y14300000D03*
M02*
