%TF.GenerationSoftware,KiCad,Pcbnew,6.0.7+dfsg-1~bpo11+1*%
%TF.CreationDate,2022-09-22T06:20:52+00:00*%
%TF.ProjectId,0102-TILEDAP,30313032-2d54-4494-9c45-4441502e6b69,V1.4*%
%TF.SameCoordinates,Original*%
%TF.FileFunction,Soldermask,Top*%
%TF.FilePolarity,Negative*%
%FSLAX46Y46*%
G04 Gerber Fmt 4.6, Leading zero omitted, Abs format (unit mm)*
G04 Created by KiCad (PCBNEW 6.0.7+dfsg-1~bpo11+1) date 2022-09-22 06:20:52*
%MOMM*%
%LPD*%
G01*
G04 APERTURE LIST*
G04 Aperture macros list*
%AMRoundRect*
0 Rectangle with rounded corners*
0 $1 Rounding radius*
0 $2 $3 $4 $5 $6 $7 $8 $9 X,Y pos of 4 corners*
0 Add a 4 corners polygon primitive as box body*
4,1,4,$2,$3,$4,$5,$6,$7,$8,$9,$2,$3,0*
0 Add four circle primitives for the rounded corners*
1,1,$1+$1,$2,$3*
1,1,$1+$1,$4,$5*
1,1,$1+$1,$6,$7*
1,1,$1+$1,$8,$9*
0 Add four rect primitives between the rounded corners*
20,1,$1+$1,$2,$3,$4,$5,0*
20,1,$1+$1,$4,$5,$6,$7,0*
20,1,$1+$1,$6,$7,$8,$9,0*
20,1,$1+$1,$8,$9,$2,$3,0*%
G04 Aperture macros list end*
%ADD10RoundRect,0.190000X-0.140000X-0.170000X0.140000X-0.170000X0.140000X0.170000X-0.140000X0.170000X0*%
%ADD11RoundRect,0.300000X-0.250000X-0.475000X0.250000X-0.475000X0.250000X0.475000X-0.250000X0.475000X0*%
%ADD12RoundRect,0.190000X0.170000X-0.140000X0.170000X0.140000X-0.170000X0.140000X-0.170000X-0.140000X0*%
%ADD13RoundRect,0.190000X-0.170000X0.140000X-0.170000X-0.140000X0.170000X-0.140000X0.170000X0.140000X0*%
%ADD14RoundRect,0.190000X0.140000X0.170000X-0.140000X0.170000X-0.140000X-0.170000X0.140000X-0.170000X0*%
%ADD15RoundRect,0.268750X0.256250X-0.218750X0.256250X0.218750X-0.256250X0.218750X-0.256250X-0.218750X0*%
%ADD16C,0.750000*%
%ADD17RoundRect,0.050000X-0.725000X0.300000X-0.725000X-0.300000X0.725000X-0.300000X0.725000X0.300000X0*%
%ADD18RoundRect,0.050000X-0.725000X0.150000X-0.725000X-0.150000X0.725000X-0.150000X0.725000X0.150000X0*%
%ADD19RoundRect,0.400000X-0.700000X0.350000X-0.700000X-0.350000X0.700000X-0.350000X0.700000X0.350000X0*%
%ADD20RoundRect,0.400000X-0.650000X0.350000X-0.650000X-0.350000X0.650000X-0.350000X0.650000X0.350000X0*%
%ADD21RoundRect,0.185000X0.135000X0.185000X-0.135000X0.185000X-0.135000X-0.185000X0.135000X-0.185000X0*%
%ADD22RoundRect,0.185000X-0.135000X-0.185000X0.135000X-0.185000X0.135000X0.185000X-0.135000X0.185000X0*%
%ADD23RoundRect,0.185000X0.185000X-0.135000X0.185000X0.135000X-0.185000X0.135000X-0.185000X-0.135000X0*%
%ADD24RoundRect,0.050000X-0.500000X0.550000X-0.500000X-0.550000X0.500000X-0.550000X0.500000X0.550000X0*%
%ADD25RoundRect,0.200000X0.512500X0.150000X-0.512500X0.150000X-0.512500X-0.150000X0.512500X-0.150000X0*%
%ADD26RoundRect,0.112500X0.062500X-0.475000X0.062500X0.475000X-0.062500X0.475000X-0.062500X-0.475000X0*%
%ADD27RoundRect,0.112500X0.475000X-0.062500X0.475000X0.062500X-0.475000X0.062500X-0.475000X-0.062500X0*%
%ADD28RoundRect,0.050000X2.050000X-2.050000X2.050000X2.050000X-2.050000X2.050000X-2.050000X-2.050000X0*%
%ADD29RoundRect,0.050000X-0.600000X-0.450000X0.600000X-0.450000X0.600000X0.450000X-0.600000X0.450000X0*%
%ADD30RoundRect,0.050000X-0.850000X-0.850000X0.850000X-0.850000X0.850000X0.850000X-0.850000X0.850000X0*%
%ADD31O,1.800000X1.800000*%
%ADD32RoundRect,0.200000X-0.150000X0.587500X-0.150000X-0.587500X0.150000X-0.587500X0.150000X0.587500X0*%
%ADD33RoundRect,0.185000X-0.185000X0.135000X-0.185000X-0.135000X0.185000X-0.135000X0.185000X0.135000X0*%
%ADD34RoundRect,0.050000X-0.500000X0.500000X-0.500000X-0.500000X0.500000X-0.500000X0.500000X0.500000X0*%
%ADD35O,1.100000X1.100000*%
G04 APERTURE END LIST*
D10*
%TO.C,C2*%
X9820000Y8250000D03*
X10780000Y8250000D03*
%TD*%
D11*
%TO.C,C3*%
X6850000Y3300000D03*
X8750000Y3300000D03*
%TD*%
D12*
%TO.C,C4*%
X21300000Y3340000D03*
X21300000Y4300000D03*
%TD*%
D13*
%TO.C,C5*%
X22300000Y15260000D03*
X22300000Y14300000D03*
%TD*%
%TO.C,C7*%
X16800000Y15260000D03*
X16800000Y14300000D03*
%TD*%
D14*
%TO.C,C12*%
X24760000Y11050000D03*
X23800000Y11050000D03*
%TD*%
%TO.C,C13*%
X24760000Y4050000D03*
X23800000Y4050000D03*
%TD*%
D15*
%TO.C,D1*%
X24800000Y17012500D03*
X24800000Y18587500D03*
%TD*%
%TO.C,D3*%
X21300000Y17012500D03*
X21300000Y18587500D03*
%TD*%
D16*
%TO.C,J1*%
X6340000Y6900000D03*
X6340000Y12700000D03*
D17*
X7785000Y13000000D03*
X7785000Y12200000D03*
D18*
X7785000Y11050000D03*
X7785000Y10050000D03*
X7785000Y9550000D03*
X7785000Y8550000D03*
D17*
X7785000Y7400000D03*
X7785000Y6600000D03*
X7785000Y6600000D03*
X7785000Y7400000D03*
D18*
X7785000Y8050000D03*
X7785000Y9050000D03*
X7785000Y10550000D03*
X7785000Y11550000D03*
D17*
X7785000Y12200000D03*
X7785000Y13000000D03*
D19*
X6870000Y14325000D03*
D20*
X2890000Y5275000D03*
X2890000Y14325000D03*
D19*
X6870000Y5275000D03*
%TD*%
D21*
%TO.C,R1*%
X11320000Y11550000D03*
X10300000Y11550000D03*
%TD*%
D22*
%TO.C,R2*%
X11790000Y8250000D03*
X12810000Y8250000D03*
%TD*%
D21*
%TO.C,R3*%
X11320000Y12550000D03*
X10300000Y12550000D03*
%TD*%
D23*
%TO.C,R11*%
X21300000Y14300000D03*
X21300000Y15320000D03*
%TD*%
D22*
%TO.C,R12*%
X23800000Y12050000D03*
X24820000Y12050000D03*
%TD*%
%TO.C,R13*%
X23800000Y5050000D03*
X24820000Y5050000D03*
%TD*%
D23*
%TO.C,R15*%
X20300000Y14300000D03*
X20300000Y15320000D03*
%TD*%
D24*
%TO.C,SW1*%
X27300000Y13450000D03*
X27300000Y6150000D03*
%TD*%
D25*
%TO.C,U1*%
X12437500Y5100000D03*
X12437500Y6050000D03*
X12437500Y7000000D03*
X10162500Y7000000D03*
X10162500Y5100000D03*
%TD*%
D12*
%TO.C,C8*%
X19950000Y3320000D03*
X19950000Y4280000D03*
%TD*%
D13*
%TO.C,C11*%
X15150000Y4280000D03*
X15150000Y3320000D03*
%TD*%
D21*
%TO.C,R6*%
X24820000Y6050000D03*
X23800000Y6050000D03*
%TD*%
%TO.C,R7*%
X24819999Y7050000D03*
X23799999Y7050000D03*
%TD*%
%TO.C,R9*%
X24819999Y9300000D03*
X23799999Y9300000D03*
%TD*%
D26*
%TO.C,U2*%
X17300000Y6962500D03*
X17800000Y6962500D03*
X18300000Y6962500D03*
X18800000Y6962500D03*
X19300000Y6962500D03*
X19800000Y6962500D03*
X20300000Y6962500D03*
X20800000Y6962500D03*
X21300000Y6962500D03*
D27*
X22137500Y7800000D03*
X22137500Y8300000D03*
X22137500Y8800000D03*
X22137500Y9300000D03*
X22137500Y9800000D03*
X22137500Y10300000D03*
X22137500Y10800000D03*
X22137500Y11300000D03*
X22137500Y11800000D03*
D26*
X21300000Y12637500D03*
X20800000Y12637500D03*
X20300000Y12637500D03*
X19800000Y12637500D03*
X19300000Y12637500D03*
X18800000Y12637500D03*
X18300000Y12637500D03*
X17800000Y12637500D03*
X17300000Y12637500D03*
D27*
X16462500Y11800000D03*
X16462500Y11300000D03*
X16462500Y10800000D03*
X16462500Y10300000D03*
X16462500Y9800000D03*
X16462500Y9300000D03*
X16462500Y8800000D03*
X16462500Y8300000D03*
X16462500Y7800000D03*
D28*
X19300000Y9800000D03*
%TD*%
D29*
%TO.C,Y1*%
X16450000Y2920000D03*
X18650000Y2920000D03*
X18650000Y4680000D03*
X16450000Y4680000D03*
%TD*%
D30*
%TO.C,J3*%
X33525000Y14880000D03*
D31*
X36065000Y14880000D03*
X33525000Y12340000D03*
X36065000Y12340000D03*
X33525000Y9800000D03*
X36065000Y9800000D03*
X33525000Y7260000D03*
X36065000Y7260000D03*
X33525000Y4720000D03*
X36065000Y4720000D03*
%TD*%
D11*
%TO.C,C1*%
X10350000Y3300000D03*
X12250000Y3300000D03*
%TD*%
D32*
%TO.C,Q1*%
X14750000Y15737500D03*
X12850000Y15737500D03*
X13800000Y13862500D03*
%TD*%
D23*
%TO.C,R14*%
X14800000Y11300000D03*
X14800000Y12320000D03*
%TD*%
D33*
%TO.C,R10*%
X13800000Y12320000D03*
X13800000Y11300000D03*
%TD*%
D12*
%TO.C,C6*%
X14800000Y5840000D03*
X14800000Y6800000D03*
%TD*%
D21*
%TO.C,R4*%
X11320000Y9550000D03*
X10300000Y9550000D03*
%TD*%
%TO.C,R5*%
X11320000Y10550000D03*
X10300000Y10550000D03*
%TD*%
D23*
%TO.C,R8*%
X14800000Y8300000D03*
X14800000Y9320000D03*
%TD*%
D34*
%TO.C,J2*%
X14400000Y18050000D03*
D35*
X15670000Y18050000D03*
X16940000Y18050000D03*
X18210000Y18050000D03*
%TD*%
M02*
