%TF.GenerationSoftware,KiCad,Pcbnew,(6.0.7-1)-1*%
%TF.CreationDate,2022-09-12T16:32:20+08:00*%
%TF.ProjectId,0102-TILEDAP,30313032-2d54-4494-9c45-4441502e6b69,V1.1*%
%TF.SameCoordinates,Original*%
%TF.FileFunction,Legend,Bot*%
%TF.FilePolarity,Positive*%
%FSLAX46Y46*%
G04 Gerber Fmt 4.6, Leading zero omitted, Abs format (unit mm)*
G04 Created by KiCad (PCBNEW (6.0.7-1)-1) date 2022-09-12 16:32:20*
%MOMM*%
%LPD*%
G01*
G04 APERTURE LIST*
%ADD10C,0.120000*%
G04 APERTURE END LIST*
D10*
X19163809Y18799620D02*
X19201904Y18685334D01*
X19201904Y18494858D01*
X19163809Y18418667D01*
X19125714Y18380572D01*
X19049523Y18342477D01*
X18973333Y18342477D01*
X18897142Y18380572D01*
X18859047Y18418667D01*
X18820952Y18494858D01*
X18782857Y18647239D01*
X18744761Y18723429D01*
X18706666Y18761524D01*
X18630476Y18799620D01*
X18554285Y18799620D01*
X18478095Y18761524D01*
X18440000Y18723429D01*
X18401904Y18647239D01*
X18401904Y18456762D01*
X18440000Y18342477D01*
X18401904Y18075810D02*
X19201904Y17885334D01*
X18630476Y17732953D01*
X19201904Y17580572D01*
X18401904Y17390096D01*
X19201904Y17085334D02*
X18401904Y17085334D01*
X18401904Y16552000D02*
X18401904Y16399620D01*
X18440000Y16323429D01*
X18516190Y16247239D01*
X18668571Y16209143D01*
X18935238Y16209143D01*
X19087619Y16247239D01*
X19163809Y16323429D01*
X19201904Y16399620D01*
X19201904Y16552000D01*
X19163809Y16628191D01*
X19087619Y16704381D01*
X18935238Y16742477D01*
X18668571Y16742477D01*
X18516190Y16704381D01*
X18440000Y16628191D01*
X18401904Y16552000D01*
X17893809Y18799620D02*
X17931904Y18685334D01*
X17931904Y18494858D01*
X17893809Y18418667D01*
X17855714Y18380572D01*
X17779523Y18342477D01*
X17703333Y18342477D01*
X17627142Y18380572D01*
X17589047Y18418667D01*
X17550952Y18494858D01*
X17512857Y18647239D01*
X17474761Y18723429D01*
X17436666Y18761524D01*
X17360476Y18799620D01*
X17284285Y18799620D01*
X17208095Y18761524D01*
X17170000Y18723429D01*
X17131904Y18647239D01*
X17131904Y18456762D01*
X17170000Y18342477D01*
X17131904Y18075810D02*
X17931904Y17885334D01*
X17360476Y17732953D01*
X17931904Y17580572D01*
X17131904Y17390096D01*
X17855714Y16628191D02*
X17893809Y16666286D01*
X17931904Y16780572D01*
X17931904Y16856762D01*
X17893809Y16971048D01*
X17817619Y17047239D01*
X17741428Y17085334D01*
X17589047Y17123429D01*
X17474761Y17123429D01*
X17322380Y17085334D01*
X17246190Y17047239D01*
X17170000Y16971048D01*
X17131904Y16856762D01*
X17131904Y16780572D01*
X17170000Y16666286D01*
X17208095Y16628191D01*
X17931904Y16285334D02*
X17131904Y16285334D01*
X17931904Y15828191D02*
X17474761Y16171048D01*
X17131904Y15828191D02*
X17589047Y16285334D01*
X19671904Y18380572D02*
X19671904Y18761524D01*
X20052857Y18799620D01*
X20014761Y18761524D01*
X19976666Y18685334D01*
X19976666Y18494858D01*
X20014761Y18418667D01*
X20052857Y18380572D01*
X20129047Y18342477D01*
X20319523Y18342477D01*
X20395714Y18380572D01*
X20433809Y18418667D01*
X20471904Y18494858D01*
X20471904Y18685334D01*
X20433809Y18761524D01*
X20395714Y18799620D01*
X19671904Y18113905D02*
X20471904Y17847239D01*
X19671904Y17580572D01*
X15900000Y18342477D02*
X15861904Y18418667D01*
X15861904Y18532953D01*
X15900000Y18647239D01*
X15976190Y18723429D01*
X16052380Y18761524D01*
X16204761Y18799620D01*
X16319047Y18799620D01*
X16471428Y18761524D01*
X16547619Y18723429D01*
X16623809Y18647239D01*
X16661904Y18532953D01*
X16661904Y18456762D01*
X16623809Y18342477D01*
X16585714Y18304381D01*
X16319047Y18304381D01*
X16319047Y18456762D01*
X16661904Y17961524D02*
X15861904Y17961524D01*
X16661904Y17504381D01*
X15861904Y17504381D01*
X16661904Y17123429D02*
X15861904Y17123429D01*
X15861904Y16932953D01*
X15900000Y16818667D01*
X15976190Y16742477D01*
X16052380Y16704381D01*
X16204761Y16666286D01*
X16319047Y16666286D01*
X16471428Y16704381D01*
X16547619Y16742477D01*
X16623809Y16818667D01*
X16661904Y16932953D01*
X16661904Y17123429D01*
%TO.C,J2*%
X16300000Y21410000D02*
X15540000Y21410000D01*
X17060000Y21410000D02*
X20805000Y21410000D01*
X20805000Y21410000D02*
X20805000Y20607530D01*
X17060000Y21410000D02*
X17060000Y20863471D01*
X20805000Y19992470D02*
X20805000Y19190000D01*
X15540000Y21410000D02*
X15540000Y20300000D01*
X17060000Y19190000D02*
X20805000Y19190000D01*
X17060000Y19736529D02*
X17060000Y19190000D01*
%TD*%
M02*
