%TF.GenerationSoftware,KiCad,Pcbnew,(5.1.12-1-10_14)*%
%TF.CreationDate,2022-09-08T10:49:59+08:00*%
%TF.ProjectId,0102-TILEDAP,30313032-2d54-4494-9c45-4441502e6b69,V1.1*%
%TF.SameCoordinates,Original*%
%TF.FileFunction,Copper,L2,Inr*%
%TF.FilePolarity,Positive*%
%FSLAX46Y46*%
G04 Gerber Fmt 4.6, Leading zero omitted, Abs format (unit mm)*
G04 Created by KiCad (PCBNEW (5.1.12-1-10_14)) date 2022-09-08 10:49:59*
%MOMM*%
%LPD*%
G01*
G04 APERTURE LIST*
%TA.AperFunction,ComponentPad*%
%ADD10O,1.700000X1.700000*%
%TD*%
%TA.AperFunction,ComponentPad*%
%ADD11R,1.700000X1.700000*%
%TD*%
%TA.AperFunction,ComponentPad*%
%ADD12O,1.000000X1.000000*%
%TD*%
%TA.AperFunction,ComponentPad*%
%ADD13R,1.000000X1.000000*%
%TD*%
%TA.AperFunction,ComponentPad*%
%ADD14C,0.700000*%
%TD*%
%TA.AperFunction,ComponentPad*%
%ADD15O,1.200000X2.100000*%
%TD*%
%TA.AperFunction,ViaPad*%
%ADD16C,0.900000*%
%TD*%
%TA.AperFunction,ViaPad*%
%ADD17C,0.500000*%
%TD*%
%TA.AperFunction,ViaPad*%
%ADD18C,0.700000*%
%TD*%
%TA.AperFunction,ViaPad*%
%ADD19C,0.800000*%
%TD*%
%TA.AperFunction,Conductor*%
%ADD20C,0.254000*%
%TD*%
%TA.AperFunction,Conductor*%
%ADD21C,0.350000*%
%TD*%
%ADD22C,0.350000*%
%ADD23C,0.300000*%
%ADD24O,0.600000X1.500000*%
G04 APERTURE END LIST*
D10*
%TO.N,GND*%
%TO.C,J3*%
X36082000Y7220000D03*
%TO.N,/TGT_NRESET*%
X33542000Y7220000D03*
%TO.N,/TGT_RX*%
X36082000Y9760000D03*
%TO.N,/TGT_TX*%
X33542000Y9760000D03*
%TO.N,GND*%
X36082000Y12300000D03*
X33542000Y12300000D03*
%TO.N,+3V3*%
X36082000Y14840000D03*
%TO.N,/TGT_SWCLK*%
X33542000Y14840000D03*
%TO.N,VBUS*%
X36082000Y17380000D03*
D11*
%TO.N,/TGT_SWDIO*%
X33542000Y17380000D03*
%TD*%
D12*
%TO.N,VBUS*%
%TO.C,J2*%
X20110000Y20300000D03*
%TO.N,/IF_SWDIO*%
X18840000Y20300000D03*
%TO.N,/IF_SWCLK*%
X17570000Y20300000D03*
D13*
%TO.N,GND*%
X16300000Y20300000D03*
%TD*%
D14*
%TO.N,GND*%
%TO.C,J1*%
X6600000Y15550000D03*
%TO.N,VBUS*%
X6600000Y14600000D03*
%TO.N,/D-*%
X6600000Y12750000D03*
%TO.N,/D+*%
X6600000Y11850000D03*
%TO.N,Net-(J1-PadB5)*%
X6600000Y10950000D03*
%TO.N,VBUS*%
X6600000Y10000000D03*
%TO.N,GND*%
X6600000Y9050000D03*
X8000000Y9050000D03*
%TO.N,VBUS*%
X8000000Y10000000D03*
%TO.N,/D-*%
X8000000Y11850000D03*
%TO.N,/D+*%
X8000000Y12750000D03*
%TO.N,Net-(J1-PadA5)*%
X8000000Y13650000D03*
%TO.N,VBUS*%
X8000000Y14600000D03*
%TO.N,GND*%
X8000000Y15550000D03*
D15*
%TO.N,N/C*%
X5370000Y10300000D03*
%TO.N,GND*%
X9230000Y10300000D03*
X5370000Y14300000D03*
X9230000Y14300000D03*
%TD*%
D16*
%TO.N,VBUS*%
X13050000Y7300000D03*
D17*
%TO.N,GND*%
X20600000Y13000000D03*
X22000000Y13000000D03*
X22000000Y11600000D03*
X20600000Y11600000D03*
X12300000Y13100000D03*
X12300000Y13800000D03*
X7300000Y21300000D03*
X24800000Y21300000D03*
X27300000Y21300000D03*
X29800000Y21300000D03*
X34800000Y21300000D03*
X37300000Y21300000D03*
X39800000Y21300000D03*
X41300000Y19800000D03*
X41300000Y17300000D03*
X41300000Y7300000D03*
X41300000Y4800000D03*
X39800000Y3300000D03*
X37300000Y3300000D03*
X34800000Y3300000D03*
X29800000Y3300000D03*
X27300000Y3300000D03*
X24800000Y3300000D03*
X22300000Y3300000D03*
X19800000Y3300000D03*
X17300000Y3300000D03*
X7300000Y3300000D03*
X4800000Y3300000D03*
X3300000Y4800000D03*
X3300000Y7300000D03*
X3300000Y9800000D03*
X3300000Y14800000D03*
X3300000Y17300000D03*
X3300000Y19800000D03*
X4800000Y21300000D03*
X5800000Y17300000D03*
X8800000Y7300000D03*
X5550000Y6050000D03*
X6550000Y6050000D03*
X7550000Y6050000D03*
X5550000Y5050000D03*
X6550000Y5050000D03*
X7550000Y5050000D03*
X38050000Y19300000D03*
X39050000Y19300000D03*
X38050000Y18300000D03*
X39050000Y18300000D03*
X30550000Y11800000D03*
X31550000Y11800000D03*
X30550000Y12800000D03*
X31550000Y12800000D03*
X30550000Y9800000D03*
X31550000Y9800000D03*
X30550000Y8800000D03*
X31550000Y8800000D03*
X29050000Y14050000D03*
X29800000Y14800000D03*
X25050000Y15800000D03*
X26050000Y15800000D03*
X22300000Y7550000D03*
X24050000Y7550000D03*
X24800000Y6550000D03*
X24300000Y15300000D03*
X18050000Y8300000D03*
X20800000Y4300000D03*
X22050000Y4800000D03*
X23300000Y4800000D03*
X27800000Y6550000D03*
X27800000Y9550000D03*
X28800000Y6550000D03*
X27800000Y5550000D03*
X28800000Y5550000D03*
X29800000Y6550000D03*
X29800000Y5550000D03*
X31550000Y13800000D03*
X12800000Y10150000D03*
X12800000Y9400000D03*
X15550000Y10050000D03*
X17300000Y10050000D03*
X17050000Y8300000D03*
X7550000Y18550000D03*
X6550000Y18550000D03*
X5550000Y18550000D03*
X5550000Y19550000D03*
X6550000Y19550000D03*
X7550000Y19550000D03*
X11050000Y18300000D03*
X12050000Y18300000D03*
X11050000Y6300000D03*
X12050000Y6300000D03*
X15050000Y8300000D03*
X17050000Y14800000D03*
X18300000Y18800000D03*
X19300000Y18800000D03*
X21050000Y17550000D03*
X20800000Y18300000D03*
X25300000Y18050000D03*
X26050000Y18550000D03*
X27800000Y17300000D03*
X27800000Y18300000D03*
X30550000Y18300000D03*
X30550000Y17300000D03*
X31550000Y17300000D03*
X31550000Y18300000D03*
X13400000Y9050000D03*
X14200000Y13300000D03*
X14200000Y11300000D03*
X16300000Y10050000D03*
X13400000Y9800000D03*
X16050000Y6300000D03*
D18*
%TO.N,+3V3*%
X27500000Y16100000D03*
X27800000Y8550000D03*
D19*
X24200000Y5900000D03*
X25300000Y16800000D03*
D18*
X27300000Y20300000D03*
D19*
X17900000Y16800000D03*
D16*
X13050000Y17300000D03*
D19*
X16050000Y8300000D03*
D18*
%TO.N,/TGT_USB_D+*%
X20625000Y16600000D03*
X16950000Y12725000D03*
%TO.N,/TGT_USB_D-*%
X21475000Y16600000D03*
X16950000Y11875000D03*
%TO.N,/TGT_NRESET*%
X27800000Y12800000D03*
%TO.N,/IF_NRESET*%
X25050000Y7550000D03*
X20900000Y8200000D03*
%TO.N,/IF_SWCLK*%
X18000000Y15200000D03*
%TD*%
D20*
%TO.N,GND*%
X32674115Y24261188D02*
X33047924Y24151170D01*
X33393239Y23970643D01*
X33696911Y23726484D01*
X33947383Y23427984D01*
X34135100Y23086527D01*
X34252922Y22715105D01*
X34297893Y22314180D01*
X34298004Y22298285D01*
X34298007Y22297522D01*
X34299339Y22284420D01*
X34299247Y22271234D01*
X34299659Y22267038D01*
X34303739Y22228217D01*
X34309233Y22201453D01*
X34314371Y22174519D01*
X34315590Y22170482D01*
X34327133Y22133195D01*
X34337712Y22108029D01*
X34347992Y22082584D01*
X34349972Y22078861D01*
X34368537Y22044525D01*
X34383815Y22021875D01*
X34398834Y21998923D01*
X34401500Y21995655D01*
X34426381Y21965580D01*
X34445798Y21946299D01*
X34464953Y21926739D01*
X34468202Y21924051D01*
X34498451Y21899381D01*
X34521227Y21884249D01*
X34543831Y21868772D01*
X34547541Y21866766D01*
X34582005Y21848441D01*
X34607293Y21838018D01*
X34632468Y21827228D01*
X34636497Y21825981D01*
X34673864Y21814699D01*
X34700671Y21809391D01*
X34727489Y21803691D01*
X34731683Y21803250D01*
X34770530Y21799441D01*
X34770536Y21799441D01*
X34785167Y21798000D01*
X41285226Y21798000D01*
X41396447Y21787094D01*
X41489222Y21759084D01*
X41574784Y21713591D01*
X41649887Y21652339D01*
X41711662Y21577666D01*
X41757754Y21492420D01*
X41786410Y21399843D01*
X41798001Y21289563D01*
X41798000Y15260614D01*
X41350383Y15154277D01*
X41324543Y15145398D01*
X41298489Y15136850D01*
X41294641Y15135123D01*
X40814070Y14915469D01*
X40790454Y14901744D01*
X40766550Y14888295D01*
X40763111Y14885854D01*
X40334355Y14577040D01*
X40313836Y14558974D01*
X40293017Y14541152D01*
X40290118Y14538090D01*
X39929511Y14151878D01*
X39912918Y14130204D01*
X39895931Y14108645D01*
X39893682Y14105077D01*
X39614959Y13656179D01*
X39602889Y13631688D01*
X39590416Y13607247D01*
X39588903Y13603311D01*
X39402678Y13108823D01*
X39395578Y13082391D01*
X39388108Y13056056D01*
X39387388Y13051901D01*
X39300757Y12530660D01*
X39298928Y12503391D01*
X39296712Y12476068D01*
X39296813Y12471852D01*
X39313074Y11943711D01*
X39316572Y11916649D01*
X39319710Y11889373D01*
X39320628Y11885257D01*
X39439163Y11370333D01*
X39447857Y11344447D01*
X39456227Y11318318D01*
X39457927Y11314459D01*
X39674221Y10832365D01*
X39687789Y10808640D01*
X39701063Y10784656D01*
X39703480Y10781201D01*
X40009293Y10350300D01*
X40027206Y10329668D01*
X40044891Y10308713D01*
X40047933Y10305792D01*
X40431619Y9942497D01*
X40453218Y9925722D01*
X40474617Y9908617D01*
X40478168Y9906343D01*
X40925110Y9624492D01*
X40949527Y9612245D01*
X40973869Y9599608D01*
X40977795Y9598068D01*
X41470970Y9408396D01*
X41497305Y9401124D01*
X41523634Y9393457D01*
X41527784Y9392708D01*
X41798001Y9345856D01*
X41798000Y3314774D01*
X41787095Y3203553D01*
X41759084Y3110778D01*
X41713589Y3025213D01*
X41652337Y2950111D01*
X41577666Y2888338D01*
X41492422Y2842247D01*
X41399844Y2813590D01*
X41289581Y2802000D01*
X34785167Y2802000D01*
X34772422Y2800745D01*
X34771235Y2800753D01*
X34767038Y2800341D01*
X34747886Y2798328D01*
X34740798Y2797630D01*
X34740562Y2797558D01*
X34728218Y2796261D01*
X34701454Y2790767D01*
X34674519Y2785629D01*
X34670482Y2784410D01*
X34633195Y2772868D01*
X34608016Y2762283D01*
X34582585Y2752009D01*
X34578861Y2750028D01*
X34544525Y2731463D01*
X34521875Y2716185D01*
X34498923Y2701166D01*
X34495655Y2698500D01*
X34465580Y2673619D01*
X34446317Y2654221D01*
X34426738Y2635047D01*
X34424051Y2631797D01*
X34399381Y2601549D01*
X34384260Y2578788D01*
X34368772Y2556169D01*
X34366766Y2552459D01*
X34348441Y2517995D01*
X34338018Y2492707D01*
X34327228Y2467532D01*
X34325981Y2463503D01*
X34314699Y2426136D01*
X34309390Y2399322D01*
X34303691Y2372511D01*
X34303250Y2368317D01*
X34299441Y2329470D01*
X34258528Y1912201D01*
X34145905Y1539175D01*
X33962971Y1195125D01*
X33716695Y893161D01*
X33416458Y644784D01*
X33073693Y459452D01*
X32701464Y344228D01*
X32313935Y303497D01*
X31925885Y338812D01*
X31552075Y448830D01*
X31206762Y629357D01*
X30903086Y873518D01*
X30652616Y1172018D01*
X30464900Y1513474D01*
X30347078Y1884895D01*
X30302107Y2285819D01*
X30301996Y2301715D01*
X30301993Y2302478D01*
X30300661Y2315580D01*
X30300753Y2328765D01*
X30300341Y2332962D01*
X30296261Y2371782D01*
X30290767Y2398546D01*
X30285629Y2425481D01*
X30284410Y2429518D01*
X30282521Y2435623D01*
X30923000Y2435623D01*
X30923000Y2164377D01*
X30975917Y1898344D01*
X31079718Y1647746D01*
X31230414Y1422213D01*
X31422213Y1230414D01*
X31647746Y1079718D01*
X31898344Y975917D01*
X32164377Y923000D01*
X32435623Y923000D01*
X32701656Y975917D01*
X32952254Y1079718D01*
X33177787Y1230414D01*
X33369586Y1422213D01*
X33520282Y1647746D01*
X33624083Y1898344D01*
X33677000Y2164377D01*
X33677000Y2435623D01*
X33624083Y2701656D01*
X33520282Y2952254D01*
X33369586Y3177787D01*
X33177787Y3369586D01*
X32952254Y3520282D01*
X32701656Y3624083D01*
X32435623Y3677000D01*
X32164377Y3677000D01*
X31898344Y3624083D01*
X31647746Y3520282D01*
X31422213Y3369586D01*
X31230414Y3177787D01*
X31079718Y2952254D01*
X30975917Y2701656D01*
X30923000Y2435623D01*
X30282521Y2435623D01*
X30272868Y2466805D01*
X30262283Y2491984D01*
X30252009Y2517415D01*
X30250028Y2521139D01*
X30231463Y2555475D01*
X30216185Y2578125D01*
X30201166Y2601077D01*
X30198500Y2604345D01*
X30173619Y2634420D01*
X30154221Y2653683D01*
X30135047Y2673262D01*
X30131797Y2675949D01*
X30101549Y2700619D01*
X30078788Y2715740D01*
X30056169Y2731228D01*
X30052459Y2733234D01*
X30017995Y2751559D01*
X29992707Y2761982D01*
X29967532Y2772772D01*
X29963503Y2774019D01*
X29926136Y2785301D01*
X29899322Y2790610D01*
X29872511Y2796309D01*
X29868317Y2796750D01*
X29829470Y2800559D01*
X29829464Y2800559D01*
X29814833Y2802000D01*
X15260614Y2802000D01*
X15154277Y3249617D01*
X15145398Y3275457D01*
X15136850Y3301511D01*
X15135123Y3305359D01*
X14915469Y3785930D01*
X14901744Y3809546D01*
X14888295Y3833450D01*
X14885854Y3836889D01*
X14577040Y4265645D01*
X14558974Y4286164D01*
X14541152Y4306983D01*
X14538090Y4309882D01*
X14151878Y4670489D01*
X14130204Y4687082D01*
X14108645Y4704069D01*
X14105077Y4706318D01*
X13656179Y4985041D01*
X13631688Y4997111D01*
X13607247Y5009584D01*
X13603311Y5011097D01*
X13108823Y5197322D01*
X13082391Y5204422D01*
X13056056Y5211892D01*
X13051901Y5212612D01*
X12530660Y5299243D01*
X12503391Y5301072D01*
X12476068Y5303288D01*
X12471852Y5303187D01*
X12471851Y5303187D01*
X11943711Y5286926D01*
X11916649Y5283428D01*
X11889373Y5280290D01*
X11885257Y5279372D01*
X11370333Y5160837D01*
X11344435Y5152139D01*
X11318319Y5143773D01*
X11314459Y5142073D01*
X10832365Y4925779D01*
X10808640Y4912211D01*
X10784656Y4898937D01*
X10781201Y4896520D01*
X10350300Y4590707D01*
X10329705Y4572827D01*
X10308712Y4555109D01*
X10305792Y4552066D01*
X9942497Y4168381D01*
X9925722Y4146782D01*
X9908617Y4125383D01*
X9906343Y4121832D01*
X9624492Y3674890D01*
X9612245Y3650473D01*
X9599608Y3626131D01*
X9598068Y3622205D01*
X9408396Y3129030D01*
X9401127Y3102706D01*
X9393457Y3076367D01*
X9392708Y3072217D01*
X9345857Y2802000D01*
X3314774Y2802000D01*
X3203553Y2812905D01*
X3110778Y2840916D01*
X3025213Y2886411D01*
X2950111Y2947663D01*
X2888338Y3022334D01*
X2842247Y3107578D01*
X2813590Y3200156D01*
X2802000Y3310419D01*
X2802000Y5966679D01*
X23523000Y5966679D01*
X23523000Y5833321D01*
X23549016Y5702526D01*
X23600050Y5579320D01*
X23674140Y5468437D01*
X23768437Y5374140D01*
X23879320Y5300050D01*
X24002526Y5249016D01*
X24133321Y5223000D01*
X24266679Y5223000D01*
X24397474Y5249016D01*
X24520680Y5300050D01*
X24631563Y5374140D01*
X24725860Y5468437D01*
X24799950Y5579320D01*
X24850984Y5702526D01*
X24877000Y5833321D01*
X24877000Y5966679D01*
X24850984Y6097474D01*
X24799950Y6220680D01*
X24725860Y6331563D01*
X24631563Y6425860D01*
X24520680Y6499950D01*
X24397474Y6550984D01*
X24266679Y6577000D01*
X24133321Y6577000D01*
X24002526Y6550984D01*
X23879320Y6499950D01*
X23768437Y6425860D01*
X23674140Y6331563D01*
X23600050Y6220680D01*
X23549016Y6097474D01*
X23523000Y5966679D01*
X2802000Y5966679D01*
X2802000Y7371603D01*
X12323000Y7371603D01*
X12323000Y7228397D01*
X12350938Y7087942D01*
X12405741Y6955636D01*
X12485302Y6836564D01*
X12586564Y6735302D01*
X12705636Y6655741D01*
X12837942Y6600938D01*
X12978397Y6573000D01*
X13121603Y6573000D01*
X13262058Y6600938D01*
X13394364Y6655741D01*
X13513436Y6735302D01*
X13614698Y6836564D01*
X13694259Y6955636D01*
X13749062Y7087942D01*
X13777000Y7228397D01*
X13777000Y7371603D01*
X13749062Y7512058D01*
X13694259Y7644364D01*
X13614698Y7763436D01*
X13513436Y7864698D01*
X13394364Y7944259D01*
X13262058Y7999062D01*
X13121603Y8027000D01*
X12978397Y8027000D01*
X12837942Y7999062D01*
X12705636Y7944259D01*
X12586564Y7864698D01*
X12485302Y7763436D01*
X12405741Y7644364D01*
X12350938Y7512058D01*
X12323000Y7371603D01*
X2802000Y7371603D01*
X2802000Y8366679D01*
X15373000Y8366679D01*
X15373000Y8233321D01*
X15399016Y8102526D01*
X15450050Y7979320D01*
X15524140Y7868437D01*
X15618437Y7774140D01*
X15729320Y7700050D01*
X15852526Y7649016D01*
X15983321Y7623000D01*
X16116679Y7623000D01*
X16247474Y7649016D01*
X16370680Y7700050D01*
X16481563Y7774140D01*
X16575860Y7868437D01*
X16649950Y7979320D01*
X16700984Y8102526D01*
X16727000Y8233321D01*
X16727000Y8261754D01*
X20273000Y8261754D01*
X20273000Y8138246D01*
X20297095Y8017111D01*
X20344360Y7903004D01*
X20412977Y7800311D01*
X20500311Y7712977D01*
X20603004Y7644360D01*
X20717111Y7597095D01*
X20838246Y7573000D01*
X20961754Y7573000D01*
X21082889Y7597095D01*
X21118278Y7611754D01*
X24423000Y7611754D01*
X24423000Y7488246D01*
X24447095Y7367111D01*
X24494360Y7253004D01*
X24562977Y7150311D01*
X24650311Y7062977D01*
X24753004Y6994360D01*
X24867111Y6947095D01*
X24988246Y6923000D01*
X25111754Y6923000D01*
X25232889Y6947095D01*
X25346996Y6994360D01*
X25449689Y7062977D01*
X25537023Y7150311D01*
X25605640Y7253004D01*
X25637947Y7331000D01*
X32415000Y7331000D01*
X32415000Y7109000D01*
X32458310Y6891266D01*
X32543266Y6686165D01*
X32666602Y6501579D01*
X32823579Y6344602D01*
X33008165Y6221266D01*
X33213266Y6136310D01*
X33431000Y6093000D01*
X33653000Y6093000D01*
X33870734Y6136310D01*
X34075835Y6221266D01*
X34260421Y6344602D01*
X34417398Y6501579D01*
X34540734Y6686165D01*
X34625690Y6891266D01*
X34631283Y6919385D01*
X34995833Y6919385D01*
X35011866Y6866508D01*
X35101391Y6664527D01*
X35228601Y6483893D01*
X35388606Y6331547D01*
X35575258Y6213344D01*
X35781384Y6133826D01*
X35955000Y6169422D01*
X35955000Y7093000D01*
X36209000Y7093000D01*
X36209000Y6169422D01*
X36382616Y6133826D01*
X36588742Y6213344D01*
X36775394Y6331547D01*
X36935399Y6483893D01*
X37062609Y6664527D01*
X37152134Y6866508D01*
X37168167Y6919385D01*
X37132098Y7093000D01*
X36209000Y7093000D01*
X35955000Y7093000D01*
X35031902Y7093000D01*
X34995833Y6919385D01*
X34631283Y6919385D01*
X34669000Y7109000D01*
X34669000Y7331000D01*
X34631284Y7520615D01*
X34995833Y7520615D01*
X35031902Y7347000D01*
X35955000Y7347000D01*
X35955000Y8270578D01*
X36209000Y8270578D01*
X36209000Y7347000D01*
X37132098Y7347000D01*
X37168167Y7520615D01*
X37152134Y7573492D01*
X37062609Y7775473D01*
X36935399Y7956107D01*
X36775394Y8108453D01*
X36588742Y8226656D01*
X36382616Y8306174D01*
X36209000Y8270578D01*
X35955000Y8270578D01*
X35781384Y8306174D01*
X35575258Y8226656D01*
X35388606Y8108453D01*
X35228601Y7956107D01*
X35101391Y7775473D01*
X35011866Y7573492D01*
X34995833Y7520615D01*
X34631284Y7520615D01*
X34625690Y7548734D01*
X34540734Y7753835D01*
X34417398Y7938421D01*
X34260421Y8095398D01*
X34075835Y8218734D01*
X33870734Y8303690D01*
X33653000Y8347000D01*
X33431000Y8347000D01*
X33213266Y8303690D01*
X33008165Y8218734D01*
X32823579Y8095398D01*
X32666602Y7938421D01*
X32543266Y7753835D01*
X32458310Y7548734D01*
X32415000Y7331000D01*
X25637947Y7331000D01*
X25652905Y7367111D01*
X25677000Y7488246D01*
X25677000Y7611754D01*
X25652905Y7732889D01*
X25605640Y7846996D01*
X25537023Y7949689D01*
X25449689Y8037023D01*
X25346996Y8105640D01*
X25232889Y8152905D01*
X25111754Y8177000D01*
X24988246Y8177000D01*
X24867111Y8152905D01*
X24753004Y8105640D01*
X24650311Y8037023D01*
X24562977Y7949689D01*
X24494360Y7846996D01*
X24447095Y7732889D01*
X24423000Y7611754D01*
X21118278Y7611754D01*
X21196996Y7644360D01*
X21299689Y7712977D01*
X21387023Y7800311D01*
X21455640Y7903004D01*
X21502905Y8017111D01*
X21527000Y8138246D01*
X21527000Y8261754D01*
X21502905Y8382889D01*
X21455640Y8496996D01*
X21387023Y8599689D01*
X21374958Y8611754D01*
X27173000Y8611754D01*
X27173000Y8488246D01*
X27197095Y8367111D01*
X27244360Y8253004D01*
X27312977Y8150311D01*
X27400311Y8062977D01*
X27503004Y7994360D01*
X27617111Y7947095D01*
X27738246Y7923000D01*
X27861754Y7923000D01*
X27982889Y7947095D01*
X28096996Y7994360D01*
X28199689Y8062977D01*
X28287023Y8150311D01*
X28355640Y8253004D01*
X28402905Y8367111D01*
X28427000Y8488246D01*
X28427000Y8611754D01*
X28402905Y8732889D01*
X28355640Y8846996D01*
X28287023Y8949689D01*
X28199689Y9037023D01*
X28096996Y9105640D01*
X27982889Y9152905D01*
X27861754Y9177000D01*
X27738246Y9177000D01*
X27617111Y9152905D01*
X27503004Y9105640D01*
X27400311Y9037023D01*
X27312977Y8949689D01*
X27244360Y8846996D01*
X27197095Y8732889D01*
X27173000Y8611754D01*
X21374958Y8611754D01*
X21299689Y8687023D01*
X21196996Y8755640D01*
X21082889Y8802905D01*
X20961754Y8827000D01*
X20838246Y8827000D01*
X20717111Y8802905D01*
X20603004Y8755640D01*
X20500311Y8687023D01*
X20412977Y8599689D01*
X20344360Y8496996D01*
X20297095Y8382889D01*
X20273000Y8261754D01*
X16727000Y8261754D01*
X16727000Y8366679D01*
X16700984Y8497474D01*
X16649950Y8620680D01*
X16575860Y8731563D01*
X16481563Y8825860D01*
X16370680Y8899950D01*
X16247474Y8950984D01*
X16116679Y8977000D01*
X15983321Y8977000D01*
X15852526Y8950984D01*
X15729320Y8899950D01*
X15618437Y8825860D01*
X15524140Y8731563D01*
X15450050Y8620680D01*
X15399016Y8497474D01*
X15373000Y8366679D01*
X2802000Y8366679D01*
X2802000Y8573966D01*
X6303571Y8573966D01*
X6340022Y8476106D01*
X6456978Y8436414D01*
X6579431Y8420302D01*
X6702674Y8428389D01*
X6821971Y8460364D01*
X6859978Y8476106D01*
X6896429Y8573966D01*
X7703571Y8573966D01*
X7740022Y8476106D01*
X7856978Y8436414D01*
X7979431Y8420302D01*
X8102674Y8428389D01*
X8221971Y8460364D01*
X8259978Y8476106D01*
X8296429Y8573966D01*
X8000000Y8870395D01*
X7703571Y8573966D01*
X6896429Y8573966D01*
X6600000Y8870395D01*
X6303571Y8573966D01*
X2802000Y8573966D01*
X2802000Y9814833D01*
X2800745Y9827578D01*
X2800753Y9828765D01*
X2800341Y9832962D01*
X2798328Y9852114D01*
X2797630Y9859202D01*
X2797558Y9859438D01*
X2796261Y9871782D01*
X2790767Y9898546D01*
X2785629Y9925481D01*
X2784410Y9929518D01*
X2772868Y9966805D01*
X2762283Y9991984D01*
X2752009Y10017415D01*
X2750028Y10021139D01*
X2731463Y10055475D01*
X2716185Y10078125D01*
X2701166Y10101077D01*
X2698500Y10104345D01*
X2673619Y10134420D01*
X2654221Y10153683D01*
X2635047Y10173262D01*
X2631797Y10175949D01*
X2601549Y10200619D01*
X2578788Y10215740D01*
X2556169Y10231228D01*
X2552459Y10233234D01*
X2517995Y10251559D01*
X2492707Y10261982D01*
X2467532Y10272772D01*
X2463503Y10274019D01*
X2426136Y10285301D01*
X2399322Y10290610D01*
X2372511Y10296309D01*
X2368317Y10296750D01*
X2329470Y10300559D01*
X1912201Y10341472D01*
X1539175Y10454095D01*
X1195125Y10637029D01*
X1003789Y10793079D01*
X4493000Y10793079D01*
X4493000Y9806922D01*
X4505690Y9678079D01*
X4555838Y9512764D01*
X4637273Y9360409D01*
X4746867Y9226867D01*
X4880408Y9117273D01*
X5032763Y9035838D01*
X5198078Y8985690D01*
X5370000Y8968757D01*
X5541921Y8985690D01*
X5707236Y9035838D01*
X5859591Y9117273D01*
X5993133Y9226867D01*
X6001262Y9236772D01*
X5986414Y9193022D01*
X5970302Y9070569D01*
X5978389Y8947326D01*
X6010364Y8828029D01*
X6026106Y8790022D01*
X6123966Y8753571D01*
X6420395Y9050000D01*
X6779605Y9050000D01*
X7076034Y8753571D01*
X7173894Y8790022D01*
X7213586Y8906978D01*
X7229698Y9029431D01*
X7226999Y9070569D01*
X7370302Y9070569D01*
X7378389Y8947326D01*
X7410364Y8828029D01*
X7426106Y8790022D01*
X7523966Y8753571D01*
X7820395Y9050000D01*
X7523966Y9346429D01*
X7426106Y9309978D01*
X7386414Y9193022D01*
X7370302Y9070569D01*
X7226999Y9070569D01*
X7221611Y9152674D01*
X7189636Y9271971D01*
X7173894Y9309978D01*
X7076034Y9346429D01*
X6779605Y9050000D01*
X6420395Y9050000D01*
X6406253Y9064142D01*
X6585858Y9243747D01*
X6600000Y9229605D01*
X6763666Y9393271D01*
X6782889Y9397095D01*
X6896996Y9444360D01*
X6999689Y9512977D01*
X7087023Y9600311D01*
X7155640Y9703004D01*
X7202905Y9817111D01*
X7227000Y9938246D01*
X7227000Y10061754D01*
X7373000Y10061754D01*
X7373000Y9938246D01*
X7397095Y9817111D01*
X7444360Y9703004D01*
X7512977Y9600311D01*
X7600311Y9512977D01*
X7703004Y9444360D01*
X7817111Y9397095D01*
X7836334Y9393271D01*
X8000000Y9229605D01*
X8014143Y9243747D01*
X8193748Y9064142D01*
X8179605Y9050000D01*
X8476034Y8753571D01*
X8573894Y8790022D01*
X8613586Y8906978D01*
X8629698Y9029431D01*
X8621611Y9152674D01*
X8600807Y9230292D01*
X8699670Y9140065D01*
X8848362Y9050244D01*
X8968817Y9012795D01*
X9103000Y9052296D01*
X9103000Y10173000D01*
X9357000Y10173000D01*
X9357000Y9052296D01*
X9491183Y9012795D01*
X9611638Y9050244D01*
X9760330Y9140065D01*
X9888641Y9257168D01*
X9991641Y9397054D01*
X10065372Y9554346D01*
X10107000Y9723000D01*
X10107000Y9871000D01*
X32415000Y9871000D01*
X32415000Y9649000D01*
X32458310Y9431266D01*
X32543266Y9226165D01*
X32666602Y9041579D01*
X32823579Y8884602D01*
X33008165Y8761266D01*
X33213266Y8676310D01*
X33431000Y8633000D01*
X33653000Y8633000D01*
X33870734Y8676310D01*
X34075835Y8761266D01*
X34260421Y8884602D01*
X34417398Y9041579D01*
X34540734Y9226165D01*
X34625690Y9431266D01*
X34669000Y9649000D01*
X34669000Y9871000D01*
X34955000Y9871000D01*
X34955000Y9649000D01*
X34998310Y9431266D01*
X35083266Y9226165D01*
X35206602Y9041579D01*
X35363579Y8884602D01*
X35548165Y8761266D01*
X35753266Y8676310D01*
X35971000Y8633000D01*
X36193000Y8633000D01*
X36410734Y8676310D01*
X36615835Y8761266D01*
X36800421Y8884602D01*
X36957398Y9041579D01*
X37080734Y9226165D01*
X37165690Y9431266D01*
X37209000Y9649000D01*
X37209000Y9871000D01*
X37165690Y10088734D01*
X37080734Y10293835D01*
X36957398Y10478421D01*
X36800421Y10635398D01*
X36615835Y10758734D01*
X36410734Y10843690D01*
X36193000Y10887000D01*
X35971000Y10887000D01*
X35753266Y10843690D01*
X35548165Y10758734D01*
X35363579Y10635398D01*
X35206602Y10478421D01*
X35083266Y10293835D01*
X34998310Y10088734D01*
X34955000Y9871000D01*
X34669000Y9871000D01*
X34625690Y10088734D01*
X34540734Y10293835D01*
X34417398Y10478421D01*
X34260421Y10635398D01*
X34075835Y10758734D01*
X33870734Y10843690D01*
X33653000Y10887000D01*
X33431000Y10887000D01*
X33213266Y10843690D01*
X33008165Y10758734D01*
X32823579Y10635398D01*
X32666602Y10478421D01*
X32543266Y10293835D01*
X32458310Y10088734D01*
X32415000Y9871000D01*
X10107000Y9871000D01*
X10107000Y10173000D01*
X9357000Y10173000D01*
X9103000Y10173000D01*
X9083000Y10173000D01*
X9083000Y10427000D01*
X9103000Y10427000D01*
X9103000Y11547704D01*
X9357000Y11547704D01*
X9357000Y10427000D01*
X10107000Y10427000D01*
X10107000Y10877000D01*
X10065372Y11045654D01*
X9991641Y11202946D01*
X9888641Y11342832D01*
X9760330Y11459935D01*
X9611638Y11549756D01*
X9491183Y11587205D01*
X9357000Y11547704D01*
X9103000Y11547704D01*
X8968817Y11587205D01*
X8848362Y11549756D01*
X8699670Y11459935D01*
X8571359Y11342832D01*
X8468359Y11202946D01*
X8394628Y11045654D01*
X8353000Y10877000D01*
X8353000Y10518219D01*
X8296996Y10555640D01*
X8182889Y10602905D01*
X8061754Y10627000D01*
X7938246Y10627000D01*
X7817111Y10602905D01*
X7703004Y10555640D01*
X7600311Y10487023D01*
X7512977Y10399689D01*
X7444360Y10296996D01*
X7397095Y10182889D01*
X7373000Y10061754D01*
X7227000Y10061754D01*
X7202905Y10182889D01*
X7155640Y10296996D01*
X7087023Y10399689D01*
X7011712Y10475000D01*
X7087023Y10550311D01*
X7155640Y10653004D01*
X7202905Y10767111D01*
X7227000Y10888246D01*
X7227000Y11011754D01*
X7202905Y11132889D01*
X7155640Y11246996D01*
X7087023Y11349689D01*
X7036712Y11400000D01*
X7087023Y11450311D01*
X7155640Y11553004D01*
X7202905Y11667111D01*
X7227000Y11788246D01*
X7227000Y11911754D01*
X7202905Y12032889D01*
X7155640Y12146996D01*
X7087023Y12249689D01*
X7036712Y12300000D01*
X7087023Y12350311D01*
X7155640Y12453004D01*
X7202905Y12567111D01*
X7227000Y12688246D01*
X7227000Y12811754D01*
X7202905Y12932889D01*
X7155640Y13046996D01*
X7087023Y13149689D01*
X6999689Y13237023D01*
X6896996Y13305640D01*
X6782889Y13352905D01*
X6661754Y13377000D01*
X6538246Y13377000D01*
X6417111Y13352905D01*
X6303004Y13305640D01*
X6200311Y13237023D01*
X6112977Y13149689D01*
X6044360Y13046996D01*
X5997095Y12932889D01*
X5973000Y12811754D01*
X5973000Y12688246D01*
X5997095Y12567111D01*
X6044360Y12453004D01*
X6112977Y12350311D01*
X6163288Y12300000D01*
X6112977Y12249689D01*
X6044360Y12146996D01*
X5997095Y12032889D01*
X5973000Y11911754D01*
X5973000Y11788246D01*
X5997095Y11667111D01*
X6044360Y11553004D01*
X6112977Y11450311D01*
X6163288Y11400000D01*
X6112977Y11349689D01*
X6067827Y11282117D01*
X5993133Y11373133D01*
X5859592Y11482727D01*
X5707237Y11564162D01*
X5541922Y11614310D01*
X5370000Y11631243D01*
X5198079Y11614310D01*
X5032764Y11564162D01*
X4880409Y11482727D01*
X4746868Y11373133D01*
X4637274Y11239592D01*
X4555839Y11087237D01*
X4505691Y10921922D01*
X4493000Y10793079D01*
X1003789Y10793079D01*
X893161Y10883305D01*
X644784Y11183542D01*
X459452Y11526307D01*
X344228Y11898536D01*
X303497Y12286064D01*
X317107Y12435623D01*
X923000Y12435623D01*
X923000Y12164377D01*
X975917Y11898344D01*
X1079718Y11647746D01*
X1230414Y11422213D01*
X1422213Y11230414D01*
X1647746Y11079718D01*
X1898344Y10975917D01*
X2164377Y10923000D01*
X2435623Y10923000D01*
X2701656Y10975917D01*
X2952254Y11079718D01*
X3177787Y11230414D01*
X3369586Y11422213D01*
X3520282Y11647746D01*
X3624083Y11898344D01*
X3677000Y12164377D01*
X3677000Y12435623D01*
X3624083Y12701656D01*
X3520282Y12952254D01*
X3369586Y13177787D01*
X3177787Y13369586D01*
X2952254Y13520282D01*
X2701656Y13624083D01*
X2435623Y13677000D01*
X2164377Y13677000D01*
X1898344Y13624083D01*
X1647746Y13520282D01*
X1422213Y13369586D01*
X1230414Y13177787D01*
X1079718Y12952254D01*
X975917Y12701656D01*
X923000Y12435623D01*
X317107Y12435623D01*
X338812Y12674115D01*
X448830Y13047924D01*
X629357Y13393239D01*
X873516Y13696911D01*
X1172016Y13947383D01*
X1513473Y14135100D01*
X1632948Y14173000D01*
X4493000Y14173000D01*
X4493000Y13723000D01*
X4534628Y13554346D01*
X4608359Y13397054D01*
X4711359Y13257168D01*
X4839670Y13140065D01*
X4988362Y13050244D01*
X5108817Y13012795D01*
X5243000Y13052296D01*
X5243000Y14173000D01*
X4493000Y14173000D01*
X1632948Y14173000D01*
X1884895Y14252922D01*
X2285820Y14297893D01*
X2301715Y14298004D01*
X2302478Y14298007D01*
X2315580Y14299339D01*
X2328766Y14299247D01*
X2332962Y14299659D01*
X2371783Y14303739D01*
X2398547Y14309233D01*
X2425481Y14314371D01*
X2429518Y14315590D01*
X2466805Y14327133D01*
X2491971Y14337712D01*
X2517416Y14347992D01*
X2521139Y14349972D01*
X2555475Y14368537D01*
X2578125Y14383815D01*
X2601077Y14398834D01*
X2604345Y14401500D01*
X2634420Y14426381D01*
X2653701Y14445798D01*
X2673261Y14464953D01*
X2675949Y14468202D01*
X2700619Y14498451D01*
X2715751Y14521227D01*
X2731228Y14543831D01*
X2733234Y14547541D01*
X2751559Y14582005D01*
X2761982Y14607293D01*
X2772772Y14632468D01*
X2774019Y14636497D01*
X2785301Y14673864D01*
X2790609Y14700671D01*
X2796309Y14727489D01*
X2796750Y14731683D01*
X2800559Y14770530D01*
X2800559Y14770536D01*
X2802000Y14785167D01*
X2802000Y14877000D01*
X4493000Y14877000D01*
X4493000Y14427000D01*
X5243000Y14427000D01*
X5243000Y15547704D01*
X5497000Y15547704D01*
X5497000Y14427000D01*
X5517000Y14427000D01*
X5517000Y14173000D01*
X5497000Y14173000D01*
X5497000Y13052296D01*
X5631183Y13012795D01*
X5751638Y13050244D01*
X5900330Y13140065D01*
X6028641Y13257168D01*
X6131641Y13397054D01*
X6205372Y13554346D01*
X6247000Y13723000D01*
X6247000Y14081781D01*
X6303004Y14044360D01*
X6417111Y13997095D01*
X6538246Y13973000D01*
X6661754Y13973000D01*
X6782889Y13997095D01*
X6896996Y14044360D01*
X6999689Y14112977D01*
X7087023Y14200311D01*
X7155640Y14303004D01*
X7202905Y14417111D01*
X7227000Y14538246D01*
X7227000Y14661754D01*
X7373000Y14661754D01*
X7373000Y14538246D01*
X7397095Y14417111D01*
X7444360Y14303004D01*
X7512977Y14200311D01*
X7588288Y14125000D01*
X7512977Y14049689D01*
X7444360Y13946996D01*
X7397095Y13832889D01*
X7373000Y13711754D01*
X7373000Y13588246D01*
X7397095Y13467111D01*
X7444360Y13353004D01*
X7512977Y13250311D01*
X7563288Y13200000D01*
X7512977Y13149689D01*
X7444360Y13046996D01*
X7397095Y12932889D01*
X7373000Y12811754D01*
X7373000Y12688246D01*
X7397095Y12567111D01*
X7444360Y12453004D01*
X7512977Y12350311D01*
X7563288Y12300000D01*
X7512977Y12249689D01*
X7444360Y12146996D01*
X7397095Y12032889D01*
X7373000Y11911754D01*
X7373000Y11788246D01*
X7397095Y11667111D01*
X7444360Y11553004D01*
X7512977Y11450311D01*
X7600311Y11362977D01*
X7703004Y11294360D01*
X7817111Y11247095D01*
X7938246Y11223000D01*
X8061754Y11223000D01*
X8182889Y11247095D01*
X8296996Y11294360D01*
X8399689Y11362977D01*
X8487023Y11450311D01*
X8555640Y11553004D01*
X8602905Y11667111D01*
X8627000Y11788246D01*
X8627000Y11911754D01*
X8602905Y12032889D01*
X8555640Y12146996D01*
X8487023Y12249689D01*
X8436712Y12300000D01*
X8487023Y12350311D01*
X8555640Y12453004D01*
X8602905Y12567111D01*
X8627000Y12688246D01*
X8627000Y12786754D01*
X16323000Y12786754D01*
X16323000Y12663246D01*
X16347095Y12542111D01*
X16394360Y12428004D01*
X16462977Y12325311D01*
X16488288Y12300000D01*
X16462977Y12274689D01*
X16394360Y12171996D01*
X16347095Y12057889D01*
X16323000Y11936754D01*
X16323000Y11813246D01*
X16347095Y11692111D01*
X16394360Y11578004D01*
X16462977Y11475311D01*
X16550311Y11387977D01*
X16653004Y11319360D01*
X16767111Y11272095D01*
X16888246Y11248000D01*
X17011754Y11248000D01*
X17132889Y11272095D01*
X17246996Y11319360D01*
X17349689Y11387977D01*
X17437023Y11475311D01*
X17505640Y11578004D01*
X17552905Y11692111D01*
X17577000Y11813246D01*
X17577000Y11936754D01*
X17564543Y11999385D01*
X32455833Y11999385D01*
X32471866Y11946508D01*
X32561391Y11744527D01*
X32688601Y11563893D01*
X32848606Y11411547D01*
X33035258Y11293344D01*
X33241384Y11213826D01*
X33415000Y11249422D01*
X33415000Y12173000D01*
X33669000Y12173000D01*
X33669000Y11249422D01*
X33842616Y11213826D01*
X34048742Y11293344D01*
X34235394Y11411547D01*
X34395399Y11563893D01*
X34522609Y11744527D01*
X34612134Y11946508D01*
X34628167Y11999385D01*
X34995833Y11999385D01*
X35011866Y11946508D01*
X35101391Y11744527D01*
X35228601Y11563893D01*
X35388606Y11411547D01*
X35575258Y11293344D01*
X35781384Y11213826D01*
X35955000Y11249422D01*
X35955000Y12173000D01*
X36209000Y12173000D01*
X36209000Y11249422D01*
X36382616Y11213826D01*
X36588742Y11293344D01*
X36775394Y11411547D01*
X36935399Y11563893D01*
X37062609Y11744527D01*
X37152134Y11946508D01*
X37168167Y11999385D01*
X37132098Y12173000D01*
X36209000Y12173000D01*
X35955000Y12173000D01*
X35031902Y12173000D01*
X34995833Y11999385D01*
X34628167Y11999385D01*
X34592098Y12173000D01*
X33669000Y12173000D01*
X33415000Y12173000D01*
X32491902Y12173000D01*
X32455833Y11999385D01*
X17564543Y11999385D01*
X17552905Y12057889D01*
X17505640Y12171996D01*
X17437023Y12274689D01*
X17411712Y12300000D01*
X17437023Y12325311D01*
X17505640Y12428004D01*
X17552905Y12542111D01*
X17577000Y12663246D01*
X17577000Y12786754D01*
X17562082Y12861754D01*
X27173000Y12861754D01*
X27173000Y12738246D01*
X27197095Y12617111D01*
X27244360Y12503004D01*
X27312977Y12400311D01*
X27400311Y12312977D01*
X27503004Y12244360D01*
X27617111Y12197095D01*
X27738246Y12173000D01*
X27861754Y12173000D01*
X27982889Y12197095D01*
X28096996Y12244360D01*
X28199689Y12312977D01*
X28287023Y12400311D01*
X28355640Y12503004D01*
X28396072Y12600615D01*
X32455833Y12600615D01*
X32491902Y12427000D01*
X33415000Y12427000D01*
X33415000Y13350578D01*
X33669000Y13350578D01*
X33669000Y12427000D01*
X34592098Y12427000D01*
X34628167Y12600615D01*
X34995833Y12600615D01*
X35031902Y12427000D01*
X35955000Y12427000D01*
X35955000Y13350578D01*
X36209000Y13350578D01*
X36209000Y12427000D01*
X37132098Y12427000D01*
X37168167Y12600615D01*
X37152134Y12653492D01*
X37062609Y12855473D01*
X36935399Y13036107D01*
X36775394Y13188453D01*
X36588742Y13306656D01*
X36382616Y13386174D01*
X36209000Y13350578D01*
X35955000Y13350578D01*
X35781384Y13386174D01*
X35575258Y13306656D01*
X35388606Y13188453D01*
X35228601Y13036107D01*
X35101391Y12855473D01*
X35011866Y12653492D01*
X34995833Y12600615D01*
X34628167Y12600615D01*
X34612134Y12653492D01*
X34522609Y12855473D01*
X34395399Y13036107D01*
X34235394Y13188453D01*
X34048742Y13306656D01*
X33842616Y13386174D01*
X33669000Y13350578D01*
X33415000Y13350578D01*
X33241384Y13386174D01*
X33035258Y13306656D01*
X32848606Y13188453D01*
X32688601Y13036107D01*
X32561391Y12855473D01*
X32471866Y12653492D01*
X32455833Y12600615D01*
X28396072Y12600615D01*
X28402905Y12617111D01*
X28427000Y12738246D01*
X28427000Y12861754D01*
X28402905Y12982889D01*
X28355640Y13096996D01*
X28287023Y13199689D01*
X28199689Y13287023D01*
X28096996Y13355640D01*
X27982889Y13402905D01*
X27861754Y13427000D01*
X27738246Y13427000D01*
X27617111Y13402905D01*
X27503004Y13355640D01*
X27400311Y13287023D01*
X27312977Y13199689D01*
X27244360Y13096996D01*
X27197095Y12982889D01*
X27173000Y12861754D01*
X17562082Y12861754D01*
X17552905Y12907889D01*
X17505640Y13021996D01*
X17437023Y13124689D01*
X17349689Y13212023D01*
X17246996Y13280640D01*
X17132889Y13327905D01*
X17011754Y13352000D01*
X16888246Y13352000D01*
X16767111Y13327905D01*
X16653004Y13280640D01*
X16550311Y13212023D01*
X16462977Y13124689D01*
X16394360Y13021996D01*
X16347095Y12907889D01*
X16323000Y12786754D01*
X8627000Y12786754D01*
X8627000Y12811754D01*
X8602905Y12932889D01*
X8555640Y13046996D01*
X8487023Y13149689D01*
X8436712Y13200000D01*
X8487023Y13250311D01*
X8529547Y13313953D01*
X8571359Y13257168D01*
X8699670Y13140065D01*
X8848362Y13050244D01*
X8968817Y13012795D01*
X9103000Y13052296D01*
X9103000Y14173000D01*
X9357000Y14173000D01*
X9357000Y13052296D01*
X9491183Y13012795D01*
X9611638Y13050244D01*
X9760330Y13140065D01*
X9888641Y13257168D01*
X9991641Y13397054D01*
X10065372Y13554346D01*
X10107000Y13723000D01*
X10107000Y14173000D01*
X9357000Y14173000D01*
X9103000Y14173000D01*
X9083000Y14173000D01*
X9083000Y14427000D01*
X9103000Y14427000D01*
X9103000Y15547704D01*
X9357000Y15547704D01*
X9357000Y14427000D01*
X10107000Y14427000D01*
X10107000Y14877000D01*
X10065372Y15045654D01*
X9991641Y15202946D01*
X9948340Y15261754D01*
X17373000Y15261754D01*
X17373000Y15138246D01*
X17397095Y15017111D01*
X17444360Y14903004D01*
X17512977Y14800311D01*
X17600311Y14712977D01*
X17703004Y14644360D01*
X17817111Y14597095D01*
X17938246Y14573000D01*
X18061754Y14573000D01*
X18182889Y14597095D01*
X18296996Y14644360D01*
X18399689Y14712977D01*
X18487023Y14800311D01*
X18555640Y14903004D01*
X18575520Y14951000D01*
X32415000Y14951000D01*
X32415000Y14729000D01*
X32458310Y14511266D01*
X32543266Y14306165D01*
X32666602Y14121579D01*
X32823579Y13964602D01*
X33008165Y13841266D01*
X33213266Y13756310D01*
X33431000Y13713000D01*
X33653000Y13713000D01*
X33870734Y13756310D01*
X34075835Y13841266D01*
X34260421Y13964602D01*
X34417398Y14121579D01*
X34540734Y14306165D01*
X34625690Y14511266D01*
X34669000Y14729000D01*
X34669000Y14951000D01*
X34955000Y14951000D01*
X34955000Y14729000D01*
X34998310Y14511266D01*
X35083266Y14306165D01*
X35206602Y14121579D01*
X35363579Y13964602D01*
X35548165Y13841266D01*
X35753266Y13756310D01*
X35971000Y13713000D01*
X36193000Y13713000D01*
X36410734Y13756310D01*
X36615835Y13841266D01*
X36800421Y13964602D01*
X36957398Y14121579D01*
X37080734Y14306165D01*
X37165690Y14511266D01*
X37209000Y14729000D01*
X37209000Y14951000D01*
X37165690Y15168734D01*
X37080734Y15373835D01*
X36957398Y15558421D01*
X36800421Y15715398D01*
X36615835Y15838734D01*
X36410734Y15923690D01*
X36193000Y15967000D01*
X35971000Y15967000D01*
X35753266Y15923690D01*
X35548165Y15838734D01*
X35363579Y15715398D01*
X35206602Y15558421D01*
X35083266Y15373835D01*
X34998310Y15168734D01*
X34955000Y14951000D01*
X34669000Y14951000D01*
X34625690Y15168734D01*
X34540734Y15373835D01*
X34417398Y15558421D01*
X34260421Y15715398D01*
X34075835Y15838734D01*
X33870734Y15923690D01*
X33653000Y15967000D01*
X33431000Y15967000D01*
X33213266Y15923690D01*
X33008165Y15838734D01*
X32823579Y15715398D01*
X32666602Y15558421D01*
X32543266Y15373835D01*
X32458310Y15168734D01*
X32415000Y14951000D01*
X18575520Y14951000D01*
X18602905Y15017111D01*
X18627000Y15138246D01*
X18627000Y15261754D01*
X18602905Y15382889D01*
X18555640Y15496996D01*
X18487023Y15599689D01*
X18399689Y15687023D01*
X18296996Y15755640D01*
X18182889Y15802905D01*
X18061754Y15827000D01*
X17938246Y15827000D01*
X17817111Y15802905D01*
X17703004Y15755640D01*
X17600311Y15687023D01*
X17512977Y15599689D01*
X17444360Y15496996D01*
X17397095Y15382889D01*
X17373000Y15261754D01*
X9948340Y15261754D01*
X9888641Y15342832D01*
X9760330Y15459935D01*
X9611638Y15549756D01*
X9491183Y15587205D01*
X9357000Y15547704D01*
X9103000Y15547704D01*
X8968817Y15587205D01*
X8848362Y15549756D01*
X8699670Y15459935D01*
X8600996Y15369880D01*
X8613586Y15406978D01*
X8629698Y15529431D01*
X8621611Y15652674D01*
X8589636Y15771971D01*
X8573894Y15809978D01*
X8476034Y15846429D01*
X8179605Y15550000D01*
X8193748Y15535857D01*
X8014143Y15356252D01*
X8000000Y15370395D01*
X7836334Y15206729D01*
X7817111Y15202905D01*
X7703004Y15155640D01*
X7600311Y15087023D01*
X7512977Y14999689D01*
X7444360Y14896996D01*
X7397095Y14782889D01*
X7373000Y14661754D01*
X7227000Y14661754D01*
X7202905Y14782889D01*
X7155640Y14896996D01*
X7087023Y14999689D01*
X6999689Y15087023D01*
X6896996Y15155640D01*
X6782889Y15202905D01*
X6763666Y15206729D01*
X6600000Y15370395D01*
X6585858Y15356252D01*
X6406253Y15535857D01*
X6420395Y15550000D01*
X6779605Y15550000D01*
X7076034Y15253571D01*
X7173894Y15290022D01*
X7213586Y15406978D01*
X7229698Y15529431D01*
X7226999Y15570569D01*
X7370302Y15570569D01*
X7378389Y15447326D01*
X7410364Y15328029D01*
X7426106Y15290022D01*
X7523966Y15253571D01*
X7820395Y15550000D01*
X7523966Y15846429D01*
X7426106Y15809978D01*
X7386414Y15693022D01*
X7370302Y15570569D01*
X7226999Y15570569D01*
X7221611Y15652674D01*
X7189636Y15771971D01*
X7173894Y15809978D01*
X7076034Y15846429D01*
X6779605Y15550000D01*
X6420395Y15550000D01*
X6123966Y15846429D01*
X6026106Y15809978D01*
X5986414Y15693022D01*
X5970302Y15570569D01*
X5978389Y15447326D01*
X5999193Y15369708D01*
X5900330Y15459935D01*
X5751638Y15549756D01*
X5631183Y15587205D01*
X5497000Y15547704D01*
X5243000Y15547704D01*
X5108817Y15587205D01*
X4988362Y15549756D01*
X4839670Y15459935D01*
X4711359Y15342832D01*
X4608359Y15202946D01*
X4534628Y15045654D01*
X4493000Y14877000D01*
X2802000Y14877000D01*
X2802000Y16026034D01*
X6303571Y16026034D01*
X6600000Y15729605D01*
X6896429Y16026034D01*
X7703571Y16026034D01*
X8000000Y15729605D01*
X8296429Y16026034D01*
X8259978Y16123894D01*
X8143022Y16163586D01*
X8020569Y16179698D01*
X7897326Y16171611D01*
X7778029Y16139636D01*
X7740022Y16123894D01*
X7703571Y16026034D01*
X6896429Y16026034D01*
X6859978Y16123894D01*
X6743022Y16163586D01*
X6620569Y16179698D01*
X6497326Y16171611D01*
X6378029Y16139636D01*
X6340022Y16123894D01*
X6303571Y16026034D01*
X2802000Y16026034D01*
X2802000Y17371603D01*
X12323000Y17371603D01*
X12323000Y17228397D01*
X12350938Y17087942D01*
X12405741Y16955636D01*
X12485302Y16836564D01*
X12586564Y16735302D01*
X12705636Y16655741D01*
X12837942Y16600938D01*
X12978397Y16573000D01*
X13121603Y16573000D01*
X13262058Y16600938D01*
X13394364Y16655741D01*
X13513436Y16735302D01*
X13614698Y16836564D01*
X13634820Y16866679D01*
X17223000Y16866679D01*
X17223000Y16733321D01*
X17249016Y16602526D01*
X17300050Y16479320D01*
X17374140Y16368437D01*
X17468437Y16274140D01*
X17579320Y16200050D01*
X17702526Y16149016D01*
X17833321Y16123000D01*
X17966679Y16123000D01*
X18097474Y16149016D01*
X18220680Y16200050D01*
X18331563Y16274140D01*
X18425860Y16368437D01*
X18499950Y16479320D01*
X18550984Y16602526D01*
X18562764Y16661754D01*
X19998000Y16661754D01*
X19998000Y16538246D01*
X20022095Y16417111D01*
X20069360Y16303004D01*
X20137977Y16200311D01*
X20225311Y16112977D01*
X20328004Y16044360D01*
X20442111Y15997095D01*
X20563246Y15973000D01*
X20686754Y15973000D01*
X20807889Y15997095D01*
X20921996Y16044360D01*
X21024689Y16112977D01*
X21050000Y16138288D01*
X21075311Y16112977D01*
X21178004Y16044360D01*
X21292111Y15997095D01*
X21413246Y15973000D01*
X21536754Y15973000D01*
X21657889Y15997095D01*
X21771996Y16044360D01*
X21874689Y16112977D01*
X21962023Y16200311D01*
X22030640Y16303004D01*
X22077905Y16417111D01*
X22102000Y16538246D01*
X22102000Y16661754D01*
X22077905Y16782889D01*
X22043198Y16866679D01*
X24623000Y16866679D01*
X24623000Y16733321D01*
X24649016Y16602526D01*
X24700050Y16479320D01*
X24774140Y16368437D01*
X24868437Y16274140D01*
X24979320Y16200050D01*
X25102526Y16149016D01*
X25233321Y16123000D01*
X25366679Y16123000D01*
X25497474Y16149016D01*
X25528226Y16161754D01*
X26873000Y16161754D01*
X26873000Y16038246D01*
X26897095Y15917111D01*
X26944360Y15803004D01*
X27012977Y15700311D01*
X27100311Y15612977D01*
X27203004Y15544360D01*
X27317111Y15497095D01*
X27438246Y15473000D01*
X27561754Y15473000D01*
X27682889Y15497095D01*
X27796996Y15544360D01*
X27899689Y15612977D01*
X27987023Y15700311D01*
X28055640Y15803004D01*
X28102905Y15917111D01*
X28127000Y16038246D01*
X28127000Y16161754D01*
X28102905Y16282889D01*
X28055640Y16396996D01*
X27987023Y16499689D01*
X27899689Y16587023D01*
X27796996Y16655640D01*
X27682889Y16702905D01*
X27561754Y16727000D01*
X27438246Y16727000D01*
X27317111Y16702905D01*
X27203004Y16655640D01*
X27100311Y16587023D01*
X27012977Y16499689D01*
X26944360Y16396996D01*
X26897095Y16282889D01*
X26873000Y16161754D01*
X25528226Y16161754D01*
X25620680Y16200050D01*
X25731563Y16274140D01*
X25825860Y16368437D01*
X25899950Y16479320D01*
X25950984Y16602526D01*
X25977000Y16733321D01*
X25977000Y16866679D01*
X25950984Y16997474D01*
X25899950Y17120680D01*
X25825860Y17231563D01*
X25731563Y17325860D01*
X25620680Y17399950D01*
X25497474Y17450984D01*
X25366679Y17477000D01*
X25233321Y17477000D01*
X25102526Y17450984D01*
X24979320Y17399950D01*
X24868437Y17325860D01*
X24774140Y17231563D01*
X24700050Y17120680D01*
X24649016Y16997474D01*
X24623000Y16866679D01*
X22043198Y16866679D01*
X22030640Y16896996D01*
X21962023Y16999689D01*
X21874689Y17087023D01*
X21771996Y17155640D01*
X21657889Y17202905D01*
X21536754Y17227000D01*
X21413246Y17227000D01*
X21292111Y17202905D01*
X21178004Y17155640D01*
X21075311Y17087023D01*
X21050000Y17061712D01*
X21024689Y17087023D01*
X20921996Y17155640D01*
X20807889Y17202905D01*
X20686754Y17227000D01*
X20563246Y17227000D01*
X20442111Y17202905D01*
X20328004Y17155640D01*
X20225311Y17087023D01*
X20137977Y16999689D01*
X20069360Y16896996D01*
X20022095Y16782889D01*
X19998000Y16661754D01*
X18562764Y16661754D01*
X18577000Y16733321D01*
X18577000Y16866679D01*
X18550984Y16997474D01*
X18499950Y17120680D01*
X18425860Y17231563D01*
X18331563Y17325860D01*
X18220680Y17399950D01*
X18097474Y17450984D01*
X17966679Y17477000D01*
X17833321Y17477000D01*
X17702526Y17450984D01*
X17579320Y17399950D01*
X17468437Y17325860D01*
X17374140Y17231563D01*
X17300050Y17120680D01*
X17249016Y16997474D01*
X17223000Y16866679D01*
X13634820Y16866679D01*
X13694259Y16955636D01*
X13749062Y17087942D01*
X13777000Y17228397D01*
X13777000Y17371603D01*
X13749062Y17512058D01*
X13694259Y17644364D01*
X13614698Y17763436D01*
X13513436Y17864698D01*
X13394364Y17944259D01*
X13262058Y17999062D01*
X13121603Y18027000D01*
X12978397Y18027000D01*
X12837942Y17999062D01*
X12705636Y17944259D01*
X12586564Y17864698D01*
X12485302Y17763436D01*
X12405741Y17644364D01*
X12350938Y17512058D01*
X12323000Y17371603D01*
X2802000Y17371603D01*
X2802000Y18230000D01*
X32413660Y18230000D01*
X32413660Y16530000D01*
X32419008Y16475699D01*
X32434847Y16423484D01*
X32460569Y16375363D01*
X32495184Y16333184D01*
X32537363Y16298569D01*
X32585484Y16272847D01*
X32637699Y16257008D01*
X32692000Y16251660D01*
X34392000Y16251660D01*
X34446301Y16257008D01*
X34498516Y16272847D01*
X34546637Y16298569D01*
X34588816Y16333184D01*
X34623431Y16375363D01*
X34649153Y16423484D01*
X34664992Y16475699D01*
X34670340Y16530000D01*
X34670340Y17491000D01*
X34955000Y17491000D01*
X34955000Y17269000D01*
X34998310Y17051266D01*
X35083266Y16846165D01*
X35206602Y16661579D01*
X35363579Y16504602D01*
X35548165Y16381266D01*
X35753266Y16296310D01*
X35971000Y16253000D01*
X36193000Y16253000D01*
X36410734Y16296310D01*
X36615835Y16381266D01*
X36800421Y16504602D01*
X36957398Y16661579D01*
X37080734Y16846165D01*
X37165690Y17051266D01*
X37209000Y17269000D01*
X37209000Y17491000D01*
X37165690Y17708734D01*
X37080734Y17913835D01*
X36957398Y18098421D01*
X36800421Y18255398D01*
X36615835Y18378734D01*
X36410734Y18463690D01*
X36193000Y18507000D01*
X35971000Y18507000D01*
X35753266Y18463690D01*
X35548165Y18378734D01*
X35363579Y18255398D01*
X35206602Y18098421D01*
X35083266Y17913835D01*
X34998310Y17708734D01*
X34955000Y17491000D01*
X34670340Y17491000D01*
X34670340Y18230000D01*
X34664992Y18284301D01*
X34649153Y18336516D01*
X34623431Y18384637D01*
X34588816Y18426816D01*
X34546637Y18461431D01*
X34498516Y18487153D01*
X34446301Y18502992D01*
X34392000Y18508340D01*
X32692000Y18508340D01*
X32637699Y18502992D01*
X32585484Y18487153D01*
X32537363Y18461431D01*
X32495184Y18426816D01*
X32460569Y18384637D01*
X32434847Y18336516D01*
X32419008Y18284301D01*
X32413660Y18230000D01*
X2802000Y18230000D01*
X2802000Y21285226D01*
X2812906Y21396447D01*
X2840916Y21489222D01*
X2886409Y21574784D01*
X2947661Y21649887D01*
X3022334Y21711662D01*
X3107580Y21757754D01*
X3200157Y21786410D01*
X3310428Y21798000D01*
X9339386Y21798000D01*
X9445723Y21350383D01*
X9454602Y21324543D01*
X9463150Y21298489D01*
X9464877Y21294642D01*
X9684531Y20814070D01*
X9698253Y20790460D01*
X9711705Y20766549D01*
X9714146Y20763111D01*
X10022961Y20334354D01*
X10041008Y20313858D01*
X10058848Y20293017D01*
X10061910Y20290118D01*
X10448122Y19929511D01*
X10469825Y19912897D01*
X10491355Y19895932D01*
X10494922Y19893683D01*
X10943821Y19614959D01*
X10968325Y19602882D01*
X10992753Y19590416D01*
X10996689Y19588902D01*
X11491178Y19402678D01*
X11517600Y19395581D01*
X11543944Y19388108D01*
X11548099Y19387388D01*
X12069340Y19300757D01*
X12096609Y19298928D01*
X12123932Y19296712D01*
X12128148Y19296813D01*
X12128149Y19296813D01*
X12656289Y19313074D01*
X12683351Y19316572D01*
X12710627Y19319710D01*
X12714743Y19320628D01*
X13229667Y19439163D01*
X13255553Y19447857D01*
X13281682Y19456227D01*
X13285541Y19457927D01*
X13767635Y19674221D01*
X13791360Y19687789D01*
X13815344Y19701063D01*
X13818799Y19703480D01*
X13954798Y19800000D01*
X15521660Y19800000D01*
X15527008Y19745699D01*
X15542847Y19693484D01*
X15568569Y19645363D01*
X15603184Y19603184D01*
X15645363Y19568569D01*
X15693484Y19542847D01*
X15745699Y19527008D01*
X15800000Y19521660D01*
X16103750Y19523000D01*
X16173000Y19592250D01*
X16173000Y20173000D01*
X15592250Y20173000D01*
X15523000Y20103750D01*
X15521660Y19800000D01*
X13954798Y19800000D01*
X14249700Y20009293D01*
X14270332Y20027206D01*
X14291287Y20044891D01*
X14294208Y20047933D01*
X14657503Y20431619D01*
X14674278Y20453218D01*
X14691383Y20474617D01*
X14693657Y20478168D01*
X14896611Y20800000D01*
X15521660Y20800000D01*
X15523000Y20496250D01*
X15592250Y20427000D01*
X16173000Y20427000D01*
X16173000Y21007750D01*
X16427000Y21007750D01*
X16427000Y20427000D01*
X16447000Y20427000D01*
X16447000Y20173000D01*
X16427000Y20173000D01*
X16427000Y19592250D01*
X16496250Y19523000D01*
X16800000Y19521660D01*
X16854301Y19527008D01*
X16906516Y19542847D01*
X16954637Y19568569D01*
X16996816Y19603184D01*
X17031431Y19645363D01*
X17057153Y19693484D01*
X17061928Y19709227D01*
X17074691Y19696464D01*
X17201952Y19611431D01*
X17343357Y19552859D01*
X17493472Y19523000D01*
X17646528Y19523000D01*
X17796643Y19552859D01*
X17938048Y19611431D01*
X18065309Y19696464D01*
X18173536Y19804691D01*
X18205000Y19851780D01*
X18236464Y19804691D01*
X18344691Y19696464D01*
X18471952Y19611431D01*
X18613357Y19552859D01*
X18763472Y19523000D01*
X18916528Y19523000D01*
X19066643Y19552859D01*
X19208048Y19611431D01*
X19335309Y19696464D01*
X19443536Y19804691D01*
X19475000Y19851780D01*
X19506464Y19804691D01*
X19614691Y19696464D01*
X19741952Y19611431D01*
X19883357Y19552859D01*
X20033472Y19523000D01*
X20186528Y19523000D01*
X20336643Y19552859D01*
X20478048Y19611431D01*
X20605309Y19696464D01*
X20713536Y19804691D01*
X20798569Y19931952D01*
X20857141Y20073357D01*
X20887000Y20223472D01*
X20887000Y20361754D01*
X26673000Y20361754D01*
X26673000Y20238246D01*
X26697095Y20117111D01*
X26744360Y20003004D01*
X26812977Y19900311D01*
X26900311Y19812977D01*
X27003004Y19744360D01*
X27117111Y19697095D01*
X27238246Y19673000D01*
X27361754Y19673000D01*
X27482889Y19697095D01*
X27596996Y19744360D01*
X27699689Y19812977D01*
X27787023Y19900311D01*
X27855640Y20003004D01*
X27902905Y20117111D01*
X27927000Y20238246D01*
X27927000Y20361754D01*
X27902905Y20482889D01*
X27855640Y20596996D01*
X27787023Y20699689D01*
X27699689Y20787023D01*
X27596996Y20855640D01*
X27482889Y20902905D01*
X27361754Y20927000D01*
X27238246Y20927000D01*
X27117111Y20902905D01*
X27003004Y20855640D01*
X26900311Y20787023D01*
X26812977Y20699689D01*
X26744360Y20596996D01*
X26697095Y20482889D01*
X26673000Y20361754D01*
X20887000Y20361754D01*
X20887000Y20376528D01*
X20857141Y20526643D01*
X20798569Y20668048D01*
X20713536Y20795309D01*
X20605309Y20903536D01*
X20478048Y20988569D01*
X20336643Y21047141D01*
X20186528Y21077000D01*
X20033472Y21077000D01*
X19883357Y21047141D01*
X19741952Y20988569D01*
X19614691Y20903536D01*
X19506464Y20795309D01*
X19475000Y20748220D01*
X19443536Y20795309D01*
X19335309Y20903536D01*
X19208048Y20988569D01*
X19066643Y21047141D01*
X18916528Y21077000D01*
X18763472Y21077000D01*
X18613357Y21047141D01*
X18471952Y20988569D01*
X18344691Y20903536D01*
X18236464Y20795309D01*
X18205000Y20748220D01*
X18173536Y20795309D01*
X18065309Y20903536D01*
X17938048Y20988569D01*
X17796643Y21047141D01*
X17646528Y21077000D01*
X17493472Y21077000D01*
X17343357Y21047141D01*
X17201952Y20988569D01*
X17074691Y20903536D01*
X17061928Y20890773D01*
X17057153Y20906516D01*
X17031431Y20954637D01*
X16996816Y20996816D01*
X16954637Y21031431D01*
X16906516Y21057153D01*
X16854301Y21072992D01*
X16800000Y21078340D01*
X16496250Y21077000D01*
X16427000Y21007750D01*
X16173000Y21007750D01*
X16103750Y21077000D01*
X15800000Y21078340D01*
X15745699Y21072992D01*
X15693484Y21057153D01*
X15645363Y21031431D01*
X15603184Y20996816D01*
X15568569Y20954637D01*
X15542847Y20906516D01*
X15527008Y20854301D01*
X15521660Y20800000D01*
X14896611Y20800000D01*
X14975508Y20925110D01*
X14987755Y20949527D01*
X15000392Y20973869D01*
X15001932Y20977795D01*
X15191604Y21470970D01*
X15198876Y21497305D01*
X15206543Y21523634D01*
X15207292Y21527784D01*
X15254144Y21798000D01*
X29814833Y21798000D01*
X29827578Y21799255D01*
X29828766Y21799247D01*
X29832962Y21799659D01*
X29852122Y21801673D01*
X29859202Y21802370D01*
X29859438Y21802442D01*
X29871783Y21803739D01*
X29898547Y21809233D01*
X29925481Y21814371D01*
X29929518Y21815590D01*
X29966805Y21827133D01*
X29991971Y21837712D01*
X30017416Y21847992D01*
X30021139Y21849972D01*
X30055475Y21868537D01*
X30078125Y21883815D01*
X30101077Y21898834D01*
X30104345Y21901500D01*
X30134420Y21926381D01*
X30153701Y21945798D01*
X30173261Y21964953D01*
X30175949Y21968202D01*
X30200619Y21998451D01*
X30215751Y22021227D01*
X30231228Y22043831D01*
X30233234Y22047541D01*
X30251559Y22082005D01*
X30261982Y22107293D01*
X30272772Y22132468D01*
X30274019Y22136497D01*
X30285301Y22173864D01*
X30290609Y22200671D01*
X30296309Y22227489D01*
X30296750Y22231683D01*
X30300559Y22270530D01*
X30316746Y22435623D01*
X30923000Y22435623D01*
X30923000Y22164377D01*
X30975917Y21898344D01*
X31079718Y21647746D01*
X31230414Y21422213D01*
X31422213Y21230414D01*
X31647746Y21079718D01*
X31898344Y20975917D01*
X32164377Y20923000D01*
X32435623Y20923000D01*
X32701656Y20975917D01*
X32952254Y21079718D01*
X33177787Y21230414D01*
X33369586Y21422213D01*
X33520282Y21647746D01*
X33624083Y21898344D01*
X33677000Y22164377D01*
X33677000Y22435623D01*
X33624083Y22701656D01*
X33520282Y22952254D01*
X33369586Y23177787D01*
X33177787Y23369586D01*
X32952254Y23520282D01*
X32701656Y23624083D01*
X32435623Y23677000D01*
X32164377Y23677000D01*
X31898344Y23624083D01*
X31647746Y23520282D01*
X31422213Y23369586D01*
X31230414Y23177787D01*
X31079718Y22952254D01*
X30975917Y22701656D01*
X30923000Y22435623D01*
X30316746Y22435623D01*
X30341473Y22687802D01*
X30454096Y23060827D01*
X30637029Y23404874D01*
X30883305Y23706839D01*
X31183540Y23955215D01*
X31526307Y24140548D01*
X31898536Y24255772D01*
X32286064Y24296503D01*
X32674115Y24261188D01*
%TA.AperFunction,Conductor*%
D21*
G36*
X32674115Y24261188D02*
G01*
X33047924Y24151170D01*
X33393239Y23970643D01*
X33696911Y23726484D01*
X33947383Y23427984D01*
X34135100Y23086527D01*
X34252922Y22715105D01*
X34297893Y22314180D01*
X34298004Y22298285D01*
X34298007Y22297522D01*
X34299339Y22284420D01*
X34299247Y22271234D01*
X34299659Y22267038D01*
X34303739Y22228217D01*
X34309233Y22201453D01*
X34314371Y22174519D01*
X34315590Y22170482D01*
X34327133Y22133195D01*
X34337712Y22108029D01*
X34347992Y22082584D01*
X34349972Y22078861D01*
X34368537Y22044525D01*
X34383815Y22021875D01*
X34398834Y21998923D01*
X34401500Y21995655D01*
X34426381Y21965580D01*
X34445798Y21946299D01*
X34464953Y21926739D01*
X34468202Y21924051D01*
X34498451Y21899381D01*
X34521227Y21884249D01*
X34543831Y21868772D01*
X34547541Y21866766D01*
X34582005Y21848441D01*
X34607293Y21838018D01*
X34632468Y21827228D01*
X34636497Y21825981D01*
X34673864Y21814699D01*
X34700671Y21809391D01*
X34727489Y21803691D01*
X34731683Y21803250D01*
X34770530Y21799441D01*
X34770536Y21799441D01*
X34785167Y21798000D01*
X41285226Y21798000D01*
X41396447Y21787094D01*
X41489222Y21759084D01*
X41574784Y21713591D01*
X41649887Y21652339D01*
X41711662Y21577666D01*
X41757754Y21492420D01*
X41786410Y21399843D01*
X41798001Y21289563D01*
X41798000Y15260614D01*
X41350383Y15154277D01*
X41324543Y15145398D01*
X41298489Y15136850D01*
X41294641Y15135123D01*
X40814070Y14915469D01*
X40790454Y14901744D01*
X40766550Y14888295D01*
X40763111Y14885854D01*
X40334355Y14577040D01*
X40313836Y14558974D01*
X40293017Y14541152D01*
X40290118Y14538090D01*
X39929511Y14151878D01*
X39912918Y14130204D01*
X39895931Y14108645D01*
X39893682Y14105077D01*
X39614959Y13656179D01*
X39602889Y13631688D01*
X39590416Y13607247D01*
X39588903Y13603311D01*
X39402678Y13108823D01*
X39395578Y13082391D01*
X39388108Y13056056D01*
X39387388Y13051901D01*
X39300757Y12530660D01*
X39298928Y12503391D01*
X39296712Y12476068D01*
X39296813Y12471852D01*
X39313074Y11943711D01*
X39316572Y11916649D01*
X39319710Y11889373D01*
X39320628Y11885257D01*
X39439163Y11370333D01*
X39447857Y11344447D01*
X39456227Y11318318D01*
X39457927Y11314459D01*
X39674221Y10832365D01*
X39687789Y10808640D01*
X39701063Y10784656D01*
X39703480Y10781201D01*
X40009293Y10350300D01*
X40027206Y10329668D01*
X40044891Y10308713D01*
X40047933Y10305792D01*
X40431619Y9942497D01*
X40453218Y9925722D01*
X40474617Y9908617D01*
X40478168Y9906343D01*
X40925110Y9624492D01*
X40949527Y9612245D01*
X40973869Y9599608D01*
X40977795Y9598068D01*
X41470970Y9408396D01*
X41497305Y9401124D01*
X41523634Y9393457D01*
X41527784Y9392708D01*
X41798001Y9345856D01*
X41798000Y3314774D01*
X41787095Y3203553D01*
X41759084Y3110778D01*
X41713589Y3025213D01*
X41652337Y2950111D01*
X41577666Y2888338D01*
X41492422Y2842247D01*
X41399844Y2813590D01*
X41289581Y2802000D01*
X34785167Y2802000D01*
X34772422Y2800745D01*
X34771235Y2800753D01*
X34767038Y2800341D01*
X34747886Y2798328D01*
X34740798Y2797630D01*
X34740562Y2797558D01*
X34728218Y2796261D01*
X34701454Y2790767D01*
X34674519Y2785629D01*
X34670482Y2784410D01*
X34633195Y2772868D01*
X34608016Y2762283D01*
X34582585Y2752009D01*
X34578861Y2750028D01*
X34544525Y2731463D01*
X34521875Y2716185D01*
X34498923Y2701166D01*
X34495655Y2698500D01*
X34465580Y2673619D01*
X34446317Y2654221D01*
X34426738Y2635047D01*
X34424051Y2631797D01*
X34399381Y2601549D01*
X34384260Y2578788D01*
X34368772Y2556169D01*
X34366766Y2552459D01*
X34348441Y2517995D01*
X34338018Y2492707D01*
X34327228Y2467532D01*
X34325981Y2463503D01*
X34314699Y2426136D01*
X34309390Y2399322D01*
X34303691Y2372511D01*
X34303250Y2368317D01*
X34299441Y2329470D01*
X34258528Y1912201D01*
X34145905Y1539175D01*
X33962971Y1195125D01*
X33716695Y893161D01*
X33416458Y644784D01*
X33073693Y459452D01*
X32701464Y344228D01*
X32313935Y303497D01*
X31925885Y338812D01*
X31552075Y448830D01*
X31206762Y629357D01*
X30903086Y873518D01*
X30652616Y1172018D01*
X30464900Y1513474D01*
X30347078Y1884895D01*
X30302107Y2285819D01*
X30301996Y2301715D01*
X30301993Y2302478D01*
X30300661Y2315580D01*
X30300753Y2328765D01*
X30300341Y2332962D01*
X30296261Y2371782D01*
X30290767Y2398546D01*
X30285629Y2425481D01*
X30284410Y2429518D01*
X30282521Y2435623D01*
X30923000Y2435623D01*
X30923000Y2164377D01*
X30975917Y1898344D01*
X31079718Y1647746D01*
X31230414Y1422213D01*
X31422213Y1230414D01*
X31647746Y1079718D01*
X31898344Y975917D01*
X32164377Y923000D01*
X32435623Y923000D01*
X32701656Y975917D01*
X32952254Y1079718D01*
X33177787Y1230414D01*
X33369586Y1422213D01*
X33520282Y1647746D01*
X33624083Y1898344D01*
X33677000Y2164377D01*
X33677000Y2435623D01*
X33624083Y2701656D01*
X33520282Y2952254D01*
X33369586Y3177787D01*
X33177787Y3369586D01*
X32952254Y3520282D01*
X32701656Y3624083D01*
X32435623Y3677000D01*
X32164377Y3677000D01*
X31898344Y3624083D01*
X31647746Y3520282D01*
X31422213Y3369586D01*
X31230414Y3177787D01*
X31079718Y2952254D01*
X30975917Y2701656D01*
X30923000Y2435623D01*
X30282521Y2435623D01*
X30272868Y2466805D01*
X30262283Y2491984D01*
X30252009Y2517415D01*
X30250028Y2521139D01*
X30231463Y2555475D01*
X30216185Y2578125D01*
X30201166Y2601077D01*
X30198500Y2604345D01*
X30173619Y2634420D01*
X30154221Y2653683D01*
X30135047Y2673262D01*
X30131797Y2675949D01*
X30101549Y2700619D01*
X30078788Y2715740D01*
X30056169Y2731228D01*
X30052459Y2733234D01*
X30017995Y2751559D01*
X29992707Y2761982D01*
X29967532Y2772772D01*
X29963503Y2774019D01*
X29926136Y2785301D01*
X29899322Y2790610D01*
X29872511Y2796309D01*
X29868317Y2796750D01*
X29829470Y2800559D01*
X29829464Y2800559D01*
X29814833Y2802000D01*
X15260614Y2802000D01*
X15154277Y3249617D01*
X15145398Y3275457D01*
X15136850Y3301511D01*
X15135123Y3305359D01*
X14915469Y3785930D01*
X14901744Y3809546D01*
X14888295Y3833450D01*
X14885854Y3836889D01*
X14577040Y4265645D01*
X14558974Y4286164D01*
X14541152Y4306983D01*
X14538090Y4309882D01*
X14151878Y4670489D01*
X14130204Y4687082D01*
X14108645Y4704069D01*
X14105077Y4706318D01*
X13656179Y4985041D01*
X13631688Y4997111D01*
X13607247Y5009584D01*
X13603311Y5011097D01*
X13108823Y5197322D01*
X13082391Y5204422D01*
X13056056Y5211892D01*
X13051901Y5212612D01*
X12530660Y5299243D01*
X12503391Y5301072D01*
X12476068Y5303288D01*
X12471852Y5303187D01*
X12471851Y5303187D01*
X11943711Y5286926D01*
X11916649Y5283428D01*
X11889373Y5280290D01*
X11885257Y5279372D01*
X11370333Y5160837D01*
X11344435Y5152139D01*
X11318319Y5143773D01*
X11314459Y5142073D01*
X10832365Y4925779D01*
X10808640Y4912211D01*
X10784656Y4898937D01*
X10781201Y4896520D01*
X10350300Y4590707D01*
X10329705Y4572827D01*
X10308712Y4555109D01*
X10305792Y4552066D01*
X9942497Y4168381D01*
X9925722Y4146782D01*
X9908617Y4125383D01*
X9906343Y4121832D01*
X9624492Y3674890D01*
X9612245Y3650473D01*
X9599608Y3626131D01*
X9598068Y3622205D01*
X9408396Y3129030D01*
X9401127Y3102706D01*
X9393457Y3076367D01*
X9392708Y3072217D01*
X9345857Y2802000D01*
X3314774Y2802000D01*
X3203553Y2812905D01*
X3110778Y2840916D01*
X3025213Y2886411D01*
X2950111Y2947663D01*
X2888338Y3022334D01*
X2842247Y3107578D01*
X2813590Y3200156D01*
X2802000Y3310419D01*
X2802000Y5966679D01*
X23523000Y5966679D01*
X23523000Y5833321D01*
X23549016Y5702526D01*
X23600050Y5579320D01*
X23674140Y5468437D01*
X23768437Y5374140D01*
X23879320Y5300050D01*
X24002526Y5249016D01*
X24133321Y5223000D01*
X24266679Y5223000D01*
X24397474Y5249016D01*
X24520680Y5300050D01*
X24631563Y5374140D01*
X24725860Y5468437D01*
X24799950Y5579320D01*
X24850984Y5702526D01*
X24877000Y5833321D01*
X24877000Y5966679D01*
X24850984Y6097474D01*
X24799950Y6220680D01*
X24725860Y6331563D01*
X24631563Y6425860D01*
X24520680Y6499950D01*
X24397474Y6550984D01*
X24266679Y6577000D01*
X24133321Y6577000D01*
X24002526Y6550984D01*
X23879320Y6499950D01*
X23768437Y6425860D01*
X23674140Y6331563D01*
X23600050Y6220680D01*
X23549016Y6097474D01*
X23523000Y5966679D01*
X2802000Y5966679D01*
X2802000Y7371603D01*
X12323000Y7371603D01*
X12323000Y7228397D01*
X12350938Y7087942D01*
X12405741Y6955636D01*
X12485302Y6836564D01*
X12586564Y6735302D01*
X12705636Y6655741D01*
X12837942Y6600938D01*
X12978397Y6573000D01*
X13121603Y6573000D01*
X13262058Y6600938D01*
X13394364Y6655741D01*
X13513436Y6735302D01*
X13614698Y6836564D01*
X13694259Y6955636D01*
X13749062Y7087942D01*
X13777000Y7228397D01*
X13777000Y7371603D01*
X13749062Y7512058D01*
X13694259Y7644364D01*
X13614698Y7763436D01*
X13513436Y7864698D01*
X13394364Y7944259D01*
X13262058Y7999062D01*
X13121603Y8027000D01*
X12978397Y8027000D01*
X12837942Y7999062D01*
X12705636Y7944259D01*
X12586564Y7864698D01*
X12485302Y7763436D01*
X12405741Y7644364D01*
X12350938Y7512058D01*
X12323000Y7371603D01*
X2802000Y7371603D01*
X2802000Y8366679D01*
X15373000Y8366679D01*
X15373000Y8233321D01*
X15399016Y8102526D01*
X15450050Y7979320D01*
X15524140Y7868437D01*
X15618437Y7774140D01*
X15729320Y7700050D01*
X15852526Y7649016D01*
X15983321Y7623000D01*
X16116679Y7623000D01*
X16247474Y7649016D01*
X16370680Y7700050D01*
X16481563Y7774140D01*
X16575860Y7868437D01*
X16649950Y7979320D01*
X16700984Y8102526D01*
X16727000Y8233321D01*
X16727000Y8261754D01*
X20273000Y8261754D01*
X20273000Y8138246D01*
X20297095Y8017111D01*
X20344360Y7903004D01*
X20412977Y7800311D01*
X20500311Y7712977D01*
X20603004Y7644360D01*
X20717111Y7597095D01*
X20838246Y7573000D01*
X20961754Y7573000D01*
X21082889Y7597095D01*
X21118278Y7611754D01*
X24423000Y7611754D01*
X24423000Y7488246D01*
X24447095Y7367111D01*
X24494360Y7253004D01*
X24562977Y7150311D01*
X24650311Y7062977D01*
X24753004Y6994360D01*
X24867111Y6947095D01*
X24988246Y6923000D01*
X25111754Y6923000D01*
X25232889Y6947095D01*
X25346996Y6994360D01*
X25449689Y7062977D01*
X25537023Y7150311D01*
X25605640Y7253004D01*
X25637947Y7331000D01*
X32415000Y7331000D01*
X32415000Y7109000D01*
X32458310Y6891266D01*
X32543266Y6686165D01*
X32666602Y6501579D01*
X32823579Y6344602D01*
X33008165Y6221266D01*
X33213266Y6136310D01*
X33431000Y6093000D01*
X33653000Y6093000D01*
X33870734Y6136310D01*
X34075835Y6221266D01*
X34260421Y6344602D01*
X34417398Y6501579D01*
X34540734Y6686165D01*
X34625690Y6891266D01*
X34631283Y6919385D01*
X34995833Y6919385D01*
X35011866Y6866508D01*
X35101391Y6664527D01*
X35228601Y6483893D01*
X35388606Y6331547D01*
X35575258Y6213344D01*
X35781384Y6133826D01*
X35955000Y6169422D01*
X35955000Y7093000D01*
X36209000Y7093000D01*
X36209000Y6169422D01*
X36382616Y6133826D01*
X36588742Y6213344D01*
X36775394Y6331547D01*
X36935399Y6483893D01*
X37062609Y6664527D01*
X37152134Y6866508D01*
X37168167Y6919385D01*
X37132098Y7093000D01*
X36209000Y7093000D01*
X35955000Y7093000D01*
X35031902Y7093000D01*
X34995833Y6919385D01*
X34631283Y6919385D01*
X34669000Y7109000D01*
X34669000Y7331000D01*
X34631284Y7520615D01*
X34995833Y7520615D01*
X35031902Y7347000D01*
X35955000Y7347000D01*
X35955000Y8270578D01*
X36209000Y8270578D01*
X36209000Y7347000D01*
X37132098Y7347000D01*
X37168167Y7520615D01*
X37152134Y7573492D01*
X37062609Y7775473D01*
X36935399Y7956107D01*
X36775394Y8108453D01*
X36588742Y8226656D01*
X36382616Y8306174D01*
X36209000Y8270578D01*
X35955000Y8270578D01*
X35781384Y8306174D01*
X35575258Y8226656D01*
X35388606Y8108453D01*
X35228601Y7956107D01*
X35101391Y7775473D01*
X35011866Y7573492D01*
X34995833Y7520615D01*
X34631284Y7520615D01*
X34625690Y7548734D01*
X34540734Y7753835D01*
X34417398Y7938421D01*
X34260421Y8095398D01*
X34075835Y8218734D01*
X33870734Y8303690D01*
X33653000Y8347000D01*
X33431000Y8347000D01*
X33213266Y8303690D01*
X33008165Y8218734D01*
X32823579Y8095398D01*
X32666602Y7938421D01*
X32543266Y7753835D01*
X32458310Y7548734D01*
X32415000Y7331000D01*
X25637947Y7331000D01*
X25652905Y7367111D01*
X25677000Y7488246D01*
X25677000Y7611754D01*
X25652905Y7732889D01*
X25605640Y7846996D01*
X25537023Y7949689D01*
X25449689Y8037023D01*
X25346996Y8105640D01*
X25232889Y8152905D01*
X25111754Y8177000D01*
X24988246Y8177000D01*
X24867111Y8152905D01*
X24753004Y8105640D01*
X24650311Y8037023D01*
X24562977Y7949689D01*
X24494360Y7846996D01*
X24447095Y7732889D01*
X24423000Y7611754D01*
X21118278Y7611754D01*
X21196996Y7644360D01*
X21299689Y7712977D01*
X21387023Y7800311D01*
X21455640Y7903004D01*
X21502905Y8017111D01*
X21527000Y8138246D01*
X21527000Y8261754D01*
X21502905Y8382889D01*
X21455640Y8496996D01*
X21387023Y8599689D01*
X21374958Y8611754D01*
X27173000Y8611754D01*
X27173000Y8488246D01*
X27197095Y8367111D01*
X27244360Y8253004D01*
X27312977Y8150311D01*
X27400311Y8062977D01*
X27503004Y7994360D01*
X27617111Y7947095D01*
X27738246Y7923000D01*
X27861754Y7923000D01*
X27982889Y7947095D01*
X28096996Y7994360D01*
X28199689Y8062977D01*
X28287023Y8150311D01*
X28355640Y8253004D01*
X28402905Y8367111D01*
X28427000Y8488246D01*
X28427000Y8611754D01*
X28402905Y8732889D01*
X28355640Y8846996D01*
X28287023Y8949689D01*
X28199689Y9037023D01*
X28096996Y9105640D01*
X27982889Y9152905D01*
X27861754Y9177000D01*
X27738246Y9177000D01*
X27617111Y9152905D01*
X27503004Y9105640D01*
X27400311Y9037023D01*
X27312977Y8949689D01*
X27244360Y8846996D01*
X27197095Y8732889D01*
X27173000Y8611754D01*
X21374958Y8611754D01*
X21299689Y8687023D01*
X21196996Y8755640D01*
X21082889Y8802905D01*
X20961754Y8827000D01*
X20838246Y8827000D01*
X20717111Y8802905D01*
X20603004Y8755640D01*
X20500311Y8687023D01*
X20412977Y8599689D01*
X20344360Y8496996D01*
X20297095Y8382889D01*
X20273000Y8261754D01*
X16727000Y8261754D01*
X16727000Y8366679D01*
X16700984Y8497474D01*
X16649950Y8620680D01*
X16575860Y8731563D01*
X16481563Y8825860D01*
X16370680Y8899950D01*
X16247474Y8950984D01*
X16116679Y8977000D01*
X15983321Y8977000D01*
X15852526Y8950984D01*
X15729320Y8899950D01*
X15618437Y8825860D01*
X15524140Y8731563D01*
X15450050Y8620680D01*
X15399016Y8497474D01*
X15373000Y8366679D01*
X2802000Y8366679D01*
X2802000Y8573966D01*
X6303571Y8573966D01*
X6340022Y8476106D01*
X6456978Y8436414D01*
X6579431Y8420302D01*
X6702674Y8428389D01*
X6821971Y8460364D01*
X6859978Y8476106D01*
X6896429Y8573966D01*
X7703571Y8573966D01*
X7740022Y8476106D01*
X7856978Y8436414D01*
X7979431Y8420302D01*
X8102674Y8428389D01*
X8221971Y8460364D01*
X8259978Y8476106D01*
X8296429Y8573966D01*
X8000000Y8870395D01*
X7703571Y8573966D01*
X6896429Y8573966D01*
X6600000Y8870395D01*
X6303571Y8573966D01*
X2802000Y8573966D01*
X2802000Y9814833D01*
X2800745Y9827578D01*
X2800753Y9828765D01*
X2800341Y9832962D01*
X2798328Y9852114D01*
X2797630Y9859202D01*
X2797558Y9859438D01*
X2796261Y9871782D01*
X2790767Y9898546D01*
X2785629Y9925481D01*
X2784410Y9929518D01*
X2772868Y9966805D01*
X2762283Y9991984D01*
X2752009Y10017415D01*
X2750028Y10021139D01*
X2731463Y10055475D01*
X2716185Y10078125D01*
X2701166Y10101077D01*
X2698500Y10104345D01*
X2673619Y10134420D01*
X2654221Y10153683D01*
X2635047Y10173262D01*
X2631797Y10175949D01*
X2601549Y10200619D01*
X2578788Y10215740D01*
X2556169Y10231228D01*
X2552459Y10233234D01*
X2517995Y10251559D01*
X2492707Y10261982D01*
X2467532Y10272772D01*
X2463503Y10274019D01*
X2426136Y10285301D01*
X2399322Y10290610D01*
X2372511Y10296309D01*
X2368317Y10296750D01*
X2329470Y10300559D01*
X1912201Y10341472D01*
X1539175Y10454095D01*
X1195125Y10637029D01*
X1003789Y10793079D01*
X4493000Y10793079D01*
X4493000Y9806922D01*
X4505690Y9678079D01*
X4555838Y9512764D01*
X4637273Y9360409D01*
X4746867Y9226867D01*
X4880408Y9117273D01*
X5032763Y9035838D01*
X5198078Y8985690D01*
X5370000Y8968757D01*
X5541921Y8985690D01*
X5707236Y9035838D01*
X5859591Y9117273D01*
X5993133Y9226867D01*
X6001262Y9236772D01*
X5986414Y9193022D01*
X5970302Y9070569D01*
X5978389Y8947326D01*
X6010364Y8828029D01*
X6026106Y8790022D01*
X6123966Y8753571D01*
X6420395Y9050000D01*
X6779605Y9050000D01*
X7076034Y8753571D01*
X7173894Y8790022D01*
X7213586Y8906978D01*
X7229698Y9029431D01*
X7226999Y9070569D01*
X7370302Y9070569D01*
X7378389Y8947326D01*
X7410364Y8828029D01*
X7426106Y8790022D01*
X7523966Y8753571D01*
X7820395Y9050000D01*
X7523966Y9346429D01*
X7426106Y9309978D01*
X7386414Y9193022D01*
X7370302Y9070569D01*
X7226999Y9070569D01*
X7221611Y9152674D01*
X7189636Y9271971D01*
X7173894Y9309978D01*
X7076034Y9346429D01*
X6779605Y9050000D01*
X6420395Y9050000D01*
X6406253Y9064142D01*
X6585858Y9243747D01*
X6600000Y9229605D01*
X6763666Y9393271D01*
X6782889Y9397095D01*
X6896996Y9444360D01*
X6999689Y9512977D01*
X7087023Y9600311D01*
X7155640Y9703004D01*
X7202905Y9817111D01*
X7227000Y9938246D01*
X7227000Y10061754D01*
X7373000Y10061754D01*
X7373000Y9938246D01*
X7397095Y9817111D01*
X7444360Y9703004D01*
X7512977Y9600311D01*
X7600311Y9512977D01*
X7703004Y9444360D01*
X7817111Y9397095D01*
X7836334Y9393271D01*
X8000000Y9229605D01*
X8014143Y9243747D01*
X8193748Y9064142D01*
X8179605Y9050000D01*
X8476034Y8753571D01*
X8573894Y8790022D01*
X8613586Y8906978D01*
X8629698Y9029431D01*
X8621611Y9152674D01*
X8600807Y9230292D01*
X8699670Y9140065D01*
X8848362Y9050244D01*
X8968817Y9012795D01*
X9103000Y9052296D01*
X9103000Y10173000D01*
X9357000Y10173000D01*
X9357000Y9052296D01*
X9491183Y9012795D01*
X9611638Y9050244D01*
X9760330Y9140065D01*
X9888641Y9257168D01*
X9991641Y9397054D01*
X10065372Y9554346D01*
X10107000Y9723000D01*
X10107000Y9871000D01*
X32415000Y9871000D01*
X32415000Y9649000D01*
X32458310Y9431266D01*
X32543266Y9226165D01*
X32666602Y9041579D01*
X32823579Y8884602D01*
X33008165Y8761266D01*
X33213266Y8676310D01*
X33431000Y8633000D01*
X33653000Y8633000D01*
X33870734Y8676310D01*
X34075835Y8761266D01*
X34260421Y8884602D01*
X34417398Y9041579D01*
X34540734Y9226165D01*
X34625690Y9431266D01*
X34669000Y9649000D01*
X34669000Y9871000D01*
X34955000Y9871000D01*
X34955000Y9649000D01*
X34998310Y9431266D01*
X35083266Y9226165D01*
X35206602Y9041579D01*
X35363579Y8884602D01*
X35548165Y8761266D01*
X35753266Y8676310D01*
X35971000Y8633000D01*
X36193000Y8633000D01*
X36410734Y8676310D01*
X36615835Y8761266D01*
X36800421Y8884602D01*
X36957398Y9041579D01*
X37080734Y9226165D01*
X37165690Y9431266D01*
X37209000Y9649000D01*
X37209000Y9871000D01*
X37165690Y10088734D01*
X37080734Y10293835D01*
X36957398Y10478421D01*
X36800421Y10635398D01*
X36615835Y10758734D01*
X36410734Y10843690D01*
X36193000Y10887000D01*
X35971000Y10887000D01*
X35753266Y10843690D01*
X35548165Y10758734D01*
X35363579Y10635398D01*
X35206602Y10478421D01*
X35083266Y10293835D01*
X34998310Y10088734D01*
X34955000Y9871000D01*
X34669000Y9871000D01*
X34625690Y10088734D01*
X34540734Y10293835D01*
X34417398Y10478421D01*
X34260421Y10635398D01*
X34075835Y10758734D01*
X33870734Y10843690D01*
X33653000Y10887000D01*
X33431000Y10887000D01*
X33213266Y10843690D01*
X33008165Y10758734D01*
X32823579Y10635398D01*
X32666602Y10478421D01*
X32543266Y10293835D01*
X32458310Y10088734D01*
X32415000Y9871000D01*
X10107000Y9871000D01*
X10107000Y10173000D01*
X9357000Y10173000D01*
X9103000Y10173000D01*
X9083000Y10173000D01*
X9083000Y10427000D01*
X9103000Y10427000D01*
X9103000Y11547704D01*
X9357000Y11547704D01*
X9357000Y10427000D01*
X10107000Y10427000D01*
X10107000Y10877000D01*
X10065372Y11045654D01*
X9991641Y11202946D01*
X9888641Y11342832D01*
X9760330Y11459935D01*
X9611638Y11549756D01*
X9491183Y11587205D01*
X9357000Y11547704D01*
X9103000Y11547704D01*
X8968817Y11587205D01*
X8848362Y11549756D01*
X8699670Y11459935D01*
X8571359Y11342832D01*
X8468359Y11202946D01*
X8394628Y11045654D01*
X8353000Y10877000D01*
X8353000Y10518219D01*
X8296996Y10555640D01*
X8182889Y10602905D01*
X8061754Y10627000D01*
X7938246Y10627000D01*
X7817111Y10602905D01*
X7703004Y10555640D01*
X7600311Y10487023D01*
X7512977Y10399689D01*
X7444360Y10296996D01*
X7397095Y10182889D01*
X7373000Y10061754D01*
X7227000Y10061754D01*
X7202905Y10182889D01*
X7155640Y10296996D01*
X7087023Y10399689D01*
X7011712Y10475000D01*
X7087023Y10550311D01*
X7155640Y10653004D01*
X7202905Y10767111D01*
X7227000Y10888246D01*
X7227000Y11011754D01*
X7202905Y11132889D01*
X7155640Y11246996D01*
X7087023Y11349689D01*
X7036712Y11400000D01*
X7087023Y11450311D01*
X7155640Y11553004D01*
X7202905Y11667111D01*
X7227000Y11788246D01*
X7227000Y11911754D01*
X7202905Y12032889D01*
X7155640Y12146996D01*
X7087023Y12249689D01*
X7036712Y12300000D01*
X7087023Y12350311D01*
X7155640Y12453004D01*
X7202905Y12567111D01*
X7227000Y12688246D01*
X7227000Y12811754D01*
X7202905Y12932889D01*
X7155640Y13046996D01*
X7087023Y13149689D01*
X6999689Y13237023D01*
X6896996Y13305640D01*
X6782889Y13352905D01*
X6661754Y13377000D01*
X6538246Y13377000D01*
X6417111Y13352905D01*
X6303004Y13305640D01*
X6200311Y13237023D01*
X6112977Y13149689D01*
X6044360Y13046996D01*
X5997095Y12932889D01*
X5973000Y12811754D01*
X5973000Y12688246D01*
X5997095Y12567111D01*
X6044360Y12453004D01*
X6112977Y12350311D01*
X6163288Y12300000D01*
X6112977Y12249689D01*
X6044360Y12146996D01*
X5997095Y12032889D01*
X5973000Y11911754D01*
X5973000Y11788246D01*
X5997095Y11667111D01*
X6044360Y11553004D01*
X6112977Y11450311D01*
X6163288Y11400000D01*
X6112977Y11349689D01*
X6067827Y11282117D01*
X5993133Y11373133D01*
X5859592Y11482727D01*
X5707237Y11564162D01*
X5541922Y11614310D01*
X5370000Y11631243D01*
X5198079Y11614310D01*
X5032764Y11564162D01*
X4880409Y11482727D01*
X4746868Y11373133D01*
X4637274Y11239592D01*
X4555839Y11087237D01*
X4505691Y10921922D01*
X4493000Y10793079D01*
X1003789Y10793079D01*
X893161Y10883305D01*
X644784Y11183542D01*
X459452Y11526307D01*
X344228Y11898536D01*
X303497Y12286064D01*
X317107Y12435623D01*
X923000Y12435623D01*
X923000Y12164377D01*
X975917Y11898344D01*
X1079718Y11647746D01*
X1230414Y11422213D01*
X1422213Y11230414D01*
X1647746Y11079718D01*
X1898344Y10975917D01*
X2164377Y10923000D01*
X2435623Y10923000D01*
X2701656Y10975917D01*
X2952254Y11079718D01*
X3177787Y11230414D01*
X3369586Y11422213D01*
X3520282Y11647746D01*
X3624083Y11898344D01*
X3677000Y12164377D01*
X3677000Y12435623D01*
X3624083Y12701656D01*
X3520282Y12952254D01*
X3369586Y13177787D01*
X3177787Y13369586D01*
X2952254Y13520282D01*
X2701656Y13624083D01*
X2435623Y13677000D01*
X2164377Y13677000D01*
X1898344Y13624083D01*
X1647746Y13520282D01*
X1422213Y13369586D01*
X1230414Y13177787D01*
X1079718Y12952254D01*
X975917Y12701656D01*
X923000Y12435623D01*
X317107Y12435623D01*
X338812Y12674115D01*
X448830Y13047924D01*
X629357Y13393239D01*
X873516Y13696911D01*
X1172016Y13947383D01*
X1513473Y14135100D01*
X1632948Y14173000D01*
X4493000Y14173000D01*
X4493000Y13723000D01*
X4534628Y13554346D01*
X4608359Y13397054D01*
X4711359Y13257168D01*
X4839670Y13140065D01*
X4988362Y13050244D01*
X5108817Y13012795D01*
X5243000Y13052296D01*
X5243000Y14173000D01*
X4493000Y14173000D01*
X1632948Y14173000D01*
X1884895Y14252922D01*
X2285820Y14297893D01*
X2301715Y14298004D01*
X2302478Y14298007D01*
X2315580Y14299339D01*
X2328766Y14299247D01*
X2332962Y14299659D01*
X2371783Y14303739D01*
X2398547Y14309233D01*
X2425481Y14314371D01*
X2429518Y14315590D01*
X2466805Y14327133D01*
X2491971Y14337712D01*
X2517416Y14347992D01*
X2521139Y14349972D01*
X2555475Y14368537D01*
X2578125Y14383815D01*
X2601077Y14398834D01*
X2604345Y14401500D01*
X2634420Y14426381D01*
X2653701Y14445798D01*
X2673261Y14464953D01*
X2675949Y14468202D01*
X2700619Y14498451D01*
X2715751Y14521227D01*
X2731228Y14543831D01*
X2733234Y14547541D01*
X2751559Y14582005D01*
X2761982Y14607293D01*
X2772772Y14632468D01*
X2774019Y14636497D01*
X2785301Y14673864D01*
X2790609Y14700671D01*
X2796309Y14727489D01*
X2796750Y14731683D01*
X2800559Y14770530D01*
X2800559Y14770536D01*
X2802000Y14785167D01*
X2802000Y14877000D01*
X4493000Y14877000D01*
X4493000Y14427000D01*
X5243000Y14427000D01*
X5243000Y15547704D01*
X5497000Y15547704D01*
X5497000Y14427000D01*
X5517000Y14427000D01*
X5517000Y14173000D01*
X5497000Y14173000D01*
X5497000Y13052296D01*
X5631183Y13012795D01*
X5751638Y13050244D01*
X5900330Y13140065D01*
X6028641Y13257168D01*
X6131641Y13397054D01*
X6205372Y13554346D01*
X6247000Y13723000D01*
X6247000Y14081781D01*
X6303004Y14044360D01*
X6417111Y13997095D01*
X6538246Y13973000D01*
X6661754Y13973000D01*
X6782889Y13997095D01*
X6896996Y14044360D01*
X6999689Y14112977D01*
X7087023Y14200311D01*
X7155640Y14303004D01*
X7202905Y14417111D01*
X7227000Y14538246D01*
X7227000Y14661754D01*
X7373000Y14661754D01*
X7373000Y14538246D01*
X7397095Y14417111D01*
X7444360Y14303004D01*
X7512977Y14200311D01*
X7588288Y14125000D01*
X7512977Y14049689D01*
X7444360Y13946996D01*
X7397095Y13832889D01*
X7373000Y13711754D01*
X7373000Y13588246D01*
X7397095Y13467111D01*
X7444360Y13353004D01*
X7512977Y13250311D01*
X7563288Y13200000D01*
X7512977Y13149689D01*
X7444360Y13046996D01*
X7397095Y12932889D01*
X7373000Y12811754D01*
X7373000Y12688246D01*
X7397095Y12567111D01*
X7444360Y12453004D01*
X7512977Y12350311D01*
X7563288Y12300000D01*
X7512977Y12249689D01*
X7444360Y12146996D01*
X7397095Y12032889D01*
X7373000Y11911754D01*
X7373000Y11788246D01*
X7397095Y11667111D01*
X7444360Y11553004D01*
X7512977Y11450311D01*
X7600311Y11362977D01*
X7703004Y11294360D01*
X7817111Y11247095D01*
X7938246Y11223000D01*
X8061754Y11223000D01*
X8182889Y11247095D01*
X8296996Y11294360D01*
X8399689Y11362977D01*
X8487023Y11450311D01*
X8555640Y11553004D01*
X8602905Y11667111D01*
X8627000Y11788246D01*
X8627000Y11911754D01*
X8602905Y12032889D01*
X8555640Y12146996D01*
X8487023Y12249689D01*
X8436712Y12300000D01*
X8487023Y12350311D01*
X8555640Y12453004D01*
X8602905Y12567111D01*
X8627000Y12688246D01*
X8627000Y12786754D01*
X16323000Y12786754D01*
X16323000Y12663246D01*
X16347095Y12542111D01*
X16394360Y12428004D01*
X16462977Y12325311D01*
X16488288Y12300000D01*
X16462977Y12274689D01*
X16394360Y12171996D01*
X16347095Y12057889D01*
X16323000Y11936754D01*
X16323000Y11813246D01*
X16347095Y11692111D01*
X16394360Y11578004D01*
X16462977Y11475311D01*
X16550311Y11387977D01*
X16653004Y11319360D01*
X16767111Y11272095D01*
X16888246Y11248000D01*
X17011754Y11248000D01*
X17132889Y11272095D01*
X17246996Y11319360D01*
X17349689Y11387977D01*
X17437023Y11475311D01*
X17505640Y11578004D01*
X17552905Y11692111D01*
X17577000Y11813246D01*
X17577000Y11936754D01*
X17564543Y11999385D01*
X32455833Y11999385D01*
X32471866Y11946508D01*
X32561391Y11744527D01*
X32688601Y11563893D01*
X32848606Y11411547D01*
X33035258Y11293344D01*
X33241384Y11213826D01*
X33415000Y11249422D01*
X33415000Y12173000D01*
X33669000Y12173000D01*
X33669000Y11249422D01*
X33842616Y11213826D01*
X34048742Y11293344D01*
X34235394Y11411547D01*
X34395399Y11563893D01*
X34522609Y11744527D01*
X34612134Y11946508D01*
X34628167Y11999385D01*
X34995833Y11999385D01*
X35011866Y11946508D01*
X35101391Y11744527D01*
X35228601Y11563893D01*
X35388606Y11411547D01*
X35575258Y11293344D01*
X35781384Y11213826D01*
X35955000Y11249422D01*
X35955000Y12173000D01*
X36209000Y12173000D01*
X36209000Y11249422D01*
X36382616Y11213826D01*
X36588742Y11293344D01*
X36775394Y11411547D01*
X36935399Y11563893D01*
X37062609Y11744527D01*
X37152134Y11946508D01*
X37168167Y11999385D01*
X37132098Y12173000D01*
X36209000Y12173000D01*
X35955000Y12173000D01*
X35031902Y12173000D01*
X34995833Y11999385D01*
X34628167Y11999385D01*
X34592098Y12173000D01*
X33669000Y12173000D01*
X33415000Y12173000D01*
X32491902Y12173000D01*
X32455833Y11999385D01*
X17564543Y11999385D01*
X17552905Y12057889D01*
X17505640Y12171996D01*
X17437023Y12274689D01*
X17411712Y12300000D01*
X17437023Y12325311D01*
X17505640Y12428004D01*
X17552905Y12542111D01*
X17577000Y12663246D01*
X17577000Y12786754D01*
X17562082Y12861754D01*
X27173000Y12861754D01*
X27173000Y12738246D01*
X27197095Y12617111D01*
X27244360Y12503004D01*
X27312977Y12400311D01*
X27400311Y12312977D01*
X27503004Y12244360D01*
X27617111Y12197095D01*
X27738246Y12173000D01*
X27861754Y12173000D01*
X27982889Y12197095D01*
X28096996Y12244360D01*
X28199689Y12312977D01*
X28287023Y12400311D01*
X28355640Y12503004D01*
X28396072Y12600615D01*
X32455833Y12600615D01*
X32491902Y12427000D01*
X33415000Y12427000D01*
X33415000Y13350578D01*
X33669000Y13350578D01*
X33669000Y12427000D01*
X34592098Y12427000D01*
X34628167Y12600615D01*
X34995833Y12600615D01*
X35031902Y12427000D01*
X35955000Y12427000D01*
X35955000Y13350578D01*
X36209000Y13350578D01*
X36209000Y12427000D01*
X37132098Y12427000D01*
X37168167Y12600615D01*
X37152134Y12653492D01*
X37062609Y12855473D01*
X36935399Y13036107D01*
X36775394Y13188453D01*
X36588742Y13306656D01*
X36382616Y13386174D01*
X36209000Y13350578D01*
X35955000Y13350578D01*
X35781384Y13386174D01*
X35575258Y13306656D01*
X35388606Y13188453D01*
X35228601Y13036107D01*
X35101391Y12855473D01*
X35011866Y12653492D01*
X34995833Y12600615D01*
X34628167Y12600615D01*
X34612134Y12653492D01*
X34522609Y12855473D01*
X34395399Y13036107D01*
X34235394Y13188453D01*
X34048742Y13306656D01*
X33842616Y13386174D01*
X33669000Y13350578D01*
X33415000Y13350578D01*
X33241384Y13386174D01*
X33035258Y13306656D01*
X32848606Y13188453D01*
X32688601Y13036107D01*
X32561391Y12855473D01*
X32471866Y12653492D01*
X32455833Y12600615D01*
X28396072Y12600615D01*
X28402905Y12617111D01*
X28427000Y12738246D01*
X28427000Y12861754D01*
X28402905Y12982889D01*
X28355640Y13096996D01*
X28287023Y13199689D01*
X28199689Y13287023D01*
X28096996Y13355640D01*
X27982889Y13402905D01*
X27861754Y13427000D01*
X27738246Y13427000D01*
X27617111Y13402905D01*
X27503004Y13355640D01*
X27400311Y13287023D01*
X27312977Y13199689D01*
X27244360Y13096996D01*
X27197095Y12982889D01*
X27173000Y12861754D01*
X17562082Y12861754D01*
X17552905Y12907889D01*
X17505640Y13021996D01*
X17437023Y13124689D01*
X17349689Y13212023D01*
X17246996Y13280640D01*
X17132889Y13327905D01*
X17011754Y13352000D01*
X16888246Y13352000D01*
X16767111Y13327905D01*
X16653004Y13280640D01*
X16550311Y13212023D01*
X16462977Y13124689D01*
X16394360Y13021996D01*
X16347095Y12907889D01*
X16323000Y12786754D01*
X8627000Y12786754D01*
X8627000Y12811754D01*
X8602905Y12932889D01*
X8555640Y13046996D01*
X8487023Y13149689D01*
X8436712Y13200000D01*
X8487023Y13250311D01*
X8529547Y13313953D01*
X8571359Y13257168D01*
X8699670Y13140065D01*
X8848362Y13050244D01*
X8968817Y13012795D01*
X9103000Y13052296D01*
X9103000Y14173000D01*
X9357000Y14173000D01*
X9357000Y13052296D01*
X9491183Y13012795D01*
X9611638Y13050244D01*
X9760330Y13140065D01*
X9888641Y13257168D01*
X9991641Y13397054D01*
X10065372Y13554346D01*
X10107000Y13723000D01*
X10107000Y14173000D01*
X9357000Y14173000D01*
X9103000Y14173000D01*
X9083000Y14173000D01*
X9083000Y14427000D01*
X9103000Y14427000D01*
X9103000Y15547704D01*
X9357000Y15547704D01*
X9357000Y14427000D01*
X10107000Y14427000D01*
X10107000Y14877000D01*
X10065372Y15045654D01*
X9991641Y15202946D01*
X9948340Y15261754D01*
X17373000Y15261754D01*
X17373000Y15138246D01*
X17397095Y15017111D01*
X17444360Y14903004D01*
X17512977Y14800311D01*
X17600311Y14712977D01*
X17703004Y14644360D01*
X17817111Y14597095D01*
X17938246Y14573000D01*
X18061754Y14573000D01*
X18182889Y14597095D01*
X18296996Y14644360D01*
X18399689Y14712977D01*
X18487023Y14800311D01*
X18555640Y14903004D01*
X18575520Y14951000D01*
X32415000Y14951000D01*
X32415000Y14729000D01*
X32458310Y14511266D01*
X32543266Y14306165D01*
X32666602Y14121579D01*
X32823579Y13964602D01*
X33008165Y13841266D01*
X33213266Y13756310D01*
X33431000Y13713000D01*
X33653000Y13713000D01*
X33870734Y13756310D01*
X34075835Y13841266D01*
X34260421Y13964602D01*
X34417398Y14121579D01*
X34540734Y14306165D01*
X34625690Y14511266D01*
X34669000Y14729000D01*
X34669000Y14951000D01*
X34955000Y14951000D01*
X34955000Y14729000D01*
X34998310Y14511266D01*
X35083266Y14306165D01*
X35206602Y14121579D01*
X35363579Y13964602D01*
X35548165Y13841266D01*
X35753266Y13756310D01*
X35971000Y13713000D01*
X36193000Y13713000D01*
X36410734Y13756310D01*
X36615835Y13841266D01*
X36800421Y13964602D01*
X36957398Y14121579D01*
X37080734Y14306165D01*
X37165690Y14511266D01*
X37209000Y14729000D01*
X37209000Y14951000D01*
X37165690Y15168734D01*
X37080734Y15373835D01*
X36957398Y15558421D01*
X36800421Y15715398D01*
X36615835Y15838734D01*
X36410734Y15923690D01*
X36193000Y15967000D01*
X35971000Y15967000D01*
X35753266Y15923690D01*
X35548165Y15838734D01*
X35363579Y15715398D01*
X35206602Y15558421D01*
X35083266Y15373835D01*
X34998310Y15168734D01*
X34955000Y14951000D01*
X34669000Y14951000D01*
X34625690Y15168734D01*
X34540734Y15373835D01*
X34417398Y15558421D01*
X34260421Y15715398D01*
X34075835Y15838734D01*
X33870734Y15923690D01*
X33653000Y15967000D01*
X33431000Y15967000D01*
X33213266Y15923690D01*
X33008165Y15838734D01*
X32823579Y15715398D01*
X32666602Y15558421D01*
X32543266Y15373835D01*
X32458310Y15168734D01*
X32415000Y14951000D01*
X18575520Y14951000D01*
X18602905Y15017111D01*
X18627000Y15138246D01*
X18627000Y15261754D01*
X18602905Y15382889D01*
X18555640Y15496996D01*
X18487023Y15599689D01*
X18399689Y15687023D01*
X18296996Y15755640D01*
X18182889Y15802905D01*
X18061754Y15827000D01*
X17938246Y15827000D01*
X17817111Y15802905D01*
X17703004Y15755640D01*
X17600311Y15687023D01*
X17512977Y15599689D01*
X17444360Y15496996D01*
X17397095Y15382889D01*
X17373000Y15261754D01*
X9948340Y15261754D01*
X9888641Y15342832D01*
X9760330Y15459935D01*
X9611638Y15549756D01*
X9491183Y15587205D01*
X9357000Y15547704D01*
X9103000Y15547704D01*
X8968817Y15587205D01*
X8848362Y15549756D01*
X8699670Y15459935D01*
X8600996Y15369880D01*
X8613586Y15406978D01*
X8629698Y15529431D01*
X8621611Y15652674D01*
X8589636Y15771971D01*
X8573894Y15809978D01*
X8476034Y15846429D01*
X8179605Y15550000D01*
X8193748Y15535857D01*
X8014143Y15356252D01*
X8000000Y15370395D01*
X7836334Y15206729D01*
X7817111Y15202905D01*
X7703004Y15155640D01*
X7600311Y15087023D01*
X7512977Y14999689D01*
X7444360Y14896996D01*
X7397095Y14782889D01*
X7373000Y14661754D01*
X7227000Y14661754D01*
X7202905Y14782889D01*
X7155640Y14896996D01*
X7087023Y14999689D01*
X6999689Y15087023D01*
X6896996Y15155640D01*
X6782889Y15202905D01*
X6763666Y15206729D01*
X6600000Y15370395D01*
X6585858Y15356252D01*
X6406253Y15535857D01*
X6420395Y15550000D01*
X6779605Y15550000D01*
X7076034Y15253571D01*
X7173894Y15290022D01*
X7213586Y15406978D01*
X7229698Y15529431D01*
X7226999Y15570569D01*
X7370302Y15570569D01*
X7378389Y15447326D01*
X7410364Y15328029D01*
X7426106Y15290022D01*
X7523966Y15253571D01*
X7820395Y15550000D01*
X7523966Y15846429D01*
X7426106Y15809978D01*
X7386414Y15693022D01*
X7370302Y15570569D01*
X7226999Y15570569D01*
X7221611Y15652674D01*
X7189636Y15771971D01*
X7173894Y15809978D01*
X7076034Y15846429D01*
X6779605Y15550000D01*
X6420395Y15550000D01*
X6123966Y15846429D01*
X6026106Y15809978D01*
X5986414Y15693022D01*
X5970302Y15570569D01*
X5978389Y15447326D01*
X5999193Y15369708D01*
X5900330Y15459935D01*
X5751638Y15549756D01*
X5631183Y15587205D01*
X5497000Y15547704D01*
X5243000Y15547704D01*
X5108817Y15587205D01*
X4988362Y15549756D01*
X4839670Y15459935D01*
X4711359Y15342832D01*
X4608359Y15202946D01*
X4534628Y15045654D01*
X4493000Y14877000D01*
X2802000Y14877000D01*
X2802000Y16026034D01*
X6303571Y16026034D01*
X6600000Y15729605D01*
X6896429Y16026034D01*
X7703571Y16026034D01*
X8000000Y15729605D01*
X8296429Y16026034D01*
X8259978Y16123894D01*
X8143022Y16163586D01*
X8020569Y16179698D01*
X7897326Y16171611D01*
X7778029Y16139636D01*
X7740022Y16123894D01*
X7703571Y16026034D01*
X6896429Y16026034D01*
X6859978Y16123894D01*
X6743022Y16163586D01*
X6620569Y16179698D01*
X6497326Y16171611D01*
X6378029Y16139636D01*
X6340022Y16123894D01*
X6303571Y16026034D01*
X2802000Y16026034D01*
X2802000Y17371603D01*
X12323000Y17371603D01*
X12323000Y17228397D01*
X12350938Y17087942D01*
X12405741Y16955636D01*
X12485302Y16836564D01*
X12586564Y16735302D01*
X12705636Y16655741D01*
X12837942Y16600938D01*
X12978397Y16573000D01*
X13121603Y16573000D01*
X13262058Y16600938D01*
X13394364Y16655741D01*
X13513436Y16735302D01*
X13614698Y16836564D01*
X13634820Y16866679D01*
X17223000Y16866679D01*
X17223000Y16733321D01*
X17249016Y16602526D01*
X17300050Y16479320D01*
X17374140Y16368437D01*
X17468437Y16274140D01*
X17579320Y16200050D01*
X17702526Y16149016D01*
X17833321Y16123000D01*
X17966679Y16123000D01*
X18097474Y16149016D01*
X18220680Y16200050D01*
X18331563Y16274140D01*
X18425860Y16368437D01*
X18499950Y16479320D01*
X18550984Y16602526D01*
X18562764Y16661754D01*
X19998000Y16661754D01*
X19998000Y16538246D01*
X20022095Y16417111D01*
X20069360Y16303004D01*
X20137977Y16200311D01*
X20225311Y16112977D01*
X20328004Y16044360D01*
X20442111Y15997095D01*
X20563246Y15973000D01*
X20686754Y15973000D01*
X20807889Y15997095D01*
X20921996Y16044360D01*
X21024689Y16112977D01*
X21050000Y16138288D01*
X21075311Y16112977D01*
X21178004Y16044360D01*
X21292111Y15997095D01*
X21413246Y15973000D01*
X21536754Y15973000D01*
X21657889Y15997095D01*
X21771996Y16044360D01*
X21874689Y16112977D01*
X21962023Y16200311D01*
X22030640Y16303004D01*
X22077905Y16417111D01*
X22102000Y16538246D01*
X22102000Y16661754D01*
X22077905Y16782889D01*
X22043198Y16866679D01*
X24623000Y16866679D01*
X24623000Y16733321D01*
X24649016Y16602526D01*
X24700050Y16479320D01*
X24774140Y16368437D01*
X24868437Y16274140D01*
X24979320Y16200050D01*
X25102526Y16149016D01*
X25233321Y16123000D01*
X25366679Y16123000D01*
X25497474Y16149016D01*
X25528226Y16161754D01*
X26873000Y16161754D01*
X26873000Y16038246D01*
X26897095Y15917111D01*
X26944360Y15803004D01*
X27012977Y15700311D01*
X27100311Y15612977D01*
X27203004Y15544360D01*
X27317111Y15497095D01*
X27438246Y15473000D01*
X27561754Y15473000D01*
X27682889Y15497095D01*
X27796996Y15544360D01*
X27899689Y15612977D01*
X27987023Y15700311D01*
X28055640Y15803004D01*
X28102905Y15917111D01*
X28127000Y16038246D01*
X28127000Y16161754D01*
X28102905Y16282889D01*
X28055640Y16396996D01*
X27987023Y16499689D01*
X27899689Y16587023D01*
X27796996Y16655640D01*
X27682889Y16702905D01*
X27561754Y16727000D01*
X27438246Y16727000D01*
X27317111Y16702905D01*
X27203004Y16655640D01*
X27100311Y16587023D01*
X27012977Y16499689D01*
X26944360Y16396996D01*
X26897095Y16282889D01*
X26873000Y16161754D01*
X25528226Y16161754D01*
X25620680Y16200050D01*
X25731563Y16274140D01*
X25825860Y16368437D01*
X25899950Y16479320D01*
X25950984Y16602526D01*
X25977000Y16733321D01*
X25977000Y16866679D01*
X25950984Y16997474D01*
X25899950Y17120680D01*
X25825860Y17231563D01*
X25731563Y17325860D01*
X25620680Y17399950D01*
X25497474Y17450984D01*
X25366679Y17477000D01*
X25233321Y17477000D01*
X25102526Y17450984D01*
X24979320Y17399950D01*
X24868437Y17325860D01*
X24774140Y17231563D01*
X24700050Y17120680D01*
X24649016Y16997474D01*
X24623000Y16866679D01*
X22043198Y16866679D01*
X22030640Y16896996D01*
X21962023Y16999689D01*
X21874689Y17087023D01*
X21771996Y17155640D01*
X21657889Y17202905D01*
X21536754Y17227000D01*
X21413246Y17227000D01*
X21292111Y17202905D01*
X21178004Y17155640D01*
X21075311Y17087023D01*
X21050000Y17061712D01*
X21024689Y17087023D01*
X20921996Y17155640D01*
X20807889Y17202905D01*
X20686754Y17227000D01*
X20563246Y17227000D01*
X20442111Y17202905D01*
X20328004Y17155640D01*
X20225311Y17087023D01*
X20137977Y16999689D01*
X20069360Y16896996D01*
X20022095Y16782889D01*
X19998000Y16661754D01*
X18562764Y16661754D01*
X18577000Y16733321D01*
X18577000Y16866679D01*
X18550984Y16997474D01*
X18499950Y17120680D01*
X18425860Y17231563D01*
X18331563Y17325860D01*
X18220680Y17399950D01*
X18097474Y17450984D01*
X17966679Y17477000D01*
X17833321Y17477000D01*
X17702526Y17450984D01*
X17579320Y17399950D01*
X17468437Y17325860D01*
X17374140Y17231563D01*
X17300050Y17120680D01*
X17249016Y16997474D01*
X17223000Y16866679D01*
X13634820Y16866679D01*
X13694259Y16955636D01*
X13749062Y17087942D01*
X13777000Y17228397D01*
X13777000Y17371603D01*
X13749062Y17512058D01*
X13694259Y17644364D01*
X13614698Y17763436D01*
X13513436Y17864698D01*
X13394364Y17944259D01*
X13262058Y17999062D01*
X13121603Y18027000D01*
X12978397Y18027000D01*
X12837942Y17999062D01*
X12705636Y17944259D01*
X12586564Y17864698D01*
X12485302Y17763436D01*
X12405741Y17644364D01*
X12350938Y17512058D01*
X12323000Y17371603D01*
X2802000Y17371603D01*
X2802000Y18230000D01*
X32413660Y18230000D01*
X32413660Y16530000D01*
X32419008Y16475699D01*
X32434847Y16423484D01*
X32460569Y16375363D01*
X32495184Y16333184D01*
X32537363Y16298569D01*
X32585484Y16272847D01*
X32637699Y16257008D01*
X32692000Y16251660D01*
X34392000Y16251660D01*
X34446301Y16257008D01*
X34498516Y16272847D01*
X34546637Y16298569D01*
X34588816Y16333184D01*
X34623431Y16375363D01*
X34649153Y16423484D01*
X34664992Y16475699D01*
X34670340Y16530000D01*
X34670340Y17491000D01*
X34955000Y17491000D01*
X34955000Y17269000D01*
X34998310Y17051266D01*
X35083266Y16846165D01*
X35206602Y16661579D01*
X35363579Y16504602D01*
X35548165Y16381266D01*
X35753266Y16296310D01*
X35971000Y16253000D01*
X36193000Y16253000D01*
X36410734Y16296310D01*
X36615835Y16381266D01*
X36800421Y16504602D01*
X36957398Y16661579D01*
X37080734Y16846165D01*
X37165690Y17051266D01*
X37209000Y17269000D01*
X37209000Y17491000D01*
X37165690Y17708734D01*
X37080734Y17913835D01*
X36957398Y18098421D01*
X36800421Y18255398D01*
X36615835Y18378734D01*
X36410734Y18463690D01*
X36193000Y18507000D01*
X35971000Y18507000D01*
X35753266Y18463690D01*
X35548165Y18378734D01*
X35363579Y18255398D01*
X35206602Y18098421D01*
X35083266Y17913835D01*
X34998310Y17708734D01*
X34955000Y17491000D01*
X34670340Y17491000D01*
X34670340Y18230000D01*
X34664992Y18284301D01*
X34649153Y18336516D01*
X34623431Y18384637D01*
X34588816Y18426816D01*
X34546637Y18461431D01*
X34498516Y18487153D01*
X34446301Y18502992D01*
X34392000Y18508340D01*
X32692000Y18508340D01*
X32637699Y18502992D01*
X32585484Y18487153D01*
X32537363Y18461431D01*
X32495184Y18426816D01*
X32460569Y18384637D01*
X32434847Y18336516D01*
X32419008Y18284301D01*
X32413660Y18230000D01*
X2802000Y18230000D01*
X2802000Y21285226D01*
X2812906Y21396447D01*
X2840916Y21489222D01*
X2886409Y21574784D01*
X2947661Y21649887D01*
X3022334Y21711662D01*
X3107580Y21757754D01*
X3200157Y21786410D01*
X3310428Y21798000D01*
X9339386Y21798000D01*
X9445723Y21350383D01*
X9454602Y21324543D01*
X9463150Y21298489D01*
X9464877Y21294642D01*
X9684531Y20814070D01*
X9698253Y20790460D01*
X9711705Y20766549D01*
X9714146Y20763111D01*
X10022961Y20334354D01*
X10041008Y20313858D01*
X10058848Y20293017D01*
X10061910Y20290118D01*
X10448122Y19929511D01*
X10469825Y19912897D01*
X10491355Y19895932D01*
X10494922Y19893683D01*
X10943821Y19614959D01*
X10968325Y19602882D01*
X10992753Y19590416D01*
X10996689Y19588902D01*
X11491178Y19402678D01*
X11517600Y19395581D01*
X11543944Y19388108D01*
X11548099Y19387388D01*
X12069340Y19300757D01*
X12096609Y19298928D01*
X12123932Y19296712D01*
X12128148Y19296813D01*
X12128149Y19296813D01*
X12656289Y19313074D01*
X12683351Y19316572D01*
X12710627Y19319710D01*
X12714743Y19320628D01*
X13229667Y19439163D01*
X13255553Y19447857D01*
X13281682Y19456227D01*
X13285541Y19457927D01*
X13767635Y19674221D01*
X13791360Y19687789D01*
X13815344Y19701063D01*
X13818799Y19703480D01*
X13954798Y19800000D01*
X15521660Y19800000D01*
X15527008Y19745699D01*
X15542847Y19693484D01*
X15568569Y19645363D01*
X15603184Y19603184D01*
X15645363Y19568569D01*
X15693484Y19542847D01*
X15745699Y19527008D01*
X15800000Y19521660D01*
X16103750Y19523000D01*
X16173000Y19592250D01*
X16173000Y20173000D01*
X15592250Y20173000D01*
X15523000Y20103750D01*
X15521660Y19800000D01*
X13954798Y19800000D01*
X14249700Y20009293D01*
X14270332Y20027206D01*
X14291287Y20044891D01*
X14294208Y20047933D01*
X14657503Y20431619D01*
X14674278Y20453218D01*
X14691383Y20474617D01*
X14693657Y20478168D01*
X14896611Y20800000D01*
X15521660Y20800000D01*
X15523000Y20496250D01*
X15592250Y20427000D01*
X16173000Y20427000D01*
X16173000Y21007750D01*
X16427000Y21007750D01*
X16427000Y20427000D01*
X16447000Y20427000D01*
X16447000Y20173000D01*
X16427000Y20173000D01*
X16427000Y19592250D01*
X16496250Y19523000D01*
X16800000Y19521660D01*
X16854301Y19527008D01*
X16906516Y19542847D01*
X16954637Y19568569D01*
X16996816Y19603184D01*
X17031431Y19645363D01*
X17057153Y19693484D01*
X17061928Y19709227D01*
X17074691Y19696464D01*
X17201952Y19611431D01*
X17343357Y19552859D01*
X17493472Y19523000D01*
X17646528Y19523000D01*
X17796643Y19552859D01*
X17938048Y19611431D01*
X18065309Y19696464D01*
X18173536Y19804691D01*
X18205000Y19851780D01*
X18236464Y19804691D01*
X18344691Y19696464D01*
X18471952Y19611431D01*
X18613357Y19552859D01*
X18763472Y19523000D01*
X18916528Y19523000D01*
X19066643Y19552859D01*
X19208048Y19611431D01*
X19335309Y19696464D01*
X19443536Y19804691D01*
X19475000Y19851780D01*
X19506464Y19804691D01*
X19614691Y19696464D01*
X19741952Y19611431D01*
X19883357Y19552859D01*
X20033472Y19523000D01*
X20186528Y19523000D01*
X20336643Y19552859D01*
X20478048Y19611431D01*
X20605309Y19696464D01*
X20713536Y19804691D01*
X20798569Y19931952D01*
X20857141Y20073357D01*
X20887000Y20223472D01*
X20887000Y20361754D01*
X26673000Y20361754D01*
X26673000Y20238246D01*
X26697095Y20117111D01*
X26744360Y20003004D01*
X26812977Y19900311D01*
X26900311Y19812977D01*
X27003004Y19744360D01*
X27117111Y19697095D01*
X27238246Y19673000D01*
X27361754Y19673000D01*
X27482889Y19697095D01*
X27596996Y19744360D01*
X27699689Y19812977D01*
X27787023Y19900311D01*
X27855640Y20003004D01*
X27902905Y20117111D01*
X27927000Y20238246D01*
X27927000Y20361754D01*
X27902905Y20482889D01*
X27855640Y20596996D01*
X27787023Y20699689D01*
X27699689Y20787023D01*
X27596996Y20855640D01*
X27482889Y20902905D01*
X27361754Y20927000D01*
X27238246Y20927000D01*
X27117111Y20902905D01*
X27003004Y20855640D01*
X26900311Y20787023D01*
X26812977Y20699689D01*
X26744360Y20596996D01*
X26697095Y20482889D01*
X26673000Y20361754D01*
X20887000Y20361754D01*
X20887000Y20376528D01*
X20857141Y20526643D01*
X20798569Y20668048D01*
X20713536Y20795309D01*
X20605309Y20903536D01*
X20478048Y20988569D01*
X20336643Y21047141D01*
X20186528Y21077000D01*
X20033472Y21077000D01*
X19883357Y21047141D01*
X19741952Y20988569D01*
X19614691Y20903536D01*
X19506464Y20795309D01*
X19475000Y20748220D01*
X19443536Y20795309D01*
X19335309Y20903536D01*
X19208048Y20988569D01*
X19066643Y21047141D01*
X18916528Y21077000D01*
X18763472Y21077000D01*
X18613357Y21047141D01*
X18471952Y20988569D01*
X18344691Y20903536D01*
X18236464Y20795309D01*
X18205000Y20748220D01*
X18173536Y20795309D01*
X18065309Y20903536D01*
X17938048Y20988569D01*
X17796643Y21047141D01*
X17646528Y21077000D01*
X17493472Y21077000D01*
X17343357Y21047141D01*
X17201952Y20988569D01*
X17074691Y20903536D01*
X17061928Y20890773D01*
X17057153Y20906516D01*
X17031431Y20954637D01*
X16996816Y20996816D01*
X16954637Y21031431D01*
X16906516Y21057153D01*
X16854301Y21072992D01*
X16800000Y21078340D01*
X16496250Y21077000D01*
X16427000Y21007750D01*
X16173000Y21007750D01*
X16103750Y21077000D01*
X15800000Y21078340D01*
X15745699Y21072992D01*
X15693484Y21057153D01*
X15645363Y21031431D01*
X15603184Y20996816D01*
X15568569Y20954637D01*
X15542847Y20906516D01*
X15527008Y20854301D01*
X15521660Y20800000D01*
X14896611Y20800000D01*
X14975508Y20925110D01*
X14987755Y20949527D01*
X15000392Y20973869D01*
X15001932Y20977795D01*
X15191604Y21470970D01*
X15198876Y21497305D01*
X15206543Y21523634D01*
X15207292Y21527784D01*
X15254144Y21798000D01*
X29814833Y21798000D01*
X29827578Y21799255D01*
X29828766Y21799247D01*
X29832962Y21799659D01*
X29852122Y21801673D01*
X29859202Y21802370D01*
X29859438Y21802442D01*
X29871783Y21803739D01*
X29898547Y21809233D01*
X29925481Y21814371D01*
X29929518Y21815590D01*
X29966805Y21827133D01*
X29991971Y21837712D01*
X30017416Y21847992D01*
X30021139Y21849972D01*
X30055475Y21868537D01*
X30078125Y21883815D01*
X30101077Y21898834D01*
X30104345Y21901500D01*
X30134420Y21926381D01*
X30153701Y21945798D01*
X30173261Y21964953D01*
X30175949Y21968202D01*
X30200619Y21998451D01*
X30215751Y22021227D01*
X30231228Y22043831D01*
X30233234Y22047541D01*
X30251559Y22082005D01*
X30261982Y22107293D01*
X30272772Y22132468D01*
X30274019Y22136497D01*
X30285301Y22173864D01*
X30290609Y22200671D01*
X30296309Y22227489D01*
X30296750Y22231683D01*
X30300559Y22270530D01*
X30316746Y22435623D01*
X30923000Y22435623D01*
X30923000Y22164377D01*
X30975917Y21898344D01*
X31079718Y21647746D01*
X31230414Y21422213D01*
X31422213Y21230414D01*
X31647746Y21079718D01*
X31898344Y20975917D01*
X32164377Y20923000D01*
X32435623Y20923000D01*
X32701656Y20975917D01*
X32952254Y21079718D01*
X33177787Y21230414D01*
X33369586Y21422213D01*
X33520282Y21647746D01*
X33624083Y21898344D01*
X33677000Y22164377D01*
X33677000Y22435623D01*
X33624083Y22701656D01*
X33520282Y22952254D01*
X33369586Y23177787D01*
X33177787Y23369586D01*
X32952254Y23520282D01*
X32701656Y23624083D01*
X32435623Y23677000D01*
X32164377Y23677000D01*
X31898344Y23624083D01*
X31647746Y23520282D01*
X31422213Y23369586D01*
X31230414Y23177787D01*
X31079718Y22952254D01*
X30975917Y22701656D01*
X30923000Y22435623D01*
X30316746Y22435623D01*
X30341473Y22687802D01*
X30454096Y23060827D01*
X30637029Y23404874D01*
X30883305Y23706839D01*
X31183540Y23955215D01*
X31526307Y24140548D01*
X31898536Y24255772D01*
X32286064Y24296503D01*
X32674115Y24261188D01*
G37*
%TD.AperFunction*%
%TD*%
D22*
X13050000Y7300000D03*
D23*
X20600000Y13000000D03*
X22000000Y13000000D03*
X22000000Y11600000D03*
X20600000Y11600000D03*
X12300000Y13100000D03*
X12300000Y13800000D03*
X7300000Y21300000D03*
X24800000Y21300000D03*
X27300000Y21300000D03*
X29800000Y21300000D03*
X34800000Y21300000D03*
X37300000Y21300000D03*
X39800000Y21300000D03*
X41300000Y19800000D03*
X41300000Y17300000D03*
X41300000Y7300000D03*
X41300000Y4800000D03*
X39800000Y3300000D03*
X37300000Y3300000D03*
X34800000Y3300000D03*
X29800000Y3300000D03*
X27300000Y3300000D03*
X24800000Y3300000D03*
X22300000Y3300000D03*
X19800000Y3300000D03*
X17300000Y3300000D03*
X7300000Y3300000D03*
X4800000Y3300000D03*
X3300000Y4800000D03*
X3300000Y7300000D03*
X3300000Y9800000D03*
X3300000Y14800000D03*
X3300000Y17300000D03*
X3300000Y19800000D03*
X4800000Y21300000D03*
X5800000Y17300000D03*
X8800000Y7300000D03*
X5550000Y6050000D03*
X6550000Y6050000D03*
X7550000Y6050000D03*
X5550000Y5050000D03*
X6550000Y5050000D03*
X7550000Y5050000D03*
X38050000Y19300000D03*
X39050000Y19300000D03*
X38050000Y18300000D03*
X39050000Y18300000D03*
X30550000Y11800000D03*
X31550000Y11800000D03*
X30550000Y12800000D03*
X31550000Y12800000D03*
X30550000Y9800000D03*
X31550000Y9800000D03*
X30550000Y8800000D03*
X31550000Y8800000D03*
X29050000Y14050000D03*
X29800000Y14800000D03*
X25050000Y15800000D03*
X26050000Y15800000D03*
X22300000Y7550000D03*
X24050000Y7550000D03*
X24800000Y6550000D03*
X24300000Y15300000D03*
X18050000Y8300000D03*
X20800000Y4300000D03*
X22050000Y4800000D03*
X23300000Y4800000D03*
X27800000Y6550000D03*
X27800000Y9550000D03*
X28800000Y6550000D03*
X27800000Y5550000D03*
X28800000Y5550000D03*
X29800000Y6550000D03*
X29800000Y5550000D03*
X31550000Y13800000D03*
X12800000Y10150000D03*
X12800000Y9400000D03*
X15550000Y10050000D03*
X17300000Y10050000D03*
X17050000Y8300000D03*
X7550000Y18550000D03*
X6550000Y18550000D03*
X5550000Y18550000D03*
X5550000Y19550000D03*
X6550000Y19550000D03*
X7550000Y19550000D03*
X11050000Y18300000D03*
X12050000Y18300000D03*
X11050000Y6300000D03*
X12050000Y6300000D03*
X15050000Y8300000D03*
X17050000Y14800000D03*
X18300000Y18800000D03*
X19300000Y18800000D03*
X21050000Y17550000D03*
X20800000Y18300000D03*
X25300000Y18050000D03*
X26050000Y18550000D03*
X27800000Y17300000D03*
X27800000Y18300000D03*
X30550000Y18300000D03*
X30550000Y17300000D03*
X31550000Y17300000D03*
X31550000Y18300000D03*
X13400000Y9050000D03*
X14200000Y13300000D03*
X14200000Y11300000D03*
X16300000Y10050000D03*
X13400000Y9800000D03*
X16050000Y6300000D03*
D22*
X27500000Y16100000D03*
X27800000Y8550000D03*
X24200000Y5900000D03*
X25300000Y16800000D03*
X27300000Y20300000D03*
X17900000Y16800000D03*
X13050000Y17300000D03*
X16050000Y8300000D03*
X20625000Y16600000D03*
X16950000Y12725000D03*
X21475000Y16600000D03*
X16950000Y11875000D03*
X27800000Y12800000D03*
X25050000Y7550000D03*
X20900000Y8200000D03*
X18000000Y15200000D03*
X32300000Y2300000D03*
X32300000Y22300000D03*
X2300000Y12300000D03*
X36082000Y7220000D03*
X33542000Y7220000D03*
X36082000Y9760000D03*
X33542000Y9760000D03*
X36082000Y12300000D03*
X33542000Y12300000D03*
X36082000Y14840000D03*
X33542000Y14840000D03*
X36082000Y17380000D03*
X33542000Y17380000D03*
X20110000Y20300000D03*
X18840000Y20300000D03*
X17570000Y20300000D03*
X16300000Y20300000D03*
X6600000Y15550000D03*
X6600000Y14600000D03*
X6600000Y12750000D03*
X6600000Y11850000D03*
X6600000Y10950000D03*
X6600000Y10000000D03*
X6600000Y9050000D03*
X8000000Y9050000D03*
X8000000Y10000000D03*
X8000000Y11850000D03*
X8000000Y12750000D03*
X8000000Y13650000D03*
X8000000Y14600000D03*
X8000000Y15550000D03*
D24*
X5370000Y10300000D03*
X9230000Y10300000D03*
X5370000Y14300000D03*
X9230000Y14300000D03*
M02*
