%TF.GenerationSoftware,KiCad,Pcbnew,(6.0.7-1)-1*%
%TF.CreationDate,2022-09-12T16:32:20+08:00*%
%TF.ProjectId,0102-TILEDAP,30313032-2d54-4494-9c45-4441502e6b69,V1.1*%
%TF.SameCoordinates,Original*%
%TF.FileFunction,Copper,L1,Top*%
%TF.FilePolarity,Positive*%
%FSLAX46Y46*%
G04 Gerber Fmt 4.6, Leading zero omitted, Abs format (unit mm)*
G04 Created by KiCad (PCBNEW (6.0.7-1)-1) date 2022-09-12 16:32:20*
%MOMM*%
%LPD*%
G01*
G04 APERTURE LIST*
G04 Aperture macros list*
%AMRoundRect*
0 Rectangle with rounded corners*
0 $1 Rounding radius*
0 $2 $3 $4 $5 $6 $7 $8 $9 X,Y pos of 4 corners*
0 Add a 4 corners polygon primitive as box body*
4,1,4,$2,$3,$4,$5,$6,$7,$8,$9,$2,$3,0*
0 Add four circle primitives for the rounded corners*
1,1,$1+$1,$2,$3*
1,1,$1+$1,$4,$5*
1,1,$1+$1,$6,$7*
1,1,$1+$1,$8,$9*
0 Add four rect primitives between the rounded corners*
20,1,$1+$1,$2,$3,$4,$5,0*
20,1,$1+$1,$4,$5,$6,$7,0*
20,1,$1+$1,$6,$7,$8,$9,0*
20,1,$1+$1,$8,$9,$2,$3,0*%
G04 Aperture macros list end*
%TA.AperFunction,SMDPad,CuDef*%
%ADD10RoundRect,0.140000X-0.170000X0.140000X-0.170000X-0.140000X0.170000X-0.140000X0.170000X0.140000X0*%
%TD*%
%TA.AperFunction,SMDPad,CuDef*%
%ADD11RoundRect,0.250000X-0.475000X0.250000X-0.475000X-0.250000X0.475000X-0.250000X0.475000X0.250000X0*%
%TD*%
%TA.AperFunction,SMDPad,CuDef*%
%ADD12RoundRect,0.140000X0.170000X-0.140000X0.170000X0.140000X-0.170000X0.140000X-0.170000X-0.140000X0*%
%TD*%
%TA.AperFunction,SMDPad,CuDef*%
%ADD13RoundRect,0.140000X0.140000X0.170000X-0.140000X0.170000X-0.140000X-0.170000X0.140000X-0.170000X0*%
%TD*%
%TA.AperFunction,SMDPad,CuDef*%
%ADD14RoundRect,0.218750X0.256250X-0.218750X0.256250X0.218750X-0.256250X0.218750X-0.256250X-0.218750X0*%
%TD*%
%TA.AperFunction,ComponentPad*%
%ADD15C,0.600000*%
%TD*%
%TA.AperFunction,ComponentPad*%
%ADD16O,1.200000X2.100000*%
%TD*%
%TA.AperFunction,SMDPad,CuDef*%
%ADD17RoundRect,0.135000X-0.135000X-0.185000X0.135000X-0.185000X0.135000X0.185000X-0.135000X0.185000X0*%
%TD*%
%TA.AperFunction,SMDPad,CuDef*%
%ADD18RoundRect,0.135000X-0.185000X0.135000X-0.185000X-0.135000X0.185000X-0.135000X0.185000X0.135000X0*%
%TD*%
%TA.AperFunction,SMDPad,CuDef*%
%ADD19RoundRect,0.135000X0.135000X0.185000X-0.135000X0.185000X-0.135000X-0.185000X0.135000X-0.185000X0*%
%TD*%
%TA.AperFunction,SMDPad,CuDef*%
%ADD20RoundRect,0.135000X0.185000X-0.135000X0.185000X0.135000X-0.185000X0.135000X-0.185000X-0.135000X0*%
%TD*%
%TA.AperFunction,SMDPad,CuDef*%
%ADD21R,1.000000X1.100000*%
%TD*%
%TA.AperFunction,SMDPad,CuDef*%
%ADD22RoundRect,0.150000X0.150000X-0.512500X0.150000X0.512500X-0.150000X0.512500X-0.150000X-0.512500X0*%
%TD*%
%TA.AperFunction,SMDPad,CuDef*%
%ADD23RoundRect,0.062500X0.062500X-0.475000X0.062500X0.475000X-0.062500X0.475000X-0.062500X-0.475000X0*%
%TD*%
%TA.AperFunction,SMDPad,CuDef*%
%ADD24RoundRect,0.062500X0.475000X-0.062500X0.475000X0.062500X-0.475000X0.062500X-0.475000X-0.062500X0*%
%TD*%
%TA.AperFunction,SMDPad,CuDef*%
%ADD25R,4.100000X4.100000*%
%TD*%
%TA.AperFunction,SMDPad,CuDef*%
%ADD26R,1.200000X0.900000*%
%TD*%
%TA.AperFunction,ComponentPad*%
%ADD27R,1.700000X1.700000*%
%TD*%
%TA.AperFunction,ComponentPad*%
%ADD28O,1.700000X1.700000*%
%TD*%
%TA.AperFunction,SMDPad,CuDef*%
%ADD29RoundRect,0.250000X0.475000X-0.250000X0.475000X0.250000X-0.475000X0.250000X-0.475000X-0.250000X0*%
%TD*%
%TA.AperFunction,SMDPad,CuDef*%
%ADD30RoundRect,0.150000X0.587500X0.150000X-0.587500X0.150000X-0.587500X-0.150000X0.587500X-0.150000X0*%
%TD*%
%TA.AperFunction,SMDPad,CuDef*%
%ADD31RoundRect,0.140000X-0.140000X-0.170000X0.140000X-0.170000X0.140000X0.170000X-0.140000X0.170000X0*%
%TD*%
%TA.AperFunction,ComponentPad*%
%ADD32R,1.000000X1.000000*%
%TD*%
%TA.AperFunction,ComponentPad*%
%ADD33O,1.000000X1.000000*%
%TD*%
%TA.AperFunction,ViaPad*%
%ADD34C,0.900000*%
%TD*%
%TA.AperFunction,ViaPad*%
%ADD35C,0.500000*%
%TD*%
%TA.AperFunction,ViaPad*%
%ADD36C,0.800000*%
%TD*%
%TA.AperFunction,ViaPad*%
%ADD37C,0.700000*%
%TD*%
%TA.AperFunction,Conductor*%
%ADD38C,0.200000*%
%TD*%
%TA.AperFunction,Conductor*%
%ADD39C,0.500000*%
%TD*%
%TA.AperFunction,Conductor*%
%ADD40C,0.250000*%
%TD*%
%TA.AperFunction,Conductor*%
%ADD41C,0.350000*%
%TD*%
%TA.AperFunction,Conductor*%
%ADD42C,0.280000*%
%TD*%
G04 APERTURE END LIST*
D10*
%TO.P,C2,1*%
%TO.N,GND*%
X13100000Y15780000D03*
%TO.P,C2,2*%
%TO.N,Net-(C2-Pad2)*%
X13100000Y14820000D03*
%TD*%
D11*
%TO.P,C3,1*%
%TO.N,GND*%
X11500000Y17050000D03*
%TO.P,C3,2*%
%TO.N,+3V3*%
X11500000Y15150000D03*
%TD*%
D12*
%TO.P,C4,1*%
%TO.N,GND*%
X23300000Y5840000D03*
%TO.P,C4,2*%
%TO.N,+3V3*%
X23300000Y6800000D03*
%TD*%
D10*
%TO.P,C5,1*%
%TO.N,GND*%
X24300000Y17760000D03*
%TO.P,C5,2*%
%TO.N,+3V3*%
X24300000Y16800000D03*
%TD*%
%TO.P,C7,1*%
%TO.N,GND*%
X18800000Y17760000D03*
%TO.P,C7,2*%
%TO.N,+3V3*%
X18800000Y16800000D03*
%TD*%
D13*
%TO.P,C12,1*%
%TO.N,GND*%
X26760000Y13550000D03*
%TO.P,C12,2*%
%TO.N,/TGT_NRESET*%
X25800000Y13550000D03*
%TD*%
%TO.P,C13,1*%
%TO.N,GND*%
X26760000Y6550000D03*
%TO.P,C13,2*%
%TO.N,/IF_NRESET*%
X25800000Y6550000D03*
%TD*%
D14*
%TO.P,D1,1*%
%TO.N,Net-(D1-Pad1)*%
X25300000Y19225000D03*
%TO.P,D1,2*%
%TO.N,+3V3*%
X25300000Y20800000D03*
%TD*%
%TO.P,D3,1*%
%TO.N,Net-(D3-Pad1)*%
X22300000Y19224999D03*
%TO.P,D3,2*%
%TO.N,+3V3*%
X22300000Y20799999D03*
%TD*%
D15*
%TO.P,J1,A1*%
%TO.N,GND*%
X8000000Y15550000D03*
%TO.P,J1,A4*%
%TO.N,VBUS*%
X8000000Y14600000D03*
%TO.P,J1,A5*%
%TO.N,Net-(J1-PadA5)*%
X8000000Y13650000D03*
%TO.P,J1,A6*%
%TO.N,/D+*%
X8000000Y12750000D03*
%TO.P,J1,A7*%
%TO.N,/D-*%
X8000000Y11850000D03*
%TO.P,J1,A9*%
%TO.N,VBUS*%
X8000000Y10000000D03*
%TO.P,J1,A12*%
%TO.N,GND*%
X8000000Y9050000D03*
%TO.P,J1,B1*%
X6600000Y9050000D03*
%TO.P,J1,B4*%
%TO.N,VBUS*%
X6600000Y10000000D03*
%TO.P,J1,B5*%
%TO.N,Net-(J1-PadB5)*%
X6600000Y10950000D03*
%TO.P,J1,B6*%
%TO.N,/D+*%
X6600000Y11850000D03*
%TO.P,J1,B7*%
%TO.N,/D-*%
X6600000Y12750000D03*
%TO.P,J1,B9*%
%TO.N,VBUS*%
X6600000Y14600000D03*
%TO.P,J1,B12*%
%TO.N,GND*%
X6600000Y15550000D03*
D16*
%TO.P,J1,S1*%
X9230000Y10300000D03*
X9230000Y14300000D03*
X5370000Y14300000D03*
%TO.P,J1,S4*%
%TO.N,N/C*%
X5370000Y10300000D03*
%TD*%
D17*
%TO.P,R1,1*%
%TO.N,GND*%
X6790000Y17100000D03*
%TO.P,R1,2*%
%TO.N,Net-(J1-PadA5)*%
X7810000Y17100000D03*
%TD*%
D18*
%TO.P,R2,1*%
%TO.N,Net-(R2-Pad1)*%
X14050000Y8320000D03*
%TO.P,R2,2*%
%TO.N,VBUS*%
X14050000Y7300000D03*
%TD*%
D19*
%TO.P,R3,1*%
%TO.N,GND*%
X7810000Y7500000D03*
%TO.P,R3,2*%
%TO.N,Net-(J1-PadB5)*%
X6790000Y7500000D03*
%TD*%
D20*
%TO.P,R11,1*%
%TO.N,/LED_CON_BLUE*%
X23300000Y16800000D03*
%TO.P,R11,2*%
%TO.N,Net-(D1-Pad1)*%
X23300000Y17820000D03*
%TD*%
D17*
%TO.P,R12,1*%
%TO.N,/TGT_NRESET*%
X25800000Y14550000D03*
%TO.P,R12,2*%
%TO.N,+3V3*%
X26820000Y14550000D03*
%TD*%
%TO.P,R13,1*%
%TO.N,/IF_NRESET*%
X25800000Y7550000D03*
%TO.P,R13,2*%
%TO.N,+3V3*%
X26820000Y7550000D03*
%TD*%
D20*
%TO.P,R15,1*%
%TO.N,/LED_RUN_RED*%
X22300000Y16800000D03*
%TO.P,R15,2*%
%TO.N,Net-(D3-Pad1)*%
X22300000Y17820000D03*
%TD*%
D21*
%TO.P,SW1,1*%
%TO.N,GND*%
X29300000Y15950000D03*
%TO.P,SW1,2*%
%TO.N,/TGT_NRESET*%
X29300000Y8650000D03*
%TD*%
D22*
%TO.P,U1,1*%
%TO.N,VBUS*%
X11350000Y11162500D03*
%TO.P,U1,2*%
%TO.N,GND*%
X12300000Y11162500D03*
%TO.P,U1,3*%
%TO.N,Net-(R2-Pad1)*%
X13250000Y11162500D03*
%TO.P,U1,4*%
%TO.N,Net-(C2-Pad2)*%
X13250000Y13437500D03*
%TO.P,U1,5*%
%TO.N,+3V3*%
X11350000Y13437500D03*
%TD*%
D12*
%TO.P,C8,1*%
%TO.N,GND*%
X21950000Y5820000D03*
%TO.P,C8,2*%
%TO.N,Net-(C8-Pad2)*%
X21950000Y6780000D03*
%TD*%
D10*
%TO.P,C11,1*%
%TO.N,GND*%
X17150000Y6780000D03*
%TO.P,C11,2*%
%TO.N,Net-(C11-Pad2)*%
X17150000Y5820000D03*
%TD*%
D19*
%TO.P,R6,1*%
%TO.N,+3V3*%
X26820000Y8550000D03*
%TO.P,R6,2*%
%TO.N,Net-(R6-Pad2)*%
X25800000Y8550000D03*
%TD*%
%TO.P,R7,1*%
%TO.N,GND*%
X26819999Y9550000D03*
%TO.P,R7,2*%
%TO.N,Net-(R6-Pad2)*%
X25799999Y9550000D03*
%TD*%
%TO.P,R9,1*%
%TO.N,/TGT_SWDIO*%
X26819999Y11800000D03*
%TO.P,R9,2*%
%TO.N,Net-(R9-Pad2)*%
X25799999Y11800000D03*
%TD*%
D23*
%TO.P,U2,1*%
%TO.N,+3V3*%
X19300000Y9462500D03*
%TO.P,U2,2*%
%TO.N,Net-(C11-Pad2)*%
X19800000Y9462500D03*
%TO.P,U2,3*%
%TO.N,Net-(C8-Pad2)*%
X20300000Y9462500D03*
%TO.P,U2,4*%
%TO.N,/IF_NRESET*%
X20800000Y9462500D03*
%TO.P,U2,5*%
%TO.N,GND*%
X21300000Y9462500D03*
%TO.P,U2,6*%
%TO.N,+3V3*%
X21800000Y9462500D03*
%TO.P,U2,7*%
%TO.N,Net-(R6-Pad2)*%
X22300000Y9462500D03*
%TO.P,U2,8*%
%TO.N,N/C*%
X22800000Y9462500D03*
%TO.P,U2,9*%
%TO.N,/TGT_TX*%
X23300000Y9462500D03*
D24*
%TO.P,U2,10*%
%TO.N,/TGT_RX*%
X24137500Y10300000D03*
%TO.P,U2,11*%
%TO.N,N/C*%
X24137500Y10800000D03*
%TO.P,U2,12*%
%TO.N,/TGT_SWCLK*%
X24137500Y11300000D03*
%TO.P,U2,13*%
%TO.N,Net-(R9-Pad2)*%
X24137500Y11800000D03*
%TO.P,U2,14*%
%TO.N,/TGT_SWDIO*%
X24137500Y12300000D03*
%TO.P,U2,15*%
%TO.N,/TGT_NRESET*%
X24137500Y12800000D03*
%TO.P,U2,16*%
%TO.N,N/C*%
X24137500Y13300000D03*
%TO.P,U2,17*%
%TO.N,GND*%
X24137500Y13800000D03*
%TO.P,U2,18*%
X24137500Y14300000D03*
D23*
%TO.P,U2,19*%
%TO.N,+3V3*%
X23300000Y15137500D03*
%TO.P,U2,20*%
%TO.N,/LED_CON_BLUE*%
X22800000Y15137500D03*
%TO.P,U2,21*%
%TO.N,/LED_RUN_RED*%
X22300000Y15137500D03*
%TO.P,U2,22*%
%TO.N,N/C*%
X21800000Y15137500D03*
%TO.P,U2,23*%
%TO.N,/TGT_USB_D-*%
X21300000Y15137500D03*
%TO.P,U2,24*%
%TO.N,/TGT_USB_D+*%
X20800000Y15137500D03*
%TO.P,U2,25*%
%TO.N,/IF_SWDIO*%
X20300000Y15137500D03*
%TO.P,U2,26*%
%TO.N,GND*%
X19800000Y15137500D03*
%TO.P,U2,27*%
%TO.N,+3V3*%
X19300000Y15137500D03*
D24*
%TO.P,U2,28*%
%TO.N,/IF_SWCLK*%
X18462500Y14300000D03*
%TO.P,U2,29*%
%TO.N,/USB_ENUM*%
X18462500Y13800000D03*
%TO.P,U2,30*%
%TO.N,N/C*%
X18462500Y13300000D03*
%TO.P,U2,31*%
X18462500Y12800000D03*
%TO.P,U2,32*%
X18462500Y12300000D03*
%TO.P,U2,33*%
X18462500Y11800000D03*
%TO.P,U2,34*%
X18462500Y11300000D03*
%TO.P,U2,35*%
%TO.N,Net-(R8-Pad1)*%
X18462500Y10800000D03*
%TO.P,U2,36*%
%TO.N,GND*%
X18462500Y10300000D03*
D25*
%TO.P,U2,37*%
X21300000Y12300000D03*
%TD*%
D26*
%TO.P,Y1,1*%
%TO.N,Net-(C11-Pad2)*%
X18450000Y5420000D03*
%TO.P,Y1,2*%
%TO.N,GND*%
X20650000Y5420000D03*
%TO.P,Y1,3*%
%TO.N,Net-(C8-Pad2)*%
X20650000Y7180000D03*
%TO.P,Y1,4*%
%TO.N,GND*%
X18450000Y7180000D03*
%TD*%
D27*
%TO.P,J3,1*%
%TO.N,/TGT_SWDIO*%
X33542000Y17380000D03*
D28*
%TO.P,J3,2*%
%TO.N,VBUS*%
X36082000Y17380000D03*
%TO.P,J3,3*%
%TO.N,/TGT_SWCLK*%
X33542000Y14840000D03*
%TO.P,J3,4*%
%TO.N,+3V3*%
X36082000Y14840000D03*
%TO.P,J3,5*%
%TO.N,GND*%
X33542000Y12300000D03*
%TO.P,J3,6*%
X36082000Y12300000D03*
%TO.P,J3,7*%
%TO.N,/TGT_TX*%
X33542000Y9760000D03*
%TO.P,J3,8*%
%TO.N,/TGT_RX*%
X36082000Y9760000D03*
%TO.P,J3,9*%
%TO.N,/TGT_NRESET*%
X33542000Y7220000D03*
%TO.P,J3,10*%
%TO.N,GND*%
X36082000Y7220000D03*
%TD*%
D29*
%TO.P,C1,1*%
%TO.N,GND*%
X11500000Y7550000D03*
%TO.P,C1,2*%
%TO.N,VBUS*%
X11500000Y9450000D03*
%TD*%
D30*
%TO.P,Q1,1*%
%TO.N,+3V3*%
X16487500Y16100000D03*
%TO.P,Q1,2*%
%TO.N,Net-(Q1-Pad2)*%
X16487500Y18000000D03*
%TO.P,Q1,3*%
%TO.N,Net-(Q1-Pad3)*%
X14612500Y17050000D03*
%TD*%
D19*
%TO.P,R14,1*%
%TO.N,/USB_ENUM*%
X16060000Y14800000D03*
%TO.P,R14,2*%
%TO.N,Net-(Q1-Pad2)*%
X15040000Y14800000D03*
%TD*%
D17*
%TO.P,R10,1*%
%TO.N,Net-(Q1-Pad3)*%
X15040000Y13800000D03*
%TO.P,R10,2*%
%TO.N,/TGT_USB_D+*%
X16060000Y13800000D03*
%TD*%
D31*
%TO.P,C6,1*%
%TO.N,GND*%
X15090000Y9300000D03*
%TO.P,C6,2*%
%TO.N,+3V3*%
X16050000Y9300000D03*
%TD*%
D19*
%TO.P,R4,1*%
%TO.N,/TGT_USB_D-*%
X16060000Y11800000D03*
%TO.P,R4,2*%
%TO.N,/D-*%
X15040000Y11800000D03*
%TD*%
%TO.P,R5,1*%
%TO.N,/TGT_USB_D+*%
X16060000Y12800000D03*
%TO.P,R5,2*%
%TO.N,/D+*%
X15040000Y12800000D03*
%TD*%
%TO.P,R8,1*%
%TO.N,Net-(R8-Pad1)*%
X16060000Y10800000D03*
%TO.P,R8,2*%
%TO.N,GND*%
X15040000Y10800000D03*
%TD*%
D32*
%TO.P,J2,1*%
%TO.N,GND*%
X16300000Y20300000D03*
D33*
%TO.P,J2,2*%
%TO.N,/IF_SWCLK*%
X17570000Y20300000D03*
%TO.P,J2,3*%
%TO.N,/IF_SWDIO*%
X18840000Y20300000D03*
%TO.P,J2,4*%
%TO.N,VBUS*%
X20110000Y20300000D03*
%TD*%
D34*
%TO.N,VBUS*%
X13050000Y7300000D03*
D35*
%TO.N,GND*%
X16300000Y10050000D03*
X17050000Y14800000D03*
X15550000Y10050000D03*
X34800000Y3300000D03*
X25400000Y17800000D03*
X31550000Y9800000D03*
X30550000Y9800000D03*
X6800000Y6300000D03*
X24050000Y7550000D03*
X20600000Y13000000D03*
X27800000Y17300000D03*
X31550000Y17300000D03*
X20800000Y4300000D03*
X3300000Y9800000D03*
X17300000Y3300000D03*
X12050000Y6300000D03*
X30550000Y12800000D03*
X39050000Y19300000D03*
X22300000Y3300000D03*
X27800000Y6550000D03*
X22050000Y4800000D03*
X22300000Y7550000D03*
X7800000Y6300000D03*
X19300000Y18800000D03*
X17300000Y10050000D03*
X16050000Y6300000D03*
X34800000Y21300000D03*
X31550000Y12800000D03*
X22000000Y13000000D03*
X18050000Y8300000D03*
X19800000Y3300000D03*
X41300000Y19800000D03*
X29800000Y3300000D03*
X37300000Y3300000D03*
X26050000Y15800000D03*
X31550000Y18300000D03*
X29800000Y6550000D03*
X29800000Y5550000D03*
X27800000Y5550000D03*
X8800000Y7300000D03*
X12800000Y9400000D03*
X11050000Y6300000D03*
X29800000Y14800000D03*
X7800000Y18300000D03*
X3300000Y17300000D03*
X24800000Y6550000D03*
X12050000Y18300000D03*
X3300000Y14800000D03*
X22000000Y11600000D03*
X6800000Y18300000D03*
X41300000Y4800000D03*
X15050000Y8300000D03*
X20800000Y18300000D03*
X28800000Y5550000D03*
X31550000Y13800000D03*
X13400000Y9050000D03*
X30550000Y17300000D03*
X5800000Y18300000D03*
X17050000Y8300000D03*
X27300000Y3300000D03*
X21050000Y17550000D03*
X30550000Y8800000D03*
X14200000Y11000000D03*
X30550000Y11800000D03*
X23300000Y4800000D03*
X39800000Y21300000D03*
X39800000Y3300000D03*
X27800000Y18300000D03*
X11050000Y18300000D03*
X30550000Y18300000D03*
X28800000Y6550000D03*
X24300000Y15300000D03*
X39050000Y18300000D03*
X14200000Y13600000D03*
X24800000Y3300000D03*
X5800000Y6300000D03*
X20600000Y11600000D03*
X5800000Y17300000D03*
X31550000Y8800000D03*
X25050000Y15800000D03*
X29800000Y21300000D03*
X3300000Y7300000D03*
X38050000Y18300000D03*
X37300000Y21300000D03*
X38050000Y19300000D03*
X31550000Y11800000D03*
X26100000Y18500000D03*
X18300000Y18800000D03*
X27800000Y9550000D03*
X29050000Y14050000D03*
D34*
%TO.N,+3V3*%
X12300000Y13900000D03*
D36*
X24200000Y5900000D03*
X16050000Y8300000D03*
X25300000Y16800000D03*
D37*
X27800000Y20800000D03*
D36*
X17900000Y16800000D03*
D37*
X27500000Y16100000D03*
X27800000Y8550000D03*
%TO.N,/TGT_USB_D+*%
X16950000Y12725000D03*
X20625000Y16600000D03*
%TO.N,/TGT_USB_D-*%
X21475000Y16600000D03*
X16950000Y11875000D03*
%TO.N,/TGT_NRESET*%
X27800000Y12800000D03*
%TO.N,/IF_NRESET*%
X25050000Y7550000D03*
X20900000Y8200000D03*
%TO.N,/D-*%
X14344065Y11875000D03*
%TO.N,/D+*%
X14344065Y12725000D03*
%TO.N,/IF_SWCLK*%
X18000000Y15200000D03*
%TD*%
D38*
%TO.N,VBUS*%
X13050000Y7300000D02*
X14050000Y7300000D01*
D39*
X13050000Y8000000D02*
X13050000Y7300000D01*
X11350000Y11162500D02*
X11350000Y9700000D01*
X11350000Y9700000D02*
X13050000Y8000000D01*
D40*
%TO.N,GND*%
X18462500Y10300000D02*
X17550000Y10300000D01*
X17550000Y10300000D02*
X17300000Y10050000D01*
X24137500Y14300000D02*
X25050000Y14300000D01*
X21300000Y9462500D02*
X21300000Y12300000D01*
X19800000Y13800000D02*
X21300000Y12300000D01*
X24137500Y13800000D02*
X22800000Y13800000D01*
X24137500Y13800000D02*
X25050000Y13800000D01*
X21300000Y9462500D02*
X21300000Y8725002D01*
X19550000Y16219656D02*
X19800000Y15969656D01*
X19800000Y15137500D02*
X19800000Y13800000D01*
X19300000Y18800000D02*
X19550000Y18550000D01*
X19800000Y15969656D02*
X19800000Y15137500D01*
X22800000Y13800000D02*
X21300000Y12300000D01*
X19550000Y18550000D02*
X19550000Y16219656D01*
D41*
%TO.N,Net-(C2-Pad2)*%
X13250000Y14670000D02*
X13100000Y14820000D01*
X13250000Y13437500D02*
X13250000Y14670000D01*
D38*
%TO.N,+3V3*%
X26820000Y15420000D02*
X27500000Y16100000D01*
D40*
X19300000Y15137500D02*
X19300000Y15850000D01*
X24300000Y16800000D02*
X25300000Y16800000D01*
X18800000Y16800000D02*
X17900000Y16800000D01*
D38*
X16487500Y16587500D02*
X16700000Y16800000D01*
D39*
X11350000Y15000000D02*
X11500000Y15150000D01*
D40*
X16050000Y9300000D02*
X18100000Y9300000D01*
D38*
X16487500Y16100000D02*
X16487500Y16587500D01*
X27800000Y8550000D02*
X26820000Y8550000D01*
X16700000Y16800000D02*
X17900000Y16800000D01*
X26820000Y14550000D02*
X26820000Y15420000D01*
D39*
X11350000Y13437500D02*
X11350000Y15000000D01*
D40*
X23300000Y15800000D02*
X24300000Y16800000D01*
X18800000Y16350000D02*
X19300000Y15850000D01*
X16050000Y9300000D02*
X16050000Y8300000D01*
X19300000Y9462500D02*
X18262500Y9462500D01*
X22300000Y20799999D02*
X27800000Y20800000D01*
D39*
X11350000Y13437500D02*
X11837500Y13437500D01*
D40*
X18262500Y9462500D02*
X18100000Y9300000D01*
X23300000Y6800000D02*
X24200000Y5900000D01*
D39*
X11837500Y13437500D02*
X12300000Y13900000D01*
D40*
X18800000Y16800000D02*
X18800000Y16350000D01*
X21800000Y8894656D02*
X23300000Y7394656D01*
X23300000Y15137500D02*
X23300000Y15800000D01*
X23300000Y7394656D02*
X23300000Y6800000D01*
X21800000Y9462500D02*
X21800000Y8894656D01*
D38*
X26820000Y7550000D02*
X26820000Y8550000D01*
%TO.N,Net-(C8-Pad2)*%
X21550000Y7180000D02*
X21950000Y6780000D01*
X20300000Y9462500D02*
X20300000Y7530000D01*
X20300000Y7530000D02*
X20650000Y7180000D01*
X20650000Y7180000D02*
X21550000Y7180000D01*
D42*
%TO.N,/TGT_USB_D+*%
X20800000Y15137500D02*
X20835000Y15172500D01*
X16060000Y13800000D02*
X16060000Y12800000D01*
X20835000Y15172500D02*
X20835000Y16390000D01*
X16950000Y12725000D02*
X16135000Y12725000D01*
X20835000Y16390000D02*
X20625000Y16600000D01*
X16135000Y12725000D02*
X16060000Y12800000D01*
%TO.N,/TGT_USB_D-*%
X21265000Y15172500D02*
X21265000Y16390000D01*
X21300000Y15137500D02*
X21265000Y15172500D01*
X16950000Y11875000D02*
X16135000Y11875000D01*
X16135000Y11875000D02*
X16060000Y11800000D01*
X21265000Y16390000D02*
X21475000Y16600000D01*
D38*
%TO.N,Net-(C11-Pad2)*%
X19800000Y6770000D02*
X18450000Y5420000D01*
X18450000Y5420000D02*
X17550000Y5420000D01*
X17550000Y5420000D02*
X17150000Y5820000D01*
X19800000Y9462500D02*
X19800000Y6770000D01*
%TO.N,/TGT_NRESET*%
X25050000Y12800000D02*
X25800000Y13550000D01*
X25800000Y13550000D02*
X26550000Y12800000D01*
X30730000Y7220000D02*
X29300000Y8650000D01*
X25800000Y13550000D02*
X25800000Y14550000D01*
X33542000Y7220000D02*
X30730000Y7220000D01*
X24137500Y12800000D02*
X25050000Y12800000D01*
X26550000Y12800000D02*
X27800000Y12800000D01*
%TO.N,/IF_NRESET*%
X20800000Y9462500D02*
X20800000Y8300000D01*
X25800000Y7550000D02*
X25800000Y6550000D01*
X25050000Y7550000D02*
X25800000Y7550000D01*
X20800000Y8300000D02*
X20900000Y8200000D01*
%TO.N,Net-(D1-Pad1)*%
X24705000Y19225000D02*
X25300000Y19225000D01*
X23300000Y17820000D02*
X24705000Y19225000D01*
D42*
%TO.N,/D-*%
X14344065Y11875000D02*
X14965000Y11875000D01*
X14965000Y11875000D02*
X15040000Y11800000D01*
%TO.N,/D+*%
X14344065Y12725000D02*
X14965000Y12725000D01*
X14965000Y12725000D02*
X15040000Y12800000D01*
X7952798Y12750000D02*
X8000000Y12750000D01*
X6600000Y11850000D02*
X7052798Y11850000D01*
X7052798Y11850000D02*
X7952798Y12750000D01*
D38*
%TO.N,Net-(J1-PadB5)*%
X6600000Y10950000D02*
X7300000Y10250000D01*
X7300000Y10250000D02*
X7300000Y8010000D01*
X7300000Y8010000D02*
X6790000Y7500000D01*
%TO.N,Net-(J1-PadA5)*%
X7300000Y16590000D02*
X7810000Y17100000D01*
X8000000Y13650000D02*
X7300000Y14350000D01*
X7300000Y14350000D02*
X7300000Y16590000D01*
%TO.N,/IF_SWDIO*%
X19950000Y19190000D02*
X18840000Y20300000D01*
X19950000Y16350000D02*
X19950000Y19190000D01*
X20300000Y16000000D02*
X19950000Y16350000D01*
X20300000Y15137500D02*
X20300000Y16000000D01*
%TO.N,/IF_SWCLK*%
X18462500Y14300000D02*
X18462500Y14737500D01*
X18462500Y14737500D02*
X18000000Y15200000D01*
%TO.N,/TGT_SWDIO*%
X25500000Y12500000D02*
X26119999Y12500000D01*
X26819999Y11800000D02*
X27962000Y11800000D01*
X26119999Y12500000D02*
X26819999Y11800000D01*
X24137500Y12300000D02*
X25300000Y12300000D01*
X27962000Y11800000D02*
X33542000Y17380000D01*
X25300000Y12300000D02*
X25500000Y12500000D01*
%TO.N,/TGT_SWCLK*%
X27756988Y11100000D02*
X31496988Y14840000D01*
X25500000Y11100000D02*
X27756988Y11100000D01*
X24137500Y11300000D02*
X25300000Y11300000D01*
X25300000Y11300000D02*
X25500000Y11100000D01*
X31496988Y14840000D02*
X33542000Y14840000D01*
%TO.N,/TGT_RX*%
X28199990Y10749990D02*
X28500000Y11050000D01*
X25050000Y10300000D02*
X25499990Y10749990D01*
X25499990Y10749990D02*
X28199990Y10749990D01*
X28500000Y11050000D02*
X34792000Y11050000D01*
X24137500Y10300000D02*
X25050000Y10300000D01*
X34792000Y11050000D02*
X36082000Y9760000D01*
%TO.N,/TGT_TX*%
X25649980Y10399980D02*
X28349980Y10399980D01*
X28650000Y10700000D02*
X32602000Y10700000D01*
X24712500Y9462500D02*
X25649980Y10399980D01*
X28349980Y10399980D02*
X28650000Y10700000D01*
X23300000Y9462500D02*
X24712500Y9462500D01*
X32602000Y10700000D02*
X33542000Y9760000D01*
D40*
%TO.N,Net-(R2-Pad1)*%
X14050000Y9350000D02*
X13250000Y10150000D01*
X13250000Y11162500D02*
X13250000Y10150000D01*
X14050000Y8320000D02*
X14050000Y9350000D01*
D38*
%TO.N,Net-(R8-Pad1)*%
X18462500Y10800000D02*
X16060000Y10800000D01*
%TO.N,Net-(R6-Pad2)*%
X22300000Y9462500D02*
X22300000Y8925000D01*
X22675000Y8550000D02*
X25800000Y8550000D01*
X22300000Y8925000D02*
X22675000Y8550000D01*
X25800000Y8550000D02*
X25800000Y9549999D01*
X25800000Y9549999D02*
X25799999Y9550000D01*
%TO.N,Net-(R9-Pad2)*%
X24137500Y11800000D02*
X25799999Y11800000D01*
%TO.N,Net-(D3-Pad1)*%
X22300000Y17820000D02*
X22300000Y18975000D01*
%TO.N,Net-(Q1-Pad2)*%
X15040000Y16040000D02*
X16487500Y17487500D01*
X15040000Y14800000D02*
X15040000Y16040000D01*
X16487500Y18000000D02*
X16487500Y17487500D01*
%TO.N,/USB_ENUM*%
X16060000Y14800000D02*
X17060000Y13800000D01*
X17060000Y13800000D02*
X18462500Y13800000D01*
%TO.N,/LED_CON_BLUE*%
X22800000Y15137500D02*
X22800000Y16300000D01*
X22800000Y16300000D02*
X23300000Y16800000D01*
%TO.N,/LED_RUN_RED*%
X22300000Y15137500D02*
X22300000Y16800000D01*
%TO.N,Net-(Q1-Pad3)*%
X14612500Y17050000D02*
X14612500Y16112500D01*
X14612500Y16112500D02*
X14300000Y15800000D01*
X15040000Y13800000D02*
X14300000Y14540000D01*
X14300000Y14540000D02*
X14300000Y15800000D01*
%TD*%
%TA.AperFunction,Conductor*%
%TO.N,GND*%
G36*
X32414617Y24441988D02*
G01*
X32572324Y24431651D01*
X32588664Y24429500D01*
X32848231Y24377869D01*
X32864152Y24373603D01*
X33114759Y24288533D01*
X33129985Y24282226D01*
X33367342Y24165175D01*
X33381616Y24156934D01*
X33601663Y24009903D01*
X33614739Y23999870D01*
X33813717Y23825371D01*
X33825371Y23813717D01*
X33999870Y23614739D01*
X34009903Y23601663D01*
X34156934Y23381616D01*
X34165175Y23367342D01*
X34282226Y23129985D01*
X34288533Y23114759D01*
X34373603Y22864152D01*
X34377869Y22848231D01*
X34429500Y22588664D01*
X34431651Y22572324D01*
X34448214Y22319628D01*
X34448349Y22315517D01*
X34444191Y22300000D01*
X34448484Y22283978D01*
X34448484Y22281468D01*
X34449761Y22275047D01*
X34458522Y22208501D01*
X34461681Y22200874D01*
X34461682Y22200871D01*
X34469465Y22182082D01*
X34493839Y22123238D01*
X34550021Y22050021D01*
X34556571Y22044995D01*
X34574931Y22030907D01*
X34623238Y21993839D01*
X34665870Y21976180D01*
X34700871Y21961682D01*
X34700874Y21961681D01*
X34708501Y21958522D01*
X34775047Y21949761D01*
X34781468Y21948484D01*
X34783978Y21948484D01*
X34800000Y21944191D01*
X34816022Y21948484D01*
X34828685Y21948484D01*
X34836402Y21949500D01*
X41263598Y21949500D01*
X41271315Y21948484D01*
X41283978Y21948484D01*
X41300000Y21944191D01*
X41313583Y21947830D01*
X41316043Y21947692D01*
X41430420Y21934805D01*
X41457928Y21928526D01*
X41568407Y21889868D01*
X41593820Y21877631D01*
X41692943Y21815349D01*
X41714998Y21797759D01*
X41797759Y21714998D01*
X41815349Y21692943D01*
X41877631Y21593820D01*
X41889868Y21568407D01*
X41928526Y21457928D01*
X41934805Y21430420D01*
X41947692Y21316043D01*
X41947830Y21313583D01*
X41944191Y21300000D01*
X41948484Y21283978D01*
X41948484Y21271315D01*
X41949500Y21263598D01*
X41949500Y15246785D01*
X41929498Y15178664D01*
X41875842Y15132171D01*
X41840023Y15121873D01*
X41765557Y15112023D01*
X41765554Y15112022D01*
X41761960Y15111547D01*
X41758448Y15110663D01*
X41758444Y15110662D01*
X41666488Y15087509D01*
X41442508Y15031115D01*
X41439115Y15029831D01*
X41439109Y15029829D01*
X41137806Y14915800D01*
X41137798Y14915797D01*
X41134412Y14914515D01*
X41100876Y14897186D01*
X40844985Y14764961D01*
X40844979Y14764958D01*
X40841752Y14763290D01*
X40568404Y14579443D01*
X40565654Y14577092D01*
X40565652Y14577091D01*
X40329956Y14375637D01*
X40317988Y14365408D01*
X40315525Y14362756D01*
X40315520Y14362751D01*
X40201107Y14239550D01*
X40093820Y14124022D01*
X40002673Y13999870D01*
X39911972Y13876326D01*
X39898869Y13858479D01*
X39846006Y13765753D01*
X39737544Y13575500D01*
X39735717Y13572296D01*
X39606525Y13269265D01*
X39559907Y13111814D01*
X39514043Y12956912D01*
X39513002Y12953397D01*
X39456389Y12628876D01*
X39437434Y12300000D01*
X39456389Y11971124D01*
X39513002Y11646603D01*
X39514029Y11643134D01*
X39514031Y11643126D01*
X39547033Y11531664D01*
X39606525Y11330735D01*
X39735717Y11027704D01*
X39737510Y11024558D01*
X39737513Y11024553D01*
X39762718Y10980342D01*
X39898869Y10741521D01*
X39901016Y10738597D01*
X39901017Y10738595D01*
X39941204Y10683857D01*
X40093820Y10475978D01*
X40174130Y10389500D01*
X40315520Y10237249D01*
X40315525Y10237244D01*
X40317988Y10234592D01*
X40320741Y10232239D01*
X40320743Y10232237D01*
X40563206Y10025000D01*
X40568404Y10020557D01*
X40841752Y9836710D01*
X40844979Y9835042D01*
X40844985Y9835039D01*
X41054913Y9726564D01*
X41134412Y9685485D01*
X41137798Y9684203D01*
X41137806Y9684200D01*
X41439109Y9570171D01*
X41439115Y9570169D01*
X41442508Y9568885D01*
X41591324Y9531416D01*
X41758444Y9489338D01*
X41758448Y9489337D01*
X41761960Y9488453D01*
X41765554Y9487978D01*
X41765557Y9487977D01*
X41840023Y9478127D01*
X41904933Y9449365D01*
X41943988Y9390075D01*
X41949500Y9353215D01*
X41949500Y3336402D01*
X41948484Y3328685D01*
X41948484Y3316022D01*
X41944191Y3300000D01*
X41947830Y3286417D01*
X41947692Y3283957D01*
X41934805Y3169580D01*
X41928526Y3142072D01*
X41889868Y3031593D01*
X41877631Y3006180D01*
X41815349Y2907057D01*
X41797759Y2885002D01*
X41714998Y2802241D01*
X41692943Y2784651D01*
X41593820Y2722369D01*
X41568407Y2710132D01*
X41457928Y2671474D01*
X41430420Y2665195D01*
X41316043Y2652308D01*
X41313583Y2652170D01*
X41300000Y2655809D01*
X41283978Y2651516D01*
X41271315Y2651516D01*
X41263598Y2650500D01*
X34836402Y2650500D01*
X34828685Y2651516D01*
X34816022Y2651516D01*
X34800000Y2655809D01*
X34783978Y2651516D01*
X34781468Y2651516D01*
X34775047Y2650239D01*
X34708501Y2641478D01*
X34700874Y2638319D01*
X34700871Y2638318D01*
X34665870Y2623820D01*
X34623238Y2606161D01*
X34616687Y2601134D01*
X34616685Y2601133D01*
X34563732Y2560500D01*
X34550021Y2549979D01*
X34493839Y2476762D01*
X34485105Y2455676D01*
X34463456Y2403410D01*
X34458522Y2391499D01*
X34457444Y2383310D01*
X34449761Y2324953D01*
X34448484Y2318534D01*
X34448484Y2316023D01*
X34444191Y2300000D01*
X34448349Y2284482D01*
X34448215Y2280383D01*
X34431651Y2027676D01*
X34429500Y2011336D01*
X34377869Y1751769D01*
X34373603Y1735848D01*
X34288533Y1485241D01*
X34282226Y1470015D01*
X34165175Y1232658D01*
X34156934Y1218384D01*
X34009903Y998337D01*
X33999870Y985261D01*
X33825371Y786283D01*
X33813717Y774629D01*
X33614739Y600130D01*
X33601663Y590097D01*
X33381616Y443066D01*
X33367342Y434825D01*
X33129985Y317774D01*
X33114759Y311467D01*
X32864152Y226397D01*
X32848231Y222131D01*
X32588664Y170500D01*
X32572324Y168349D01*
X32414617Y158012D01*
X32308239Y151040D01*
X32291761Y151040D01*
X32185383Y158012D01*
X32027676Y168349D01*
X32011336Y170500D01*
X31751769Y222131D01*
X31735848Y226397D01*
X31485241Y311467D01*
X31470015Y317774D01*
X31232658Y434825D01*
X31218384Y443066D01*
X30998337Y590097D01*
X30985261Y600130D01*
X30786283Y774629D01*
X30774629Y786283D01*
X30600130Y985261D01*
X30590097Y998337D01*
X30443066Y1218384D01*
X30434825Y1232658D01*
X30317774Y1470015D01*
X30311467Y1485241D01*
X30226397Y1735848D01*
X30222131Y1751769D01*
X30170500Y2011336D01*
X30168349Y2027676D01*
X30151785Y2280383D01*
X30151651Y2284482D01*
X30155809Y2300000D01*
X30944341Y2300000D01*
X30964937Y2064592D01*
X30966361Y2059278D01*
X30966361Y2059277D01*
X30981150Y2004085D01*
X31026097Y1836337D01*
X31028419Y1831357D01*
X31028420Y1831355D01*
X31083851Y1712485D01*
X31125965Y1622171D01*
X31261505Y1428599D01*
X31428599Y1261505D01*
X31622171Y1125965D01*
X31627149Y1123644D01*
X31627152Y1123642D01*
X31831355Y1028420D01*
X31836337Y1026097D01*
X31841645Y1024675D01*
X31841647Y1024674D01*
X32059277Y966361D01*
X32064592Y964937D01*
X32167682Y955918D01*
X32238310Y949738D01*
X32238317Y949738D01*
X32241034Y949500D01*
X32358966Y949500D01*
X32361683Y949738D01*
X32361690Y949738D01*
X32432318Y955918D01*
X32535408Y964937D01*
X32540723Y966361D01*
X32758353Y1024674D01*
X32758355Y1024675D01*
X32763663Y1026097D01*
X32768645Y1028420D01*
X32972848Y1123642D01*
X32972851Y1123644D01*
X32977829Y1125965D01*
X33171401Y1261505D01*
X33338495Y1428599D01*
X33341655Y1433111D01*
X33470878Y1617661D01*
X33470881Y1617666D01*
X33474035Y1622170D01*
X33476358Y1627152D01*
X33476361Y1627157D01*
X33571580Y1831355D01*
X33571581Y1831356D01*
X33573903Y1836337D01*
X33618851Y2004085D01*
X33633639Y2059277D01*
X33633639Y2059278D01*
X33635063Y2064592D01*
X33655659Y2300000D01*
X33635063Y2535408D01*
X33604006Y2651317D01*
X33575326Y2758353D01*
X33575325Y2758355D01*
X33573903Y2763663D01*
X33571580Y2768645D01*
X33476358Y2972848D01*
X33476356Y2972851D01*
X33474035Y2977829D01*
X33338495Y3171401D01*
X33171401Y3338495D01*
X32977829Y3474035D01*
X32972851Y3476356D01*
X32972848Y3476358D01*
X32768645Y3571580D01*
X32768643Y3571581D01*
X32763663Y3573903D01*
X32758355Y3575325D01*
X32758353Y3575326D01*
X32540723Y3633639D01*
X32540722Y3633639D01*
X32535408Y3635063D01*
X32432318Y3644082D01*
X32361690Y3650262D01*
X32361683Y3650262D01*
X32358966Y3650500D01*
X32241034Y3650500D01*
X32238317Y3650262D01*
X32238310Y3650262D01*
X32167682Y3644082D01*
X32064592Y3635063D01*
X32059278Y3633639D01*
X32059277Y3633639D01*
X31841647Y3575326D01*
X31841645Y3575325D01*
X31836337Y3573903D01*
X31831357Y3571581D01*
X31831355Y3571580D01*
X31627152Y3476358D01*
X31627149Y3476356D01*
X31622171Y3474035D01*
X31428599Y3338495D01*
X31261505Y3171401D01*
X31258348Y3166893D01*
X31258346Y3166890D01*
X31145810Y3006172D01*
X31125965Y2977830D01*
X31123642Y2972848D01*
X31123639Y2972843D01*
X31044086Y2802241D01*
X31026097Y2763663D01*
X31024675Y2758355D01*
X31024674Y2758353D01*
X30995994Y2651317D01*
X30964937Y2535408D01*
X30944341Y2300000D01*
X30155809Y2300000D01*
X30151516Y2316023D01*
X30151516Y2318534D01*
X30150239Y2324953D01*
X30142556Y2383310D01*
X30141478Y2391499D01*
X30136545Y2403410D01*
X30114895Y2455676D01*
X30106161Y2476762D01*
X30049979Y2549979D01*
X30036268Y2560500D01*
X29983315Y2601133D01*
X29983313Y2601134D01*
X29976762Y2606161D01*
X29934130Y2623820D01*
X29899129Y2638318D01*
X29899126Y2638319D01*
X29891499Y2641478D01*
X29824953Y2650239D01*
X29818532Y2651516D01*
X29816022Y2651516D01*
X29800000Y2655809D01*
X29783978Y2651516D01*
X29771315Y2651516D01*
X29763598Y2650500D01*
X15246785Y2650500D01*
X15178664Y2670502D01*
X15132171Y2724158D01*
X15121873Y2759977D01*
X15112023Y2834443D01*
X15112022Y2834446D01*
X15111547Y2838040D01*
X15075217Y2982334D01*
X15062814Y3031593D01*
X15031115Y3157492D01*
X15027559Y3166889D01*
X14915800Y3462194D01*
X14915797Y3462202D01*
X14914515Y3465588D01*
X14826943Y3635063D01*
X14764961Y3755015D01*
X14764958Y3755021D01*
X14763290Y3758248D01*
X14579443Y4031596D01*
X14365408Y4282012D01*
X14362756Y4284475D01*
X14362751Y4284480D01*
X14225876Y4411591D01*
X14124022Y4506180D01*
X13858479Y4701131D01*
X13693342Y4795275D01*
X13575447Y4862487D01*
X13575442Y4862490D01*
X13572296Y4864283D01*
X13269265Y4993475D01*
X13095197Y5045014D01*
X12956874Y5085969D01*
X12956866Y5085971D01*
X12953397Y5086998D01*
X12628876Y5143611D01*
X12300000Y5162566D01*
X11971124Y5143611D01*
X11646603Y5086998D01*
X11643134Y5085971D01*
X11643126Y5085969D01*
X11504803Y5045014D01*
X11330735Y4993475D01*
X11027704Y4864283D01*
X11024558Y4862490D01*
X11024553Y4862487D01*
X10906658Y4795275D01*
X10741521Y4701131D01*
X10475978Y4506180D01*
X10374124Y4411591D01*
X10237249Y4284480D01*
X10237244Y4284475D01*
X10234592Y4282012D01*
X10020557Y4031596D01*
X9836710Y3758248D01*
X9835042Y3755021D01*
X9835039Y3755015D01*
X9773057Y3635063D01*
X9685485Y3465588D01*
X9684203Y3462202D01*
X9684200Y3462194D01*
X9572441Y3166889D01*
X9568885Y3157492D01*
X9537186Y3031593D01*
X9524784Y2982334D01*
X9488453Y2838040D01*
X9487978Y2834446D01*
X9487977Y2834443D01*
X9478127Y2759977D01*
X9449365Y2695067D01*
X9390075Y2656012D01*
X9353215Y2650500D01*
X3336402Y2650500D01*
X3328685Y2651516D01*
X3316022Y2651516D01*
X3300000Y2655809D01*
X3286417Y2652170D01*
X3283957Y2652308D01*
X3169580Y2665195D01*
X3142072Y2671474D01*
X3031593Y2710132D01*
X3006180Y2722369D01*
X2907057Y2784651D01*
X2885002Y2802241D01*
X2802241Y2885002D01*
X2784651Y2907057D01*
X2722369Y3006180D01*
X2710132Y3031593D01*
X2671474Y3142072D01*
X2665195Y3169580D01*
X2652308Y3283957D01*
X2652170Y3286417D01*
X2655809Y3300000D01*
X2651516Y3316022D01*
X2651516Y3328685D01*
X2650500Y3336402D01*
X2650500Y8605672D01*
X6520502Y8605672D01*
X6522256Y8603329D01*
X6536288Y8601057D01*
X6647216Y8599024D01*
X6664856Y8601221D01*
X6666798Y8601750D01*
X6678807Y8609142D01*
X6678586Y8610923D01*
X6675862Y8614928D01*
X6612812Y8677978D01*
X6598868Y8685592D01*
X6597035Y8685461D01*
X6590420Y8681210D01*
X6527262Y8618052D01*
X6520502Y8605672D01*
X2650500Y8605672D01*
X2650500Y9046648D01*
X6146571Y9046648D01*
X6154730Y8984254D01*
X6159841Y8972672D01*
X6168560Y8977770D01*
X6227978Y9037188D01*
X6235592Y9051132D01*
X6235461Y9052965D01*
X6231210Y9059580D01*
X6170321Y9120469D01*
X6158813Y9126753D01*
X6155131Y9118010D01*
X6146788Y9064427D01*
X6146571Y9046648D01*
X2650500Y9046648D01*
X2650500Y9763598D01*
X2651516Y9771315D01*
X2651516Y9783978D01*
X2655809Y9800000D01*
X2654154Y9806178D01*
X4619500Y9806178D01*
X4628520Y9728811D01*
X4632821Y9691924D01*
X4634657Y9676172D01*
X4637153Y9669295D01*
X4637154Y9669292D01*
X4682856Y9543387D01*
X4694369Y9511669D01*
X4790323Y9365315D01*
X4917372Y9244960D01*
X5068702Y9157061D01*
X5236193Y9106333D01*
X5410862Y9095497D01*
X5418078Y9096737D01*
X5418080Y9096737D01*
X5576125Y9123894D01*
X5576127Y9123895D01*
X5583340Y9125134D01*
X5713433Y9180489D01*
X5737640Y9190789D01*
X5737641Y9190789D01*
X5744373Y9193654D01*
X5885324Y9297383D01*
X5890063Y9302961D01*
X5890066Y9302964D01*
X5993893Y9425176D01*
X5993896Y9425180D01*
X5998632Y9430755D01*
X6053553Y9538311D01*
X6074892Y9580100D01*
X6074893Y9580102D01*
X6078219Y9586616D01*
X6079958Y9593724D01*
X6082510Y9600586D01*
X6085656Y9599416D01*
X6113629Y9647948D01*
X6176710Y9680527D01*
X6247390Y9673829D01*
X6284053Y9651262D01*
X6339029Y9602709D01*
X6347152Y9598895D01*
X6347154Y9598894D01*
X6461025Y9545432D01*
X6459465Y9542110D01*
X6504236Y9512579D01*
X6511793Y9502695D01*
X6523487Y9485723D01*
X7012595Y8996615D01*
X7046621Y8934303D01*
X7049500Y8907520D01*
X7049500Y8165950D01*
X7029498Y8097829D01*
X7012595Y8076855D01*
X6943145Y8007405D01*
X6880833Y7973379D01*
X6854051Y7970500D01*
X6632159Y7970499D01*
X6612586Y7970499D01*
X6608889Y7970059D01*
X6608884Y7970059D01*
X6602743Y7969328D01*
X6587690Y7967538D01*
X6490490Y7924363D01*
X6453453Y7887261D01*
X6423567Y7857324D01*
X6423566Y7857322D01*
X6415350Y7849092D01*
X6410646Y7838452D01*
X6376177Y7760486D01*
X6376176Y7760483D01*
X6372345Y7751817D01*
X6369500Y7727415D01*
X6369501Y7272586D01*
X6372462Y7247690D01*
X6415637Y7150490D01*
X6440762Y7125409D01*
X6482676Y7083567D01*
X6482678Y7083566D01*
X6490908Y7075350D01*
X6501548Y7070646D01*
X6579514Y7036177D01*
X6579517Y7036176D01*
X6588183Y7032345D01*
X6597594Y7031248D01*
X6597597Y7031247D01*
X6602862Y7030634D01*
X6612585Y7029500D01*
X6788487Y7029500D01*
X6967414Y7029501D01*
X6971111Y7029941D01*
X6971116Y7029941D01*
X6977257Y7030672D01*
X6992310Y7032462D01*
X7089510Y7075637D01*
X7132742Y7118944D01*
X7156433Y7142676D01*
X7156434Y7142678D01*
X7164650Y7150908D01*
X7185036Y7197021D01*
X7230872Y7251235D01*
X7298745Y7272063D01*
X7367103Y7252890D01*
X7415426Y7197221D01*
X7431332Y7161411D01*
X7444289Y7142558D01*
X7502963Y7083987D01*
X7521833Y7071066D01*
X7539432Y7063285D01*
X7553412Y7061448D01*
X7556000Y7065584D01*
X7556000Y7074083D01*
X8064000Y7074083D01*
X8067973Y7060552D01*
X8072768Y7059863D01*
X8098591Y7071333D01*
X8117440Y7084287D01*
X8176014Y7142963D01*
X8188935Y7161835D01*
X8218818Y7229429D01*
X8220656Y7243413D01*
X8216521Y7246000D01*
X8082115Y7246000D01*
X8066876Y7241525D01*
X8065671Y7240135D01*
X8064000Y7232452D01*
X8064000Y7074083D01*
X7556000Y7074083D01*
X7556000Y7273475D01*
X10625001Y7273475D01*
X10625776Y7263626D01*
X10638283Y7184649D01*
X10644338Y7166014D01*
X10692859Y7070787D01*
X10704370Y7054944D01*
X10779944Y6979370D01*
X10795787Y6967859D01*
X10891018Y6919336D01*
X10909645Y6913284D01*
X10988627Y6900775D01*
X10998473Y6900000D01*
X11227885Y6900000D01*
X11243124Y6904475D01*
X11244329Y6905865D01*
X11246000Y6913548D01*
X11246000Y7277885D01*
X11241525Y7293124D01*
X11240135Y7294329D01*
X11232452Y7296000D01*
X10643116Y7296000D01*
X10627877Y7291525D01*
X10626672Y7290135D01*
X10625001Y7282452D01*
X10625001Y7273475D01*
X7556000Y7273475D01*
X7556000Y7772115D01*
X8064000Y7772115D01*
X8068475Y7756876D01*
X8069865Y7755671D01*
X8077548Y7754000D01*
X8208126Y7754000D01*
X8221657Y7757973D01*
X8222346Y7762768D01*
X8195985Y7822115D01*
X10625000Y7822115D01*
X10629475Y7806876D01*
X10630865Y7805671D01*
X10638548Y7804000D01*
X11227885Y7804000D01*
X11243124Y7808475D01*
X11244329Y7809865D01*
X11246000Y7817548D01*
X11246000Y8181884D01*
X11241525Y8197123D01*
X11240135Y8198328D01*
X11232452Y8199999D01*
X10998475Y8199999D01*
X10988626Y8199224D01*
X10909649Y8186717D01*
X10891014Y8180662D01*
X10795787Y8132141D01*
X10779944Y8120630D01*
X10704370Y8045056D01*
X10692859Y8029213D01*
X10644336Y7933982D01*
X10638284Y7915355D01*
X10625775Y7836373D01*
X10625000Y7826527D01*
X10625000Y7822115D01*
X8195985Y7822115D01*
X8188669Y7838587D01*
X8175711Y7857442D01*
X8117037Y7916013D01*
X8098167Y7928934D01*
X8080568Y7936715D01*
X8066588Y7938552D01*
X8064000Y7934416D01*
X8064000Y7772115D01*
X7556000Y7772115D01*
X7556000Y7925917D01*
X7554400Y7931366D01*
X7551717Y7991445D01*
X7555408Y8010000D01*
X7552987Y8022172D01*
X7552921Y8022504D01*
X7550500Y8047085D01*
X7550500Y8605672D01*
X7920502Y8605672D01*
X7922256Y8603329D01*
X7936288Y8601057D01*
X8047216Y8599024D01*
X8064856Y8601221D01*
X8066798Y8601750D01*
X8078807Y8609142D01*
X8078586Y8610923D01*
X8075862Y8614928D01*
X8012812Y8677978D01*
X7998868Y8685592D01*
X7997035Y8685461D01*
X7990420Y8681210D01*
X7927262Y8618052D01*
X7920502Y8605672D01*
X7550500Y8605672D01*
X7550500Y8907520D01*
X7570502Y8975641D01*
X7587405Y8996615D01*
X7639658Y9048868D01*
X8364408Y9048868D01*
X8364539Y9047035D01*
X8368790Y9040420D01*
X8429557Y8979653D01*
X8441258Y8973264D01*
X8444868Y8981693D01*
X8453684Y9034097D01*
X8454551Y9043753D01*
X8454567Y9045128D01*
X8453935Y9054829D01*
X8445242Y9115529D01*
X8439895Y9127256D01*
X8431469Y9122259D01*
X8372022Y9062812D01*
X8364408Y9048868D01*
X7639658Y9048868D01*
X8072264Y9481474D01*
X8077165Y9490449D01*
X8127368Y9540650D01*
X8135600Y9544763D01*
X8256098Y9599550D01*
X8321046Y9655513D01*
X8385706Y9684826D01*
X8455951Y9674527D01*
X8509478Y9627886D01*
X8521731Y9603050D01*
X8552322Y9518773D01*
X8558832Y9505774D01*
X8646697Y9371758D01*
X8656021Y9360606D01*
X8772358Y9250399D01*
X8784005Y9241686D01*
X8922575Y9161197D01*
X8935905Y9155401D01*
X8958664Y9148508D01*
X8972763Y9148389D01*
X8976000Y9155320D01*
X8976000Y9161093D01*
X9484000Y9161093D01*
X9487973Y9147562D01*
X9493056Y9146831D01*
X9597393Y9191227D01*
X9610017Y9198428D01*
X9739082Y9293409D01*
X9749724Y9303333D01*
X9853475Y9425456D01*
X9861542Y9437552D01*
X9934418Y9580272D01*
X9939487Y9593900D01*
X9973162Y9731519D01*
X10624500Y9731519D01*
X10624501Y9168482D01*
X10625276Y9163589D01*
X10625276Y9163588D01*
X10637564Y9086000D01*
X10639354Y9074696D01*
X10643857Y9065859D01*
X10643857Y9065858D01*
X10651472Y9050914D01*
X10696950Y8961658D01*
X10786658Y8871950D01*
X10899696Y8814354D01*
X10909485Y8812804D01*
X10909487Y8812803D01*
X10936849Y8808470D01*
X10993481Y8799500D01*
X11053343Y8799500D01*
X11631916Y8799501D01*
X11700037Y8779499D01*
X11721011Y8762596D01*
X12068512Y8415095D01*
X12102538Y8352783D01*
X12097473Y8281968D01*
X12054926Y8225132D01*
X11988406Y8200321D01*
X11979417Y8200000D01*
X11772115Y8200000D01*
X11756876Y8195525D01*
X11755671Y8194135D01*
X11754000Y8186452D01*
X11754000Y6918116D01*
X11758475Y6902877D01*
X11759865Y6901672D01*
X11767548Y6900001D01*
X12001525Y6900001D01*
X12011374Y6900776D01*
X12090351Y6913283D01*
X12108986Y6919338D01*
X12204213Y6967859D01*
X12220056Y6979370D01*
X12302641Y7061955D01*
X12303926Y7060670D01*
X12350738Y7096770D01*
X12421474Y7102848D01*
X12484267Y7069719D01*
X12512864Y7027576D01*
X12522301Y7004793D01*
X12522304Y7004788D01*
X12525464Y6997159D01*
X12580066Y6926000D01*
X12615421Y6879925D01*
X12621718Y6871718D01*
X12628264Y6866695D01*
X12642176Y6856020D01*
X12747159Y6775464D01*
X12893238Y6714956D01*
X13050000Y6694318D01*
X13058188Y6695396D01*
X13198574Y6713878D01*
X13206762Y6714956D01*
X13352841Y6775464D01*
X13457824Y6856020D01*
X13471736Y6866695D01*
X13478282Y6871718D01*
X13483305Y6878264D01*
X13483309Y6878268D01*
X13510762Y6914045D01*
X13568100Y6955913D01*
X13638971Y6960134D01*
X13680885Y6936946D01*
X13683074Y6940142D01*
X13692676Y6933567D01*
X13700908Y6925350D01*
X13711548Y6920646D01*
X13789514Y6886177D01*
X13789517Y6886176D01*
X13798183Y6882345D01*
X13807594Y6881248D01*
X13807597Y6881247D01*
X13812862Y6880634D01*
X13822585Y6879500D01*
X14048061Y6879500D01*
X14277414Y6879501D01*
X14281111Y6879941D01*
X14281116Y6879941D01*
X14287257Y6880672D01*
X14302310Y6882462D01*
X14399510Y6925637D01*
X14443341Y6969544D01*
X14466433Y6992676D01*
X14466434Y6992678D01*
X14474650Y7000908D01*
X14487271Y7029455D01*
X14490424Y7036587D01*
X16718772Y7036587D01*
X16722908Y7034000D01*
X16877885Y7034000D01*
X16893124Y7038475D01*
X16894329Y7039865D01*
X16896000Y7047548D01*
X16896000Y7181934D01*
X16892027Y7195465D01*
X16887232Y7196154D01*
X16823532Y7167860D01*
X16804677Y7154901D01*
X16744791Y7094911D01*
X16731869Y7076038D01*
X16720610Y7050570D01*
X16718772Y7036587D01*
X14490424Y7036587D01*
X14513823Y7089514D01*
X14513824Y7089517D01*
X14517655Y7098183D01*
X14520500Y7122585D01*
X14520499Y7452115D01*
X17700000Y7452115D01*
X17704475Y7436876D01*
X17705865Y7435671D01*
X17713548Y7434000D01*
X18177885Y7434000D01*
X18193124Y7438475D01*
X18194329Y7439865D01*
X18196000Y7447548D01*
X18196000Y7452115D01*
X18704000Y7452115D01*
X18708475Y7436876D01*
X18709865Y7435671D01*
X18717548Y7434000D01*
X19181884Y7434000D01*
X19197123Y7438475D01*
X19198328Y7439865D01*
X19199999Y7447548D01*
X19199999Y7638586D01*
X19198791Y7650846D01*
X19193718Y7676352D01*
X19184401Y7698848D01*
X19165037Y7727828D01*
X19147828Y7745037D01*
X19118844Y7764404D01*
X19096358Y7773718D01*
X19070842Y7778793D01*
X19058588Y7780000D01*
X18722115Y7780000D01*
X18706876Y7775525D01*
X18705671Y7774135D01*
X18704000Y7766452D01*
X18704000Y7452115D01*
X18196000Y7452115D01*
X18196000Y7761884D01*
X18191525Y7777123D01*
X18190135Y7778328D01*
X18182452Y7779999D01*
X17841414Y7779999D01*
X17829154Y7778791D01*
X17803648Y7773718D01*
X17781152Y7764401D01*
X17752172Y7745037D01*
X17734963Y7727828D01*
X17715596Y7698844D01*
X17706282Y7676358D01*
X17701207Y7650842D01*
X17700000Y7638588D01*
X17700000Y7452115D01*
X14520499Y7452115D01*
X14520499Y7477414D01*
X14517538Y7502310D01*
X14474363Y7599510D01*
X14422938Y7650846D01*
X14407324Y7666433D01*
X14407322Y7666434D01*
X14399092Y7674650D01*
X14353596Y7694763D01*
X14299381Y7740601D01*
X14278554Y7808474D01*
X14297728Y7876833D01*
X14353397Y7925154D01*
X14388877Y7940914D01*
X14399510Y7945637D01*
X14439130Y7985326D01*
X14466433Y8012676D01*
X14466434Y8012678D01*
X14474650Y8020908D01*
X14487018Y8048884D01*
X14513823Y8109514D01*
X14513824Y8109517D01*
X14517655Y8118183D01*
X14520500Y8142585D01*
X14520499Y8497414D01*
X14517538Y8522310D01*
X14474363Y8619510D01*
X14416336Y8677436D01*
X14407326Y8686431D01*
X14407324Y8686432D01*
X14399092Y8694650D01*
X14388451Y8699354D01*
X14380315Y8704925D01*
X14335408Y8759915D01*
X14325500Y8808890D01*
X14325500Y9037232D01*
X14673846Y9037232D01*
X14702140Y8973532D01*
X14715099Y8954677D01*
X14775089Y8894791D01*
X14793962Y8881869D01*
X14819430Y8870610D01*
X14833413Y8868772D01*
X14836000Y8872908D01*
X14836000Y9027885D01*
X14831525Y9043124D01*
X14830135Y9044329D01*
X14822452Y9046000D01*
X14688066Y9046000D01*
X14674535Y9042027D01*
X14673846Y9037232D01*
X14325500Y9037232D01*
X14325500Y9310457D01*
X14327921Y9335039D01*
X14328476Y9337829D01*
X14330897Y9350000D01*
X14322959Y9389909D01*
X14314834Y9430755D01*
X14311936Y9445326D01*
X14311935Y9445328D01*
X14309515Y9457495D01*
X14302623Y9467810D01*
X14302622Y9467812D01*
X14273317Y9511669D01*
X14263994Y9525622D01*
X14263993Y9525623D01*
X14256212Y9537268D01*
X14248624Y9548624D01*
X14236707Y9556587D01*
X14675509Y9556587D01*
X14679645Y9554000D01*
X14817885Y9554000D01*
X14833124Y9558475D01*
X14834329Y9559865D01*
X14836000Y9567548D01*
X14836000Y9718608D01*
X14832027Y9732139D01*
X14827231Y9732828D01*
X14793529Y9717859D01*
X14774678Y9704903D01*
X14714791Y9644911D01*
X14701869Y9626038D01*
X14677347Y9570570D01*
X14675509Y9556587D01*
X14236707Y9556587D01*
X14235936Y9557102D01*
X14216844Y9572772D01*
X13571119Y10218497D01*
X13537093Y10280809D01*
X13542158Y10351624D01*
X13576110Y10395109D01*
X13573153Y10398061D01*
X13652241Y10477287D01*
X13657787Y10489830D01*
X13678743Y10537232D01*
X14627654Y10537232D01*
X14661331Y10461413D01*
X14674289Y10442558D01*
X14732963Y10383987D01*
X14751833Y10371066D01*
X14769432Y10363285D01*
X14783412Y10361448D01*
X14786000Y10365584D01*
X14786000Y10527885D01*
X14781525Y10543124D01*
X14780135Y10544329D01*
X14772452Y10546000D01*
X14641874Y10546000D01*
X14628343Y10542027D01*
X14627654Y10537232D01*
X13678743Y10537232D01*
X13688749Y10559865D01*
X13697506Y10579673D01*
X13700500Y10605354D01*
X13700500Y11517007D01*
X13720502Y11585128D01*
X13774158Y11631621D01*
X13844432Y11641725D01*
X13909012Y11612231D01*
X13922951Y11598082D01*
X13997822Y11509012D01*
X14007035Y11498052D01*
X14014512Y11493075D01*
X14104594Y11433111D01*
X14126378Y11418610D01*
X14134953Y11415931D01*
X14150929Y11410940D01*
X14263222Y11375858D01*
X14272194Y11375694D01*
X14272197Y11375693D01*
X14337528Y11374496D01*
X14406564Y11373230D01*
X14415598Y11375693D01*
X14536223Y11408579D01*
X14536225Y11408580D01*
X14544882Y11410940D01*
X14559534Y11419936D01*
X14628051Y11438533D01*
X14695746Y11417136D01*
X14714480Y11401732D01*
X14727373Y11388861D01*
X14761452Y11326577D01*
X14756447Y11255757D01*
X14727527Y11210671D01*
X14673986Y11157037D01*
X14661065Y11138165D01*
X14631182Y11070571D01*
X14629344Y11056587D01*
X14633479Y11054000D01*
X15168000Y11054000D01*
X15236121Y11033998D01*
X15282614Y10980342D01*
X15294000Y10928000D01*
X15294000Y10374083D01*
X15297973Y10360552D01*
X15302768Y10359863D01*
X15328591Y10371333D01*
X15347440Y10384287D01*
X15406013Y10442963D01*
X15418933Y10461832D01*
X15434488Y10497017D01*
X15480326Y10551233D01*
X15548199Y10572061D01*
X15616558Y10552887D01*
X15664880Y10497220D01*
X15685637Y10450490D01*
X15705561Y10430601D01*
X15752676Y10383567D01*
X15752678Y10383566D01*
X15760908Y10375350D01*
X15771548Y10370646D01*
X15849514Y10336177D01*
X15849517Y10336176D01*
X15858183Y10332345D01*
X15867594Y10331248D01*
X15867597Y10331247D01*
X15872862Y10330634D01*
X15882585Y10329500D01*
X16058487Y10329500D01*
X16237414Y10329501D01*
X16241111Y10329941D01*
X16241116Y10329941D01*
X16247257Y10330672D01*
X16262310Y10332462D01*
X16359510Y10375637D01*
X16404077Y10420282D01*
X16426433Y10442676D01*
X16426434Y10442678D01*
X16434650Y10450908D01*
X16445058Y10474450D01*
X16490897Y10528665D01*
X16560297Y10549500D01*
X17654502Y10549500D01*
X17722623Y10529498D01*
X17769116Y10475842D01*
X17778081Y10398920D01*
X17776207Y10389500D01*
X17775000Y10377242D01*
X17775001Y10222764D01*
X17776208Y10210501D01*
X17784908Y10166759D01*
X17794224Y10144267D01*
X17827403Y10094612D01*
X17844612Y10077403D01*
X17894268Y10044224D01*
X17916759Y10034908D01*
X17960503Y10026207D01*
X17972758Y10025000D01*
X18898500Y10025001D01*
X18966621Y10004999D01*
X19013114Y9951343D01*
X19024500Y9899001D01*
X19024500Y9864000D01*
X19004498Y9795879D01*
X18950842Y9749386D01*
X18898500Y9738000D01*
X18302043Y9738000D01*
X18277463Y9740421D01*
X18274673Y9740976D01*
X18274671Y9740976D01*
X18262500Y9743397D01*
X18250329Y9740976D01*
X18235368Y9738000D01*
X18235367Y9738000D01*
X18155005Y9722015D01*
X18144686Y9715120D01*
X18144684Y9715119D01*
X18136624Y9709733D01*
X18136548Y9709682D01*
X18086878Y9676494D01*
X18086877Y9676493D01*
X18063876Y9661124D01*
X18056985Y9650811D01*
X18055398Y9648436D01*
X18039728Y9629344D01*
X18022789Y9612405D01*
X17960477Y9578379D01*
X17933694Y9575500D01*
X16539799Y9575500D01*
X16471678Y9595502D01*
X16437401Y9628735D01*
X16433556Y9637391D01*
X16422981Y9647948D01*
X16368343Y9702490D01*
X16356966Y9713847D01*
X16257987Y9757605D01*
X16241717Y9759502D01*
X16236797Y9760076D01*
X16236792Y9760076D01*
X16233158Y9760500D01*
X15866842Y9760500D01*
X15858255Y9759478D01*
X15850903Y9758604D01*
X15850900Y9758603D01*
X15841511Y9757486D01*
X15832872Y9753649D01*
X15832869Y9753648D01*
X15753237Y9718277D01*
X15753236Y9718276D01*
X15742609Y9713556D01*
X15712550Y9683444D01*
X15674374Y9645202D01*
X15674373Y9645200D01*
X15666153Y9636966D01*
X15665573Y9637545D01*
X15618656Y9599230D01*
X15548117Y9591182D01*
X15484424Y9622547D01*
X15465839Y9643959D01*
X15464902Y9645323D01*
X15404911Y9705209D01*
X15386038Y9718131D01*
X15360570Y9729390D01*
X15346587Y9731228D01*
X15344000Y9727092D01*
X15344000Y8881392D01*
X15347973Y8867861D01*
X15352769Y8867172D01*
X15386471Y8882141D01*
X15405322Y8895097D01*
X15465208Y8955089D01*
X15465737Y8955861D01*
X15467047Y8956931D01*
X15473427Y8963322D01*
X15474078Y8962672D01*
X15520726Y9000768D01*
X15591265Y9008817D01*
X15654958Y8977452D01*
X15664979Y8965908D01*
X15666444Y8962609D01*
X15713652Y8915484D01*
X15747730Y8853205D01*
X15742727Y8782384D01*
X15701339Y8726353D01*
X15657379Y8692621D01*
X15569139Y8577625D01*
X15513670Y8443709D01*
X15494750Y8300000D01*
X15513670Y8156291D01*
X15569139Y8022375D01*
X15657379Y7907379D01*
X15772375Y7819139D01*
X15906291Y7763670D01*
X16050000Y7744750D01*
X16193709Y7763670D01*
X16327625Y7819139D01*
X16442621Y7907379D01*
X16530861Y8022375D01*
X16586330Y8156291D01*
X16605250Y8300000D01*
X16586330Y8443709D01*
X16530861Y8577625D01*
X16442621Y8692621D01*
X16398680Y8726338D01*
X16356814Y8783675D01*
X16352593Y8854546D01*
X16386212Y8915316D01*
X16395118Y8924237D01*
X16433847Y8963034D01*
X16437335Y8970923D01*
X16490810Y9014593D01*
X16539784Y9024500D01*
X18060457Y9024500D01*
X18085039Y9022079D01*
X18100000Y9019103D01*
X18127132Y9024500D01*
X18127133Y9024500D01*
X18207495Y9040485D01*
X18265886Y9079501D01*
X18275622Y9086006D01*
X18277092Y9083806D01*
X18277094Y9083806D01*
X18275623Y9086007D01*
X18288311Y9094485D01*
X18298624Y9101376D01*
X18307102Y9114064D01*
X18322772Y9133156D01*
X18339711Y9150095D01*
X18402023Y9184121D01*
X18428806Y9187000D01*
X18898500Y9187000D01*
X18966621Y9166998D01*
X19013114Y9113342D01*
X19024500Y9061000D01*
X19024500Y8966520D01*
X19036858Y8904391D01*
X19043752Y8894073D01*
X19043753Y8894071D01*
X19061492Y8867523D01*
X19083935Y8833935D01*
X19094251Y8827042D01*
X19144071Y8793753D01*
X19144073Y8793752D01*
X19154391Y8786858D01*
X19216520Y8774500D01*
X19383480Y8774500D01*
X19398919Y8777571D01*
X19469633Y8771243D01*
X19525700Y8727689D01*
X19549500Y8653992D01*
X19549500Y6925950D01*
X19529498Y6857829D01*
X19512595Y6836855D01*
X19415095Y6739355D01*
X19352783Y6705329D01*
X19281968Y6710394D01*
X19225132Y6752941D01*
X19200321Y6819461D01*
X19200000Y6828450D01*
X19200000Y6907885D01*
X19195525Y6923124D01*
X19194135Y6924329D01*
X19186452Y6926000D01*
X18722115Y6926000D01*
X18706876Y6921525D01*
X18705671Y6920135D01*
X18704000Y6912452D01*
X18704000Y6598116D01*
X18708475Y6582877D01*
X18709865Y6581672D01*
X18717548Y6580001D01*
X18951551Y6580001D01*
X19019672Y6559999D01*
X19066165Y6506343D01*
X19076269Y6436069D01*
X19046775Y6371489D01*
X19040646Y6364906D01*
X18733145Y6057405D01*
X18670833Y6023379D01*
X18644050Y6020500D01*
X17835180Y6020500D01*
X17791278Y6011767D01*
X17779688Y6004023D01*
X17776497Y6003023D01*
X17769497Y6000124D01*
X17769238Y6000750D01*
X17711939Y5982809D01*
X17643472Y6001591D01*
X17594537Y6057642D01*
X17568278Y6116761D01*
X17568277Y6116763D01*
X17563556Y6127391D01*
X17513234Y6177625D01*
X17495202Y6195626D01*
X17495200Y6195627D01*
X17486966Y6203847D01*
X17487545Y6204427D01*
X17449230Y6251344D01*
X17441182Y6321883D01*
X17472547Y6385576D01*
X17493959Y6404161D01*
X17495323Y6405098D01*
X17555209Y6465089D01*
X17568131Y6483962D01*
X17594199Y6542926D01*
X17640037Y6597142D01*
X17707910Y6617969D01*
X17769428Y6599713D01*
X17769690Y6600346D01*
X17775738Y6597841D01*
X17779444Y6596741D01*
X17781158Y6595596D01*
X17803642Y6586282D01*
X17829158Y6581207D01*
X17841412Y6580000D01*
X18177885Y6580000D01*
X18193124Y6584475D01*
X18194329Y6585865D01*
X18196000Y6593548D01*
X18196000Y6907885D01*
X18191525Y6923124D01*
X18190135Y6924329D01*
X18182452Y6926000D01*
X17716598Y6926000D01*
X17648477Y6946002D01*
X17601446Y7000852D01*
X17567857Y7076472D01*
X17554901Y7095323D01*
X17494911Y7155209D01*
X17476038Y7168131D01*
X17420570Y7192653D01*
X17406587Y7194491D01*
X17404000Y7190355D01*
X17404000Y6652000D01*
X17383998Y6583879D01*
X17330342Y6537386D01*
X17278000Y6526000D01*
X16731392Y6526000D01*
X16717861Y6522027D01*
X16717172Y6517231D01*
X16732141Y6483529D01*
X16745097Y6464678D01*
X16805089Y6404792D01*
X16805861Y6404263D01*
X16806931Y6402953D01*
X16813322Y6396573D01*
X16812672Y6395922D01*
X16850768Y6349274D01*
X16858817Y6278735D01*
X16827452Y6215042D01*
X16815908Y6205021D01*
X16812609Y6203556D01*
X16736153Y6126966D01*
X16692395Y6027987D01*
X16689500Y6003158D01*
X16689500Y5636842D01*
X16692514Y5611511D01*
X16696351Y5602872D01*
X16696352Y5602869D01*
X16720089Y5549430D01*
X16736444Y5512609D01*
X16813034Y5436153D01*
X16912013Y5392395D01*
X16928283Y5390498D01*
X16933203Y5389924D01*
X16933208Y5389924D01*
X16936842Y5389500D01*
X17174050Y5389500D01*
X17242171Y5369498D01*
X17263145Y5352595D01*
X17346642Y5269098D01*
X17362312Y5250005D01*
X17362505Y5249716D01*
X17362507Y5249714D01*
X17369399Y5239399D01*
X17452260Y5184034D01*
X17464431Y5181613D01*
X17525326Y5169500D01*
X17537828Y5167013D01*
X17537829Y5167013D01*
X17550000Y5164592D01*
X17562171Y5167013D01*
X17573500Y5167013D01*
X17641621Y5147011D01*
X17688114Y5093355D01*
X17699500Y5041013D01*
X17699500Y4955180D01*
X17708233Y4911278D01*
X17715127Y4900960D01*
X17715128Y4900958D01*
X17734601Y4871815D01*
X17741496Y4861496D01*
X17751815Y4854601D01*
X17780958Y4835128D01*
X17780960Y4835127D01*
X17791278Y4828233D01*
X17835180Y4819500D01*
X19064820Y4819500D01*
X19108722Y4828233D01*
X19119040Y4835127D01*
X19119042Y4835128D01*
X19148185Y4854601D01*
X19158504Y4861496D01*
X19165399Y4871815D01*
X19184872Y4900958D01*
X19184873Y4900960D01*
X19191767Y4911278D01*
X19200500Y4955180D01*
X19200500Y4961414D01*
X19900001Y4961414D01*
X19901209Y4949154D01*
X19906282Y4923648D01*
X19915599Y4901152D01*
X19934963Y4872172D01*
X19952172Y4854963D01*
X19981156Y4835596D01*
X20003642Y4826282D01*
X20029158Y4821207D01*
X20041412Y4820000D01*
X20377885Y4820000D01*
X20393124Y4824475D01*
X20394329Y4825865D01*
X20396000Y4833548D01*
X20396000Y4838116D01*
X20904000Y4838116D01*
X20908475Y4822877D01*
X20909865Y4821672D01*
X20917548Y4820001D01*
X21258586Y4820001D01*
X21270846Y4821209D01*
X21296352Y4826282D01*
X21318848Y4835599D01*
X21347828Y4854963D01*
X21365037Y4872172D01*
X21384404Y4901156D01*
X21393718Y4923642D01*
X21398793Y4949158D01*
X21400000Y4961412D01*
X21400000Y5147885D01*
X21395525Y5163124D01*
X21394135Y5164329D01*
X21386452Y5166000D01*
X20922115Y5166000D01*
X20906876Y5161525D01*
X20905671Y5160135D01*
X20904000Y5152452D01*
X20904000Y4838116D01*
X20396000Y4838116D01*
X20396000Y5147885D01*
X20391525Y5163124D01*
X20390135Y5164329D01*
X20382452Y5166000D01*
X19918116Y5166000D01*
X19902877Y5161525D01*
X19901672Y5160135D01*
X19900001Y5152452D01*
X19900001Y4961414D01*
X19200500Y4961414D01*
X19200500Y5692115D01*
X19900000Y5692115D01*
X19904475Y5676876D01*
X19905865Y5675671D01*
X19913548Y5674000D01*
X20377885Y5674000D01*
X20393124Y5678475D01*
X20394329Y5679865D01*
X20396000Y5687548D01*
X20396000Y6001884D01*
X20391525Y6017123D01*
X20390135Y6018328D01*
X20382452Y6019999D01*
X20041414Y6019999D01*
X20029154Y6018791D01*
X20003648Y6013718D01*
X19981152Y6004401D01*
X19952172Y5985037D01*
X19934963Y5967828D01*
X19915596Y5938844D01*
X19906282Y5916358D01*
X19901207Y5890842D01*
X19900000Y5878588D01*
X19900000Y5692115D01*
X19200500Y5692115D01*
X19200500Y5764050D01*
X19220502Y5832171D01*
X19237405Y5853145D01*
X19928579Y6544319D01*
X19990891Y6578345D01*
X20029668Y6580596D01*
X20035180Y6579500D01*
X21264820Y6579500D01*
X21308722Y6588233D01*
X21320312Y6595977D01*
X21323503Y6596977D01*
X21330503Y6599876D01*
X21330762Y6599250D01*
X21388061Y6617191D01*
X21456528Y6598409D01*
X21505463Y6542358D01*
X21531594Y6483529D01*
X21536444Y6472609D01*
X21565012Y6444091D01*
X21604798Y6404374D01*
X21604800Y6404373D01*
X21607336Y6401841D01*
X21613034Y6396153D01*
X21612455Y6395573D01*
X21650770Y6348656D01*
X21658818Y6278117D01*
X21627453Y6214424D01*
X21606041Y6195839D01*
X21604677Y6194902D01*
X21544791Y6134911D01*
X21531869Y6116038D01*
X21505801Y6057074D01*
X21459963Y6002858D01*
X21392090Y5982031D01*
X21330572Y6000287D01*
X21330310Y5999654D01*
X21324262Y6002159D01*
X21320556Y6003259D01*
X21318842Y6004404D01*
X21296358Y6013718D01*
X21270842Y6018793D01*
X21258588Y6020000D01*
X20922115Y6020000D01*
X20906876Y6015525D01*
X20905671Y6014135D01*
X20904000Y6006452D01*
X20904000Y5692115D01*
X20908475Y5676876D01*
X20909865Y5675671D01*
X20917548Y5674000D01*
X21383402Y5674000D01*
X21451523Y5653998D01*
X21498554Y5599148D01*
X21532143Y5523528D01*
X21545099Y5504677D01*
X21605089Y5444791D01*
X21623962Y5431869D01*
X21679430Y5407347D01*
X21693413Y5405509D01*
X21696000Y5409645D01*
X21696000Y5418066D01*
X22204000Y5418066D01*
X22207973Y5404535D01*
X22212768Y5403846D01*
X22276468Y5432140D01*
X22295323Y5445099D01*
X22355209Y5505089D01*
X22368131Y5523962D01*
X22379390Y5549430D01*
X22381228Y5563413D01*
X22377092Y5566000D01*
X22222115Y5566000D01*
X22206876Y5561525D01*
X22205671Y5560135D01*
X22204000Y5552452D01*
X22204000Y5418066D01*
X21696000Y5418066D01*
X21696000Y5577231D01*
X22867172Y5577231D01*
X22882141Y5543529D01*
X22895097Y5524678D01*
X22955089Y5464791D01*
X22973962Y5451869D01*
X23029430Y5427347D01*
X23043413Y5425509D01*
X23046000Y5429645D01*
X23046000Y5567885D01*
X23041525Y5583124D01*
X23040135Y5584329D01*
X23032452Y5586000D01*
X22881392Y5586000D01*
X22867861Y5582027D01*
X22867172Y5577231D01*
X21696000Y5577231D01*
X21696000Y5948000D01*
X21716002Y6016121D01*
X21769658Y6062614D01*
X21822000Y6074000D01*
X22368608Y6074000D01*
X22382139Y6077973D01*
X22382828Y6082769D01*
X22367859Y6116471D01*
X22354903Y6135322D01*
X22294911Y6195208D01*
X22294139Y6195737D01*
X22293069Y6197047D01*
X22286678Y6203427D01*
X22287328Y6204078D01*
X22249232Y6250726D01*
X22241183Y6321265D01*
X22272548Y6384958D01*
X22284092Y6394979D01*
X22287391Y6396444D01*
X22363847Y6473034D01*
X22407605Y6572013D01*
X22409632Y6589399D01*
X22410076Y6593203D01*
X22410076Y6593208D01*
X22410500Y6596842D01*
X22410500Y6963158D01*
X22407486Y6988489D01*
X22403649Y6997128D01*
X22403648Y6997131D01*
X22368277Y7076763D01*
X22368276Y7076764D01*
X22363556Y7087391D01*
X22286966Y7163847D01*
X22187987Y7207605D01*
X22171717Y7209502D01*
X22166797Y7210076D01*
X22166792Y7210076D01*
X22163158Y7210500D01*
X21925950Y7210500D01*
X21857829Y7230502D01*
X21836855Y7247405D01*
X21753358Y7330902D01*
X21737688Y7349995D01*
X21737495Y7350284D01*
X21737493Y7350286D01*
X21730601Y7360601D01*
X21720285Y7367494D01*
X21720284Y7367495D01*
X21670737Y7400601D01*
X21670736Y7400601D01*
X21647741Y7415966D01*
X21550000Y7435408D01*
X21537829Y7432987D01*
X21526500Y7432987D01*
X21458379Y7452989D01*
X21411886Y7506645D01*
X21400500Y7558987D01*
X21400500Y7644820D01*
X21391767Y7688722D01*
X21384873Y7699040D01*
X21384872Y7699042D01*
X21365399Y7728185D01*
X21358504Y7738504D01*
X21348185Y7745399D01*
X21339410Y7754174D01*
X21341226Y7755990D01*
X21306943Y7797007D01*
X21298091Y7867449D01*
X21316724Y7914511D01*
X21319200Y7917246D01*
X21364139Y8010000D01*
X21377795Y8038186D01*
X21377795Y8038187D01*
X21381710Y8046267D01*
X21405496Y8187646D01*
X21405647Y8200000D01*
X21394262Y8279498D01*
X21386596Y8333032D01*
X21386595Y8333035D01*
X21385323Y8341918D01*
X21325984Y8472428D01*
X21244708Y8566753D01*
X21215394Y8631415D01*
X21225693Y8701661D01*
X21272335Y8755188D01*
X21340161Y8775001D01*
X21377236Y8775001D01*
X21389499Y8776208D01*
X21445413Y8787329D01*
X21446248Y8783128D01*
X21493451Y8788211D01*
X21556944Y8756442D01*
X21575871Y8734203D01*
X21578278Y8730601D01*
X21601376Y8696032D01*
X21611692Y8689139D01*
X21611693Y8689138D01*
X21614064Y8687554D01*
X21633156Y8671884D01*
X22952960Y7352080D01*
X22986986Y7289768D01*
X22981921Y7218953D01*
X22953040Y7173970D01*
X22886153Y7106966D01*
X22881449Y7096327D01*
X22881449Y7096326D01*
X22876127Y7084287D01*
X22842395Y7007987D01*
X22840843Y6994677D01*
X22840122Y6988489D01*
X22839500Y6983158D01*
X22839500Y6616842D01*
X22842514Y6591511D01*
X22846351Y6582872D01*
X22846352Y6582869D01*
X22881723Y6503237D01*
X22886444Y6492609D01*
X22923868Y6455250D01*
X22954798Y6424374D01*
X22954800Y6424373D01*
X22957336Y6421841D01*
X22963034Y6416153D01*
X22962455Y6415573D01*
X23000770Y6368656D01*
X23008818Y6298117D01*
X22977453Y6234424D01*
X22956041Y6215839D01*
X22954677Y6214902D01*
X22894791Y6154911D01*
X22881869Y6136038D01*
X22870610Y6110570D01*
X22868772Y6096587D01*
X22872908Y6094000D01*
X23428000Y6094000D01*
X23496121Y6073998D01*
X23542614Y6020342D01*
X23554000Y5968000D01*
X23554000Y5438066D01*
X23557973Y5424535D01*
X23562768Y5423846D01*
X23626468Y5452140D01*
X23645323Y5465098D01*
X23661378Y5481182D01*
X23723660Y5515262D01*
X23794480Y5510260D01*
X23827255Y5492128D01*
X23862480Y5465098D01*
X23915343Y5424535D01*
X23922375Y5419139D01*
X24056291Y5363670D01*
X24200000Y5344750D01*
X24343709Y5363670D01*
X24477625Y5419139D01*
X24592621Y5507379D01*
X24680861Y5622375D01*
X24736330Y5756291D01*
X24755250Y5900000D01*
X24736330Y6043709D01*
X24680861Y6177625D01*
X24592621Y6292621D01*
X24477625Y6380861D01*
X24343709Y6436330D01*
X24200000Y6455250D01*
X24191812Y6454172D01*
X24191811Y6454172D01*
X24115239Y6444091D01*
X24045091Y6455030D01*
X24009698Y6479918D01*
X23797405Y6692211D01*
X23763379Y6754523D01*
X23760500Y6781306D01*
X23760500Y6983158D01*
X23759368Y6992676D01*
X23758604Y6999097D01*
X23758603Y6999100D01*
X23757486Y7008489D01*
X23753649Y7017128D01*
X23753648Y7017131D01*
X23718277Y7096763D01*
X23718276Y7096764D01*
X23713556Y7107391D01*
X23636966Y7183847D01*
X23629077Y7187335D01*
X23585407Y7240810D01*
X23575500Y7289784D01*
X23575500Y7355113D01*
X23577921Y7379695D01*
X23578476Y7382485D01*
X23580897Y7394656D01*
X23559515Y7502151D01*
X23513994Y7570278D01*
X23513993Y7570279D01*
X23498624Y7593280D01*
X23485936Y7601758D01*
X23466844Y7617428D01*
X22999867Y8084405D01*
X22965841Y8146717D01*
X22970906Y8217532D01*
X23013453Y8274368D01*
X23079973Y8299179D01*
X23088962Y8299500D01*
X24956839Y8299500D01*
X25024960Y8279498D01*
X25049300Y8251408D01*
X25060863Y8269183D01*
X25125607Y8298315D01*
X25142844Y8299500D01*
X25299755Y8299500D01*
X25367876Y8279498D01*
X25414906Y8224648D01*
X25425637Y8200490D01*
X25433870Y8192271D01*
X25440459Y8182684D01*
X25437196Y8180442D01*
X25461015Y8136901D01*
X25456005Y8066082D01*
X25413502Y8009213D01*
X25347001Y7984351D01*
X25277615Y7999389D01*
X25269729Y8004085D01*
X25269632Y8004130D01*
X25262095Y8009015D01*
X25124739Y8050093D01*
X25121567Y8050112D01*
X25059802Y8078737D01*
X25052036Y8090971D01*
X24992337Y8052604D01*
X24984607Y8050949D01*
X24981376Y8050969D01*
X24843529Y8011572D01*
X24722280Y7935070D01*
X24716338Y7928342D01*
X24716337Y7928341D01*
X24683805Y7891505D01*
X24627377Y7827612D01*
X24566447Y7697837D01*
X24559137Y7650887D01*
X24545958Y7566239D01*
X24544391Y7556177D01*
X24545555Y7547275D01*
X24545555Y7547272D01*
X24550868Y7506645D01*
X24562980Y7414021D01*
X24566597Y7405801D01*
X24616880Y7291525D01*
X24620720Y7282797D01*
X24626497Y7275924D01*
X24626498Y7275923D01*
X24693551Y7196154D01*
X24712970Y7173052D01*
X24832313Y7093610D01*
X24840888Y7090931D01*
X24845424Y7089514D01*
X24969157Y7050858D01*
X24978129Y7050694D01*
X24978132Y7050693D01*
X25043228Y7049500D01*
X25112499Y7048230D01*
X25121533Y7050693D01*
X25242158Y7083579D01*
X25242160Y7083580D01*
X25250817Y7085940D01*
X25283916Y7106263D01*
X25352433Y7124860D01*
X25420129Y7103463D01*
X25465509Y7048863D01*
X25474167Y6978396D01*
X25439018Y6909871D01*
X25416153Y6886966D01*
X25372395Y6787987D01*
X25369500Y6763158D01*
X25369500Y6336842D01*
X25369942Y6333130D01*
X25371280Y6321883D01*
X25372514Y6311511D01*
X25376351Y6302872D01*
X25376352Y6302869D01*
X25411401Y6223962D01*
X25416444Y6212609D01*
X25493034Y6136153D01*
X25503673Y6131449D01*
X25503674Y6131449D01*
X25522994Y6122908D01*
X25592013Y6092395D01*
X25608283Y6090498D01*
X25613203Y6089924D01*
X25613208Y6089924D01*
X25616842Y6089500D01*
X25983158Y6089500D01*
X25991745Y6090522D01*
X25999097Y6091396D01*
X25999100Y6091397D01*
X26008489Y6092514D01*
X26017128Y6096351D01*
X26017131Y6096352D01*
X26096763Y6131723D01*
X26096764Y6131724D01*
X26107391Y6136444D01*
X26148500Y6177625D01*
X26175626Y6204798D01*
X26175627Y6204800D01*
X26183847Y6213034D01*
X26184427Y6212455D01*
X26231344Y6250770D01*
X26301883Y6258818D01*
X26365576Y6227453D01*
X26384161Y6206041D01*
X26385098Y6204677D01*
X26445089Y6144791D01*
X26463962Y6131869D01*
X26489430Y6120610D01*
X26503413Y6118772D01*
X26506000Y6122908D01*
X26506000Y6131392D01*
X27014000Y6131392D01*
X27017973Y6117861D01*
X27022769Y6117172D01*
X27056471Y6132141D01*
X27075322Y6145097D01*
X27135209Y6205089D01*
X27148131Y6223962D01*
X27172653Y6279430D01*
X27174491Y6293413D01*
X27170355Y6296000D01*
X27032115Y6296000D01*
X27016876Y6291525D01*
X27015671Y6290135D01*
X27014000Y6282452D01*
X27014000Y6131392D01*
X26506000Y6131392D01*
X26506000Y6678000D01*
X26526002Y6746121D01*
X26579658Y6792614D01*
X26632000Y6804000D01*
X27161934Y6804000D01*
X27175465Y6807973D01*
X27176154Y6812768D01*
X27147860Y6876468D01*
X27134901Y6895323D01*
X27097765Y6932395D01*
X27063686Y6994677D01*
X27068689Y7065498D01*
X27113519Y7122976D01*
X27119510Y7125637D01*
X27127730Y7133871D01*
X27186433Y7192676D01*
X27186434Y7192678D01*
X27194650Y7200908D01*
X27207259Y7229429D01*
X27233823Y7289514D01*
X27233824Y7289517D01*
X27237655Y7298183D01*
X27240500Y7322585D01*
X27240499Y7777414D01*
X27239918Y7782305D01*
X27238714Y7792419D01*
X27237538Y7802310D01*
X27194363Y7899510D01*
X27178491Y7915355D01*
X27137963Y7955812D01*
X27132981Y7960785D01*
X27098902Y8023067D01*
X27103905Y8093887D01*
X27132826Y8138976D01*
X27186433Y8192676D01*
X27186434Y8192678D01*
X27194650Y8200908D01*
X27199353Y8211547D01*
X27205925Y8221145D01*
X27208049Y8219691D01*
X27243208Y8261275D01*
X27311082Y8282102D01*
X27379440Y8262927D01*
X27409060Y8237186D01*
X27454510Y8183117D01*
X27462970Y8173052D01*
X27582313Y8093610D01*
X27719157Y8050858D01*
X27728129Y8050694D01*
X27728132Y8050693D01*
X27793463Y8049496D01*
X27862499Y8048230D01*
X27871533Y8050693D01*
X27992158Y8083579D01*
X27992160Y8083580D01*
X27998029Y8085180D01*
X28649500Y8085180D01*
X28658233Y8041278D01*
X28665127Y8030960D01*
X28665128Y8030958D01*
X28681725Y8006119D01*
X28691496Y7991496D01*
X28701815Y7984601D01*
X28730958Y7965128D01*
X28730960Y7965127D01*
X28741278Y7958233D01*
X28785180Y7949500D01*
X29594050Y7949500D01*
X29662171Y7929498D01*
X29683145Y7912595D01*
X30526642Y7069098D01*
X30542312Y7050005D01*
X30542505Y7049716D01*
X30542507Y7049714D01*
X30549399Y7039399D01*
X30559714Y7032507D01*
X30612659Y6997131D01*
X30632260Y6984034D01*
X30644431Y6981613D01*
X30705326Y6969500D01*
X30717828Y6967013D01*
X30717829Y6967013D01*
X30730000Y6964592D01*
X30742503Y6967079D01*
X30767085Y6969500D01*
X32478018Y6969500D01*
X32546139Y6949498D01*
X32592632Y6895842D01*
X32599137Y6878230D01*
X32605506Y6856020D01*
X32607258Y6849909D01*
X32610076Y6844426D01*
X32694123Y6680887D01*
X32694126Y6680883D01*
X32696944Y6675399D01*
X32818818Y6521631D01*
X32823511Y6517637D01*
X32823512Y6517636D01*
X32958265Y6402953D01*
X32968238Y6394465D01*
X32973616Y6391459D01*
X32973618Y6391458D01*
X33007728Y6372395D01*
X33139513Y6298743D01*
X33326118Y6238111D01*
X33520946Y6214879D01*
X33527081Y6215351D01*
X33527083Y6215351D01*
X33710434Y6229459D01*
X33710438Y6229460D01*
X33716576Y6229932D01*
X33905556Y6282697D01*
X34080689Y6371163D01*
X34110515Y6394465D01*
X34210535Y6472609D01*
X34235303Y6491960D01*
X34257117Y6517231D01*
X34359485Y6635827D01*
X34359485Y6635828D01*
X34363509Y6640489D01*
X34460425Y6811091D01*
X34507973Y6954025D01*
X35117923Y6954025D01*
X35146025Y6856020D01*
X35150543Y6844608D01*
X35234546Y6681156D01*
X35241196Y6670838D01*
X35355350Y6526811D01*
X35363873Y6517985D01*
X35503833Y6398871D01*
X35513905Y6391870D01*
X35674334Y6302210D01*
X35685574Y6297299D01*
X35810769Y6256621D01*
X35824867Y6256218D01*
X35828000Y6262590D01*
X35828000Y6270742D01*
X36336000Y6270742D01*
X36339973Y6257211D01*
X36348188Y6256030D01*
X36439430Y6281505D01*
X36450881Y6285947D01*
X36614919Y6368807D01*
X36625276Y6375380D01*
X36770100Y6488530D01*
X36778986Y6496991D01*
X36899070Y6636110D01*
X36906144Y6646138D01*
X36996919Y6805932D01*
X37001913Y6817148D01*
X37045712Y6948811D01*
X37046213Y6962903D01*
X37040024Y6966000D01*
X36354115Y6966000D01*
X36338876Y6961525D01*
X36337671Y6960135D01*
X36336000Y6952452D01*
X36336000Y6270742D01*
X35828000Y6270742D01*
X35828000Y6947885D01*
X35823525Y6963124D01*
X35822135Y6964329D01*
X35814452Y6966000D01*
X35132604Y6966000D01*
X35119073Y6962027D01*
X35117923Y6954025D01*
X34507973Y6954025D01*
X34522358Y6997268D01*
X34546949Y7191929D01*
X34547341Y7220000D01*
X34528194Y7415272D01*
X34526413Y7421171D01*
X34526412Y7421176D01*
X34509507Y7477168D01*
X35118594Y7477168D01*
X35125153Y7474000D01*
X35809885Y7474000D01*
X35825124Y7478475D01*
X35826329Y7479865D01*
X35828000Y7487548D01*
X35828000Y7492115D01*
X36336000Y7492115D01*
X36340475Y7476876D01*
X36341865Y7475671D01*
X36349548Y7474000D01*
X37031826Y7474000D01*
X37045357Y7477973D01*
X37046449Y7485567D01*
X37012801Y7597015D01*
X37008126Y7608356D01*
X36921846Y7770627D01*
X36915059Y7780843D01*
X36798899Y7923269D01*
X36790255Y7931973D01*
X36648649Y8049120D01*
X36638478Y8055980D01*
X36476809Y8143394D01*
X36465504Y8148146D01*
X36353308Y8182876D01*
X36339205Y8183082D01*
X36336000Y8176327D01*
X36336000Y7492115D01*
X35828000Y7492115D01*
X35828000Y8169586D01*
X35824027Y8183117D01*
X35816232Y8184237D01*
X35711496Y8153411D01*
X35700119Y8148814D01*
X35537247Y8063667D01*
X35526986Y8056953D01*
X35383751Y7941789D01*
X35374992Y7933211D01*
X35256853Y7792419D01*
X35249927Y7782305D01*
X35161383Y7621243D01*
X35156555Y7609979D01*
X35118898Y7491269D01*
X35118594Y7477168D01*
X34509507Y7477168D01*
X34473265Y7597207D01*
X34471484Y7603106D01*
X34379370Y7776347D01*
X34255361Y7928398D01*
X34104180Y8053465D01*
X33931585Y8146787D01*
X33836156Y8176327D01*
X33750039Y8202985D01*
X33750036Y8202986D01*
X33744152Y8204807D01*
X33738027Y8205451D01*
X33738026Y8205451D01*
X33555147Y8224673D01*
X33555146Y8224673D01*
X33549019Y8225317D01*
X33450643Y8216364D01*
X33359759Y8208093D01*
X33359758Y8208093D01*
X33353618Y8207534D01*
X33347704Y8205793D01*
X33347702Y8205793D01*
X33266467Y8181884D01*
X33165393Y8152136D01*
X33159928Y8149279D01*
X32996972Y8064088D01*
X32996968Y8064085D01*
X32991512Y8061233D01*
X32986712Y8057373D01*
X32986711Y8057373D01*
X32976446Y8049120D01*
X32838600Y7938289D01*
X32712480Y7787984D01*
X32709516Y7782592D01*
X32709513Y7782588D01*
X32637085Y7650842D01*
X32617956Y7616046D01*
X32616094Y7610177D01*
X32616093Y7610174D01*
X32599670Y7558402D01*
X32560007Y7499517D01*
X32494805Y7471425D01*
X32479568Y7470500D01*
X30885950Y7470500D01*
X30817829Y7490502D01*
X30796855Y7507405D01*
X29987405Y8316855D01*
X29953379Y8379167D01*
X29950500Y8405950D01*
X29950500Y9214820D01*
X29941767Y9258722D01*
X29934873Y9269040D01*
X29934872Y9269042D01*
X29915399Y9298185D01*
X29908504Y9308504D01*
X29898185Y9315399D01*
X29869042Y9334872D01*
X29869040Y9334873D01*
X29858722Y9341767D01*
X29814820Y9350500D01*
X28785180Y9350500D01*
X28741278Y9341767D01*
X28730960Y9334873D01*
X28730958Y9334872D01*
X28701815Y9315399D01*
X28691496Y9308504D01*
X28684601Y9298185D01*
X28665128Y9269042D01*
X28665127Y9269040D01*
X28658233Y9258722D01*
X28649500Y9214820D01*
X28649500Y8085180D01*
X27998029Y8085180D01*
X28000817Y8085940D01*
X28122991Y8160955D01*
X28146310Y8186717D01*
X28213178Y8260593D01*
X28219200Y8267246D01*
X28281710Y8396267D01*
X28305496Y8537646D01*
X28305647Y8550000D01*
X28295693Y8619510D01*
X28286596Y8683032D01*
X28286595Y8683035D01*
X28285323Y8691918D01*
X28225984Y8822428D01*
X28198309Y8854546D01*
X28138260Y8924237D01*
X28138257Y8924240D01*
X28132400Y8931037D01*
X28012095Y9009015D01*
X27874739Y9050093D01*
X27865763Y9050148D01*
X27865762Y9050148D01*
X27805555Y9050516D01*
X27731376Y9050969D01*
X27593529Y9011572D01*
X27472280Y8935070D01*
X27412315Y8867172D01*
X27406777Y8860901D01*
X27346691Y8823082D01*
X27275698Y8823752D01*
X27216336Y8862698D01*
X27205834Y8879402D01*
X27205674Y8879292D01*
X27199086Y8888878D01*
X27194363Y8899510D01*
X27178894Y8914952D01*
X27132628Y8961138D01*
X27098548Y9023420D01*
X27103551Y9094240D01*
X27132472Y9139329D01*
X27186013Y9192963D01*
X27198934Y9211835D01*
X27228817Y9279429D01*
X27230655Y9293413D01*
X27226520Y9296000D01*
X26691999Y9296000D01*
X26623878Y9316002D01*
X26577385Y9369658D01*
X26565999Y9422000D01*
X26565999Y9678000D01*
X26586001Y9746121D01*
X26639657Y9792614D01*
X26691999Y9804000D01*
X27218125Y9804000D01*
X27231656Y9807973D01*
X27232345Y9812768D01*
X27198668Y9888587D01*
X27185710Y9907442D01*
X27158798Y9934307D01*
X27124719Y9996590D01*
X27129722Y10067410D01*
X27172219Y10124283D01*
X27238718Y10149151D01*
X27247816Y10149480D01*
X28312895Y10149480D01*
X28337476Y10147059D01*
X28337808Y10146993D01*
X28337809Y10146993D01*
X28349980Y10144572D01*
X28447721Y10164014D01*
X28458035Y10170906D01*
X28458038Y10170907D01*
X28492739Y10194094D01*
X28492740Y10194095D01*
X28520266Y10212487D01*
X28530581Y10219379D01*
X28537473Y10229694D01*
X28537475Y10229696D01*
X28537668Y10229985D01*
X28553338Y10249078D01*
X28716855Y10412595D01*
X28779167Y10446621D01*
X28805950Y10449500D01*
X32446049Y10449500D01*
X32514170Y10429498D01*
X32535144Y10412595D01*
X32612692Y10335047D01*
X32646718Y10272735D01*
X32641653Y10201920D01*
X32634011Y10185250D01*
X32620923Y10161444D01*
X32620922Y10161441D01*
X32617956Y10156046D01*
X32616095Y10150179D01*
X32616094Y10150177D01*
X32589839Y10067410D01*
X32558628Y9969022D01*
X32536757Y9774037D01*
X32553175Y9578517D01*
X32607258Y9389909D01*
X32610076Y9384426D01*
X32694123Y9220887D01*
X32694126Y9220883D01*
X32696944Y9215399D01*
X32818818Y9061631D01*
X32823511Y9057637D01*
X32823512Y9057636D01*
X32943098Y8955861D01*
X32968238Y8934465D01*
X32973616Y8931459D01*
X32973618Y8931458D01*
X33050565Y8888454D01*
X33139513Y8838743D01*
X33326118Y8778111D01*
X33520946Y8754879D01*
X33527081Y8755351D01*
X33527083Y8755351D01*
X33710434Y8769459D01*
X33710438Y8769460D01*
X33716576Y8769932D01*
X33905556Y8822697D01*
X34080689Y8911163D01*
X34086224Y8915487D01*
X34205681Y9008817D01*
X34235303Y9031960D01*
X34242606Y9040420D01*
X34359485Y9175827D01*
X34359485Y9175828D01*
X34363509Y9180489D01*
X34376859Y9203988D01*
X34427450Y9293045D01*
X34460425Y9351091D01*
X34522358Y9537268D01*
X34546949Y9731929D01*
X34547277Y9755383D01*
X34547292Y9756477D01*
X34547292Y9756481D01*
X34547341Y9760000D01*
X34528194Y9955272D01*
X34526413Y9961171D01*
X34526412Y9961176D01*
X34473265Y10137207D01*
X34471484Y10143106D01*
X34379370Y10316347D01*
X34255361Y10468398D01*
X34124790Y10576415D01*
X34085052Y10635249D01*
X34083429Y10706227D01*
X34120438Y10766814D01*
X34184328Y10797775D01*
X34205105Y10799500D01*
X34636050Y10799500D01*
X34704171Y10779498D01*
X34725145Y10762595D01*
X35152692Y10335048D01*
X35186718Y10272736D01*
X35181653Y10201921D01*
X35174012Y10185252D01*
X35157956Y10156046D01*
X35156095Y10150179D01*
X35156094Y10150177D01*
X35129839Y10067410D01*
X35098628Y9969022D01*
X35076757Y9774037D01*
X35093175Y9578517D01*
X35147258Y9389909D01*
X35150076Y9384426D01*
X35234123Y9220887D01*
X35234126Y9220883D01*
X35236944Y9215399D01*
X35358818Y9061631D01*
X35363511Y9057637D01*
X35363512Y9057636D01*
X35483098Y8955861D01*
X35508238Y8934465D01*
X35513616Y8931459D01*
X35513618Y8931458D01*
X35590565Y8888454D01*
X35679513Y8838743D01*
X35866118Y8778111D01*
X36060946Y8754879D01*
X36067081Y8755351D01*
X36067083Y8755351D01*
X36250434Y8769459D01*
X36250438Y8769460D01*
X36256576Y8769932D01*
X36445556Y8822697D01*
X36620689Y8911163D01*
X36626224Y8915487D01*
X36745681Y9008817D01*
X36775303Y9031960D01*
X36782606Y9040420D01*
X36899485Y9175827D01*
X36899485Y9175828D01*
X36903509Y9180489D01*
X36916859Y9203988D01*
X36967450Y9293045D01*
X37000425Y9351091D01*
X37062358Y9537268D01*
X37086949Y9731929D01*
X37087277Y9755383D01*
X37087292Y9756477D01*
X37087292Y9756481D01*
X37087341Y9760000D01*
X37068194Y9955272D01*
X37066413Y9961171D01*
X37066412Y9961176D01*
X37013265Y10137207D01*
X37011484Y10143106D01*
X36919370Y10316347D01*
X36795361Y10468398D01*
X36644180Y10593465D01*
X36471585Y10686787D01*
X36375533Y10716520D01*
X36290039Y10742985D01*
X36290036Y10742986D01*
X36284152Y10744807D01*
X36278027Y10745451D01*
X36278026Y10745451D01*
X36095147Y10764673D01*
X36095146Y10764673D01*
X36089019Y10765317D01*
X35966383Y10754156D01*
X35899759Y10748093D01*
X35899758Y10748093D01*
X35893618Y10747534D01*
X35887704Y10745793D01*
X35887702Y10745793D01*
X35863246Y10738595D01*
X35705393Y10692136D01*
X35655244Y10665918D01*
X35585611Y10652084D01*
X35519550Y10678093D01*
X35507775Y10688485D01*
X34995358Y11200902D01*
X34979688Y11219995D01*
X34979495Y11220284D01*
X34979493Y11220286D01*
X34972601Y11230601D01*
X34913643Y11269995D01*
X34889741Y11285966D01*
X34792000Y11305408D01*
X34779829Y11302987D01*
X34779828Y11302987D01*
X34779496Y11302921D01*
X34754915Y11300500D01*
X34252969Y11300500D01*
X34184848Y11320502D01*
X34138355Y11374158D01*
X34128251Y11444432D01*
X34157745Y11509012D01*
X34175396Y11525789D01*
X34230096Y11568525D01*
X34238986Y11576991D01*
X34359070Y11716110D01*
X34366144Y11726138D01*
X34456919Y11885932D01*
X34461913Y11897148D01*
X34505712Y12028811D01*
X34505897Y12034025D01*
X35117923Y12034025D01*
X35146025Y11936020D01*
X35150543Y11924608D01*
X35234546Y11761156D01*
X35241196Y11750838D01*
X35355350Y11606811D01*
X35363873Y11597985D01*
X35503833Y11478871D01*
X35513905Y11471870D01*
X35674334Y11382210D01*
X35685574Y11377299D01*
X35810769Y11336621D01*
X35824867Y11336218D01*
X35828000Y11342590D01*
X35828000Y11350742D01*
X36336000Y11350742D01*
X36339973Y11337211D01*
X36348188Y11336030D01*
X36439430Y11361505D01*
X36450881Y11365947D01*
X36614919Y11448807D01*
X36625276Y11455380D01*
X36770100Y11568530D01*
X36778986Y11576991D01*
X36899070Y11716110D01*
X36906144Y11726138D01*
X36996919Y11885932D01*
X37001913Y11897148D01*
X37045712Y12028811D01*
X37046213Y12042903D01*
X37040024Y12046000D01*
X36354115Y12046000D01*
X36338876Y12041525D01*
X36337671Y12040135D01*
X36336000Y12032452D01*
X36336000Y11350742D01*
X35828000Y11350742D01*
X35828000Y12027885D01*
X35823525Y12043124D01*
X35822135Y12044329D01*
X35814452Y12046000D01*
X35132604Y12046000D01*
X35119073Y12042027D01*
X35117923Y12034025D01*
X34505897Y12034025D01*
X34506213Y12042903D01*
X34500024Y12046000D01*
X32592604Y12046000D01*
X32579073Y12042027D01*
X32577923Y12034025D01*
X32606025Y11936020D01*
X32610543Y11924608D01*
X32694546Y11761156D01*
X32701196Y11750838D01*
X32815350Y11606811D01*
X32823873Y11597985D01*
X32912622Y11522454D01*
X32951535Y11463071D01*
X32952166Y11392077D01*
X32914314Y11332013D01*
X32849998Y11301947D01*
X32830959Y11300500D01*
X28615938Y11300500D01*
X28547817Y11320502D01*
X28501324Y11374158D01*
X28491220Y11444432D01*
X28520714Y11509012D01*
X28526843Y11515595D01*
X29568417Y12557168D01*
X32578594Y12557168D01*
X32585153Y12554000D01*
X33269885Y12554000D01*
X33285124Y12558475D01*
X33286329Y12559865D01*
X33288000Y12567548D01*
X33288000Y12572115D01*
X33796000Y12572115D01*
X33800475Y12556876D01*
X33801865Y12555671D01*
X33809548Y12554000D01*
X34491826Y12554000D01*
X34502615Y12557168D01*
X35118594Y12557168D01*
X35125153Y12554000D01*
X35809885Y12554000D01*
X35825124Y12558475D01*
X35826329Y12559865D01*
X35828000Y12567548D01*
X35828000Y12572115D01*
X36336000Y12572115D01*
X36340475Y12556876D01*
X36341865Y12555671D01*
X36349548Y12554000D01*
X37031826Y12554000D01*
X37045357Y12557973D01*
X37046449Y12565567D01*
X37012801Y12677015D01*
X37008126Y12688356D01*
X36921846Y12850627D01*
X36915059Y12860843D01*
X36798899Y13003269D01*
X36790255Y13011973D01*
X36648649Y13129120D01*
X36638478Y13135980D01*
X36476809Y13223394D01*
X36465504Y13228146D01*
X36353308Y13262876D01*
X36339205Y13263082D01*
X36336000Y13256327D01*
X36336000Y12572115D01*
X35828000Y12572115D01*
X35828000Y13249586D01*
X35824027Y13263117D01*
X35816232Y13264237D01*
X35711496Y13233411D01*
X35700119Y13228814D01*
X35537247Y13143667D01*
X35526986Y13136953D01*
X35383751Y13021789D01*
X35374992Y13013211D01*
X35256853Y12872419D01*
X35249927Y12862305D01*
X35161383Y12701243D01*
X35156555Y12689979D01*
X35118898Y12571269D01*
X35118594Y12557168D01*
X34502615Y12557168D01*
X34505357Y12557973D01*
X34506449Y12565567D01*
X34472801Y12677015D01*
X34468126Y12688356D01*
X34381846Y12850627D01*
X34375059Y12860843D01*
X34258899Y13003269D01*
X34250255Y13011973D01*
X34108649Y13129120D01*
X34098478Y13135980D01*
X33936809Y13223394D01*
X33925504Y13228146D01*
X33813308Y13262876D01*
X33799205Y13263082D01*
X33796000Y13256327D01*
X33796000Y12572115D01*
X33288000Y12572115D01*
X33288000Y13249586D01*
X33284027Y13263117D01*
X33276232Y13264237D01*
X33171496Y13233411D01*
X33160119Y13228814D01*
X32997247Y13143667D01*
X32986986Y13136953D01*
X32843751Y13021789D01*
X32834992Y13013211D01*
X32716853Y12872419D01*
X32709927Y12862305D01*
X32621383Y12701243D01*
X32616555Y12689979D01*
X32578898Y12571269D01*
X32578594Y12557168D01*
X29568417Y12557168D01*
X29811249Y12800000D01*
X31563844Y14552595D01*
X31626156Y14586621D01*
X31652939Y14589500D01*
X32478018Y14589500D01*
X32546139Y14569498D01*
X32592632Y14515842D01*
X32599136Y14498231D01*
X32599661Y14496403D01*
X32605544Y14475888D01*
X32607258Y14469909D01*
X32621468Y14442259D01*
X32694123Y14300887D01*
X32694126Y14300883D01*
X32696944Y14295399D01*
X32818818Y14141631D01*
X32823511Y14137637D01*
X32823512Y14137636D01*
X32959863Y14021593D01*
X32968238Y14014465D01*
X32973616Y14011459D01*
X32973618Y14011458D01*
X33014114Y13988826D01*
X33139513Y13918743D01*
X33326118Y13858111D01*
X33520946Y13834879D01*
X33527081Y13835351D01*
X33527083Y13835351D01*
X33710434Y13849459D01*
X33710438Y13849460D01*
X33716576Y13849932D01*
X33905556Y13902697D01*
X34080689Y13991163D01*
X34089808Y13998287D01*
X34224944Y14103867D01*
X34235303Y14111960D01*
X34242675Y14120500D01*
X34359485Y14255827D01*
X34359485Y14255828D01*
X34363509Y14260489D01*
X34367514Y14267538D01*
X34402713Y14329500D01*
X34460425Y14431091D01*
X34522358Y14617268D01*
X34546949Y14811929D01*
X34547200Y14829928D01*
X34547292Y14836477D01*
X34547292Y14836481D01*
X34547341Y14840000D01*
X34545965Y14854037D01*
X35076757Y14854037D01*
X35093175Y14658517D01*
X35147258Y14469909D01*
X35161468Y14442259D01*
X35234123Y14300887D01*
X35234126Y14300883D01*
X35236944Y14295399D01*
X35358818Y14141631D01*
X35363511Y14137637D01*
X35363512Y14137636D01*
X35499863Y14021593D01*
X35508238Y14014465D01*
X35513616Y14011459D01*
X35513618Y14011458D01*
X35554114Y13988826D01*
X35679513Y13918743D01*
X35866118Y13858111D01*
X36060946Y13834879D01*
X36067081Y13835351D01*
X36067083Y13835351D01*
X36250434Y13849459D01*
X36250438Y13849460D01*
X36256576Y13849932D01*
X36445556Y13902697D01*
X36620689Y13991163D01*
X36629808Y13998287D01*
X36764944Y14103867D01*
X36775303Y14111960D01*
X36782675Y14120500D01*
X36899485Y14255827D01*
X36899485Y14255828D01*
X36903509Y14260489D01*
X36907514Y14267538D01*
X36942713Y14329500D01*
X37000425Y14431091D01*
X37062358Y14617268D01*
X37086949Y14811929D01*
X37087200Y14829928D01*
X37087292Y14836477D01*
X37087292Y14836481D01*
X37087341Y14840000D01*
X37068194Y15035272D01*
X37066413Y15041171D01*
X37066412Y15041176D01*
X37013265Y15217207D01*
X37011484Y15223106D01*
X36919370Y15396347D01*
X36795361Y15548398D01*
X36644180Y15673465D01*
X36471585Y15766787D01*
X36377868Y15795797D01*
X36290039Y15822985D01*
X36290036Y15822986D01*
X36284152Y15824807D01*
X36278027Y15825451D01*
X36278026Y15825451D01*
X36095147Y15844673D01*
X36095146Y15844673D01*
X36089019Y15845317D01*
X35966383Y15834156D01*
X35899759Y15828093D01*
X35899758Y15828093D01*
X35893618Y15827534D01*
X35887704Y15825793D01*
X35887702Y15825793D01*
X35800066Y15800000D01*
X35705393Y15772136D01*
X35699928Y15769279D01*
X35536972Y15684088D01*
X35536968Y15684085D01*
X35531512Y15681233D01*
X35526712Y15677373D01*
X35526711Y15677373D01*
X35500533Y15656325D01*
X35378600Y15558289D01*
X35252480Y15407984D01*
X35249516Y15402592D01*
X35249513Y15402588D01*
X35178163Y15272802D01*
X35157956Y15236046D01*
X35156095Y15230179D01*
X35156094Y15230177D01*
X35142602Y15187646D01*
X35098628Y15049022D01*
X35076757Y14854037D01*
X34545965Y14854037D01*
X34528194Y15035272D01*
X34526413Y15041171D01*
X34526412Y15041176D01*
X34473265Y15217207D01*
X34471484Y15223106D01*
X34379370Y15396347D01*
X34255361Y15548398D01*
X34104180Y15673465D01*
X33931585Y15766787D01*
X33837868Y15795797D01*
X33750039Y15822985D01*
X33750036Y15822986D01*
X33744152Y15824807D01*
X33738027Y15825451D01*
X33738026Y15825451D01*
X33555147Y15844673D01*
X33555146Y15844673D01*
X33549019Y15845317D01*
X33426383Y15834156D01*
X33359759Y15828093D01*
X33359758Y15828093D01*
X33353618Y15827534D01*
X33347704Y15825793D01*
X33347702Y15825793D01*
X33260066Y15800000D01*
X33165393Y15772136D01*
X33159928Y15769279D01*
X32996972Y15684088D01*
X32996968Y15684085D01*
X32991512Y15681233D01*
X32986712Y15677373D01*
X32986711Y15677373D01*
X32960533Y15656325D01*
X32838600Y15558289D01*
X32712480Y15407984D01*
X32709516Y15402592D01*
X32709513Y15402588D01*
X32638163Y15272802D01*
X32617956Y15236046D01*
X32616094Y15230177D01*
X32616093Y15230174D01*
X32599670Y15178402D01*
X32560007Y15119517D01*
X32494805Y15091425D01*
X32479568Y15090500D01*
X31910951Y15090500D01*
X31842830Y15110502D01*
X31796337Y15164158D01*
X31786233Y15234432D01*
X31815727Y15299012D01*
X31821856Y15305595D01*
X32858856Y16342595D01*
X32921168Y16376621D01*
X32947951Y16379500D01*
X34406820Y16379500D01*
X34450722Y16388233D01*
X34461040Y16395127D01*
X34461042Y16395128D01*
X34490185Y16414601D01*
X34500504Y16421496D01*
X34508892Y16434050D01*
X34526872Y16460958D01*
X34526873Y16460960D01*
X34533767Y16471278D01*
X34542500Y16515180D01*
X34542500Y17394037D01*
X35076757Y17394037D01*
X35093175Y17198517D01*
X35147258Y17009909D01*
X35150076Y17004426D01*
X35234123Y16840887D01*
X35234126Y16840883D01*
X35236944Y16835399D01*
X35358818Y16681631D01*
X35363511Y16677637D01*
X35363512Y16677636D01*
X35491343Y16568844D01*
X35508238Y16554465D01*
X35513616Y16551459D01*
X35513618Y16551458D01*
X35576938Y16516070D01*
X35679513Y16458743D01*
X35866118Y16398111D01*
X36060946Y16374879D01*
X36067081Y16375351D01*
X36067083Y16375351D01*
X36250434Y16389459D01*
X36250438Y16389460D01*
X36256576Y16389932D01*
X36445556Y16442697D01*
X36620689Y16531163D01*
X36644160Y16549500D01*
X36711989Y16602494D01*
X36775303Y16651960D01*
X36785079Y16663285D01*
X36899485Y16795827D01*
X36899485Y16795828D01*
X36903509Y16800489D01*
X36925679Y16839514D01*
X36944465Y16872585D01*
X37000425Y16971091D01*
X37062358Y17157268D01*
X37086949Y17351929D01*
X37087239Y17372713D01*
X37087292Y17376477D01*
X37087292Y17376481D01*
X37087341Y17380000D01*
X37068194Y17575272D01*
X37066413Y17581171D01*
X37066412Y17581176D01*
X37013265Y17757207D01*
X37011484Y17763106D01*
X36919370Y17936347D01*
X36795361Y18088398D01*
X36644180Y18213465D01*
X36471585Y18306787D01*
X36369124Y18338504D01*
X36290039Y18362985D01*
X36290036Y18362986D01*
X36284152Y18364807D01*
X36278027Y18365451D01*
X36278026Y18365451D01*
X36095147Y18384673D01*
X36095146Y18384673D01*
X36089019Y18385317D01*
X35966733Y18374188D01*
X35899759Y18368093D01*
X35899758Y18368093D01*
X35893618Y18367534D01*
X35887704Y18365793D01*
X35887702Y18365793D01*
X35818410Y18345399D01*
X35705393Y18312136D01*
X35699928Y18309279D01*
X35536972Y18224088D01*
X35536968Y18224085D01*
X35531512Y18221233D01*
X35526712Y18217373D01*
X35526711Y18217373D01*
X35518680Y18210916D01*
X35378600Y18098289D01*
X35252480Y17947984D01*
X35249516Y17942592D01*
X35249513Y17942588D01*
X35176120Y17809086D01*
X35157956Y17776046D01*
X35098628Y17589022D01*
X35076757Y17394037D01*
X34542500Y17394037D01*
X34542500Y18244820D01*
X34533767Y18288722D01*
X34526873Y18299040D01*
X34526872Y18299042D01*
X34507399Y18328185D01*
X34500504Y18338504D01*
X34490185Y18345399D01*
X34461042Y18364872D01*
X34461040Y18364873D01*
X34450722Y18371767D01*
X34406820Y18380500D01*
X32677180Y18380500D01*
X32633278Y18371767D01*
X32622960Y18364873D01*
X32622958Y18364872D01*
X32593815Y18345399D01*
X32583496Y18338504D01*
X32576601Y18328185D01*
X32557128Y18299042D01*
X32557127Y18299040D01*
X32550233Y18288722D01*
X32541500Y18244820D01*
X32541500Y16785951D01*
X32521498Y16717830D01*
X32504595Y16696856D01*
X30200135Y14392395D01*
X28520511Y12712771D01*
X28458199Y12678745D01*
X28387384Y12683810D01*
X28330548Y12726357D01*
X28305682Y12793676D01*
X28305587Y12795128D01*
X28305647Y12800000D01*
X28304956Y12804822D01*
X28304956Y12804829D01*
X28286596Y12933032D01*
X28286595Y12933035D01*
X28285323Y12941918D01*
X28225984Y13072428D01*
X28207598Y13093766D01*
X28138260Y13174237D01*
X28138257Y13174240D01*
X28132400Y13181037D01*
X28012095Y13259015D01*
X27874739Y13300093D01*
X27865763Y13300148D01*
X27865762Y13300148D01*
X27805555Y13300516D01*
X27731376Y13300969D01*
X27593529Y13261572D01*
X27472280Y13185070D01*
X27466338Y13178342D01*
X27466337Y13178341D01*
X27391048Y13093092D01*
X27330963Y13055274D01*
X27296607Y13050500D01*
X27264912Y13050500D01*
X27196791Y13070502D01*
X27150298Y13124158D01*
X27140194Y13194432D01*
X27149672Y13227448D01*
X27172653Y13279430D01*
X27174491Y13293413D01*
X27170355Y13296000D01*
X26632000Y13296000D01*
X26563879Y13316002D01*
X26517386Y13369658D01*
X26506000Y13422000D01*
X26506000Y13678000D01*
X26526002Y13746121D01*
X26579658Y13792614D01*
X26632000Y13804000D01*
X27161934Y13804000D01*
X27175465Y13807973D01*
X27176154Y13812768D01*
X27147860Y13876468D01*
X27134901Y13895323D01*
X27097765Y13932395D01*
X27063686Y13994677D01*
X27068689Y14065498D01*
X27113519Y14122976D01*
X27119510Y14125637D01*
X27127730Y14133871D01*
X27186433Y14192676D01*
X27186434Y14192678D01*
X27194650Y14200908D01*
X27204310Y14222758D01*
X27233823Y14289514D01*
X27233824Y14289517D01*
X27237655Y14298183D01*
X27240500Y14322585D01*
X27240499Y14777414D01*
X27237538Y14802310D01*
X27194363Y14899510D01*
X27119092Y14974650D01*
X27119441Y14975000D01*
X27080406Y15022802D01*
X27070500Y15071773D01*
X27070500Y15264050D01*
X27090502Y15332171D01*
X27107405Y15353145D01*
X27145674Y15391414D01*
X28650001Y15391414D01*
X28651209Y15379154D01*
X28656282Y15353648D01*
X28665599Y15331152D01*
X28684963Y15302172D01*
X28702172Y15284963D01*
X28731156Y15265596D01*
X28753642Y15256282D01*
X28779158Y15251207D01*
X28791412Y15250000D01*
X29027885Y15250000D01*
X29043124Y15254475D01*
X29044329Y15255865D01*
X29046000Y15263548D01*
X29046000Y15268116D01*
X29554000Y15268116D01*
X29558475Y15252877D01*
X29559865Y15251672D01*
X29567548Y15250001D01*
X29808586Y15250001D01*
X29820846Y15251209D01*
X29846352Y15256282D01*
X29868848Y15265599D01*
X29897828Y15284963D01*
X29915037Y15302172D01*
X29934404Y15331156D01*
X29943718Y15353642D01*
X29948793Y15379158D01*
X29950000Y15391412D01*
X29950000Y15677885D01*
X29945525Y15693124D01*
X29944135Y15694329D01*
X29936452Y15696000D01*
X29572115Y15696000D01*
X29556876Y15691525D01*
X29555671Y15690135D01*
X29554000Y15682452D01*
X29554000Y15268116D01*
X29046000Y15268116D01*
X29046000Y15677885D01*
X29041525Y15693124D01*
X29040135Y15694329D01*
X29032452Y15696000D01*
X28668116Y15696000D01*
X28652877Y15691525D01*
X28651672Y15690135D01*
X28650001Y15682452D01*
X28650001Y15391414D01*
X27145674Y15391414D01*
X27319561Y15565301D01*
X27381873Y15599327D01*
X27419147Y15600325D01*
X27419157Y15600858D01*
X27562499Y15598230D01*
X27571196Y15600601D01*
X27692158Y15633579D01*
X27692160Y15633580D01*
X27700817Y15635940D01*
X27822991Y15710955D01*
X27838465Y15728050D01*
X27903590Y15800000D01*
X27919200Y15817246D01*
X27963696Y15909086D01*
X27977795Y15938186D01*
X27977795Y15938187D01*
X27981710Y15946267D01*
X28005496Y16087646D01*
X28005647Y16100000D01*
X27993913Y16181934D01*
X27988159Y16222115D01*
X28650000Y16222115D01*
X28654475Y16206876D01*
X28655865Y16205671D01*
X28663548Y16204000D01*
X29027885Y16204000D01*
X29043124Y16208475D01*
X29044329Y16209865D01*
X29046000Y16217548D01*
X29046000Y16222115D01*
X29554000Y16222115D01*
X29558475Y16206876D01*
X29559865Y16205671D01*
X29567548Y16204000D01*
X29931884Y16204000D01*
X29947123Y16208475D01*
X29948328Y16209865D01*
X29949999Y16217548D01*
X29949999Y16508586D01*
X29948791Y16520846D01*
X29943718Y16546352D01*
X29934401Y16568848D01*
X29915037Y16597828D01*
X29897828Y16615037D01*
X29868844Y16634404D01*
X29846358Y16643718D01*
X29820842Y16648793D01*
X29808588Y16650000D01*
X29572115Y16650000D01*
X29556876Y16645525D01*
X29555671Y16644135D01*
X29554000Y16636452D01*
X29554000Y16222115D01*
X29046000Y16222115D01*
X29046000Y16631884D01*
X29041525Y16647123D01*
X29040135Y16648328D01*
X29032452Y16649999D01*
X28791414Y16649999D01*
X28779154Y16648791D01*
X28753648Y16643718D01*
X28731152Y16634401D01*
X28702172Y16615037D01*
X28684963Y16597828D01*
X28665596Y16568844D01*
X28656282Y16546358D01*
X28651207Y16520842D01*
X28650000Y16508588D01*
X28650000Y16222115D01*
X27988159Y16222115D01*
X27986596Y16233032D01*
X27986595Y16233035D01*
X27985323Y16241918D01*
X27979522Y16254678D01*
X27961349Y16294646D01*
X27925984Y16372428D01*
X27902226Y16400000D01*
X27838260Y16474237D01*
X27838257Y16474240D01*
X27832400Y16481037D01*
X27712095Y16559015D01*
X27574739Y16600093D01*
X27565763Y16600148D01*
X27565762Y16600148D01*
X27505555Y16600516D01*
X27431376Y16600969D01*
X27293529Y16561572D01*
X27172280Y16485070D01*
X27166338Y16478342D01*
X27166337Y16478341D01*
X27142488Y16451337D01*
X27077377Y16377612D01*
X27016447Y16247837D01*
X27008414Y16196240D01*
X26996778Y16121505D01*
X26994391Y16106177D01*
X26995555Y16097275D01*
X26995555Y16097271D01*
X27004560Y16028411D01*
X26993560Y15958272D01*
X26968719Y15922979D01*
X26669098Y15623358D01*
X26650005Y15607688D01*
X26649716Y15607495D01*
X26649714Y15607493D01*
X26639399Y15600601D01*
X26621784Y15574237D01*
X26613600Y15561989D01*
X26613599Y15561988D01*
X26590927Y15528058D01*
X26590926Y15528056D01*
X26584034Y15517741D01*
X26564592Y15420000D01*
X26567013Y15407829D01*
X26567013Y15407828D01*
X26567079Y15407496D01*
X26569500Y15382915D01*
X26569500Y15071754D01*
X26549498Y15003633D01*
X26521594Y14974854D01*
X26520490Y14974363D01*
X26490667Y14944488D01*
X26453567Y14907324D01*
X26453566Y14907322D01*
X26445350Y14899092D01*
X26425432Y14854037D01*
X26425237Y14853597D01*
X26379399Y14799381D01*
X26311526Y14778554D01*
X26243167Y14797728D01*
X26194846Y14853397D01*
X26179086Y14888877D01*
X26179085Y14888879D01*
X26174363Y14899510D01*
X26125424Y14948364D01*
X26107324Y14966433D01*
X26107322Y14966434D01*
X26099092Y14974650D01*
X26086570Y14980186D01*
X26010486Y15013823D01*
X26010483Y15013824D01*
X26001817Y15017655D01*
X25992406Y15018752D01*
X25992403Y15018753D01*
X25987138Y15019366D01*
X25977415Y15020500D01*
X25801513Y15020500D01*
X25622586Y15020499D01*
X25618889Y15020059D01*
X25618884Y15020059D01*
X25612743Y15019328D01*
X25597690Y15017538D01*
X25500490Y14974363D01*
X25470667Y14944488D01*
X25433567Y14907324D01*
X25433566Y14907322D01*
X25425350Y14899092D01*
X25420647Y14888454D01*
X25420646Y14888452D01*
X25386177Y14810486D01*
X25386176Y14810483D01*
X25382345Y14801817D01*
X25381248Y14792406D01*
X25381247Y14792403D01*
X25380978Y14790093D01*
X25379500Y14777415D01*
X25379501Y14322586D01*
X25382462Y14297690D01*
X25425637Y14200490D01*
X25433871Y14192270D01*
X25433872Y14192269D01*
X25488475Y14137761D01*
X25522555Y14075479D01*
X25517552Y14004659D01*
X25488631Y13959571D01*
X25416153Y13886966D01*
X25372395Y13787987D01*
X25369500Y13763158D01*
X25369500Y13525950D01*
X25349498Y13457829D01*
X25332595Y13436855D01*
X25040595Y13144855D01*
X24978283Y13110829D01*
X24907468Y13115894D01*
X24850632Y13158441D01*
X24825821Y13224961D01*
X24825500Y13233950D01*
X24825500Y13383480D01*
X24813142Y13445609D01*
X24789862Y13480450D01*
X24768648Y13548203D01*
X24789863Y13620454D01*
X24805777Y13644271D01*
X24815092Y13666759D01*
X24823793Y13710502D01*
X24825000Y13722758D01*
X24824999Y13877236D01*
X24823792Y13889499D01*
X24815092Y13933241D01*
X24805776Y13955733D01*
X24789562Y13979998D01*
X24768347Y14047751D01*
X24789562Y14120002D01*
X24805776Y14144268D01*
X24815092Y14166759D01*
X24823793Y14210502D01*
X24825000Y14222758D01*
X24824999Y14377236D01*
X24823792Y14389499D01*
X24815092Y14433241D01*
X24805776Y14455733D01*
X24772597Y14505388D01*
X24755388Y14522597D01*
X24705732Y14555776D01*
X24683241Y14565092D01*
X24639497Y14573793D01*
X24627242Y14575000D01*
X23701500Y14574999D01*
X23633379Y14595001D01*
X23586886Y14648657D01*
X23575500Y14700999D01*
X23575500Y15633694D01*
X23595502Y15701815D01*
X23612405Y15722789D01*
X24222211Y16332595D01*
X24284523Y16366621D01*
X24311306Y16369500D01*
X24513158Y16369500D01*
X24521745Y16370522D01*
X24529097Y16371396D01*
X24529100Y16371397D01*
X24538489Y16372514D01*
X24547128Y16376351D01*
X24547131Y16376352D01*
X24626763Y16411723D01*
X24626764Y16411724D01*
X24637391Y16416444D01*
X24684516Y16463652D01*
X24746795Y16497730D01*
X24817616Y16492727D01*
X24873647Y16451339D01*
X24907379Y16407379D01*
X25022375Y16319139D01*
X25156291Y16263670D01*
X25300000Y16244750D01*
X25443709Y16263670D01*
X25577625Y16319139D01*
X25692621Y16407379D01*
X25780861Y16522375D01*
X25836330Y16656291D01*
X25855250Y16800000D01*
X25836330Y16943709D01*
X25780861Y17077625D01*
X25692621Y17192621D01*
X25577625Y17280861D01*
X25443709Y17336330D01*
X25300000Y17355250D01*
X25156291Y17336330D01*
X25022375Y17280861D01*
X24907379Y17192621D01*
X24873662Y17148680D01*
X24816325Y17106814D01*
X24745454Y17102593D01*
X24684684Y17136212D01*
X24672194Y17148681D01*
X24636967Y17183847D01*
X24637546Y17184427D01*
X24599230Y17231344D01*
X24591182Y17301883D01*
X24622547Y17365576D01*
X24643959Y17384161D01*
X24645323Y17385098D01*
X24705209Y17445089D01*
X24718131Y17463962D01*
X24729390Y17489430D01*
X24731228Y17503413D01*
X24727092Y17506000D01*
X24172000Y17506000D01*
X24103879Y17526002D01*
X24057386Y17579658D01*
X24046000Y17632000D01*
X24046000Y18032115D01*
X24554000Y18032115D01*
X24558475Y18016876D01*
X24559865Y18015671D01*
X24567548Y18014000D01*
X24718608Y18014000D01*
X24732139Y18017973D01*
X24732828Y18022769D01*
X24717859Y18056471D01*
X24704903Y18075322D01*
X24644911Y18135209D01*
X24626038Y18148131D01*
X24570570Y18172653D01*
X24556587Y18174491D01*
X24554000Y18170355D01*
X24554000Y18032115D01*
X24046000Y18032115D01*
X24046000Y18159550D01*
X24066002Y18227671D01*
X24082905Y18248645D01*
X24591906Y18757646D01*
X24654218Y18791672D01*
X24725033Y18786607D01*
X24770019Y18757724D01*
X24818991Y18708837D01*
X24826360Y18701481D01*
X24892584Y18669110D01*
X24927591Y18651998D01*
X24936801Y18647496D01*
X24946476Y18646085D01*
X24946478Y18646084D01*
X25004222Y18637660D01*
X25004228Y18637660D01*
X25008749Y18637000D01*
X25298889Y18637000D01*
X25591250Y18637001D01*
X25617710Y18640896D01*
X25654138Y18646257D01*
X25654139Y18646257D01*
X25663825Y18647683D01*
X25672613Y18651998D01*
X25672614Y18651998D01*
X25764826Y18697273D01*
X25774171Y18701861D01*
X25781524Y18709227D01*
X25781527Y18709229D01*
X25853663Y18781491D01*
X25853664Y18781492D01*
X25861019Y18788860D01*
X25899043Y18866648D01*
X25910710Y18890516D01*
X25910710Y18890517D01*
X25915004Y18899301D01*
X25924835Y18966691D01*
X25924840Y18966722D01*
X25924840Y18966728D01*
X25925500Y18971249D01*
X25925499Y19478750D01*
X25914817Y19551325D01*
X25907229Y19566781D01*
X25867141Y19648428D01*
X25860639Y19661671D01*
X25853273Y19669024D01*
X25853271Y19669027D01*
X25781009Y19741163D01*
X25781008Y19741164D01*
X25773640Y19748519D01*
X25685887Y19791414D01*
X25671984Y19798210D01*
X25671983Y19798210D01*
X25663199Y19802504D01*
X25653524Y19803915D01*
X25653522Y19803916D01*
X25595778Y19812340D01*
X25595772Y19812340D01*
X25591251Y19813000D01*
X25301111Y19813000D01*
X25008750Y19812999D01*
X24982290Y19809104D01*
X24945862Y19803743D01*
X24945861Y19803743D01*
X24936175Y19802317D01*
X24927387Y19798002D01*
X24927386Y19798002D01*
X24903392Y19786221D01*
X24825829Y19748139D01*
X24818476Y19740773D01*
X24818473Y19740771D01*
X24746854Y19669027D01*
X24738981Y19661140D01*
X24684996Y19550699D01*
X24683585Y19541028D01*
X24682963Y19539015D01*
X24643738Y19479838D01*
X24615343Y19462574D01*
X24607259Y19460966D01*
X24583975Y19445408D01*
X24524399Y19405601D01*
X24517507Y19395286D01*
X24517505Y19395284D01*
X24517312Y19394995D01*
X24501642Y19375902D01*
X23403145Y18277405D01*
X23340833Y18243379D01*
X23314051Y18240500D01*
X23092159Y18240499D01*
X23072586Y18240499D01*
X23068889Y18240059D01*
X23068884Y18240059D01*
X23062743Y18239328D01*
X23047690Y18237538D01*
X22950490Y18194363D01*
X22942273Y18186132D01*
X22942272Y18186131D01*
X22928818Y18172653D01*
X22891132Y18134901D01*
X22889215Y18132981D01*
X22826933Y18098902D01*
X22756113Y18103905D01*
X22711024Y18132826D01*
X22657324Y18186433D01*
X22657322Y18186434D01*
X22649092Y18194650D01*
X22625550Y18205058D01*
X22571335Y18250897D01*
X22550500Y18320297D01*
X22550500Y18522190D01*
X22570502Y18590311D01*
X22624158Y18636804D01*
X22644914Y18642936D01*
X22644785Y18643350D01*
X22654138Y18646256D01*
X22663825Y18647682D01*
X22672613Y18651997D01*
X22672614Y18651997D01*
X22764826Y18697272D01*
X22774171Y18701860D01*
X22781524Y18709226D01*
X22781527Y18709228D01*
X22853663Y18781490D01*
X22853664Y18781491D01*
X22861019Y18788859D01*
X22915004Y18899300D01*
X22916416Y18908978D01*
X22924840Y18966721D01*
X22924840Y18966727D01*
X22925500Y18971248D01*
X22925499Y19478749D01*
X22916629Y19539015D01*
X22916243Y19541637D01*
X22916243Y19541638D01*
X22914817Y19551324D01*
X22910502Y19560114D01*
X22870449Y19641689D01*
X22860639Y19661670D01*
X22853273Y19669023D01*
X22853271Y19669026D01*
X22781009Y19741162D01*
X22781008Y19741163D01*
X22773640Y19748518D01*
X22685885Y19791414D01*
X22671984Y19798209D01*
X22671981Y19798210D01*
X22663199Y19802503D01*
X22653524Y19803914D01*
X22653522Y19803915D01*
X22595778Y19812339D01*
X22595772Y19812339D01*
X22591251Y19812999D01*
X22301111Y19812999D01*
X22008750Y19812998D01*
X21982290Y19809103D01*
X21945862Y19803742D01*
X21945861Y19803742D01*
X21936175Y19802316D01*
X21927389Y19798002D01*
X21927386Y19798001D01*
X21903394Y19786221D01*
X21825829Y19748138D01*
X21818476Y19740772D01*
X21818473Y19740770D01*
X21746855Y19669027D01*
X21738981Y19661139D01*
X21706610Y19594915D01*
X21689599Y19560114D01*
X21684996Y19550698D01*
X21683585Y19541023D01*
X21683584Y19541021D01*
X21675165Y19483307D01*
X21674500Y19478750D01*
X21674501Y18971249D01*
X21675172Y18966691D01*
X21683667Y18908977D01*
X21685183Y18898674D01*
X21739361Y18788328D01*
X21746727Y18780975D01*
X21746729Y18780972D01*
X21818990Y18708837D01*
X21826360Y18701480D01*
X21892584Y18669109D01*
X21927591Y18651997D01*
X21936801Y18647495D01*
X21946478Y18646083D01*
X21955817Y18643197D01*
X21955032Y18640656D01*
X22006207Y18617157D01*
X22044468Y18557353D01*
X22049500Y18522102D01*
X22049500Y18320245D01*
X22029498Y18252124D01*
X21974648Y18205094D01*
X21974565Y18205057D01*
X21950490Y18194363D01*
X21915738Y18159550D01*
X21883567Y18127324D01*
X21883566Y18127322D01*
X21875350Y18119092D01*
X21870646Y18108452D01*
X21836177Y18030486D01*
X21836176Y18030483D01*
X21832345Y18021817D01*
X21829500Y17997415D01*
X21829501Y17642586D01*
X21832462Y17617690D01*
X21875637Y17520490D01*
X21898937Y17497231D01*
X21942676Y17453567D01*
X21942678Y17453566D01*
X21950908Y17445350D01*
X21961546Y17440647D01*
X21996403Y17425237D01*
X22050619Y17379399D01*
X22071446Y17311526D01*
X22052272Y17243167D01*
X21996603Y17194846D01*
X21993186Y17193328D01*
X21950490Y17174363D01*
X21875350Y17099092D01*
X21870644Y17088447D01*
X21869673Y17087029D01*
X21814684Y17042121D01*
X21744145Y17034072D01*
X21697175Y17052481D01*
X21687095Y17059015D01*
X21549739Y17100093D01*
X21540763Y17100148D01*
X21540762Y17100148D01*
X21480555Y17100516D01*
X21406376Y17100969D01*
X21268529Y17061572D01*
X21147280Y16985070D01*
X21141337Y16978341D01*
X21134501Y16972523D01*
X21132725Y16974610D01*
X21084617Y16944328D01*
X21013623Y16944994D01*
X20967429Y16970600D01*
X20963258Y16974239D01*
X20957400Y16981037D01*
X20949869Y16985918D01*
X20949866Y16985921D01*
X20850232Y17050500D01*
X20837095Y17059015D01*
X20699739Y17100093D01*
X20690763Y17100148D01*
X20690762Y17100148D01*
X20630555Y17100516D01*
X20556376Y17100969D01*
X20418529Y17061572D01*
X20410941Y17056784D01*
X20410938Y17056783D01*
X20393736Y17045929D01*
X20325451Y17026494D01*
X20257499Y17047063D01*
X20211455Y17101104D01*
X20200500Y17152490D01*
X20200500Y19152915D01*
X20202921Y19177496D01*
X20202987Y19177828D01*
X20202987Y19177829D01*
X20205408Y19190000D01*
X20185966Y19287741D01*
X20162579Y19322741D01*
X20162577Y19322744D01*
X20137497Y19360281D01*
X20137495Y19360283D01*
X20130601Y19370601D01*
X20120283Y19377495D01*
X20120281Y19377497D01*
X20119995Y19377688D01*
X20100902Y19393358D01*
X20060606Y19433654D01*
X20026580Y19495966D01*
X20031645Y19566781D01*
X20074192Y19623617D01*
X20140712Y19648428D01*
X20151679Y19648733D01*
X20170897Y19648431D01*
X20170900Y19648431D01*
X20178495Y19648312D01*
X20331968Y19683462D01*
X20472625Y19754205D01*
X20529176Y19802504D01*
X20586574Y19851526D01*
X20586576Y19851529D01*
X20592348Y19856458D01*
X20684224Y19984317D01*
X20742950Y20130402D01*
X20754657Y20212660D01*
X20764553Y20282193D01*
X20764553Y20282196D01*
X20765134Y20286277D01*
X20765278Y20300000D01*
X20746363Y20456306D01*
X20712377Y20546249D01*
X20693394Y20596486D01*
X20693393Y20596489D01*
X20690710Y20603588D01*
X20601531Y20733343D01*
X20503325Y20820842D01*
X20489648Y20833028D01*
X20489645Y20833030D01*
X20483976Y20838081D01*
X20344831Y20911755D01*
X20328122Y20915952D01*
X20199498Y20948260D01*
X20199496Y20948260D01*
X20192128Y20950111D01*
X20184530Y20950151D01*
X20184528Y20950151D01*
X20117319Y20950503D01*
X20034684Y20950935D01*
X20027305Y20949163D01*
X20027301Y20949163D01*
X19888967Y20915952D01*
X19888963Y20915951D01*
X19881588Y20914180D01*
X19798037Y20871056D01*
X19750185Y20846358D01*
X19741679Y20841968D01*
X19735957Y20836976D01*
X19735955Y20836975D01*
X19628759Y20743462D01*
X19628756Y20743459D01*
X19623034Y20738467D01*
X19618669Y20732257D01*
X19618666Y20732253D01*
X19578117Y20674557D01*
X19522582Y20630326D01*
X19451950Y20623140D01*
X19388646Y20655281D01*
X19371191Y20675640D01*
X19335838Y20727078D01*
X19335833Y20727084D01*
X19331531Y20733343D01*
X19233325Y20820842D01*
X19219648Y20833028D01*
X19219645Y20833030D01*
X19213976Y20838081D01*
X19074831Y20911755D01*
X19058122Y20915952D01*
X18929498Y20948260D01*
X18929496Y20948260D01*
X18922128Y20950111D01*
X18914530Y20950151D01*
X18914528Y20950151D01*
X18847319Y20950503D01*
X18764684Y20950935D01*
X18757305Y20949163D01*
X18757301Y20949163D01*
X18618967Y20915952D01*
X18618963Y20915951D01*
X18611588Y20914180D01*
X18528037Y20871056D01*
X18480185Y20846358D01*
X18471679Y20841968D01*
X18465957Y20836976D01*
X18465955Y20836975D01*
X18358759Y20743462D01*
X18358756Y20743459D01*
X18353034Y20738467D01*
X18348669Y20732257D01*
X18348666Y20732253D01*
X18308117Y20674557D01*
X18252582Y20630326D01*
X18181950Y20623140D01*
X18118646Y20655281D01*
X18101191Y20675640D01*
X18065838Y20727078D01*
X18065833Y20727084D01*
X18061531Y20733343D01*
X17963325Y20820842D01*
X17949648Y20833028D01*
X17949645Y20833030D01*
X17943976Y20838081D01*
X17804831Y20911755D01*
X17788122Y20915952D01*
X17659498Y20948260D01*
X17659496Y20948260D01*
X17652128Y20950111D01*
X17644530Y20950151D01*
X17644528Y20950151D01*
X17577319Y20950503D01*
X17494684Y20950935D01*
X17487305Y20949163D01*
X17487301Y20949163D01*
X17348967Y20915952D01*
X17348963Y20915951D01*
X17341588Y20914180D01*
X17258037Y20871056D01*
X17210185Y20846358D01*
X17201679Y20841968D01*
X17195957Y20836976D01*
X17195955Y20836975D01*
X17145658Y20793098D01*
X17081176Y20763390D01*
X17010869Y20773260D01*
X16957058Y20819574D01*
X16946419Y20839832D01*
X16934402Y20868847D01*
X16915037Y20897828D01*
X16897828Y20915037D01*
X16868844Y20934404D01*
X16846358Y20943718D01*
X16820842Y20948793D01*
X16808588Y20950000D01*
X16572115Y20950000D01*
X16556876Y20945525D01*
X16555671Y20944135D01*
X16554000Y20936452D01*
X16554000Y19668116D01*
X16558475Y19652877D01*
X16559865Y19651672D01*
X16567548Y19650001D01*
X16808586Y19650001D01*
X16820846Y19651209D01*
X16846352Y19656282D01*
X16868848Y19665599D01*
X16897828Y19684963D01*
X16915037Y19702172D01*
X16934403Y19731155D01*
X16946316Y19759915D01*
X16990865Y19815195D01*
X17058229Y19837615D01*
X17127020Y19820056D01*
X17147524Y19804888D01*
X17184789Y19770979D01*
X17184793Y19770976D01*
X17190410Y19765865D01*
X17202796Y19759140D01*
X17322099Y19694363D01*
X17322101Y19694362D01*
X17328776Y19690738D01*
X17336125Y19688810D01*
X17473719Y19652713D01*
X17473721Y19652713D01*
X17481069Y19650785D01*
X17564380Y19649476D01*
X17630898Y19648431D01*
X17630901Y19648431D01*
X17638495Y19648312D01*
X17791968Y19683462D01*
X17932625Y19754205D01*
X17989176Y19802504D01*
X18046574Y19851526D01*
X18046576Y19851529D01*
X18052348Y19856458D01*
X18102587Y19926373D01*
X18158581Y19970020D01*
X18229284Y19976466D01*
X18292249Y19943663D01*
X18309485Y19923130D01*
X18343958Y19871828D01*
X18366270Y19851526D01*
X18445806Y19779154D01*
X18460410Y19765865D01*
X18472796Y19759140D01*
X18592099Y19694363D01*
X18592101Y19694362D01*
X18598776Y19690738D01*
X18606125Y19688810D01*
X18743719Y19652713D01*
X18743721Y19652713D01*
X18751069Y19650785D01*
X18834380Y19649476D01*
X18900898Y19648431D01*
X18900901Y19648431D01*
X18908495Y19648312D01*
X19026828Y19675414D01*
X19097693Y19671125D01*
X19144051Y19641689D01*
X19662595Y19123145D01*
X19696621Y19060833D01*
X19699500Y19034050D01*
X19699500Y16387085D01*
X19697079Y16362504D01*
X19694592Y16350000D01*
X19714034Y16252259D01*
X19720928Y16241941D01*
X19720930Y16241937D01*
X19733549Y16223052D01*
X19762504Y16179717D01*
X19762507Y16179714D01*
X19769399Y16169399D01*
X19779714Y16162507D01*
X19779716Y16162505D01*
X19780002Y16162314D01*
X19799095Y16146644D01*
X19905644Y16040095D01*
X19939670Y15977783D01*
X19934605Y15906968D01*
X19892058Y15850132D01*
X19825538Y15825321D01*
X19816550Y15825000D01*
X19722764Y15824999D01*
X19704341Y15823185D01*
X19704114Y15825494D01*
X19643706Y15830901D01*
X19587640Y15874457D01*
X19566263Y15923571D01*
X19561936Y15945325D01*
X19561936Y15945326D01*
X19559515Y15957495D01*
X19552623Y15967810D01*
X19552622Y15967812D01*
X19529604Y16002260D01*
X19513994Y16025622D01*
X19513993Y16025623D01*
X19505515Y16038311D01*
X19498624Y16048624D01*
X19485936Y16057102D01*
X19466844Y16072772D01*
X19218302Y16321314D01*
X19184276Y16383626D01*
X19189341Y16454441D01*
X19203434Y16481596D01*
X19205629Y16484802D01*
X19213847Y16493034D01*
X19220723Y16508586D01*
X19253774Y16583348D01*
X19257605Y16592013D01*
X19260500Y16616842D01*
X19260500Y16983158D01*
X19257486Y17008489D01*
X19253649Y17017128D01*
X19253648Y17017131D01*
X19218277Y17096763D01*
X19218276Y17096764D01*
X19213556Y17107391D01*
X19154411Y17166433D01*
X19145202Y17175626D01*
X19145199Y17175628D01*
X19136966Y17183847D01*
X19137545Y17184427D01*
X19099230Y17231344D01*
X19091182Y17301883D01*
X19122547Y17365576D01*
X19143959Y17384161D01*
X19145323Y17385098D01*
X19205209Y17445089D01*
X19218131Y17463962D01*
X19229390Y17489430D01*
X19231228Y17503413D01*
X19227092Y17506000D01*
X18381392Y17506000D01*
X18367861Y17502027D01*
X18367172Y17497231D01*
X18382141Y17463529D01*
X18395097Y17444678D01*
X18457421Y17382464D01*
X18491501Y17320181D01*
X18486498Y17249361D01*
X18444002Y17192488D01*
X18377503Y17167619D01*
X18308116Y17182649D01*
X18291700Y17193328D01*
X18242156Y17231344D01*
X18177625Y17280861D01*
X18043709Y17336330D01*
X17900000Y17355250D01*
X17756291Y17336330D01*
X17622375Y17280861D01*
X17507379Y17192621D01*
X17436151Y17099795D01*
X17378813Y17057928D01*
X17336189Y17050500D01*
X16737085Y17050500D01*
X16712504Y17052921D01*
X16712172Y17052987D01*
X16712171Y17052987D01*
X16705715Y17054271D01*
X16700001Y17055408D01*
X16700177Y17056293D01*
X16643316Y17072989D01*
X16596823Y17126645D01*
X16586719Y17196919D01*
X16616213Y17261499D01*
X16622342Y17268082D01*
X16638402Y17284142D01*
X16657495Y17299812D01*
X16657784Y17300005D01*
X16657786Y17300007D01*
X16668101Y17306899D01*
X16674994Y17317215D01*
X16716573Y17379443D01*
X16716573Y17379444D01*
X16716945Y17380000D01*
X16723466Y17389759D01*
X16726097Y17402982D01*
X16735067Y17448081D01*
X16767974Y17510991D01*
X16829669Y17546123D01*
X16858646Y17549500D01*
X17119646Y17549500D01*
X17123350Y17549941D01*
X17123353Y17549941D01*
X17130746Y17550821D01*
X17145846Y17552618D01*
X17179700Y17567655D01*
X17237518Y17593337D01*
X17248153Y17598061D01*
X17277126Y17627084D01*
X17319023Y17669055D01*
X17327241Y17677287D01*
X17336544Y17698328D01*
X17365182Y17763106D01*
X17372506Y17779673D01*
X17375500Y17805354D01*
X17375500Y18016587D01*
X18368772Y18016587D01*
X18372908Y18014000D01*
X18527885Y18014000D01*
X18543124Y18018475D01*
X18544329Y18019865D01*
X18546000Y18027548D01*
X18546000Y18032115D01*
X19054000Y18032115D01*
X19058475Y18016876D01*
X19059865Y18015671D01*
X19067548Y18014000D01*
X19218608Y18014000D01*
X19232139Y18017973D01*
X19232828Y18022769D01*
X19217859Y18056471D01*
X19204903Y18075322D01*
X19144911Y18135209D01*
X19126038Y18148131D01*
X19070570Y18172653D01*
X19056587Y18174491D01*
X19054000Y18170355D01*
X19054000Y18032115D01*
X18546000Y18032115D01*
X18546000Y18161934D01*
X18542027Y18175465D01*
X18537232Y18176154D01*
X18473532Y18147860D01*
X18454677Y18134901D01*
X18394791Y18074911D01*
X18381869Y18056038D01*
X18370610Y18030570D01*
X18368772Y18016587D01*
X17375500Y18016587D01*
X17375500Y18194646D01*
X17372382Y18220846D01*
X17366674Y18233698D01*
X17331663Y18312518D01*
X17326939Y18323153D01*
X17247713Y18402241D01*
X17237076Y18406944D01*
X17237074Y18406945D01*
X17177538Y18433265D01*
X17145327Y18447506D01*
X17119646Y18450500D01*
X15855354Y18450500D01*
X15851650Y18450059D01*
X15851647Y18450059D01*
X15844254Y18449179D01*
X15829154Y18447382D01*
X15726847Y18401939D01*
X15718628Y18393706D01*
X15718627Y18393705D01*
X15693060Y18368093D01*
X15647759Y18322713D01*
X15643056Y18312076D01*
X15643055Y18312074D01*
X15627728Y18277405D01*
X15602494Y18220327D01*
X15599500Y18194646D01*
X15599500Y17805354D01*
X15602618Y17779154D01*
X15606456Y17770514D01*
X15606456Y17770513D01*
X15640382Y17694135D01*
X15648061Y17676847D01*
X15727287Y17597759D01*
X15737924Y17593056D01*
X15737926Y17593055D01*
X15792896Y17568753D01*
X15829673Y17552494D01*
X15855354Y17549500D01*
X15891050Y17549500D01*
X15959171Y17529498D01*
X16005664Y17475842D01*
X16015768Y17405568D01*
X15986274Y17340988D01*
X15980145Y17334405D01*
X15715595Y17069855D01*
X15653283Y17035829D01*
X15582468Y17040894D01*
X15525632Y17083441D01*
X15500821Y17149961D01*
X15500500Y17158950D01*
X15500500Y17244646D01*
X15497382Y17270846D01*
X15480051Y17309865D01*
X15456663Y17362518D01*
X15451939Y17373153D01*
X15437174Y17387893D01*
X15391000Y17433986D01*
X15372713Y17452241D01*
X15362076Y17456944D01*
X15362074Y17456945D01*
X15288594Y17489430D01*
X15270327Y17497506D01*
X15244646Y17500500D01*
X13980354Y17500500D01*
X13976650Y17500059D01*
X13976647Y17500059D01*
X13969254Y17499179D01*
X13954154Y17497382D01*
X13945514Y17493544D01*
X13945513Y17493544D01*
X13877940Y17463529D01*
X13851847Y17451939D01*
X13843628Y17443706D01*
X13843627Y17443705D01*
X13825109Y17425154D01*
X13772759Y17372713D01*
X13768056Y17362076D01*
X13768055Y17362074D01*
X13743652Y17306876D01*
X13727494Y17270327D01*
X13724500Y17244646D01*
X13724500Y16855354D01*
X13727618Y16829154D01*
X13731456Y16820514D01*
X13731456Y16820513D01*
X13766030Y16742676D01*
X13773061Y16726847D01*
X13781294Y16718628D01*
X13781295Y16718627D01*
X13803104Y16696856D01*
X13852287Y16647759D01*
X13862924Y16643056D01*
X13862926Y16643055D01*
X13904309Y16624760D01*
X13954673Y16602494D01*
X13980354Y16599500D01*
X14236000Y16599500D01*
X14304121Y16579498D01*
X14350614Y16525842D01*
X14362000Y16473500D01*
X14362000Y16268452D01*
X14341998Y16200331D01*
X14325096Y16179357D01*
X14149096Y16003356D01*
X14130002Y15987686D01*
X14129716Y15987495D01*
X14129714Y15987493D01*
X14119399Y15980601D01*
X14093780Y15942259D01*
X14064034Y15897741D01*
X14061613Y15885572D01*
X14061613Y15885571D01*
X14058716Y15871008D01*
X14044592Y15800000D01*
X14047013Y15787829D01*
X14047013Y15787828D01*
X14047079Y15787496D01*
X14049500Y15762915D01*
X14049500Y14577085D01*
X14047079Y14552504D01*
X14044592Y14540000D01*
X14047013Y14527829D01*
X14060171Y14461682D01*
X14064034Y14442259D01*
X14070929Y14431941D01*
X14070929Y14431940D01*
X14072560Y14429500D01*
X14083943Y14412464D01*
X14119399Y14359399D01*
X14129714Y14352507D01*
X14129716Y14352505D01*
X14130005Y14352312D01*
X14149098Y14336642D01*
X14582595Y13903145D01*
X14616621Y13840833D01*
X14619500Y13814051D01*
X14619501Y13694587D01*
X14619501Y13572586D01*
X14622462Y13547690D01*
X14665637Y13450490D01*
X14673868Y13442273D01*
X14673869Y13442272D01*
X14727019Y13389215D01*
X14761098Y13326933D01*
X14756095Y13256113D01*
X14727174Y13211024D01*
X14715706Y13199536D01*
X14653423Y13165457D01*
X14582603Y13170460D01*
X14572031Y13175773D01*
X14571843Y13175367D01*
X14563690Y13179134D01*
X14556160Y13184015D01*
X14547563Y13186586D01*
X14547561Y13186587D01*
X14436663Y13219752D01*
X14418804Y13225093D01*
X14409828Y13225148D01*
X14409827Y13225148D01*
X14349620Y13225516D01*
X14275441Y13225969D01*
X14137594Y13186572D01*
X14016345Y13110070D01*
X14010403Y13103342D01*
X14010402Y13103341D01*
X13963735Y13050500D01*
X13921442Y13002612D01*
X13918751Y13004988D01*
X13877682Y12970121D01*
X13807309Y12960728D01*
X13743030Y12990872D01*
X13705251Y13050983D01*
X13700500Y13085258D01*
X13700500Y13994646D01*
X13697382Y14020846D01*
X13687487Y14043124D01*
X13656663Y14112518D01*
X13651939Y14123153D01*
X13643706Y14131372D01*
X13643703Y14131376D01*
X13612483Y14162541D01*
X13578403Y14224823D01*
X13575500Y14251714D01*
X13575500Y14650290D01*
X13575980Y14661272D01*
X13578303Y14687820D01*
X13578303Y14687822D01*
X13579264Y14698807D01*
X13569508Y14735215D01*
X13567130Y14745942D01*
X13564071Y14763290D01*
X13562414Y14772690D01*
X13560500Y14794567D01*
X13560500Y15003158D01*
X13558666Y15018575D01*
X13558604Y15019097D01*
X13558603Y15019100D01*
X13557486Y15028489D01*
X13553649Y15037128D01*
X13553648Y15037131D01*
X13518277Y15116763D01*
X13518276Y15116764D01*
X13513556Y15127391D01*
X13475129Y15165750D01*
X13445202Y15195626D01*
X13445200Y15195627D01*
X13436966Y15203847D01*
X13437545Y15204427D01*
X13399230Y15251344D01*
X13391182Y15321883D01*
X13422547Y15385576D01*
X13443959Y15404161D01*
X13445323Y15405098D01*
X13505209Y15465089D01*
X13518131Y15483962D01*
X13529390Y15509430D01*
X13531228Y15523413D01*
X13527092Y15526000D01*
X12681392Y15526000D01*
X12667861Y15522027D01*
X12667172Y15517231D01*
X12682141Y15483529D01*
X12695097Y15464678D01*
X12755089Y15404792D01*
X12755861Y15404263D01*
X12756931Y15402953D01*
X12763322Y15396573D01*
X12762672Y15395922D01*
X12800768Y15349274D01*
X12808817Y15278735D01*
X12777452Y15215042D01*
X12765908Y15205021D01*
X12762609Y15203556D01*
X12686153Y15126966D01*
X12642395Y15027987D01*
X12639500Y15003158D01*
X12639500Y14636842D01*
X12639942Y14633130D01*
X12642514Y14611511D01*
X12638690Y14611056D01*
X12637699Y14558496D01*
X12598195Y14499505D01*
X12533069Y14471235D01*
X12469272Y14479862D01*
X12464392Y14481884D01*
X12464389Y14481885D01*
X12456762Y14485044D01*
X12405141Y14491840D01*
X12340214Y14520563D01*
X12301123Y14579828D01*
X12300278Y14650819D01*
X12309321Y14673965D01*
X12341479Y14737079D01*
X12360646Y14774696D01*
X12362429Y14785950D01*
X12367101Y14815454D01*
X12375500Y14868481D01*
X12375499Y15431518D01*
X12370315Y15464254D01*
X12362198Y15515506D01*
X12362197Y15515508D01*
X12360646Y15525304D01*
X12351312Y15543624D01*
X12335713Y15574237D01*
X12303050Y15638342D01*
X12213342Y15728050D01*
X12100304Y15785646D01*
X12090515Y15787196D01*
X12090513Y15787197D01*
X12063151Y15791530D01*
X12006519Y15800500D01*
X11500103Y15800500D01*
X10993482Y15800499D01*
X10988589Y15799724D01*
X10988588Y15799724D01*
X10909494Y15787198D01*
X10909492Y15787197D01*
X10899696Y15785646D01*
X10890859Y15781143D01*
X10890858Y15781143D01*
X10882427Y15776847D01*
X10786658Y15728050D01*
X10696950Y15638342D01*
X10639354Y15525304D01*
X10624500Y15431519D01*
X10624501Y14868482D01*
X10625276Y14863591D01*
X10625276Y14863588D01*
X10637572Y14785950D01*
X10639354Y14774696D01*
X10643855Y14765863D01*
X10643857Y14765858D01*
X10646202Y14761256D01*
X10696950Y14661658D01*
X10786658Y14571950D01*
X10795489Y14567450D01*
X10795495Y14567446D01*
X10880703Y14524030D01*
X10932318Y14475282D01*
X10949500Y14411764D01*
X10949500Y14153261D01*
X10938740Y14102313D01*
X10906530Y14029455D01*
X10902494Y14020327D01*
X10899500Y13994646D01*
X10899500Y12880354D01*
X10902618Y12854154D01*
X10906456Y12845514D01*
X10906456Y12845513D01*
X10943140Y12762926D01*
X10948061Y12751847D01*
X10956294Y12743628D01*
X10956295Y12743627D01*
X10979822Y12720141D01*
X11027287Y12672759D01*
X11037924Y12668056D01*
X11037926Y12668055D01*
X11087210Y12646267D01*
X11129673Y12627494D01*
X11155354Y12624500D01*
X11544646Y12624500D01*
X11548350Y12624941D01*
X11548353Y12624941D01*
X11555746Y12625821D01*
X11570846Y12627618D01*
X11607890Y12644072D01*
X11662518Y12668337D01*
X11673153Y12673061D01*
X11683884Y12683810D01*
X11721157Y12721149D01*
X11752241Y12752287D01*
X11757271Y12763663D01*
X11793675Y12846008D01*
X11797506Y12854673D01*
X11800500Y12880354D01*
X11800500Y12915049D01*
X11820502Y12983170D01*
X11874158Y13029663D01*
X11898501Y13037000D01*
X11900933Y13037000D01*
X11910363Y13040064D01*
X11921853Y13043797D01*
X11941078Y13048413D01*
X11953012Y13050303D01*
X11953013Y13050303D01*
X11962804Y13051854D01*
X11971637Y13056355D01*
X11971641Y13056356D01*
X11982406Y13061841D01*
X12000666Y13069405D01*
X12021590Y13076204D01*
X12039393Y13089139D01*
X12056245Y13099465D01*
X12063962Y13103397D01*
X12075842Y13109450D01*
X12098405Y13132013D01*
X12098409Y13132016D01*
X12224884Y13258491D01*
X12287196Y13292517D01*
X12300055Y13293899D01*
X12300000Y13294318D01*
X12343866Y13300093D01*
X12448574Y13313878D01*
X12456762Y13314956D01*
X12602841Y13375464D01*
X12609392Y13380491D01*
X12610501Y13381131D01*
X12679497Y13397868D01*
X12746588Y13374647D01*
X12790475Y13318839D01*
X12799500Y13272011D01*
X12799500Y12880354D01*
X12802618Y12854154D01*
X12806456Y12845514D01*
X12806456Y12845513D01*
X12843140Y12762926D01*
X12848061Y12751847D01*
X12856294Y12743628D01*
X12856295Y12743627D01*
X12879822Y12720141D01*
X12927287Y12672759D01*
X12937924Y12668056D01*
X12937926Y12668055D01*
X12987210Y12646267D01*
X13029673Y12627494D01*
X13055354Y12624500D01*
X13444646Y12624500D01*
X13448350Y12624941D01*
X13448353Y12624941D01*
X13455746Y12625821D01*
X13470846Y12627618D01*
X13507890Y12644072D01*
X13562518Y12668337D01*
X13573153Y12673061D01*
X13633540Y12733554D01*
X13695822Y12767633D01*
X13766642Y12762630D01*
X13823515Y12720133D01*
X13847649Y12660874D01*
X13857045Y12589021D01*
X13914785Y12457797D01*
X13943991Y12423052D01*
X13979608Y12380680D01*
X14008129Y12315664D01*
X13996973Y12245550D01*
X13977598Y12216198D01*
X13927388Y12159345D01*
X13921442Y12152612D01*
X13860512Y12022837D01*
X13853842Y11979998D01*
X13847042Y11936324D01*
X13816798Y11872092D01*
X13756628Y11834407D01*
X13685636Y11835235D01*
X13633524Y11866536D01*
X13610472Y11889548D01*
X13572713Y11927241D01*
X13562076Y11931944D01*
X13562074Y11931945D01*
X13502538Y11958265D01*
X13470327Y11972506D01*
X13444646Y11975500D01*
X13055354Y11975500D01*
X13051650Y11975059D01*
X13051647Y11975059D01*
X13044254Y11974179D01*
X13029154Y11972382D01*
X13020514Y11968544D01*
X13020513Y11968544D01*
X12947291Y11936020D01*
X12926847Y11926939D01*
X12918628Y11918706D01*
X12918627Y11918705D01*
X12863861Y11863843D01*
X12801579Y11829764D01*
X12730759Y11834767D01*
X12685670Y11863688D01*
X12630658Y11918604D01*
X12611787Y11931526D01*
X12570570Y11949747D01*
X12556587Y11951585D01*
X12554000Y11947449D01*
X12554000Y10386005D01*
X12557973Y10372474D01*
X12562768Y10371785D01*
X12612234Y10393757D01*
X12631083Y10406712D01*
X12685433Y10461156D01*
X12747716Y10495235D01*
X12818536Y10490232D01*
X12863624Y10461311D01*
X12920559Y10404476D01*
X12920560Y10404474D01*
X12927287Y10397759D01*
X12926603Y10397074D01*
X12964592Y10350558D01*
X12974500Y10301581D01*
X12974500Y10189543D01*
X12972079Y10164961D01*
X12969103Y10150000D01*
X12974500Y10122868D01*
X12974500Y10122867D01*
X12990485Y10042505D01*
X13007090Y10017655D01*
X13007168Y10017538D01*
X13034414Y9976762D01*
X13035825Y9974650D01*
X13051376Y9951376D01*
X13061692Y9944483D01*
X13061693Y9944482D01*
X13064064Y9942898D01*
X13083156Y9927228D01*
X13737595Y9272789D01*
X13771621Y9210477D01*
X13774500Y9183694D01*
X13774500Y8808935D01*
X13754498Y8740814D01*
X13719865Y8705094D01*
X13711122Y8699086D01*
X13700490Y8694363D01*
X13692273Y8686132D01*
X13692272Y8686131D01*
X13633567Y8627324D01*
X13633566Y8627322D01*
X13625350Y8619092D01*
X13620646Y8608452D01*
X13586177Y8530486D01*
X13586176Y8530483D01*
X13582345Y8521817D01*
X13579500Y8497415D01*
X13579500Y8341082D01*
X13559498Y8272961D01*
X13505842Y8226468D01*
X13435568Y8216364D01*
X13370988Y8245858D01*
X13364405Y8251987D01*
X13355487Y8260905D01*
X13355484Y8260909D01*
X12412405Y9203988D01*
X12378379Y9266300D01*
X12375500Y9293083D01*
X12375499Y9726564D01*
X12375499Y9731518D01*
X12374724Y9736412D01*
X12362198Y9815506D01*
X12362197Y9815508D01*
X12360646Y9825304D01*
X12354835Y9836710D01*
X12328615Y9888168D01*
X12303050Y9938342D01*
X12213342Y10028050D01*
X12100304Y10085646D01*
X12090515Y10087196D01*
X12090513Y10087197D01*
X12063151Y10091530D01*
X12006519Y10100500D01*
X11876500Y10100500D01*
X11808379Y10120502D01*
X11761886Y10174158D01*
X11750500Y10226500D01*
X11750500Y10321040D01*
X11770502Y10389161D01*
X11824158Y10435654D01*
X11894432Y10445758D01*
X11959012Y10416264D01*
X11965518Y10410213D01*
X11969342Y10406396D01*
X11988213Y10393474D01*
X12029430Y10375253D01*
X12043413Y10373415D01*
X12046000Y10377551D01*
X12046000Y11938995D01*
X12042027Y11952526D01*
X12037232Y11953215D01*
X11987766Y11931243D01*
X11968917Y11918288D01*
X11914567Y11863844D01*
X11852284Y11829765D01*
X11781464Y11834768D01*
X11736376Y11863689D01*
X11710472Y11889548D01*
X11672713Y11927241D01*
X11662076Y11931944D01*
X11662074Y11931945D01*
X11602538Y11958265D01*
X11570327Y11972506D01*
X11544646Y11975500D01*
X11155354Y11975500D01*
X11151650Y11975059D01*
X11151647Y11975059D01*
X11144254Y11974179D01*
X11129154Y11972382D01*
X11120514Y11968544D01*
X11120513Y11968544D01*
X11047291Y11936020D01*
X11026847Y11926939D01*
X11018628Y11918706D01*
X11018627Y11918705D01*
X11011217Y11911282D01*
X10947759Y11847713D01*
X10943056Y11837076D01*
X10943055Y11837074D01*
X10924218Y11794465D01*
X10902494Y11745327D01*
X10899500Y11719646D01*
X10899500Y10605354D01*
X10902618Y10579154D01*
X10906456Y10570514D01*
X10906456Y10570513D01*
X10938651Y10498032D01*
X10949500Y10446884D01*
X10949500Y10188236D01*
X10929498Y10120115D01*
X10880703Y10075970D01*
X10795495Y10032554D01*
X10795489Y10032550D01*
X10786658Y10028050D01*
X10696950Y9938342D01*
X10639354Y9825304D01*
X10637804Y9815515D01*
X10637803Y9815513D01*
X10634176Y9792614D01*
X10624500Y9731519D01*
X9973162Y9731519D01*
X9977982Y9751218D01*
X9979664Y9762270D01*
X9979880Y9765753D01*
X9980000Y9769635D01*
X9980000Y10027885D01*
X9975525Y10043124D01*
X9974135Y10044329D01*
X9966452Y10046000D01*
X9502115Y10046000D01*
X9486876Y10041525D01*
X9485671Y10040135D01*
X9484000Y10032452D01*
X9484000Y9161093D01*
X8976000Y9161093D01*
X8976000Y10572115D01*
X9484000Y10572115D01*
X9488475Y10556876D01*
X9489865Y10555671D01*
X9497548Y10554000D01*
X9961885Y10554000D01*
X9977124Y10558475D01*
X9978329Y10559865D01*
X9980000Y10567548D01*
X9980000Y10790132D01*
X9979575Y10797436D01*
X9965701Y10916440D01*
X9962356Y10930592D01*
X9907678Y11081227D01*
X9901168Y11094226D01*
X9813303Y11228242D01*
X9803979Y11239394D01*
X9687642Y11349601D01*
X9675995Y11358314D01*
X9537425Y11438803D01*
X9524095Y11444599D01*
X9501336Y11451492D01*
X9487237Y11451611D01*
X9484000Y11444680D01*
X9484000Y10572115D01*
X8976000Y10572115D01*
X8976000Y11438907D01*
X8972027Y11452438D01*
X8966944Y11453169D01*
X8862607Y11408773D01*
X8849983Y11401572D01*
X8720918Y11306591D01*
X8710276Y11296667D01*
X8606525Y11174544D01*
X8598458Y11162448D01*
X8525582Y11019728D01*
X8520513Y11006100D01*
X8482018Y10848782D01*
X8480336Y10837730D01*
X8480120Y10834247D01*
X8480000Y10830365D01*
X8480000Y10483235D01*
X8459998Y10415114D01*
X8406342Y10368621D01*
X8336068Y10358517D01*
X8275323Y10386606D01*
X8275201Y10386421D01*
X8273958Y10387238D01*
X8270592Y10388794D01*
X8267699Y10391349D01*
X8260971Y10397291D01*
X8252848Y10401105D01*
X8252846Y10401106D01*
X8174928Y10437688D01*
X8138975Y10454568D01*
X8130110Y10455948D01*
X8130108Y10455949D01*
X8067046Y10465768D01*
X8036654Y10470500D01*
X7966218Y10470500D01*
X7927257Y10464920D01*
X7875474Y10457505D01*
X7875471Y10457504D01*
X7866588Y10456232D01*
X7858420Y10452518D01*
X7858419Y10452518D01*
X7827540Y10438478D01*
X7743902Y10400450D01*
X7735806Y10393474D01*
X7697481Y10360451D01*
X7632818Y10331137D01*
X7562573Y10341436D01*
X7510468Y10385903D01*
X7487497Y10420282D01*
X7487493Y10420286D01*
X7480601Y10430601D01*
X7470286Y10437493D01*
X7470284Y10437495D01*
X7469995Y10437688D01*
X7450902Y10453358D01*
X7107065Y10797195D01*
X7073039Y10859507D01*
X7070162Y10887059D01*
X7070885Y11005535D01*
X7070940Y11014511D01*
X7068036Y11024674D01*
X7036372Y11135464D01*
X7036371Y11135466D01*
X7033905Y11144095D01*
X6961988Y11258076D01*
X6951275Y11267538D01*
X6908217Y11305565D01*
X6870399Y11365651D01*
X6871069Y11436644D01*
X6909377Y11495459D01*
X6911280Y11497098D01*
X6946833Y11527733D01*
X7011496Y11557047D01*
X7024353Y11558191D01*
X7056853Y11559411D01*
X7061579Y11559500D01*
X7079817Y11559500D01*
X7084440Y11560361D01*
X7087576Y11560564D01*
X7117770Y11561698D01*
X7128458Y11566290D01*
X7134164Y11567576D01*
X7142284Y11570043D01*
X7147750Y11572152D01*
X7159189Y11574282D01*
X7169090Y11580385D01*
X7169092Y11580386D01*
X7179214Y11586626D01*
X7195595Y11595135D01*
X7209033Y11600908D01*
X7209035Y11600909D01*
X7217202Y11604418D01*
X7221922Y11608295D01*
X7224113Y11610486D01*
X7226377Y11612539D01*
X7226569Y11612327D01*
X7233621Y11617902D01*
X7241410Y11624965D01*
X7251313Y11631069D01*
X7258353Y11640327D01*
X7258355Y11640329D01*
X7267151Y11651897D01*
X7278352Y11664725D01*
X7348772Y11735145D01*
X7411084Y11769171D01*
X7481899Y11764106D01*
X7538735Y11721559D01*
X7559015Y11680676D01*
X7566095Y11655905D01*
X7595520Y11609270D01*
X7626312Y11560468D01*
X7638012Y11541924D01*
X7644741Y11535981D01*
X7644742Y11535980D01*
X7679902Y11504928D01*
X7739029Y11452709D01*
X7747152Y11448895D01*
X7747154Y11448894D01*
X7798678Y11424704D01*
X7861025Y11395432D01*
X7869890Y11394052D01*
X7869892Y11394051D01*
X7932954Y11384232D01*
X7963346Y11379500D01*
X8033782Y11379500D01*
X8072743Y11385080D01*
X8124526Y11392495D01*
X8124529Y11392496D01*
X8133412Y11393768D01*
X8145461Y11399246D01*
X8198995Y11423587D01*
X8256098Y11449550D01*
X8358197Y11537525D01*
X8431501Y11650618D01*
X8435664Y11664536D01*
X8467544Y11771138D01*
X8470117Y11779741D01*
X8470423Y11829764D01*
X8470736Y11881177D01*
X8470940Y11914511D01*
X8468055Y11924608D01*
X8436372Y12035464D01*
X8436371Y12035466D01*
X8433905Y12044095D01*
X8368977Y12146999D01*
X8366779Y12150483D01*
X8366778Y12150484D01*
X8361988Y12158076D01*
X8352379Y12166563D01*
X8308217Y12205565D01*
X8270399Y12265651D01*
X8271069Y12336644D01*
X8309377Y12395459D01*
X8351395Y12431664D01*
X8358197Y12437525D01*
X8431501Y12550618D01*
X8434267Y12559865D01*
X8464118Y12659683D01*
X8470117Y12679741D01*
X8470940Y12814511D01*
X8466839Y12828862D01*
X8436372Y12935464D01*
X8436371Y12935466D01*
X8433905Y12944095D01*
X8373353Y13040064D01*
X8366779Y13050483D01*
X8366778Y13050484D01*
X8361988Y13058076D01*
X8345738Y13072428D01*
X8308217Y13105565D01*
X8270399Y13165651D01*
X8271069Y13236644D01*
X8309377Y13295459D01*
X8318516Y13303333D01*
X8358197Y13337525D01*
X8363080Y13345059D01*
X8363083Y13345062D01*
X8407651Y13413822D01*
X8461487Y13460106D01*
X8531799Y13469937D01*
X8596265Y13440193D01*
X8618754Y13414376D01*
X8646695Y13371760D01*
X8656021Y13360606D01*
X8772358Y13250399D01*
X8784005Y13241686D01*
X8922575Y13161197D01*
X8935905Y13155401D01*
X8958664Y13148508D01*
X8972763Y13148389D01*
X8976000Y13155320D01*
X8976000Y13161093D01*
X9484000Y13161093D01*
X9487973Y13147562D01*
X9493056Y13146831D01*
X9597393Y13191227D01*
X9610017Y13198428D01*
X9739082Y13293409D01*
X9749724Y13303333D01*
X9853475Y13425456D01*
X9861542Y13437552D01*
X9934418Y13580272D01*
X9939487Y13593900D01*
X9977982Y13751218D01*
X9979664Y13762270D01*
X9979880Y13765753D01*
X9980000Y13769635D01*
X9980000Y14027885D01*
X9975525Y14043124D01*
X9974135Y14044329D01*
X9966452Y14046000D01*
X9502115Y14046000D01*
X9486876Y14041525D01*
X9485671Y14040135D01*
X9484000Y14032452D01*
X9484000Y13161093D01*
X8976000Y13161093D01*
X8976000Y14572115D01*
X9484000Y14572115D01*
X9488475Y14556876D01*
X9489865Y14555671D01*
X9497548Y14554000D01*
X9961885Y14554000D01*
X9977124Y14558475D01*
X9978329Y14559865D01*
X9980000Y14567548D01*
X9980000Y14790132D01*
X9979575Y14797436D01*
X9965701Y14916440D01*
X9962356Y14930592D01*
X9907678Y15081227D01*
X9901168Y15094226D01*
X9813303Y15228242D01*
X9803979Y15239394D01*
X9687642Y15349601D01*
X9675995Y15358314D01*
X9537425Y15438803D01*
X9524095Y15444599D01*
X9501336Y15451492D01*
X9487237Y15451611D01*
X9484000Y15444680D01*
X9484000Y14572115D01*
X8976000Y14572115D01*
X8976000Y15438907D01*
X8972027Y15452438D01*
X8966944Y15453169D01*
X8862607Y15408773D01*
X8849983Y15401572D01*
X8720918Y15306591D01*
X8710276Y15296667D01*
X8606525Y15174544D01*
X8598458Y15162448D01*
X8525582Y15019728D01*
X8517961Y14999237D01*
X8514916Y15000370D01*
X8486580Y14951474D01*
X8423423Y14919044D01*
X8352759Y14925908D01*
X8316371Y14948364D01*
X8267699Y14991349D01*
X8260971Y14997291D01*
X8252848Y15001105D01*
X8252846Y15001106D01*
X8138975Y15054568D01*
X8140481Y15057776D01*
X8095354Y15087509D01*
X8087319Y15098080D01*
X8075862Y15114928D01*
X7641922Y15548868D01*
X8364408Y15548868D01*
X8364539Y15547035D01*
X8368790Y15540420D01*
X8429557Y15479653D01*
X8441258Y15473264D01*
X8444868Y15481693D01*
X8453684Y15534097D01*
X8454551Y15543753D01*
X8454567Y15545128D01*
X8453935Y15554829D01*
X8445242Y15615529D01*
X8439895Y15627256D01*
X8431469Y15622259D01*
X8372022Y15562812D01*
X8364408Y15548868D01*
X7641922Y15548868D01*
X7587405Y15603385D01*
X7553379Y15665697D01*
X7550500Y15692480D01*
X7550500Y15991301D01*
X7920850Y15991301D01*
X7921148Y15989117D01*
X7923483Y15985727D01*
X7987188Y15922022D01*
X8001132Y15914408D01*
X8002965Y15914539D01*
X8009580Y15918790D01*
X8072264Y15981474D01*
X8079024Y15993854D01*
X8077460Y15995943D01*
X8075006Y15997179D01*
X8058223Y15999688D01*
X7947278Y16000366D01*
X7931836Y15998250D01*
X7920850Y15991301D01*
X7550500Y15991301D01*
X7550500Y16036587D01*
X12668772Y16036587D01*
X12672908Y16034000D01*
X12827885Y16034000D01*
X12843124Y16038475D01*
X12844329Y16039865D01*
X12846000Y16047548D01*
X12846000Y16052115D01*
X13354000Y16052115D01*
X13358475Y16036876D01*
X13359865Y16035671D01*
X13367548Y16034000D01*
X13518608Y16034000D01*
X13532139Y16037973D01*
X13532828Y16042769D01*
X13517859Y16076471D01*
X13504903Y16095322D01*
X13444911Y16155209D01*
X13426038Y16168131D01*
X13370570Y16192653D01*
X13356587Y16194491D01*
X13354000Y16190355D01*
X13354000Y16052115D01*
X12846000Y16052115D01*
X12846000Y16181934D01*
X12842027Y16195465D01*
X12837232Y16196154D01*
X12773532Y16167860D01*
X12754677Y16154901D01*
X12694791Y16094911D01*
X12681869Y16076038D01*
X12670610Y16050570D01*
X12668772Y16036587D01*
X7550500Y16036587D01*
X7550500Y16434050D01*
X7570502Y16502171D01*
X7587405Y16523145D01*
X7656855Y16592595D01*
X7719167Y16626621D01*
X7745949Y16629500D01*
X7967841Y16629501D01*
X7987414Y16629501D01*
X7991111Y16629941D01*
X7991116Y16629941D01*
X7997257Y16630672D01*
X8012310Y16632462D01*
X8109510Y16675637D01*
X8167533Y16733761D01*
X8176433Y16742676D01*
X8176434Y16742678D01*
X8184650Y16750908D01*
X8194627Y16773475D01*
X10625001Y16773475D01*
X10625776Y16763626D01*
X10638283Y16684649D01*
X10644338Y16666014D01*
X10692859Y16570787D01*
X10704370Y16554944D01*
X10779944Y16479370D01*
X10795787Y16467859D01*
X10891018Y16419336D01*
X10909645Y16413284D01*
X10988627Y16400775D01*
X10998473Y16400000D01*
X11227885Y16400000D01*
X11243124Y16404475D01*
X11244329Y16405865D01*
X11246000Y16413548D01*
X11246000Y16418116D01*
X11754000Y16418116D01*
X11758475Y16402877D01*
X11759865Y16401672D01*
X11767548Y16400001D01*
X12001525Y16400001D01*
X12011374Y16400776D01*
X12090351Y16413283D01*
X12108986Y16419338D01*
X12204213Y16467859D01*
X12220056Y16479370D01*
X12295630Y16554944D01*
X12307141Y16570787D01*
X12355664Y16666018D01*
X12361716Y16684645D01*
X12374225Y16763627D01*
X12375000Y16773473D01*
X12375000Y16777885D01*
X12370525Y16793124D01*
X12369135Y16794329D01*
X12361452Y16796000D01*
X11772115Y16796000D01*
X11756876Y16791525D01*
X11755671Y16790135D01*
X11754000Y16782452D01*
X11754000Y16418116D01*
X11246000Y16418116D01*
X11246000Y16777885D01*
X11241525Y16793124D01*
X11240135Y16794329D01*
X11232452Y16796000D01*
X10643116Y16796000D01*
X10627877Y16791525D01*
X10626672Y16790135D01*
X10625001Y16782452D01*
X10625001Y16773475D01*
X8194627Y16773475D01*
X8223823Y16839514D01*
X8223824Y16839517D01*
X8227655Y16848183D01*
X8230500Y16872585D01*
X8230499Y17322115D01*
X10625000Y17322115D01*
X10629475Y17306876D01*
X10630865Y17305671D01*
X10638548Y17304000D01*
X11227885Y17304000D01*
X11243124Y17308475D01*
X11244329Y17309865D01*
X11246000Y17317548D01*
X11246000Y17322115D01*
X11754000Y17322115D01*
X11758475Y17306876D01*
X11759865Y17305671D01*
X11767548Y17304000D01*
X12356884Y17304000D01*
X12372123Y17308475D01*
X12373328Y17309865D01*
X12374999Y17317548D01*
X12374999Y17326525D01*
X12374224Y17336374D01*
X12361717Y17415351D01*
X12355662Y17433986D01*
X12307141Y17529213D01*
X12295630Y17545056D01*
X12220056Y17620630D01*
X12204213Y17632141D01*
X12108982Y17680664D01*
X12090355Y17686716D01*
X12011373Y17699225D01*
X12001527Y17700000D01*
X11772115Y17700000D01*
X11756876Y17695525D01*
X11755671Y17694135D01*
X11754000Y17686452D01*
X11754000Y17322115D01*
X11246000Y17322115D01*
X11246000Y17681884D01*
X11241525Y17697123D01*
X11240135Y17698328D01*
X11232452Y17699999D01*
X10998475Y17699999D01*
X10988626Y17699224D01*
X10909649Y17686717D01*
X10891014Y17680662D01*
X10795787Y17632141D01*
X10779944Y17620630D01*
X10704370Y17545056D01*
X10692859Y17529213D01*
X10644336Y17433982D01*
X10638284Y17415355D01*
X10625775Y17336373D01*
X10625000Y17326527D01*
X10625000Y17322115D01*
X8230499Y17322115D01*
X8230499Y17327414D01*
X8229434Y17336373D01*
X8229310Y17337408D01*
X8227538Y17352310D01*
X8184363Y17449510D01*
X8136408Y17497382D01*
X8117324Y17516433D01*
X8117322Y17516434D01*
X8109092Y17524650D01*
X8081802Y17536715D01*
X8020486Y17563823D01*
X8020483Y17563824D01*
X8011817Y17567655D01*
X8002406Y17568752D01*
X8002403Y17568753D01*
X7997138Y17569366D01*
X7987415Y17570500D01*
X7811513Y17570500D01*
X7632586Y17570499D01*
X7628889Y17570059D01*
X7628884Y17570059D01*
X7622743Y17569328D01*
X7607690Y17567538D01*
X7510490Y17524363D01*
X7479725Y17493544D01*
X7443567Y17457324D01*
X7443566Y17457322D01*
X7435350Y17449092D01*
X7414964Y17402979D01*
X7369128Y17348765D01*
X7301255Y17327937D01*
X7232897Y17347110D01*
X7184574Y17402779D01*
X7168668Y17438589D01*
X7155711Y17457442D01*
X7097037Y17516013D01*
X7078167Y17528934D01*
X7060568Y17536715D01*
X7046588Y17538552D01*
X7044000Y17534416D01*
X7044000Y16674083D01*
X7045600Y16668634D01*
X7048283Y16608555D01*
X7044592Y16590000D01*
X7047013Y16577829D01*
X7047013Y16577828D01*
X7047079Y16577496D01*
X7049500Y16552915D01*
X7049500Y15692480D01*
X7029498Y15624359D01*
X7012595Y15603385D01*
X6527261Y15118051D01*
X6522550Y15109423D01*
X6472348Y15059220D01*
X6464128Y15055114D01*
X6343902Y15000450D01*
X6278954Y14944487D01*
X6214294Y14915174D01*
X6144049Y14925473D01*
X6090522Y14972114D01*
X6078269Y14996950D01*
X6047678Y15081227D01*
X6041168Y15094226D01*
X5953303Y15228242D01*
X5943979Y15239394D01*
X5827642Y15349601D01*
X5815995Y15358314D01*
X5677425Y15438803D01*
X5664095Y15444599D01*
X5641336Y15451492D01*
X5627237Y15451611D01*
X5624000Y15444680D01*
X5624000Y13161093D01*
X5627973Y13147562D01*
X5633056Y13146831D01*
X5737393Y13191227D01*
X5750017Y13198428D01*
X5879082Y13293409D01*
X5889724Y13303333D01*
X5993475Y13425456D01*
X6001542Y13437552D01*
X6074418Y13580272D01*
X6079487Y13593900D01*
X6117982Y13751218D01*
X6119664Y13762270D01*
X6119880Y13765753D01*
X6120000Y13769635D01*
X6120000Y14116765D01*
X6140002Y14184886D01*
X6193658Y14231379D01*
X6263932Y14241483D01*
X6324677Y14213394D01*
X6324799Y14213579D01*
X6326042Y14212762D01*
X6329408Y14211206D01*
X6339029Y14202709D01*
X6347152Y14198895D01*
X6347154Y14198894D01*
X6387998Y14179718D01*
X6461025Y14145432D01*
X6469890Y14144052D01*
X6469892Y14144051D01*
X6511954Y14137502D01*
X6563346Y14129500D01*
X6633782Y14129500D01*
X6672743Y14135080D01*
X6724526Y14142495D01*
X6724529Y14142496D01*
X6733412Y14143768D01*
X6745461Y14149246D01*
X6789784Y14169399D01*
X6856098Y14199550D01*
X6862897Y14205408D01*
X6862901Y14205411D01*
X6902520Y14239550D01*
X6967182Y14268864D01*
X7037428Y14258565D01*
X7089532Y14214099D01*
X7119399Y14169399D01*
X7129717Y14162505D01*
X7129719Y14162503D01*
X7130005Y14162312D01*
X7149098Y14146642D01*
X7492935Y13802805D01*
X7526961Y13740493D01*
X7529838Y13712941D01*
X7529060Y13585489D01*
X7531527Y13576858D01*
X7531527Y13576856D01*
X7563628Y13464536D01*
X7566095Y13455905D01*
X7638012Y13341924D01*
X7644741Y13335981D01*
X7644742Y13335980D01*
X7691783Y13294435D01*
X7729601Y13234349D01*
X7728931Y13163356D01*
X7690624Y13104542D01*
X7641803Y13062475D01*
X7568499Y12949382D01*
X7565928Y12940785D01*
X7565927Y12940783D01*
X7563730Y12933437D01*
X7529883Y12820259D01*
X7529828Y12811283D01*
X7529828Y12811282D01*
X7529693Y12789147D01*
X7509275Y12721149D01*
X7492790Y12700821D01*
X7251520Y12459551D01*
X7189208Y12425525D01*
X7118393Y12430590D01*
X7061557Y12473137D01*
X7036746Y12539657D01*
X7041708Y12584748D01*
X7053596Y12624500D01*
X7070117Y12679741D01*
X7070940Y12814511D01*
X7066839Y12828862D01*
X7036372Y12935464D01*
X7036371Y12935466D01*
X7033905Y12944095D01*
X6973353Y13040064D01*
X6966779Y13050483D01*
X6966778Y13050484D01*
X6961988Y13058076D01*
X6945738Y13072428D01*
X6867699Y13141349D01*
X6860971Y13147291D01*
X6852848Y13151105D01*
X6852846Y13151106D01*
X6756161Y13196499D01*
X6738975Y13204568D01*
X6730110Y13205948D01*
X6730108Y13205949D01*
X6656595Y13217395D01*
X6636654Y13220500D01*
X6566218Y13220500D01*
X6538427Y13216520D01*
X6475474Y13207505D01*
X6475471Y13207504D01*
X6466588Y13206232D01*
X6458420Y13202518D01*
X6458419Y13202518D01*
X6440635Y13194432D01*
X6343902Y13150450D01*
X6337100Y13144589D01*
X6322505Y13132013D01*
X6241803Y13062475D01*
X6168499Y12949382D01*
X6165928Y12940785D01*
X6165927Y12940783D01*
X6163730Y12933437D01*
X6129883Y12820259D01*
X6129060Y12685489D01*
X6131527Y12676858D01*
X6131527Y12676856D01*
X6163628Y12564536D01*
X6166095Y12555905D01*
X6190487Y12517246D01*
X6232713Y12450323D01*
X6238012Y12441924D01*
X6244741Y12435981D01*
X6244742Y12435980D01*
X6291783Y12394435D01*
X6329601Y12334349D01*
X6328931Y12263356D01*
X6290624Y12204542D01*
X6241803Y12162475D01*
X6168499Y12049382D01*
X6165928Y12040785D01*
X6165927Y12040783D01*
X6158790Y12016918D01*
X6129883Y11920259D01*
X6129060Y11785489D01*
X6131527Y11776858D01*
X6131527Y11776856D01*
X6163049Y11666563D01*
X6166095Y11655905D01*
X6195520Y11609270D01*
X6226312Y11560468D01*
X6238012Y11541924D01*
X6244741Y11535981D01*
X6244742Y11535980D01*
X6291783Y11494435D01*
X6329601Y11434349D01*
X6328931Y11363356D01*
X6290624Y11304542D01*
X6241803Y11262475D01*
X6236920Y11254941D01*
X6236917Y11254938D01*
X6192646Y11186636D01*
X6138810Y11140352D01*
X6068498Y11130521D01*
X6004032Y11160265D01*
X5981542Y11186083D01*
X5965421Y11210671D01*
X5949677Y11234685D01*
X5822628Y11355040D01*
X5671298Y11442939D01*
X5503807Y11493667D01*
X5329138Y11504503D01*
X5321922Y11503263D01*
X5321920Y11503263D01*
X5163875Y11476106D01*
X5163873Y11476105D01*
X5156660Y11474866D01*
X5081011Y11442677D01*
X5006424Y11410940D01*
X4995627Y11406346D01*
X4989735Y11402010D01*
X4976806Y11392495D01*
X4854676Y11302617D01*
X4849937Y11297039D01*
X4849934Y11297036D01*
X4746107Y11174824D01*
X4746104Y11174820D01*
X4741368Y11169245D01*
X4721516Y11130367D01*
X4665292Y11020259D01*
X4661781Y11013384D01*
X4660042Y11006279D01*
X4660041Y11006275D01*
X4649926Y10964937D01*
X4620185Y10843394D01*
X4619838Y10837794D01*
X4619837Y10837790D01*
X4619627Y10834405D01*
X4619500Y10832352D01*
X4619500Y9806178D01*
X2654154Y9806178D01*
X2651516Y9816022D01*
X2651516Y9818532D01*
X2650239Y9824953D01*
X2642556Y9883310D01*
X2641478Y9891499D01*
X2634875Y9907442D01*
X2615062Y9955272D01*
X2606161Y9976762D01*
X2590947Y9996590D01*
X2555005Y10043429D01*
X2549979Y10049979D01*
X2509363Y10081145D01*
X2483315Y10101133D01*
X2483313Y10101134D01*
X2476762Y10106161D01*
X2420470Y10129478D01*
X2399129Y10138318D01*
X2399126Y10138319D01*
X2391499Y10141478D01*
X2324953Y10150239D01*
X2318532Y10151516D01*
X2316022Y10151516D01*
X2300000Y10155809D01*
X2284483Y10151651D01*
X2280372Y10151786D01*
X2027676Y10168349D01*
X2011336Y10170500D01*
X1751769Y10222131D01*
X1735848Y10226397D01*
X1485241Y10311467D01*
X1470015Y10317774D01*
X1232658Y10434825D01*
X1218384Y10443066D01*
X998337Y10590097D01*
X985261Y10600130D01*
X786283Y10774629D01*
X774629Y10786283D01*
X600130Y10985261D01*
X590097Y10998337D01*
X443066Y11218384D01*
X434825Y11232658D01*
X317774Y11470015D01*
X311467Y11485241D01*
X226397Y11735848D01*
X222131Y11751769D01*
X170500Y12011336D01*
X168349Y12027676D01*
X156752Y12204613D01*
X151040Y12291761D01*
X151040Y12300000D01*
X944341Y12300000D01*
X964937Y12064592D01*
X966361Y12059278D01*
X966361Y12059277D01*
X1019048Y11862646D01*
X1026097Y11836337D01*
X1028419Y11831357D01*
X1028420Y11831355D01*
X1121816Y11631069D01*
X1125965Y11622171D01*
X1261505Y11428599D01*
X1428599Y11261505D01*
X1622171Y11125965D01*
X1627149Y11123644D01*
X1627152Y11123642D01*
X1831355Y11028420D01*
X1836337Y11026097D01*
X1841645Y11024675D01*
X1841647Y11024674D01*
X2023893Y10975842D01*
X2064592Y10964937D01*
X2167682Y10955918D01*
X2238310Y10949738D01*
X2238317Y10949738D01*
X2241034Y10949500D01*
X2358966Y10949500D01*
X2361683Y10949738D01*
X2361690Y10949738D01*
X2432318Y10955918D01*
X2535408Y10964937D01*
X2576107Y10975842D01*
X2758353Y11024674D01*
X2758355Y11024675D01*
X2763663Y11026097D01*
X2768645Y11028420D01*
X2972848Y11123642D01*
X2972851Y11123644D01*
X2977829Y11125965D01*
X3171401Y11261505D01*
X3338495Y11428599D01*
X3341655Y11433111D01*
X3470878Y11617661D01*
X3470881Y11617666D01*
X3474035Y11622170D01*
X3476358Y11627152D01*
X3476361Y11627157D01*
X3571580Y11831355D01*
X3571581Y11831356D01*
X3573903Y11836337D01*
X3580953Y11862646D01*
X3633639Y12059277D01*
X3633639Y12059278D01*
X3635063Y12064592D01*
X3655659Y12300000D01*
X3635063Y12535408D01*
X3629311Y12556876D01*
X3575326Y12758353D01*
X3575325Y12758355D01*
X3573903Y12763663D01*
X3568322Y12775632D01*
X3476358Y12972848D01*
X3476356Y12972851D01*
X3474035Y12977829D01*
X3338495Y13171401D01*
X3171401Y13338495D01*
X2977829Y13474035D01*
X2972851Y13476356D01*
X2972848Y13476358D01*
X2768645Y13571580D01*
X2768643Y13571581D01*
X2763663Y13573903D01*
X2758355Y13575325D01*
X2758353Y13575326D01*
X2540723Y13633639D01*
X2540722Y13633639D01*
X2535408Y13635063D01*
X2430162Y13644271D01*
X2361690Y13650262D01*
X2361683Y13650262D01*
X2358966Y13650500D01*
X2241034Y13650500D01*
X2238317Y13650262D01*
X2238310Y13650262D01*
X2169838Y13644271D01*
X2064592Y13635063D01*
X2059278Y13633639D01*
X2059277Y13633639D01*
X1841647Y13575326D01*
X1841645Y13575325D01*
X1836337Y13573903D01*
X1831357Y13571581D01*
X1831355Y13571580D01*
X1627152Y13476358D01*
X1627149Y13476356D01*
X1622171Y13474035D01*
X1428599Y13338495D01*
X1261505Y13171401D01*
X1258348Y13166893D01*
X1258346Y13166890D01*
X1135097Y12990872D01*
X1125965Y12977830D01*
X1123642Y12972848D01*
X1123639Y12972843D01*
X1052488Y12820259D01*
X1026097Y12763663D01*
X1024675Y12758355D01*
X1024674Y12758353D01*
X970689Y12556876D01*
X964937Y12535408D01*
X944341Y12300000D01*
X151040Y12300000D01*
X151040Y12308241D01*
X152434Y12329500D01*
X160353Y12450323D01*
X168349Y12572324D01*
X170500Y12588664D01*
X222131Y12848231D01*
X226397Y12864152D01*
X311467Y13114759D01*
X317774Y13129985D01*
X434825Y13367342D01*
X443066Y13381616D01*
X590097Y13601663D01*
X600130Y13614739D01*
X771254Y13809868D01*
X4620000Y13809868D01*
X4620425Y13802564D01*
X4634299Y13683560D01*
X4637644Y13669408D01*
X4692322Y13518773D01*
X4698832Y13505774D01*
X4786697Y13371758D01*
X4796021Y13360606D01*
X4912358Y13250399D01*
X4924005Y13241686D01*
X5062575Y13161197D01*
X5075905Y13155401D01*
X5098664Y13148508D01*
X5112763Y13148389D01*
X5116000Y13155320D01*
X5116000Y14027885D01*
X5111525Y14043124D01*
X5110135Y14044329D01*
X5102452Y14046000D01*
X4638115Y14046000D01*
X4622876Y14041525D01*
X4621671Y14040135D01*
X4620000Y14032452D01*
X4620000Y13809868D01*
X771254Y13809868D01*
X774629Y13813717D01*
X786283Y13825371D01*
X985261Y13999870D01*
X998337Y14009903D01*
X1218384Y14156934D01*
X1232658Y14165175D01*
X1470015Y14282226D01*
X1485241Y14288533D01*
X1735848Y14373603D01*
X1751769Y14377869D01*
X2011336Y14429500D01*
X2027676Y14431651D01*
X2280372Y14448214D01*
X2284483Y14448349D01*
X2300000Y14444191D01*
X2316022Y14448484D01*
X2318532Y14448484D01*
X2324953Y14449761D01*
X2360417Y14454430D01*
X2391499Y14458522D01*
X2399126Y14461681D01*
X2399129Y14461682D01*
X2447900Y14481884D01*
X2476762Y14493839D01*
X2492284Y14505749D01*
X2543429Y14544995D01*
X2549979Y14550021D01*
X2566933Y14572115D01*
X4620000Y14572115D01*
X4624475Y14556876D01*
X4625865Y14555671D01*
X4633548Y14554000D01*
X5097885Y14554000D01*
X5113124Y14558475D01*
X5114329Y14559865D01*
X5116000Y14567548D01*
X5116000Y15438907D01*
X5112027Y15452438D01*
X5106944Y15453169D01*
X5002607Y15408773D01*
X4989983Y15401572D01*
X4860918Y15306591D01*
X4850276Y15296667D01*
X4746525Y15174544D01*
X4738458Y15162448D01*
X4665582Y15019728D01*
X4660513Y15006100D01*
X4622018Y14848782D01*
X4620336Y14837730D01*
X4620120Y14834247D01*
X4620000Y14830365D01*
X4620000Y14572115D01*
X2566933Y14572115D01*
X2574108Y14581466D01*
X2601133Y14616685D01*
X2601134Y14616687D01*
X2606161Y14623238D01*
X2632912Y14687820D01*
X2638318Y14700871D01*
X2638319Y14700874D01*
X2641478Y14708501D01*
X2650239Y14775047D01*
X2651516Y14781468D01*
X2651516Y14783978D01*
X2655809Y14800000D01*
X2651516Y14816022D01*
X2651516Y14828685D01*
X2650500Y14836402D01*
X2650500Y15546648D01*
X6146571Y15546648D01*
X6154730Y15484254D01*
X6159841Y15472672D01*
X6168560Y15477770D01*
X6227978Y15537188D01*
X6235592Y15551132D01*
X6235461Y15552965D01*
X6231210Y15559580D01*
X6170321Y15620469D01*
X6158813Y15626753D01*
X6155131Y15618010D01*
X6146788Y15564427D01*
X6146571Y15546648D01*
X2650500Y15546648D01*
X2650500Y15991301D01*
X6520850Y15991301D01*
X6521148Y15989117D01*
X6523483Y15985727D01*
X6587188Y15922022D01*
X6601132Y15914408D01*
X6602965Y15914539D01*
X6609580Y15918790D01*
X6672264Y15981474D01*
X6679024Y15993854D01*
X6677460Y15995943D01*
X6675006Y15997179D01*
X6658223Y15999688D01*
X6547278Y16000366D01*
X6531836Y15998250D01*
X6520850Y15991301D01*
X2650500Y15991301D01*
X2650500Y16837232D01*
X6377654Y16837232D01*
X6411331Y16761413D01*
X6424289Y16742558D01*
X6482963Y16683987D01*
X6501833Y16671066D01*
X6519432Y16663285D01*
X6533412Y16661448D01*
X6536000Y16665584D01*
X6536000Y16827885D01*
X6531525Y16843124D01*
X6530135Y16844329D01*
X6522452Y16846000D01*
X6391874Y16846000D01*
X6378343Y16842027D01*
X6377654Y16837232D01*
X2650500Y16837232D01*
X2650500Y17356587D01*
X6379344Y17356587D01*
X6383479Y17354000D01*
X6517885Y17354000D01*
X6533124Y17358475D01*
X6534329Y17359865D01*
X6536000Y17367548D01*
X6536000Y17525917D01*
X6532027Y17539448D01*
X6527232Y17540137D01*
X6501409Y17528667D01*
X6482560Y17515713D01*
X6423986Y17457037D01*
X6411065Y17438165D01*
X6381182Y17370571D01*
X6379344Y17356587D01*
X2650500Y17356587D01*
X2650500Y21263598D01*
X2651516Y21271315D01*
X2651516Y21283978D01*
X2655809Y21300000D01*
X2652170Y21313583D01*
X2652308Y21316043D01*
X2665195Y21430420D01*
X2671474Y21457928D01*
X2710132Y21568407D01*
X2722369Y21593820D01*
X2784651Y21692943D01*
X2802241Y21714998D01*
X2885002Y21797759D01*
X2907057Y21815349D01*
X3006180Y21877631D01*
X3031593Y21889868D01*
X3142072Y21928526D01*
X3169580Y21934805D01*
X3283957Y21947692D01*
X3286417Y21947830D01*
X3300000Y21944191D01*
X3316022Y21948484D01*
X3328685Y21948484D01*
X3336402Y21949500D01*
X9353215Y21949500D01*
X9421336Y21929498D01*
X9467829Y21875842D01*
X9478127Y21840023D01*
X9483718Y21797759D01*
X9488453Y21761960D01*
X9489337Y21758448D01*
X9489338Y21758444D01*
X9524785Y21617661D01*
X9568885Y21442508D01*
X9570169Y21439115D01*
X9570171Y21439109D01*
X9684200Y21137806D01*
X9684203Y21137798D01*
X9685485Y21134412D01*
X9687150Y21131190D01*
X9834799Y20845451D01*
X9836710Y20841752D01*
X10020557Y20568404D01*
X10022908Y20565654D01*
X10022909Y20565652D01*
X10202126Y20355973D01*
X10234592Y20317988D01*
X10237244Y20315525D01*
X10237249Y20315520D01*
X10337420Y20222495D01*
X10475978Y20093820D01*
X10741521Y19898869D01*
X10893302Y19812339D01*
X11024553Y19737513D01*
X11024558Y19737510D01*
X11027704Y19735717D01*
X11330735Y19606525D01*
X11489630Y19559479D01*
X11643126Y19514031D01*
X11643134Y19514029D01*
X11646603Y19513002D01*
X11971124Y19456389D01*
X12300000Y19437434D01*
X12628876Y19456389D01*
X12953397Y19513002D01*
X12956866Y19514029D01*
X12956874Y19514031D01*
X13110370Y19559479D01*
X13269265Y19606525D01*
X13572296Y19735717D01*
X13575442Y19737510D01*
X13575447Y19737513D01*
X13669994Y19791414D01*
X15650001Y19791414D01*
X15651209Y19779154D01*
X15656282Y19753648D01*
X15665599Y19731152D01*
X15684963Y19702172D01*
X15702172Y19684963D01*
X15731156Y19665596D01*
X15753642Y19656282D01*
X15779158Y19651207D01*
X15791412Y19650000D01*
X16027885Y19650000D01*
X16043124Y19654475D01*
X16044329Y19655865D01*
X16046000Y19663548D01*
X16046000Y20027885D01*
X16041525Y20043124D01*
X16040135Y20044329D01*
X16032452Y20046000D01*
X15668116Y20046000D01*
X15652877Y20041525D01*
X15651672Y20040135D01*
X15650001Y20032452D01*
X15650001Y19791414D01*
X13669994Y19791414D01*
X13706698Y19812339D01*
X13858479Y19898869D01*
X14124022Y20093820D01*
X14262580Y20222495D01*
X14362751Y20315520D01*
X14362756Y20315525D01*
X14365408Y20317988D01*
X14397875Y20355973D01*
X14577091Y20565652D01*
X14577092Y20565654D01*
X14579443Y20568404D01*
X14581939Y20572115D01*
X15650000Y20572115D01*
X15654475Y20556876D01*
X15655865Y20555671D01*
X15663548Y20554000D01*
X16027885Y20554000D01*
X16043124Y20558475D01*
X16044329Y20559865D01*
X16046000Y20567548D01*
X16046000Y20931884D01*
X16041525Y20947123D01*
X16040135Y20948328D01*
X16032452Y20949999D01*
X15791414Y20949999D01*
X15779154Y20948791D01*
X15753648Y20943718D01*
X15731152Y20934401D01*
X15702172Y20915037D01*
X15684963Y20897828D01*
X15665596Y20868844D01*
X15656282Y20846358D01*
X15651207Y20820842D01*
X15650000Y20808588D01*
X15650000Y20572115D01*
X14581939Y20572115D01*
X14763290Y20841752D01*
X14765202Y20845451D01*
X14872835Y21053750D01*
X21674500Y21053750D01*
X21674501Y20546249D01*
X21685183Y20473674D01*
X21689498Y20464886D01*
X21689498Y20464885D01*
X21694925Y20453832D01*
X21739361Y20363328D01*
X21746727Y20355975D01*
X21746729Y20355972D01*
X21818990Y20283837D01*
X21826360Y20276480D01*
X21892584Y20244109D01*
X21927591Y20226997D01*
X21936801Y20222495D01*
X21946476Y20221084D01*
X21946478Y20221083D01*
X22004222Y20212659D01*
X22004228Y20212659D01*
X22008749Y20211999D01*
X22298889Y20211999D01*
X22591250Y20212000D01*
X22617710Y20215895D01*
X22654138Y20221256D01*
X22654139Y20221256D01*
X22663825Y20222682D01*
X22672613Y20226997D01*
X22672614Y20226997D01*
X22764826Y20272272D01*
X22774171Y20276860D01*
X22781524Y20284226D01*
X22781527Y20284228D01*
X22853663Y20356490D01*
X22853664Y20356491D01*
X22861019Y20363859D01*
X22865591Y20373212D01*
X22865593Y20373215D01*
X22904999Y20453832D01*
X22952884Y20506249D01*
X23018199Y20524499D01*
X24581725Y20524499D01*
X24649846Y20504497D01*
X24694828Y20454030D01*
X24734771Y20372676D01*
X24734773Y20372673D01*
X24739361Y20363329D01*
X24746727Y20355976D01*
X24746729Y20355973D01*
X24818991Y20283837D01*
X24826360Y20276481D01*
X24892584Y20244110D01*
X24927591Y20226998D01*
X24936801Y20222496D01*
X24946476Y20221085D01*
X24946478Y20221084D01*
X25004222Y20212660D01*
X25004228Y20212660D01*
X25008749Y20212000D01*
X25298889Y20212000D01*
X25591250Y20212001D01*
X25617710Y20215896D01*
X25654138Y20221257D01*
X25654139Y20221257D01*
X25663825Y20222683D01*
X25672613Y20226998D01*
X25672614Y20226998D01*
X25764826Y20272273D01*
X25774171Y20276861D01*
X25781524Y20284227D01*
X25781527Y20284229D01*
X25853663Y20356491D01*
X25853664Y20356492D01*
X25861019Y20363860D01*
X25865592Y20373215D01*
X25865593Y20373216D01*
X25904999Y20453833D01*
X25952884Y20506250D01*
X26018199Y20524500D01*
X27319006Y20524500D01*
X27387127Y20504498D01*
X27415455Y20479577D01*
X27462970Y20423052D01*
X27470447Y20418075D01*
X27551894Y20363859D01*
X27582313Y20343610D01*
X27719157Y20300858D01*
X27728129Y20300694D01*
X27728132Y20300693D01*
X27793463Y20299496D01*
X27862499Y20298230D01*
X27871533Y20300693D01*
X27992158Y20333579D01*
X27992160Y20333580D01*
X28000817Y20335940D01*
X28122991Y20410955D01*
X28219200Y20517246D01*
X28281710Y20646267D01*
X28305496Y20787646D01*
X28305647Y20800000D01*
X28295788Y20868844D01*
X28286596Y20933032D01*
X28286595Y20933035D01*
X28285323Y20941918D01*
X28281242Y20950895D01*
X28245993Y21028420D01*
X28225984Y21072428D01*
X28181855Y21123642D01*
X28138260Y21174237D01*
X28138257Y21174240D01*
X28132400Y21181037D01*
X28012095Y21259015D01*
X27874739Y21300093D01*
X27865763Y21300148D01*
X27865762Y21300148D01*
X27805555Y21300516D01*
X27731376Y21300969D01*
X27593529Y21261572D01*
X27472280Y21185070D01*
X27466338Y21178342D01*
X27466337Y21178341D01*
X27413127Y21118092D01*
X27353042Y21080274D01*
X27318686Y21075500D01*
X26018276Y21075500D01*
X25950155Y21095502D01*
X25905173Y21145968D01*
X25880570Y21196076D01*
X25860639Y21236671D01*
X25853273Y21244024D01*
X25853271Y21244027D01*
X25781009Y21316163D01*
X25781008Y21316164D01*
X25773640Y21323519D01*
X25707416Y21355890D01*
X25671984Y21373210D01*
X25671983Y21373210D01*
X25663199Y21377504D01*
X25653524Y21378915D01*
X25653522Y21378916D01*
X25595778Y21387340D01*
X25595772Y21387340D01*
X25591251Y21388000D01*
X25301111Y21388000D01*
X25008750Y21387999D01*
X24982290Y21384104D01*
X24945862Y21378743D01*
X24945861Y21378743D01*
X24936175Y21377317D01*
X24927387Y21373002D01*
X24927386Y21373002D01*
X24927384Y21373001D01*
X24825829Y21323139D01*
X24818476Y21315773D01*
X24818473Y21315771D01*
X24746854Y21244027D01*
X24738981Y21236140D01*
X24734371Y21226708D01*
X24695000Y21146165D01*
X24647114Y21093749D01*
X24581800Y21075499D01*
X23018276Y21075499D01*
X22950155Y21095501D01*
X22905173Y21145967D01*
X22865227Y21227325D01*
X22860639Y21236670D01*
X22853273Y21244023D01*
X22853271Y21244026D01*
X22781009Y21316162D01*
X22781008Y21316163D01*
X22773640Y21323518D01*
X22707416Y21355889D01*
X22671984Y21373209D01*
X22671981Y21373210D01*
X22663199Y21377503D01*
X22653524Y21378914D01*
X22653522Y21378915D01*
X22595778Y21387339D01*
X22595772Y21387339D01*
X22591251Y21387999D01*
X22301111Y21387999D01*
X22008750Y21387998D01*
X21982290Y21384103D01*
X21945862Y21378742D01*
X21945861Y21378742D01*
X21936175Y21377316D01*
X21927389Y21373002D01*
X21927386Y21373001D01*
X21879994Y21349732D01*
X21825829Y21323138D01*
X21818476Y21315772D01*
X21818473Y21315770D01*
X21746855Y21244027D01*
X21738981Y21236139D01*
X21706610Y21169915D01*
X21690915Y21137806D01*
X21684996Y21125698D01*
X21683585Y21116023D01*
X21683584Y21116021D01*
X21677225Y21072428D01*
X21674500Y21053750D01*
X14872835Y21053750D01*
X14912850Y21131190D01*
X14914515Y21134412D01*
X14915797Y21137798D01*
X14915800Y21137806D01*
X15029829Y21439109D01*
X15029831Y21439115D01*
X15031115Y21442508D01*
X15075215Y21617661D01*
X15110662Y21758444D01*
X15110663Y21758448D01*
X15111547Y21761960D01*
X15116283Y21797759D01*
X15121873Y21840023D01*
X15150635Y21904933D01*
X15209925Y21943988D01*
X15246785Y21949500D01*
X29763598Y21949500D01*
X29771315Y21948484D01*
X29783978Y21948484D01*
X29800000Y21944191D01*
X29816022Y21948484D01*
X29818532Y21948484D01*
X29824953Y21949761D01*
X29891499Y21958522D01*
X29899126Y21961681D01*
X29899129Y21961682D01*
X29934130Y21976180D01*
X29976762Y21993839D01*
X30025070Y22030907D01*
X30043429Y22044995D01*
X30049979Y22050021D01*
X30106161Y22123238D01*
X30130535Y22182082D01*
X30138318Y22200871D01*
X30138319Y22200874D01*
X30141478Y22208501D01*
X30150239Y22275047D01*
X30151516Y22281468D01*
X30151516Y22283978D01*
X30155809Y22300000D01*
X30944341Y22300000D01*
X30964937Y22064592D01*
X30966361Y22059278D01*
X30966361Y22059277D01*
X31015034Y21877627D01*
X31026097Y21836337D01*
X31028419Y21831357D01*
X31028420Y21831355D01*
X31082679Y21714998D01*
X31125965Y21622171D01*
X31261505Y21428599D01*
X31428599Y21261505D01*
X31622171Y21125965D01*
X31627149Y21123644D01*
X31627152Y21123642D01*
X31767327Y21058277D01*
X31836337Y21026097D01*
X31841645Y21024675D01*
X31841647Y21024674D01*
X32059277Y20966361D01*
X32064592Y20964937D01*
X32167682Y20955918D01*
X32238310Y20949738D01*
X32238317Y20949738D01*
X32241034Y20949500D01*
X32358966Y20949500D01*
X32361683Y20949738D01*
X32361690Y20949738D01*
X32432318Y20955918D01*
X32535408Y20964937D01*
X32540723Y20966361D01*
X32758353Y21024674D01*
X32758355Y21024675D01*
X32763663Y21026097D01*
X32832673Y21058277D01*
X32972848Y21123642D01*
X32972851Y21123644D01*
X32977829Y21125965D01*
X33171401Y21261505D01*
X33338495Y21428599D01*
X33341655Y21433111D01*
X33470878Y21617661D01*
X33470881Y21617666D01*
X33474035Y21622170D01*
X33476358Y21627152D01*
X33476361Y21627157D01*
X33571580Y21831355D01*
X33571581Y21831356D01*
X33573903Y21836337D01*
X33584967Y21877627D01*
X33633639Y22059277D01*
X33633639Y22059278D01*
X33635063Y22064592D01*
X33655659Y22300000D01*
X33635063Y22535408D01*
X33620793Y22588664D01*
X33575326Y22758353D01*
X33575325Y22758355D01*
X33573903Y22763663D01*
X33534468Y22848231D01*
X33476358Y22972848D01*
X33476356Y22972851D01*
X33474035Y22977829D01*
X33338495Y23171401D01*
X33171401Y23338495D01*
X32977829Y23474035D01*
X32972851Y23476356D01*
X32972848Y23476358D01*
X32768645Y23571580D01*
X32768643Y23571581D01*
X32763663Y23573903D01*
X32758355Y23575325D01*
X32758353Y23575326D01*
X32540723Y23633639D01*
X32540722Y23633639D01*
X32535408Y23635063D01*
X32432318Y23644082D01*
X32361690Y23650262D01*
X32361683Y23650262D01*
X32358966Y23650500D01*
X32241034Y23650500D01*
X32238317Y23650262D01*
X32238310Y23650262D01*
X32167682Y23644082D01*
X32064592Y23635063D01*
X32059278Y23633639D01*
X32059277Y23633639D01*
X31841647Y23575326D01*
X31841645Y23575325D01*
X31836337Y23573903D01*
X31831357Y23571581D01*
X31831355Y23571580D01*
X31627152Y23476358D01*
X31627149Y23476356D01*
X31622171Y23474035D01*
X31428599Y23338495D01*
X31261505Y23171401D01*
X31258348Y23166893D01*
X31258346Y23166890D01*
X31129122Y22982339D01*
X31125965Y22977830D01*
X31123642Y22972848D01*
X31123639Y22972843D01*
X31083850Y22887515D01*
X31026097Y22763663D01*
X31024675Y22758355D01*
X31024674Y22758353D01*
X30979207Y22588664D01*
X30964937Y22535408D01*
X30944341Y22300000D01*
X30155809Y22300000D01*
X30151651Y22315517D01*
X30151786Y22319628D01*
X30168349Y22572324D01*
X30170500Y22588664D01*
X30222131Y22848231D01*
X30226397Y22864152D01*
X30311467Y23114759D01*
X30317774Y23129985D01*
X30434825Y23367342D01*
X30443066Y23381616D01*
X30590097Y23601663D01*
X30600130Y23614739D01*
X30774629Y23813717D01*
X30786283Y23825371D01*
X30985261Y23999870D01*
X30998337Y24009903D01*
X31218384Y24156934D01*
X31232658Y24165175D01*
X31470015Y24282226D01*
X31485241Y24288533D01*
X31735848Y24373603D01*
X31751769Y24377869D01*
X32011336Y24429500D01*
X32027676Y24431651D01*
X32185383Y24441988D01*
X32291761Y24448960D01*
X32308239Y24448960D01*
X32414617Y24441988D01*
G37*
%TD.AperFunction*%
%TA.AperFunction,Conductor*%
G36*
X18426876Y16438992D02*
G01*
X18454029Y16424901D01*
X18454798Y16424374D01*
X18463034Y16416153D01*
X18470962Y16412648D01*
X18514648Y16359154D01*
X18522135Y16334760D01*
X18524500Y16322868D01*
X18524500Y16322867D01*
X18540485Y16242505D01*
X18601376Y16151376D01*
X18611692Y16144483D01*
X18611693Y16144482D01*
X18614064Y16142898D01*
X18633156Y16127228D01*
X18987595Y15772789D01*
X19021621Y15710477D01*
X19024500Y15683694D01*
X19024500Y14701500D01*
X19004498Y14633379D01*
X18950842Y14586886D01*
X18898500Y14575500D01*
X18839217Y14575500D01*
X18771096Y14595502D01*
X18724603Y14649158D01*
X18717172Y14712917D01*
X18715488Y14712917D01*
X18715488Y14725329D01*
X18717909Y14737500D01*
X18698466Y14835240D01*
X18657078Y14897183D01*
X18657077Y14897184D01*
X18643101Y14918101D01*
X18632786Y14924993D01*
X18632784Y14924995D01*
X18632501Y14925184D01*
X18613408Y14940853D01*
X18531432Y15022829D01*
X18497407Y15085140D01*
X18496273Y15132827D01*
X18505496Y15187646D01*
X18505647Y15200000D01*
X18495221Y15272802D01*
X18486596Y15333032D01*
X18486595Y15333035D01*
X18485323Y15341918D01*
X18480219Y15353145D01*
X18457023Y15404161D01*
X18425984Y15472428D01*
X18394101Y15509430D01*
X18338260Y15574237D01*
X18338257Y15574240D01*
X18332400Y15581037D01*
X18212095Y15659015D01*
X18074739Y15700093D01*
X18065763Y15700148D01*
X18065762Y15700148D01*
X18005555Y15700516D01*
X17931376Y15700969D01*
X17793529Y15661572D01*
X17672280Y15585070D01*
X17577377Y15477612D01*
X17516447Y15347837D01*
X17510025Y15306591D01*
X17495941Y15216130D01*
X17494391Y15206177D01*
X17495555Y15197275D01*
X17495555Y15197272D01*
X17500109Y15162448D01*
X17512980Y15064021D01*
X17529928Y15025504D01*
X17552431Y14974363D01*
X17570720Y14932797D01*
X17576497Y14925924D01*
X17576498Y14925923D01*
X17648724Y14840000D01*
X17662970Y14823052D01*
X17683951Y14809086D01*
X17748891Y14765858D01*
X17782313Y14743610D01*
X17790888Y14740931D01*
X17798852Y14738443D01*
X17857909Y14699038D01*
X17886287Y14633959D01*
X17874975Y14563869D01*
X17850374Y14529081D01*
X17844251Y14522958D01*
X17833935Y14516065D01*
X17827042Y14505749D01*
X17793753Y14455929D01*
X17793752Y14455927D01*
X17786858Y14445609D01*
X17774500Y14383480D01*
X17774500Y14216520D01*
X17775707Y14210452D01*
X17777571Y14201081D01*
X17771243Y14130367D01*
X17727689Y14074300D01*
X17653992Y14050500D01*
X17215951Y14050500D01*
X17147830Y14070502D01*
X17126856Y14087405D01*
X16517405Y14696856D01*
X16483379Y14759168D01*
X16480500Y14785950D01*
X16480499Y15023687D01*
X16480499Y15027414D01*
X16479954Y15032001D01*
X16478655Y15042916D01*
X16477538Y15052310D01*
X16434363Y15149510D01*
X16391291Y15192507D01*
X16367324Y15216433D01*
X16367322Y15216434D01*
X16359092Y15224650D01*
X16321112Y15241441D01*
X16270486Y15263823D01*
X16270483Y15263824D01*
X16261817Y15267655D01*
X16252406Y15268752D01*
X16252403Y15268753D01*
X16247138Y15269366D01*
X16237415Y15270500D01*
X16061513Y15270500D01*
X15882586Y15270499D01*
X15878889Y15270059D01*
X15878884Y15270059D01*
X15872743Y15269328D01*
X15857690Y15267538D01*
X15760490Y15224363D01*
X15723837Y15187646D01*
X15693567Y15157324D01*
X15693566Y15157322D01*
X15685350Y15149092D01*
X15667813Y15109423D01*
X15665237Y15103597D01*
X15619399Y15049381D01*
X15551526Y15028554D01*
X15483167Y15047728D01*
X15434846Y15103397D01*
X15419086Y15138877D01*
X15419085Y15138879D01*
X15414363Y15149510D01*
X15339092Y15224650D01*
X15339441Y15225000D01*
X15300406Y15272802D01*
X15290500Y15321773D01*
X15290500Y15884050D01*
X15310502Y15952171D01*
X15327405Y15973145D01*
X15384405Y16030145D01*
X15446717Y16064171D01*
X15517532Y16059106D01*
X15574368Y16016559D01*
X15599179Y15950039D01*
X15599500Y15941050D01*
X15599500Y15905354D01*
X15602618Y15879154D01*
X15606456Y15870514D01*
X15606456Y15870513D01*
X15637555Y15800500D01*
X15648061Y15776847D01*
X15656294Y15768628D01*
X15656295Y15768627D01*
X15662017Y15762915D01*
X15727287Y15697759D01*
X15737924Y15693056D01*
X15737926Y15693055D01*
X15797462Y15666735D01*
X15829673Y15652494D01*
X15855354Y15649500D01*
X17119646Y15649500D01*
X17123350Y15649941D01*
X17123353Y15649941D01*
X17130746Y15650821D01*
X17145846Y15652618D01*
X17166005Y15661572D01*
X17237518Y15693337D01*
X17248153Y15698061D01*
X17260548Y15710477D01*
X17313834Y15763857D01*
X17327241Y15777287D01*
X17337161Y15799724D01*
X17368675Y15871008D01*
X17372506Y15879673D01*
X17375500Y15905354D01*
X17375500Y16253071D01*
X17395502Y16321192D01*
X17449158Y16367685D01*
X17519432Y16377789D01*
X17578202Y16353034D01*
X17622375Y16319139D01*
X17756291Y16263670D01*
X17900000Y16244750D01*
X18043709Y16263670D01*
X18177625Y16319139D01*
X18292621Y16407379D01*
X18295310Y16410883D01*
X18356061Y16444057D01*
X18426876Y16438992D01*
G37*
%TD.AperFunction*%
%TD*%
M02*
