%TF.GenerationSoftware,KiCad,Pcbnew,6.0.7+dfsg-1~bpo11+1*%
%TF.CreationDate,2022-09-16T06:51:35+00:00*%
%TF.ProjectId,0102-TILEDAP,30313032-2d54-4494-9c45-4441502e6b69,V1.3*%
%TF.SameCoordinates,Original*%
%TF.FileFunction,Legend,Top*%
%TF.FilePolarity,Positive*%
%FSLAX46Y46*%
G04 Gerber Fmt 4.6, Leading zero omitted, Abs format (unit mm)*
G04 Created by KiCad (PCBNEW 6.0.7+dfsg-1~bpo11+1) date 2022-09-16 06:51:35*
%MOMM*%
%LPD*%
G01*
G04 APERTURE LIST*
%ADD10C,0.150000*%
%ADD11C,0.120000*%
G04 APERTURE END LIST*
D10*
X3492738Y19847620D02*
X4064166Y19847620D01*
X3778452Y18847620D02*
X3778452Y19847620D01*
X4397500Y18847620D02*
X4397500Y19847620D01*
X5349880Y18847620D02*
X4873690Y18847620D01*
X4873690Y19847620D01*
X5683214Y19371429D02*
X6016547Y19371429D01*
X6159404Y18847620D02*
X5683214Y18847620D01*
X5683214Y19847620D01*
X6159404Y19847620D01*
X6587976Y18847620D02*
X6587976Y19847620D01*
X6826071Y19847620D01*
X6968928Y19800000D01*
X7064166Y19704762D01*
X7111785Y19609524D01*
X7159404Y19419048D01*
X7159404Y19276191D01*
X7111785Y19085715D01*
X7064166Y18990477D01*
X6968928Y18895239D01*
X6826071Y18847620D01*
X6587976Y18847620D01*
X7540357Y19133334D02*
X8016547Y19133334D01*
X7445119Y18847620D02*
X7778452Y19847620D01*
X8111785Y18847620D01*
X8445119Y18847620D02*
X8445119Y19847620D01*
X8826071Y19847620D01*
X8921309Y19800000D01*
X8968928Y19752381D01*
X9016547Y19657143D01*
X9016547Y19514286D01*
X8968928Y19419048D01*
X8921309Y19371429D01*
X8826071Y19323810D01*
X8445119Y19323810D01*
D11*
X34361904Y8604762D02*
X34933333Y8604762D01*
X35047619Y8566667D01*
X35123809Y8490477D01*
X35161904Y8376191D01*
X35161904Y8300000D01*
X35161904Y9366667D02*
X35161904Y8985715D01*
X34361904Y8985715D01*
X35085714Y10090477D02*
X35123809Y10052381D01*
X35161904Y9938096D01*
X35161904Y9861905D01*
X35123809Y9747620D01*
X35047619Y9671429D01*
X34971428Y9633334D01*
X34819047Y9595239D01*
X34704761Y9595239D01*
X34552380Y9633334D01*
X34476190Y9671429D01*
X34400000Y9747620D01*
X34361904Y9861905D01*
X34361904Y9938096D01*
X34400000Y10052381D01*
X34438095Y10090477D01*
X34361904Y10661905D02*
X34933333Y10661905D01*
X35047619Y10623810D01*
X35123809Y10547620D01*
X35161904Y10433334D01*
X35161904Y10357143D01*
X35161904Y11423810D02*
X35161904Y11042858D01*
X34361904Y11042858D01*
X35085714Y12147620D02*
X35123809Y12109524D01*
X35161904Y11995239D01*
X35161904Y11919048D01*
X35123809Y11804762D01*
X35047619Y11728572D01*
X34971428Y11690477D01*
X34819047Y11652381D01*
X34704761Y11652381D01*
X34552380Y11690477D01*
X34476190Y11728572D01*
X34400000Y11804762D01*
X34361904Y11919048D01*
X34361904Y11995239D01*
X34400000Y12109524D01*
X34438095Y12147620D01*
X34361904Y12719048D02*
X34933333Y12719048D01*
X35047619Y12680953D01*
X35123809Y12604762D01*
X35161904Y12490477D01*
X35161904Y12414286D01*
X35161904Y13480953D02*
X35161904Y13100000D01*
X34361904Y13100000D01*
X35085714Y14204762D02*
X35123809Y14166667D01*
X35161904Y14052381D01*
X35161904Y13976191D01*
X35123809Y13861905D01*
X35047619Y13785715D01*
X34971428Y13747620D01*
X34819047Y13709524D01*
X34704761Y13709524D01*
X34552380Y13747620D01*
X34476190Y13785715D01*
X34400000Y13861905D01*
X34361904Y13976191D01*
X34361904Y14052381D01*
X34400000Y14166667D01*
X34438095Y14204762D01*
X34361904Y14776191D02*
X34933333Y14776191D01*
X35047619Y14738096D01*
X35123809Y14661905D01*
X35161904Y14547620D01*
X35161904Y14471429D01*
X35161904Y15538096D02*
X35161904Y15157143D01*
X34361904Y15157143D01*
X35085714Y16261905D02*
X35123809Y16223810D01*
X35161904Y16109524D01*
X35161904Y16033334D01*
X35123809Y15919048D01*
X35047619Y15842858D01*
X34971428Y15804762D01*
X34819047Y15766667D01*
X34704761Y15766667D01*
X34552380Y15804762D01*
X34476190Y15842858D01*
X34400000Y15919048D01*
X34361904Y16033334D01*
X34361904Y16109524D01*
X34400000Y16223810D01*
X34438095Y16261905D01*
%TO.C,C2*%
X13460000Y15407836D02*
X13460000Y15192164D01*
X12740000Y15407836D02*
X12740000Y15192164D01*
%TO.C,C3*%
X12235000Y16361252D02*
X12235000Y15838748D01*
X10765000Y16361252D02*
X10765000Y15838748D01*
%TO.C,C4*%
X23660000Y6212164D02*
X23660000Y6427836D01*
X22940000Y6212164D02*
X22940000Y6427836D01*
%TO.C,C5*%
X23940000Y17387836D02*
X23940000Y17172164D01*
X24660000Y17387836D02*
X24660000Y17172164D01*
%TO.C,C7*%
X18440000Y17387836D02*
X18440000Y17172164D01*
X19160000Y17387836D02*
X19160000Y17172164D01*
%TO.C,C12*%
X26387836Y13190000D02*
X26172164Y13190000D01*
X26387836Y13910000D02*
X26172164Y13910000D01*
%TO.C,C13*%
X26387836Y6910000D02*
X26172164Y6910000D01*
X26387836Y6190000D02*
X26172164Y6190000D01*
%TO.C,D1*%
X24565000Y20812500D02*
X24565000Y18527500D01*
X24565000Y18527500D02*
X26035000Y18527500D01*
X26035000Y18527500D02*
X26035000Y20812500D01*
%TO.C,D3*%
X21565000Y20812499D02*
X21565000Y18527499D01*
X23035000Y18527499D02*
X23035000Y20812499D01*
X21565000Y18527499D02*
X23035000Y18527499D01*
%TO.C,J1*%
X8580000Y13300000D02*
X8580000Y11300000D01*
X6020000Y13300000D02*
X6020000Y11300000D01*
X6020000Y9410000D02*
G75*
G03*
X8580000Y9410000I1280000J0D01*
G01*
X8580000Y15190000D02*
G75*
G03*
X6020000Y15190000I-1280000J0D01*
G01*
%TO.C,R1*%
X7146359Y16720000D02*
X7453641Y16720000D01*
X7146359Y17480000D02*
X7453641Y17480000D01*
%TO.C,R2*%
X14430000Y7963641D02*
X14430000Y7656359D01*
X13670000Y7963641D02*
X13670000Y7656359D01*
%TO.C,R3*%
X7453641Y7120000D02*
X7146359Y7120000D01*
X7453641Y7880000D02*
X7146359Y7880000D01*
%TO.C,R11*%
X23680000Y17156359D02*
X23680000Y17463641D01*
X22920000Y17156359D02*
X22920000Y17463641D01*
%TO.C,R12*%
X26156359Y14170000D02*
X26463641Y14170000D01*
X26156359Y14930000D02*
X26463641Y14930000D01*
%TO.C,R13*%
X26156359Y7930000D02*
X26463641Y7930000D01*
X26156359Y7170000D02*
X26463641Y7170000D01*
%TO.C,R15*%
X22680000Y17156359D02*
X22680000Y17463641D01*
X21920000Y17156359D02*
X21920000Y17463641D01*
%TO.C,SW1*%
X28650000Y13600000D02*
X28650000Y11000000D01*
X29950000Y11000000D02*
X29950000Y13600000D01*
X31100000Y9300000D02*
X30300000Y9300000D01*
X29950000Y13600000D02*
X28650000Y13600000D01*
X27500000Y9300000D02*
X28300000Y9300000D01*
X28300000Y15300000D02*
X27500000Y15300000D01*
X27500000Y15300000D02*
X27500000Y9300000D01*
X28650000Y11000000D02*
X29950000Y11000000D01*
X30300000Y15300000D02*
X31100000Y15300000D01*
X31100000Y15300000D02*
X31100000Y9300000D01*
%TO.C,U1*%
X13860000Y12300000D02*
X13860000Y13100000D01*
X13860000Y12300000D02*
X13860000Y11500000D01*
X10740000Y12300000D02*
X10740000Y13100000D01*
X10740000Y12300000D02*
X10740000Y10500000D01*
%TO.C,C8*%
X22310000Y6192164D02*
X22310000Y6407836D01*
X21590000Y6192164D02*
X21590000Y6407836D01*
%TO.C,C11*%
X17510000Y6407836D02*
X17510000Y6192164D01*
X16790000Y6407836D02*
X16790000Y6192164D01*
%TO.C,R6*%
X26463641Y8170000D02*
X26156359Y8170000D01*
X26463641Y8930000D02*
X26156359Y8930000D01*
%TO.C,R7*%
X26463640Y9930000D02*
X26156358Y9930000D01*
X26463640Y9170000D02*
X26156358Y9170000D01*
%TO.C,R9*%
X26463640Y11420000D02*
X26156358Y11420000D01*
X26463640Y12180000D02*
X26156358Y12180000D01*
%TO.C,U2*%
X24410000Y9190000D02*
X23685000Y9190000D01*
X24410000Y14685000D02*
X24410000Y15410000D01*
X24410000Y15410000D02*
X23685000Y15410000D01*
X18190000Y14685000D02*
X18190000Y15410000D01*
X24410000Y9915000D02*
X24410000Y9190000D01*
X18190000Y9915000D02*
X18190000Y9190000D01*
X18190000Y15410000D02*
X18915000Y15410000D01*
%TO.C,Y1*%
X17715000Y4815000D02*
X17715000Y7600000D01*
X21385000Y7600000D02*
X21385000Y5000000D01*
X17915000Y4815000D02*
X17715000Y4815000D01*
%TO.C,J3*%
X32212000Y18710000D02*
X33542000Y18710000D01*
X32212000Y16110000D02*
X34812000Y16110000D01*
X37412000Y18710000D02*
X37412000Y5890000D01*
X34812000Y16110000D02*
X34812000Y18710000D01*
X32212000Y16110000D02*
X32212000Y5890000D01*
X32212000Y17380000D02*
X32212000Y18710000D01*
X34812000Y18710000D02*
X37412000Y18710000D01*
X32212000Y5890000D02*
X37412000Y5890000D01*
%TO.C,C1*%
X12235000Y8238748D02*
X12235000Y8761252D01*
X10765000Y8238748D02*
X10765000Y8761252D01*
%TO.C,Q1*%
X15550000Y18610000D02*
X14900000Y18610000D01*
X15550000Y15490000D02*
X17225000Y15490000D01*
X15550000Y18610000D02*
X16200000Y18610000D01*
X15550000Y15490000D02*
X14900000Y15490000D01*
%TO.C,R14*%
X15703641Y15180000D02*
X15396359Y15180000D01*
X15703641Y14420000D02*
X15396359Y14420000D01*
%TO.C,R10*%
X15396359Y14180000D02*
X15703641Y14180000D01*
X15396359Y13420000D02*
X15703641Y13420000D01*
%TO.C,C6*%
X15462164Y9660000D02*
X15677836Y9660000D01*
X15462164Y8940000D02*
X15677836Y8940000D01*
%TO.C,R4*%
X15703641Y12180000D02*
X15396359Y12180000D01*
X15703641Y11420000D02*
X15396359Y11420000D01*
%TO.C,R5*%
X15703641Y13180000D02*
X15396359Y13180000D01*
X15703641Y12420000D02*
X15396359Y12420000D01*
%TO.C,R8*%
X15703641Y11180000D02*
X15396359Y11180000D01*
X15703641Y10420000D02*
X15396359Y10420000D01*
%TO.C,kibuzzard-631DD70B*%
G36*
X26607211Y20602297D02*
G01*
X26629991Y20523399D01*
X26629991Y20470059D01*
X26472194Y20470059D01*
X26468860Y20500062D01*
X26467749Y20532289D01*
X26470527Y20568960D01*
X26481639Y20600075D01*
X26504976Y20621189D01*
X26544425Y20628967D01*
X26607211Y20602297D01*
G37*
G36*
X26886134Y20648970D02*
G01*
X26916138Y20620633D01*
X26930584Y20581184D01*
X26934474Y20535622D01*
X26933363Y20501729D01*
X26930029Y20470059D01*
X26743339Y20470059D01*
X26743339Y20543401D01*
X26765008Y20628412D01*
X26836684Y20660083D01*
X26886134Y20648970D01*
G37*
G36*
X27195443Y19156567D02*
G01*
X27188274Y19108240D01*
X27176403Y19060848D01*
X27159944Y19014849D01*
X27139056Y18970683D01*
X27113939Y18928779D01*
X27084836Y18889537D01*
X27052026Y18853338D01*
X27015826Y18820528D01*
X26976585Y18791425D01*
X26934680Y18766308D01*
X26890515Y18745419D01*
X26844515Y18728960D01*
X26797124Y18717090D01*
X26748797Y18709921D01*
X26700000Y18707524D01*
X26651203Y18709921D01*
X26602876Y18717090D01*
X26555485Y18728960D01*
X26509485Y18745419D01*
X26465320Y18766308D01*
X26423415Y18791425D01*
X26384174Y18820528D01*
X26347974Y18853338D01*
X26315164Y18889537D01*
X26286061Y18928779D01*
X26260944Y18970683D01*
X26240056Y19014849D01*
X26223597Y19060848D01*
X26211726Y19108240D01*
X26204557Y19156567D01*
X26202160Y19205364D01*
X26202160Y19205456D01*
X26356624Y19205456D01*
X26795568Y19205456D01*
X26852797Y19208234D01*
X26904470Y19216569D01*
X26949753Y19231571D01*
X26987814Y19254351D01*
X27040598Y19326027D01*
X27054350Y19376450D01*
X27058934Y19437707D01*
X27054350Y19499937D01*
X27040598Y19551055D01*
X27018234Y19592171D01*
X26987814Y19624397D01*
X26949753Y19648012D01*
X26904470Y19663291D01*
X26852797Y19671626D01*
X26795568Y19674404D01*
X26356624Y19674404D01*
X26356624Y19537720D01*
X26785566Y19537720D01*
X26858353Y19533275D01*
X26906137Y19517717D01*
X26932251Y19487714D01*
X26940030Y19439930D01*
X26932251Y19392146D01*
X26906693Y19362698D01*
X26859464Y19347696D01*
X26786677Y19343251D01*
X26356624Y19343251D01*
X26356624Y19205456D01*
X26202160Y19205456D01*
X26202160Y20007779D01*
X26341066Y20007779D01*
X26347116Y19939684D01*
X26365267Y19882084D01*
X26395518Y19834979D01*
X26460526Y19787890D01*
X26546648Y19772194D01*
X26628324Y19789974D01*
X26683331Y19834979D01*
X26720003Y19895542D01*
X26745561Y19959995D01*
X26765008Y20006667D01*
X26788344Y20048895D01*
X26817793Y20080010D01*
X26855575Y20092234D01*
X26888357Y20087233D01*
X26917249Y20068897D01*
X26937252Y20032782D01*
X26944475Y19975552D01*
X26940586Y19920129D01*
X26928918Y19873873D01*
X26895580Y19802197D01*
X27006705Y19762192D01*
X27040598Y19838869D01*
X27054350Y19898598D01*
X27058934Y19975552D01*
X27053069Y20053525D01*
X27035474Y20117052D01*
X27006149Y20166132D01*
X26942391Y20213221D01*
X26856686Y20228917D01*
X26804874Y20224195D01*
X26762786Y20210026D01*
X26700556Y20161687D01*
X26660551Y20097234D01*
X26633325Y20030004D01*
X26616656Y19987221D01*
X26596098Y19948327D01*
X26569428Y19919990D01*
X26534424Y19908877D01*
X26490591Y19920978D01*
X26464292Y19957279D01*
X26455525Y20017780D01*
X26466638Y20096123D01*
X26493308Y20157797D01*
X26387739Y20197802D01*
X26355512Y20118348D01*
X26344678Y20067092D01*
X26341066Y20007779D01*
X26202160Y20007779D01*
X26202160Y20511175D01*
X26348845Y20511175D01*
X26353846Y20418941D01*
X26365514Y20333375D01*
X27033375Y20333375D01*
X27042126Y20381437D01*
X27048377Y20430054D01*
X27052127Y20478115D01*
X27053378Y20524510D01*
X27050738Y20579378D01*
X27042821Y20630634D01*
X27028652Y20676751D01*
X27007261Y20716201D01*
X26940586Y20773430D01*
X26893774Y20789265D01*
X26836684Y20794544D01*
X26790011Y20788293D01*
X26745561Y20769541D01*
X26706668Y20733286D01*
X26676664Y20674529D01*
X26616656Y20738426D01*
X26576096Y20756345D01*
X26529979Y20762318D01*
X26465526Y20752316D01*
X26407186Y20714534D01*
X26364958Y20637857D01*
X26352873Y20581739D01*
X26348845Y20511175D01*
X26202160Y20511175D01*
X26202160Y20794636D01*
X26204557Y20843433D01*
X26211726Y20891760D01*
X26223597Y20939152D01*
X26240056Y20985151D01*
X26260944Y21029317D01*
X26286061Y21071221D01*
X26315164Y21110463D01*
X26347974Y21146662D01*
X26384174Y21179472D01*
X26423415Y21208575D01*
X26465320Y21233692D01*
X26509485Y21254581D01*
X26555485Y21271040D01*
X26602876Y21282910D01*
X26651203Y21290079D01*
X26700000Y21292476D01*
X26748797Y21290079D01*
X26797124Y21282910D01*
X26844515Y21271040D01*
X26890515Y21254581D01*
X26934680Y21233692D01*
X26976585Y21208575D01*
X27015826Y21179472D01*
X27052026Y21146662D01*
X27084836Y21110463D01*
X27113939Y21071221D01*
X27139056Y21029317D01*
X27159944Y20985151D01*
X27176403Y20939152D01*
X27188274Y20891760D01*
X27195443Y20843433D01*
X27197840Y20794636D01*
X27197840Y19205364D01*
X27195443Y19156567D01*
G37*
%TO.C,kibuzzard-631DCF2A*%
G36*
X37539958Y9265494D02*
G01*
X41338548Y9265494D01*
X41389663Y9262983D01*
X41440286Y9255473D01*
X41489930Y9243038D01*
X41538115Y9225797D01*
X41584378Y9203916D01*
X41628274Y9177606D01*
X41669380Y9147120D01*
X41707300Y9112752D01*
X41741668Y9074832D01*
X41772154Y9033726D01*
X41798464Y8989830D01*
X41820345Y8943567D01*
X41837586Y8895382D01*
X41850021Y8845738D01*
X41857531Y8795115D01*
X41860042Y8744000D01*
X41857531Y8692885D01*
X41850021Y8642262D01*
X41837586Y8592618D01*
X41820345Y8544433D01*
X41798464Y8498170D01*
X41772154Y8454274D01*
X41741668Y8413168D01*
X41707300Y8375248D01*
X41669380Y8340880D01*
X41628274Y8310394D01*
X41584378Y8284084D01*
X41538115Y8262203D01*
X41489930Y8244962D01*
X41440286Y8232527D01*
X41389663Y8225017D01*
X41338548Y8222506D01*
X37539958Y8222506D01*
X37539958Y8986887D01*
X37788005Y8986887D01*
X37982077Y8986887D01*
X37982077Y8371334D01*
X38129714Y8371334D01*
X38366649Y8371334D01*
X38525002Y8371334D01*
X38552386Y8435777D01*
X38584533Y8507661D01*
X38619061Y8581926D01*
X38653589Y8653512D01*
X38688564Y8579694D01*
X38722050Y8505875D01*
X38752262Y8435330D01*
X38777414Y8371334D01*
X38935768Y8371334D01*
X40203783Y8371334D01*
X40350230Y8371334D01*
X40350230Y8642797D01*
X40426430Y8642797D01*
X40466762Y8575378D01*
X40504416Y8508852D01*
X40538498Y8441432D01*
X40568114Y8371334D01*
X40721705Y8371334D01*
X40747899Y8371334D01*
X40906252Y8371334D01*
X40933636Y8435777D01*
X40965783Y8507661D01*
X41000311Y8581926D01*
X41034839Y8653512D01*
X41069814Y8579694D01*
X41103300Y8505875D01*
X41133513Y8435330D01*
X41158664Y8371334D01*
X41317018Y8371334D01*
X41284871Y8449320D01*
X41262993Y8496945D01*
X41237841Y8548142D01*
X41210010Y8601869D01*
X41180096Y8657084D01*
X41148842Y8711853D01*
X41116993Y8764241D01*
X41305111Y9108331D01*
X41157474Y9108331D01*
X41034839Y8872588D01*
X40918158Y9108331D01*
X40759805Y9108331D01*
X40952686Y8760669D01*
X40923516Y8708430D01*
X40893155Y8654108D01*
X40862943Y8599488D01*
X40834219Y8546356D01*
X40807430Y8495755D01*
X40783022Y8448725D01*
X40747899Y8371334D01*
X40721705Y8371334D01*
X40687772Y8449320D01*
X40646696Y8531473D01*
X40602643Y8610055D01*
X40559780Y8678516D01*
X40611870Y8712151D01*
X40646696Y8758288D01*
X40666341Y8813652D01*
X40672889Y8874969D01*
X40667978Y8932863D01*
X40653244Y8982720D01*
X40596689Y9058325D01*
X40556208Y9084221D01*
X40508583Y9102378D01*
X40454410Y9113094D01*
X40394283Y9116666D01*
X40352611Y9115475D01*
X40302605Y9112498D01*
X40250813Y9106545D01*
X40203783Y9097616D01*
X40203783Y8371334D01*
X38935768Y8371334D01*
X38903621Y8449320D01*
X38881743Y8496945D01*
X38856591Y8548142D01*
X38828760Y8601869D01*
X38798846Y8657084D01*
X38767592Y8711853D01*
X38735743Y8764241D01*
X38923861Y9108331D01*
X38776224Y9108331D01*
X38653589Y8872588D01*
X38536908Y9108331D01*
X38378555Y9108331D01*
X38571436Y8760669D01*
X38542266Y8708430D01*
X38511905Y8654108D01*
X38481693Y8599488D01*
X38452969Y8546356D01*
X38426180Y8495755D01*
X38401772Y8448725D01*
X38366649Y8371334D01*
X38129714Y8371334D01*
X38129714Y8986887D01*
X38323786Y8986887D01*
X38323786Y9108331D01*
X37788005Y9108331D01*
X37788005Y8986887D01*
X37539958Y8986887D01*
X37539958Y9265494D01*
G37*
G36*
X40446968Y8982423D02*
G01*
X40488343Y8961884D01*
X40515132Y8926761D01*
X40524061Y8876159D01*
X40490724Y8793411D01*
X40446968Y8771533D01*
X40382377Y8764241D01*
X40350230Y8764241D01*
X40350230Y8985697D01*
X40374043Y8988673D01*
X40394283Y8989269D01*
X40446968Y8982423D01*
G37*
%TO.C,kibuzzard-631DCF4E*%
G36*
X38025237Y7461995D02*
G01*
X38066611Y7441456D01*
X38093400Y7406333D01*
X38102330Y7355731D01*
X38068993Y7272983D01*
X38025237Y7251105D01*
X37960646Y7243813D01*
X37928499Y7243813D01*
X37928499Y7465269D01*
X37952311Y7468245D01*
X37972552Y7468841D01*
X38025237Y7461995D01*
G37*
G36*
X37534005Y7753400D02*
G01*
X41332595Y7753400D01*
X41384877Y7750832D01*
X41436656Y7743151D01*
X41487433Y7730432D01*
X41536718Y7712797D01*
X41584038Y7690417D01*
X41628936Y7663506D01*
X41670980Y7632324D01*
X41709766Y7597171D01*
X41744919Y7558385D01*
X41776101Y7516341D01*
X41803012Y7471443D01*
X41825392Y7424123D01*
X41843027Y7374838D01*
X41855746Y7324061D01*
X41863426Y7272282D01*
X41865995Y7220000D01*
X41863426Y7167718D01*
X41855746Y7115939D01*
X41843027Y7065162D01*
X41825392Y7015877D01*
X41803012Y6968557D01*
X41776101Y6923659D01*
X41744919Y6881615D01*
X41709766Y6842829D01*
X41670980Y6807676D01*
X41628936Y6776494D01*
X41584038Y6749583D01*
X41536718Y6727203D01*
X41487433Y6709568D01*
X41436656Y6696849D01*
X41384877Y6689168D01*
X41332595Y6686600D01*
X37534005Y6686600D01*
X37534005Y6850906D01*
X37782052Y6850906D01*
X37928499Y6850906D01*
X37928499Y7122369D01*
X38004699Y7122369D01*
X38045031Y7054950D01*
X38082685Y6988423D01*
X38116766Y6921004D01*
X38146383Y6850906D01*
X38299974Y6850906D01*
X38282360Y6891388D01*
X38360696Y6891388D01*
X38442849Y6855073D01*
X38506845Y6840339D01*
X38589296Y6835428D01*
X38672838Y6841712D01*
X38740902Y6860564D01*
X38793488Y6891983D01*
X38843941Y6960295D01*
X38860758Y7052122D01*
X38855698Y7107635D01*
X38840518Y7152730D01*
X38788725Y7219405D01*
X38719669Y7262267D01*
X38647636Y7291438D01*
X38601797Y7309297D01*
X38560125Y7331323D01*
X38529764Y7359898D01*
X38517858Y7397403D01*
X38530823Y7444367D01*
X38569717Y7472545D01*
X38634539Y7481938D01*
X38718479Y7470031D01*
X38784558Y7441456D01*
X38794033Y7466459D01*
X38938149Y7466459D01*
X39132221Y7466459D01*
X39132221Y6850906D01*
X39279858Y6850906D01*
X39279858Y7220000D01*
X40726468Y7220000D01*
X40731825Y7130554D01*
X40747899Y7052717D01*
X40773795Y6986637D01*
X40808621Y6932464D01*
X40851930Y6890197D01*
X40903275Y6859836D01*
X40962063Y6841530D01*
X41027696Y6835428D01*
X41100473Y6838405D01*
X41161641Y6847334D01*
X41243199Y6868766D01*
X41243199Y7236669D01*
X41096752Y7236669D01*
X41096752Y6967588D01*
X41068177Y6964016D01*
X41039602Y6962825D01*
X40968462Y6978452D01*
X40916968Y7025333D01*
X40893817Y7074744D01*
X40879926Y7139633D01*
X40875296Y7220000D01*
X40877826Y7274620D01*
X40885416Y7324180D01*
X40918754Y7405142D01*
X40977689Y7458125D01*
X41065796Y7477175D01*
X41144377Y7464078D01*
X41208671Y7434313D01*
X41246771Y7550994D01*
X41222363Y7565281D01*
X41181286Y7583141D01*
X41122350Y7598023D01*
X41045555Y7604572D01*
X40980964Y7598470D01*
X40920539Y7580164D01*
X40866068Y7549654D01*
X40819336Y7506941D01*
X40780939Y7452321D01*
X40751471Y7386092D01*
X40732718Y7308553D01*
X40726468Y7220000D01*
X39279858Y7220000D01*
X39279858Y7466459D01*
X39473930Y7466459D01*
X39473930Y7587903D01*
X38938149Y7587903D01*
X38938149Y7466459D01*
X38794033Y7466459D01*
X38827421Y7554566D01*
X38742291Y7589094D01*
X38687373Y7600702D01*
X38623824Y7604572D01*
X38550865Y7598090D01*
X38489151Y7578643D01*
X38438682Y7546231D01*
X38388229Y7476580D01*
X38371411Y7384306D01*
X38390461Y7296795D01*
X38438682Y7237859D01*
X38503571Y7198569D01*
X38572627Y7171184D01*
X38622633Y7150348D01*
X38667877Y7125345D01*
X38701214Y7093794D01*
X38714311Y7053313D01*
X38708954Y7018189D01*
X38689308Y6987233D01*
X38650613Y6965802D01*
X38589296Y6958063D01*
X38529913Y6962230D01*
X38480354Y6974731D01*
X38403558Y7010450D01*
X38360696Y6891388D01*
X38282360Y6891388D01*
X38266041Y6928892D01*
X38224964Y7011045D01*
X38180911Y7089627D01*
X38138049Y7158088D01*
X38190139Y7191723D01*
X38224964Y7237859D01*
X38244610Y7293223D01*
X38251158Y7354541D01*
X38246247Y7412435D01*
X38231513Y7462292D01*
X38174958Y7537897D01*
X38134477Y7563793D01*
X38086852Y7581950D01*
X38032679Y7592666D01*
X37972552Y7596238D01*
X37930880Y7595047D01*
X37880874Y7592070D01*
X37829082Y7586117D01*
X37782052Y7577188D01*
X37782052Y6850906D01*
X37534005Y6850906D01*
X37534005Y7753400D01*
G37*
%TO.C,kibuzzard-631DD707*%
G36*
X23646660Y19489936D02*
G01*
X23667079Y19449098D01*
X23673886Y19388812D01*
X23673886Y19358809D01*
X23467193Y19358809D01*
X23464415Y19381034D01*
X23463859Y19399925D01*
X23470249Y19449098D01*
X23489418Y19487714D01*
X23522200Y19512717D01*
X23569428Y19521051D01*
X23646660Y19489936D01*
G37*
G36*
X24191572Y19173617D02*
G01*
X24184460Y19125667D01*
X24172681Y19078646D01*
X24156351Y19033006D01*
X24135626Y18989186D01*
X24110705Y18947608D01*
X24081829Y18908673D01*
X24049276Y18872757D01*
X24013359Y18840203D01*
X23974424Y18811327D01*
X23932847Y18786407D01*
X23889027Y18765682D01*
X23843386Y18749351D01*
X23796365Y18737573D01*
X23748416Y18730460D01*
X23700000Y18728082D01*
X23651584Y18730460D01*
X23603635Y18737573D01*
X23556614Y18749351D01*
X23510973Y18765682D01*
X23467153Y18786407D01*
X23425576Y18811327D01*
X23386641Y18840203D01*
X23350724Y18872757D01*
X23318171Y18908673D01*
X23289295Y18947608D01*
X23264374Y18989186D01*
X23243649Y19033006D01*
X23227319Y19078646D01*
X23215540Y19125667D01*
X23208428Y19173617D01*
X23206049Y19222032D01*
X23206049Y19399925D01*
X23344956Y19399925D01*
X23346067Y19361031D01*
X23348845Y19314359D01*
X23354401Y19266019D01*
X23362736Y19222125D01*
X24040598Y19222125D01*
X24040598Y19358809D01*
X23787233Y19358809D01*
X23787233Y19429929D01*
X23850158Y19467572D01*
X23912249Y19502716D01*
X23975173Y19534525D01*
X24040598Y19562168D01*
X24040598Y19705519D01*
X23967811Y19673848D01*
X23891135Y19635510D01*
X23817793Y19594394D01*
X23753896Y19554389D01*
X23722503Y19603006D01*
X23679442Y19635510D01*
X23627769Y19653846D01*
X23570539Y19659958D01*
X23516505Y19655374D01*
X23469971Y19641622D01*
X23399407Y19588837D01*
X23375237Y19551055D01*
X23358291Y19506605D01*
X23348289Y19456043D01*
X23344956Y19399925D01*
X23206049Y19399925D01*
X23206049Y19761081D01*
X23352734Y19761081D01*
X23791678Y19761081D01*
X23848908Y19763859D01*
X23900581Y19772194D01*
X23945864Y19787196D01*
X23983924Y19809976D01*
X24036709Y19881652D01*
X24050460Y19932075D01*
X24055044Y19993332D01*
X24050460Y20055562D01*
X24036709Y20106680D01*
X24014345Y20147796D01*
X23983924Y20180023D01*
X23945864Y20203637D01*
X23900581Y20218916D01*
X23848908Y20227251D01*
X23791678Y20230029D01*
X23352734Y20230029D01*
X23352734Y20093345D01*
X23781677Y20093345D01*
X23854464Y20088900D01*
X23902248Y20073342D01*
X23928362Y20043339D01*
X23936141Y19995555D01*
X23928362Y19947771D01*
X23902803Y19918323D01*
X23855575Y19903321D01*
X23782788Y19898876D01*
X23352734Y19898876D01*
X23352734Y19761081D01*
X23206049Y19761081D01*
X23206049Y20324485D01*
X23352734Y20324485D01*
X24040598Y20324485D01*
X24040598Y20447834D01*
X23583874Y20447834D01*
X23660118Y20489135D01*
X23736239Y20528585D01*
X23812236Y20566182D01*
X23888233Y20601927D01*
X23964354Y20635820D01*
X24040598Y20667861D01*
X24040598Y20777875D01*
X23352734Y20777875D01*
X23352734Y20654526D01*
X23776121Y20654526D01*
X23732782Y20634940D01*
X23682776Y20611743D01*
X23628602Y20585629D01*
X23572762Y20557292D01*
X23515949Y20527427D01*
X23458859Y20496729D01*
X23403713Y20465614D01*
X23352734Y20434499D01*
X23352734Y20324485D01*
X23206049Y20324485D01*
X23206049Y20777968D01*
X23208428Y20826383D01*
X23215540Y20874333D01*
X23227319Y20921354D01*
X23243649Y20966994D01*
X23264374Y21010814D01*
X23289295Y21052392D01*
X23318171Y21091327D01*
X23350724Y21127243D01*
X23386641Y21159797D01*
X23425576Y21188673D01*
X23467153Y21213593D01*
X23510973Y21234318D01*
X23556614Y21250649D01*
X23603635Y21262427D01*
X23651584Y21269540D01*
X23700000Y21271918D01*
X23748416Y21269540D01*
X23796365Y21262427D01*
X23843386Y21250649D01*
X23889027Y21234318D01*
X23932847Y21213593D01*
X23974424Y21188673D01*
X24013359Y21159797D01*
X24049276Y21127243D01*
X24081829Y21091327D01*
X24110705Y21052392D01*
X24135626Y21010814D01*
X24156351Y20966994D01*
X24172681Y20921354D01*
X24184460Y20874333D01*
X24191572Y20826383D01*
X24193951Y20777968D01*
X24193951Y19222032D01*
X24191572Y19173617D01*
G37*
%TO.C,kibuzzard-63202282*%
G36*
X3674309Y3304557D02*
G01*
X3625982Y3311726D01*
X3578591Y3323597D01*
X3532591Y3340056D01*
X3488426Y3360944D01*
X3446521Y3386061D01*
X3407280Y3415164D01*
X3371080Y3447974D01*
X3338271Y3484174D01*
X3309167Y3523415D01*
X3284050Y3565320D01*
X3263162Y3609485D01*
X3246703Y3655485D01*
X3234832Y3702876D01*
X3227663Y3751203D01*
X3225266Y3800000D01*
X3227663Y3848797D01*
X3234832Y3897124D01*
X3246703Y3944515D01*
X3263162Y3990515D01*
X3284050Y4034680D01*
X3309167Y4076585D01*
X3338271Y4115826D01*
X3363240Y4143376D01*
X3723199Y4143376D01*
X3735978Y4081146D01*
X3754314Y4003359D01*
X3769007Y3945142D01*
X3784935Y3884578D01*
X3802097Y3821669D01*
X3820248Y3757526D01*
X3839139Y3693258D01*
X3858771Y3628867D01*
X3887942Y3537189D01*
X3915445Y3455512D01*
X4056574Y3455512D01*
X4077811Y3514717D01*
X4098554Y3575281D01*
X4118804Y3637202D01*
X4138251Y3699432D01*
X4156586Y3760921D01*
X4173811Y3821669D01*
X4197425Y3910153D01*
X4218261Y3994469D01*
X4219532Y4000025D01*
X4317717Y4000025D01*
X4362167Y3886677D01*
X4429954Y3913903D01*
X4501074Y3953352D01*
X4501074Y3568860D01*
X4356611Y3568860D01*
X4356611Y3455512D01*
X4774441Y3455512D01*
X4774441Y3543301D01*
X4998914Y3543301D01*
X5007248Y3500518D01*
X5029473Y3469403D01*
X5061144Y3449956D01*
X5098926Y3443289D01*
X5167824Y3468847D01*
X5171855Y3478849D01*
X5421189Y3478849D01*
X5455637Y3466625D01*
X5503977Y3454401D01*
X5558428Y3444956D01*
X5612324Y3441066D01*
X5676498Y3445095D01*
X5731227Y3457179D01*
X5776789Y3476626D01*
X5813460Y3502741D01*
X5861244Y3572194D01*
X5876801Y3659982D01*
X5869439Y3715823D01*
X5847353Y3763329D01*
X5811932Y3801389D01*
X5764565Y3828892D01*
X5826795Y3886677D01*
X5850131Y3965576D01*
X5836796Y4042252D01*
X5795680Y4103927D01*
X5725116Y4144488D01*
X5678582Y4155322D01*
X5624547Y4158934D01*
X5565512Y4153794D01*
X5512867Y4138376D01*
X5433412Y4097815D01*
X5482307Y3997802D01*
X5548427Y4029473D01*
X5625659Y4042252D01*
X5688444Y4020583D01*
X5711225Y3961131D01*
X5700668Y3918904D01*
X5673442Y3892234D01*
X5635660Y3877787D01*
X5593432Y3873342D01*
X5542315Y3873342D01*
X5542315Y3759995D01*
X5584542Y3759995D01*
X5645383Y3754578D01*
X5694556Y3738326D01*
X5727060Y3708461D01*
X5737895Y3662205D01*
X5709558Y3587751D01*
X5670803Y3565248D01*
X5611212Y3557747D01*
X5558567Y3560803D01*
X5513978Y3569971D01*
X5447859Y3593307D01*
X5421189Y3478849D01*
X5171855Y3478849D01*
X5197827Y3543301D01*
X5167824Y3615532D01*
X5098926Y3641091D01*
X5061144Y3634424D01*
X5029473Y3615532D01*
X5007248Y3584973D01*
X4998914Y3543301D01*
X4774441Y3543301D01*
X4774441Y3568860D01*
X4637757Y3568860D01*
X4637757Y4143376D01*
X4544412Y4143376D01*
X4496629Y4100037D01*
X4437732Y4060033D01*
X4375502Y4025584D01*
X4317717Y4000025D01*
X4219532Y4000025D01*
X4236180Y4072812D01*
X4251042Y4143376D01*
X4107691Y4143376D01*
X4097690Y4085591D01*
X4085466Y4018916D01*
X4071576Y3946824D01*
X4056574Y3872787D01*
X4040461Y3798333D01*
X4023236Y3724991D01*
X4005456Y3656232D01*
X3987676Y3595530D01*
X3969757Y3657065D01*
X3951561Y3726102D01*
X3933781Y3799444D01*
X3917112Y3873898D01*
X3901693Y3947796D01*
X3887664Y4019472D01*
X3875996Y4085730D01*
X3867661Y4143376D01*
X3723199Y4143376D01*
X3363240Y4143376D01*
X3371080Y4152026D01*
X3407280Y4184836D01*
X3446521Y4213939D01*
X3488426Y4239056D01*
X3532591Y4259944D01*
X3578591Y4276403D01*
X3625982Y4288274D01*
X3674309Y4295443D01*
X3723106Y4297840D01*
X5876894Y4297840D01*
X5925691Y4295443D01*
X5974018Y4288274D01*
X6021409Y4276403D01*
X6067409Y4259944D01*
X6111574Y4239056D01*
X6153479Y4213939D01*
X6192720Y4184836D01*
X6228920Y4152026D01*
X6261729Y4115826D01*
X6290833Y4076585D01*
X6315950Y4034680D01*
X6336838Y3990515D01*
X6353297Y3944515D01*
X6365168Y3897124D01*
X6372337Y3848797D01*
X6374734Y3800000D01*
X6372337Y3751203D01*
X6365168Y3702876D01*
X6353297Y3655485D01*
X6336838Y3609485D01*
X6315950Y3565320D01*
X6290833Y3523415D01*
X6261729Y3484174D01*
X6228920Y3447974D01*
X6192720Y3415164D01*
X6153479Y3386061D01*
X6111574Y3360944D01*
X6067409Y3340056D01*
X6021409Y3323597D01*
X5974018Y3311726D01*
X5925691Y3304557D01*
X5876894Y3302160D01*
X3723106Y3302160D01*
X3674309Y3304557D01*
G37*
%TO.C,kibuzzard-631DDA4D*%
G36*
X3738003Y20163002D02*
G01*
X3675869Y20172219D01*
X3614937Y20187482D01*
X3555794Y20208643D01*
X3499011Y20235500D01*
X3445133Y20267793D01*
X3394680Y20305211D01*
X3348137Y20347395D01*
X3305954Y20393938D01*
X3268535Y20444391D01*
X3236242Y20498268D01*
X3209385Y20555052D01*
X3202002Y20575686D01*
X4054068Y20575686D01*
X4139793Y20575686D01*
X4098359Y20357087D01*
X4244091Y20357087D01*
X4284096Y20575686D01*
X4398396Y20575686D01*
X4356963Y20357087D01*
X4502695Y20357087D01*
X4544129Y20575686D01*
X4718436Y20575686D01*
X4718436Y20721419D01*
X4571275Y20721419D01*
X4586550Y20801429D01*
X4792731Y20801429D01*
X4797643Y20691772D01*
X4812377Y20597117D01*
X4836933Y20517465D01*
X4871313Y20452814D01*
X4931638Y20389314D01*
X5007838Y20351214D01*
X5099913Y20338514D01*
X5191988Y20351214D01*
X5268188Y20389314D01*
X5328513Y20452814D01*
X5362892Y20517465D01*
X5387448Y20597117D01*
X5402182Y20691772D01*
X5407094Y20801429D01*
X5402182Y20910416D01*
X5387448Y21004490D01*
X5371105Y21057175D01*
X5525680Y21057175D01*
X5582830Y20911442D01*
X5669984Y20946447D01*
X5761424Y20997167D01*
X5761424Y20502820D01*
X5575686Y20502820D01*
X5575686Y20357087D01*
X6112896Y20357087D01*
X6112896Y20502820D01*
X5937160Y20502820D01*
X5937160Y20801429D01*
X6221481Y20801429D01*
X6226393Y20691772D01*
X6241127Y20597117D01*
X6265683Y20517465D01*
X6300063Y20452814D01*
X6360388Y20389314D01*
X6436588Y20351214D01*
X6528663Y20338514D01*
X6620738Y20351214D01*
X6696938Y20389314D01*
X6757263Y20452814D01*
X6791642Y20517465D01*
X6816198Y20597117D01*
X6830932Y20691772D01*
X6835844Y20801429D01*
X6830932Y20910416D01*
X6816198Y21004490D01*
X6791642Y21083652D01*
X6759174Y21144329D01*
X6947286Y21144329D01*
X7034440Y21021456D01*
X7124451Y21088607D01*
X7211605Y21108610D01*
X7294473Y21079321D01*
X7327334Y20995739D01*
X7300902Y20920015D01*
X7233751Y20842862D01*
X7191603Y20801965D01*
X7146597Y20759281D01*
X7101591Y20713918D01*
X7059443Y20664983D01*
X7022296Y20611941D01*
X6992292Y20554255D01*
X6972468Y20491390D01*
X6965860Y20422810D01*
X6965146Y20392806D01*
X6968718Y20357087D01*
X7545933Y20357087D01*
X7545933Y20502820D01*
X7165885Y20502820D01*
X7180887Y20549969D01*
X7217320Y20600689D01*
X7263040Y20649267D01*
X7305903Y20689986D01*
X7378769Y20761424D01*
X7443063Y20838576D01*
X7488783Y20920729D01*
X7505928Y21008597D01*
X7483068Y21119326D01*
X7421631Y21198621D01*
X7333049Y21245770D01*
X7228750Y21261486D01*
X7154276Y21254342D01*
X7079446Y21232911D01*
X7008901Y21196478D01*
X6947286Y21144329D01*
X6759174Y21144329D01*
X6757263Y21147901D01*
X6696938Y21211004D01*
X6620738Y21248866D01*
X6528663Y21261486D01*
X6438016Y21248786D01*
X6362293Y21210686D01*
X6301491Y21147186D01*
X6266487Y21082714D01*
X6241484Y21003597D01*
X6226482Y20909835D01*
X6221481Y20801429D01*
X5937160Y20801429D01*
X5937160Y21241484D01*
X5817145Y21241484D01*
X5755709Y21185762D01*
X5679985Y21134328D01*
X5599975Y21090036D01*
X5525680Y21057175D01*
X5371105Y21057175D01*
X5362892Y21083652D01*
X5328513Y21147901D01*
X5268188Y21211004D01*
X5191988Y21248866D01*
X5099913Y21261486D01*
X5009266Y21248786D01*
X4933543Y21210686D01*
X4872741Y21147186D01*
X4837737Y21082714D01*
X4812734Y21003597D01*
X4797732Y20909835D01*
X4792731Y20801429D01*
X4586550Y20801429D01*
X4601279Y20878581D01*
X4718436Y20878581D01*
X4718436Y21024314D01*
X4629854Y21024314D01*
X4671288Y21241484D01*
X4525555Y21241484D01*
X4484121Y21024314D01*
X4369821Y21024314D01*
X4412684Y21241484D01*
X4266951Y21241484D01*
X4225518Y21024314D01*
X4054068Y21024314D01*
X4054068Y20878581D01*
X4196943Y20878581D01*
X4166939Y20721419D01*
X4054068Y20721419D01*
X4054068Y20575686D01*
X3202002Y20575686D01*
X3188224Y20614195D01*
X3172961Y20675127D01*
X3163744Y20737261D01*
X3160662Y20800000D01*
X3163744Y20862739D01*
X3172961Y20924873D01*
X3188224Y20985805D01*
X3209385Y21044948D01*
X3236242Y21101732D01*
X3268535Y21155609D01*
X3305954Y21206062D01*
X3348137Y21252605D01*
X3394680Y21294789D01*
X3445133Y21332207D01*
X3499011Y21364500D01*
X3555794Y21391357D01*
X3614937Y21412518D01*
X3675869Y21427781D01*
X3738003Y21436998D01*
X3800742Y21440080D01*
X7799258Y21440080D01*
X7861997Y21436998D01*
X7924131Y21427781D01*
X7985063Y21412518D01*
X8044206Y21391357D01*
X8100989Y21364500D01*
X8154867Y21332207D01*
X8205320Y21294789D01*
X8251863Y21252605D01*
X8294046Y21206062D01*
X8331465Y21155609D01*
X8363758Y21101732D01*
X8390615Y21044948D01*
X8411776Y20985805D01*
X8427039Y20924873D01*
X8436256Y20862739D01*
X8439338Y20800000D01*
X8436256Y20737261D01*
X8427039Y20675127D01*
X8411776Y20614195D01*
X8390615Y20555052D01*
X8363758Y20498268D01*
X8331465Y20444391D01*
X8294046Y20393938D01*
X8251863Y20347395D01*
X8205320Y20305211D01*
X8154867Y20267793D01*
X8100989Y20235500D01*
X8044206Y20208643D01*
X7985063Y20187482D01*
X7924131Y20172219D01*
X7861997Y20163002D01*
X7799258Y20159920D01*
X3800742Y20159920D01*
X3738003Y20163002D01*
G37*
G36*
X4426971Y20721419D02*
G01*
X4312671Y20721419D01*
X4342675Y20878581D01*
X4455546Y20878581D01*
X4426971Y20721419D01*
G37*
G36*
X6528663Y20489961D02*
G01*
X6465440Y20509785D01*
X6418649Y20569257D01*
X6397218Y20630296D01*
X6384359Y20707687D01*
X6380073Y20801429D01*
X6380732Y20815716D01*
X6450081Y20815716D01*
X6471513Y20749279D01*
X6530091Y20721419D01*
X6586527Y20749279D01*
X6608673Y20815716D01*
X6586527Y20882867D01*
X6530091Y20911442D01*
X6471513Y20882867D01*
X6450081Y20815716D01*
X6380732Y20815716D01*
X6384359Y20894377D01*
X6397218Y20971291D01*
X6418649Y21032172D01*
X6465440Y21091644D01*
X6528663Y21111467D01*
X6592778Y21091644D01*
X6639391Y21032172D01*
X6660425Y20971291D01*
X6673046Y20894377D01*
X6677253Y20801429D01*
X6673046Y20707687D01*
X6660425Y20630296D01*
X6639391Y20569257D01*
X6592778Y20509785D01*
X6530091Y20490403D01*
X6528663Y20489961D01*
G37*
G36*
X5099913Y20489961D02*
G01*
X5036690Y20509785D01*
X4989899Y20569257D01*
X4968468Y20630296D01*
X4955609Y20707687D01*
X4951323Y20801429D01*
X4951982Y20815716D01*
X5021331Y20815716D01*
X5042763Y20749279D01*
X5101341Y20721419D01*
X5157777Y20749279D01*
X5179923Y20815716D01*
X5157777Y20882867D01*
X5101341Y20911442D01*
X5042763Y20882867D01*
X5021331Y20815716D01*
X4951982Y20815716D01*
X4955609Y20894377D01*
X4968468Y20971291D01*
X4989899Y21032172D01*
X5036690Y21091644D01*
X5099913Y21111467D01*
X5164028Y21091644D01*
X5210641Y21032172D01*
X5231675Y20971291D01*
X5244296Y20894377D01*
X5248503Y20801429D01*
X5244296Y20707687D01*
X5231675Y20630296D01*
X5210641Y20569257D01*
X5164028Y20509785D01*
X5101341Y20490403D01*
X5099913Y20489961D01*
G37*
%TO.C,kibuzzard-631DD701*%
G36*
X29866220Y17341791D02*
G01*
X29858028Y17286561D01*
X29844461Y17232399D01*
X29825650Y17179828D01*
X29801778Y17129353D01*
X29773073Y17081462D01*
X29739812Y17036615D01*
X29702315Y16995244D01*
X29660944Y16957747D01*
X29616097Y16924486D01*
X29568206Y16895781D01*
X29517732Y16871909D01*
X29465160Y16853098D01*
X29410999Y16839532D01*
X29355768Y16831339D01*
X29300000Y16828599D01*
X29244232Y16831339D01*
X29189001Y16839532D01*
X29134840Y16853098D01*
X29082268Y16871909D01*
X29031794Y16895781D01*
X28983903Y16924486D01*
X28939056Y16957747D01*
X28897685Y16995244D01*
X28860188Y17036615D01*
X28826927Y17081462D01*
X28798222Y17129353D01*
X28774350Y17179828D01*
X28755539Y17232399D01*
X28741972Y17286561D01*
X28733780Y17341791D01*
X28731040Y17397559D01*
X28731040Y17600865D01*
X28898680Y17600865D01*
X28899950Y17556415D01*
X28903125Y17503075D01*
X28909475Y17447830D01*
X28919000Y17397665D01*
X29693700Y17397665D01*
X29693700Y17553875D01*
X29404140Y17553875D01*
X29404140Y17635155D01*
X29476054Y17678176D01*
X29547015Y17718340D01*
X29618929Y17754694D01*
X29693700Y17786285D01*
X29693700Y17950115D01*
X29610515Y17913920D01*
X29522885Y17870105D01*
X29439065Y17823115D01*
X29366040Y17777395D01*
X29330163Y17832958D01*
X29280950Y17870105D01*
X29221895Y17891060D01*
X29156490Y17898045D01*
X29094736Y17892806D01*
X29041555Y17877090D01*
X28960910Y17816765D01*
X28933287Y17773585D01*
X28913920Y17722785D01*
X28902490Y17665000D01*
X28898680Y17600865D01*
X28731040Y17600865D01*
X28731040Y18295555D01*
X28889790Y18295555D01*
X28896704Y18217732D01*
X28917448Y18151904D01*
X28952020Y18098070D01*
X29026315Y18044254D01*
X29124740Y18026315D01*
X29218085Y18046635D01*
X29280950Y18098070D01*
X29322860Y18167285D01*
X29352070Y18240945D01*
X29374295Y18294285D01*
X29400965Y18342545D01*
X29434620Y18378105D01*
X29477800Y18392075D01*
X29515265Y18386360D01*
X29548285Y18365405D01*
X29571145Y18324130D01*
X29579400Y18258725D01*
X29574955Y18195384D01*
X29561620Y18142520D01*
X29523520Y18060605D01*
X29650520Y18014885D01*
X29689255Y18102515D01*
X29704971Y18170778D01*
X29710210Y18258725D01*
X29703507Y18347837D01*
X29683399Y18420438D01*
X29649885Y18476530D01*
X29577019Y18530346D01*
X29479070Y18548285D01*
X29419856Y18542888D01*
X29371755Y18526695D01*
X29300635Y18471450D01*
X29254915Y18397790D01*
X29223800Y18320955D01*
X29204750Y18272060D01*
X29181255Y18227610D01*
X29150775Y18195225D01*
X29110770Y18182525D01*
X29060676Y18196354D01*
X29030619Y18237841D01*
X29020600Y18306985D01*
X29033300Y18396520D01*
X29063780Y18467005D01*
X28943130Y18512725D01*
X28906300Y18421920D01*
X28893918Y18363341D01*
X28889790Y18295555D01*
X28731040Y18295555D01*
X28731040Y18630835D01*
X28907570Y18630835D01*
X29037110Y18630835D01*
X29037110Y18837845D01*
X29693700Y18837845D01*
X29693700Y18995325D01*
X29037110Y18995325D01*
X29037110Y19202335D01*
X28907570Y19202335D01*
X28907570Y18630835D01*
X28731040Y18630835D01*
X28731040Y19202441D01*
X28733780Y19258209D01*
X28741972Y19313439D01*
X28755539Y19367601D01*
X28774350Y19420172D01*
X28798222Y19470647D01*
X28826927Y19518538D01*
X28860188Y19563385D01*
X28897685Y19604756D01*
X28939056Y19642253D01*
X28983903Y19675514D01*
X29031794Y19704219D01*
X29082268Y19728091D01*
X29134840Y19746902D01*
X29189001Y19760468D01*
X29244232Y19768661D01*
X29300000Y19771401D01*
X29355768Y19768661D01*
X29410999Y19760468D01*
X29465160Y19746902D01*
X29517732Y19728091D01*
X29568206Y19704219D01*
X29616097Y19675514D01*
X29660944Y19642253D01*
X29702315Y19604756D01*
X29739812Y19563385D01*
X29773073Y19518538D01*
X29801778Y19470647D01*
X29825650Y19420172D01*
X29844461Y19367601D01*
X29858028Y19313439D01*
X29866220Y19258209D01*
X29868960Y19202441D01*
X29868960Y17397559D01*
X29866220Y17341791D01*
G37*
G36*
X29243485Y17703735D02*
G01*
X29266821Y17657063D01*
X29274600Y17588165D01*
X29274600Y17553875D01*
X29038380Y17553875D01*
X29035205Y17579275D01*
X29034570Y17600865D01*
X29041873Y17657063D01*
X29063780Y17701195D01*
X29101245Y17729770D01*
X29155220Y17739295D01*
X29243485Y17703735D01*
G37*
%TO.C,kibuzzard-631DCF21*%
G36*
X37533486Y12833400D02*
G01*
X38533114Y12833400D01*
X38585397Y12830832D01*
X38637176Y12823151D01*
X38687952Y12810432D01*
X38737238Y12792797D01*
X38784557Y12770417D01*
X38829456Y12743506D01*
X38871500Y12712324D01*
X38910285Y12677171D01*
X38945438Y12638385D01*
X38976620Y12596341D01*
X39003531Y12551443D01*
X39025912Y12504123D01*
X39043546Y12454838D01*
X39056265Y12404061D01*
X39063946Y12352282D01*
X39066514Y12300000D01*
X39063946Y12247718D01*
X39056265Y12195939D01*
X39043546Y12145162D01*
X39025912Y12095877D01*
X39003531Y12048557D01*
X38976620Y12003659D01*
X38945438Y11961615D01*
X38910285Y11922829D01*
X38871500Y11887676D01*
X38829456Y11856494D01*
X38784557Y11829583D01*
X38737238Y11807203D01*
X38687952Y11789568D01*
X38637176Y11776849D01*
X38585397Y11769168D01*
X38533114Y11766600D01*
X37533486Y11766600D01*
X37533486Y12300000D01*
X38012712Y12300000D01*
X38018070Y12210554D01*
X38034143Y12132717D01*
X38060039Y12066637D01*
X38094865Y12012464D01*
X38138174Y11970197D01*
X38189520Y11939836D01*
X38248307Y11921530D01*
X38313940Y11915428D01*
X38386717Y11918405D01*
X38447886Y11927334D01*
X38529443Y11948766D01*
X38529443Y12316669D01*
X38382996Y12316669D01*
X38382996Y12047588D01*
X38354421Y12044016D01*
X38325846Y12042825D01*
X38254707Y12058452D01*
X38203212Y12105333D01*
X38180061Y12154744D01*
X38166170Y12219633D01*
X38161540Y12300000D01*
X38164070Y12354620D01*
X38171661Y12404180D01*
X38204998Y12485142D01*
X38263934Y12538125D01*
X38352040Y12557175D01*
X38430621Y12544078D01*
X38494915Y12514313D01*
X38533015Y12630994D01*
X38508607Y12645281D01*
X38467531Y12663141D01*
X38408595Y12678023D01*
X38331800Y12684572D01*
X38267208Y12678470D01*
X38206784Y12660164D01*
X38152313Y12629654D01*
X38105581Y12586941D01*
X38067183Y12532321D01*
X38037715Y12466092D01*
X38018963Y12388553D01*
X38012712Y12300000D01*
X37533486Y12300000D01*
X37533486Y12833400D01*
G37*
%TO.C,kibuzzard-631DCF09*%
G36*
X38051133Y17608005D02*
G01*
X38099949Y17552641D01*
X38124952Y17472869D01*
X38132096Y17380000D01*
X38129863Y17327464D01*
X38123166Y17279392D01*
X38093400Y17200216D01*
X38038632Y17147828D01*
X37954693Y17128778D01*
X37941596Y17128778D01*
X37928499Y17129969D01*
X37928499Y17625269D01*
X37949930Y17628245D01*
X37971361Y17628841D01*
X38051133Y17608005D01*
G37*
G36*
X37534005Y17913400D02*
G01*
X41332595Y17913400D01*
X41384877Y17910832D01*
X41436656Y17903151D01*
X41487433Y17890432D01*
X41536718Y17872797D01*
X41584038Y17850417D01*
X41628936Y17823506D01*
X41670980Y17792324D01*
X41709766Y17757171D01*
X41744919Y17718385D01*
X41776101Y17676341D01*
X41803012Y17631443D01*
X41825392Y17584123D01*
X41843027Y17534838D01*
X41855746Y17484061D01*
X41863426Y17432282D01*
X41865995Y17380000D01*
X41863426Y17327718D01*
X41855746Y17275939D01*
X41843027Y17225162D01*
X41825392Y17175877D01*
X41803012Y17128557D01*
X41776101Y17083659D01*
X41744919Y17041615D01*
X41709766Y17002829D01*
X41670980Y16967676D01*
X41628936Y16936494D01*
X41584038Y16909583D01*
X41536718Y16887203D01*
X41487433Y16869568D01*
X41436656Y16856849D01*
X41384877Y16849168D01*
X41332595Y16846600D01*
X37534005Y16846600D01*
X37534005Y17019241D01*
X37782052Y17019241D01*
X37862419Y17005548D01*
X37939214Y17001381D01*
X38011098Y17006590D01*
X38029225Y17010906D01*
X38377364Y17010906D01*
X38845280Y17010906D01*
X38845280Y17132350D01*
X38685736Y17132350D01*
X38685736Y17380000D01*
X38940530Y17380000D01*
X38944809Y17290592D01*
X38957645Y17212866D01*
X38979039Y17146824D01*
X39008991Y17092464D01*
X39061445Y17038555D01*
X39127524Y17006210D01*
X39207230Y16995428D01*
X39285018Y17006210D01*
X39350105Y17038555D01*
X39402493Y17092464D01*
X39432705Y17146824D01*
X39454285Y17212866D01*
X39467233Y17290592D01*
X39471549Y17380000D01*
X39467307Y17469408D01*
X39454582Y17547134D01*
X39433374Y17613176D01*
X39403683Y17667536D01*
X39351560Y17721445D01*
X39297670Y17747903D01*
X40114486Y17747903D01*
X40128179Y17681228D01*
X40147824Y17597884D01*
X40163567Y17535509D01*
X40180632Y17470620D01*
X40199021Y17403217D01*
X40218468Y17334492D01*
X40238708Y17265634D01*
X40259743Y17196644D01*
X40290996Y17098417D01*
X40320464Y17010906D01*
X40471674Y17010906D01*
X40479789Y17033528D01*
X40735993Y17033528D01*
X40769925Y17020431D01*
X40819336Y17007930D01*
X40876486Y16999000D01*
X40934827Y16995428D01*
X41002990Y16999893D01*
X41062224Y17013288D01*
X41112528Y17034719D01*
X41153902Y17063294D01*
X41208671Y17138898D01*
X41226530Y17233553D01*
X41218460Y17302609D01*
X41194251Y17360553D01*
X41153902Y17407384D01*
X41097149Y17442839D01*
X41023727Y17466651D01*
X40933636Y17478822D01*
X40939589Y17546688D01*
X40945543Y17626459D01*
X41199146Y17626459D01*
X41199146Y17747903D01*
X40822908Y17747903D01*
X40818443Y17656969D01*
X40812193Y17562761D01*
X40803858Y17465874D01*
X40793143Y17366903D01*
X40874998Y17364373D01*
X40939589Y17356783D01*
X41025910Y17328208D01*
X41066391Y17284155D01*
X41076511Y17227600D01*
X41070558Y17188309D01*
X41048532Y17154377D01*
X41004479Y17129969D01*
X40933636Y17120444D01*
X40877975Y17123123D01*
X40832433Y17131159D01*
X40765758Y17154972D01*
X40735993Y17033528D01*
X40479789Y17033528D01*
X40494428Y17074340D01*
X40516653Y17139229D01*
X40538349Y17205573D01*
X40559185Y17272248D01*
X40578830Y17338130D01*
X40597285Y17403217D01*
X40622586Y17498021D01*
X40644910Y17588359D01*
X40664109Y17672298D01*
X40680033Y17747903D01*
X40526443Y17747903D01*
X40515727Y17685991D01*
X40502630Y17614553D01*
X40487747Y17537311D01*
X40471674Y17457986D01*
X40454410Y17378214D01*
X40435955Y17299633D01*
X40416905Y17225963D01*
X40397855Y17160925D01*
X40378656Y17226856D01*
X40359160Y17300823D01*
X40340110Y17379405D01*
X40322250Y17459177D01*
X40305730Y17538353D01*
X40290699Y17615148D01*
X40278197Y17686139D01*
X40269268Y17747903D01*
X40114486Y17747903D01*
X39297670Y17747903D01*
X39285679Y17753790D01*
X39206039Y17764572D01*
X39128781Y17753790D01*
X39063694Y17721445D01*
X39010777Y17667536D01*
X38980044Y17613176D01*
X38958092Y17547134D01*
X38944921Y17469408D01*
X38940530Y17380000D01*
X38685736Y17380000D01*
X38685736Y17626459D01*
X38845280Y17626459D01*
X38845280Y17747903D01*
X38377364Y17747903D01*
X38377364Y17626459D01*
X38538099Y17626459D01*
X38538099Y17132350D01*
X38377364Y17132350D01*
X38377364Y17010906D01*
X38029225Y17010906D01*
X38076732Y17022217D01*
X38134923Y17049155D01*
X38184483Y17088297D01*
X38224816Y17140238D01*
X38255325Y17205573D01*
X38274524Y17285196D01*
X38280924Y17380000D01*
X38275120Y17472720D01*
X38257707Y17550855D01*
X38229876Y17615446D01*
X38192818Y17667536D01*
X38146532Y17707273D01*
X38091019Y17734806D01*
X38027767Y17750880D01*
X37958264Y17756238D01*
X37876111Y17752666D01*
X37782052Y17738378D01*
X37782052Y17019241D01*
X37534005Y17019241D01*
X37534005Y17913400D01*
G37*
G36*
X39266761Y17616934D02*
G01*
X39301885Y17562166D01*
X39318554Y17480608D01*
X39321679Y17431941D01*
X39322721Y17380000D01*
X39321679Y17328208D01*
X39318554Y17279988D01*
X39301885Y17198430D01*
X39266166Y17143066D01*
X39206039Y17122825D01*
X39145318Y17143066D01*
X39110194Y17197834D01*
X39093525Y17279392D01*
X39090400Y17328059D01*
X39089358Y17380000D01*
X39090400Y17431792D01*
X39093525Y17480013D01*
X39110194Y17561570D01*
X39145318Y17616934D01*
X39206039Y17637175D01*
X39266761Y17616934D01*
G37*
%TO.C,kibuzzard-631DCF04*%
G36*
X37534005Y16389400D02*
G01*
X41332595Y16389400D01*
X41384877Y16386832D01*
X41436656Y16379151D01*
X41487433Y16366432D01*
X41536718Y16348797D01*
X41584038Y16326417D01*
X41628936Y16299506D01*
X41670980Y16268324D01*
X41709766Y16233171D01*
X41744919Y16194385D01*
X41776101Y16152341D01*
X41803012Y16107443D01*
X41825392Y16060123D01*
X41843027Y16010838D01*
X41855746Y15960061D01*
X41863426Y15908282D01*
X41865995Y15856000D01*
X41863426Y15803718D01*
X41855746Y15751939D01*
X41843027Y15701162D01*
X41825392Y15651877D01*
X41803012Y15604557D01*
X41776101Y15559659D01*
X41744919Y15517615D01*
X41709766Y15478829D01*
X41670980Y15443676D01*
X41628936Y15412494D01*
X41584038Y15385583D01*
X41536718Y15363203D01*
X41487433Y15345568D01*
X41436656Y15332849D01*
X41384877Y15325168D01*
X41332595Y15322600D01*
X37534005Y15322600D01*
X37534005Y15856000D01*
X37782052Y15856000D01*
X37787187Y15769010D01*
X37802590Y15692587D01*
X37828263Y15626730D01*
X37864205Y15571441D01*
X37927176Y15515878D01*
X38006551Y15482541D01*
X38102330Y15471428D01*
X38167368Y15475446D01*
X38221551Y15486906D01*
X38429752Y15486906D01*
X38892905Y15486906D01*
X38994108Y15486906D01*
X39140555Y15486906D01*
X39140555Y15823853D01*
X39203063Y15756583D01*
X39235061Y15715209D01*
X39265571Y15670858D01*
X39293997Y15624423D01*
X39319744Y15576798D01*
X39357249Y15486906D01*
X39522746Y15486906D01*
X39503398Y15540038D01*
X39478693Y15594658D01*
X39449671Y15649427D01*
X39417375Y15703005D01*
X39382401Y15754350D01*
X39345343Y15802422D01*
X39307540Y15846177D01*
X39270333Y15884575D01*
X39306498Y15928330D01*
X39341175Y15973872D01*
X39374066Y16019860D01*
X39404874Y16064955D01*
X39433002Y16108710D01*
X39457857Y16150680D01*
X39497743Y16223903D01*
X40146633Y16223903D01*
X40160325Y16157228D01*
X40179971Y16073884D01*
X40195713Y16011509D01*
X40212779Y15946620D01*
X40231168Y15879217D01*
X40250614Y15810492D01*
X40270855Y15741634D01*
X40291889Y15672644D01*
X40323143Y15574417D01*
X40352611Y15486906D01*
X40503821Y15486906D01*
X40512790Y15511909D01*
X40775283Y15511909D01*
X40812193Y15498813D01*
X40863985Y15485716D01*
X40922325Y15475595D01*
X40980071Y15471428D01*
X41048829Y15475744D01*
X41107468Y15488692D01*
X41156283Y15509528D01*
X41195574Y15537508D01*
X41246771Y15611922D01*
X41263439Y15705981D01*
X41255552Y15765810D01*
X41231888Y15816709D01*
X41193937Y15857488D01*
X41143186Y15886956D01*
X41209861Y15948869D01*
X41234864Y16033403D01*
X41220577Y16115556D01*
X41176524Y16181636D01*
X41100919Y16225094D01*
X41051062Y16236702D01*
X40993168Y16240572D01*
X40929916Y16235065D01*
X40873510Y16218545D01*
X40788380Y16175088D01*
X40840768Y16067931D01*
X40911610Y16101864D01*
X40994358Y16115556D01*
X41061629Y16092339D01*
X41086036Y16028641D01*
X41074725Y15983397D01*
X41045555Y15954822D01*
X41005074Y15939344D01*
X40959830Y15934581D01*
X40905061Y15934581D01*
X40905061Y15813138D01*
X40950305Y15813138D01*
X41015492Y15807333D01*
X41068177Y15789920D01*
X41103003Y15757922D01*
X41114611Y15708363D01*
X41084250Y15628591D01*
X41042727Y15604480D01*
X40978880Y15596444D01*
X40922474Y15599718D01*
X40874700Y15609541D01*
X40803858Y15634544D01*
X40775283Y15511909D01*
X40512790Y15511909D01*
X40526575Y15550340D01*
X40548800Y15615229D01*
X40570496Y15681573D01*
X40591332Y15748248D01*
X40610977Y15814130D01*
X40629432Y15879217D01*
X40654732Y15974021D01*
X40677057Y16064359D01*
X40696255Y16148298D01*
X40712180Y16223903D01*
X40558589Y16223903D01*
X40547874Y16161991D01*
X40534777Y16090553D01*
X40519894Y16013311D01*
X40503821Y15933986D01*
X40486557Y15854214D01*
X40468102Y15775633D01*
X40449052Y15701963D01*
X40430002Y15636925D01*
X40410803Y15702856D01*
X40391307Y15776823D01*
X40372257Y15855405D01*
X40354397Y15935177D01*
X40337877Y16014353D01*
X40322846Y16091148D01*
X40310344Y16162139D01*
X40301414Y16223903D01*
X40146633Y16223903D01*
X39497743Y16223903D01*
X39332246Y16223903D01*
X39296527Y16152466D01*
X39249497Y16072694D01*
X39195324Y15991731D01*
X39140555Y15917913D01*
X39140555Y16223903D01*
X38994108Y16223903D01*
X38994108Y15486906D01*
X38892905Y15486906D01*
X38892905Y15608350D01*
X38577389Y15608350D01*
X38577389Y16223903D01*
X38429752Y16223903D01*
X38429752Y15486906D01*
X38221551Y15486906D01*
X38224369Y15487502D01*
X38308308Y15522625D01*
X38271399Y15638116D01*
X38211272Y15611922D01*
X38116618Y15598825D01*
X38031637Y15615643D01*
X37974338Y15666095D01*
X37950195Y15717491D01*
X37935709Y15781983D01*
X37930880Y15859572D01*
X37934898Y15926247D01*
X37946954Y15981016D01*
X37988625Y16059002D01*
X38046966Y16100673D01*
X38114236Y16113175D01*
X38202938Y16100673D01*
X38269018Y16070313D01*
X38307118Y16186994D01*
X38282710Y16201281D01*
X38242824Y16219141D01*
X38187460Y16234023D01*
X38116618Y16240572D01*
X38046817Y16234172D01*
X37982672Y16214973D01*
X37925522Y16183422D01*
X37876707Y16139964D01*
X37836970Y16085046D01*
X37807055Y16019116D01*
X37788303Y15942618D01*
X37782052Y15856000D01*
X37534005Y15856000D01*
X37534005Y16389400D01*
G37*
%TD*%
M02*
