%TF.GenerationSoftware,KiCad,Pcbnew,(5.1.12-1-10_14)*%
%TF.CreationDate,2022-09-08T10:24:56+08:00*%
%TF.ProjectId,0102-TILEDAP,30313032-2d54-4494-9c45-4441502e6b69,rev?*%
%TF.SameCoordinates,Original*%
%TF.FileFunction,Legend,Top*%
%TF.FilePolarity,Positive*%
%FSLAX46Y46*%
G04 Gerber Fmt 4.6, Leading zero omitted, Abs format (unit mm)*
G04 Created by KiCad (PCBNEW (5.1.12-1-10_14)) date 2022-09-08 10:24:56*
%MOMM*%
%LPD*%
G01*
G04 APERTURE LIST*
%ADD10C,0.120000*%
G04 APERTURE END LIST*
D10*
X29661904Y17525620D02*
X29280952Y17258953D01*
X29661904Y17068477D02*
X28861904Y17068477D01*
X28861904Y17373239D01*
X28900000Y17449429D01*
X28938095Y17487524D01*
X29014285Y17525620D01*
X29128571Y17525620D01*
X29204761Y17487524D01*
X29242857Y17449429D01*
X29280952Y17373239D01*
X29280952Y17068477D01*
X29623809Y17830381D02*
X29661904Y17944667D01*
X29661904Y18135143D01*
X29623809Y18211334D01*
X29585714Y18249429D01*
X29509523Y18287524D01*
X29433333Y18287524D01*
X29357142Y18249429D01*
X29319047Y18211334D01*
X29280952Y18135143D01*
X29242857Y17982762D01*
X29204761Y17906572D01*
X29166666Y17868477D01*
X29090476Y17830381D01*
X29014285Y17830381D01*
X28938095Y17868477D01*
X28900000Y17906572D01*
X28861904Y17982762D01*
X28861904Y18173239D01*
X28900000Y18287524D01*
X28861904Y18516096D02*
X28861904Y18973239D01*
X29661904Y18744667D02*
X28861904Y18744667D01*
X24161904Y18898191D02*
X23361904Y18898191D01*
X23361904Y19202953D01*
X23400000Y19279143D01*
X23438095Y19317239D01*
X23514285Y19355334D01*
X23628571Y19355334D01*
X23704761Y19317239D01*
X23742857Y19279143D01*
X23780952Y19202953D01*
X23780952Y18898191D01*
X23361904Y19622000D02*
X24161904Y19812477D01*
X23590476Y19964858D01*
X24161904Y20117239D01*
X23361904Y20307715D01*
X24161904Y21069620D02*
X23780952Y20802953D01*
X24161904Y20612477D02*
X23361904Y20612477D01*
X23361904Y20917239D01*
X23400000Y20993429D01*
X23438095Y21031524D01*
X23514285Y21069620D01*
X23628571Y21069620D01*
X23704761Y21031524D01*
X23742857Y20993429D01*
X23780952Y20917239D01*
X23780952Y20612477D01*
X20585714Y19317239D02*
X20623809Y19279143D01*
X20661904Y19164858D01*
X20661904Y19088667D01*
X20623809Y18974381D01*
X20547619Y18898191D01*
X20471428Y18860096D01*
X20319047Y18822000D01*
X20204761Y18822000D01*
X20052380Y18860096D01*
X19976190Y18898191D01*
X19900000Y18974381D01*
X19861904Y19088667D01*
X19861904Y19164858D01*
X19900000Y19279143D01*
X19938095Y19317239D01*
X19861904Y19812477D02*
X19861904Y19964858D01*
X19900000Y20041048D01*
X19976190Y20117239D01*
X20128571Y20155334D01*
X20395238Y20155334D01*
X20547619Y20117239D01*
X20623809Y20041048D01*
X20661904Y19964858D01*
X20661904Y19812477D01*
X20623809Y19736286D01*
X20547619Y19660096D01*
X20395238Y19622000D01*
X20128571Y19622000D01*
X19976190Y19660096D01*
X19900000Y19736286D01*
X19861904Y19812477D01*
X20661904Y20498191D02*
X19861904Y20498191D01*
X20433333Y20764858D01*
X19861904Y21031524D01*
X20661904Y21031524D01*
X19661904Y19126762D02*
X18861904Y19126762D01*
X18861904Y19317239D01*
X18900000Y19431524D01*
X18976190Y19507715D01*
X19052380Y19545810D01*
X19204761Y19583905D01*
X19319047Y19583905D01*
X19471428Y19545810D01*
X19547619Y19507715D01*
X19623809Y19431524D01*
X19661904Y19317239D01*
X19661904Y19126762D01*
X19433333Y19888667D02*
X19433333Y20269620D01*
X19661904Y19812477D02*
X18861904Y20079143D01*
X19661904Y20345810D01*
X19661904Y20612477D02*
X18861904Y20612477D01*
X18861904Y20917239D01*
X18900000Y20993429D01*
X18938095Y21031524D01*
X19014285Y21069620D01*
X19128571Y21069620D01*
X19204761Y21031524D01*
X19242857Y20993429D01*
X19280952Y20917239D01*
X19280952Y20612477D01*
X37968000Y11690477D02*
X37929904Y11614286D01*
X37929904Y11500000D01*
X37968000Y11385715D01*
X38044190Y11309524D01*
X38120380Y11271429D01*
X38272761Y11233334D01*
X38387047Y11233334D01*
X38539428Y11271429D01*
X38615619Y11309524D01*
X38691809Y11385715D01*
X38729904Y11500000D01*
X38729904Y11576191D01*
X38691809Y11690477D01*
X38653714Y11728572D01*
X38387047Y11728572D01*
X38387047Y11576191D01*
X38729904Y12071429D02*
X37929904Y12071429D01*
X38729904Y12528572D01*
X37929904Y12528572D01*
X38729904Y12909524D02*
X37929904Y12909524D01*
X37929904Y13100000D01*
X37968000Y13214286D01*
X38044190Y13290477D01*
X38120380Y13328572D01*
X38272761Y13366667D01*
X38387047Y13366667D01*
X38539428Y13328572D01*
X38615619Y13290477D01*
X38691809Y13214286D01*
X38729904Y13100000D01*
X38729904Y12909524D01*
X38547523Y7620000D02*
X38471333Y7658096D01*
X38357047Y7658096D01*
X38242761Y7620000D01*
X38166571Y7543810D01*
X38128476Y7467620D01*
X38090380Y7315239D01*
X38090380Y7200953D01*
X38128476Y7048572D01*
X38166571Y6972381D01*
X38242761Y6896191D01*
X38357047Y6858096D01*
X38433238Y6858096D01*
X38547523Y6896191D01*
X38585619Y6934286D01*
X38585619Y7200953D01*
X38433238Y7200953D01*
X40004666Y6858096D02*
X39771333Y7239048D01*
X39604666Y6858096D02*
X39604666Y7658096D01*
X39871333Y7658096D01*
X39938000Y7620000D01*
X39971333Y7581905D01*
X40004666Y7505715D01*
X40004666Y7391429D01*
X39971333Y7315239D01*
X39938000Y7277143D01*
X39871333Y7239048D01*
X39604666Y7239048D01*
X40271333Y6896191D02*
X40371333Y6858096D01*
X40538000Y6858096D01*
X40604666Y6896191D01*
X40638000Y6934286D01*
X40671333Y7010477D01*
X40671333Y7086667D01*
X40638000Y7162858D01*
X40604666Y7200953D01*
X40538000Y7239048D01*
X40404666Y7277143D01*
X40338000Y7315239D01*
X40304666Y7353334D01*
X40271333Y7429524D01*
X40271333Y7505715D01*
X40304666Y7581905D01*
X40338000Y7620000D01*
X40404666Y7658096D01*
X40571333Y7658096D01*
X40671333Y7620000D01*
X40871333Y7658096D02*
X41271333Y7658096D01*
X41071333Y6858096D02*
X41071333Y7658096D01*
X38004666Y9182096D02*
X38404666Y9182096D01*
X38204666Y8382096D02*
X38204666Y9182096D01*
X38571333Y9182096D02*
X39038000Y8382096D01*
X39038000Y9182096D02*
X38571333Y8382096D01*
X40538000Y8382096D02*
X40304666Y8763048D01*
X40138000Y8382096D02*
X40138000Y9182096D01*
X40404666Y9182096D01*
X40471333Y9144000D01*
X40504666Y9105905D01*
X40538000Y9029715D01*
X40538000Y8915429D01*
X40504666Y8839239D01*
X40471333Y8801143D01*
X40404666Y8763048D01*
X40138000Y8763048D01*
X40771333Y9182096D02*
X41238000Y8382096D01*
X41238000Y9182096D02*
X40771333Y8382096D01*
X38504666Y15570286D02*
X38471333Y15532191D01*
X38371333Y15494096D01*
X38304666Y15494096D01*
X38204666Y15532191D01*
X38138000Y15608381D01*
X38104666Y15684572D01*
X38071333Y15836953D01*
X38071333Y15951239D01*
X38104666Y16103620D01*
X38138000Y16179810D01*
X38204666Y16256000D01*
X38304666Y16294096D01*
X38371333Y16294096D01*
X38471333Y16256000D01*
X38504666Y16217905D01*
X39138000Y15494096D02*
X38804666Y15494096D01*
X38804666Y16294096D01*
X39371333Y15494096D02*
X39371333Y16294096D01*
X39771333Y15494096D02*
X39471333Y15951239D01*
X39771333Y16294096D02*
X39371333Y15836953D01*
X38104666Y17018096D02*
X38104666Y17818096D01*
X38271333Y17818096D01*
X38371333Y17780000D01*
X38438000Y17703810D01*
X38471333Y17627620D01*
X38504666Y17475239D01*
X38504666Y17360953D01*
X38471333Y17208572D01*
X38438000Y17132381D01*
X38371333Y17056191D01*
X38271333Y17018096D01*
X38104666Y17018096D01*
X38804666Y17018096D02*
X38804666Y17818096D01*
X39271333Y17818096D02*
X39404666Y17818096D01*
X39471333Y17780000D01*
X39538000Y17703810D01*
X39571333Y17551429D01*
X39571333Y17284762D01*
X39538000Y17132381D01*
X39471333Y17056191D01*
X39404666Y17018096D01*
X39271333Y17018096D01*
X39204666Y17056191D01*
X39138000Y17132381D01*
X39104666Y17284762D01*
X39104666Y17551429D01*
X39138000Y17703810D01*
X39204666Y17780000D01*
X39271333Y17818096D01*
X40138000Y16294096D02*
X40371333Y15494096D01*
X40604666Y16294096D01*
X40771333Y16294096D02*
X41204666Y16294096D01*
X40971333Y15989334D01*
X41071333Y15989334D01*
X41138000Y15951239D01*
X41171333Y15913143D01*
X41204666Y15836953D01*
X41204666Y15646477D01*
X41171333Y15570286D01*
X41138000Y15532191D01*
X41071333Y15494096D01*
X40871333Y15494096D01*
X40804666Y15532191D01*
X40771333Y15570286D01*
X40138000Y17818096D02*
X40371333Y17018096D01*
X40604666Y17818096D01*
X41171333Y17818096D02*
X40838000Y17818096D01*
X40804666Y17437143D01*
X40838000Y17475239D01*
X40904666Y17513334D01*
X41071333Y17513334D01*
X41138000Y17475239D01*
X41171333Y17437143D01*
X41204666Y17360953D01*
X41204666Y17170477D01*
X41171333Y17094286D01*
X41138000Y17056191D01*
X41071333Y17018096D01*
X40904666Y17018096D01*
X40838000Y17056191D01*
X40804666Y17094286D01*
%TO.C,SW1*%
X29950000Y11000000D02*
X29950000Y13600000D01*
X28650000Y11000000D02*
X29950000Y11000000D01*
X28650000Y13600000D02*
X28650000Y11000000D01*
X29950000Y13600000D02*
X28650000Y13600000D01*
X27500000Y9300000D02*
X28300000Y9300000D01*
X27500000Y15300000D02*
X27500000Y9300000D01*
X28300000Y15300000D02*
X27500000Y15300000D01*
X30300000Y15300000D02*
X31100000Y15300000D01*
X31100000Y9300000D02*
X30300000Y9300000D01*
X31100000Y15300000D02*
X31100000Y9300000D01*
%TO.C,Y1*%
X17715000Y4815000D02*
X17715000Y7600000D01*
X21385000Y7600000D02*
X21385000Y5000000D01*
X17915000Y4815000D02*
X17715000Y4815000D01*
%TO.C,U2*%
X18190000Y14685000D02*
X18190000Y15410000D01*
X18190000Y15410000D02*
X18915000Y15410000D01*
X24410000Y9915000D02*
X24410000Y9190000D01*
X24410000Y9190000D02*
X23685000Y9190000D01*
X24410000Y14685000D02*
X24410000Y15410000D01*
X24410000Y15410000D02*
X23685000Y15410000D01*
X18190000Y9915000D02*
X18190000Y9190000D01*
%TO.C,R9*%
X26463640Y11420000D02*
X26156358Y11420000D01*
X26463640Y12180000D02*
X26156358Y12180000D01*
%TO.C,R8*%
X17430000Y10963641D02*
X17430000Y10656359D01*
X16670000Y10963641D02*
X16670000Y10656359D01*
%TO.C,R7*%
X26463640Y9170000D02*
X26156358Y9170000D01*
X26463640Y9930000D02*
X26156358Y9930000D01*
%TO.C,R6*%
X26463641Y8170000D02*
X26156359Y8170000D01*
X26463641Y8930000D02*
X26156359Y8930000D01*
%TO.C,C11*%
X17510000Y6407836D02*
X17510000Y6192164D01*
X16790000Y6407836D02*
X16790000Y6192164D01*
%TO.C,C8*%
X21590000Y6192164D02*
X21590000Y6407836D01*
X22310000Y6192164D02*
X22310000Y6407836D01*
%TO.C,U1*%
X16210000Y11400000D02*
X16210000Y13200000D01*
X12990000Y13200000D02*
X12990000Y10750000D01*
%TO.C,R15*%
X21920000Y17156359D02*
X21920000Y17463641D01*
X22680000Y17156359D02*
X22680000Y17463641D01*
%TO.C,R14*%
X16920000Y17156359D02*
X16920000Y17463641D01*
X17680000Y17156359D02*
X17680000Y17463641D01*
%TO.C,R13*%
X26156359Y7930000D02*
X26463641Y7930000D01*
X26156359Y7170000D02*
X26463641Y7170000D01*
%TO.C,R12*%
X26156359Y14930000D02*
X26463641Y14930000D01*
X26156359Y14170000D02*
X26463641Y14170000D01*
%TO.C,R11*%
X15920000Y17156359D02*
X15920000Y17463641D01*
X16680000Y17156359D02*
X16680000Y17463641D01*
%TO.C,R5*%
X11093641Y12420000D02*
X10786359Y12420000D01*
X11093641Y13180000D02*
X10786359Y13180000D01*
%TO.C,R4*%
X11093641Y11420000D02*
X10786359Y11420000D01*
X11093641Y12180000D02*
X10786359Y12180000D01*
%TO.C,R3*%
X7453641Y7120000D02*
X7146359Y7120000D01*
X7453641Y7880000D02*
X7146359Y7880000D01*
%TO.C,R2*%
X15930000Y9543641D02*
X15930000Y9236359D01*
X15170000Y9543641D02*
X15170000Y9236359D01*
%TO.C,R1*%
X7146359Y17480000D02*
X7453641Y17480000D01*
X7146359Y16720000D02*
X7453641Y16720000D01*
%TO.C,J3*%
X32212000Y5890000D02*
X37412000Y5890000D01*
X32212000Y16110000D02*
X32212000Y5890000D01*
X37412000Y18710000D02*
X37412000Y5890000D01*
X32212000Y16110000D02*
X34812000Y16110000D01*
X34812000Y16110000D02*
X34812000Y18710000D01*
X34812000Y18710000D02*
X37412000Y18710000D01*
X32212000Y17380000D02*
X32212000Y18710000D01*
X32212000Y18710000D02*
X33542000Y18710000D01*
%TO.C,J2*%
X8895000Y18690000D02*
X8895000Y19492470D01*
X8895000Y20107530D02*
X8895000Y20910000D01*
X5150000Y18690000D02*
X8895000Y18690000D01*
X5150000Y20910000D02*
X8895000Y20910000D01*
X5150000Y18690000D02*
X5150000Y19236529D01*
X5150000Y20363471D02*
X5150000Y20910000D01*
X4390000Y18690000D02*
X3630000Y18690000D01*
X3630000Y18690000D02*
X3630000Y19800000D01*
%TO.C,J1*%
X8580000Y15190000D02*
X8580000Y9410000D01*
X6020000Y15190000D02*
X6020000Y9410000D01*
X6020000Y15190000D02*
G75*
G02*
X8580000Y15190000I1280000J0D01*
G01*
X8580000Y9410000D02*
G75*
G02*
X6020000Y9410000I-1280000J0D01*
G01*
%TO.C,D3*%
X23035000Y18962500D02*
X23035000Y21247500D01*
X23035000Y21247500D02*
X21565000Y21247500D01*
X21565000Y21247500D02*
X21565000Y18962500D01*
%TO.C,D2*%
X17065000Y20562500D02*
X17065000Y18277500D01*
X17065000Y18277500D02*
X18535000Y18277500D01*
X18535000Y18277500D02*
X18535000Y20562500D01*
%TO.C,D1*%
X15565000Y20562500D02*
X15565000Y18277500D01*
X15565000Y18277500D02*
X17035000Y18277500D01*
X17035000Y18277500D02*
X17035000Y20562500D01*
%TO.C,C13*%
X26387836Y6190000D02*
X26172164Y6190000D01*
X26387836Y6910000D02*
X26172164Y6910000D01*
%TO.C,C12*%
X26387836Y13190000D02*
X26172164Y13190000D01*
X26387836Y13910000D02*
X26172164Y13910000D01*
%TO.C,C10*%
X10862164Y11210000D02*
X11077836Y11210000D01*
X10862164Y10490000D02*
X11077836Y10490000D01*
%TO.C,C9*%
X10862164Y14110000D02*
X11077836Y14110000D01*
X10862164Y13390000D02*
X11077836Y13390000D01*
%TO.C,C7*%
X18660000Y17387836D02*
X18660000Y17172164D01*
X17940000Y17387836D02*
X17940000Y17172164D01*
%TO.C,C6*%
X16690000Y8712164D02*
X16690000Y8927836D01*
X17410000Y8712164D02*
X17410000Y8927836D01*
%TO.C,C5*%
X23660000Y17387836D02*
X23660000Y17172164D01*
X22940000Y17387836D02*
X22940000Y17172164D01*
%TO.C,C4*%
X23660000Y6212164D02*
X23660000Y6427836D01*
X22940000Y6212164D02*
X22940000Y6427836D01*
%TO.C,C3*%
X14535000Y16261252D02*
X14535000Y15738748D01*
X13065000Y16261252D02*
X13065000Y15738748D01*
%TO.C,C2*%
X15910000Y15287836D02*
X15910000Y15072164D01*
X15190000Y15287836D02*
X15190000Y15072164D01*
%TO.C,C1*%
X13065000Y8338748D02*
X13065000Y8861252D01*
X14535000Y8338748D02*
X14535000Y8861252D01*
%TD*%
M02*
