%TF.GenerationSoftware,KiCad,Pcbnew,(5.1.12-1-10_14)*%
%TF.CreationDate,2022-09-08T10:49:59+08:00*%
%TF.ProjectId,0102-TILEDAP,30313032-2d54-4494-9c45-4441502e6b69,V1.1*%
%TF.SameCoordinates,Original*%
%TF.FileFunction,Soldermask,Top*%
%TF.FilePolarity,Negative*%
%FSLAX46Y46*%
G04 Gerber Fmt 4.6, Leading zero omitted, Abs format (unit mm)*
G04 Created by KiCad (PCBNEW (5.1.12-1-10_14)) date 2022-09-08 10:49:59*
%MOMM*%
%LPD*%
G01*
G04 APERTURE LIST*
%ADD10C,2.300000*%
%ADD11O,1.800000X1.800000*%
%ADD12O,1.100000X1.100000*%
%ADD13C,0.800000*%
%ADD14O,1.300000X2.200000*%
G04 APERTURE END LIST*
%TO.C,R14*%
G36*
G01*
X15360000Y15010000D02*
X15360000Y14590000D01*
G75*
G02*
X15200000Y14430000I-160000J0D01*
G01*
X14880000Y14430000D01*
G75*
G02*
X14720000Y14590000I0J160000D01*
G01*
X14720000Y15010000D01*
G75*
G02*
X14880000Y15170000I160000J0D01*
G01*
X15200000Y15170000D01*
G75*
G02*
X15360000Y15010000I0J-160000D01*
G01*
G37*
G36*
G01*
X16380000Y15010000D02*
X16380000Y14590000D01*
G75*
G02*
X16220000Y14430000I-160000J0D01*
G01*
X15900000Y14430000D01*
G75*
G02*
X15740000Y14590000I0J160000D01*
G01*
X15740000Y15010000D01*
G75*
G02*
X15900000Y15170000I160000J0D01*
G01*
X16220000Y15170000D01*
G75*
G02*
X16380000Y15010000I0J-160000D01*
G01*
G37*
%TD*%
%TO.C,Q1*%
G36*
G01*
X15050000Y17450000D02*
X15050000Y16650000D01*
G75*
G02*
X15000000Y16600000I-50000J0D01*
G01*
X14100000Y16600000D01*
G75*
G02*
X14050000Y16650000I0J50000D01*
G01*
X14050000Y17450000D01*
G75*
G02*
X14100000Y17500000I50000J0D01*
G01*
X15000000Y17500000D01*
G75*
G02*
X15050000Y17450000I0J-50000D01*
G01*
G37*
G36*
G01*
X17050000Y18400000D02*
X17050000Y17600000D01*
G75*
G02*
X17000000Y17550000I-50000J0D01*
G01*
X16100000Y17550000D01*
G75*
G02*
X16050000Y17600000I0J50000D01*
G01*
X16050000Y18400000D01*
G75*
G02*
X16100000Y18450000I50000J0D01*
G01*
X17000000Y18450000D01*
G75*
G02*
X17050000Y18400000I0J-50000D01*
G01*
G37*
G36*
G01*
X17050000Y16500000D02*
X17050000Y15700000D01*
G75*
G02*
X17000000Y15650000I-50000J0D01*
G01*
X16100000Y15650000D01*
G75*
G02*
X16050000Y15700000I0J50000D01*
G01*
X16050000Y16500000D01*
G75*
G02*
X16100000Y16550000I50000J0D01*
G01*
X17000000Y16550000D01*
G75*
G02*
X17050000Y16500000I0J-50000D01*
G01*
G37*
%TD*%
%TO.C,C5*%
G36*
G01*
X24105000Y17130000D02*
X24495000Y17130000D01*
G75*
G02*
X24660000Y16965000I0J-165000D01*
G01*
X24660000Y16635000D01*
G75*
G02*
X24495000Y16470000I-165000J0D01*
G01*
X24105000Y16470000D01*
G75*
G02*
X23940000Y16635000I0J165000D01*
G01*
X23940000Y16965000D01*
G75*
G02*
X24105000Y17130000I165000J0D01*
G01*
G37*
G36*
G01*
X24105000Y18090000D02*
X24495000Y18090000D01*
G75*
G02*
X24660000Y17925000I0J-165000D01*
G01*
X24660000Y17595000D01*
G75*
G02*
X24495000Y17430000I-165000J0D01*
G01*
X24105000Y17430000D01*
G75*
G02*
X23940000Y17595000I0J165000D01*
G01*
X23940000Y17925000D01*
G75*
G02*
X24105000Y18090000I165000J0D01*
G01*
G37*
%TD*%
%TO.C,R10*%
G36*
G01*
X15740000Y13590000D02*
X15740000Y14010000D01*
G75*
G02*
X15900000Y14170000I160000J0D01*
G01*
X16220000Y14170000D01*
G75*
G02*
X16380000Y14010000I0J-160000D01*
G01*
X16380000Y13590000D01*
G75*
G02*
X16220000Y13430000I-160000J0D01*
G01*
X15900000Y13430000D01*
G75*
G02*
X15740000Y13590000I0J160000D01*
G01*
G37*
G36*
G01*
X14720000Y13590000D02*
X14720000Y14010000D01*
G75*
G02*
X14880000Y14170000I160000J0D01*
G01*
X15200000Y14170000D01*
G75*
G02*
X15360000Y14010000I0J-160000D01*
G01*
X15360000Y13590000D01*
G75*
G02*
X15200000Y13430000I-160000J0D01*
G01*
X14880000Y13430000D01*
G75*
G02*
X14720000Y13590000I0J160000D01*
G01*
G37*
%TD*%
%TO.C,SW1*%
G36*
G01*
X28800000Y9250000D02*
X29800000Y9250000D01*
G75*
G02*
X29850000Y9200000I0J-50000D01*
G01*
X29850000Y8100000D01*
G75*
G02*
X29800000Y8050000I-50000J0D01*
G01*
X28800000Y8050000D01*
G75*
G02*
X28750000Y8100000I0J50000D01*
G01*
X28750000Y9200000D01*
G75*
G02*
X28800000Y9250000I50000J0D01*
G01*
G37*
G36*
G01*
X28800000Y16550000D02*
X29800000Y16550000D01*
G75*
G02*
X29850000Y16500000I0J-50000D01*
G01*
X29850000Y15400000D01*
G75*
G02*
X29800000Y15350000I-50000J0D01*
G01*
X28800000Y15350000D01*
G75*
G02*
X28750000Y15400000I0J50000D01*
G01*
X28750000Y16500000D01*
G75*
G02*
X28800000Y16550000I50000J0D01*
G01*
G37*
%TD*%
%TO.C,Y1*%
G36*
G01*
X17800000Y6730000D02*
X17800000Y7630000D01*
G75*
G02*
X17850000Y7680000I50000J0D01*
G01*
X19050000Y7680000D01*
G75*
G02*
X19100000Y7630000I0J-50000D01*
G01*
X19100000Y6730000D01*
G75*
G02*
X19050000Y6680000I-50000J0D01*
G01*
X17850000Y6680000D01*
G75*
G02*
X17800000Y6730000I0J50000D01*
G01*
G37*
G36*
G01*
X20000000Y4970000D02*
X20000000Y5870000D01*
G75*
G02*
X20050000Y5920000I50000J0D01*
G01*
X21250000Y5920000D01*
G75*
G02*
X21300000Y5870000I0J-50000D01*
G01*
X21300000Y4970000D01*
G75*
G02*
X21250000Y4920000I-50000J0D01*
G01*
X20050000Y4920000D01*
G75*
G02*
X20000000Y4970000I0J50000D01*
G01*
G37*
G36*
G01*
X20000000Y6730000D02*
X20000000Y7630000D01*
G75*
G02*
X20050000Y7680000I50000J0D01*
G01*
X21250000Y7680000D01*
G75*
G02*
X21300000Y7630000I0J-50000D01*
G01*
X21300000Y6730000D01*
G75*
G02*
X21250000Y6680000I-50000J0D01*
G01*
X20050000Y6680000D01*
G75*
G02*
X20000000Y6730000I0J50000D01*
G01*
G37*
G36*
G01*
X17800000Y4970000D02*
X17800000Y5870000D01*
G75*
G02*
X17850000Y5920000I50000J0D01*
G01*
X19050000Y5920000D01*
G75*
G02*
X19100000Y5870000I0J-50000D01*
G01*
X19100000Y4970000D01*
G75*
G02*
X19050000Y4920000I-50000J0D01*
G01*
X17850000Y4920000D01*
G75*
G02*
X17800000Y4970000I0J50000D01*
G01*
G37*
%TD*%
%TO.C,U2*%
G36*
G01*
X23350000Y10200000D02*
X19250000Y10200000D01*
G75*
G02*
X19200000Y10250000I0J50000D01*
G01*
X19200000Y14350000D01*
G75*
G02*
X19250000Y14400000I50000J0D01*
G01*
X23350000Y14400000D01*
G75*
G02*
X23400000Y14350000I0J-50000D01*
G01*
X23400000Y10250000D01*
G75*
G02*
X23350000Y10200000I-50000J0D01*
G01*
G37*
G36*
G01*
X18962500Y10125000D02*
X17962500Y10125000D01*
G75*
G02*
X17875000Y10212500I0J87500D01*
G01*
X17875000Y10387500D01*
G75*
G02*
X17962500Y10475000I87500J0D01*
G01*
X18962500Y10475000D01*
G75*
G02*
X19050000Y10387500I0J-87500D01*
G01*
X19050000Y10212500D01*
G75*
G02*
X18962500Y10125000I-87500J0D01*
G01*
G37*
G36*
G01*
X18962500Y10625000D02*
X17962500Y10625000D01*
G75*
G02*
X17875000Y10712500I0J87500D01*
G01*
X17875000Y10887500D01*
G75*
G02*
X17962500Y10975000I87500J0D01*
G01*
X18962500Y10975000D01*
G75*
G02*
X19050000Y10887500I0J-87500D01*
G01*
X19050000Y10712500D01*
G75*
G02*
X18962500Y10625000I-87500J0D01*
G01*
G37*
G36*
G01*
X18962500Y11125000D02*
X17962500Y11125000D01*
G75*
G02*
X17875000Y11212500I0J87500D01*
G01*
X17875000Y11387500D01*
G75*
G02*
X17962500Y11475000I87500J0D01*
G01*
X18962500Y11475000D01*
G75*
G02*
X19050000Y11387500I0J-87500D01*
G01*
X19050000Y11212500D01*
G75*
G02*
X18962500Y11125000I-87500J0D01*
G01*
G37*
G36*
G01*
X18962500Y11625000D02*
X17962500Y11625000D01*
G75*
G02*
X17875000Y11712500I0J87500D01*
G01*
X17875000Y11887500D01*
G75*
G02*
X17962500Y11975000I87500J0D01*
G01*
X18962500Y11975000D01*
G75*
G02*
X19050000Y11887500I0J-87500D01*
G01*
X19050000Y11712500D01*
G75*
G02*
X18962500Y11625000I-87500J0D01*
G01*
G37*
G36*
G01*
X18962500Y12125000D02*
X17962500Y12125000D01*
G75*
G02*
X17875000Y12212500I0J87500D01*
G01*
X17875000Y12387500D01*
G75*
G02*
X17962500Y12475000I87500J0D01*
G01*
X18962500Y12475000D01*
G75*
G02*
X19050000Y12387500I0J-87500D01*
G01*
X19050000Y12212500D01*
G75*
G02*
X18962500Y12125000I-87500J0D01*
G01*
G37*
G36*
G01*
X18962500Y12625000D02*
X17962500Y12625000D01*
G75*
G02*
X17875000Y12712500I0J87500D01*
G01*
X17875000Y12887500D01*
G75*
G02*
X17962500Y12975000I87500J0D01*
G01*
X18962500Y12975000D01*
G75*
G02*
X19050000Y12887500I0J-87500D01*
G01*
X19050000Y12712500D01*
G75*
G02*
X18962500Y12625000I-87500J0D01*
G01*
G37*
G36*
G01*
X18962500Y13125000D02*
X17962500Y13125000D01*
G75*
G02*
X17875000Y13212500I0J87500D01*
G01*
X17875000Y13387500D01*
G75*
G02*
X17962500Y13475000I87500J0D01*
G01*
X18962500Y13475000D01*
G75*
G02*
X19050000Y13387500I0J-87500D01*
G01*
X19050000Y13212500D01*
G75*
G02*
X18962500Y13125000I-87500J0D01*
G01*
G37*
G36*
G01*
X18962500Y13625000D02*
X17962500Y13625000D01*
G75*
G02*
X17875000Y13712500I0J87500D01*
G01*
X17875000Y13887500D01*
G75*
G02*
X17962500Y13975000I87500J0D01*
G01*
X18962500Y13975000D01*
G75*
G02*
X19050000Y13887500I0J-87500D01*
G01*
X19050000Y13712500D01*
G75*
G02*
X18962500Y13625000I-87500J0D01*
G01*
G37*
G36*
G01*
X18962500Y14125000D02*
X17962500Y14125000D01*
G75*
G02*
X17875000Y14212500I0J87500D01*
G01*
X17875000Y14387500D01*
G75*
G02*
X17962500Y14475000I87500J0D01*
G01*
X18962500Y14475000D01*
G75*
G02*
X19050000Y14387500I0J-87500D01*
G01*
X19050000Y14212500D01*
G75*
G02*
X18962500Y14125000I-87500J0D01*
G01*
G37*
G36*
G01*
X19387500Y14550000D02*
X19212500Y14550000D01*
G75*
G02*
X19125000Y14637500I0J87500D01*
G01*
X19125000Y15637500D01*
G75*
G02*
X19212500Y15725000I87500J0D01*
G01*
X19387500Y15725000D01*
G75*
G02*
X19475000Y15637500I0J-87500D01*
G01*
X19475000Y14637500D01*
G75*
G02*
X19387500Y14550000I-87500J0D01*
G01*
G37*
G36*
G01*
X19887500Y14550000D02*
X19712500Y14550000D01*
G75*
G02*
X19625000Y14637500I0J87500D01*
G01*
X19625000Y15637500D01*
G75*
G02*
X19712500Y15725000I87500J0D01*
G01*
X19887500Y15725000D01*
G75*
G02*
X19975000Y15637500I0J-87500D01*
G01*
X19975000Y14637500D01*
G75*
G02*
X19887500Y14550000I-87500J0D01*
G01*
G37*
G36*
G01*
X20387500Y14550000D02*
X20212500Y14550000D01*
G75*
G02*
X20125000Y14637500I0J87500D01*
G01*
X20125000Y15637500D01*
G75*
G02*
X20212500Y15725000I87500J0D01*
G01*
X20387500Y15725000D01*
G75*
G02*
X20475000Y15637500I0J-87500D01*
G01*
X20475000Y14637500D01*
G75*
G02*
X20387500Y14550000I-87500J0D01*
G01*
G37*
G36*
G01*
X20887500Y14550000D02*
X20712500Y14550000D01*
G75*
G02*
X20625000Y14637500I0J87500D01*
G01*
X20625000Y15637500D01*
G75*
G02*
X20712500Y15725000I87500J0D01*
G01*
X20887500Y15725000D01*
G75*
G02*
X20975000Y15637500I0J-87500D01*
G01*
X20975000Y14637500D01*
G75*
G02*
X20887500Y14550000I-87500J0D01*
G01*
G37*
G36*
G01*
X21387500Y14550000D02*
X21212500Y14550000D01*
G75*
G02*
X21125000Y14637500I0J87500D01*
G01*
X21125000Y15637500D01*
G75*
G02*
X21212500Y15725000I87500J0D01*
G01*
X21387500Y15725000D01*
G75*
G02*
X21475000Y15637500I0J-87500D01*
G01*
X21475000Y14637500D01*
G75*
G02*
X21387500Y14550000I-87500J0D01*
G01*
G37*
G36*
G01*
X21887500Y14550000D02*
X21712500Y14550000D01*
G75*
G02*
X21625000Y14637500I0J87500D01*
G01*
X21625000Y15637500D01*
G75*
G02*
X21712500Y15725000I87500J0D01*
G01*
X21887500Y15725000D01*
G75*
G02*
X21975000Y15637500I0J-87500D01*
G01*
X21975000Y14637500D01*
G75*
G02*
X21887500Y14550000I-87500J0D01*
G01*
G37*
G36*
G01*
X22387500Y14550000D02*
X22212500Y14550000D01*
G75*
G02*
X22125000Y14637500I0J87500D01*
G01*
X22125000Y15637500D01*
G75*
G02*
X22212500Y15725000I87500J0D01*
G01*
X22387500Y15725000D01*
G75*
G02*
X22475000Y15637500I0J-87500D01*
G01*
X22475000Y14637500D01*
G75*
G02*
X22387500Y14550000I-87500J0D01*
G01*
G37*
G36*
G01*
X22887500Y14550000D02*
X22712500Y14550000D01*
G75*
G02*
X22625000Y14637500I0J87500D01*
G01*
X22625000Y15637500D01*
G75*
G02*
X22712500Y15725000I87500J0D01*
G01*
X22887500Y15725000D01*
G75*
G02*
X22975000Y15637500I0J-87500D01*
G01*
X22975000Y14637500D01*
G75*
G02*
X22887500Y14550000I-87500J0D01*
G01*
G37*
G36*
G01*
X23387500Y14550000D02*
X23212500Y14550000D01*
G75*
G02*
X23125000Y14637500I0J87500D01*
G01*
X23125000Y15637500D01*
G75*
G02*
X23212500Y15725000I87500J0D01*
G01*
X23387500Y15725000D01*
G75*
G02*
X23475000Y15637500I0J-87500D01*
G01*
X23475000Y14637500D01*
G75*
G02*
X23387500Y14550000I-87500J0D01*
G01*
G37*
G36*
G01*
X24637500Y14125000D02*
X23637500Y14125000D01*
G75*
G02*
X23550000Y14212500I0J87500D01*
G01*
X23550000Y14387500D01*
G75*
G02*
X23637500Y14475000I87500J0D01*
G01*
X24637500Y14475000D01*
G75*
G02*
X24725000Y14387500I0J-87500D01*
G01*
X24725000Y14212500D01*
G75*
G02*
X24637500Y14125000I-87500J0D01*
G01*
G37*
G36*
G01*
X24637500Y13625000D02*
X23637500Y13625000D01*
G75*
G02*
X23550000Y13712500I0J87500D01*
G01*
X23550000Y13887500D01*
G75*
G02*
X23637500Y13975000I87500J0D01*
G01*
X24637500Y13975000D01*
G75*
G02*
X24725000Y13887500I0J-87500D01*
G01*
X24725000Y13712500D01*
G75*
G02*
X24637500Y13625000I-87500J0D01*
G01*
G37*
G36*
G01*
X24637500Y13125000D02*
X23637500Y13125000D01*
G75*
G02*
X23550000Y13212500I0J87500D01*
G01*
X23550000Y13387500D01*
G75*
G02*
X23637500Y13475000I87500J0D01*
G01*
X24637500Y13475000D01*
G75*
G02*
X24725000Y13387500I0J-87500D01*
G01*
X24725000Y13212500D01*
G75*
G02*
X24637500Y13125000I-87500J0D01*
G01*
G37*
G36*
G01*
X24637500Y12625000D02*
X23637500Y12625000D01*
G75*
G02*
X23550000Y12712500I0J87500D01*
G01*
X23550000Y12887500D01*
G75*
G02*
X23637500Y12975000I87500J0D01*
G01*
X24637500Y12975000D01*
G75*
G02*
X24725000Y12887500I0J-87500D01*
G01*
X24725000Y12712500D01*
G75*
G02*
X24637500Y12625000I-87500J0D01*
G01*
G37*
G36*
G01*
X24637500Y12125000D02*
X23637500Y12125000D01*
G75*
G02*
X23550000Y12212500I0J87500D01*
G01*
X23550000Y12387500D01*
G75*
G02*
X23637500Y12475000I87500J0D01*
G01*
X24637500Y12475000D01*
G75*
G02*
X24725000Y12387500I0J-87500D01*
G01*
X24725000Y12212500D01*
G75*
G02*
X24637500Y12125000I-87500J0D01*
G01*
G37*
G36*
G01*
X24637500Y11625000D02*
X23637500Y11625000D01*
G75*
G02*
X23550000Y11712500I0J87500D01*
G01*
X23550000Y11887500D01*
G75*
G02*
X23637500Y11975000I87500J0D01*
G01*
X24637500Y11975000D01*
G75*
G02*
X24725000Y11887500I0J-87500D01*
G01*
X24725000Y11712500D01*
G75*
G02*
X24637500Y11625000I-87500J0D01*
G01*
G37*
G36*
G01*
X24637500Y11125000D02*
X23637500Y11125000D01*
G75*
G02*
X23550000Y11212500I0J87500D01*
G01*
X23550000Y11387500D01*
G75*
G02*
X23637500Y11475000I87500J0D01*
G01*
X24637500Y11475000D01*
G75*
G02*
X24725000Y11387500I0J-87500D01*
G01*
X24725000Y11212500D01*
G75*
G02*
X24637500Y11125000I-87500J0D01*
G01*
G37*
G36*
G01*
X24637500Y10625000D02*
X23637500Y10625000D01*
G75*
G02*
X23550000Y10712500I0J87500D01*
G01*
X23550000Y10887500D01*
G75*
G02*
X23637500Y10975000I87500J0D01*
G01*
X24637500Y10975000D01*
G75*
G02*
X24725000Y10887500I0J-87500D01*
G01*
X24725000Y10712500D01*
G75*
G02*
X24637500Y10625000I-87500J0D01*
G01*
G37*
G36*
G01*
X24637500Y10125000D02*
X23637500Y10125000D01*
G75*
G02*
X23550000Y10212500I0J87500D01*
G01*
X23550000Y10387500D01*
G75*
G02*
X23637500Y10475000I87500J0D01*
G01*
X24637500Y10475000D01*
G75*
G02*
X24725000Y10387500I0J-87500D01*
G01*
X24725000Y10212500D01*
G75*
G02*
X24637500Y10125000I-87500J0D01*
G01*
G37*
G36*
G01*
X23387500Y8875000D02*
X23212500Y8875000D01*
G75*
G02*
X23125000Y8962500I0J87500D01*
G01*
X23125000Y9962500D01*
G75*
G02*
X23212500Y10050000I87500J0D01*
G01*
X23387500Y10050000D01*
G75*
G02*
X23475000Y9962500I0J-87500D01*
G01*
X23475000Y8962500D01*
G75*
G02*
X23387500Y8875000I-87500J0D01*
G01*
G37*
G36*
G01*
X22887500Y8875000D02*
X22712500Y8875000D01*
G75*
G02*
X22625000Y8962500I0J87500D01*
G01*
X22625000Y9962500D01*
G75*
G02*
X22712500Y10050000I87500J0D01*
G01*
X22887500Y10050000D01*
G75*
G02*
X22975000Y9962500I0J-87500D01*
G01*
X22975000Y8962500D01*
G75*
G02*
X22887500Y8875000I-87500J0D01*
G01*
G37*
G36*
G01*
X22387500Y8875000D02*
X22212500Y8875000D01*
G75*
G02*
X22125000Y8962500I0J87500D01*
G01*
X22125000Y9962500D01*
G75*
G02*
X22212500Y10050000I87500J0D01*
G01*
X22387500Y10050000D01*
G75*
G02*
X22475000Y9962500I0J-87500D01*
G01*
X22475000Y8962500D01*
G75*
G02*
X22387500Y8875000I-87500J0D01*
G01*
G37*
G36*
G01*
X21887500Y8875000D02*
X21712500Y8875000D01*
G75*
G02*
X21625000Y8962500I0J87500D01*
G01*
X21625000Y9962500D01*
G75*
G02*
X21712500Y10050000I87500J0D01*
G01*
X21887500Y10050000D01*
G75*
G02*
X21975000Y9962500I0J-87500D01*
G01*
X21975000Y8962500D01*
G75*
G02*
X21887500Y8875000I-87500J0D01*
G01*
G37*
G36*
G01*
X21387500Y8875000D02*
X21212500Y8875000D01*
G75*
G02*
X21125000Y8962500I0J87500D01*
G01*
X21125000Y9962500D01*
G75*
G02*
X21212500Y10050000I87500J0D01*
G01*
X21387500Y10050000D01*
G75*
G02*
X21475000Y9962500I0J-87500D01*
G01*
X21475000Y8962500D01*
G75*
G02*
X21387500Y8875000I-87500J0D01*
G01*
G37*
G36*
G01*
X20887500Y8875000D02*
X20712500Y8875000D01*
G75*
G02*
X20625000Y8962500I0J87500D01*
G01*
X20625000Y9962500D01*
G75*
G02*
X20712500Y10050000I87500J0D01*
G01*
X20887500Y10050000D01*
G75*
G02*
X20975000Y9962500I0J-87500D01*
G01*
X20975000Y8962500D01*
G75*
G02*
X20887500Y8875000I-87500J0D01*
G01*
G37*
G36*
G01*
X20387500Y8875000D02*
X20212500Y8875000D01*
G75*
G02*
X20125000Y8962500I0J87500D01*
G01*
X20125000Y9962500D01*
G75*
G02*
X20212500Y10050000I87500J0D01*
G01*
X20387500Y10050000D01*
G75*
G02*
X20475000Y9962500I0J-87500D01*
G01*
X20475000Y8962500D01*
G75*
G02*
X20387500Y8875000I-87500J0D01*
G01*
G37*
G36*
G01*
X19887500Y8875000D02*
X19712500Y8875000D01*
G75*
G02*
X19625000Y8962500I0J87500D01*
G01*
X19625000Y9962500D01*
G75*
G02*
X19712500Y10050000I87500J0D01*
G01*
X19887500Y10050000D01*
G75*
G02*
X19975000Y9962500I0J-87500D01*
G01*
X19975000Y8962500D01*
G75*
G02*
X19887500Y8875000I-87500J0D01*
G01*
G37*
G36*
G01*
X19387500Y8875000D02*
X19212500Y8875000D01*
G75*
G02*
X19125000Y8962500I0J87500D01*
G01*
X19125000Y9962500D01*
G75*
G02*
X19212500Y10050000I87500J0D01*
G01*
X19387500Y10050000D01*
G75*
G02*
X19475000Y9962500I0J-87500D01*
G01*
X19475000Y8962500D01*
G75*
G02*
X19387500Y8875000I-87500J0D01*
G01*
G37*
%TD*%
%TO.C,R9*%
G36*
G01*
X26119999Y12010000D02*
X26119999Y11590000D01*
G75*
G02*
X25959999Y11430000I-160000J0D01*
G01*
X25639999Y11430000D01*
G75*
G02*
X25479999Y11590000I0J160000D01*
G01*
X25479999Y12010000D01*
G75*
G02*
X25639999Y12170000I160000J0D01*
G01*
X25959999Y12170000D01*
G75*
G02*
X26119999Y12010000I0J-160000D01*
G01*
G37*
G36*
G01*
X27139999Y12010000D02*
X27139999Y11590000D01*
G75*
G02*
X26979999Y11430000I-160000J0D01*
G01*
X26659999Y11430000D01*
G75*
G02*
X26499999Y11590000I0J160000D01*
G01*
X26499999Y12010000D01*
G75*
G02*
X26659999Y12170000I160000J0D01*
G01*
X26979999Y12170000D01*
G75*
G02*
X27139999Y12010000I0J-160000D01*
G01*
G37*
%TD*%
%TO.C,R8*%
G36*
G01*
X15360000Y11010000D02*
X15360000Y10590000D01*
G75*
G02*
X15200000Y10430000I-160000J0D01*
G01*
X14880000Y10430000D01*
G75*
G02*
X14720000Y10590000I0J160000D01*
G01*
X14720000Y11010000D01*
G75*
G02*
X14880000Y11170000I160000J0D01*
G01*
X15200000Y11170000D01*
G75*
G02*
X15360000Y11010000I0J-160000D01*
G01*
G37*
G36*
G01*
X16380000Y11010000D02*
X16380000Y10590000D01*
G75*
G02*
X16220000Y10430000I-160000J0D01*
G01*
X15900000Y10430000D01*
G75*
G02*
X15740000Y10590000I0J160000D01*
G01*
X15740000Y11010000D01*
G75*
G02*
X15900000Y11170000I160000J0D01*
G01*
X16220000Y11170000D01*
G75*
G02*
X16380000Y11010000I0J-160000D01*
G01*
G37*
%TD*%
%TO.C,R7*%
G36*
G01*
X26119999Y9760000D02*
X26119999Y9340000D01*
G75*
G02*
X25959999Y9180000I-160000J0D01*
G01*
X25639999Y9180000D01*
G75*
G02*
X25479999Y9340000I0J160000D01*
G01*
X25479999Y9760000D01*
G75*
G02*
X25639999Y9920000I160000J0D01*
G01*
X25959999Y9920000D01*
G75*
G02*
X26119999Y9760000I0J-160000D01*
G01*
G37*
G36*
G01*
X27139999Y9760000D02*
X27139999Y9340000D01*
G75*
G02*
X26979999Y9180000I-160000J0D01*
G01*
X26659999Y9180000D01*
G75*
G02*
X26499999Y9340000I0J160000D01*
G01*
X26499999Y9760000D01*
G75*
G02*
X26659999Y9920000I160000J0D01*
G01*
X26979999Y9920000D01*
G75*
G02*
X27139999Y9760000I0J-160000D01*
G01*
G37*
%TD*%
%TO.C,R6*%
G36*
G01*
X26120000Y8760000D02*
X26120000Y8340000D01*
G75*
G02*
X25960000Y8180000I-160000J0D01*
G01*
X25640000Y8180000D01*
G75*
G02*
X25480000Y8340000I0J160000D01*
G01*
X25480000Y8760000D01*
G75*
G02*
X25640000Y8920000I160000J0D01*
G01*
X25960000Y8920000D01*
G75*
G02*
X26120000Y8760000I0J-160000D01*
G01*
G37*
G36*
G01*
X27140000Y8760000D02*
X27140000Y8340000D01*
G75*
G02*
X26980000Y8180000I-160000J0D01*
G01*
X26660000Y8180000D01*
G75*
G02*
X26500000Y8340000I0J160000D01*
G01*
X26500000Y8760000D01*
G75*
G02*
X26660000Y8920000I160000J0D01*
G01*
X26980000Y8920000D01*
G75*
G02*
X27140000Y8760000I0J-160000D01*
G01*
G37*
%TD*%
%TO.C,C11*%
G36*
G01*
X16955000Y6150000D02*
X17345000Y6150000D01*
G75*
G02*
X17510000Y5985000I0J-165000D01*
G01*
X17510000Y5655000D01*
G75*
G02*
X17345000Y5490000I-165000J0D01*
G01*
X16955000Y5490000D01*
G75*
G02*
X16790000Y5655000I0J165000D01*
G01*
X16790000Y5985000D01*
G75*
G02*
X16955000Y6150000I165000J0D01*
G01*
G37*
G36*
G01*
X16955000Y7110000D02*
X17345000Y7110000D01*
G75*
G02*
X17510000Y6945000I0J-165000D01*
G01*
X17510000Y6615000D01*
G75*
G02*
X17345000Y6450000I-165000J0D01*
G01*
X16955000Y6450000D01*
G75*
G02*
X16790000Y6615000I0J165000D01*
G01*
X16790000Y6945000D01*
G75*
G02*
X16955000Y7110000I165000J0D01*
G01*
G37*
%TD*%
%TO.C,C8*%
G36*
G01*
X22145000Y6450000D02*
X21755000Y6450000D01*
G75*
G02*
X21590000Y6615000I0J165000D01*
G01*
X21590000Y6945000D01*
G75*
G02*
X21755000Y7110000I165000J0D01*
G01*
X22145000Y7110000D01*
G75*
G02*
X22310000Y6945000I0J-165000D01*
G01*
X22310000Y6615000D01*
G75*
G02*
X22145000Y6450000I-165000J0D01*
G01*
G37*
G36*
G01*
X22145000Y5490000D02*
X21755000Y5490000D01*
G75*
G02*
X21590000Y5655000I0J165000D01*
G01*
X21590000Y5985000D01*
G75*
G02*
X21755000Y6150000I165000J0D01*
G01*
X22145000Y6150000D01*
G75*
G02*
X22310000Y5985000I0J-165000D01*
G01*
X22310000Y5655000D01*
G75*
G02*
X22145000Y5490000I-165000J0D01*
G01*
G37*
%TD*%
D10*
%TO.C,H3*%
X32300000Y2300000D03*
%TD*%
%TO.C,H2*%
X32300000Y22300000D03*
%TD*%
%TO.C,H1*%
X2300000Y12300000D03*
%TD*%
%TO.C,U1*%
G36*
G01*
X11675000Y12820000D02*
X11025000Y12820000D01*
G75*
G02*
X10975000Y12870000I0J50000D01*
G01*
X10975000Y13930000D01*
G75*
G02*
X11025000Y13980000I50000J0D01*
G01*
X11675000Y13980000D01*
G75*
G02*
X11725000Y13930000I0J-50000D01*
G01*
X11725000Y12870000D01*
G75*
G02*
X11675000Y12820000I-50000J0D01*
G01*
G37*
G36*
G01*
X13575000Y12820000D02*
X12925000Y12820000D01*
G75*
G02*
X12875000Y12870000I0J50000D01*
G01*
X12875000Y13930000D01*
G75*
G02*
X12925000Y13980000I50000J0D01*
G01*
X13575000Y13980000D01*
G75*
G02*
X13625000Y13930000I0J-50000D01*
G01*
X13625000Y12870000D01*
G75*
G02*
X13575000Y12820000I-50000J0D01*
G01*
G37*
G36*
G01*
X13575000Y10620000D02*
X12925000Y10620000D01*
G75*
G02*
X12875000Y10670000I0J50000D01*
G01*
X12875000Y11730000D01*
G75*
G02*
X12925000Y11780000I50000J0D01*
G01*
X13575000Y11780000D01*
G75*
G02*
X13625000Y11730000I0J-50000D01*
G01*
X13625000Y10670000D01*
G75*
G02*
X13575000Y10620000I-50000J0D01*
G01*
G37*
G36*
G01*
X12625000Y10620000D02*
X11975000Y10620000D01*
G75*
G02*
X11925000Y10670000I0J50000D01*
G01*
X11925000Y11730000D01*
G75*
G02*
X11975000Y11780000I50000J0D01*
G01*
X12625000Y11780000D01*
G75*
G02*
X12675000Y11730000I0J-50000D01*
G01*
X12675000Y10670000D01*
G75*
G02*
X12625000Y10620000I-50000J0D01*
G01*
G37*
G36*
G01*
X11675000Y10620000D02*
X11025000Y10620000D01*
G75*
G02*
X10975000Y10670000I0J50000D01*
G01*
X10975000Y11730000D01*
G75*
G02*
X11025000Y11780000I50000J0D01*
G01*
X11675000Y11780000D01*
G75*
G02*
X11725000Y11730000I0J-50000D01*
G01*
X11725000Y10670000D01*
G75*
G02*
X11675000Y10620000I-50000J0D01*
G01*
G37*
%TD*%
%TO.C,R15*%
G36*
G01*
X22510000Y17500000D02*
X22090000Y17500000D01*
G75*
G02*
X21930000Y17660000I0J160000D01*
G01*
X21930000Y17980000D01*
G75*
G02*
X22090000Y18140000I160000J0D01*
G01*
X22510000Y18140000D01*
G75*
G02*
X22670000Y17980000I0J-160000D01*
G01*
X22670000Y17660000D01*
G75*
G02*
X22510000Y17500000I-160000J0D01*
G01*
G37*
G36*
G01*
X22510000Y16480000D02*
X22090000Y16480000D01*
G75*
G02*
X21930000Y16640000I0J160000D01*
G01*
X21930000Y16960000D01*
G75*
G02*
X22090000Y17120000I160000J0D01*
G01*
X22510000Y17120000D01*
G75*
G02*
X22670000Y16960000I0J-160000D01*
G01*
X22670000Y16640000D01*
G75*
G02*
X22510000Y16480000I-160000J0D01*
G01*
G37*
%TD*%
%TO.C,R13*%
G36*
G01*
X26500000Y7340000D02*
X26500000Y7760000D01*
G75*
G02*
X26660000Y7920000I160000J0D01*
G01*
X26980000Y7920000D01*
G75*
G02*
X27140000Y7760000I0J-160000D01*
G01*
X27140000Y7340000D01*
G75*
G02*
X26980000Y7180000I-160000J0D01*
G01*
X26660000Y7180000D01*
G75*
G02*
X26500000Y7340000I0J160000D01*
G01*
G37*
G36*
G01*
X25480000Y7340000D02*
X25480000Y7760000D01*
G75*
G02*
X25640000Y7920000I160000J0D01*
G01*
X25960000Y7920000D01*
G75*
G02*
X26120000Y7760000I0J-160000D01*
G01*
X26120000Y7340000D01*
G75*
G02*
X25960000Y7180000I-160000J0D01*
G01*
X25640000Y7180000D01*
G75*
G02*
X25480000Y7340000I0J160000D01*
G01*
G37*
%TD*%
%TO.C,R12*%
G36*
G01*
X26500000Y14340000D02*
X26500000Y14760000D01*
G75*
G02*
X26660000Y14920000I160000J0D01*
G01*
X26980000Y14920000D01*
G75*
G02*
X27140000Y14760000I0J-160000D01*
G01*
X27140000Y14340000D01*
G75*
G02*
X26980000Y14180000I-160000J0D01*
G01*
X26660000Y14180000D01*
G75*
G02*
X26500000Y14340000I0J160000D01*
G01*
G37*
G36*
G01*
X25480000Y14340000D02*
X25480000Y14760000D01*
G75*
G02*
X25640000Y14920000I160000J0D01*
G01*
X25960000Y14920000D01*
G75*
G02*
X26120000Y14760000I0J-160000D01*
G01*
X26120000Y14340000D01*
G75*
G02*
X25960000Y14180000I-160000J0D01*
G01*
X25640000Y14180000D01*
G75*
G02*
X25480000Y14340000I0J160000D01*
G01*
G37*
%TD*%
%TO.C,R11*%
G36*
G01*
X23510000Y17500000D02*
X23090000Y17500000D01*
G75*
G02*
X22930000Y17660000I0J160000D01*
G01*
X22930000Y17980000D01*
G75*
G02*
X23090000Y18140000I160000J0D01*
G01*
X23510000Y18140000D01*
G75*
G02*
X23670000Y17980000I0J-160000D01*
G01*
X23670000Y17660000D01*
G75*
G02*
X23510000Y17500000I-160000J0D01*
G01*
G37*
G36*
G01*
X23510000Y16480000D02*
X23090000Y16480000D01*
G75*
G02*
X22930000Y16640000I0J160000D01*
G01*
X22930000Y16960000D01*
G75*
G02*
X23090000Y17120000I160000J0D01*
G01*
X23510000Y17120000D01*
G75*
G02*
X23670000Y16960000I0J-160000D01*
G01*
X23670000Y16640000D01*
G75*
G02*
X23510000Y16480000I-160000J0D01*
G01*
G37*
%TD*%
%TO.C,R5*%
G36*
G01*
X15360000Y13010000D02*
X15360000Y12590000D01*
G75*
G02*
X15200000Y12430000I-160000J0D01*
G01*
X14880000Y12430000D01*
G75*
G02*
X14720000Y12590000I0J160000D01*
G01*
X14720000Y13010000D01*
G75*
G02*
X14880000Y13170000I160000J0D01*
G01*
X15200000Y13170000D01*
G75*
G02*
X15360000Y13010000I0J-160000D01*
G01*
G37*
G36*
G01*
X16380000Y13010000D02*
X16380000Y12590000D01*
G75*
G02*
X16220000Y12430000I-160000J0D01*
G01*
X15900000Y12430000D01*
G75*
G02*
X15740000Y12590000I0J160000D01*
G01*
X15740000Y13010000D01*
G75*
G02*
X15900000Y13170000I160000J0D01*
G01*
X16220000Y13170000D01*
G75*
G02*
X16380000Y13010000I0J-160000D01*
G01*
G37*
%TD*%
%TO.C,R4*%
G36*
G01*
X15360000Y12010000D02*
X15360000Y11590000D01*
G75*
G02*
X15200000Y11430000I-160000J0D01*
G01*
X14880000Y11430000D01*
G75*
G02*
X14720000Y11590000I0J160000D01*
G01*
X14720000Y12010000D01*
G75*
G02*
X14880000Y12170000I160000J0D01*
G01*
X15200000Y12170000D01*
G75*
G02*
X15360000Y12010000I0J-160000D01*
G01*
G37*
G36*
G01*
X16380000Y12010000D02*
X16380000Y11590000D01*
G75*
G02*
X16220000Y11430000I-160000J0D01*
G01*
X15900000Y11430000D01*
G75*
G02*
X15740000Y11590000I0J160000D01*
G01*
X15740000Y12010000D01*
G75*
G02*
X15900000Y12170000I160000J0D01*
G01*
X16220000Y12170000D01*
G75*
G02*
X16380000Y12010000I0J-160000D01*
G01*
G37*
%TD*%
%TO.C,R3*%
G36*
G01*
X7110000Y7710000D02*
X7110000Y7290000D01*
G75*
G02*
X6950000Y7130000I-160000J0D01*
G01*
X6630000Y7130000D01*
G75*
G02*
X6470000Y7290000I0J160000D01*
G01*
X6470000Y7710000D01*
G75*
G02*
X6630000Y7870000I160000J0D01*
G01*
X6950000Y7870000D01*
G75*
G02*
X7110000Y7710000I0J-160000D01*
G01*
G37*
G36*
G01*
X8130000Y7710000D02*
X8130000Y7290000D01*
G75*
G02*
X7970000Y7130000I-160000J0D01*
G01*
X7650000Y7130000D01*
G75*
G02*
X7490000Y7290000I0J160000D01*
G01*
X7490000Y7710000D01*
G75*
G02*
X7650000Y7870000I160000J0D01*
G01*
X7970000Y7870000D01*
G75*
G02*
X8130000Y7710000I0J-160000D01*
G01*
G37*
%TD*%
%TO.C,R2*%
G36*
G01*
X13840000Y8640000D02*
X14260000Y8640000D01*
G75*
G02*
X14420000Y8480000I0J-160000D01*
G01*
X14420000Y8160000D01*
G75*
G02*
X14260000Y8000000I-160000J0D01*
G01*
X13840000Y8000000D01*
G75*
G02*
X13680000Y8160000I0J160000D01*
G01*
X13680000Y8480000D01*
G75*
G02*
X13840000Y8640000I160000J0D01*
G01*
G37*
G36*
G01*
X13840000Y7620000D02*
X14260000Y7620000D01*
G75*
G02*
X14420000Y7460000I0J-160000D01*
G01*
X14420000Y7140000D01*
G75*
G02*
X14260000Y6980000I-160000J0D01*
G01*
X13840000Y6980000D01*
G75*
G02*
X13680000Y7140000I0J160000D01*
G01*
X13680000Y7460000D01*
G75*
G02*
X13840000Y7620000I160000J0D01*
G01*
G37*
%TD*%
%TO.C,R1*%
G36*
G01*
X7490000Y16890000D02*
X7490000Y17310000D01*
G75*
G02*
X7650000Y17470000I160000J0D01*
G01*
X7970000Y17470000D01*
G75*
G02*
X8130000Y17310000I0J-160000D01*
G01*
X8130000Y16890000D01*
G75*
G02*
X7970000Y16730000I-160000J0D01*
G01*
X7650000Y16730000D01*
G75*
G02*
X7490000Y16890000I0J160000D01*
G01*
G37*
G36*
G01*
X6470000Y16890000D02*
X6470000Y17310000D01*
G75*
G02*
X6630000Y17470000I160000J0D01*
G01*
X6950000Y17470000D01*
G75*
G02*
X7110000Y17310000I0J-160000D01*
G01*
X7110000Y16890000D01*
G75*
G02*
X6950000Y16730000I-160000J0D01*
G01*
X6630000Y16730000D01*
G75*
G02*
X6470000Y16890000I0J160000D01*
G01*
G37*
%TD*%
D11*
%TO.C,J3*%
X36082000Y7220000D03*
X33542000Y7220000D03*
X36082000Y9760000D03*
X33542000Y9760000D03*
X36082000Y12300000D03*
X33542000Y12300000D03*
X36082000Y14840000D03*
X33542000Y14840000D03*
X36082000Y17380000D03*
G36*
G01*
X32642000Y16530000D02*
X32642000Y18230000D01*
G75*
G02*
X32692000Y18280000I50000J0D01*
G01*
X34392000Y18280000D01*
G75*
G02*
X34442000Y18230000I0J-50000D01*
G01*
X34442000Y16530000D01*
G75*
G02*
X34392000Y16480000I-50000J0D01*
G01*
X32692000Y16480000D01*
G75*
G02*
X32642000Y16530000I0J50000D01*
G01*
G37*
%TD*%
D12*
%TO.C,J2*%
X20110000Y20300000D03*
X18840000Y20300000D03*
X17570000Y20300000D03*
G36*
G01*
X15800000Y20850000D02*
X16800000Y20850000D01*
G75*
G02*
X16850000Y20800000I0J-50000D01*
G01*
X16850000Y19800000D01*
G75*
G02*
X16800000Y19750000I-50000J0D01*
G01*
X15800000Y19750000D01*
G75*
G02*
X15750000Y19800000I0J50000D01*
G01*
X15750000Y20800000D01*
G75*
G02*
X15800000Y20850000I50000J0D01*
G01*
G37*
%TD*%
D13*
%TO.C,J1*%
X6600000Y15550000D03*
X6600000Y14600000D03*
X6600000Y12750000D03*
X6600000Y11850000D03*
X6600000Y10950000D03*
X6600000Y10000000D03*
X6600000Y9050000D03*
X8000000Y9050000D03*
X8000000Y10000000D03*
X8000000Y11850000D03*
X8000000Y12750000D03*
X8000000Y13650000D03*
X8000000Y14600000D03*
X8000000Y15550000D03*
D14*
X5370000Y10300000D03*
X9230000Y10300000D03*
X5370000Y14300000D03*
X9230000Y14300000D03*
%TD*%
%TO.C,D3*%
G36*
G01*
X22581250Y20312499D02*
X22018750Y20312499D01*
G75*
G02*
X21775000Y20556249I0J243750D01*
G01*
X21775000Y21043749D01*
G75*
G02*
X22018750Y21287499I243750J0D01*
G01*
X22581250Y21287499D01*
G75*
G02*
X22825000Y21043749I0J-243750D01*
G01*
X22825000Y20556249D01*
G75*
G02*
X22581250Y20312499I-243750J0D01*
G01*
G37*
G36*
G01*
X22581250Y18737499D02*
X22018750Y18737499D01*
G75*
G02*
X21775000Y18981249I0J243750D01*
G01*
X21775000Y19468749D01*
G75*
G02*
X22018750Y19712499I243750J0D01*
G01*
X22581250Y19712499D01*
G75*
G02*
X22825000Y19468749I0J-243750D01*
G01*
X22825000Y18981249D01*
G75*
G02*
X22581250Y18737499I-243750J0D01*
G01*
G37*
%TD*%
%TO.C,D1*%
G36*
G01*
X24081250Y20312500D02*
X23518750Y20312500D01*
G75*
G02*
X23275000Y20556250I0J243750D01*
G01*
X23275000Y21043750D01*
G75*
G02*
X23518750Y21287500I243750J0D01*
G01*
X24081250Y21287500D01*
G75*
G02*
X24325000Y21043750I0J-243750D01*
G01*
X24325000Y20556250D01*
G75*
G02*
X24081250Y20312500I-243750J0D01*
G01*
G37*
G36*
G01*
X24081250Y18737500D02*
X23518750Y18737500D01*
G75*
G02*
X23275000Y18981250I0J243750D01*
G01*
X23275000Y19468750D01*
G75*
G02*
X23518750Y19712500I243750J0D01*
G01*
X24081250Y19712500D01*
G75*
G02*
X24325000Y19468750I0J-243750D01*
G01*
X24325000Y18981250D01*
G75*
G02*
X24081250Y18737500I-243750J0D01*
G01*
G37*
%TD*%
%TO.C,C13*%
G36*
G01*
X26130000Y6745000D02*
X26130000Y6355000D01*
G75*
G02*
X25965000Y6190000I-165000J0D01*
G01*
X25635000Y6190000D01*
G75*
G02*
X25470000Y6355000I0J165000D01*
G01*
X25470000Y6745000D01*
G75*
G02*
X25635000Y6910000I165000J0D01*
G01*
X25965000Y6910000D01*
G75*
G02*
X26130000Y6745000I0J-165000D01*
G01*
G37*
G36*
G01*
X27090000Y6745000D02*
X27090000Y6355000D01*
G75*
G02*
X26925000Y6190000I-165000J0D01*
G01*
X26595000Y6190000D01*
G75*
G02*
X26430000Y6355000I0J165000D01*
G01*
X26430000Y6745000D01*
G75*
G02*
X26595000Y6910000I165000J0D01*
G01*
X26925000Y6910000D01*
G75*
G02*
X27090000Y6745000I0J-165000D01*
G01*
G37*
%TD*%
%TO.C,C12*%
G36*
G01*
X26130000Y13745000D02*
X26130000Y13355000D01*
G75*
G02*
X25965000Y13190000I-165000J0D01*
G01*
X25635000Y13190000D01*
G75*
G02*
X25470000Y13355000I0J165000D01*
G01*
X25470000Y13745000D01*
G75*
G02*
X25635000Y13910000I165000J0D01*
G01*
X25965000Y13910000D01*
G75*
G02*
X26130000Y13745000I0J-165000D01*
G01*
G37*
G36*
G01*
X27090000Y13745000D02*
X27090000Y13355000D01*
G75*
G02*
X26925000Y13190000I-165000J0D01*
G01*
X26595000Y13190000D01*
G75*
G02*
X26430000Y13355000I0J165000D01*
G01*
X26430000Y13745000D01*
G75*
G02*
X26595000Y13910000I165000J0D01*
G01*
X26925000Y13910000D01*
G75*
G02*
X27090000Y13745000I0J-165000D01*
G01*
G37*
%TD*%
%TO.C,C7*%
G36*
G01*
X18605000Y17130000D02*
X18995000Y17130000D01*
G75*
G02*
X19160000Y16965000I0J-165000D01*
G01*
X19160000Y16635000D01*
G75*
G02*
X18995000Y16470000I-165000J0D01*
G01*
X18605000Y16470000D01*
G75*
G02*
X18440000Y16635000I0J165000D01*
G01*
X18440000Y16965000D01*
G75*
G02*
X18605000Y17130000I165000J0D01*
G01*
G37*
G36*
G01*
X18605000Y18090000D02*
X18995000Y18090000D01*
G75*
G02*
X19160000Y17925000I0J-165000D01*
G01*
X19160000Y17595000D01*
G75*
G02*
X18995000Y17430000I-165000J0D01*
G01*
X18605000Y17430000D01*
G75*
G02*
X18440000Y17595000I0J165000D01*
G01*
X18440000Y17925000D01*
G75*
G02*
X18605000Y18090000I165000J0D01*
G01*
G37*
%TD*%
%TO.C,C6*%
G36*
G01*
X14760000Y9105000D02*
X14760000Y9495000D01*
G75*
G02*
X14925000Y9660000I165000J0D01*
G01*
X15255000Y9660000D01*
G75*
G02*
X15420000Y9495000I0J-165000D01*
G01*
X15420000Y9105000D01*
G75*
G02*
X15255000Y8940000I-165000J0D01*
G01*
X14925000Y8940000D01*
G75*
G02*
X14760000Y9105000I0J165000D01*
G01*
G37*
G36*
G01*
X15720000Y9105000D02*
X15720000Y9495000D01*
G75*
G02*
X15885000Y9660000I165000J0D01*
G01*
X16215000Y9660000D01*
G75*
G02*
X16380000Y9495000I0J-165000D01*
G01*
X16380000Y9105000D01*
G75*
G02*
X16215000Y8940000I-165000J0D01*
G01*
X15885000Y8940000D01*
G75*
G02*
X15720000Y9105000I0J165000D01*
G01*
G37*
%TD*%
%TO.C,C4*%
G36*
G01*
X23495000Y5510000D02*
X23105000Y5510000D01*
G75*
G02*
X22940000Y5675000I0J165000D01*
G01*
X22940000Y6005000D01*
G75*
G02*
X23105000Y6170000I165000J0D01*
G01*
X23495000Y6170000D01*
G75*
G02*
X23660000Y6005000I0J-165000D01*
G01*
X23660000Y5675000D01*
G75*
G02*
X23495000Y5510000I-165000J0D01*
G01*
G37*
G36*
G01*
X23495000Y6470000D02*
X23105000Y6470000D01*
G75*
G02*
X22940000Y6635000I0J165000D01*
G01*
X22940000Y6965000D01*
G75*
G02*
X23105000Y7130000I165000J0D01*
G01*
X23495000Y7130000D01*
G75*
G02*
X23660000Y6965000I0J-165000D01*
G01*
X23660000Y6635000D01*
G75*
G02*
X23495000Y6470000I-165000J0D01*
G01*
G37*
%TD*%
%TO.C,C3*%
G36*
G01*
X11000000Y15600000D02*
X12000000Y15600000D01*
G75*
G02*
X12275000Y15325000I0J-275000D01*
G01*
X12275000Y14775000D01*
G75*
G02*
X12000000Y14500000I-275000J0D01*
G01*
X11000000Y14500000D01*
G75*
G02*
X10725000Y14775000I0J275000D01*
G01*
X10725000Y15325000D01*
G75*
G02*
X11000000Y15600000I275000J0D01*
G01*
G37*
G36*
G01*
X11000000Y17500000D02*
X12000000Y17500000D01*
G75*
G02*
X12275000Y17225000I0J-275000D01*
G01*
X12275000Y16675000D01*
G75*
G02*
X12000000Y16400000I-275000J0D01*
G01*
X11000000Y16400000D01*
G75*
G02*
X10725000Y16675000I0J275000D01*
G01*
X10725000Y17225000D01*
G75*
G02*
X11000000Y17500000I275000J0D01*
G01*
G37*
%TD*%
%TO.C,C2*%
G36*
G01*
X13055000Y15030000D02*
X13445000Y15030000D01*
G75*
G02*
X13610000Y14865000I0J-165000D01*
G01*
X13610000Y14535000D01*
G75*
G02*
X13445000Y14370000I-165000J0D01*
G01*
X13055000Y14370000D01*
G75*
G02*
X12890000Y14535000I0J165000D01*
G01*
X12890000Y14865000D01*
G75*
G02*
X13055000Y15030000I165000J0D01*
G01*
G37*
G36*
G01*
X13055000Y15990000D02*
X13445000Y15990000D01*
G75*
G02*
X13610000Y15825000I0J-165000D01*
G01*
X13610000Y15495000D01*
G75*
G02*
X13445000Y15330000I-165000J0D01*
G01*
X13055000Y15330000D01*
G75*
G02*
X12890000Y15495000I0J165000D01*
G01*
X12890000Y15825000D01*
G75*
G02*
X13055000Y15990000I165000J0D01*
G01*
G37*
%TD*%
%TO.C,C1*%
G36*
G01*
X12000000Y9000000D02*
X11000000Y9000000D01*
G75*
G02*
X10725000Y9275000I0J275000D01*
G01*
X10725000Y9825000D01*
G75*
G02*
X11000000Y10100000I275000J0D01*
G01*
X12000000Y10100000D01*
G75*
G02*
X12275000Y9825000I0J-275000D01*
G01*
X12275000Y9275000D01*
G75*
G02*
X12000000Y9000000I-275000J0D01*
G01*
G37*
G36*
G01*
X12000000Y7100000D02*
X11000000Y7100000D01*
G75*
G02*
X10725000Y7375000I0J275000D01*
G01*
X10725000Y7925000D01*
G75*
G02*
X11000000Y8200000I275000J0D01*
G01*
X12000000Y8200000D01*
G75*
G02*
X12275000Y7925000I0J-275000D01*
G01*
X12275000Y7375000D01*
G75*
G02*
X12000000Y7100000I-275000J0D01*
G01*
G37*
%TD*%
M02*
